<?xml version="1.0" standalone="no"?>
<!DOCTYPE svg PUBLIC "-//W3C//DTD SVG 1.1//EN" "http://www.w3.org/Graphics/SVG/1.1/DTD/svg11.dtd" >
<svg xmlns="http://www.w3.org/2000/svg" xmlns:xlink="http://www.w3.org/1999/xlink" version="1.1">
<metadata></metadata>
<defs>
<font id="db_heaventroundedmed_it" horiz-adv-x="0" >
<font-face units-per-em="2560" ascent="2048" descent="-512" />
<missing-glyph horiz-adv-x="622" />
<glyph unicode="&#x2b;&#x2d;" horiz-adv-x="1500" d="M-47 116q11 54 57 85t112 31h1035q66 0 98 -31t21 -85q-12 -55 -57.5 -85.5t-111.5 -30.5h-1034q-32 0 -57 10t-40.5 25.5t-21 37t-1.5 43.5zM136 933q-6 19 0 42q11 55 57 86q44 32 110 32h399l86 400q6 31 20 57.5t33.5 46t43.5 30t53 10.5q56 0 79 -40q24 -40 10 -104 l-86 -400h397q66 0 99 -31.5t22 -86.5q-12 -54 -57.5 -85t-111.5 -31h-399l-86 -401q-6 -32 -20 -58.5t-33.5 -45t-43.5 -29t-52 -10.5q-55 0 -78 40t-10 103l86 401h-399q-32 0 -57 10t-40.5 26.5t-21.5 37.5z" />
<glyph unicode="&#x2e;&#x2e;&#x2e;" horiz-adv-x="2481" d="M99.5 101.5q-7.5 32.5 0.5 72.5q9 39 31 74t53.5 61t68 40t76.5 14q39 0 70 -14t51 -40t28 -61q7 -36 0 -74q-9 -40 -31 -72.5t-53 -59t-69 -41t-76 -14.5q-40 0 -71 14.5t-51 41t-27.5 59zM924.5 101.5q-7.5 32.5 0.5 72.5q9 39 31 74t53.5 61t68 40t76.5 14 q39 0 70.5 -14t51.5 -40t27 -61q7 -36 0 -74q-9 -40 -31 -72.5t-53 -59t-68.5 -41t-76.5 -14.5q-40 0 -71 14.5t-51 41t-27.5 59zM1751 101.5q-8 32.5 1 72.5q8 39 30.5 74t54 61t68.5 40t75.5 14t70 -14t51.5 -40t27 -61q7 -36 0 -74q-8 -40 -30.5 -72.5t-53 -59t-68.5 -41 t-77 -14.5q-40 0 -70.5 14.5t-50.5 41t-28 59z" />
<glyph unicode="&#x3c;&#x3d;" horiz-adv-x="1595" d="M-5 64q-6 23 1 58q7 32 22.5 55t38.5 37.5t50 21t57 6.5h1016q30 0 54 -6.5t40 -21t23 -37.5t0 -55q-7 -35 -23.5 -58t-38.5 -37t-49.5 -20.5t-57.5 -6.5h-1015q-30 0 -54.5 6.5t-41 20.5t-22.5 37zM187 1011q9 40 37 71.5t63 45.5l1107 462q36 16 69.5 24.5t60 4t45 -23 t25.5 -56.5q6 -30 -3 -56t-28.5 -46t-44.5 -35.5t-54 -27.5l-906 -363l750 -362q23 -13 42.5 -28t29.5 -36.5t7 -47t-24 -58.5q-26 -40 -54.5 -56.5t-59.5 -18t-61 8.5t-57 25l-894 454q-28 16 -43 47.5t-7 71.5z" />
<glyph unicode="&#x3e;&#x3d;" horiz-adv-x="1595" d="M27 64q-7 23 0 58q7 32 23.5 55t39.5 37.5t50 20.5q29 7 57 7h1016q30 0 54 -6.5t40.5 -21t22.5 -37.5t-2 -55q-7 -35 -22.5 -58t-37.5 -37t-50 -20.5t-57 -6.5h-1015q-30 0 -54.5 6.5t-41 20.5t-23.5 37zM113 479q-7 33 1.5 58.5t27 47t45 37.5t55.5 27l903 362 l-753 363q-23 12 -41.5 27.5t-28.5 35.5t-8.5 46t18.5 56q23 40 50 57.5t55.5 22t58.5 -4.5q30 -10 60 -24l910 -462q28 -15 43 -46.5t8 -70.5q-8 -40 -37 -71.5t-64 -47.5l-1086 -454q-34 -15 -68.5 -25t-64.5 -8.5t-52 18.5t-32 56z" />
<glyph unicode="&#xe4f;&#x22;" horiz-adv-x="1856" d="M113 538q-7 100 16 208q23 109 73 210t120 188t158 159.5t187 123t206.5 78.5t216 28t203 -28t170.5 -78.5t133 -123t89 -159.5t39 -187q6 -102 -17 -211q-22 -108 -72.5 -208t-119.5 -188t-156.5 -160.5t-185.5 -123t-203.5 -78.5t-213.5 -28q-110 0 -205.5 28 t-173 78.5t-134.5 123t-90 160.5t-40 188zM347.5 533q22.5 -105 83.5 -184t156 -124t215 -45q77 0 154.5 20t148 58.5t134.5 91t114.5 116t86.5 136.5t53 153q17 79 12 151t-29.5 135t-65 114.5t-95.5 88.5t-123 57t-147 20q-80 0 -158 -20t-149.5 -57t-135 -88.5 t-113.5 -114.5t-85.5 -135t-53.5 -151q-25 -117 -2.5 -222zM503 592q-18 76 0 163q18 84 68 158.5t119 132t153 90t169 32.5t152 -32.5t110.5 -90t61 -132.5t0.5 -158q-19 -87 -68.5 -163t-116.5 -133t-148.5 -89.5t-165.5 -32.5q-88 0 -157 32.5t-114 89.5t-63 133z M695 664.5q9 -41.5 33 -72t62 -47.5t87 -17q45 0 88 17t79 47.5t61.5 72t35.5 90.5q10 46 1.5 85t-31.5 69.5t-58.5 47.5t-81.5 17q-49 0 -94 -17t-81.5 -47.5t-62 -69.5t-35.5 -85q-12 -49 -3 -90.5zM844 1842l47 224q11 53 49 86.5t91 33.5t76.5 -33.5t12.5 -86.5 l-48 -224q-11 -53 -49 -86.5t-91 -33.5t-76.5 33.5t-11.5 86.5zM1246 1842l47 224q11 53 49 86.5t91 33.5t76.5 -33.5t12.5 -86.5l-48 -224q-11 -53 -50 -87q-40 -33 -91 -33q-53 0 -76 33.5t-11 86.5z" />
<glyph unicode="&#xe0e;&#xe3a;" horiz-adv-x="1643" d="M-89 75q-3 22 2 48t18 47.5t31.5 38.5t41.5 26.5t49 9.5h64l122 567q8 40 7.5 80t-16.5 78q-16 31 -28 50.5t-15.5 36.5t4.5 37t31 56q50 74 120.5 144t163.5 123t209.5 84.5t258.5 31.5q131 0 230 -23.5t167 -67t108.5 -102.5t59 -129t16.5 -148q-2 -79 -19 -159 l-266 -1253q-9 -39 -31 -72.5t-53 -58.5t-68 -40t-76 -15q-41 0 -72.5 16.5t-51.5 45.5q-17 25 -44 48t-66.5 39.5t-93 26.5t-122.5 10q-44 0 -88.5 -12t-89 -33.5t-88 -50t-86.5 -63.5q-20 -15 -43.5 -21.5t-45 -4.5t-39.5 12t-29 27q-11 19 -12.5 41t5.5 44t21.5 43 t32.5 37q56 51 121 93.5t133 72.5t134.5 45.5t125.5 15.5q70 0 125.5 -8t98.5 -20.5t74 -29.5q33 -16 56 -33l239 1124q13 62 7 124.5t-41.5 111t-104 79.5t-180.5 33q-91 2 -164 -19.5t-127.5 -53.5t-89.5 -69q-35 -35 -49 -66q38 -42 52.5 -111.5t-2.5 -149.5l-146 -686 q-6 -26 -19.5 -48t-34.5 -39t-45 -26.5t-48 -9.5h-244q-25 0 -44.5 9.5t-31 26.5t-14.5 39zM809 -821q9 43 33.5 80t58 66t74 44.5t83.5 15.5q42 0 75.5 -15.5t55 -44.5t29.5 -66t-1 -80q-9 -41 -33 -77.5t-57 -64t-73 -43t-82 -15.5t-76.5 15.5t-56 43t-30 64t-0.5 77.5z " />
<glyph unicode="&#xe0f;&#xe3a;" horiz-adv-x="1643" d="M-93 -431q1 22 13 48q31 71 76 124t96.5 86.5t106 50t104.5 16.5q89 0 149.5 -36.5t92.5 -102.5q31 32 66 55.5t72.5 40t71.5 24.5t66 8q67 0 110 -19.5t69 -50.5l237 1117q13 62 7 124.5t-41.5 111t-104 79.5t-180.5 33q-91 2 -164 -19.5t-127.5 -53.5t-89.5 -69 q-35 -35 -49 -66q38 -42 52.5 -111.5t-2.5 -149.5l-146 -686q-6 -26 -19.5 -48t-34.5 -39t-45 -26.5t-48 -9.5h-244q-25 0 -44.5 9.5t-31 26.5t-14.5 39t2 48t18 47.5t31.5 38.5t41.5 26.5t49 9.5h64l122 567q8 40 7.5 80t-16.5 78q-16 31 -28 50.5t-15.5 36.5t4.5 37t31 56 q50 74 120.5 144t163.5 123t209.5 84.5t258.5 31.5q131 0 230 -23.5t167 -67t108.5 -102.5t59 -129t16.5 -148q-2 -79 -19 -159l-269 -1266q-7 -36 -28 -67t-49.5 -55t-62.5 -37.5t-70 -13.5q-52 0 -87 26t-46 69q-6 20 -15.5 37.5t-23 32t-32 22.5t-44.5 8q-25 0 -46.5 -8 t-41 -22.5t-36 -32t-27.5 -37.5q-13 -20 -31 -37.5t-38.5 -30.5t-44 -20t-48.5 -7q-48 0 -79.5 27.5t-38.5 69.5q-3 19 -10.5 37t-19 32t-28.5 23q-20 9 -45 9q-23 0 -43 -9t-36.5 -23t-30 -33.5t-23.5 -40.5q-12 -25 -31 -44t-42 -31.5t-47.5 -16t-47.5 3.5q-23 6 -38.5 21 t-22.5 35t-6 44zM809 -821q9 43 33.5 80t58 66t74 44.5t83.5 15.5q42 0 75.5 -15.5t55 -44.5t29.5 -66t-1 -80q-9 -41 -33 -77.5t-57 -64t-73 -43t-82 -15.5t-76.5 15.5t-56 43t-30 64t-0.5 77.5z" />
<glyph unicode="&#xe0e;&#xe38;" horiz-adv-x="1643" d="M-89 75q-3 22 2 48t18 47.5t31.5 38.5t41.5 26.5t49 9.5h64l122 567q8 40 7.5 80t-16.5 78q-16 31 -28 50.5t-15.5 36.5t4.5 37t31 56q50 74 120.5 144t163.5 123t209.5 84.5t258.5 31.5q131 0 230 -23.5t167 -67t108.5 -102.5t59 -129t16.5 -148q-2 -79 -19 -159 l-266 -1253q-9 -39 -31 -72.5t-53 -58.5t-68 -40t-76 -15q-41 0 -72.5 16.5t-51.5 45.5q-17 25 -44 48t-66.5 39.5t-93 26.5t-122.5 10q-44 0 -88.5 -12t-89 -33.5t-88 -50t-86.5 -63.5q-20 -15 -43.5 -21.5t-45 -4.5t-39.5 12t-29 27q-11 19 -12.5 41t5.5 44t21.5 43 t32.5 37q56 51 121 93.5t133 72.5t134.5 45.5t125.5 15.5q70 0 125.5 -8t98.5 -20.5t74 -29.5q33 -16 56 -33l239 1124q13 62 7 124.5t-41.5 111t-104 79.5t-180.5 33q-91 2 -164 -19.5t-127.5 -53.5t-89.5 -69q-35 -35 -49 -66q38 -42 52.5 -111.5t-2.5 -149.5l-146 -686 q-6 -26 -19.5 -48t-34.5 -39t-45 -26.5t-48 -9.5h-244q-25 0 -44.5 9.5t-31 26.5t-14.5 39zM738 -770.5q-3 21.5 3 44.5q5 24 16.5 45.5t29 37t39 24t45.5 8.5h236q24 0 41 -8.5t28 -24t14 -37.5q4 -23 -2 -45l-71 -338q-6 -30 -22.5 -54.5t-39.5 -41.5t-50 -27t-57 -10 t-53.5 10t-38.5 27t-21.5 41.5t0.5 54.5l47 223h-61q-24 0 -41.5 8.5t-28 24.5t-13.5 37.5z" />
<glyph unicode="&#xe0f;&#xe38;" horiz-adv-x="1643" d="M-93 -431q1 22 13 48q31 71 76 124t96.5 86.5t106 50t104.5 16.5q89 0 149.5 -36.5t92.5 -102.5q31 32 66 55.5t72.5 40t71.5 24.5t66 8q67 0 110 -19.5t69 -50.5l237 1117q13 62 7 124.5t-41.5 111t-104 79.5t-180.5 33q-91 2 -164 -19.5t-127.5 -53.5t-89.5 -69 q-35 -35 -49 -66q38 -42 52.5 -111.5t-2.5 -149.5l-146 -686q-6 -26 -19.5 -48t-34.5 -39t-45 -26.5t-48 -9.5h-244q-25 0 -44.5 9.5t-31 26.5t-14.5 39t2 48t18 47.5t31.5 38.5t41.5 26.5t49 9.5h64l122 567q8 40 7.5 80t-16.5 78q-16 31 -28 50.5t-15.5 36.5t4.5 37t31 56 q50 74 120.5 144t163.5 123t209.5 84.5t258.5 31.5q131 0 230 -23.5t167 -67t108.5 -102.5t59 -129t16.5 -148q-2 -79 -19 -159l-269 -1266q-7 -36 -28 -67t-49.5 -55t-62.5 -37.5t-70 -13.5q-52 0 -87 26t-46 69q-6 20 -15.5 37.5t-23 32t-32 22.5t-44.5 8q-25 0 -46.5 -8 t-41 -22.5t-36 -32t-27.5 -37.5q-13 -20 -31 -37.5t-38.5 -30.5t-44 -20t-48.5 -7q-48 0 -79.5 27.5t-38.5 69.5q-3 19 -10.5 37t-19 32t-28.5 23q-20 9 -45 9q-23 0 -43 -9t-36.5 -23t-30 -33.5t-23.5 -40.5q-12 -25 -31 -44t-42 -31.5t-47.5 -16t-47.5 3.5q-23 6 -38.5 21 t-22.5 35t-6 44zM738 -770.5q-3 21.5 3 44.5q5 24 16.5 45.5t29 37t39 24t45.5 8.5h236q24 0 41 -8.5t28 -24t14 -37.5q4 -23 -2 -45l-71 -338q-6 -30 -22.5 -54.5t-39.5 -41.5t-50 -27t-57 -10t-53.5 10t-38.5 27t-21.5 41.5t0.5 54.5l47 223h-61q-24 0 -41.5 8.5t-28 24.5 t-13.5 37.5z" />
<glyph unicode="&#xe0e;&#xe39;" horiz-adv-x="1643" d="M-89 75q-3 22 2 48t18 47.5t31.5 38.5t41.5 26.5t49 9.5h64l122 567q8 40 7.5 80t-16.5 78q-16 31 -28 50.5t-15.5 36.5t4.5 37t31 56q50 74 120.5 144t163.5 123t209.5 84.5t258.5 31.5q131 0 230 -23.5t167 -67t108.5 -102.5t59 -129t16.5 -148q-2 -79 -19 -159 l-266 -1253q-9 -39 -31 -72.5t-53 -58.5t-68 -40t-76 -15q-41 0 -72.5 16.5t-51.5 45.5q-17 25 -44 48t-66.5 39.5t-93 26.5t-122.5 10q-44 0 -88.5 -12t-89 -33.5t-88 -50t-86.5 -63.5q-20 -15 -43.5 -21.5t-45 -4.5t-39.5 12t-29 27q-11 19 -12.5 41t5.5 44t21.5 43 t32.5 37q56 51 121 93.5t133 72.5t134.5 45.5t125.5 15.5q70 0 125.5 -8t98.5 -20.5t74 -29.5q33 -16 56 -33l239 1124q13 62 7 124.5t-41.5 111t-104 79.5t-180.5 33q-91 2 -164 -19.5t-127.5 -53.5t-89.5 -69q-35 -35 -49 -66q38 -42 52.5 -111.5t-2.5 -149.5l-146 -686 q-6 -26 -19.5 -48t-34.5 -39t-45 -26.5t-48 -9.5h-244q-25 0 -44.5 9.5t-31 26.5t-14.5 39zM206.5 -771.5q-3.5 20.5 2.5 45.5q5 24 17.5 44.5t29.5 36.5t39 24q22 9 45 9h235q24 0 42 -8.5t28.5 -24.5t14.5 -36.5t-2 -44.5l-20 -91q-16 -71 7.5 -108t86.5 -37q60 0 100 37 t56 108l19 92q5 30 21.5 54.5t39.5 41.5t51 26.5t56 9.5q30 0 54 -9.5t39.5 -26.5t21 -41.5t-1.5 -54.5l-18 -92q-16 -77 -52.5 -146t-95 -120.5t-143 -82.5t-195.5 -31q-106 0 -177 26t-111 72.5t-50.5 112t1.5 144.5h-57q-24 0 -41 9t-28 25t-14.5 36.5z" />
<glyph unicode="&#xe0f;&#xe39;" horiz-adv-x="1643" d="M-93 -431q1 22 13 48q31 71 76 124t96.5 86.5t106 50t104.5 16.5q89 0 149.5 -36.5t92.5 -102.5q31 32 66 55.5t72.5 40t71.5 24.5t66 8q67 0 110 -19.5t69 -50.5l237 1117q13 62 7 124.5t-41.5 111t-104 79.5t-180.5 33q-91 2 -164 -19.5t-127.5 -53.5t-89.5 -69 q-35 -35 -49 -66q38 -42 52.5 -111.5t-2.5 -149.5l-146 -686q-6 -26 -19.5 -48t-34.5 -39t-45 -26.5t-48 -9.5h-244q-25 0 -44.5 9.5t-31 26.5t-14.5 39t2 48t18 47.5t31.5 38.5t41.5 26.5t49 9.5h64l122 567q8 40 7.5 80t-16.5 78q-16 31 -28 50.5t-15.5 36.5t4.5 37t31 56 q50 74 120.5 144t163.5 123t209.5 84.5t258.5 31.5q131 0 230 -23.5t167 -67t108.5 -102.5t59 -129t16.5 -148q-2 -79 -19 -159l-269 -1266q-7 -36 -28 -67t-49.5 -55t-62.5 -37.5t-70 -13.5q-52 0 -87 26t-46 69q-6 20 -15.5 37.5t-23 32t-32 22.5t-44.5 8q-25 0 -46.5 -8 t-41 -22.5t-36 -32t-27.5 -37.5q-13 -20 -31 -37.5t-38.5 -30.5t-44 -20t-48.5 -7q-48 0 -79.5 27.5t-38.5 69.5q-3 19 -10.5 37t-19 32t-28.5 23q-20 9 -45 9q-23 0 -43 -9t-36.5 -23t-30 -33.5t-23.5 -40.5q-12 -25 -31 -44t-42 -31.5t-47.5 -16t-47.5 3.5q-23 6 -38.5 21 t-22.5 35t-6 44zM206.5 -771.5q-3.5 20.5 2.5 45.5q5 24 17.5 44.5t29.5 36.5t39 24q22 9 45 9h235q24 0 42 -8.5t28.5 -24.5t14.5 -36.5t-2 -44.5l-20 -91q-16 -71 7.5 -108t86.5 -37q60 0 100 37t56 108l19 92q5 30 21.5 54.5t39.5 41.5t51 26.5t56 9.5q30 0 54 -9.5 t39.5 -26.5t21 -41.5t-1.5 -54.5l-18 -92q-16 -77 -52.5 -146t-95 -120.5t-143 -82.5t-195.5 -31q-106 0 -177 26t-111 72.5t-50.5 112t1.5 144.5h-57q-24 0 -41 9t-28 25t-14.5 36.5z" />
<glyph unicode=" "  horiz-adv-x="622" />
<glyph unicode="&#x09;" horiz-adv-x="622" />
<glyph unicode="&#xa0;" horiz-adv-x="622" />
<glyph unicode="!" horiz-adv-x="925" d="M151 99.5q-8 33.5 1 70.5q8 37 29.5 70t51.5 58t67 39.5t76 14.5t69 -14.5t50.5 -39.5t28.5 -58t-1 -70q-8 -37 -29.5 -70.5t-51.5 -58.5t-67.5 -39.5t-75.5 -14.5q-39 0 -69.5 14.5t-50.5 39.5t-28 58.5zM333 563q16 159 26.5 267t17 177.5t9.5 107.5t4.5 56.5t3 25.5 t2.5 17l77 362q20 91 66.5 137.5t138.5 46.5q91 0 118.5 -46.5t7.5 -137.5l-78 -362q-1 -9 -3 -16.5t-9.5 -26t-20 -56.5t-35.5 -107.5t-59 -177.5t-87 -267q-17 -51 -45 -69.5t-62 -18.5q-35 0 -55 18.5t-17 69.5z" />
<glyph unicode="&#x22;" horiz-adv-x="1093" d="M346 1233l89 417q5 26 18 48t31 38t40 24.5t48 8.5q51 0 75 -33t12 -86l-88 -417q-12 -52 -49 -84t-89 -32q-51 0 -74.5 32t-12.5 84zM731 1233l88 417q12 53 49 86t89 33q51 0 74.5 -33t10.5 -86l-87 -417q-11 -52 -48.5 -84t-88.5 -32q-52 0 -75.5 32t-11.5 84z" />
<glyph unicode="#" horiz-adv-x="1467" d="M68 574q-2 19 2 39q3 20 13.5 39t28 34t40 23.5t54.5 8.5h143l109 306h-108q-31 0 -52 9t-31.5 24t-12.5 34.5t2 39.5t15 38.5t28 33.5t40.5 24.5t56.5 9.5h142l138 393q9 25 22.5 46t32 37t44.5 25t62 9q22 0 41 -6t32.5 -17.5t19 -29t1.5 -37.5q-1 -2 -3.5 -9.5l-8 -24 t-16.5 -45t-27.5 -73.5t-40 -111t-56.5 -157h248l138 393q9 25 22 46t31.5 37t45 25t62.5 9q22 0 41 -6t31.5 -17.5t17.5 -29t1 -37.5q-1 -2 -2.5 -9.5t-7.5 -24t-16 -45t-26.5 -73.5t-40 -111t-54.5 -157h109q30 0 50 -9.5t30.5 -24.5t12.5 -34q4 -19 -2 -38 q-4 -20 -14 -39.5t-27.5 -34.5t-41 -24t-54.5 -9h-143l-107 -306h107q31 0 51 -8.5t31.5 -23.5t13.5 -34t-2 -39t-14 -39t-28 -34t-42.5 -24.5t-54.5 -9.5h-141l-142 -390q-8 -24 -20.5 -45.5t-31 -37.5t-45 -24.5t-61.5 -8.5q-26 0 -45.5 8.5t-31 23.5t-14 33.5t4.5 40.5 l141 400h-244l-140 -390q-9 -24 -22 -45t-31.5 -37.5t-45 -25t-62.5 -8.5q-22 0 -41 6.5t-31 18t-17.5 28t-1.5 36.5l147 417h-108q-32 0 -51 9.5t-30 24.5t-13 34zM592 718h246l109 306h-245z" />
<glyph unicode="$" horiz-adv-x="1445" d="M-6 367.5q-5 58.5 2 114.5q3 30 17 58.5t35 50t46.5 34.5t54.5 16q27 1 50.5 -7t41.5 -23.5t28 -40.5t8 -61q-2 -56 13.5 -103.5t49 -85t84.5 -62.5t122 -33l116 549q-46 11 -91 22.5t-88 27.5q-105 37 -166 87t-89 109.5t-29.5 125t13.5 132.5q17 80 52.5 146 t85.5 120.5t111.5 96.5t129.5 71.5t140.5 46.5t145.5 23l30 143q2 16 11.5 31.5t21.5 27t26.5 18.5t28.5 7q15 0 25.5 -7t17.5 -18.5t9.5 -27t-2.5 -31.5l-30 -145q83 -8 162 -39t139 -84.5t97 -131.5t38 -182q0 -30 -12 -58.5t-33.5 -50t-50 -34.5t-61.5 -13q-31 0 -53.5 7 t-36.5 20.5t-21.5 34.5t-9.5 44q-12 103 -61.5 160t-150.5 71l-104 -493l171 -41q113 -28 182.5 -81.5t102.5 -123.5t33.5 -151.5t-18.5 -164.5q-25 -106 -86 -196t-151 -156t-206.5 -106.5t-255.5 -47.5l-34 -160q-3 -16 -11.5 -30.5t-20 -26.5t-26 -19t-28.5 -7t-25.5 7 t-18.5 19t-10 27q-2 13 1 30l34 161q-104 7 -183.5 33t-136.5 64.5t-93.5 88t-57 104.5t-25.5 113.5zM509 1291q-13 -53 3 -90t48.5 -62.5t77 -43t87.5 -31.5l97 462q-128 -13 -209 -74t-104 -161zM685 225q64 5 121.5 24.5t104 48.5t78 69.5t42.5 85.5q21 89 -15 160 q-35 71 -132 103q-23 8 -45 13.5t-44 12.5z" />
<glyph unicode="%" horiz-adv-x="2518" d="M324.5 1108.5q-5.5 84.5 15.5 182.5q20 99 61.5 183.5t105.5 147.5t150.5 98t199.5 35t184.5 -35t107.5 -98t41 -147.5t-15 -183.5q-21 -98 -62 -182.5t-104.5 -147t-150 -98t-199.5 -35.5t-184.5 35.5t-108 98t-42 147zM581 59q4 18 15 38q13 20 30 43l1176 1563 q8 12 19.5 24t26 21t30 15.5t34.5 6.5q20 0 35.5 -7t26.5 -18.5t14.5 -25.5t0.5 -30q-4 -17 -15.5 -37t-28.5 -43l-1177 -1565q-9 -11 -20.5 -23t-25 -21.5t-30 -16t-33.5 -6.5q-20 0 -36.5 7t-26.5 18.5t-14 26t-1 30.5zM596 1185.5q-3 -48.5 6.5 -85t33 -56.5t65.5 -20 q41 0 73.5 20t57.5 56.5t42 85t30 105.5q11 55 14 103.5t-5.5 85.5t-32 58.5t-65.5 21.5q-41 0 -74 -21.5t-57.5 -58.5t-42.5 -85.5t-29 -103.5q-13 -57 -16 -105.5zM1376 271.5q-5 84.5 15 183.5q22 98 63.5 182.5t104.5 147t150 98t199 35.5q113 0 184.5 -35.5t108.5 -98 t42 -147.5t-16 -182q-21 -99 -62 -183.5t-104 -146.5t-149.5 -98t-199.5 -36t-184.5 36t-109 98t-42.5 146.5zM1647 348.5q-3 -49.5 6.5 -85.5t33 -56.5t66.5 -20.5q42 0 74 20.5t56.5 56.5t41.5 85.5t30 106.5q11 54 14 102t-5.5 85t-32 59.5t-65.5 22.5q-41 0 -74 -22.5 t-57.5 -59.5t-42 -85t-29.5 -102q-13 -57 -16 -106.5z" />
<glyph unicode="&#x26;" horiz-adv-x="1635" d="M4.5 344.5q-1.5 57.5 11.5 113.5q20 95 68 175.5t115 147t149 119t174 92.5q-26 40 -49.5 81t-39 85.5t-20 91.5t5.5 100q21 101 76.5 179t131 132t166.5 81.5t184 27.5t160.5 -18.5t115 -49t76 -71.5t42 -86.5t13.5 -93t-8 -91.5q-16 -70 -53 -134.5t-91 -120t-122 -102 t-142 -79.5l193 -315q46 40 86.5 91t73.5 97q26 34 61 51t67 17q25 0 49 -9t39.5 -25.5t22.5 -39t2 -49.5q-6 -31 -32 -73.5t-61.5 -88t-78.5 -89t-83 -75.5l116 -191q21 -36 10 -88q-6 -25 -21.5 -49.5t-40.5 -43t-59 -31t-71 -12.5q-34 0 -54 18t-39 44l-93 146 q-148 -120 -300 -171t-313 -51q-92 0 -162.5 19.5t-122 52.5t-84.5 78.5t-50 97.5t-18.5 109.5zM316 489q-13 -59 3 -104.5t49.5 -78.5t82 -50t104.5 -17q101 0 190.5 36.5t171.5 117.5l-278 431q-58 -32 -111 -65.5t-96 -73.5t-73 -88t-43 -108zM706.5 1292.5 q5.5 -38.5 22.5 -71.5t43.5 -62t58.5 -61q37 20 80.5 45t83 58t70 75t42.5 98q8 37 0.5 70t-30 58t-56 39.5t-76.5 14.5t-82 -13.5t-70.5 -37.5t-51.5 -56t-29 -69q-11 -49 -5.5 -87.5z" />
<glyph unicode="'" horiz-adv-x="723" d="M352 1233l88 417q6 26 18 48t30 38t41 24.5t49 8.5q51 0 74 -33t12 -86l-89 -417q-12 -52 -49 -84t-87 -32q-51 0 -75 32t-12 84z" />
<glyph unicode="(" horiz-adv-x="716" d="M47.5 259q-1.5 106 7.5 209.5t31 202.5q21 98 56 202.5t81.5 209.5t103 211t121.5 210q74 118 127.5 191.5t92 115.5t68.5 58t59 16q24 0 42 -7.5t29.5 -21t16.5 -30t1 -34.5q-6 -29 -34.5 -82t-68.5 -121q-45 -77 -98.5 -176.5t-106.5 -216t-100.5 -249t-77.5 -276.5 q-30 -145 -39.5 -276.5t-6 -248t15.5 -216t24 -176.5q10 -70 15.5 -122t0.5 -81q-5 -19 -16.5 -36t-28.5 -30t-38.5 -20t-45.5 -7q-29 0 -52 12t-43.5 52t-42 115.5t-47.5 199.5q-21 103 -33 209.5t-13.5 212.5z" />
<glyph unicode=")" horiz-adv-x="716" d="M-202 -449q6 29 33 81t67 122q45 77 99 176.5t107 216t100.5 249t78.5 275.5q30 144 38.5 276.5t5 249t-15 216t-22.5 176.5q-10 70 -16 122t0 81q3 18 16 34.5t29.5 30t38 21t45.5 7.5q27 0 50 -16t44.5 -58t43 -115.5t46.5 -191.5q22 -103 33.5 -209.5t12.5 -211.5 t-7.5 -209.5t-29.5 -202.5q-22 -99 -57 -202.5t-81.5 -209.5t-103 -212.5t-121.5 -209.5q-55 -84 -95 -144.5t-72 -102.5t-56.5 -67.5t-46 -40t-39 -19.5t-36.5 -5q-23 0 -41.5 7t-30.5 20t-16.5 29.5t-0.5 36.5z" />
<glyph unicode="*" horiz-adv-x="943" d="M173 1447q6 26 19.5 45.5t30.5 31.5t33.5 17.5t28.5 5.5q11 0 27.5 -4t29.5 -10l186 -72l48 229q12 49 41 74.5t74 25.5q44 0 63.5 -25.5t7.5 -74.5l-48 -229l217 72q16 6 33.5 10t30.5 4q12 0 26 -5.5t25.5 -17.5t17.5 -31.5t0 -45.5q-7 -30 -32 -52t-65 -35l-241 -66 l112 -200q7 -14 12 -30.5t1 -33.5q-6 -29 -21.5 -47.5t-35 -28.5t-36.5 -14.5t-27 -4.5q-23 0 -41.5 10t-25.5 26l-101 217l-191 -217q-16 -17 -38 -26.5t-45 -9.5q-10 0 -26.5 4.5t-31 14.5t-22 28.5t-2.5 47.5q5 17 17 33.5t25 30.5l196 200q-49 16 -106 34t-106 32 q-74 26 -60 87z" />
<glyph unicode="+" horiz-adv-x="1537" d="M89 672q11 54 57 85t111 31h399l85 402q5 31 19.5 57.5t34.5 46t44.5 29.5t51.5 10q56 0 78.5 -40t8.5 -103l-84 -402h399q65 0 97.5 -31t20.5 -85q-11 -54 -57 -85t-111 -31h-398l-86 -402q-7 -31 -21 -57.5t-33.5 -46t-43 -29.5t-52.5 -10q-56 0 -78.5 40.5t-9.5 102.5 l85 402h-397q-32 0 -57 9.5t-40.5 26t-21.5 37t-1 43.5z" />
<glyph unicode="," horiz-adv-x="723" d="M-73 -323q3 14 12.5 25.5t23 21.5t30.5 20t36 21q30 19 62 41t61.5 52t55 71t44.5 97q-23 -15 -44.5 -20.5t-44.5 -5.5q-40 0 -68 15t-44.5 39.5t-20 56.5t3.5 66q9 40 31 74.5t53.5 60t69.5 41.5t77 16q57 0 95 -21.5t56.5 -59.5t21 -89.5t-9.5 -111.5 q-23 -107 -70.5 -189t-125.5 -155q-22 -20 -52.5 -43t-63.5 -41.5t-66.5 -31.5t-60.5 -13q-38 0 -52 18.5t-10 44.5z" />
<glyph unicode="-" horiz-adv-x="1185" d="M86 671q11 54 57 86t112 32h690q66 0 98 -32t21 -86q-12 -55 -58 -86.5t-111 -31.5h-691q-65 0 -97.5 32.5t-20.5 85.5z" />
<glyph unicode="." horiz-adv-x="723" d="M43.5 100q-7.5 34 0.5 74q9 40 32 75.5t54.5 61.5t70 42t78.5 16t72 -16t52 -42t28 -61q8 -36 -1 -76q-8 -40 -30 -74t-54.5 -60.5t-70.5 -41.5t-78 -15t-72 15t-53 41.5t-28.5 60.5z" />
<glyph unicode="/" horiz-adv-x="943" d="M-123 73q4 17 14 37t22 40l972 1603q9 13 20.5 29.5t28 30t41.5 22.5q23 10 57 10q20 0 40.5 -8t34.5 -22.5t21 -34.5q7 -21 3 -47q-4 -17 -15 -37t-22 -39l-972 -1603l1 2q-9 -13 -20 -29.5t-28.5 -30t-41.5 -23.5t-60 -10q-20 0 -39.5 8t-33.5 21.5t-21.5 34t-1.5 46.5 z" />
<glyph unicode="0" horiz-adv-x="1415" d="M48 463q1 100 16.5 206t37.5 206q20 95 47.5 199t70.5 204.5t104 190.5t144.5 158.5t195 108.5t257.5 40q109 0 189 -23.5t136.5 -64.5t90.5 -97.5t51.5 -123t21 -140.5t-3 -150.5t-19.5 -153t-29 -148.5q-21 -100 -49.5 -206t-71.5 -206t-103 -190t-144.5 -157 t-195 -106.5t-256.5 -39.5t-241 39.5t-150 106.5t-77.5 157t-21.5 190zM360.5 462.5q5.5 -66.5 30.5 -118.5t73 -83t128 -31t141.5 31t108.5 83t81.5 118.5t59 138t41.5 142.5t31 132q13 59 24.5 129.5t16 142t-2 139t-31.5 119.5t-72.5 83t-122.5 31q-76 0 -136 -31 t-107.5 -83t-82.5 -119.5t-60.5 -139t-44 -142t-30.5 -129.5q-13 -60 -26.5 -131.5t-19 -143t0 -138z" />
<glyph unicode="1" horiz-adv-x="1415" d="M321.5 1240.5q-5.5 23.5 1.5 50.5q6 26 18 49t33.5 42t52.5 33t72 21q80 11 136 34t96 52.5t68 61.5q29 32 52 63q17 23 37 44.5t43 36.5t48.5 24.5t55.5 9.5q22 0 42.5 -6t35 -20t20 -39t-1.5 -64l-313 -1473q-9 -40 -23 -72t-37 -55.5t-54 -36.5q-32 -13 -72 -13 q-41 0 -65.5 13t-36.5 36.5t-13 55.5t8 72l231 1091q-88 -48 -169 -69t-167 -19q-24 0 -44.5 10t-34.5 27t-19.5 40.5z" />
<glyph unicode="2" horiz-adv-x="1415" d="M-56 102q0 27 15 58q54 120 124.5 211.5t151 163t167.5 126.5t173 104q126 72 217.5 127t154.5 107t99.5 109t51.5 133q13 62 1.5 112t-43.5 84t-80.5 53t-108.5 19q-55 0 -106.5 -16t-95 -49t-78 -83.5t-55.5 -122.5q-9 -30 -22.5 -58.5t-35 -50.5t-53 -35.5 t-75.5 -13.5q-31 0 -57.5 8.5t-44 27.5t-22.5 51q-5 31 4 76q24 113 90 208.5t160.5 166.5t212.5 110t243 39q122 0 222 -34t166 -102.5t91 -167.5t-2 -226q-18 -83 -51.5 -151.5t-77.5 -126t-98 -106t-111 -88.5t-118 -74q-61 -33 -118 -65q-80 -43 -159.5 -87t-150 -90.5 t-125.5 -93t-85 -95.5h749q61 0 93.5 -34t17.5 -96q-5 -30 -20 -54.5t-37.5 -41.5t-49.5 -25.5t-58 -8.5h-969q-30 0 -52.5 13.5t-33.5 36.5t-11 52z" />
<glyph unicode="3" horiz-adv-x="1415" d="M9 422q1 44 20.5 76.5t47 53t59 30.5t57.5 10q44 0 69 -13t38 -33.5t16.5 -48.5t2.5 -57q-2 -51 14 -92t47.5 -69.5t78.5 -43.5t107 -15q75 0 142 20t119 57.5t87.5 91t49.5 120.5q16 70 2 121.5t-51 85t-94 50t-129 16.5h-30q-24 0 -43.5 9.5t-32.5 25t-18 38t1 46.5 t19.5 46.5t33.5 38t43.5 25t48.5 9.5q57 0 113.5 17t103 48.5t80 77t46.5 104.5t1.5 104t-41 75.5t-76 46.5t-104.5 16q-51 0 -99.5 -14.5t-88.5 -42.5t-71 -70q-32 -41 -47 -98q-9 -30 -22.5 -59.5t-35 -51.5t-53 -35.5t-75.5 -13.5q-32 0 -58.5 8.5t-43.5 28t-23 51 t5 76.5q20 96 80.5 182.5t150 153t201.5 105t235 38.5t222 -30.5t162.5 -93.5t86.5 -158t-3 -222q-12 -55 -38 -102t-62 -90t-82 -79q-45 -34 -95 -65q122 -49 171.5 -155.5t18.5 -259.5q-17 -84 -56 -158t-92.5 -135.5t-118.5 -108.5t-135 -80q-42 -20 -86 -32t-90 -18.5 t-91 -9.5t-91 -3q-123 0 -218.5 28t-160.5 84.5t-98 141.5t-27 201z" />
<glyph unicode="4" horiz-adv-x="1415" d="M-2.5 471.5q-3.5 28.5 1.5 56.5q10 44 27 74t44 59l957 1034q30 31 68 46.5t83 15.5q43 0 70.5 -11t41.5 -31t17 -49t-4 -63l-205 -965h120q63 0 96 -36.5t20 -99.5q-7 -32 -22.5 -57t-38.5 -42.5t-51.5 -27t-60.5 -9.5h-120l-50 -230q-7 -33 -23 -61.5t-39.5 -48.5 t-52.5 -31.5t-62 -11.5t-57.5 11.5t-38.5 31.5t-18.5 48.5t2.5 61.5l50 230h-619q-43 0 -71.5 16t-44.5 38.5t-19.5 51zM362 638h447l133 626q-74 -77 -145 -154.5t-141.5 -155t-143 -157t-150.5 -159.5z" />
<glyph unicode="5" horiz-adv-x="1415" d="M38 302.5q-5 42.5 2 75.5q9 34 26 62.5t41.5 48.5t55.5 31t64 11q55 0 85 -31.5t37 -87.5q3 -30 16.5 -62.5t40.5 -58.5t71 -43.5t109 -17.5q69 0 134 23t119.5 69t94.5 114q40 70 60 162q16 74 4.5 137.5t-48 108.5t-96 71t-138.5 26q-45 0 -84.5 -11.5t-74 -29.5 t-64.5 -38t-58.5 -37.5t-56.5 -29t-58 -11.5q-63 0 -92 24t-35.5 63.5t5.5 89t32 100.5l222 583q8 22 23 40.5t34.5 33t42.5 21.5t46 7h729q63 0 96 -35.5t20 -100.5q-7 -31 -23.5 -56t-39.5 -42.5t-52 -26.5q-27 -9 -58 -9h-605l-127 -345q68 39 139.5 52.5t143.5 13.5 q127 0 230.5 -38.5t169 -116t87.5 -193.5q25 -115 -10 -271q-25 -118 -89 -225.5t-163 -191.5t-233 -134t-298 -50q-99 0 -175.5 21t-131 54.5t-90 76.5t-55.5 87t-25 86.5z" />
<glyph unicode="6" horiz-adv-x="1415" d="M47 438q-4 95 8 194t32 192q26 123 64 241t92 223.5t124.5 195t159.5 154.5t199.5 101.5t244.5 36.5q94 0 164 -18t119.5 -47t80.5 -66.5t48 -76t22 -75.5t2 -67q-3 -35 -17 -62.5t-37 -47.5t-53 -31t-64 -11q-55 0 -83 30t-43 82q-17 61 -69.5 89t-142.5 28 q-101 0 -177.5 -43t-132.5 -111.5t-94 -154.5t-65 -173q44 34 95 62t106 47.5t111.5 30t110.5 10.5q139 0 237 -45t155 -125t72 -188t-10 -231q-15 -69 -43.5 -140.5t-72 -139t-104.5 -128t-140 -106t-178 -72t-219 -26.5q-140 0 -234.5 38t-151.5 101.5t-84.5 148.5 t-31.5 180zM355.5 432.5q9.5 -62.5 41.5 -106.5t87 -70t132 -26q75 0 139 26.5t114 71.5t84 106t49 129q16 72 9.5 135t-35.5 111t-82 75.5t-133 27.5q-77 0 -144.5 -27t-119 -74t-85.5 -109.5t-50 -133.5q-16 -73 -6.5 -135.5z" />
<glyph unicode="7" horiz-adv-x="1415" d="M193 90q1 33 11 69q35 111 86.5 228.5t118 234.5t146.5 232.5t170 224.5t188.5 209.5t200.5 187.5h-734q-63 0 -95 35.5t-19 98.5q6 32 22.5 57.5t39 42.5t51.5 26.5t60 9.5h970q30 0 53.5 -10.5t39 -30t20.5 -46t0 -56.5q-8 -31 -25.5 -57.5t-42.5 -45.5 q-101 -80 -197 -176t-184.5 -203t-168 -224.5t-148 -239t-126 -246t-98.5 -245.5q-17 -52 -38 -87.5t-46.5 -58.5t-57 -33t-71.5 -10q-49 0 -76 14.5t-39 40t-11 58.5z" />
<glyph unicode="8" horiz-adv-x="1415" d="M13 528q30 141 123 250.5t234 173.5q-38 29 -62.5 68.5t-36.5 84.5t-12 95.5t11 102.5q26 116 87.5 204.5t148 148t191.5 89.5q107 31 215 31q102 0 178.5 -18.5t131 -51.5t89.5 -77.5t51.5 -97t16.5 -111.5t-12 -117q-13 -59 -33 -109t-49 -93.5t-70 -80t-94 -65.5 q56 -31 97.5 -75.5t66.5 -99t30.5 -118t-9.5 -134.5q-20 -89 -59.5 -166t-95.5 -138.5t-125 -109t-146.5 -79.5t-161 -48.5t-169.5 -16.5q-134 0 -245.5 35t-186 105t-104 174.5t-0.5 243.5zM316 396q16 -54 55 -90.5t99 -55.5q59 -20 133 -20q72 0 138 21.5t118.5 59.5 t89 92.5t49.5 119.5q13 59 -4 110.5t-56 89.5t-94.5 60t-122.5 22q-69 0 -135.5 -20t-121.5 -56.5t-95 -89.5t-53 -118q-16 -71 0 -125zM570 1190.5q12 -43.5 41.5 -73t73 -44.5t96.5 -15q50 0 95 16t83 46t64.5 73.5t38.5 99.5q12 54 2.5 95.5t-36 68.5t-67 41.5 t-93.5 14.5q-47 0 -95.5 -13.5t-89.5 -41t-71 -69t-41 -96.5q-13 -59 -1 -102.5z" />
<glyph unicode="9" horiz-adv-x="1415" d="M59 320q2 35 16 63.5t37.5 48.5t53.5 30.5t64 10.5q27 0 46 -8.5t33 -23.5t25 -35.5t21 -45.5q23 -55 77 -86t136 -31q101 0 177 43t131.5 111.5t94.5 154.5t64 173q-44 -34 -95 -62t-105 -47.5t-111.5 -30t-111.5 -10.5q-139 0 -237 45.5t-155 126t-72 187.5t11 230 q14 69 42.5 140.5t72 139.5t105 128t140.5 105.5t177.5 72t218.5 26.5q106 0 184.5 -21.5t135 -60t94 -91.5t58 -115t27.5 -132t3.5 -144t-14 -147t-24.5 -143q-26 -123 -64.5 -241t-93 -223.5t-124.5 -195t-159.5 -154t-199.5 -101.5t-243 -37q-92 0 -160.5 18t-118 47 t-81.5 66.5t-49 76t-23.5 76.5t-3.5 66zM454 1048q6 -63 35 -111t81.5 -75t133.5 -27q77 0 144 26.5t118.5 73.5t86.5 109.5t50 133.5q15 73 6 135.5t-41.5 106.5t-86.5 70t-132 26q-74 0 -139 -26.5t-114.5 -71.5t-83.5 -106t-49 -129q-15 -72 -9 -135z" />
<glyph unicode=":" horiz-adv-x="723" d="M43.5 98q-7.5 35 1 75t31.5 75t54.5 61t69 41.5t77.5 15.5t72.5 -15.5t53 -41.5t28.5 -61t-0.5 -75t-31.5 -75t-54.5 -61.5t-69.5 -41.5t-78 -15t-72 15t-53 41.5t-28.5 61.5zM245 1049q-8 35 1 75t31.5 74.5t54 61t70 42t78.5 15.5q41 0 73 -15.5t52.5 -42t28 -61 t-1.5 -74.5t-31.5 -75t-54 -61.5t-69.5 -41.5t-78 -15t-72 15t-53 41.5t-29 61.5z" />
<glyph unicode=";" horiz-adv-x="723" d="M-73 -323q3 14 12.5 25.5t23 21.5t30.5 20t36 21q30 19 62 40t62 49.5t56 70t43 101.5q-23 -15 -44.5 -20.5t-44.5 -5.5q-40 0 -68 15t-44.5 39.5t-20 56.5t3.5 66q9 40 31 74.5t53.5 60t69.5 41.5t77 16q57 0 95 -21.5t56.5 -59.5t21 -89.5t-9.5 -111.5 q-23 -107 -70.5 -189t-125.5 -155q-22 -20 -52.5 -43t-63.5 -41.5t-66.5 -31.5t-60.5 -13q-38 0 -52 18.5t-10 44.5zM244.5 1044q-7.5 34 1.5 74t31 75t54 61.5t70.5 42.5t78.5 16q41 0 72 -16t52 -42.5t29 -60.5q8 -36 -1 -76t-31.5 -74t-55 -60.5t-70 -41.5t-77.5 -15 t-71.5 15t-53 41.5t-29 60.5z" />
<glyph unicode="&#x3c;" horiz-adv-x="1631" d="M111.5 681q8.5 40 38 73.5t66.5 47.5l1098 459q42 17 79.5 24.5t67 0t48 -28.5t20.5 -62q3 -45 -27.5 -86t-105.5 -71l-897 -357l744 -361q63 -30 75.5 -70t-12.5 -88q-20 -38 -50 -58t-64 -25.5t-69 1.5t-66 23l-891 455q-32 15 -47.5 49t-7 74z" />
<glyph unicode="=" horiz-adv-x="1525" d="M34 425q12 54 58 86q45 31 111 31h1030q65 0 96.5 -32t20.5 -85q-12 -55 -57.5 -87t-111.5 -32h-1028q-66 0 -98 32t-21 87zM140 917q12 54 57.5 86t111.5 32h1028q66 0 98 -32t21 -86q-12 -55 -57.5 -86.5t-111.5 -31.5h-1028q-66 0 -99 33q-31 32 -20 85z" />
<glyph unicode="&#x3e;" horiz-adv-x="1631" d="M73 162q-6 48 24 89t106 69l895 361l-743 357q-63 30 -76 70t10 87q20 41 47 62t58.5 28.5t66.5 0t70 -24.5l902 -459q30 -16 46.5 -48.5t6.5 -72.5q-9 -40 -38 -74t-67 -49l-1085 -455q-37 -16 -75 -23t-69.5 -1.5t-53 25.5t-25.5 58z" />
<glyph unicode="?" horiz-adv-x="1471" d="M271 1213q-2 28 9 58q40 113 109 205.5t159 158t198.5 101.5t228.5 36q125 0 222 -33.5t158.5 -95t84.5 -150.5t-1 -199q-19 -87 -55 -148.5t-80 -108t-94 -83t-96 -72.5q-42 -31 -83 -63.5t-75 -67.5t-59 -76q-26 -40 -36 -92l-2 -2q-5 -30 -22.5 -57.5t-41.5 -47.5 t-53 -31q-27 -12 -58 -12q-30 0 -55.5 11.5t-41 31.5t-21 46.5t-0.5 58.5l6 22q16 73 51 129.5t79 103t93.5 85.5t93.5 74q36 30 74.5 59.5t73.5 64t61.5 76t38 95.5t1.5 97t-38.5 73t-73.5 47t-104 17q-68 0 -124.5 -22.5t-101 -62t-78 -93t-55.5 -115.5q-11 -30 -31 -55.5 t-46.5 -42t-56.5 -24.5t-60 -4q-30 3 -51 19t-33 38.5t-14 50.5zM449 103.5q-7 33.5 1 70.5q9 38 30.5 72t51 58.5t65 39.5t74.5 15q37 0 66 -15t48.5 -39.5t26.5 -57.5q9 -35 0 -73q-8 -37 -29.5 -70.5t-51.5 -58t-66 -39.5t-73 -15t-67 15t-49.5 39.5t-26.5 58z" />
<glyph unicode="@" horiz-adv-x="2079" d="M133 647q-9 119 20 252q27 128 86.5 245t143 219.5t188 185.5t221.5 142t245 91.5t259 32.5q117 0 221.5 -26.5t190 -74.5t151.5 -116.5t105 -153t49 -184.5t-12 -210q-23 -103 -69.5 -190.5t-109 -157.5t-137.5 -122t-152 -86t-153 -47.5t-142 -4.5q-45 6 -83 27 q-38 23 -61 72q-34 -22 -69 -41.5t-71 -33.5t-71 -22.5t-68 -8.5q-71 0 -125.5 27t-88 75.5t-44.5 114.5t5 140q16 76 49.5 151t80 143t106 126.5t127 101t144.5 66.5q78 24 158 24q27 0 58.5 -7t60 -24t50 -46t30.5 -73l38 69q10 17 24.5 30.5t31 22t34.5 10.5q19 4 36 -2 q16 -5 27.5 -16.5t16.5 -27.5t2.5 -34t-10.5 -35l-273 -533q-13 -26 -22.5 -51.5t-11 -47t8.5 -34.5t36 -13q52 0 115 34.5t123 94.5t107.5 140.5t67.5 176.5q31 145 2 254t-102.5 183t-182 111.5t-236.5 37.5q-103 0 -203 -26t-190.5 -75t-170 -116t-143 -150t-108.5 -178 t-68 -198q-22 -102 -15.5 -195.5t37.5 -173.5t84.5 -146t125 -113t160 -72t190.5 -25q80 0 158 8.5t152 32t146.5 63t145.5 99.5q15 13 34 19.5t36 6.5t32.5 -6.5t27.5 -19.5q11 -13 13.5 -31t-2 -35.5t-15 -35t-26.5 -30.5q-87 -73 -178 -121.5t-184 -77.5t-189 -42 t-193 -13q-134 0 -251.5 32t-211 90.5t-163 142.5t-108.5 187t-48 222zM770 731q5 -33 22 -57.5t45 -38.5t65 -14q43 0 86.5 20t85 53.5t79 78t67.5 91.5t51.5 95t29.5 91q6 31 3 62t-16.5 56t-37 40.5t-57.5 15.5q-50 0 -99 -19.5t-91.5 -51.5t-80.5 -75t-68 -89.5t-51 -94 t-29 -90.5q-9 -40 -4 -73z" />
<glyph unicode="A" horiz-adv-x="1723" d="M-69 120q3 13 10.5 31.5t17.5 36.5t19 35t18 32l831 1378q38 63 85.5 89.5t108.5 26.5h83q29 0 54.5 -4.5t47 -17t36 -36.5t19.5 -61l253 -1358q3 -15 6 -33.5t5 -37.5t2 -38t-4 -33q-7 -31 -24.5 -58.5t-42.5 -46t-55.5 -28.5t-64.5 -10q-62 0 -96.5 21t-41.5 66 l-64 416h-681l-241 -421q-26 -43 -64.5 -62.5t-96.5 -19.5q-65 0 -99 36q-25 26 -25 65q0 15 4 32zM621 759h464l-97 641z" />
<glyph unicode="B" horiz-adv-x="1723" d="M44 94q-7 29 0 60l305 1439q7 31 25.5 60t44.5 49.5t57 32.5q33 12 65 12h592q80 0 154 -9t138 -30.5t114 -56t81 -86.5q30 -51 38 -123q2 -20 3 -43q0 -55 -15 -122q-10 -47 -35 -98t-63.5 -99.5t-92.5 -90.5t-122 -71q70 -16 122 -56.5t84.5 -96.5t40.5 -125 q3 -26 3 -52q0 -44 -9 -90q-20 -96 -73.5 -185.5t-142 -159t-213 -111.5t-286.5 -42h-690q-32 0 -58.5 12t-43.5 33t-23 49zM382 260h532q71 0 130.5 21t104.5 53t73.5 75t38.5 89q8 37 8 68q1 30 -7 55q-16 50 -56.5 80t-100.5 42.5t-133 12.5h-484zM543 1022h418 q90 0 156 21t110 54.5t69 77t35 92.5q6 28 6.5 52t-6.5 44q-13 40 -47 67t-87 40t-122 13h-434z" />
<glyph unicode="C" horiz-adv-x="1764" d="M88 624q1 116 28 243q27 128 78 246t122.5 220.5t162 186t200 143t236 91.5t269.5 32q120 0 221 -25t179 -76.5t130.5 -128.5t75.5 -179q6 -30 -0.5 -60.5t-24.5 -58.5t-44 -50q-28 -23 -59 -34q-33 -13 -64 -13t-56 11.5t-43 33t-23 51.5q-27 137 -118 203t-234 66 q-96 0 -179.5 -25t-155 -68.5t-129 -104t-102.5 -131t-75.5 -150.5t-49.5 -162q-21 -106 -21 -204q0 -25 1 -50q7 -120 56 -210.5t142.5 -142.5t239.5 -52q90 0 166 26.5t137.5 71.5t108.5 105t80 127q15 32 39 54.5t52.5 37t59 18t59.5 -6.5q30 -8 49.5 -27.5t28 -46 t5.5 -57t-19 -60.5q-61 -121 -144 -213.5t-185.5 -156.5t-226 -96.5t-269.5 -32.5t-260 30.5t-198.5 88.5t-139.5 138q-54 82 -80 182q-26 97 -26 207v9z" />
<glyph unicode="D" horiz-adv-x="1770" d="M44 94q-7 29 0 60l305 1439q7 31 25.5 60t44.5 49.5t57 32.5q33 12 65 12h474q215 0 369.5 -51.5t246 -154t116.5 -258.5q9 -57 9 -122q0 -111 -27 -244q-47 -221 -135 -391.5t-221 -287t-314 -177.5t-414 -61h-476q-32 0 -58.5 12t-43.5 33t-23 49zM382 260h336 q37 0 95 6.5t124.5 27.5t137 61t135 108.5t117 170.5t83.5 247q25 121 25 220q-1 18 -1 35q-6 112 -56 189.5t-146.5 117.5t-246.5 40h-344z" />
<glyph unicode="E" horiz-adv-x="1547" d="M44 94q-7 29 0 60l305 1439q7 31 25.5 60t44.5 49.5t57 32.5q33 12 65 12h1021q27 0 49 -10.5t36.5 -28.5t20 -42t0 -51.5t-21.5 -51.5t-38 -42t-48.5 -28t-55.5 -10h-863l-95 -446h792q28 0 50 -11t36.5 -28.5t20 -42t-1.5 -51.5q-6 -27 -21 -51.5t-37 -42.5 t-48.5 -28.5t-55.5 -10.5h-792l-107 -511h864q27 0 49.5 -10t37 -27t19.5 -41.5t1 -51.5q-6 -27 -22.5 -50.5t-38 -41.5t-48 -28t-54.5 -10h-1021q-32 0 -58.5 12t-43.5 33t-23 49z" />
<glyph unicode="F" horiz-adv-x="1445" d="M38 87q-2 30 5 63l306 1443q7 31 25.5 60t44.5 49.5t57 32.5q33 12 65 12h946q27 0 50 -10.5t37.5 -28.5t19.5 -42t-1 -51.5t-21.5 -51.5t-37 -42t-48.5 -28t-55 -10h-790l-95 -446h672q28 0 50.5 -11t37 -28.5t20 -42t-1.5 -51.5q-6 -27 -21 -51.5t-37 -42.5t-49 -28.5 t-54 -10.5h-674l-131 -621q-8 -31 -23 -62t-38.5 -54.5t-56.5 -37t-76 -13.5q-42 0 -68.5 13.5t-41 37t-16.5 53.5z" />
<glyph unicode="G" horiz-adv-x="1893" d="M84 511q-7 54 -7 111q0 116 27 245q28 128 78.5 246t122 220.5t163 186t201 143t236 91.5t268.5 32q123 0 226.5 -25t183 -76.5t133 -128.5t74.5 -180q6 -30 -1 -61t-24.5 -58t-44.5 -49.5t-58 -33.5q-33 -13 -64.5 -13t-57.5 11.5t-43 33t-21 51.5q-23 140 -114.5 204.5 t-248.5 64.5q-96 0 -180 -25t-154.5 -68.5t-128.5 -104t-102.5 -131t-76 -150.5t-48.5 -162q-18 -88 -23 -173q-2 -25 -2 -50q0 -56 8 -108q12 -74 41 -134t80.5 -103.5t126 -67t174.5 -23.5q112 0 209.5 38.5t174 103t129 149.5t76.5 175h-446q-29 0 -51 10t-36.5 28 t-19.5 41.5t0 52.5q5 27 21.5 51t38 42t49 29t55.5 11h599q28 0 50.5 -11t37.5 -29t21 -42t-1 -51l-153 -722q-6 -25 -19.5 -46.5t-33 -37t-42.5 -25t-47 -9.5q-21 0 -39 7.5t-31 21t-20 30.5t-6 37l6 153q-59 -60 -129.5 -109.5t-146.5 -83.5t-153 -52.5t-147 -18.5 q-215 0 -361 68.5t-228 189t-101 284.5z" />
<glyph unicode="H" horiz-adv-x="1811" d="M38 89q-2 30 5 63l307 1445q8 32 23 62.5t38.5 54t56 37.5t75.5 14t70.5 -14t41 -37.5t15.5 -54t-5 -62.5l-119 -560h838l119 560q7 32 22 62.5t38.5 54t56.5 37.5t76 14t70 -14t40.5 -37.5t16 -54t-4.5 -62.5l-308 -1445q-7 -32 -21.5 -62.5t-38.5 -54.5t-57 -38 t-76 -14t-69.5 14t-40.5 38t-16.5 54t4.5 63l133 619h-839l-131 -619q-8 -32 -23 -62.5t-38.5 -54.5t-56.5 -38t-76 -14q-42 0 -68.5 14t-41 38t-16.5 54z" />
<glyph unicode="I" horiz-adv-x="709" d="M63 89q-3 30 6 63l306 1444q7 31 22 62t38.5 54.5t57 38t76.5 14.5t69.5 -14.5t40 -38t16.5 -53.5t-6 -63l-306 -1444q-7 -32 -22 -62.5t-39.5 -54.5t-57 -38t-75.5 -14t-69.5 14t-40 38t-16.5 54z" />
<glyph unicode="J" horiz-adv-x="1288" d="M-44 349q1 54 11 100q20 92 70 146q52 54 132 54q41 0 69 -13.5t42.5 -38.5t15.5 -60t-7 -78q-9 -36 -9 -68q0 -12 2 -23q4 -43 24.5 -74.5t60 -49.5t101.5 -18q55 0 100 14.5t80.5 46.5t59.5 85.5t41 130.5l232 1093q7 31 22 62t38.5 54.5t56.5 38t76 14.5t70 -14.5 t40.5 -38t16 -53.5t-4.5 -63l-234 -1098q-27 -126 -81 -225t-136.5 -167.5t-192.5 -105.5t-246 -37q-111 0 -189 23.5t-130.5 62t-81 88.5t-39.5 104q-11 48 -11 96q0 6 1 12z" />
<glyph unicode="K" horiz-adv-x="1660" d="M38 87q-2 30 5 63l309 1453q7 34 25 63.5t43 51.5t57 34.5t66 12.5q35 0 61.5 -12.5t43 -34.5t21.5 -52t-3 -63l-135 -636l940 758q26 20 55.5 30t56.5 9t50.5 -11t39.5 -31.5t21 -47t-2 -53t-23.5 -53t-42.5 -45.5l-626 -488l437 -815q13 -26 13.5 -54.5t-10 -57 t-31 -54t-52.5 -44.5q-30 -17 -60 -24t-58 -2t-51 20t-35 40l-415 780q-74 -56 -142 -112.5t-143 -113.5l-95 -448q-8 -31 -23 -62t-38.5 -54.5t-56.5 -37t-76 -13.5q-42 0 -68.5 13.5t-41 37t-16.5 53.5z" />
<glyph unicode="L" horiz-adv-x="1368" d="M44 94q-7 29 0 60l308 1449q6 31 23.5 60.5t42.5 52.5t56.5 36t68.5 13q35 0 61.5 -13t43 -36t21.5 -52.5t-3 -60.5l-284 -1343h739q27 0 50 -10t37.5 -27t19.5 -41.5t0 -51.5t-21.5 -50.5t-38 -41.5t-48 -28t-53.5 -10h-898q-32 0 -58.5 12t-43.5 33t-23 49z" />
<glyph unicode="M" horiz-adv-x="2173" d="M36.5 81.5q-2.5 30.5 4.5 61.5l296 1399q10 47 35.5 86t61 66.5t80.5 43t95 15.5q40 0 71.5 -10.5t53.5 -30t37 -46t21 -59.5l205 -1282l713 1274q19 34 47 62t60.5 48.5t72 32t81.5 11.5q54 0 95.5 -17t67.5 -46q26 -30 34 -72q4 -18 3 -38q0 -26 -6 -54l-293 -1383 q-7 -31 -22 -61.5t-38.5 -54.5t-56.5 -37.5t-76 -13.5t-70 13.5t-41 37.5t-16 54.5t5 61.5l232 1091l-685 -1161q-30 -49 -78.5 -73t-104.5 -24t-94.5 22.5t-45.5 74.5l-193 1161l-232 -1091q-7 -31 -22 -61.5t-38.5 -54.5t-56.5 -37.5t-76 -13.5t-70 13.5t-40.5 37.5 t-16 54.5z" />
<glyph unicode="N" horiz-adv-x="1823" d="M41 142l301 1415q8 45 29.5 82.5t54.5 66.5t76.5 46t99.5 17q26 0 51 -6t47 -18t39 -30t27 -42l504 -1230l244 1157q18 85 68.5 127t124.5 42q75 0 108 -42q21 -27 21 -71q0 -25 -7 -56l-297 -1400q-23 -107 -88 -165t-160 -58q-41 0 -73.5 10t-56 27t-40 40t-27.5 49 l-486 1188l-245 -1149q-17 -85 -67 -125t-125 -40q-74 0 -108 41q-22 27 -21 71q0 24 6 53z" />
<glyph unicode="O" horiz-adv-x="1910" d="M72 644q0 112 26 230q26 120 74 233.5t118 215t161 187.5t202 146.5t240 95t277 34.5t264 -34.5t202 -95t141 -146.5t82 -187.5t27 -216t-24 -232.5q-26 -120 -74.5 -234t-118.5 -214t-161.5 -185t-203 -145t-242 -93.5t-278.5 -33.5t-263 33.5t-199.5 93.5t-140 145 t-81.5 185q-28 102 -28 218zM392 714q-1 -14 -1 -28q-1 -64 11 -124q14 -73 46 -133.5t85 -106.5t129 -71t176 -25q103 0 191 25t160 71t131.5 106.5t104 133.5t75 151.5t47.5 160.5q17 80 20 160q1 15 1 29q0 64 -12 123q-14 72 -45.5 134.5t-86 108t-131 71.5t-179.5 26 q-102 0 -187.5 -26t-158 -71.5t-130 -108t-103 -134.5t-76 -152t-47.5 -160t-20 -160z" />
<glyph unicode="P" horiz-adv-x="1631" d="M39 83.5q-5 29.5 2 60.5l308 1449q7 31 25.5 60t44.5 49.5t57 32.5q33 12 65 12h643q146 0 249 -35.5t163 -103.5q62 -68 78 -168q7 -40 7 -83q0 -67 -16 -143q-28 -126 -87 -224t-148 -166q-90 -68 -208 -104q-109 -33 -240 -32h-22h-488l-116 -544q-7 -31 -24 -60.5 t-43 -52t-57.5 -35.5t-67.5 -13q-37 0 -62.5 13t-41.5 35.5t-21 52zM528 948h404h15q171 0 273 67q106 70 133 199q8 35 8 66q-1 84 -57 134q-76 68 -257 69h-406z" />
<glyph unicode="Q" horiz-adv-x="1910" d="M69 644q0 112 25 230q26 120 74.5 233.5t119.5 215t162 187.5t201.5 146.5t240 95t278 34.5t264 -34.5t200.5 -95t140.5 -146.5t83 -187.5t27.5 -216t-27 -232.5q-25 -113 -68.5 -221t-108 -204.5t-146.5 -179t-184 -145.5l80 -121q13 -20 14.5 -43t-6.5 -46t-24 -45 t-41 -39q-23 -17 -48 -25t-47.5 -7.5t-42.5 10.5q-20 12 -33 32l-112 170q-73 -20 -148.5 -30.5t-158.5 -10.5q-148 0 -263.5 33.5t-200.5 93.5t-140.5 145t-82.5 185q-28 102 -28 218zM389 714q-1 -14 -1 -28q0 -64 12 -124q13 -73 45.5 -133.5t86 -106.5t128.5 -71 t177 -25q57 0 110 7l-73 113q-13 20 -16 43.5t5 48t25 46.5t43 41q24 17 50 25.5t50 8t44 -11.5t33 -31l106 -176q67 46 121 106t94.5 129.5t69 145.5t44.5 153q17 80 21 160v33q0 62 -10 119q-14 72 -46 134.5t-85.5 108t-131 71.5t-179 26t-187.5 -26t-158.5 -71.5 t-131.5 -108t-103 -134.5t-75 -152t-48 -160t-20 -160z" />
<glyph unicode="R" horiz-adv-x="1723" d="M39 83.5q-5 29.5 2 60.5l308 1449q7 31 25.5 60t44.5 49.5t57 32.5q33 12 65 12h690q138 0 238.5 -32t161.5 -93.5t81 -149.5q9 -39 9 -83q0 -55 -14 -118q-21 -98 -64.5 -175.5t-104.5 -133t-131.5 -91.5t-146.5 -52q46 -25 78 -53t53.5 -62.5t31.5 -77.5t14 -97 q4 -70 7 -119.5t6 -82t4.5 -52.5t2 -36t2 -29t4.5 -31q3 -29 -4.5 -58t-24.5 -54.5t-42 -45.5t-56 -30q-30 -11 -59 -9.5t-51 13t-37.5 32t-21.5 49.5q-6 30 -13 68t-10 83l-19 276q-2 42 -15 80.5t-42.5 68t-79.5 47t-126 17.5h-384l-122 -572q-7 -31 -23.5 -60.5 t-41.5 -52t-57 -35.5t-70 -13q-37 0 -63.5 13t-41.5 35.5t-20 52zM532 974h438q71 0 139 11.5t124.5 41.5t96.5 81.5t56 129.5q9 37 9 69q-1 15 -3 31q-6 46 -34 77.5t-77.5 49.5t-122.5 18h-517z" />
<glyph unicode="S" horiz-adv-x="1631" d="M20 363q-4 30 -4 59.5t4 59.5q3 30 18 58.5t37 50t50.5 34.5t58.5 16q30 1 56 -7t44.5 -23.5t30 -40.5t11.5 -61v-6q0 -57 20 -106q20 -52 64.5 -90t111.5 -61t160 -26h10q79 0 152 14q78 16 140.5 47t104.5 74.5t56 97.5q8 32 8 61q-1 53 -27 99q-42 71 -146 103 q-52 16 -107 28t-111 24.5t-111.5 25.5t-107.5 30q-77 25 -132 55t-91.5 66t-57 76t-28.5 82q-6 34 -6 68v18q2 44 12 89q17 83 58.5 152.5t98 124.5t127.5 97.5t149.5 71t161 43.5t163.5 18h13l125 -9q69 -10 134.5 -32t121 -57t98.5 -85t68.5 -114.5t27.5 -144.5 q1 -30 -11.5 -58.5t-36.5 -50t-54.5 -34.5t-65 -13t-58 7t-40 20.5t-24.5 34.5t-12 44q-8 63 -30.5 108t-63 74t-101.5 42q-57 12 -132 12h-12q-160 -5 -258 -67t-124 -171q-5 -21 -4 -40q0 -30 11 -53q19 -38 58.5 -64t90 -43t98.5 -31l316 -70q124 -28 200 -81.5 t112 -123.5q36 -69 40 -151q1 -14 0 -28q0 -68 -16 -137q-28 -116 -101.5 -211t-184.5 -163q-111 -67 -256 -103q-127 -31 -274 -32q-21 0 -42 1q-123 3 -216 27.5t-161 62.5t-112.5 88.5t-69.5 107t-32 116.5z" />
<glyph unicode="T" horiz-adv-x="1452" d="M196 1559q-7 25 0 55q6 30 23.5 54.5t41.5 42.5t51.5 27t56.5 9h1138q27 0 51.5 -9t41 -27t23 -42.5t-0.5 -54.5q-8 -31 -24 -56t-40 -41.5t-51.5 -25t-56.5 -8.5h-418l-283 -1334q-7 -32 -22 -62.5t-38.5 -54t-56.5 -37.5t-76 -14t-70 14t-40.5 37.5t-15.5 54t5 62.5 l283 1334h-406q-29 0 -52.5 8.5t-40 25.5t-23.5 42z" />
<glyph unicode="U" horiz-adv-x="1837" d="M134 338q-10 51 -9 109q0 88 22 194l203 955q8 31 23 62t38.5 54.5t56 38t75.5 14.5t70.5 -14.5t41 -38t15.5 -53.5t-5 -63l-203 -955q-15 -70 -14 -128q0 -117 59 -185q89 -102 312 -102q211 0 336.5 102t170.5 313l203 955q7 31 21 62t38.5 54.5t57.5 38t76 14.5 t69.5 -14.5t40.5 -38t16 -53.5t-5 -63l-201 -955q-36 -169 -112 -296.5t-187.5 -211.5t-256.5 -126.5t-322 -42.5q-182 0 -314.5 40t-212 123t-103.5 211z" />
<glyph unicode="V" horiz-adv-x="1554" d="M217 1542q-4 31 0.5 64t21 62t45.5 52q29 25 74 36q36 10 63 10q11 0 19 -2q34 -4 56 -19.5t34 -42t15 -58.5l154 -1265l698 1270q16 30 39 55.5t50.5 41.5t62.5 20t75 -9q39 -12 57.5 -33t23 -49t-5 -59.5t-29.5 -65.5l-831 -1453q-20 -37 -44 -59t-52.5 -35t-63 -18 t-74.5 -5t-71.5 5t-55 18t-37 35.5t-19.5 58.5z" />
<glyph unicode="W" horiz-adv-x="2313" d="M221 1576.5q1 22.5 5 45.5q9 37 28 63.5t45.5 43.5t56.5 25.5t59 8.5q63 0 93 -30t33 -101l40 -1159l552 1144q15 33 33.5 59.5t44.5 46t62.5 30t87.5 10.5q59 0 94 -9t54.5 -28t26.5 -46t8 -64l66 -1151l544 1171q31 70 73 98.5t104 28.5q27 0 53.5 -8t44.5 -25 t25.5 -43.5t0.5 -62.5q-4 -22 -13.5 -43.5t-21.5 -48.5l-678 -1392q-22 -44 -44.5 -74t-50.5 -48.5t-64 -27.5t-81 -9q-49 0 -80 10t-49.5 30t-27 51t-11.5 74l-71 1164l-574 -1173q-20 -43 -43 -73t-50 -48.5t-61.5 -26.5t-79.5 -8q-47 0 -78 10t-49 30t-25.5 50.5 t-10.5 70.5l-70 1385q-2 27 -1 49.5z" />
<glyph unicode="X" horiz-adv-x="1441" d="M-100 67.5q-6 26.5 0 58.5q6 26 20 48.5t33 42.5l609 685l-292 621q-11 21 -15.5 45t1.5 51q6 31 24.5 58.5t45 47.5t58.5 31t68 11q28 0 48.5 -7t33 -18.5t21 -25t14.5 -26.5l236 -556l495 561q10 11 23 24t30 23.5t39 17.5q24 7 49 7q33 0 59 -10.5t42.5 -30t23 -44.5 t0.5 -55q-6 -25 -20 -47.5t-32 -43.5l-576 -638l322 -669q11 -23 16 -47q4 -25 -2 -50q-7 -32 -25 -59t-44.5 -48t-59 -32.5t-67.5 -11.5q-28 0 -48 8t-34.5 19.5t-23 25t-12.5 26.5l-262 581l-525 -585q-11 -12 -25 -25.5t-31.5 -24t-40 -18t-49.5 -7.5q-34 0 -60.5 11 t-43.5 30t-23 45.5z" />
<glyph unicode="Y" horiz-adv-x="1560" d="M232 1614q7 42 32.5 75.5t67 55t93.5 21.5q30 0 50.5 -5.5t35.5 -18t26 -29.5t21 -41l269 -694l572 698q18 23 36 39.5t38 28t43 17t51 5.5q23 0 49.5 -7t46.5 -24.5t30 -43.5t2 -67q-5 -20 -17 -41t-29 -40l-722 -838l-118 -556q-7 -32 -22.5 -62.5t-39 -54t-56.5 -37.5 t-76 -14t-70 14t-41.5 37.5t-17.5 54t4 62.5l118 553l-368 831q-10 27 -10 55q0 13 2 26z" />
<glyph unicode="Z" horiz-adv-x="1721" d="M-14.5 85.5q-5.5 31.5 3.5 77.5q8 40 32 72q22 31 53 60l1247 1186h-806q-35 0 -64 9t-48.5 26t-27 42t-0.5 56q5 32 24 57.5t45 43t59 25t68 7.5h1089q30 0 56 -7t42.5 -24t21.5 -45t-4 -71q-7 -31 -25.5 -63.5t-47.5 -59.5l-1263 -1210h913q34 0 63.5 -9t48.5 -25.5 t27 -41.5t1 -58q-7 -31 -25 -56.5t-44.5 -42.5t-59.5 -25.5t-68 -8.5h-1147q-46 0 -80.5 8t-56 27t-27 50.5z" />
<glyph unicode="[" horiz-adv-x="687" d="M-72 -393q-8 37 5 96l412 1939q13 58 35.5 94.5t52.5 57.5t64.5 28.5t68.5 7.5h219q29 0 51.5 -5.5t37 -19t19.5 -35t-2 -51.5q-6 -30 -20 -51.5t-34 -35t-45.5 -19.5t-53.5 -6h-115l-397 -1870h114q29 0 51 -6.5t36.5 -20t19.5 -34.5q5 -19 -1 -51q-6 -30 -20 -52 t-34 -35t-46 -19.5t-54 -6.5h-218q-34 0 -65.5 8t-52 29t-28.5 58z" />
<glyph unicode="\" horiz-adv-x="943" d="M229 1696q-3 20 1 37q6 26 21 46.5t35.5 35t43.5 22.5t43 8q35 0 55.5 -9.5t31 -23t15.5 -30t8 -29.5l291 -1603q4 -20 6 -39t-2 -38q-6 -26 -21.5 -46.5t-36.5 -34t-43 -21.5t-42 -8q-34 0 -55 10t-33 23.5t-16.5 29t-7.5 30.5v-2l-288 1603q-3 19 -6 39z" />
<glyph unicode="]" horiz-adv-x="687" d="M-240 -375q13 60 55 86t99 26h113l399 1870h-114q-59 0 -89.5 25t-18.5 87q13 60 55.5 85.5t99.5 25.5h219q34 0 65.5 -7.5t52 -28.5t28.5 -57q5 -35 -6 -95l-412 -1939q-13 -59 -36 -96t-52 -58t-63.5 -29t-70.5 -8h-217q-57 0 -88 26q-31 27 -19 87z" />
<glyph unicode="^" horiz-adv-x="1525" d="M177 806q-3 22 12 52q14 29 38 60l595 781q23 28 43 46t40 29t40 15t42 4q21 0 39.5 -4t33.5 -15t27.5 -29t22.5 -46l263 -781q11 -34 12 -64t-12 -52.5t-39.5 -34.5t-69.5 -12q-26 0 -46 3t-36.5 13t-28.5 27t-20 43l-214 639l-484 -638q-20 -25 -38.5 -42.5t-39 -27.5 t-41.5 -13.5t-46 -3.5q-45 0 -67.5 14.5t-25.5 36.5z" />
<glyph unicode="_" horiz-adv-x="1291" d="M-211 -311q-2 19 2 41q5 21 15.5 39.5t26 33t35 23t40.5 8.5h1082q42 0 62 -30.5t10 -73.5q-4 -22 -15.5 -41t-27 -33.5t-34 -23t-40.5 -8.5h-1082q-22 0 -37 8.5t-25 23t-12 33.5z" />
<glyph unicode="`" horiz-adv-x="790" d="M385 1757.5q3 25.5 16.5 50t40.5 44.5q41 30 74 31.5t58 -14.5t44.5 -43t32.5 -51l104 -192q21 -40 20.5 -73t-15.5 -57t-41.5 -38.5t-56.5 -15t-60 13.5t-51 44l-136 196q-17 24 -25 51.5t-5 53z" />
<glyph unicode="a" horiz-adv-x="1368" d="M-13 345q23 105 84 183t146 131t183 84t193 42q55 6 108.5 9.5t99.5 3.5t81.5 -1.5t52.5 -2.5l17 80q4 20 4 37q0 25 -8 45q-14 34 -44 55t-74 32.5t-92 11.5q-44 0 -79.5 -5t-65.5 -16.5t-57 -30t-56 -46.5q-24 -25 -53 -42t-60 -25.5t-61 -5t-54 22.5q-17 12 -28 33 t-11.5 46t7 52t29.5 55q47 62 110.5 106.5t139.5 73t159.5 42t172.5 13.5q61 0 122 -8.5t114 -28.5t95 -52t70 -78.5t35 -108.5q2 -19 2 -39q0 -47 -11 -102l-140 -656q-14 -63 -15 -111q-2 -28 -15 -55.5t-33 -49.5t-46.5 -36t-56.5 -19q-30 -4 -55.5 2.5t-43.5 22 t-28.5 39.5t-7.5 52q1 16 1 31t3 32q-59 -56 -117.5 -93t-118 -59t-117.5 -31.5t-113 -9.5q-85 0 -160 22t-128.5 68t-76.5 116q-12 38 -12 84q0 39 9 85zM299 366q-9 -37 2.5 -63.5t36 -43.5t60 -25t77.5 -8q91 0 161 23.5t118 59.5t75.5 77.5t35.5 78.5l33 151 q-22 2 -47 2t-55 -2q-58 -3 -120.5 -13.5t-125 -28.5t-114 -46.5t-89 -68.5t-48.5 -93z" />
<glyph unicode="b" horiz-adv-x="1508" d="M5.5 79.5q-4.5 29.5 3.5 62.5l318 1504q8 34 25.5 63.5t41.5 51t54 33t64 11.5q33 0 58 -11.5t40.5 -33t20 -51t-2.5 -63.5l-97 -461q51 49 103 81t104.5 49.5t102.5 24.5t97 7q106 0 186.5 -26.5t140 -73.5t97.5 -111q38 -66 56 -142q17 -71 17 -149q0 -7 -1 -13 q-2 -86 -20 -173q-30 -143 -94 -268t-161 -218.5t-223.5 -148t-283.5 -54.5q-51 0 -99 7t-91.5 25.5t-82.5 52.5t-70 87q-7 -33 -23.5 -62.5t-41 -51t-55 -33.5t-65.5 -12q-34 0 -59 12t-40 33.5t-19.5 51zM392 500q3 -76 33 -135t91 -95q59 -35 159 -35q94 0 166.5 37 t124 97.5t85 139.5t50.5 162q13 63 13 124v27q-4 74 -33.5 132t-87.5 94t-152.5 36t-168 -38t-127 -98t-88 -136.5t-51.5 -152.5q-14 -71 -14 -136v-23z" />
<glyph unicode="c" horiz-adv-x="1328" d="M28 362q-6 44 -6 91q0 85 20 181q32 148 98.5 275.5t164.5 221t227.5 145.5t286.5 52q96 0 175.5 -19t139.5 -57.5t99.5 -94.5t56.5 -129q3 -13 3 -28q0 -16 -3 -32q-7 -31 -22 -57.5t-38 -46.5t-51.5 -31.5t-60.5 -11.5q-48 0 -79.5 27t-43.5 67q-11 36 -35.5 61.5 t-56 42t-69 24.5t-78.5 8q-85 0 -154 -33.5t-120.5 -90t-86.5 -133t-52 -161.5q-11 -52 -11 -102q0 -23 2 -45q8 -70 38.5 -122t85 -83.5t131.5 -31.5q93 0 168 38.5t121 107.5q27 41 72 69t92 28q30 0 54.5 -11.5t39 -32t19.5 -48t-1 -58.5q-3 -17 -11 -32t-18 -30 q-44 -63 -104.5 -120t-136 -98.5t-162.5 -66.5t-186 -25q-148 0 -255.5 48t-171 135t-81.5 209z" />
<glyph unicode="d" horiz-adv-x="1508" d="M32 391q-3 34 -3 68q0 95 22 200q19 89 55 174t86 161.5t115.5 141t144.5 111.5t171.5 73.5t197.5 26.5q51 0 100 -8t92.5 -25.5t80.5 -49t66 -79.5l97 461q7 34 25 63.5t41.5 51t54.5 33t63 11.5q33 0 59 -11.5t41 -33t19 -51t-3 -63.5l-319 -1504q-7 -33 -23.5 -62.5 t-40.5 -51t-55 -33.5t-65 -12t-60 12t-41 33.5t-18.5 51t3.5 62.5q-56 -53 -109 -87t-104 -52.5t-102.5 -25.5t-101.5 -7q-156 0 -260.5 54.5t-161 148t-67.5 218.5zM352 506q0 -76 26 -136t81.5 -97.5t149.5 -37.5q99 0 175.5 35.5t131.5 94t90 135t54 159.5q11 51 13 103 v23q0 39 -5 75q-7 46 -25.5 87t-50 72t-78 48t-109.5 17q-94 0 -167 -36t-127.5 -94.5t-89.5 -132t-51 -150.5q-18 -85 -18 -165z" />
<glyph unicode="e" horiz-adv-x="1368" d="M28 380q-4 36 -3 74q0 95 22 201q32 153 106 277.5t178.5 212.5t234 135.5t272.5 47.5q139 0 239.5 -48.5t161.5 -133.5t79 -197q8 -46 8 -93q0 -70 -16 -145q-9 -45 -22.5 -74t-35 -46.5t-53 -25t-75.5 -7.5h-789q-6 -32 -6 -61q-1 -33 7 -63q14 -56 50.5 -97.5 t97.5 -64.5t145 -23q46 0 89 8.5t81.5 24t71.5 36.5t57 45q27 26 61.5 44.5t71.5 18.5q30 0 53 -11.5t38 -30.5t20 -45t-1 -56q-4 -23 -15 -42t-26 -37q-50 -55 -113 -99.5t-135.5 -75t-152.5 -46.5t-163 -16q-171 0 -285.5 51.5t-177.5 143.5t-75 218zM386 769h628 q1 20 1 39q0 39 -5 76q-8 56 -35 99.5t-75.5 69t-124.5 25.5q-73 0 -135 -27t-112 -71.5t-86 -99.5t-56 -111z" />
<glyph unicode="f" horiz-adv-x="837" d="M106 120l203 951h-100q-60 0 -81 30q-14 20 -14 49q0 16 4 34q11 53 44.5 84.5t94.5 31.5h101l40 190q17 79 58.5 139t99 100t127 60.5t141.5 20.5q43 0 78 -8.5t59 -26.5t34 -45q12 -27 3 -65q-4 -21 -15.5 -39.5t-26 -33.5t-32 -23.5t-36.5 -8.5q-7 0 -16.5 1t-17.5 2 q-9 1 -18 2.5t-24 1.5q-51 0 -81 -30.5t-40 -79.5l-33 -157h116q112 0 112 -82q0 -16 -4 -34q-13 -57 -53 -85t-105 -28h-112l-206 -951q-16 -76 -65 -113.5t-116 -37.5q-69 0 -102 37q-22 26 -22 68q0 21 5 46z" />
<glyph unicode="g" horiz-adv-x="1462" d="M-52.5 -219.5q3.5 27.5 16.5 53.5t36 47.5t51 34.5q31 12 58.5 13t51 -8.5t42.5 -27t32 -40.5q37 -63 100.5 -88t152.5 -25q94 0 164 30.5t121 81.5t81.5 114.5t44.5 127.5l13 62q-98 -89 -197 -123t-194 -34q-155 0 -258.5 51.5t-161.5 138.5t-71 205q-4 37 -4 74 q0 85 20 177q15 74 44.5 154t74.5 156t106.5 144t141.5 119.5t179.5 80.5t221.5 29q100 0 178.5 -34t134.5 -117q17 70 60.5 106.5t112.5 36.5q73 0 101 -39q18 -24 18 -62q0 -22 -6 -49l-226 -1061q-29 -139 -92 -255.5t-158.5 -201t-225.5 -131.5t-293 -47q-89 0 -165 17 t-136 49t-102 79.5t-64 105.5q-7 28 -3.5 55.5zM341 515q1 -73 25 -131t78 -93.5t142 -35.5q95 0 169 32.5t128.5 88.5t90.5 127.5t53 148.5q11 49 13 98v15q0 41 -7 81q-8 46 -26.5 87t-50 71t-75.5 48t-103 18q-92 0 -162 -34t-121.5 -89.5t-85.5 -129t-51 -155.5 q-17 -70 -17 -139v-8z" />
<glyph unicode="h" horiz-adv-x="1419" d="M5 77.5q-4 28.5 4 64.5l318 1504q8 34 25.5 63.5t41.5 51t54 33t64 11.5q33 0 58 -11.5t40.5 -33t20 -51t-2.5 -63.5l-103 -486q48 43 99.5 75.5t104 54t101.5 32.5t94 11q141 0 225.5 -37.5t126 -102.5t44.5 -154q0 -10 1 -21q0 -80 -21 -173l-150 -703 q-7 -35 -23.5 -64t-41 -50.5t-54.5 -33t-64 -11.5q-35 0 -60.5 11.5t-40.5 33t-19.5 50.5t2.5 64l155 722q7 32 7 59q-1 57 -29 93q-42 54 -147 54q-83 0 -150 -27.5t-118 -73t-84.5 -107t-47.5 -130.5l-126 -590q-7 -35 -24.5 -64t-41.5 -50.5t-54 -33t-65 -11.5 q-34 0 -59.5 11.5t-40.5 33t-19 50z" />
<glyph unicode="i" horiz-adv-x="629" d="M30 78q4 -29 18.5 -50.5t40 -33t60.5 -11.5q34 0 65 11.5t54.5 33t40.5 50t24 64.5l216 1016q7 35 3.5 64t-19 50.5t-40 33t-60.5 11.5q-34 0 -65 -11.5t-55 -33t-40.5 -50.5t-23.5 -64l-216 -1016q-7 -35 -3 -64zM327 1622q8 34 28 65.5t48.5 54.5t62.5 36.5t69 13.5 q34 0 62.5 -13.5t47.5 -36.5t25 -54.5t-1 -65.5q-7 -35 -27 -66.5t-48 -55t-62 -37t-70 -13.5q-34 0 -63 13.5t-46.5 37t-25 55t-0.5 66.5z" />
<glyph unicode="j" horiz-adv-x="629" d="M-290 -375q-5 -22 -5 -40q0 -45 27 -73q39 -38 136 -38q95 0 164.5 29t116.5 78.5t76.5 116.5t44.5 143l279 1317q7 35 3.5 64t-19 50.5t-40 33t-60.5 11.5q-34 0 -65 -11.5t-55 -33t-40.5 -50.5t-23.5 -64l-286 -1350q-6 -24 -24.5 -42.5t-44.5 -18.5h-48 q-55 0 -88.5 -28.5t-47.5 -93.5zM327 1622q8 34 28 65.5t48.5 54.5t62.5 36.5t69 13.5q34 0 62.5 -13.5t47.5 -36.5t25 -54.5t-1 -65.5q-7 -35 -27 -66.5t-48 -55t-62 -37t-70 -13.5q-34 0 -63 13.5t-46.5 37t-25 55t-0.5 66.5z" />
<glyph unicode="k" horiz-adv-x="1301" d="M5 77.5q-4 28.5 4 64.5l318 1504q8 34 25 63.5t40 51t53 33t66 11.5q34 0 59 -11.5t39 -33t18 -51t-4 -63.5l-173 -815l621 439q30 21 64.5 34.5t67.5 13.5q44 0 72 -25.5t34.5 -62.5t-10 -78t-61.5 -71l-414 -289l260 -566q3 -6 6 -15t5.5 -21.5t2.5 -28t-4 -34.5 q-6 -28 -23 -54.5t-40.5 -46.5t-52 -31.5t-59.5 -11.5q-27 0 -47 5.5t-34 16.5t-22.5 23t-14.5 23l-252 550l-173 -121l-73 -338q-7 -35 -23.5 -64t-39.5 -50.5t-53 -33t-64 -11.5t-60 11.5t-40 33t-18 50z" />
<glyph unicode="l" horiz-adv-x="629" d="M30 77.5q-4 28.5 3 64.5l320 1504q7 34 23.5 63.5t41 51t54.5 33t66 11.5q34 0 59 -11.5t40 -33t19.5 -51t-2.5 -63.5l-321 -1504q-7 -35 -24 -64t-40.5 -50.5t-54 -33t-65.5 -11.5t-60.5 11.5t-40 33t-18.5 50z" />
<glyph unicode="m" horiz-adv-x="2152" d="M5 77.5q-4 28.5 4 64.5l217 1019q7 34 22 63.5t38 51t52.5 33t63.5 11.5t59 -11.5t38.5 -33t17.5 -51t-4 -63.5q92 89 192 127q99 38 213 38q54 0 105 -12.5t93 -36.5t74.5 -61.5t52.5 -85.5q94 91 200 143.5t223 52.5q107 0 188.5 -23t132.5 -71t68 -124q7 -32 8 -70 q0 -51 -14 -111l-167 -785q-7 -35 -23.5 -64t-41 -50.5t-54.5 -33t-64 -11.5t-60 11.5t-41 33t-19.5 50t3.5 64.5l151 715q11 43 11 78v9q-2 38 -19.5 64.5t-53 41.5t-94.5 15q-67 0 -124 -18.5t-101.5 -53.5t-74.5 -85.5t-44 -112.5l-138 -653q-7 -35 -24 -64t-41.5 -50.5 t-54.5 -33t-64 -11.5t-60 11.5t-41 33t-18.5 50t3.5 64.5l147 693q12 49 12.5 92t-14.5 73.5t-48.5 47.5t-90.5 17q-56 0 -102.5 -14t-85 -37.5t-67 -52.5t-49.5 -59t-33 -58.5t-18 -48.5l-137 -653q-7 -35 -24.5 -64t-41.5 -50.5t-54 -33t-65 -11.5q-34 0 -59.5 11.5 t-40.5 33t-19 50z" />
<glyph unicode="n" horiz-adv-x="1419" d="M5 77.5q-4 28.5 4 64.5l217 1019q7 34 22 63.5t38 51t52.5 33t63.5 11.5q33 0 57 -11t38.5 -31t19 -47t-0.5 -60q-1 -3 -2.5 -9.5t-1.5 -8.5q84 80 184.5 126.5t225.5 46.5q142 0 226.5 -36.5t125.5 -101.5q42 -64 44 -154q0 -9 1 -18q0 -82 -21 -178l-148 -696 q-7 -35 -23.5 -64t-41 -50.5t-54.5 -33t-64 -11.5q-35 0 -60.5 11.5t-40.5 33t-19.5 50t2.5 64.5l153 719q7 32 7 59q0 56 -28 92q-41 54 -147 53q-83 0 -150.5 -26.5t-118 -73t-84 -107t-48.5 -130.5l-124 -586q-7 -35 -24.5 -64t-41.5 -50.5t-54 -33t-65 -11.5 q-34 0 -59.5 11.5t-40.5 33t-19 50z" />
<glyph unicode="o" horiz-adv-x="1460" d="M31 381q-5 41 -5 85q0 87 20 182q30 144 98.5 268.5t171 216t238 143.5t300.5 52q163 0 276 -52t177 -144t80 -216q5 -42 6 -85q0 -87 -22 -183q-30 -143 -98.5 -267t-171.5 -215.5t-238 -143.5t-299.5 -52t-277.5 52t-176.5 143.5t-78.5 215.5zM344 467q12 -78 48 -130 t94.5 -79.5t132.5 -27.5q72 0 141 27.5t128.5 79.5t104.5 130t67 181q14 65 14 120q0 30 -4 58q-12 78 -48.5 132t-94.5 83t-129 29q-74 0 -144.5 -29t-130.5 -83t-103.5 -132t-64.5 -178q-15 -69 -15 -126q0 -29 4 -55z" />
<glyph unicode="p" horiz-adv-x="1508" d="M-98.5 -409.5q-4.5 29.5 2.5 63.5l321 1504q7 33 23.5 62.5t40.5 51t54 33.5t66 12q34 0 60 -12t40 -33.5t18.5 -51t-2.5 -62.5q54 53 107 86.5t104.5 52.5t103 25t102.5 6q156 0 260 -53.5t160.5 -147t67.5 -218.5q3 -33 3 -67q0 -95 -23 -201q-19 -89 -54 -175 t-85.5 -162.5t-115.5 -140.5t-144.5 -110.5t-172 -73t-197.5 -26.5q-46 0 -94 6.5t-92.5 24t-83.5 48.5t-69 81l-98 -459q-7 -34 -24 -63.5t-41.5 -51t-54.5 -33t-64 -11.5t-58.5 11.5t-40 33t-20 51zM389 538q-1 -16 -1 -31q0 -35 5 -68q7 -47 26 -87t51 -71t77.5 -48 t108.5 -17q95 0 168.5 35.5t127 93.5t89.5 132.5t52 151.5q11 55 15 109q2 23 2 45q0 30 -3 57q-6 48 -23 89.5t-47 71.5t-76 47t-109 17q-98 0 -174 -35.5t-131 -95t-91 -135t-53 -158.5q-11 -52 -14 -103z" />
<glyph unicode="q" horiz-adv-x="1508" d="M28 466q2 86 21 175q30 143 93.5 268t160 218.5t224 147t282.5 53.5q52 0 102 -7t94.5 -26t83 -52t65.5 -85q7 33 23.5 62.5t40 51t54.5 33.5t66 12t60 -12t40 -33.5t19 -51t-3 -62.5l-320 -1504q-7 -34 -24 -63.5t-41.5 -51t-54.5 -33t-64 -11.5q-33 0 -58 11.5t-41 33 t-20 51t3 63.5l97 459q-52 -50 -104 -81t-104 -48.5t-102 -24t-96 -6.5q-106 0 -187.5 26.5t-141 73t-96.5 110.5t-55 141q-17 70 -17 149v13zM348 478q4 -75 33 -133t88 -93.5t152 -35.5q94 0 167.5 38t127.5 98t89 135.5t50 153.5q15 72 15 139v20q-3 75 -33 134.5t-91 95 t-160 35.5q-94 0 -165.5 -37t-123.5 -98t-85.5 -139.5t-51.5 -161.5q-12 -62 -12 -123v-28z" />
<glyph unicode="r" horiz-adv-x="886" d="M5 77.5q-4 28.5 4 64.5l216 1016q7 35 22.5 64t38.5 50.5t52.5 33t63.5 11.5t58.5 -11.5t38 -33t16.5 -50.5t-3 -64l-10 -41q30 33 70 68.5t85 64t92.5 46.5t94.5 18q27 0 50 -8t40 -23.5t26.5 -37t9.5 -50.5q-2 -30 -15 -57.5t-34.5 -51.5t-48.5 -39t-58 -20 q-99 -15 -168.5 -51t-117.5 -92.5t-78 -133t-51 -172.5l-93 -436q-7 -35 -23.5 -64t-41 -50.5t-53.5 -33t-65 -11.5q-34 0 -60 11.5t-40 33t-18 50z" />
<glyph unicode="s" horiz-adv-x="1276" d="M-34 257q-9 28 0 62q5 30 22.5 56.5t41.5 46.5t53 31.5t59 11.5q22 0 41 -8t33 -20t24 -29.5t17 -35.5q16 -37 46 -63t67.5 -41t77.5 -21.5t75 -6.5t79 4.5t85 17.5t72.5 37t39.5 66q9 40 -6 67t-48 47t-81.5 34.5t-105.5 28.5q-55 13 -112 28t-110 37t-98 51.5t-75 69.5 q-31 42 -41 94q-4 22 -4 47q0 34 8 72q14 69 48.5 124.5t83 99t108.5 75t124 52.5q66 22 132 30q54 7 105 6h24q81 -1 155.5 -15.5t134 -42t102 -69t61.5 -96.5q6 -15 7 -33q2 -20 -4 -40q-6 -30 -21 -55t-37 -43.5t-48.5 -29t-55.5 -10.5q-43 0 -71.5 23.5t-45.5 53.5 q-13 26 -36.5 43.5t-53 30t-61.5 19.5t-62 8q-18 1 -35 1q-32 1 -62 -3q-46 -6 -83 -20.5t-62 -38t-33 -56.5q-7 -31 11.5 -53.5t54.5 -39.5t85.5 -30.5t104.5 -26.5q121 -30 208.5 -64.5t141.5 -82t72 -113.5q9 -33 8 -71q0 -40 -9 -86q-17 -83 -54.5 -146t-88 -109.5 t-113 -78t-131 -50t-141.5 -26.5t-146 -8q-87 1 -165.5 18.5t-141.5 53t-107.5 89t-62.5 126.5z" />
<glyph unicode="t" horiz-adv-x="819" d="M109 1178q11 56 44 88t93 32h84l53 252q16 76 65.5 114.5t117.5 38.5q69 0 101 -38q22 -26 22 -70q0 -21 -5 -45l-53 -252h111q66 0 93 -30q18 -21 18 -55q1 -16 -3 -35q-12 -60 -53 -90.5t-106 -30.5h-112l-149 -699q-4 -19 -4 -36q0 -26 10 -44q17 -32 69 -32 q21 0 40.5 3t37.5 3q23 0 36.5 -11.5t21 -29t8 -38.5t-3.5 -41q-9 -38 -31 -67t-54 -48.5t-71.5 -29.5t-82.5 -10q-180 -1 -251 81q-48 56 -48 147q0 42 10 92l162 760h-83q-60 -1 -80 33q-12 20 -12 49q0 18 5 39z" />
<glyph unicode="u" horiz-adv-x="1427" d="M56 264v18q0 82 20 177l149 698q7 34 23.5 63.5t40.5 51t54 33.5t65 12q34 0 59.5 -12t40.5 -33.5t19.5 -50t-2.5 -64.5l-155 -721q-6 -31 -7 -58q-1 -56 29 -92q42 -54 149 -54q82 0 150 26.5t120.5 73t86.5 106.5q34 62 49 131l125 588q8 34 25 63.5t40.5 51t53.5 33.5 t66 12q70 0 100 -45q20 -31 20 -73q0 -20 -4 -42l-218 -1021q-7 -34 -22.5 -63.5t-38.5 -51t-52.5 -33t-63.5 -11.5t-58.5 11.5t-38.5 33t-18 51t4 63.5q-83 -77 -185.5 -121t-229.5 -44q-142 0 -226 36.5t-126 101.5t-44 155z" />
<glyph unicode="v" horiz-adv-x="1202" d="M112 1095q-4 21 -4 40q0 26 7 49q12 40 37 68.5t59.5 46.5t74.5 22q46 6 73 -9.5t42 -38.5t21 -47q6 -25 8 -36l101 -817l440 822q6 12 18.5 33.5t34 41.5t51.5 35.5t73 15.5q37 0 66.5 -16.5t43 -45t10 -67.5t-29.5 -87l-589 -1013q-16 -29 -33.5 -50.5t-42 -35 t-57.5 -20t-78 -6.5q-48 0 -78.5 7t-49 20.5t-27 35t-13.5 50.5z" />
<glyph unicode="w" horiz-adv-x="1857" d="M119 1098q-2 18 -2 34q1 76 39 124q46 58 150 65q46 3 73 -12.5t39 -38t16 -46t4 -36.5l48 -763l358 778q13 27 29 48.5t42 37t59 24t78 8.5t75 -8.5t48.5 -23.5t26.5 -36.5t11 -48.5l34 -779l375 770q5 13 18 35.5t34.5 44t52 35.5t72.5 11q51 -5 80 -23t39 -46t2 -63.5 t-30 -75.5l-543 -1026q-14 -27 -31.5 -47t-40 -33.5t-55 -20t-78 -6.5t-75 7t-47.5 20.5t-25.5 33.5t-9.5 46l-40 755l-350 -755q-13 -27 -30 -47.5t-41.5 -34.5t-58 -19.5t-79.5 -5.5q-47 0 -78 6.5t-48.5 20t-25.5 33.5t-11 47z" />
<glyph unicode="x" horiz-adv-x="1221" d="M-91 130.5q11 41.5 50 81.5l451 440l-260 432q-10 17 -15 37t-1 43q6 24 21 50.5t38.5 49.5t56.5 38t76 15q69 0 114 -79l198 -363l346 358q48 48 83.5 68t75.5 19q52 -3 81 -28t34.5 -62t-10 -78.5t-51.5 -77.5l-428 -416l263 -433q20 -35 16.5 -77t-26 -78.5 t-63.5 -61.5t-94 -25q-20 0 -37 4t-32 15t-30 30t-31 48l-194 356l-364 -376q-40 -40 -73 -59q-32 -20 -64 -20q-49 0 -82.5 21t-46.5 54t-2 74.5z" />
<glyph unicode="y" horiz-adv-x="1234" d="M-160 -376q14 66 62.5 98t114.5 32h32q23 0 43.5 1.5t40 7t35 17t26.5 33.5l123 201l-193 1063q-4 20 -5.5 45t1.5 39q7 42 25 71t42.5 48.5t53 28t55.5 9.5q44 2 70 -13t39 -35t17 -41.5t6 -33.5l120 -822l457 827q6 11 19 32t33.5 40t51.5 32.5t72 13.5 q26 -1 49.5 -9.5t39.5 -26.5t21.5 -46t-5.5 -68q-3 -15 -14.5 -38t-23.5 -43l-752 -1270q-58 -97 -114 -163t-112.5 -105t-119.5 -56.5t-137 -17.5q-54 0 -90 12.5t-56.5 33t-26.5 47t0 56.5z" />
<glyph unicode="z" horiz-adv-x="1349" d="M-49 71.5q-5 20.5 0 42.5q9 40 31 71.5t47 56.5l859 796h-545q-23 0 -45 8.5t-37.5 25t-23.5 41.5q-7 25 0 57q6 31 24 55.5t40 41t48 24t50 7.5h847q58 0 81 -34q15 -22 15 -56q0 -18 -4 -38q-5 -25 -26 -55t-48 -55l-866 -801h614q25 0 45.5 -8t35 -24.5t19.5 -40.5 t-2 -56q-7 -31 -23 -56t-37.5 -41.5t-45 -24.5t-47.5 -8h-896q-31 0 -54.5 9.5t-37 25.5t-18.5 36.5z" />
<glyph unicode="{" horiz-adv-x="863" d="M25 638q-2 17 2 36q3 17 12.5 34t23.5 30.5t34 21.5t46 8q30 0 59.5 5.5t57 26.5t50 61t36.5 109l117 546q35 163 128 238.5t247 75.5h154q19 0 35.5 -7.5t26.5 -22t14 -34t0 -41.5q-6 -28 -18.5 -48.5t-29 -35t-36 -22t-37.5 -7.5h-38q-34 0 -61 -4.5t-48.5 -18 t-36.5 -42t-25 -76.5l-107 -504q-16 -78 -46 -130t-67.5 -85.5t-76.5 -51.5t-73 -29q30 -12 61 -30t53.5 -51.5t30.5 -85.5t-8 -129l-107 -502q-12 -49 -7.5 -77t20 -42t40.5 -18.5t60 -4.5h35q19 0 35.5 -7t26.5 -22t14 -36t-1.5 -46.5t-17.5 -45.5t-28.5 -33.5t-36 -21 t-38.5 -7.5h-155q-156 0 -216 76t-26 239l117 548q15 68 10 108t-24 61t-46.5 26.5t-56.5 5.5q-26 0 -42.5 8.5t-25 22.5t-10.5 31z" />
<glyph unicode="|" horiz-adv-x="584" d="M-84 -430l489 2299q5 26 19.5 46.5t34.5 36.5t44.5 24.5t49.5 8.5q26 0 47 -8.5t34.5 -24.5t19 -37.5t0.5 -45.5l-490 -2299q-5 -26 -19.5 -47t-34.5 -36t-44.5 -23.5t-49.5 -8.5q-26 0 -46.5 8.5t-34.5 23.5t-19 36.5t0 46.5z" />
<glyph unicode="}" horiz-adv-x="863" d="M-241 -426q-5 20 1 46q5 27 18 47t29.5 35t36 22t37.5 7h36q34 0 61.5 4.5t49 18.5t36.5 42q13 28 25 77l108 502q16 77 46 129t66.5 85.5t76.5 52.5t73 29q-30 11 -61.5 29t-53.5 51.5t-30 85.5t8 130l107 504q11 49 7 77t-19 41.5t-40 18t-60 4.5h-37q-18 0 -34 7.5 t-26.5 22t-14 35t1.5 48.5q5 22 17 41.5t28.5 34t36.5 22t38 7.5h156q155 0 215 -75.5t26 -238.5l-118 -546q-15 -69 -9 -109t25 -61t46 -26.5t57 -5.5q26 0 42.5 -8t25 -21.5t10.5 -30.5t-1 -34q-4 -18 -13.5 -35.5t-24.5 -31.5t-35 -22.5t-44 -8.5q-30 0 -60 -5.5 t-57 -26.5t-50 -61t-38 -108l-117 -548q-34 -163 -126.5 -239t-246.5 -76h-154q-19 0 -35.5 7.5t-27 21t-14.5 33.5z" />
<glyph unicode="~" horiz-adv-x="1525" d="M149 526q-3 23 7 49q27 77 70.5 135.5t95 97.5t108 58t111.5 19q57 0 100.5 -13.5t80.5 -35t68 -46t61 -45.5t63 -35t71 -14q53 0 86 30t53 86q7 20 20.5 38t31 30t37.5 20t41 8q24 0 43.5 -10.5t31.5 -28.5t14.5 -41t-6.5 -47q-27 -77 -70.5 -136t-96 -97.5t-109 -58.5 t-109.5 -20q-60 0 -105 14.5t-80.5 34.5t-65.5 45t-60 45t-63 34t-75 14q-38 0 -73 -29t-60 -85q-7 -20 -20.5 -37t-30.5 -30t-38 -21t-41 -8q-24 0 -44 11.5t-32 28.5t-15 40z" />
<glyph unicode="&#xa2;" horiz-adv-x="1379" d="M121 646q-9 105 16 228q27 131 86 243.5t144 197t198 137t252 65.5l35 172q6 27 29 44t47 17q23 0 38 -16.5t9 -44.5l-35 -167q97 -8 172 -35.5t124.5 -69t70 -93t10.5 -104.5q-7 -32 -24 -57t-39.5 -40.5t-50.5 -24t-56 -8.5q-23 0 -38.5 6.5t-27 17t-19.5 24t-15 29.5 q-10 17 -19.5 35.5t-26 36t-43 30t-69.5 19.5l-165 -782q42 9 73 22.5t54.5 30.5t41.5 36.5t35 37.5q16 18 33 34.5t35.5 29t41 20t49.5 7.5t48.5 -9.5t34.5 -25t17 -35.5q4 -19 0 -42q-12 -49 -49 -104.5t-101.5 -103.5t-155 -83t-206.5 -44l-39 -181q-5 -29 -28 -45.5 t-45 -16.5q-11 0 -21.5 4.5t-18 12.5t-10 19.5t-0.5 25.5l39 181q-139 9 -230.5 57.5t-141.5 127.5t-59 184zM422.5 744q3.5 -60 25 -107.5t60 -79t94.5 -45.5l164 772q-50 -13 -100 -43t-94 -79t-80 -120.5t-57 -167.5q-16 -70 -12.5 -130z" />
<glyph unicode="&#xa3;" horiz-adv-x="1480" d="M-71 80.5q-5 21.5 1 45.5q9 37 34 65.5t57 43.5q61 25 115 62.5t96.5 83t71 98.5t39.5 109q6 20 7.5 43t0 45.5t-6.5 45t-12 40.5h-139q-47 0 -71.5 22.5t-15.5 70.5q8 43 37 68t73 25h44q-23 69 -30 148t16 178q17 80 54 149.5t89.5 126t119 101t141 75t154.5 45.5 t160 15q130 0 229.5 -30.5t164.5 -93.5t94 -159t18 -227q-3 -32 -18.5 -61.5t-41.5 -53t-57.5 -37.5t-65.5 -14q-27 0 -49 9t-38 25.5t-24.5 38.5t-8.5 48q11 153 -47.5 230.5t-194.5 77.5q-68 0 -130.5 -21t-112.5 -57.5t-84.5 -87t-45.5 -109.5q-10 -44 -10 -86.5 t6.5 -81.5t17 -76.5t25.5 -71.5h341q45 0 62.5 -25t7.5 -68q-10 -47 -38.5 -70t-68.5 -23h-246q3 -30 4 -65t-7 -66q-11 -53 -32.5 -102t-51.5 -93t-65 -84q-34 -39 -71 -73q26 6 46 8.5t46 2.5q58 0 110.5 -12t101.5 -26.5t97 -26.5t97 -12q58 0 117 8.5t117 28.5 q22 7 42 7q24 0 44 -8.5t32 -25t17 -38t0 -45.5q-7 -33 -29.5 -59.5t-53.5 -40.5q-47 -23 -93.5 -37t-94 -21.5t-93 -9.5t-92.5 -2q-58 0 -123.5 11.5t-133.5 25.5t-134 26.5t-123 12.5q-68 1 -132.5 -7.5t-131.5 -27.5q-9 -2 -18.5 -3t-17.5 -1q-26 0 -45 9.5t-31.5 26 t-17.5 38z" />
<glyph unicode="&#xa5;" horiz-adv-x="1474" d="M142 595q2 14 11 28.5t21.5 23.5t27.5 15.5t33 6.5h318l18 86l-28 69h-277q-34 0 -50.5 22.5t-9.5 52.5q7 32 33 54t60 22h187l-229 562q-18 46 -9.5 88t38.5 74.5t75 50t98 17.5q31 0 52.5 -10.5t35.5 -26t21 -32t11 -28.5l212 -658l493 660q9 11 23 27t34 31.5t46.5 27 t58.5 11.5q54 0 91 -19.5t52 -51.5t6 -73.5t-46 -87.5l-468 -562h186q31 0 50.5 -21.5t12.5 -54.5q-3 -15 -12.5 -28.5t-22 -24.5t-28.5 -16.5t-31 -5.5h-278l-56 -69l-18 -86h319q17 0 30 -6.5t20.5 -17t10.5 -23.5t0 -27t-10.5 -27t-20.5 -24.5t-29 -18t-33 -6.5h-319 l-81 -379q-9 -37 -26 -66.5t-43 -51t-58.5 -33.5t-72.5 -12q-79 0 -112 45t-19 118l81 379h-319q-36 0 -52 23t-8 53z" />
<glyph unicode="&#xa9;" horiz-adv-x="1990" d="M64.5 628q-8.5 120 19.5 254q28 130 87 249t143 222t186.5 187t220 143.5t242.5 92t253 32.5q127 0 237.5 -32.5t201.5 -92t159 -143.5t106.5 -187t46.5 -222t-19 -249q-29 -133 -88.5 -253.5t-141.5 -223.5t-185 -186t-219 -141.5t-241 -90t-252 -31.5t-239 31.5 t-203.5 90t-159 141.5t-107 186t-48 223zM290.5 585.5q24.5 -136.5 98.5 -236.5t194.5 -156.5t275.5 -56.5q102 0 199 25.5t187.5 73t169.5 114.5t143 149.5t109.5 179.5t68.5 204q34 160 7.5 296t-103 235t-195 154t-270.5 55q-104 0 -202.5 -25t-188.5 -71.5t-168 -112.5 t-140.5 -148t-107.5 -178.5t-68 -204.5q-34 -160 -9.5 -296.5zM513 662.5q-15 99.5 9 214.5q26 117 81 217t135 173.5t181 115t216 41.5q98 0 168.5 -27t114 -70t61 -95t7.5 -99q-6 -28 -19 -47t-28 -30.5t-29 -17.5t-24 -6q-23 0 -38 6.5t-23.5 17.5t-13.5 24.5t-10 29.5 q-7 25 -18.5 49.5t-34 43t-59 29.5t-91.5 11q-63 0 -120 -24.5t-103 -70t-80 -113.5q-34 -65 -51 -151q-18 -83 -13 -151.5t31.5 -116.5t74 -75.5t110.5 -27.5q51 0 90.5 11.5t69.5 30t53.5 43t43.5 50.5q13 17 26 32t28.5 26.5t33.5 18.5t39 7q35 0 52 -22t10 -62 q-6 -27 -26 -61.5t-51.5 -69t-73.5 -68t-94.5 -60t-112.5 -42t-126 -15.5q-112 0 -196.5 42t-134.5 115.5t-65 173z" />
<glyph unicode="&#xab;" horiz-adv-x="1148" d="M60 607q-10 42 0 88t38 88t71 66l280 178q17 11 37 20.5t43 9.5q19 0 33 -8t22.5 -22.5t11.5 -32t-1 -37.5q-7 -32 -31.5 -58.5t-57.5 -44.5l-264 -159l198 -159q23 -17 36.5 -43.5t6.5 -60.5q-4 -19 -14 -36.5t-24.5 -31.5t-32 -22.5t-37.5 -8.5q-25 0 -40 10t-28 20 l-205 176q-32 26 -42 68zM543 607q-10 42 0 88t38 88t71 66l280 178q18 11 38 20.5t42 9.5q19 0 33.5 -8t23 -22.5t11.5 -32t-2 -37.5q-7 -32 -31 -58q-26 -27 -57 -45l-265 -159l199 -159q23 -17 36.5 -43.5t6.5 -60.5q-5 -19 -15 -36.5t-24 -31.5t-32 -22.5t-37 -8.5 q-24 0 -39.5 10t-28.5 20l-206 176q-32 26 -42 68z" />
<glyph unicode="&#xad;" horiz-adv-x="1185" d="M86 671q11 54 57 86t112 32h690q66 0 98 -32t21 -86q-12 -55 -58 -86.5t-111 -31.5h-691q-65 0 -97.5 32.5t-20.5 85.5z" />
<glyph unicode="&#xae;" horiz-adv-x="1980" d="M64.5 628q-8.5 120 19.5 254q28 130 87 249t143 222t186.5 187t220 143.5t242.5 92t253 32.5q127 0 237.5 -32.5t201.5 -92t159 -143.5t106.5 -187t46.5 -222t-19 -249q-29 -133 -88.5 -253.5t-141.5 -223.5t-185 -186t-219 -141.5t-241 -90t-252 -31.5t-239 31.5 t-203.5 90t-159 141.5t-107 186t-48 223zM290.5 585.5q24.5 -136.5 98.5 -236.5t194.5 -156.5t275.5 -56.5q102 0 199 25.5t187.5 73t169.5 114.5t143 149.5t109.5 179.5t68.5 204q34 160 7.5 296t-103 235t-195 154t-270.5 55q-104 0 -202.5 -25t-188.5 -71.5t-168 -112.5 t-140.5 -148t-107.5 -178.5t-68 -204.5q-34 -160 -9.5 -296.5zM575 445.5q-4 19.5 1 46.5l162 761q6 25 18.5 44t30 31.5t38 19t39.5 6.5h314q82 0 144 -13.5t100 -47t50 -90t-6 -139.5q-15 -67 -45.5 -117t-71.5 -84.5t-88 -52.5q-45 -18 -91 -21l121 -227q12 -19 16 -39 t0.5 -38.5t-16.5 -37t-37 -34.5q-30 -20 -56.5 -24t-46.5 4.5t-35.5 25t-27.5 37.5l-164 333h-79l-63 -297q-11 -54 -46 -80t-78 -26q-22 0 -39 6.5t-28.5 20t-15.5 33zM879 950h199q29 0 56 5t50 19t39 38q15 23 24 62q9 37 2.5 60t-23 36t-41.5 18t-54 5h-200z" />
<glyph unicode="&#xbb;" horiz-adv-x="1148" d="M41 395q-2 17 2 37q7 33 31.5 59.5t55.5 44.5l268 159l-199 159q-25 18 -38.5 45.5t-6.5 57.5q3 20 14.5 37.5t26 32t32.5 22.5t36 8q23 0 39 -10q15 -9 30 -20l206 -178q31 -25 41 -66t0 -88q-10 -46 -38 -88t-71 -68l-280 -176q-17 -11 -36.5 -20.5t-43.5 -9.5 q-18 0 -32.5 8.5t-24 22.5t-12.5 31zM525 395q-3 17 1 37q7 33 32 59.5t55 44.5l268 159l-199 159q-24 18 -37.5 45.5t-6.5 57.5q3 20 14.5 37.5t25.5 32t32 22.5q16 8 36 8q23 0 40 -10q16 -9 29 -20l206 -178q31 -25 41 -66t0 -88q-10 -46 -37 -88t-70 -68l-281 -176 q-18 -11 -37 -20.5t-44 -9.5q-18 0 -32.5 8.5t-23.5 22.5t-12 31z" />
<glyph unicode="&#xbc;" horiz-adv-x="2196" d="M326 1461q4 20 12 33t22.5 21.5t34.5 13.5t47 10l60 10q37 5 65 19t48 31t36 37q18 20 33 40q11 16 21.5 29.5t24.5 25t31 18.5t38 7q40 0 58 -18t8 -65l-173 -818q-6 -26 -15 -46.5t-25 -35t-38.5 -22t-54.5 -7.5q-59 0 -77.5 30t-8.5 81l122 574q-54 -26 -110 -32.5 t-107 -6.5q-32 0 -46.5 17t-5.5 54zM449 45q1 15 8.5 33t20.5 34l1178 1588q11 16 27 29.5t32.5 22t35 9.5t37.5 -8q21 -11 29 -26t6.5 -33t-11 -36t-20.5 -34l-1177 -1584q-13 -17 -28.5 -30.5t-33.5 -21t-37 -6.5q-21 1 -41 12q-16 9 -21.5 22.5t-4.5 28.5zM1147 278 q-3 15 0 29q6 32 15 49t21 27l574 558q29 27 62 44t84 17q50 0 77.5 -25.5t18.5 -68.5l-113 -533h76q31 0 45.5 -21.5t7.5 -54.5q-7 -34 -30.5 -55.5t-55.5 -21.5h-76l-25 -120q-5 -19 -14 -39t-24 -36t-38 -26q-22 -11 -53.5 -11t-49 10.5t-27 26.5t-10 36t3.5 39l26 120 h-411q-27 0 -44 7.5t-27 20.5t-13 28zM1337 375h338l87 419z" />
<glyph unicode="&#xbd;" horiz-adv-x="2196" d="M326 1461q4 20 12 33t22.5 21.5t34.5 13.5t47 10l60 10q37 5 65 19t48 31t36 37q18 20 33 40q11 16 21.5 29.5t24.5 25t31 18.5t38 7q40 0 58 -18t8 -65l-173 -818q-6 -26 -15 -46.5t-25 -35t-38.5 -22t-54.5 -7.5q-59 0 -77.5 30t-8.5 81l122 574q-54 -26 -110 -32.5 t-107 -6.5q-32 0 -46.5 17t-5.5 54zM387.5 45q1.5 15 8.5 33t20 34l1178 1588q12 16 27 29.5t32 22t35.5 9.5t37.5 -8q21 -11 28.5 -26t6.5 -33t-10 -36t-21 -34l-1177 -1584q-12 -17 -28 -30.5t-34 -21t-37 -6.5t-41 12q-15 9 -21 22.5t-4.5 28.5zM1187.5 65 q-2.5 19 2.5 41q8 37 33 74t74.5 79.5t124.5 89.5t182 103q73 37 124 63.5t85.5 53t53.5 57t29 73.5q6 32 -4 57t-32 43t-53.5 28t-67.5 10q-70 0 -131.5 -33t-103.5 -106q-10 -17 -19 -30t-20 -22.5t-24.5 -13.5t-33.5 -4q-21 0 -38.5 4t-29 14t-15.5 25t0 38 q13 63 56.5 117.5t107.5 94t142.5 61.5t162.5 22q90 0 156 -24.5t106.5 -66t56.5 -95.5t3 -112q-13 -65 -39.5 -111t-63.5 -81t-87 -63q-49 -28 -112 -59q-84 -40 -145 -68.5t-102.5 -51.5t-68.5 -44t-47 -45h460q46 0 67.5 -23t11.5 -68q-11 -52 -41 -72t-76 -20h-594 q-28 0 -47.5 8.5t-30 23t-13 33.5z" />
<glyph unicode="&#xbe;" horiz-adv-x="2196" d="M178 924.5q-2 25.5 2 45.5q9 37 40.5 59.5t78.5 22.5q20 0 32 -5t20.5 -12t13.5 -18q4 -10 10 -20q7 -17 17 -34.5t27 -31t46.5 -21.5t75.5 -8q48 0 87.5 12.5t67.5 32.5t45.5 45.5t23.5 55.5q6 27 4.5 51t-15 42.5t-40.5 31.5q-26 11 -70 17q-15 1 -34 4.5t-35.5 11 t-26.5 19.5t-6 32q6 26 17.5 42.5t28.5 25.5t40.5 13.5t53.5 5.5q63 4 99.5 38t49.5 88q6 29 -3 50.5t-27.5 36.5t-45.5 22t-60 7q-40 0 -70 -7t-53 -19.5t-39.5 -28t-32.5 -31.5q-10 -11 -20 -20t-22 -16t-26 -12t-33 -5t-35.5 4.5t-27 12t-15.5 21.5t-1 32 q13 62 59.5 107.5t108 74t129.5 43t125 14.5q103 0 169.5 -23.5t103.5 -61.5t47 -85t-1 -97q-14 -65 -62.5 -118.5t-131.5 -87.5q41 -12 69 -34t43.5 -52t19 -66t-4.5 -73q-17 -83 -63 -143t-111 -100.5t-145 -60.5t-167 -20q-73 0 -127 12t-91.5 32t-60.5 44.5t-36 50.5 t-15 51.5zM549.5 45q1.5 15 8.5 33t20 34l1178 1588q11 16 27 29.5t32.5 22t35 9.5t37.5 -8q21 -11 29 -26t6.5 -33t-11 -36t-20.5 -34l-1177 -1584q-13 -17 -28.5 -30.5t-33.5 -21t-37 -6.5q-21 1 -41 12q-16 9 -21.5 22.5t-4 28.5zM1164 278q-3 15 0 29q6 32 15 49t21 27 l575 558q28 27 61.5 44t85.5 17q50 0 76.5 -25.5t17.5 -68.5l-113 -533h78q31 0 44.5 -21.5t6.5 -54.5q-7 -34 -30 -55.5t-54 -21.5h-78l-24 -120q-4 -19 -13.5 -39t-25 -36t-38.5 -26.5t-53 -10.5q-31 0 -49 10.5t-26.5 26.5t-10.5 36q-3 20 3 39l26 120h-409 q-27 0 -44.5 7.5t-28 20.5t-13.5 28zM1356 375h336l88 419z" />
<glyph unicode="&#xd7;" horiz-adv-x="1281" d="M-31.5 194q-2.5 22 4 44t20.5 43t34 38l425 352l-275 350q-14 19 -19.5 41t-1.5 45t17 45t36 41q20 17 44 27.5t48.5 11.5t46.5 -8.5t40 -28.5l273 -358l429 358q23 21 47 30t48.5 9t44.5 -10t36 -29q15 -20 18.5 -43.5t-3.5 -47t-21 -45t-36 -38.5l-423 -350l274 -352 q15 -19 20 -41.5t0.5 -46.5t-19 -46t-36.5 -41q-26 -20 -51 -29t-48 -7.5t-41.5 11.5t-32.5 28l-275 359l-426 -359q-26 -20 -51.5 -30.5t-50 -9t-45 12t-35.5 32.5q-13 20 -15.5 42z" />
<glyph unicode="&#xf7;" horiz-adv-x="1488" d="M69 671q11 54 57.5 86t110.5 32h1024q66 0 98 -32t21 -86q-11 -55 -57.5 -86.5t-111.5 -31.5h-1024q-65 0 -97.5 32.5t-20.5 85.5zM433 180q9 39 32 73t53.5 61.5t67.5 43t75 15.5t69 -15.5t51.5 -43t28.5 -62.5t-1 -72q-7 -34 -29 -67t-53 -58t-67.5 -40t-73.5 -15 t-68.5 14.5t-53 38.5t-30.5 57t-1 70zM642 1160q9 38 31 72.5t53.5 61t68.5 41.5t74 15q39 0 70 -15t51.5 -41.5t28.5 -61t-1 -72.5q-8 -37 -30.5 -71t-53 -59.5t-68 -40.5t-74.5 -15t-67.5 15t-51.5 40.5t-30.5 59.5t-0.5 71z" />
<glyph unicode="&#xe01;" horiz-adv-x="1580" d="M27 58.5q-7 24.5 0 55.5l149 698q8 40 8 80t-17 78q-15 31 -27.5 50.5t-16 36.5t4.5 37t31 56q50 74 120.5 144t163.5 123t209.5 84.5t259.5 31.5q132 0 230.5 -23.5t166 -67t108 -102.5t59 -129t16.5 -148q-2 -79 -18 -159l-168 -790q-8 -31 -25 -55.5t-41 -41.5 t-53.5 -25.5t-61.5 -8.5q-31 0 -57 8.5t-42 25.5t-23.5 41.5t-0.5 55.5l173 816q13 62 6.5 124.5t-42 111t-103.5 79.5t-179 33q-92 2 -165.5 -19.5t-128 -53.5t-89.5 -69q-35 -35 -49 -66q38 -42 52.5 -111.5t-2.5 -149.5l-148 -695q-7 -31 -23.5 -55.5t-40.5 -41.5 t-53.5 -25.5t-60.5 -8.5q-32 0 -57 8.5t-41.5 25.5t-23.5 41.5z" />
<glyph unicode="&#xe02;" horiz-adv-x="1389" d="M145.5 1333.5q-3.5 22.5 1.5 46.5q6 26 18 47.5t30.5 37.5t41 25.5t48.5 9.5h276q25 0 41.5 -8.5t27.5 -25t14.5 -38t3.5 -48.5l-7 -1050l452 1076q12 30 34.5 54t49.5 38.5t57 19t59 -1.5q30 -7 51.5 -23.5t33 -40t11.5 -52.5t-15 -59l-510 -1174q-19 -41 -51 -76 t-72 -58.5t-86 -36.5t-91.5 -13t-85.5 13t-69.5 37t-46.5 58.5t-17 77.5l-12 1091h-100q-26 0 -44.5 9t-29 25.5t-14 39z" />
<glyph unicode="&#xe03;" horiz-adv-x="1427" d="M128.5 254q-25.5 95 1.5 221l14 70q13 60 26.5 107t29.5 85t36 69t48.5 58.5t65 56.5t85.5 60q24 16 49 31.5t49.5 34t45 41.5t34.5 52q-28 -16 -66 -21.5t-77 -5.5q-21 0 -47.5 2.5t-53.5 10t-53.5 21.5t-48.5 37t-38.5 57.5t-25.5 81.5q-4 30 5 60.5t29 57t49.5 46.5 t63.5 27q73 18 115.5 -9.5t46.5 -97.5q1 -26 15.5 -41t38.5 -15q29 0 50.5 15t35.5 41q29 50 78 82.5t105 32.5q34 0 63 -14t46.5 -36.5t24 -54t1.5 -66.5l-38 -161q-10 -45 -30.5 -80.5t-54 -71.5t-81 -75t-107.5 -88q-44 -36 -75.5 -66.5t-54.5 -60t-37 -61.5t-24 -72 l-22 -94q-16 -71 -8 -125t33 -90.5t66.5 -56t97.5 -19.5q51 0 97.5 14.5t86 46t68.5 82.5q28 50 45 125l188 879q5 32 23 57.5t42.5 45t54.5 29.5t60 10q31 0 56 -10t41.5 -29.5t23 -45t-0.5 -57.5l-192 -902q-28 -132 -92.5 -227.5t-153 -158.5t-193 -94.5t-211.5 -31.5 q-110 0 -204 33t-157 98t-88.5 160z" />
<glyph unicode="&#xe04;" horiz-adv-x="1595" d="M3.5 66q-6.5 26 0.5 57l159 745q17 84 47 166.5t75 156t108 136.5t145.5 108.5t187.5 71.5t236 26t225 -26t157 -71.5t99 -108.5t50 -136.5t10 -156t-23 -166.5l-159 -745q-7 -31 -24 -57t-41.5 -44.5t-54.5 -28.5t-61 -10q-32 0 -57.5 10t-42 28.5t-23 44.5t0.5 57 l166 778q9 41 10 85t-6.5 84.5t-27 76.5t-54 62.5t-83.5 42t-116 15.5q-102 0 -177.5 -33.5t-129.5 -86.5t-85.5 -118t-44.5 -128l-42 -202q78 87 160.5 138t185.5 67q27 4 52.5 -0.5t44 -17t30 -32.5t11.5 -47q2 -28 -8 -54.5t-27.5 -47.5t-42.5 -37t-53 -22 q-106 -13 -184.5 -52t-134.5 -102.5t-93 -149.5t-59 -192l-5 -27q-8 -31 -25 -57t-41.5 -44.5t-53.5 -28.5t-61 -10q-31 0 -56 10t-41.5 28.5t-23 44.5z" />
<glyph unicode="&#xe05;" horiz-adv-x="1610" d="M3.5 66q-6.5 26 0.5 57l168 786q20 95 55.5 187t93.5 171t142.5 139.5t201.5 93.5q19 6 40 10t41 3.5t40.5 -10t35.5 -30.5l105 -142l156 142q24 21 47.5 30.5t45.5 10t43 -4.5t38 -9q70 -21 119.5 -55.5t81 -79.5t48 -98t20.5 -111t-2.5 -120t-19.5 -127l-167 -786 q-7 -31 -24 -57t-42 -44.5t-55 -28.5q-29 -10 -61 -10q-31 0 -57 10t-42 28.5t-22.5 44.5t-1.5 57l168 789q8 40 12.5 86t-1.5 89.5t-21.5 80t-48.5 55.5l-227 -195q-13 -11 -28 -16t-29.5 -5t-27 5t-21.5 16l-153 195q-40 -19 -70 -54.5t-52 -78.5t-37.5 -89t-23.5 -89 l-44 -213q78 87 160.5 138t185.5 67q27 4 52.5 -0.5t44 -17t30 -32.5t11.5 -47q2 -28 -8 -54.5t-27.5 -47.5t-42.5 -37t-53 -22q-106 -13 -184.5 -52t-134.5 -102.5t-93 -149.5t-59 -192l-5 -27q-8 -31 -25 -57t-41.5 -44.5t-53.5 -28.5t-61 -10q-31 0 -56 10t-41.5 28.5 t-23 44.5z" />
<glyph unicode="&#xe06;" horiz-adv-x="1591" d="M54 120l89 415q13 64 26.5 111.5t28 83.5t33 65.5t45 56t60.5 53.5t82 62q25 20 49.5 37t49 38.5t45 46t37.5 56.5q-30 -12 -62 -20t-67 -8q-30 0 -71 7t-81.5 29t-72.5 63t-42 107q-4 30 4.5 60.5t28.5 57t49.5 46.5t63.5 27q73 18 115 -9.5t48 -97.5q1 -26 15.5 -41 t37.5 -15q28 0 49.5 15t37.5 41q29 50 77.5 82.5t105.5 32.5q34 0 63 -14t46 -36.5t24 -54t0 -66.5l-34 -158q-13 -59 -40 -105t-66.5 -85t-86 -75t-95.5 -71q-44 -32 -74 -57.5t-50 -54.5t-34 -66q-16 -37 -28 -94q-14 -67 -0.5 -130t54.5 -111.5t106 -78.5t154 -30 q58 0 111 18.5t95 52.5t71.5 83t42.5 109l187 878q6 31 24 57.5t42 45t54 29.5t62 11q31 0 57 -11t42.5 -29.5t22 -45t-0.5 -57.5l-181 -853q-26 -123 -74 -226t-125 -175.5t-188.5 -113.5t-264.5 -41q-142 0 -240 47q-98 46 -155 146l-9 -40q-5 -30 -22.5 -55.5t-41 -43.5 t-52.5 -28t-59 -10t-55 10t-41 28t-21.5 43t-0.5 56z" />
<glyph unicode="&#xe07;" horiz-adv-x="1181" d="M92 742q-5 29 3 57t26.5 51.5t44.5 42.5t57 28q30 11 58.5 10.5t51.5 -10.5t39 -30t20 -50l88 -564q5 -30 22 -43.5t43 -13.5q40 0 66.5 21.5t32.5 51.5l207 974h-119q-24 0 -42 9.5t-29.5 25t-14.5 36.5q-2 23 3 46q6 25 17.5 45.5t29.5 36t39 25t46 9.5h312 q24 0 42 -9.5t28.5 -25t14 -37t-2.5 -44.5l-221 -1044q-22 -100 -67 -171.5t-107 -117t-137 -67t-157 -21.5q-80 0 -137 20.5t-94.5 58.5t-58 90t-30.5 117z" />
<glyph unicode="&#xe08;" horiz-adv-x="1448" d="M146 737.5q-3 21.5 3 47.5q5 26 17.5 47.5t30 37t40 25t48.5 9.5h274q26 0 40 -8t23 -22.5t13 -33t7 -41.5l62 -484q51 80 107 170t106 178.5t87.5 171.5t53.5 150q35 146 -26.5 219.5t-214.5 73.5q-106 0 -181 -42t-128 -133q-20 -31 -49.5 -49.5t-61 -27t-63 -5 t-54.5 18.5q-25 15 -39.5 37.5t-18 49.5t5.5 56.5t31 57.5q106 138 267.5 213.5t372.5 75.5q71 0 139.5 -10t130.5 -34.5t111.5 -63t79.5 -96.5t37 -137t-16 -182q-12 -59 -38 -125.5t-61.5 -138t-79.5 -147t-92 -152t-98 -154.5q-51 -76 -101 -150q-23 -36 -53.5 -65 t-67 -50t-76.5 -31.5t-83 -10.5q-88 0 -144 40q-58 40 -69 119l-75 524h-110q-26 0 -43.5 9.5t-29 25t-14.5 37z" />
<glyph unicode="&#xe09;" horiz-adv-x="1580" d="M69.5 309q-3.5 107 24.5 236l36 170q6 31 24 57t42 44.5t53.5 29.5t60.5 11q32 0 57 -11t41.5 -29.5t23 -44.5t-1.5 -57l-42 -199q-13 -61 -4 -112t37.5 -87.5t76.5 -55.5t114 -19q106 0 191 33.5t149.5 93t107.5 140t63 176.5l47 223q13 64 10 128t-34 115.5t-94.5 83.5 t-170.5 32q-77 0 -138 -15.5t-106.5 -41t-78.5 -59t-56 -67.5q-19 -29 -45.5 -49t-56.5 -30t-60.5 -8.5t-56.5 15.5q-26 13 -41 36t-19 50t3 57t27 59q46 69 111.5 127t151 100.5t190.5 67t231 24.5q133 0 229.5 -24.5t161.5 -69.5t102 -106.5t51.5 -134.5t9.5 -154.5 t-24 -165.5l-160 -758q-6 -31 -23 -56t-41.5 -44t-53.5 -29t-60.5 -10t-56 10t-40 29t-22 44t-0.5 56l10 49q-102 -106 -226.5 -156t-277.5 -50q-158 0 -254 43t-142.5 119.5t-50 183.5z" />
<glyph unicode="&#xe0a;" horiz-adv-x="1412" d="M83 475l26 123q13 57 24 100t25.5 76t31.5 60t39.5 53.5t51 53.5t64.5 61q27 28 49 50.5t39 43.5t30 42.5t22 44.5q15 44 -3.5 73.5t-62.5 29.5q-31 0 -62 -5t-72 -18q-49 -12 -83.5 9t-38.5 64q-1 21 5 42.5t20 40t33 33t42 22.5q40 13 78 22.5t70 15t58 8.5t42 3 q84 0 149 -20t103.5 -61.5t46.5 -103t-19 -145.5q-15 -42 -37 -78.5t-54 -75.5t-75.5 -87t-101.5 -110q-30 -33 -47.5 -59.5t-28.5 -52t-18 -52t-16 -60.5l-21 -97q-16 -71 -5 -125t39.5 -90.5t73.5 -56t102 -19.5q54 0 103.5 14.5t90.5 46t71.5 82t46.5 125.5l21 100 q15 68 12 113t-21.5 72.5t-51.5 40.5t-79 17q-21 3 -37.5 13t-27.5 25t-14.5 35t0.5 41q5 22 16.5 42t27 35t35.5 25.5t40 13.5q59 10 104.5 36t81.5 66.5t63 97.5t47 129q12 33 34 58t49 40.5t58 22t59 1.5q30 -6 53 -20.5t34.5 -36.5t12.5 -51q-1 -30 -12 -64 q-23 -62 -53 -120.5t-70 -108.5t-91 -90.5t-115 -68.5q50 -15 81.5 -41t50 -57.5t25 -65.5t6.5 -70t-6 -69t-11 -61l-26 -123q-29 -132 -96 -227.5t-158 -158.5t-197.5 -94.5t-213.5 -31.5q-110 0 -206 33t-161.5 98t-93.5 160t-1 221z" />
<glyph unicode="&#xe0b;" horiz-adv-x="1502" d="M174 475q19 88 36 159.5t46 132.5t74 114.5t118 110.5q15 13 35 31t41.5 40t41.5 46t32 48q-72 -44 -156 -44q-30 0 -72.5 7.5t-81.5 30.5t-70.5 64t-43.5 108q-2 30 6.5 60.5t29 58t49 46.5t63.5 26q73 16 115 -12t46 -95q2 -26 20.5 -41.5t41.5 -15.5q26 0 45 15.5 t33 41.5q28 50 78.5 81.5t106.5 31.5q34 0 62.5 -12t46 -33.5t24 -53.5t-2.5 -71q-14 -66 -30 -117.5t-33.5 -93t-40 -75.5t-49 -64t-58 -59.5t-68.5 -62.5q-41 -36 -70.5 -79.5t-48.5 -90.5t-31.5 -96t-20.5 -91q-16 -71 -6 -125t38.5 -90.5t73 -56t98.5 -19.5t103.5 14.5 t91 46t72.5 82t48 125.5l20 100q13 64 10 107.5t-21 72.5t-51 44t-77 19q-21 3 -38.5 13t-27.5 25t-14 35t0 41q4 22 15.5 42t28 35t36 25.5t40.5 13.5q59 10 104 36t81.5 66.5t63 97.5t47.5 129q12 33 33 58t48.5 40.5t58 22t60.5 1t52.5 -20t34 -36.5t12 -51.5 t-10.5 -63.5q-23 -62 -53 -120.5t-71 -108.5t-91.5 -90.5t-115.5 -68.5q50 -15 82.5 -41t51 -57.5t25.5 -65.5t7 -70t-5 -69t-11 -61l-25 -123q-29 -132 -96 -227.5t-159.5 -158.5t-199.5 -94.5t-215 -31.5q-110 0 -205.5 33t-161.5 98t-94 160t-1 221z" />
<glyph unicode="&#xe0c;" horiz-adv-x="2368" d="M28.5 75q-4.5 22 1.5 48l144 686q9 40 9.5 81.5t-16.5 79.5q-15 31 -27.5 50.5t-16 36.5t4.5 37t31 56q50 74 119 144t159.5 123t201 84.5t243.5 31.5q126 0 218.5 -24.5t156.5 -67t103 -103t55 -130.5t14 -148.5t-19 -158.5l-52 -242q-20 -91 -14 -170t36.5 -136 t86.5 -90t137 -33q49 0 90.5 14.5t75 46t58.5 82t42 125.5l186 878q6 31 24.5 57.5t43 46t54.5 29.5t61 10q32 0 57 -10t41.5 -29.5t23 -46t0.5 -57.5l-182 -853q-28 -133 -74 -237t-116.5 -175.5t-171 -109.5t-235.5 -38q-63 0 -116 15t-95.5 41.5t-74.5 62t-53 78.5 l-10 -40q-6 -30 -23 -55.5t-41 -43.5t-52.5 -28t-59.5 -10q-30 0 -54.5 10t-41 28t-21.5 43t1 56l172 810q12 61 8 122.5t-36.5 111.5t-94.5 81t-162 33q-80 2 -147.5 -16.5t-118 -49.5t-85.5 -68t-52 -74q23 -19 37 -47t20 -62t3.5 -73.5t-10.5 -82.5l-119 -560h64 q26 0 45.5 -9.5t30 -26.5t14 -39.5t-0.5 -46.5q-6 -26 -18.5 -48t-31.5 -39t-41.5 -26.5t-48.5 -9.5h-243q-26 0 -46 9.5t-33.5 26.5t-18 39z" />
<glyph unicode="&#xe0d;" horiz-adv-x="2368" d="M28.5 75q-4.5 22 1.5 48l144 686q9 40 9.5 81.5t-16.5 79.5q-15 31 -27.5 50.5t-16 36.5t4.5 37t31 56q50 74 119 144t159.5 123t201 84.5t243.5 31.5q126 0 218.5 -24.5t156.5 -67t103 -103t55 -130.5t14 -148.5t-19 -158.5l-60 -286q-16 -77 -13 -129.5t23 -84.5 t55.5 -46.5t84.5 -14.5q80 0 150 34.5t126 94t95 140t59 175.5l126 592q6 31 24.5 57.5t43 46t54.5 29.5t61 10q32 0 57 -10t41.5 -29.5t23 -46t0.5 -57.5l-227 -1064q-23 -109 -51 -190.5t-59 -143.5t-63 -106t-65 -76l4 2q-60 -67 -127 -113.5t-139 -75.5t-147.5 -42 t-150.5 -13q-83 0 -156 16.5t-132.5 51.5t-102.5 87q-43 51 -61 122q-9 32 -4.5 59.5t18.5 51.5t37 41.5t52 30.5q28 13 56.5 14t52.5 -8t41 -27.5t24 -43.5q12 -38 32.5 -65.5t49 -46.5t65 -29t78.5 -10q98 0 172 34.5t124.5 88t82 121t44.5 131.5l20 94 q-40 -40 -89.5 -76.5t-102.5 -64t-111.5 -44t-116.5 -16.5q-138 0 -222 38.5t-123.5 112t-40.5 181.5t29 247l55 263q13 64 9.5 128t-34.5 114.5t-93 82t-162 34.5q-81 1 -148 -17.5t-118.5 -49t-86.5 -70.5t-54 -79q48 -40 58 -111t-9 -161l-113 -534h64q26 0 45.5 -9.5 t30 -26.5t14 -39.5t-0.5 -46.5q-6 -26 -18.5 -48t-31.5 -39t-41.5 -26.5t-48.5 -9.5h-243q-26 0 -46 9.5t-33.5 26.5t-18 39z" />
<glyph unicode="&#xe0e;" horiz-adv-x="1643" d="M-89 75q-3 22 2 48t18 47.5t31.5 38.5t41.5 26.5t49 9.5h64l122 567q8 40 7.5 80t-16.5 78q-16 31 -28 50.5t-15.5 36.5t4.5 37t31 56q50 74 120.5 144t163.5 123t209.5 84.5t258.5 31.5q131 0 230 -23.5t167 -67t108.5 -102.5t59 -129t16.5 -148q-2 -79 -19 -159 l-266 -1253q-9 -39 -31 -72.5t-53 -58.5t-68 -40t-76 -15q-41 0 -72.5 16.5t-51.5 45.5q-17 25 -44 48t-66.5 39.5t-93 26.5t-122.5 10q-44 0 -88.5 -12t-89 -33.5t-88 -50t-86.5 -63.5q-20 -15 -43.5 -21.5t-45 -4.5t-39.5 12t-29 27q-11 19 -12.5 41t5.5 44t21.5 43 t32.5 37q56 51 121 93.5t133 72.5t134.5 45.5t125.5 15.5q70 0 125.5 -8t98.5 -20.5t74 -29.5q33 -16 56 -33l239 1124q13 62 7 124.5t-41.5 111t-104 79.5t-180.5 33q-91 2 -164 -19.5t-127.5 -53.5t-89.5 -69q-35 -35 -49 -66q38 -42 52.5 -111.5t-2.5 -149.5l-146 -686 q-6 -26 -19.5 -48t-34.5 -39t-45 -26.5t-48 -9.5h-244q-25 0 -44.5 9.5t-31 26.5t-14.5 39z" />
<glyph unicode="&#xe0f;" horiz-adv-x="1643" d="M-93 -431q1 22 13 48q31 71 76 124t96.5 86.5t106 50t104.5 16.5q89 0 149.5 -36.5t92.5 -102.5q31 32 66 55.5t72.5 40t71.5 24.5t66 8q67 0 110 -19.5t69 -50.5l237 1117q13 62 7 124.5t-41.5 111t-104 79.5t-180.5 33q-91 2 -164 -19.5t-127.5 -53.5t-89.5 -69 q-35 -35 -49 -66q38 -42 52.5 -111.5t-2.5 -149.5l-146 -686q-6 -26 -19.5 -48t-34.5 -39t-45 -26.5t-48 -9.5h-244q-25 0 -44.5 9.5t-31 26.5t-14.5 39t2 48t18 47.5t31.5 38.5t41.5 26.5t49 9.5h64l122 567q8 40 7.5 80t-16.5 78q-16 31 -28 50.5t-15.5 36.5t4.5 37t31 56 q50 74 120.5 144t163.5 123t209.5 84.5t258.5 31.5q131 0 230 -23.5t167 -67t108.5 -102.5t59 -129t16.5 -148q-2 -79 -19 -159l-269 -1266q-7 -36 -28 -67t-49.5 -55t-62.5 -37.5t-70 -13.5q-52 0 -87 26t-46 69q-6 20 -15.5 37.5t-23 32t-32 22.5t-44.5 8q-25 0 -46.5 -8 t-41 -22.5t-36 -32t-27.5 -37.5q-13 -20 -31 -37.5t-38.5 -30.5t-44 -20t-48.5 -7q-48 0 -79.5 27.5t-38.5 69.5q-3 19 -10.5 37t-19 32t-28.5 23q-20 9 -45 9q-23 0 -43 -9t-36.5 -23t-30 -33.5t-23.5 -40.5q-12 -25 -31 -44t-42 -31.5t-47.5 -16t-47.5 3.5q-23 6 -38.5 21 t-22.5 35t-6 44z" />
<glyph unicode="&#xe10;" horiz-adv-x="1441" d="M-85 -447.5q1 21.5 11 44.5q33 76 77 122t92 70.5t94.5 32.5t83.5 6q53 -2 95 -23t62 -55q13 15 31.5 29.5t39 25.5t43 17t44.5 6q43 0 73 -20.5t43 -52.5q5 31 23.5 58t44.5 46t56.5 30.5t63.5 11.5q32 0 58.5 -10t44 -27.5t24.5 -42.5q5 -25 -1 -56l-36 -170 q-5 -30 -22.5 -55t-41.5 -43t-54 -28.5t-62 -10.5q-50 0 -86 27q-35 29 -42 69q-5 30 -22 45.5t-46 15.5q-34 0 -62 -25t-46 -63q-16 -30 -45.5 -49.5t-63.5 -19.5t-56.5 20t-23.5 52q1 40 -16 62.5t-48 22.5q-32 0 -57 -20.5t-44 -53.5q-11 -23 -29 -40t-40 -28 t-45.5 -14.5t-46.5 3.5q-23 6 -39 19t-23 31.5t-6 40zM146 737.5q-3 21.5 3 47.5q5 26 17.5 47.5t30 37t40 25t48.5 9.5h274q26 0 40 -8t23 -22.5t13 -33t7 -41.5l62 -484q51 80 107 170t106 178.5t87.5 171.5t53.5 150q35 146 -26.5 219.5t-214.5 73.5q-106 0 -182 -41.5 t-127 -133.5q-18 -32 -47 -51.5t-61 -26.5t-64.5 -3.5t-55.5 18.5q-25 15 -39.5 37.5t-17.5 49t5.5 56.5t30.5 58q106 143 267.5 217.5t372.5 74.5q65 0 128 -8t118 -28q46 9 80.5 38t52.5 65q19 30 47.5 48.5t59.5 26t61.5 4t55.5 -21.5q24 -15 37.5 -39.5t15.5 -53 t-7 -58.5t-32 -59q-29 -36 -69 -63t-90 -44q34 -59 42 -140.5t-18 -192.5q-12 -59 -38 -125.5t-61.5 -138t-79.5 -147t-92 -152t-98 -154.5q-51 -76 -101 -150q-23 -36 -53.5 -65t-67 -50t-76.5 -31.5t-83 -10.5q-88 0 -144 40q-58 40 -69 119l-75 524h-110q-26 0 -43.5 9.5 t-29 25t-14.5 37z" />
<glyph unicode="&#xe11;" horiz-adv-x="1591" d="M55 66q-6 26 1 57l76 365q11 55 22.5 99t23.5 78t28.5 63.5t41.5 59.5t59.5 63t82.5 76q58 48 98.5 82.5t68.5 60t44.5 45.5t24.5 42q-34 -22 -74 -33t-82 -11q-30 0 -72 7.5t-81.5 30.5t-71.5 64t-42 108q-3 30 5.5 60.5t29.5 58t49.5 46.5t62.5 26q73 16 115.5 -12 t46.5 -95q1 -26 20 -41.5t41 -15.5q26 0 45.5 15.5t33.5 41.5q27 50 78 81.5t107 31.5q62 0 99.5 -36.5t34.5 -99.5q76 46 139.5 75.5t115 47t91 24t67.5 6.5q75 0 115.5 -23.5t57 -66.5t12 -103.5t-19.5 -135.5l-231 -1085q-7 -31 -24.5 -57t-42 -44.5t-54.5 -28.5t-62 -10 q-31 0 -56 10t-41.5 28.5t-23.5 44.5t0 57l210 990q6 28 10 52.5t4 41.5t-5 26.5t-17 9.5q-56 0 -192 -93t-352 -293q-37 -36 -67 -63.5t-52 -51.5t-38.5 -47t-30.5 -48.5t-23 -57t-19 -73.5l-83 -393q-7 -31 -24.5 -57t-41.5 -44.5t-54 -28.5t-62 -10q-31 0 -57 10 t-42.5 28.5t-22.5 44.5z" />
<glyph unicode="&#xe12;" horiz-adv-x="2431" d="M9 77.5q-8 31.5 0 68.5l163 763q20 95 53.5 187t88.5 171t137 139.5t200 93.5q18 6 39.5 10t41.5 3.5t40 -10t36 -30.5l106 -139l154 139q25 21 48.5 30.5t45.5 10t43 -4.5t38 -9q70 -21 118 -55.5t78.5 -79.5t45 -98t16.5 -111t-5 -120t-22 -127l-53 -250 q-20 -91 -14 -170t36.5 -136t86.5 -90t137 -33q49 0 90.5 14.5t75 46t58.5 82t41 125.5l187 878q6 31 24 57.5t43 45t55 29.5t60 11q31 0 57 -11t42.5 -29.5t23 -45t-1.5 -57.5l-180 -853q-28 -133 -74 -237t-116.5 -175.5t-171 -109.5t-237.5 -38q-63 0 -115 15t-94.5 41.5 t-74.5 62t-55 78.5l-8 -40q-6 -30 -23 -55.5t-41 -43.5t-53 -28t-59 -10t-54.5 10t-41 28t-22 43t-0.5 56l179 835q9 39 14 79.5t2.5 78t-17.5 67.5t-49 47l-229 -185q-13 -11 -28 -16t-29 -4.5t-27.5 5.5t-20.5 15l-155 188q-34 -17 -60.5 -48.5t-46 -69.5t-33 -79 t-20.5 -78l-119 -553l293 276h-38q-25 0 -43.5 8.5t-30.5 24t-16.5 37t0.5 44.5q5 25 18 46t32.5 36t41.5 24.5t46 9.5h272q27 0 49.5 -10t36.5 -28t20 -41.5t-2 -50.5q-5 -26 -17.5 -50t-30.5 -43l-691 -651q-31 -27 -68.5 -42t-77.5 -15q-38 0 -69 12t-51 34.5t-28 54z " />
<glyph unicode="&#xe13;" horiz-adv-x="2368" d="M28.5 75q-4.5 22 1.5 48l144 686q9 40 9.5 81.5t-16.5 79.5q-15 31 -27.5 50.5t-16 36.5t4.5 37t31 56q50 74 119 144t159.5 123t201 84.5t243.5 31.5q126 0 218.5 -24.5t156.5 -67t103 -103t55 -130.5t14 -148.5t-19 -158.5l-86 -403q-16 -75 -11.5 -125.5t24.5 -82 t56 -45.5q34 -15 83 -15q80 0 150 33t125 90t94.5 135t57.5 171l153 717q6 31 24.5 57.5t43 45t54.5 29.5t61 11q32 0 57 -11t41.5 -29.5t23 -45t0.5 -57.5l-267 -1254q-6 -30 -23.5 -56t-41.5 -44.5t-53.5 -28.5t-61 -10t-55.5 10t-40 28.5t-22.5 44.5t1.5 56l8 38 q-41 -43 -88.5 -78.5t-100.5 -62t-110.5 -41.5t-119.5 -15q-137 0 -221.5 38t-125 109.5t-41.5 175.5t28 237l86 407q12 61 8 122.5t-36.5 111.5t-94.5 81t-162 33q-80 2 -147.5 -16.5t-118 -48t-85.5 -68t-52 -75.5q23 -19 37 -47t20 -62t3.5 -73.5t-10.5 -82.5l-119 -560 h64q26 0 45.5 -9.5t30 -26.5t14 -39.5t-0.5 -46.5q-6 -26 -18.5 -48t-31.5 -39t-41.5 -26.5t-48.5 -9.5h-243q-26 0 -46 9.5t-33.5 26.5t-18 39z" />
<glyph unicode="&#xe14;" horiz-adv-x="1610" d="M9 77.5q-8 31.5 0 68.5l160 752q17 80 46.5 158t73.5 149t106.5 131t146 104t189.5 68.5t239 24.5q130 0 225 -24.5t160 -68.5t102 -104t53 -131t12.5 -149t-20.5 -158l-165 -775q-7 -31 -24 -57t-42 -44.5t-55 -28.5q-29 -10 -61 -10q-31 0 -57 10t-42 28.5t-22.5 44.5 t-1.5 57l172 804q9 41 11 83t-5 81t-27 73t-55 59t-87.5 40t-125.5 15q-74 0 -132.5 -15t-105 -40t-80.5 -59t-58 -73t-39 -81q-17 -43 -25 -83l-112 -525l302 276h-37q-25 0 -43.5 8.5t-30.5 24t-17 37t1 44.5q5 25 18 46t31.5 36t41.5 24.5t46 9.5h272q27 0 49 -10 t36.5 -28t20 -41.5t-0.5 -50.5q-5 -26 -18 -50t-32 -43l-699 -651q-30 -27 -68 -42t-78 -15q-38 0 -69 12t-51 34.5t-28 54z" />
<glyph unicode="&#xe15;" horiz-adv-x="1621" d="M9 77.5q-8 31.5 0 68.5l163 763q20 95 57 187t96.5 171t144.5 139.5t202 93.5q19 6 39.5 10t41.5 3t40 -10t36 -30l106 -135l155 135q24 21 47.5 30.5t45.5 10t43 -4.5t38 -9q70 -21 119.5 -55.5t82.5 -79.5t49.5 -98t21.5 -111t-1.5 -120t-21.5 -127l-167 -786 q-7 -31 -23.5 -57t-41.5 -44.5t-54.5 -28.5t-60.5 -10q-32 0 -57 10t-41.5 28.5t-22 44.5t0.5 57l173 812q8 37 9 81t-7 85.5t-25 76.5t-46 53l-224 -183q-13 -10 -28 -15t-30 -5.5t-28 5t-22 15.5l-154 188q-42 -18 -73 -52t-53.5 -75.5t-37.5 -87.5t-23 -86l-115 -533 l306 276h-38q-25 0 -43.5 8.5t-30.5 24t-17 37t1 44.5q5 25 18 46t31.5 36t41.5 24.5t47 9.5h271q27 0 49.5 -10t37 -28t19.5 -41.5t-1 -50.5q-5 -26 -17.5 -50t-30.5 -43l-704 -651q-30 -27 -68 -42t-78 -15q-38 0 -69 12t-51 34.5t-28 54z" />
<glyph unicode="&#xe16;" horiz-adv-x="1551" d="M28.5 75q-4.5 22 1.5 48l146 689q8 40 8 80t-17 78q-15 31 -27.5 50.5t-16 36.5t4.5 37t31 56q50 74 116.5 144t156 123t203.5 84.5t262 31.5q133 0 229.5 -23.5t163 -67t105 -102.5t55.5 -129t14 -148q-3 -79 -20 -159l-166 -781q-7 -31 -24 -57t-41.5 -44.5 t-54.5 -28.5q-28 -10 -60 -10q-31 0 -56 10t-41.5 28.5t-23 44.5t0.5 57l172 807q13 62 8 124.5t-38 111t-100.5 79.5t-177.5 33q-93 2 -164.5 -20t-123 -54.5t-83.5 -69t-46 -64.5q23 -19 37 -47t20 -61.5t4 -72.5q-3 -40 -11 -80l-119 -564h64q26 0 45.5 -9.5t30 -26.5 t14 -39.5t-0.5 -46.5q-6 -26 -18.5 -48t-31.5 -39t-41.5 -26.5t-48.5 -9.5h-243q-26 0 -46 9.5t-33.5 26.5t-18 39z" />
<glyph unicode="&#xe17;" horiz-adv-x="1580" d="M4 66q-7 26 0 57l271 1271q5 30 22.5 56t41.5 44.5t52.5 28.5t60.5 10q30 0 55 -10t41.5 -28.5t22 -44.5t0.5 -56l-16 -76q103 106 228 162.5t279 56.5q159 0 255 -42t141.5 -119.5t50 -184.5t-24.5 -236l-177 -832q-7 -31 -23.5 -57t-41.5 -44.5t-54.5 -28.5t-60.5 -10 q-32 0 -57 10t-41.5 28.5t-22.5 44.5t1 57l183 862q13 62 4 112t-38 86.5t-77 56.5t-112 20q-106 0 -192 -33.5t-150 -93t-107 -141t-62 -175.5l-147 -694q-7 -31 -25 -57t-42.5 -44.5t-54.5 -28.5t-61 -10q-32 0 -57 10t-41.5 28.5t-23.5 44.5z" />
<glyph unicode="&#xe18;" horiz-adv-x="1500" d="M61 289q-8 69 9 151l42 191q5 31 23 57t42.5 45t53.5 29t61 10q31 0 56 -10t41.5 -29t22.5 -45t0 -57l-42 -191q-12 -60 8 -101.5t58.5 -67t91.5 -37t107 -11.5q33 0 70 3.5t74.5 13t72.5 26t64 40.5t51 57q21 35 30 77q11 50 4.5 84.5t-42 64t-108.5 58t-197 67.5 q-68 21 -131 42.5t-115.5 48t-95 58t-67.5 71.5t-33 90t8 114q17 69 53 124.5t86 99.5t111.5 76t128 52t135.5 30q70 10 135 10q112 0 205 -18.5t163 -58t113.5 -101t52.5 -148.5q1 -23 -3 -47q-7 -32 -25 -59.5t-43.5 -48.5t-55.5 -33t-62 -12q-51 0 -85 30.5t-38 79.5 q-3 44 -21.5 76.5t-52 52.5t-81 29t-104.5 9q-56 0 -108.5 -7t-94 -24t-70 -43t-36.5 -62q-5 -25 11.5 -49t47 -43t69 -35t78.5 -28.5t74.5 -22t57.5 -15.5q81 -22 151.5 -46.5t125.5 -53t95 -64.5t62 -85t24 -114q2 -63 -15 -149q-17 -84 -55.5 -152t-92 -120t-119.5 -89.5 t-139.5 -61.5t-153.5 -35.5t-161 -11.5t-156 12t-137.5 35.5t-111 61.5t-78.5 90.5t-39 119.5z" />
<glyph unicode="&#xe19;" horiz-adv-x="1580" d="M71 383q5 77 23 163l176 833q6 31 24 56.5t42 44.5t54 29t62 10q31 0 55.5 -10t41.5 -29t23 -44.5t-1 -56.5l-183 -863q-13 -61 -6 -111t34 -86.5t76 -56.5t120 -20q106 0 191 33.5t149.5 93t107.5 141t64 175.5l146 694q6 31 24.5 56.5t42.5 44.5t54 29t62 10 q31 0 56 -10t41.5 -29t23 -44.5t0.5 -56.5l-270 -1272q-7 -31 -23.5 -56t-40.5 -43.5t-53.5 -28.5t-59.5 -10q-32 0 -56 10t-40.5 28.5t-23 43.5t0.5 56l16 76q-103 -106 -229 -162.5t-279 -56.5q-106 0 -183 19.5t-130 55t-83.5 87t-42 116t-6.5 141.5z" />
<glyph unicode="&#xe1a;" horiz-adv-x="1580" d="M89 467q5 82 24 166l157 746q6 31 24 56.5t42 44.5t54 29t62 10q31 0 55.5 -10t41.5 -29t23 -44.5t-1 -56.5l-165 -776q-8 -42 -10.5 -86t5.5 -85.5t26.5 -78t52 -62t83 -41t116.5 -15.5q102 0 176.5 33.5t125 86.5t81.5 119.5t43 128.5l165 776q6 31 24.5 56.5 t42.5 44.5t54 29t62 10q31 0 56 -10t41.5 -29t23 -44.5t0.5 -56.5l-160 -753q-17 -84 -47 -165.5t-75 -155t-106 -135t-143 -107.5t-186.5 -71t-233.5 -25q-130 0 -224 26t-156.5 72.5t-97.5 109t-48 136.5t-8 156z" />
<glyph unicode="&#xe1b;" horiz-adv-x="1580" d="M89 467q5 82 24 166l157 746q6 31 24 56.5t42 44.5t54 29t62 10q31 0 55.5 -10t41.5 -29t23 -44.5t-1 -56.5l-165 -776q-8 -42 -10.5 -86t5.5 -85.5t26.5 -78t52 -62t83 -41t116.5 -15.5q102 0 176.5 33.5t125 86.5t81.5 119.5t43 128.5l305 1430q6 32 23.5 57.5t42 44.5 t54.5 29.5t62 10.5q31 0 57 -10.5t42 -29.5t22 -44.5t0 -57.5l-299 -1407q-17 -84 -47 -165.5t-75 -155t-106 -135t-143 -107.5t-186.5 -71t-233.5 -25q-130 0 -224 26t-156.5 72.5t-97.5 109t-48 136.5t-8 156z" />
<glyph unicode="&#xe1c;" horiz-adv-x="1694" d="M53 222q-10 85 16 203l201 954q6 25 20.5 46.5t34.5 38.5t44 26.5t50 9.5h280q26 0 44.5 -9.5t30 -26.5t15 -39t-2.5 -46q-5 -26 -18 -48.5t-31.5 -39.5t-41.5 -26t-49 -9h-101l-166 -784q-14 -67 -16.5 -114.5t7.5 -76.5t31.5 -43.5t53.5 -14.5q48 0 79 25t51.5 68.5 t35 102.5t28.5 126l26 116q6 31 23.5 57t41.5 44.5t54 29t61 10.5q32 0 56 -10.5t41.5 -29t23 -44.5t-0.5 -57l-25 -116q-15 -67 -23.5 -126t-2.5 -102.5t28.5 -68.5t72.5 -25q30 0 54.5 14.5t46 43.5t38.5 76.5t31 114.5l192 905q6 32 24 57.5t42 45t53.5 29.5t60.5 10 q32 0 57 -10t41.5 -29.5t22 -45t-0.5 -57.5l-203 -952q-25 -118 -69.5 -203t-106.5 -140.5t-138 -83.5t-163 -28q-109 0 -183.5 45t-108.5 128q-60 -89 -148 -131t-204 -42q-88 0 -155.5 28t-106 83.5t-48.5 140.5z" />
<glyph unicode="&#xe1d;" horiz-adv-x="1694" d="M53 222q-10 85 16 203l201 954q6 25 20.5 46.5t34.5 38.5t44 26.5t50 9.5h280q26 0 44.5 -9.5t30 -26.5t15 -39t-2.5 -46q-5 -26 -18 -48.5t-31.5 -39.5t-41.5 -26t-49 -9h-101l-166 -784q-14 -67 -16.5 -114.5t7.5 -76.5t31.5 -43.5t53.5 -14.5q48 0 79 25t51.5 68.5 t35 102.5t28.5 126l26 116q6 31 23.5 57t41.5 44.5t54 29t61 10.5q32 0 56 -10.5t41.5 -29t23 -44.5t-0.5 -57l-25 -116q-15 -67 -23.5 -126t-2.5 -102.5t28.5 -68.5t72.5 -25q30 0 54.5 14.5t46 43.5t38.5 76.5t31 114.5l332 1561q6 32 23 57.5t42 44.5t54.5 29.5 t60.5 10.5q32 0 57 -10.5t41.5 -29.5t22 -44.5t0.5 -57.5l-344 -1608q-25 -118 -69.5 -203t-106.5 -140.5t-138 -83.5t-163 -28q-109 0 -183.5 45t-108.5 128q-60 -89 -148 -131t-204 -42q-88 0 -155.5 28t-106 83.5t-48.5 140.5z" />
<glyph unicode="&#xe1e;" horiz-adv-x="1987" d="M209 1330q-2 31 10.5 62t34 56.5t50.5 43t64 22.5q32 6 62 2t53 -19.5t37 -40.5q13 -23 13 -57l-7 -974l402 942q13 32 37.5 60.5t54.5 48.5t65 31.5t70 11.5q38 0 68 -12.5t51.5 -34t32.5 -50.5t11 -62l9 -925l399 964q13 32 36.5 57t52 40.5t61 20.5t63.5 -3 q30 -5 52 -22.5t33 -43t9.5 -56.5t-15.5 -62l-554 -1187q-15 -34 -39.5 -63.5t-55.5 -51t-66.5 -33.5t-72.5 -12q-36 0 -65.5 11.5t-50.5 31.5t-34 48t-13 60l-13 931l-396 -922q-16 -34 -40.5 -64t-55.5 -51.5t-67 -33t-73 -11.5q-36 0 -65.5 11.5t-50.5 31.5t-34 48 t-13 60z" />
<glyph unicode="&#xe1f;" horiz-adv-x="1987" d="M209 1330q-2 31 10.5 62t34 56.5t50.5 43t64 22.5q32 6 62 2t53 -19.5t37 -40.5q13 -23 13 -57l-7 -974l402 942q13 32 37.5 60.5t54.5 48.5t65 31.5t70 11.5q38 0 68 -12.5t51.5 -34t32.5 -50.5t11 -62l9 -925l651 1618q13 33 36.5 58t52.5 40t60.5 20t63.5 0 q30 -6 52 -24t33 -43.5t10 -55.5t-15 -63l-807 -1842q-15 -34 -39.5 -63.5t-55.5 -51t-66.5 -33.5t-72.5 -12q-36 0 -65.5 11.5t-50.5 31.5t-34 48t-13 60l-13 931l-396 -922q-16 -34 -40.5 -64t-55.5 -51.5t-67 -33t-73 -11.5q-36 0 -65.5 11.5t-50.5 31.5t-34 48t-13 60z " />
<glyph unicode="&#xe20;" horiz-adv-x="1643" d="M-89 75q-3 22 2 48t18 47.5t31.5 38.5t41.5 26.5t49 9.5h64l122 567q8 40 7.5 80t-17.5 78q-16 31 -28 50.5t-15 36.5t4 37t30 56q50 74 121 144t164 123t209.5 84.5t259.5 31.5q133 0 231 -23.5t166 -67t108 -102.5t58.5 -129t16.5 -148q-1 -79 -18 -159l-166 -781 q-7 -31 -25 -57t-42.5 -44.5t-54.5 -28.5t-61 -10q-32 0 -57.5 10t-42 28.5t-23 44.5t0.5 57l172 807q13 62 7 124.5t-41.5 111t-104 79.5t-180.5 33q-91 2 -164 -19.5t-127.5 -53.5t-89.5 -69q-35 -35 -49 -66q38 -42 52.5 -111.5t-2.5 -149.5l-146 -686q-6 -26 -19.5 -48 t-34.5 -39t-45 -26.5t-48 -9.5h-244q-25 0 -44.5 9.5t-31 26.5t-14.5 39z" />
<glyph unicode="&#xe21;" horiz-adv-x="1580" d="M0 51.5q-6 25.5 1 57.5l269 1270q6 31 24.5 56.5t43 44.5t54.5 29t61 10q32 0 57 -10t42 -29t23 -44.5t0 -56.5l-147 -694q-20 -94 -12.5 -175.5t47 -141t111 -93t177.5 -33.5q70 0 127 20t100 56.5t71 86.5q26 50 41 111l184 863q6 31 23 56.5t42 44.5t54.5 29t60.5 10 q32 0 57 -10t41.5 -29t22 -44.5t-0.5 -56.5l-177 -833q-27 -128 -75.5 -235.5t-128 -184.5t-193 -119.5t-272.5 -42.5q-155 0 -256.5 56.5t-158.5 162.5l-16 -74q-5 -32 -23 -57.5t-41.5 -44t-53.5 -28.5t-60 -10q-32 0 -56 10t-40.5 28.5t-22.5 44z" />
<glyph unicode="&#xe22;" horiz-adv-x="1540" d="M45 313.5q-11 71.5 8 158.5q11 57 30 108.5t47.5 94.5t68.5 78t94 59q-46 30 -70 68.5t-32.5 81t-6.5 85.5q5 44 13 84q16 73 47 129.5t71.5 97.5t90 68t100 43.5t101.5 23.5t95 7h126q27 0 47 -9.5t31.5 -27t16 -40.5t-1.5 -50t-19.5 -50t-33 -41t-43 -27t-50.5 -9h-63 q-20 0 -52 -4t-63.5 -16.5t-57.5 -39t-36 -73.5q-11 -52 -2.5 -85t31.5 -52t57 -27t75 -8h47q25 0 44.5 -10t31.5 -27t16 -40t-1 -50q-5 -26 -19 -49t-33 -40t-42.5 -27t-51.5 -10h-45q-45 0 -83.5 -8.5t-69 -31t-53 -62.5t-36.5 -103q-14 -67 3 -116.5t57 -82t98 -48.5 t124 -16q73 0 138.5 18.5t119 61t93.5 111t62 167.5l169 801q5 31 23 56.5t43 44.5t54.5 29t60.5 10q32 0 57 -10t41.5 -29t21.5 -44q5 -26 -1 -57l-180 -851q-20 -92 -58.5 -170t-94.5 -140t-124.5 -110t-146 -79.5t-161.5 -48.5t-172 -17q-81 0 -158.5 13.5t-144 41.5 t-119 69.5t-85.5 98t-44 128z" />
<glyph unicode="&#xe23;" horiz-adv-x="1331" d="M3 349q-2 19 4 43q6 31 22.5 58.5t39.5 47.5t51.5 31.5t59.5 11.5q55 0 85.5 -34t37.5 -82q6 -43 31 -77.5t58.5 -58t73 -36.5t77.5 -13q52 0 102.5 7.5t93 26t72.5 50.5t41 84q12 48 -4 86t-49 68t-80.5 51.5t-102.5 35.5q-54 15 -112 32t-109.5 40.5t-95 55.5 t-71.5 76.5t-37 104t8 137.5q17 85 54 150t88 114.5t111.5 82t126.5 52.5t132.5 29t130.5 7q90 -1 169.5 -22t140.5 -59.5t99.5 -95.5t48.5 -132q4 -23 -2 -50q-7 -31 -23.5 -57.5t-39 -46.5t-51.5 -31t-60 -11q-26 0 -46 10t-35 25t-25 34.5t-16 39.5q-8 27 -27.5 50.5 t-46.5 41t-63 28t-79 10.5q-62 0 -110 -13t-81 -35.5t-51.5 -52t-25.5 -62.5q-7 -31 10 -59t50.5 -51.5t80.5 -43.5t102 -36q118 -34 206 -75t142.5 -94.5t74 -123t-0.5 -159.5q-32 -142 -101.5 -237t-161.5 -150t-198.5 -78t-212.5 -23q-99 0 -188 21.5t-159 67.5 t-113 117.5t-46 171.5z" />
<glyph unicode="&#xe24;" horiz-adv-x="1551" d="M28.5 75q-4.5 22 1.5 48l146 689q8 40 8 80t-17 78q-15 31 -27.5 50.5t-16 36.5t4.5 37t31 56q50 74 116.5 144t156 123t203.5 84.5t262 31.5q133 0 229.5 -23.5t163 -67t105 -102.5t55.5 -129t14 -148q-3 -79 -20 -159l-270 -1267q-7 -32 -24 -57.5t-41.5 -45t-54 -29.5 t-60.5 -10q-32 0 -57 10t-41.5 29.5t-22.5 45t1 57.5l276 1293q13 62 8 124.5t-38 111t-100.5 79.5t-177.5 33q-93 2 -164.5 -20t-123 -54.5t-83.5 -69t-46 -64.5q23 -19 37 -47t20 -61.5t4 -72.5q-3 -40 -11 -80l-119 -564h64q26 0 45.5 -9.5t30 -26.5t14 -39.5t-0.5 -46.5 q-6 -26 -18.5 -48t-31.5 -39t-41.5 -26.5t-48.5 -9.5h-243q-26 0 -46 9.5t-33.5 26.5t-18 39z" />
<glyph unicode="&#xe25;" horiz-adv-x="1544" d="M20 198q-24 82 0 200q24 114 80.5 197.5t134 142.5t170.5 95t191.5 57.5t197 29t187.5 7.5h48h38.5t35.5 -1.5t38 -1.5l29 134q15 73 -3.5 116.5t-57 66.5t-91.5 30q-51 7 -106 7q-60 0 -115 -10t-101.5 -32t-84.5 -58.5t-65 -89.5q-15 -31 -39 -54.5t-52.5 -38t-60 -19 t-59.5 4.5q-29 9 -49 27.5t-29.5 43.5t-7 55t17.5 60q53 101 130.5 170.5t170.5 112.5t199.5 61.5t216.5 18.5q70 0 138 -8.5t129.5 -28.5t110.5 -53t80.5 -83t41.5 -118q9 -66 -10 -155l-203 -960q-7 -34 -25 -60.5t-41.5 -45t-53.5 -28.5t-61 -10q-32 0 -56 10t-41.5 28.5 t-23 45t1.5 60.5l120 568q-41 3 -82.5 3t-86.5 -1q-54 -2 -116 -8.5t-123.5 -19t-120.5 -33.5t-106.5 -51t-80.5 -71.5t-45 -94.5q-13 -60 3 -98.5t50.5 -60.5t82 -31.5t97.5 -9.5q12 0 24 0.5t25 2.5q24 1 45 -6t36 -21.5t23.5 -34.5t7.5 -44q-3 -24 -14.5 -46.5t-29.5 -40 t-40 -30t-47 -16.5q-37 -7 -70.5 -10.5t-70.5 -3.5q-106 0 -196 23.5t-151 75t-85 133.5z" />
<glyph unicode="&#xe26;" horiz-adv-x="1643" d="M-89 75q-3 22 2 48t18 47.5t31.5 38.5t41.5 26.5t49 9.5h64l122 567q8 40 7.5 80t-17.5 78q-16 31 -28 50.5t-15 36.5t4 37t30 56q50 74 121 144t164 123t209.5 84.5t259.5 31.5q133 0 231 -23.5t166 -67t108 -102.5t58.5 -129t16.5 -148q-1 -79 -18 -159l-270 -1267 q-8 -32 -25 -57.5t-42 -45t-55 -29.5q-29 -10 -60 -10q-32 0 -57.5 10t-42 29.5t-23 45t-0.5 57.5l276 1293q13 62 7 124.5t-41.5 111t-104 79.5t-180.5 33q-91 2 -164 -19.5t-127.5 -53.5t-89.5 -69q-35 -35 -49 -66q38 -42 52.5 -111.5t-2.5 -149.5l-146 -686 q-6 -26 -19.5 -48t-34.5 -39t-45 -26.5t-48 -9.5h-244q-25 0 -44.5 9.5t-31 26.5t-14.5 39z" />
<glyph unicode="&#xe27;" horiz-adv-x="1405" d="M41 375q-1 30 9.5 59t31 54t48 43t59 26.5t60 3.5t51 -19t35 -38t14.5 -54q0 -60 16.5 -103.5t44.5 -72t68 -41.5t88 -13q75 0 141.5 31.5t122 97.5t99 166t72.5 236q30 137 28.5 238t-29.5 166.5t-80.5 98t-127.5 32.5q-97 0 -180 -56q-83 -55 -134 -175 q-15 -30 -38.5 -53.5t-51.5 -37.5t-58 -19q-30 -7 -58 2q-29 8 -49 26.5t-29.5 43.5t-8 54.5t16.5 59.5q45 93 111.5 168t149 128t179.5 81.5t205 28.5q161 0 268.5 -56.5t164 -160t63.5 -248t-30 -321.5q-37 -178 -106.5 -322t-169.5 -247t-231 -159t-293 -56 q-107 0 -192 29.5t-145 82.5t-94.5 128t-40.5 168z" />
<glyph unicode="&#xe28;" horiz-adv-x="1595" d="M3.5 66q-6.5 26 0.5 57l159 745q17 84 47 166.5t75 156t108 136.5t145.5 108.5t187.5 71.5t236 26q85 0 153.5 -11.5t125.5 -31.5q42 3 73.5 26t52.5 56q17 30 42 52.5t54.5 36.5t60 16t58.5 -8q27 -12 45.5 -32t26.5 -47t3.5 -57t-21.5 -62q-30 -51 -81.5 -89.5 t-108.5 -60.5q27 -45 40.5 -98t16.5 -112t-3.5 -119.5t-19.5 -123.5l-159 -745q-7 -31 -24 -57t-41.5 -44.5t-54.5 -28.5t-61 -10q-32 0 -57.5 10t-42 28.5t-23 44.5t0.5 57l166 778q9 41 10 85t-6.5 84.5t-27 76.5t-54 62.5t-83.5 42t-116 15.5q-102 0 -177.5 -33.5 t-129.5 -86.5t-85.5 -118t-44.5 -128l-42 -202q78 87 160.5 138t185.5 67q27 4 52.5 -0.5t44 -17t30 -32.5t11.5 -47q2 -28 -8 -54.5t-27.5 -47.5t-42.5 -37t-53 -22q-106 -13 -184.5 -52t-134.5 -102.5t-93 -149.5t-59 -192l-5 -27q-8 -31 -25 -57t-41.5 -44.5t-53.5 -28.5 t-61 -10q-31 0 -56 10t-41.5 28.5t-23 44.5z" />
<glyph unicode="&#xe29;" horiz-adv-x="1580" d="M89 467q5 82 24 166l157 746q6 31 24 56.5t42 44.5t54 29t62 10q31 0 55.5 -10t41.5 -29t23 -44.5t-1 -56.5l-165 -776q-8 -42 -10.5 -86t5.5 -85.5t26.5 -78t52 -62t83 -41t116.5 -15.5q102 0 176.5 33.5t125 86.5t81.5 119.5t43 128.5l22 96h-303q-30 0 -54 9.5 t-39.5 28t-21 43t-0.5 52.5l25 118q5 30 22.5 54t40 42t50.5 28t58 10t54.5 -10t39.5 -28t21.5 -42t-0.5 -54l-2 -9h159l93 438q6 31 24.5 56.5t42.5 44.5t54 29t62 10q31 0 56 -10t41.5 -29t23 -44.5t0.5 -56.5l-93 -438h46q26 0 44 -9.5t29.5 -26t15 -38.5t-2.5 -48 q-6 -25 -18.5 -46.5t-30.5 -38t-41 -26t-47 -9.5h-46l-16 -73q-17 -84 -47 -165.5t-75 -155t-106 -135t-143 -107.5t-186.5 -71t-233.5 -25q-130 0 -224 26t-156.5 72.5t-97.5 109t-48 136.5t-8 156z" />
<glyph unicode="&#xe2a;" horiz-adv-x="1544" d="M20 198q-24 82 0 200q24 114 80.5 197.5t134 142.5t170.5 95t191.5 57.5t197 29t187.5 7.5h48h38.5t35.5 -1.5t38 -1.5l29 134q15 73 -3.5 116.5t-57 66.5t-91.5 30q-51 7 -106 7q-60 0 -114 -10t-101.5 -32t-85.5 -58.5t-65 -89.5q-15 -31 -39 -54.5t-52.5 -38t-60 -19 t-59.5 4.5q-29 9 -49 27.5t-29.5 42.5t-7 54t17.5 62q52 101 128.5 170.5t170 112.5t201 61.5t217.5 18.5q70 0 139.5 -8.5t132.5 -30.5q35 6 63 28.5t48 52.5q17 30 42 52.5t54.5 36.5t60 16t58.5 -8q27 -12 45.5 -32t26.5 -47t3.5 -57t-21.5 -62q-29 -48 -76 -84.5 t-101 -59.5q22 -47 27 -107q4 -59 -12 -136l-203 -960q-7 -34 -25 -60.5t-41.5 -45t-53.5 -28.5t-61 -10q-32 0 -56 10t-41.5 28.5t-23 45t1.5 60.5l120 568q-41 3 -82.5 3t-86.5 -1q-54 -2 -116 -8.5t-123.5 -19t-120.5 -33.5t-106.5 -51t-80.5 -71.5t-45 -94.5 q-13 -60 3 -98.5t50.5 -60.5t82 -31.5t97.5 -9.5q12 0 24 0.5t25 2.5q24 1 45 -6t36 -21.5t23.5 -34.5t7.5 -44q-3 -24 -14.5 -46.5t-29.5 -40t-40 -30t-47 -16.5q-37 -7 -70.5 -10.5t-70.5 -3.5q-106 0 -196 23.5t-151 75t-85 133.5z" />
<glyph unicode="&#xe2b;" horiz-adv-x="1548" d="M3.5 67q-6.5 26 0.5 57l266 1252q6 30 24 57t42 45.5t54 29.5t62 11q31 0 55.5 -11t41.5 -29.5t23 -45t0 -57.5l-80 -376l892 497q29 16 57 20.5t53 -1.5t44 -21t29 -39q12 -26 10.5 -53t-13 -53t-31.5 -49t-49 -38l-174 -100q44 -40 70 -88t36 -103t5.5 -117.5 t-18.5 -129.5l-127 -601q-8 -31 -25.5 -57t-42 -45t-54 -29t-60.5 -10q-32 0 -57 10t-41 29t-22.5 45t0.5 57l133 627q8 41 11 80.5t-5.5 74t-28 60.5t-54.5 44l-610 -344l-114 -542q-7 -31 -25 -57t-42.5 -45t-53.5 -29t-61 -10q-31 0 -56 10t-41.5 29t-23 45z" />
<glyph unicode="&#xe2c;" horiz-adv-x="1987" d="M196 1331q0 32 12 62.5t34.5 55.5t51.5 43t64 24q32 6 63.5 1.5t55 -20.5t37.5 -40t12 -58l-46 -1000l377 744q15 31 39.5 59.5t54 48.5t62 31.5t68.5 11.5q37 0 65.5 -12t49.5 -33.5t33 -50t14 -63.5l71 -739q32 76 60.5 146.5t55.5 140t55.5 139t58.5 142.5 q23 56 34.5 93.5t20.5 70.5q13 62 -3.5 101t-76.5 52q-38 9 -56.5 40.5t-9.5 72.5q4 22 16 41t28.5 35t36.5 26t42 13q34 5 70 14.5t68.5 26.5t63 40.5t54.5 58.5q18 30 43 54t54 40.5t59.5 24.5t60.5 5q37 -4 60 -21t34 -42t9.5 -55.5t-14.5 -61.5q-16 -41 -46.5 -75.5 t-68 -61.5t-80.5 -47t-84 -32q31 -34 44 -77t11.5 -91.5t-16.5 -101.5t-39 -107l-392 -856q-16 -34 -41 -63.5t-57 -50.5t-68.5 -34t-74.5 -13t-68 11.5t-51.5 32t-34 48.5t-15.5 61l-73 725l-372 -724q-17 -34 -43 -62.5t-56.5 -48.5t-65.5 -31.5t-72 -11.5q-36 0 -67 11.5 t-53 32t-35 48.5t-13 61z" />
<glyph unicode="&#xe2d;" horiz-adv-x="1522" d="M57 535.5q4 97.5 26 202.5q6 24 19.5 45.5t33.5 38t43.5 26t47.5 9.5h467q24 0 42.5 -9.5t29 -26t14.5 -38.5t-2 -45q-6 -24 -18 -46.5t-30 -38t-40 -25.5t-46 -10h-275q-16 -89 -3.5 -162t50 -126t97.5 -81.5t138 -28.5q87 0 162.5 34.5t138.5 102.5t110.5 166t72.5 223 q55 259 -9.5 395.5t-254.5 136.5q-120 0 -216 -48.5t-155 -141.5q-15 -30 -39.5 -54t-53 -38.5t-59.5 -19t-59 4.5q-29 9 -49 28t-29 45t-5.5 56.5t21.5 59.5q53 86 123 153.5t158 115t192.5 73t226.5 25.5q125 0 219 -28t159 -78t103.5 -121.5t54.5 -159.5t10 -189 q-6 -103 -30 -215q-23 -104 -59.5 -202t-89.5 -184.5t-122 -158.5t-155.5 -124.5t-191 -81t-227.5 -28.5t-216 28t-157.5 79.5t-102.5 122t-53.5 156t-11.5 183z" />
<glyph unicode="&#xe2e;" horiz-adv-x="1522" d="M57 535q4 97 26 203q6 24 19.5 45.5t33.5 38t43.5 26t47.5 9.5h467q24 0 42.5 -9.5t29 -26t14.5 -38.5t-2 -45q-6 -24 -18 -46.5t-30 -38t-40 -25.5t-46 -10h-275q-16 -89 -3.5 -162t50 -126t97.5 -81.5t138 -28.5q87 0 162.5 34.5t138.5 102.5t110.5 166t72.5 223 q55 259 -9.5 395.5t-254.5 136.5q-120 0 -216 -48.5t-155 -141.5q-15 -30 -39.5 -54t-53 -38.5t-59.5 -19t-59 4.5q-29 9 -49 28t-29 45t-5.5 56.5t21.5 59.5q53 86 123 153.5t158 115t192.5 73t226.5 25.5q74 0 136 -10t115 -28q40 4 70 27.5t52 55.5q17 30 42 52t55 35.5 t60 15.5t57 -8q28 -11 46.5 -31t26 -47t3.5 -57q-3 -30 -20 -61q-28 -48 -76 -85.5t-103 -59.5q35 -55 55 -119t25.5 -139.5t-2.5 -159t-26 -172.5q-23 -104 -59.5 -202t-89.5 -184.5t-122 -158.5t-155.5 -124.5t-191 -81t-227.5 -28.5t-216 28t-157.5 79.5t-102.5 122 t-53.5 156t-11.5 182.5z" />
<glyph unicode="&#xe2f;" horiz-adv-x="1551" d="M169 869q-20 91 4 203q17 81 52 143.5t82.5 110.5t103 81.5t116.5 53.5t122 30q63 9 120 9h150q26 0 46 -9.5t31.5 -26.5t15 -40.5t-1.5 -49.5q-6 -26 -19 -48.5t-32 -40t-43 -27.5t-49 -10h-152q-99 0 -156 -44q-57 -43 -76 -134q-10 -45 -5 -88.5t31.5 -77t79.5 -55 t143 -21.5q192 0 308.5 71t149.5 221l54 257q6 32 24 57.5t42 45t53.5 29.5t60.5 10q32 0 57 -10t41.5 -29.5t22 -45t-0.5 -57.5l-266 -1254q-7 -31 -24 -57t-41.5 -44.5t-54.5 -28.5q-28 -10 -60 -10q-31 0 -56 10t-41.5 28.5t-23 44.5t0.5 57l122 576q-85 -60 -189 -90.5 t-222 -30.5q-154 0 -263 35t-173 100t-84 156z" />
<glyph unicode="&#xe30;" horiz-adv-x="903" d="M54.5 311.5q-5.5 24.5 1.5 53.5l24 118q6 29 22.5 53.5t39 41.5t50 26t55.5 9q29 0 52.5 -9t38.5 -26t21 -41.5t0 -53.5l-3 -14h286q24 0 42 -10t29 -25.5t14.5 -37t-2.5 -44.5q-6 -25 -18 -46t-30 -37t-39.5 -25t-45.5 -9h-426q-29 0 -51.5 9t-38.5 26t-21.5 41.5z M213 1055.5q-6 24.5 0 52.5l26 119q6 29 22 53t38.5 41t49.5 26.5t56 9.5q28 0 51.5 -9.5t39.5 -26.5t21.5 -41t-1.5 -53l-3 -14h286q25 0 42.5 -10t28.5 -26t14 -37q5 -22 0 -45q-6 -24 -18 -45.5t-30 -37t-40 -25t-47 -9.5h-424q-29 0 -52.5 9.5t-38.5 26.5t-21 41.5z" />
<glyph unicode="&#xe31;" d="M-710 1809q-6 24 1 53l27 127q6 29 21.5 53t38.5 41.5t50 26.5t56 9q28 0 52 -9t39.5 -26.5t21 -41.5t0.5 -53l-7 -27h639q24 0 42 -9.5t29.5 -24.5t14 -36.5t-1.5 -45.5q-6 -24 -18 -45t-30 -36.5t-40 -24t-45 -8.5h-779q-29 0 -52 9t-38 26.5t-21 41.5z" />
<glyph unicode="&#xe32;" horiz-adv-x="1259" d="M120.5 1122q3.5 31 19.5 62q46 87 114 151.5t148 108t167 65t173 21.5q116 0 209 -31.5t151.5 -96.5t78.5 -163.5t-7 -231.5l-189 -884q-7 -31 -23.5 -57t-41.5 -44.5t-54 -28.5t-61 -10q-31 0 -56 10t-41.5 28.5t-23 44.5t0.5 57l177 832q35 162 -11 237t-163 75 q-83 0 -150.5 -41.5t-109.5 -121.5q-16 -30 -40.5 -53.5t-54.5 -39.5t-60.5 -21t-60.5 2q-32 9 -53.5 28.5t-31.5 45t-6.5 56.5z" />
<glyph unicode="&#xe33;" horiz-adv-x="1259" d="M-347 1877q-12 52 1 111q13 58 46.5 110.5t80 91t103.5 61.5t116 23q57 0 104.5 -23t78 -61.5t42.5 -91t0 -110.5q-13 -59 -47 -111t-81.5 -91t-104 -61t-114.5 -22t-105.5 22t-77.5 61t-42 91zM-163 1948.5q4 -19.5 15 -33t28 -22t37 -8.5t41 8.5t38 22t29 33t16 39.5 q5 20 0.5 39t-15 33t-27 22.5t-38.5 8.5q-20 0 -40.5 -8.5t-37.5 -22.5t-30 -33t-16 -39q-4 -20 0 -39.5zM120.5 1122q3.5 31 19.5 62q46 87 114 151.5t148 108t167 65t173 21.5q116 0 209 -31.5t151.5 -96.5t78.5 -163.5t-7 -231.5l-189 -884q-7 -31 -23.5 -57t-41.5 -44.5 t-54 -28.5t-61 -10q-31 0 -56 10t-41.5 28.5t-23 44.5t0.5 57l177 832q35 162 -11 237t-163 75q-83 0 -150.5 -41.5t-109.5 -121.5q-16 -30 -40.5 -53.5t-54.5 -39.5t-60.5 -21t-60.5 2q-32 9 -53.5 28.5t-31.5 45t-6.5 56.5z" />
<glyph unicode="&#xe34;" d="M-1230 1800.5q-3 21.5 2 45.5q5 26 17.5 47.5t31 38t40.5 25.5t48 9h1115q26 0 44 -9t29.5 -25.5t14.5 -38.5q5 -21 0 -47q-6 -26 -19 -46.5t-31.5 -37t-40.5 -26t-48 -9.5h-1116q-25 0 -43 9.5t-29.5 26t-14.5 38z" />
<glyph unicode="&#xe35;" d="M-1230 1800.5q-3 21.5 2 45.5q5 26 17.5 47.5t31 38t40.5 25.5t48 9h924l20 96q5 30 21.5 54.5t40.5 42t51.5 27.5t57.5 10t54 -10t39 -27.5t21 -42.5t-1 -54l-43 -200q-5 -30 -21.5 -54.5t-39.5 -42.5t-51 -28t-58 -10h-1067q-25 0 -43 9.5t-29.5 26t-14.5 38z" />
<glyph unicode="&#xe36;" d="M-1230 1800.5q-3 21.5 2 45.5q5 26 17.5 47.5t31 38t40.5 25.5t48 9h715l6 25q11 54 42 102.5t73.5 84.5t95.5 56.5t108 20.5q54 0 97.5 -20.5t71.5 -56.5t39 -84q10 -49 -1 -103q-12 -56 -42.5 -103.5t-74 -83t-96 -56.5t-106.5 -21h-980q-25 0 -43 9.5t-29.5 26 t-14.5 38zM-202 1991q-4 -19 0.5 -35.5t14.5 -28.5t25.5 -19.5t34.5 -7.5q20 0 38.5 7.5t33.5 19.5t26 29q12 15 16 35t0.5 37.5t-14 30.5t-26.5 20t-34.5 7t-37.5 -7t-34 -20t-26.5 -30.5t-16.5 -37.5z" />
<glyph unicode="&#xe37;" d="M-1230 1800.5q-3 21.5 2 45.5q5 26 17.5 47.5t31 38t40.5 25.5t48 9h532l23 103q5 27 21 51t38 40t48.5 26t55.5 10q27 0 49 -10t37 -26t21 -40t0 -51l-21 -103h133l22 103q6 27 22 51t38 40t48.5 26t54.5 10t50 -10t37 -26t21 -40q7 -24 1 -51l-46 -214 q-5 -29 -21.5 -52.5t-38 -40t-48.5 -26t-55 -9.5h-1074q-25 0 -43 9.5t-29.5 26t-14.5 38z" />
<glyph unicode="&#xe38;" d="M-811.5 -333.5q-3.5 21.5 2.5 46.5q5 24 16.5 44.5t29 36.5t38.5 24.5t46 8.5h236q24 0 41 -8.5t28 -24.5t14 -36q5 -21 0 -45l-73 -339q-6 -30 -22.5 -54t-39.5 -41.5t-50 -27.5t-57 -10t-53 10t-38.5 27.5t-21.5 41.5t0 54l49 223h-62q-24 0 -41 9t-28 24t-14.5 36.5z " />
<glyph unicode="&#xe39;" d="M-1342 -333q-5 21 1 46q5 24 17.5 44.5t29.5 36.5t38.5 24.5t45.5 8.5h236q24 0 41.5 -8.5t28 -24.5t14 -36.5t-1.5 -44.5l-19 -91q-16 -71 7 -108t87 -37q61 0 101 37q41 37 55 108l19 92q6 30 22.5 53.5t39 41.5t50.5 27.5t57 9.5q30 0 52.5 -9.5t38.5 -27.5 t21.5 -41.5t0.5 -53.5l-20 -92q-18 -77 -53.5 -146t-94 -121.5t-143 -82.5t-196.5 -30q-105 0 -176 26t-110.5 72.5t-50 111.5t2.5 145h-57q-25 0 -42 9t-27.5 24t-14.5 37z" />
<glyph unicode="&#xe3a;" d="M-743 -408.5q-8 36.5 1 78.5q8 43 32.5 80t58 65.5t73.5 44.5t83 16q42 0 74.5 -16t54 -44.5t30.5 -65.5t-1 -80q-9 -42 -32.5 -78.5t-56.5 -63.5t-74 -43t-81 -16q-42 0 -76 16t-56 43t-30 63.5z" />
<glyph unicode="&#xe3e;" />
<glyph unicode="&#xe3f;" horiz-adv-x="1701" d="M44 94q-7 29 0 60l305 1439q7 31 25.5 60t44.5 49.5t57 32.5q33 12 65 12h454l37 178q8 33 30.5 58.5t57.5 25.5q33 0 45.5 -25.5t5.5 -58.5l-37 -178q80 0 153.5 -9t137.5 -30.5t114 -56.5t80.5 -87t38.5 -123t-12 -164q-10 -47 -35 -98t-63.5 -99.5t-92.5 -90.5 t-122 -71q70 -16 122 -56.5t84.5 -96.5t40.5 -125q9 -68 -6 -142q-20 -96 -73.5 -185.5t-142 -159t-213 -111.5t-286.5 -42h-95l-43 -197q-3 -16 -11 -30.5t-19.5 -26.5t-25.5 -19t-32 -7q-17 0 -28.5 7t-17.5 19t-8 27q-1 13 3 30l41 197h-454q-32 0 -58.5 12t-43.5 33 t-23 49zM382 260h297l106 496h-297zM543 1022h298l97 461h-297zM818 260h96q71 0 130.5 21t104.5 53t73.5 75t38.5 89q16 73 0.5 123t-56 80t-100.5 42.5t-133 12.5h-48zM981 1022q84 3 145.5 24t104 55t66.5 77t34 89q13 54 0 95t-46.5 67.5t-86.5 40t-120 13.5z" />
<glyph unicode="&#xe40;" horiz-adv-x="640" d="M33 66q-7 26 0 57l266 1254q6 32 24.5 57.5t42.5 45t54 29.5t62 10q31 0 56 -10t42.5 -29.5t23 -45t-0.5 -57.5l-266 -1254q-7 -31 -24.5 -57t-42 -44.5t-54.5 -28.5t-62 -10q-31 0 -56 10t-41.5 28.5t-23.5 44.5z" />
<glyph unicode="&#xe41;" horiz-adv-x="1145" d="M33 66q-7 26 0 57l266 1254q6 32 24.5 57.5t42.5 45t54 29.5t62 10q31 0 56 -10t42.5 -29.5t23 -45t-0.5 -57.5l-266 -1254q-7 -31 -24.5 -57t-42 -44.5t-54.5 -28.5t-62 -10q-31 0 -56 10t-41.5 28.5t-23.5 44.5zM538.5 66q-6.5 26 0.5 57l266 1254q6 32 24 57.5t43 45 t55 29.5t61 10q32 0 57 -10t41.5 -29.5t22.5 -45t1 -57.5l-268 -1254q-7 -31 -24 -57t-41.5 -44.5t-54.5 -28.5t-61 -10q-32 0 -57.5 10t-42 28.5t-23 44.5z" />
<glyph unicode="&#xe42;" horiz-adv-x="760" d="M80 75q-4 22 2 48l340 1604q17 79 -11 131t-84 74q-34 13 -49.5 46t-7.5 73q6 25 21 49t35.5 41t46.5 27t52 10h642q26 0 46 -9.5t32 -26t17 -38.5t-1 -46q-6 -26 -19.5 -47.5t-33.5 -38t-43.5 -26.5t-49.5 -10h-317q27 -41 32.5 -93.5t-6.5 -106.5l-316 -1491h65 q26 0 44.5 -9.5t30 -26.5t15 -39.5t-1.5 -46.5q-6 -26 -19 -48t-31.5 -39t-41.5 -26.5t-49 -9.5h-243q-25 0 -45 9.5t-34 26.5t-18 39z" />
<glyph unicode="&#xe43;" horiz-adv-x="760" d="M80 75q-4 22 2 48l274 1294q13 62 28 109.5t38.5 89t57 79.5t83.5 81q13 12 35.5 27.5t44.5 35t39 38.5t22 38q2 15 0 31.5t-11 30.5t-30 21.5t-54 7.5q-54 0 -96.5 -35.5t-70.5 -100.5q-12 -28 -32.5 -50t-46.5 -36.5t-54.5 -20.5t-53.5 2q-28 5 -47 21.5t-29 39 t-10 48.5t13 55q37 83 90.5 141.5t116.5 98t131.5 57.5t138.5 18q75 0 142 -17.5t113 -55t65 -97t2 -145.5q-10 -47 -32 -82t-52 -66t-66 -61t-73 -65q-24 -23 -40.5 -53t-28 -62.5t-19.5 -64t-14 -58.5l-248 -1172h65q26 0 44.5 -9.5t30 -26.5t15 -39.5t-1.5 -46.5 q-6 -26 -19 -48t-31.5 -39t-41.5 -26.5t-49 -9.5h-243q-25 0 -45 9.5t-34 26.5t-18 39z" />
<glyph unicode="&#xe44;" horiz-adv-x="760" d="M80 75q-4 22 2 48l341 1613q13 54 41 106.5t72 93.5h-319q-25 0 -44.5 10t-32.5 26.5t-18 38t1 47.5t20 47t34 37.5t44 26t49 9.5h642q26 0 47.5 -10t34.5 -27t18 -41q6 -24 0 -49q-8 -40 -38 -72.5t-70 -46.5q-66 -23 -115.5 -74.5t-66.5 -130.5l-314 -1482h65 q26 0 44.5 -9.5t30 -26.5t15 -39.5t-1.5 -46.5q-6 -26 -19 -48t-31.5 -39t-41.5 -26.5t-49 -9.5h-243q-25 0 -45 9.5t-34 26.5t-18 39z" />
<glyph unicode="&#xe45;" horiz-adv-x="1259" d="M120.5 1122q3.5 31 19.5 62q46 87 114 151.5t148 108t167 65t173 21.5q116 0 209 -31.5t151.5 -96.5t78.5 -163.5t-7 -231.5l-292 -1370q-7 -32 -24 -57.5t-41.5 -44t-53.5 -28.5t-61 -10q-31 0 -56 10t-41.5 28.5t-23 44t0.5 57.5l280 1318q35 162 -11 237t-163 75 q-83 0 -150.5 -41.5t-109.5 -121.5q-16 -30 -40.5 -53.5t-54.5 -39.5t-60.5 -21t-60.5 2q-32 9 -53.5 28.5t-31.5 45t-6.5 56.5z" />
<glyph unicode="&#xe46;" horiz-adv-x="1462" d="M129.5 743q-16.5 85 9.5 202q20 97 53.5 183t87 157t133 123.5t195.5 84.5q18 6 39 10t41.5 3.5t40 -9t35.5 -30.5l84 -111l124 111q25 22 48.5 31t45.5 10t42 -3.5t39 -10.5q70 -20 117 -53.5t75 -78t39 -97t11 -111.5t-9.5 -123t-23.5 -130l-269 -1264 q-7 -32 -24.5 -57.5t-42.5 -44t-54 -28.5t-61 -10q-31 0 -56 10t-42.5 28.5t-24.5 44t2 57.5l274 1293q9 41 17.5 88t9 89.5t-11 74t-42.5 41.5l-196 -168q-26 -23 -57.5 -23t-49.5 23l-126 163q-69 -38 -109.5 -109.5t-53.5 -160.5q-6 -33 -7.5 -66t8.5 -58t36 -38.5 t76 -7.5q30 3 51.5 -7t33 -28t15 -43t-3.5 -54q-12 -55 -53 -91q-40 -36 -97 -42q-98 -8 -175.5 14t-127 76.5t-66 139.5z" />
<glyph unicode="&#xe47;" d="M-1052 2007.5q0 35.5 7 67.5q18 89 66 154.5t112.5 108t141 62.5t153.5 20h648q23 0 40 -9t27.5 -24t13.5 -35t-1 -41q-10 -47 -44.5 -77t-81.5 -30h-623q-52 0 -85.5 -13t-54.5 -32.5t-31.5 -42t-13.5 -41.5q-3 -13 -2 -30t8 -33.5t22 -27.5t41 -11q28 0 52 16 q25 16 39 46q17 37 50 55.5t73 18.5q43 0 70 -17t27 -57q2 -29 17 -45.5t40.5 -16.5t45 14.5t29.5 40.5l-1 -2q8 22 24.5 37.5t37.5 26.5t42 15t43 3q24 -3 45 -13.5t33.5 -28.5t15.5 -42.5t-7 -55.5q-18 -56 -52 -97.5t-76 -68t-90 -39.5t-96 -13q-36 0 -66 10t-54.5 26 t-42.5 36t-31 40q-22 -23 -52 -42.5t-63 -35t-69 -25t-70 -9.5q-60 0 -103.5 16t-73.5 41.5t-48 58.5t-25 69.5t-7 72z" />
<glyph unicode="&#xe48;" d="M-60 2406.5q-6 24.5 0 53.5l47 223q6 28 22.5 51.5t39.5 41.5t50 27.5t55 9.5q29 0 52.5 -9.5t38.5 -27.5t21 -41.5t0 -51.5l-49 -223q-5 -29 -21 -53.5t-39 -41.5t-50 -26.5t-56 -9.5q-28 0 -51 9.5t-38.5 26.5t-21.5 41.5z" />
<glyph unicode="&#xe49;" d="M-453.5 2634q-4.5 20 0.5 43t18 43.5t31.5 35.5t41 24.5t45.5 9.5h180q23 0 41.5 -9.5t30 -24.5t16.5 -35q5 -21 -1 -44l-23 -112q60 2 111.5 14t93.5 33.5t74.5 51t50.5 63.5q16 24 37.5 42t46.5 27.5t51 10t48.5 -9.5t37 -28t19.5 -40.5t-1 -48.5t-21 -50 q-40 -60 -99 -112.5t-137.5 -91.5t-175.5 -61.5t-213 -22.5h-96q-23 0 -41.5 9.5t-30.5 24.5t-16.5 35t-0.5 43l25 111h-55q-23 0 -41.5 9.5t-30.5 24.5t-16.5 35z" />
<glyph unicode="&#xe4a;" d="M-529 2430q17 77 50.5 134t76.5 94.5t91.5 56t96.5 18.5t84 -23t60 -57q40 34 85.5 57t100.5 23q31 0 60.5 -9.5t53 -28.5t37 -46.5t13.5 -63.5q12 10 24 24t24 30.5t23 33.5t18 33q11 22 29 41t40 29.5t46.5 14t47.5 -0.5q27 -7 43.5 -21.5t23 -33.5t3 -41.5 t-15.5 -45.5q-28 -54 -67.5 -105.5t-86 -93t-96.5 -70t-100 -37.5h-96q-34 0 -52 20t-14 52q6 41 -1 69t-39 28q-24 0 -40.5 -14.5t-24.5 -38.5q-10 -30 -34.5 -50.5t-58.5 -20.5q-32 0 -52.5 17.5t-15.5 53.5q5 26 -6 39.5t-34 13.5q-28 0 -46 -20.5t-28 -60.5 q-13 -53 -51 -78t-83 -25q-52 0 -75 30t-14 73z" />
<glyph unicode="&#xe4b;" d="M-249 2595q-3 20 2 42q4 23 15.5 43t27 34t35.5 23t42 9h131l16 74q6 27 22.5 50.5t38 41t48.5 26.5t54 9t50 -9t38 -26.5t20.5 -41t0.5 -50.5l-17 -74h131q23 0 39.5 -9t27 -23t13 -34t-2.5 -43q-4 -23 -15.5 -42.5t-28 -33.5t-36.5 -22.5t-43 -8.5h-130l-17 -75 q-6 -28 -21.5 -51.5t-37.5 -40t-48.5 -26t-54.5 -9.5q-27 0 -50.5 9.5t-37.5 26t-20 40t0 51.5l16 75h-131q-22 0 -38.5 8.5t-26 22.5t-12.5 34z" />
<glyph unicode="&#xe4c;" d="M-281 2230.5q-4 24.5 2 51t23 53.5q67 113 185 183t275 87q55 6 85.5 -19t29.5 -71q-2 -23 -11 -45.5t-25.5 -40.5t-37 -30t-45.5 -15q-84 -10 -143 -47q-58 -38 -87 -103q-13 -28 -35 -45.5t-48.5 -27.5t-54.5 -11t-52 8q-27 10 -42 29t-19 43.5z" />
<glyph unicode="&#xe4d;" d="M-347 1877q-12 52 1 111q13 58 46.5 110.5t80 91t103.5 61.5t116 23q57 0 104.5 -23t78 -61.5t42.5 -91t0 -110.5q-13 -59 -47 -111t-81.5 -91t-104 -61t-114.5 -22t-105.5 22t-77.5 61t-42 91zM-163 1948.5q4 -19.5 15 -33t28 -22t37 -8.5t41 8.5t38 22t29 33t16 39.5 q5 20 0.5 39t-15 33t-27 22.5t-38.5 8.5q-20 0 -40.5 -8.5t-37.5 -22.5t-30 -33t-16 -39q-4 -20 0 -39.5z" />
<glyph unicode="&#xe4e;" d="M-447 1822q1 27 12 54q37 99 116 164t190 94q20 44 52.5 84t77.5 72t101.5 52t124.5 23q25 2 46.5 -4.5t37 -19.5t23.5 -31.5t8 -42.5q-2 -25 -12.5 -48t-27.5 -41.5t-39.5 -30t-46.5 -11.5q-33 0 -57.5 -11t-41.5 -30.5t-27.5 -45.5t-16.5 -54q-4 -22 -14 -34.5 t-22.5 -18.5t-26 -7.5t-24.5 -1.5q-73 0 -114 -29t-61 -88q-8 -27 -27.5 -48.5t-44 -34.5t-52 -17t-56.5 0q-27 4 -44 19t-26 37.5t-8 49.5z" />
<glyph unicode="&#xe4f;" horiz-adv-x="1856" d="M113 538q-7 100 16 208q23 109 73 210t120 188t158 159.5t187 123t206.5 78.5t216 28t203 -28t170.5 -78.5t133 -123t89 -159.5t39 -187q6 -102 -17 -211q-22 -108 -72.5 -208t-119.5 -188t-156.5 -160.5t-185.5 -123t-203.5 -78.5t-213.5 -28q-110 0 -205.5 28 t-173 78.5t-134.5 123t-90 160.5t-40 188zM347.5 533q22.5 -105 83.5 -184t156 -124t215 -45q77 0 154.5 20t148 58.5t134.5 91t114.5 116t86.5 136.5t53 153q17 79 12 151t-29.5 135t-65 114.5t-95.5 88.5t-123 57t-147 20q-80 0 -158 -20t-149.5 -57t-135 -88.5 t-113.5 -114.5t-85.5 -135t-53.5 -151q-25 -117 -2.5 -222zM503 592q-18 76 0 163q18 84 68 158.5t119 132t153 90t169 32.5t152 -32.5t110.5 -90t61 -132.5t0.5 -158q-19 -87 -68.5 -163t-116.5 -133t-148.5 -89.5t-165.5 -32.5q-88 0 -157 32.5t-114 89.5t-63 133z M695 664.5q9 -41.5 33 -72t62 -47.5t87 -17q45 0 88 17t79 47.5t61.5 72t35.5 90.5q10 46 1.5 85t-31.5 69.5t-58.5 47.5t-81.5 17q-49 0 -94 -17t-81.5 -47.5t-62 -69.5t-35.5 -85q-12 -49 -3 -90.5z" />
<glyph unicode="&#xe50;" horiz-adv-x="1628" d="M64 434q-5 98 20 221q35 162 110 287t185 210.5t251 129.5t307 44q164 0 286.5 -44t194.5 -129.5t94 -210.5t-12 -287q-40 -185 -122 -314t-196.5 -212t-251 -121t-282.5 -38q-97 0 -183.5 16.5t-158 52t-124.5 90t-83 131t-35 174.5zM375 472.5q13 -76.5 54 -133 t110.5 -88t162.5 -31.5q95 0 176.5 31.5t145.5 88t109 133t65 168.5q26 117 10.5 200t-60 135t-113 75.5t-151.5 23.5t-163 -23.5t-147.5 -75.5t-117.5 -134.5t-74 -200.5q-20 -92 -7 -168.5z" />
<glyph unicode="&#xe51;" horiz-adv-x="1617" d="M-42.5 198q1.5 28 13.5 56.5t35 51.5q23 24 50.5 40t56.5 20t55 -1.5t46 -25.5q73 -73 172.5 -99.5t218.5 -26.5q106 0 201.5 31t173.5 91.5t134 150t80 206.5q19 87 9.5 161t-49 126.5t-109.5 82t-173 29.5q-84 0 -157.5 -20t-130 -53.5t-94 -78t-47.5 -90.5 q-8 -37 0.5 -73.5t37 -64t80.5 -45t134 -15.5q31 3 52.5 -3.5t34 -20.5t16.5 -34t1 -41q-5 -44 -29 -70.5t-56 -41t-68.5 -18.5t-67.5 -4h-25q-104 0 -190.5 29t-144.5 83.5t-82 129.5t-4 168q18 90 60.5 162t102.5 128t132.5 96t153.5 65t166 37t170 12q98 0 187.5 -15 t162.5 -47t128 -82.5t87 -121t38.5 -162t-17.5 -205.5q-34 -162 -117 -295t-204.5 -228t-279.5 -146q-158 -52 -341 -52q-69 0 -142 3t-145 16t-142.5 39.5t-134.5 71.5q-21 16 -31 41t-8.5 53z" />
<glyph unicode="&#xe52;" horiz-adv-x="1847" d="M87 343q-27 115 2 255l103 480q15 70 8.5 109.5t-37.5 53.5q-19 9 -29.5 24.5t-14 36.5t0 44.5t13.5 46.5q13 27 33.5 47.5t46.5 34.5t54 19t56 2q55 -7 95 -38t62.5 -80.5t27.5 -116.5t-12 -148l-116 -542q-15 -71 6.5 -131.5t78.5 -105.5t152 -71t228 -26 q126 0 220.5 24.5t161 64.5t105 91.5t49.5 105.5l78 362q8 39 5 69t-15.5 51.5t-32.5 35.5t-49 20l-234 -176l-163 166q-20 -1 -41.5 -12t-40.5 -30t-34.5 -48.5t-22.5 -68.5l-17 -80q-9 -37 -14.5 -73.5t-3 -66.5t17.5 -49.5t50 -19.5h14q24 0 43.5 -9t32.5 -24t17 -36.5 t-1 -45.5q-6 -25 -19 -46.5t-33 -37t-43 -25t-47 -9.5h-40q-87 0 -143 21.5t-88 57.5t-45 82.5t-13.5 94.5t6.5 95t13 84l15 70q16 75 57 144t100 125t137 98t168 65q10 3 25 4.5t33 -1t35 -9.5t33 -23l77 -81l105 81q24 19 47.5 27t44.5 9.5t38.5 -1.5t30.5 -6 q79 -17 141 -54t101.5 -88t54.5 -115q15 -63 -1 -138l-74 -344q-21 -103 -64 -186t-103 -148t-134 -113t-157 -79t-173 -45t-181 -14h-146q-185 0 -318.5 43t-214.5 123.5t-108 193.5z" />
<glyph unicode="&#xe53;" horiz-adv-x="1657" d="M51.5 272.5q-5.5 73.5 3.5 156.5q11 83 28 164l20 99q30 137 81 242.5t123 179.5t163 121.5t199 70.5q13 2 31 4.5t38.5 -0.5t43 -12.5t40.5 -29.5l96 -100l146 100q33 23 62 32.5t54 11.5t45.5 -1.5t32.5 -6.5q98 -23 163 -69.5t100.5 -110.5t43 -143t-11.5 -164 l-147 -694q-7 -31 -24.5 -57t-41.5 -44.5t-53.5 -28.5t-60.5 -10q-32 0 -57 10t-40.5 28.5t-22 44.5t0.5 57l147 694q9 42 1.5 82.5t-26 71.5t-46.5 50.5t-60 20.5l-276 -190l-182 190q-32 -7 -69 -26t-73.5 -59t-68 -104t-51.5 -158l-20 -97q-8 -42 -17.5 -85t-14 -82 t-2 -73.5t14 -61t34.5 -40.5q22 -14 62 -14q16 0 42.5 0.5t60.5 3.5q30 3 51 -5.5t34.5 -26t18 -40t-1.5 -50.5q-6 -24 -19 -46t-31.5 -38.5t-41.5 -28.5q-21 -12 -47 -17q-128 -23 -217 -9t-143 53t-81.5 100t-33 134.5z" />
<glyph unicode="&#xe54;" horiz-adv-x="1657" d="M61 443.5q2 65.5 16 127.5l30 143q32 148 106 259t182 183t248.5 108t303.5 36h251q73 0 115.5 30t65.5 80q15 30 38.5 53t53 36.5t60.5 17.5q31 5 59 -4q30 -9 49.5 -29t27.5 -45.5t4 -56.5t-18 -61q-29 -55 -71.5 -106t-102.5 -89t-139.5 -61t-184.5 -23h-288 q-89 0 -165.5 -18.5t-134.5 -55t-97.5 -90.5t-53.5 -123l-36 -173q-15 -70 -7.5 -130t40.5 -104.5t94 -69.5t151 -25h18q-31 39 -47.5 94t-2.5 118q3 18 11.5 46t26.5 59.5t46 64.5t70 61t100 48t137 28q27 3 50 -4t40 -21.5t25.5 -36t7.5 -46.5q-2 -26 -14 -50.5 t-31.5 -43.5t-43.5 -33t-51 -18q-29 -6 -45.5 -16.5t-26.5 -21.5t-13 -22q-3 -10 -6 -19q-8 -37 1 -71t29.5 -60t47.5 -41t55 -15h306q26 0 46 -10t31.5 -27t15 -40.5t-1.5 -49.5q-6 -26 -19 -49t-32 -40t-43 -27t-49 -10h-725q-122 0 -209 25.5t-146.5 68.5t-93 100.5 t-48.5 120.5t-13 128.5z" />
<glyph unicode="&#xe55;" horiz-adv-x="1657" d="M61 443.5q2 65.5 16 127.5l30 143q26 118 78 212t126.5 164t170.5 116.5t210 69.5q-1 8 -0.5 23t3.5 27q11 54 43.5 103.5t77.5 86.5t100 58.5t111 21.5q61 0 109 -21.5t77.5 -58.5t40 -86.5t-0.5 -103.5q-2 -8 -3.5 -12t-2.5 -7t-3 -4q52 8 83 36t52 71q15 30 38.5 53 t53 36.5t60.5 17.5q31 5 59 -4q30 -9 49.5 -29t27.5 -45.5t4 -56.5t-18 -61q-29 -55 -71.5 -106t-102.5 -89t-139.5 -61t-184.5 -23h-288q-89 0 -165.5 -18.5t-134.5 -55t-97.5 -90.5t-53.5 -123l-36 -173q-15 -70 -7.5 -130t40.5 -104.5t94 -69.5t151 -25h18 q-31 39 -47.5 94t-2.5 118q3 18 11.5 46t26.5 59.5t46 64.5t70 61t100 48t137 28q27 3 50 -4t40 -21.5t25.5 -36t7.5 -46.5q-2 -26 -14 -50.5t-31.5 -43.5t-43.5 -33t-51 -18q-29 -6 -45.5 -16.5t-26.5 -21.5t-13 -22q-3 -10 -6 -19q-8 -37 1 -71t29.5 -60t47.5 -41t55 -15 h306q26 0 46 -10t31.5 -27t15 -40.5t-1.5 -49.5q-6 -26 -19 -49t-32 -40t-43 -27t-49 -10h-725q-122 0 -209 25.5t-146.5 68.5t-93 100.5t-48.5 120.5t-13 128.5zM882 1326q-8 -42 10.5 -69t57.5 -27q44 0 75.5 27t39.5 69q10 44 -10.5 69t-64.5 25q-39 0 -68.5 -25 t-39.5 -69z" />
<glyph unicode="&#xe56;" horiz-adv-x="1680" d="M174 428q20 94 67.5 163.5t116 113.5t157 65t191.5 21h36q24 0 43 -8.5t31 -24.5t17 -37q5 -23 -1 -46q-5 -24 -18 -45t-31.5 -36.5t-41.5 -24t-47 -8.5h-25q-51 0 -85.5 -11.5t-57.5 -31t-35 -45t-18 -55.5q-8 -38 8.5 -70.5t53 -57t91.5 -40t126 -15.5q79 -2 158.5 21 t146 69.5t115.5 115t68 160.5l18 87q20 97 11 168.5t-47 118.5t-101.5 69.5t-150.5 20.5q-118 -1 -243 -34t-267 -107q-15 -9 -36 -19t-43 -13t-43.5 8.5t-35.5 47.5l-108 256q-11 24 -9 51.5t14.5 53t32.5 48t47 38t55.5 19t53 -3t43 -21.5t28.5 -39l59 -137 q87 38 210.5 70.5t283.5 37.5q132 3 230 -18.5t165 -64.5t106.5 -102t56 -130t14.5 -150.5t-20 -160.5l-20 -92q-17 -84 -54 -163.5t-93 -150t-129.5 -128.5t-163 -99.5t-195.5 -62.5q-105 -19 -225 -16q-133 3 -237.5 35.5t-172 90t-94.5 138t-6 181.5z" />
<glyph unicode="&#xe57;" horiz-adv-x="1966" d="M54.5 272.5q-5.5 73.5 4.5 156.5t27 164l20 95q56 260 201.5 414t364.5 201q13 3 31 4t38.5 -2.5t41.5 -15t38 -32.5l63 -82l94 82q27 23 53 34.5t47.5 14t38.5 0.5t28 -3q113 -27 177.5 -83.5t92.5 -135.5t25 -177t-26 -208l-23 -101q-5 -30 -16 -70t-27.5 -84.5 t-38 -89.5t-48.5 -85q95 46 162 141t96 231l100 472q17 81 49 148t75 116.5t95 80.5t110 38q28 3 55.5 -2t48 -19t32.5 -34.5t15 -47.5q2 -23 -5.5 -46.5t-20 -44.5t-30.5 -37q-18 -15 -40 -24q-37 -14 -60 -54q-24 -40 -38 -109l-87 -412q-30 -137 -94 -253t-160.5 -204.5 t-226.5 -144.5q-130 -58 -292 -75q-30 -3 -59 4.5t-49 27.5q-23 20 -32.5 48t-7.5 57.5t17.5 60t40.5 58.5q39 42 64.5 83.5t42 84t27.5 86t21 90.5l23 110q15 79 16 137.5t-12 99.5t-37 66q-25 25 -53 33l-230 -193l-156 200q-30 -7 -66.5 -29.5t-72.5 -65.5t-66 -106 t-50 -149l-20 -94q-8 -42 -17 -85t-13 -82t-2.5 -73.5t13 -61t35.5 -40.5t63 -14q15 0 41 0.5t60 3.5q30 3 51.5 -5.5t35 -26t17.5 -40.5q5 -22 -1 -50q-5 -24 -18 -46t-32.5 -38.5t-41.5 -28.5t-48 -17q-129 -23 -216.5 -9t-143 53t-82.5 100t-32.5 134.5z" />
<glyph unicode="&#xe58;" horiz-adv-x="1653" d="M56 317q-10 78 8 162l50 235q29 135 94 244t163.5 184.5t229.5 116.5t294 41h339q73 0 114.5 30t65.5 80q16 30 39.5 53t53 36.5t60.5 17.5q30 5 59 -4q30 -9 49.5 -29t27 -45.5t4 -56.5t-17.5 -61q-29 -55 -72 -107.5t-103 -91.5t-140 -63q-81 -24 -184 -24h-376 q-88 0 -155 -23.5t-115.5 -63t-78.5 -89.5t-42 -104l-58 -276q-9 -41 -2 -80t24.5 -70.5t43 -52.5t54.5 -27l286 193l197 -193q33 1 64.5 12.5t58 36t47 65t33.5 100.5q6 26 9 54t-5 50t-29.5 38.5t-64.5 20.5q-47 5 -74 39q-26 33 -17 81q5 25 18 45.5t31.5 36.5t41.5 25 t50 11q92 5 154.5 -10.5t103.5 -45t61.5 -70t28 -86.5t3 -94.5t-14.5 -94.5q-20 -97 -55.5 -174t-88.5 -136.5t-123 -99t-160 -57.5q-20 -5 -50 -10t-62.5 -4t-64 9t-54.5 30l-105 102l-149 -100q-30 -20 -58 -28t-52.5 -9.5t-43.5 2t-33 8.5q-95 23 -161.5 69.5t-103.5 110 t-47 141.5z" />
<glyph unicode="&#xe59;" horiz-adv-x="1683" d="M51.5 272.5q-5.5 73.5 3.5 156.5q11 83 28 164l20 99q33 156 83 273.5t126 196.5t179.5 119t243.5 40h56.5t62 -3.5t62.5 -10t58 -19.5q20 -17 40.5 -37t37.5 -51l121 96q12 11 31 18q17 7 43 7h74q73 0 114 25t65 83q13 31 36.5 53t53 36t62.5 17.5t61 -3.5 q30 -9 48 -28.5t26 -45t4.5 -55t-19.5 -60.5q-30 -60 -70 -111t-98 -88t-138 -58t-189 -21q-11 0 -26 -7.5t-33 -20t-36 -27.5t-32 -29l219 -797q7 -25 2.5 -53t-19 -54t-37.5 -47q-25 -21 -54 -33q-28 -13 -56 -14.5t-52.5 7.5t-41.5 27.5t-24 43.5l-223 821 q-13 45 -29.5 78.5t-39.5 57t-52 35.5t-67 12q-41 0 -80.5 -17t-73.5 -59t-64 -112t-53 -178l-22 -101q-8 -42 -17.5 -85t-14 -82t-2 -73.5t14 -61t34.5 -40.5q22 -14 62 -14q16 0 42.5 0.5t60.5 3.5q30 3 51 -5.5t34.5 -26t18 -40t-1.5 -50.5q-6 -24 -19 -46t-31.5 -38.5 t-41.5 -28.5q-21 -12 -47 -17q-128 -23 -217 -9t-143 53t-81.5 100t-33 134.5z" />
<glyph unicode="&#xe5a;" horiz-adv-x="2060" d="M169 869q-20 91 4 203q17 81 52 143.5t82.5 110.5t103 81.5t116.5 53.5t122 30q63 9 120 9h150q26 0 46 -9.5t31.5 -26.5t15 -40.5t-1.5 -49.5q-6 -26 -19 -48.5t-32 -40t-43 -27.5t-49 -10h-152q-99 0 -156 -44q-57 -43 -76 -134q-10 -45 -5 -88.5t31.5 -77t79.5 -55 t143 -21.5q192 0 308.5 71t149.5 221l54 257q6 32 24 57.5t42 45t53.5 29.5t60.5 10q32 0 57 -10t41.5 -29.5t22 -45t-0.5 -57.5l-266 -1254q-7 -31 -24 -57t-41.5 -44.5t-54.5 -28.5q-28 -10 -60 -10q-31 0 -56 10t-41.5 28.5t-23 44.5t0.5 57l122 576q-85 -60 -189 -90.5 t-222 -30.5q-154 0 -263 35t-173 100t-84 156zM1486.5 66q-6.5 26 0.5 57l266 1254q6 32 24 57.5t42 45t54 29.5q29 10 60 10q32 0 57 -10t41.5 -29.5t23 -45t-1.5 -57.5l-265 -1254q-8 -31 -25 -57t-41.5 -44.5t-53.5 -28.5t-61 -10q-31 0 -56 10t-41.5 28.5t-23 44.5z" />
<glyph unicode="&#xe5b;" horiz-adv-x="3217" d="M132 589.5q-2 94.5 20 189.5q17 85 55 171.5t93 168t125.5 152t154.5 123.5t179.5 84t201.5 31q123 0 211 -35t143.5 -96t80 -142t21.5 -171q-1 -30 -12.5 -57t-31.5 -48.5t-46.5 -37t-55.5 -21.5q-30 -6 -56.5 0t-45 21t-29.5 38q-10 24 -10 52q-2 101 -52.5 152.5 t-147.5 58.5q-92 0 -170.5 -36.5t-141 -98t-106 -146t-64.5 -181.5q-20 -90 -4 -174.5t63.5 -149.5t124.5 -104.5t180 -39.5q96 0 179 29.5t153 81t128.5 123.5t105 158t82.5 183t62 199q5 31 23.5 59.5t43.5 50t56 33t62 11.5q73 0 108 -56q43 -71 75 -140q32 -70 56 -121 q23 24 48 53.5t53 61t56.5 63.5t57.5 62q14 14 32 22t34.5 8.5t30 -6.5t20.5 -21q30 -64 57 -129.5t46 -116.5l147 157h478q30 0 55 -11.5t40.5 -31.5t21.5 -46q6 -25 -1 -57q-6 -30 -24 -57t-41.5 -47t-53 -31.5t-59.5 -11.5h-384q-55 -51 -115 -126.5t-123 -160.5 q-11 -16 -24 -22.5t-25 -6.5t-21.5 8t-13.5 23q-26 88 -51 158.5t-51 130.5q-47 -53 -105.5 -133t-122.5 -186q-16 -21 -36 -31t-38.5 -9.5t-33 13t-17.5 36.5q-18 94 -39.5 169.5t-44.5 129.5q-40 -109 -97.5 -207.5t-129.5 -183t-157 -152.5t-179 -116t-194 -73 q-98 -26 -201 -26q-122 0 -218.5 31.5t-169.5 86.5t-121 129.5t-73 161t-27 181z" />
<glyph unicode="&#x2000;" horiz-adv-x="1482" />
<glyph unicode="&#x2001;" horiz-adv-x="2964" />
<glyph unicode="&#x2002;" horiz-adv-x="1482" />
<glyph unicode="&#x2003;" horiz-adv-x="2964" />
<glyph unicode="&#x2004;" horiz-adv-x="988" />
<glyph unicode="&#x2005;" horiz-adv-x="741" />
<glyph unicode="&#x2006;" horiz-adv-x="494" />
<glyph unicode="&#x2007;" horiz-adv-x="494" />
<glyph unicode="&#x2008;" horiz-adv-x="370" />
<glyph unicode="&#x2009;" horiz-adv-x="592" />
<glyph unicode="&#x200a;" horiz-adv-x="164" />
<glyph unicode="&#x200b;" />
<glyph unicode="&#x2010;" horiz-adv-x="1185" d="M86 671q11 54 57 86t112 32h690q66 0 98 -32t21 -86q-12 -55 -58 -86.5t-111 -31.5h-691q-65 0 -97.5 32.5t-20.5 85.5z" />
<glyph unicode="&#x2011;" horiz-adv-x="1185" d="M86 671q11 54 57 86t112 32h690q66 0 98 -32t21 -86q-12 -55 -58 -86.5t-111 -31.5h-691q-65 0 -97.5 32.5t-20.5 85.5z" />
<glyph unicode="&#x2012;" horiz-adv-x="1185" d="M86 671q11 54 57 86t112 32h690q66 0 98 -32t21 -86q-12 -55 -58 -86.5t-111 -31.5h-691q-65 0 -97.5 32.5t-20.5 85.5z" />
<glyph unicode="&#x2013;" horiz-adv-x="1255" d="M-3 698q6 27 21 50t38 39.5t52 25t62 8.5h943q67 0 100 -33t21 -90q-6 -27 -21.5 -50t-38.5 -39.5t-52 -25t-62 -8.5h-943q-67 0 -100 33q-31 34 -20 90z" />
<glyph unicode="&#x2014;" horiz-adv-x="2481" d="M-3 698q6 27 21 50t38 39.5t52 25t62 8.5h2167q67 0 100.5 -33t22.5 -90q-6 -27 -22 -50t-38.5 -39.5t-52.5 -25.5q-28 -8 -62 -8h-2168q-67 0 -100 33q-31 34 -20 90z" />
<glyph unicode="&#x2018;" horiz-adv-x="730" d="M277 1252.5q-2 51.5 10 111.5q12 55 29 102t41.5 88.5t55.5 79.5q33 39 70 76q22 20 51 42.5t62 41.5t67.5 32t62.5 13q38 0 52 -19.5t10 -44.5q-6 -29 -35 -47.5t-67 -41.5q-30 -17 -62 -38t-62 -51t-56 -71.5t-43 -98.5q23 14 44.5 20t44.5 6q40 0 68 -15t44.5 -39.5 t20 -57.5t-3.5 -67q-9 -40 -31 -73.5t-53.5 -60t-69.5 -41.5t-78 -15q-57 0 -94.5 21.5t-56.5 58.5t-21 88.5z" />
<glyph unicode="&#x2019;" horiz-adv-x="730" d="M243 1147q6 28 34.5 47.5t67.5 41.5q27 15 59 36t63 50t56.5 71.5t44.5 102.5q-23 -15 -44.5 -20.5t-45.5 -5.5q-40 0 -67.5 15t-44 39.5t-20.5 56.5t3 66q9 40 31.5 74.5t54 60.5t69.5 41.5t77 15.5q57 0 94 -21.5t57 -59.5t22 -89.5t-10 -111.5q-12 -54 -29 -100.5 t-41.5 -88t-56 -80t-69.5 -75.5q-22 -20 -51 -43t-62 -41.5t-67 -31.5q-36 -13 -65 -13q-37 0 -51.5 18.5t-8.5 44.5z" />
<glyph unicode="&#x201c;" horiz-adv-x="1162" d="M252 1252.5q-3 51.5 10 111.5q11 55 29 102t41.5 88.5t55 80t70.5 75.5q21 20 50.5 42.5t62 41.5t67 32t64.5 13q37 0 51.5 -19.5t8.5 -44.5q-6 -29 -34 -48q-30 -20 -67 -41q-30 -16 -62.5 -36t-62.5 -49t-55 -72q-25 -42 -43 -102q22 14 43.5 20t46.5 6q40 0 67.5 -15 t43.5 -39.5t20.5 -57.5t-3.5 -67q-8 -40 -31 -73.5t-53.5 -60t-69.5 -41.5t-77 -15q-57 0 -94.5 21.5t-56.5 58.5t-22 88.5zM733 1252.5q-2 51.5 11 111.5q11 55 28 102t41.5 88.5t56 80t70.5 75.5q21 20 50.5 42.5t62 41.5t67.5 32t64 13q37 0 51.5 -19.5t8.5 -44.5 q-6 -29 -34.5 -48.5t-66.5 -40.5q-30 -16 -62.5 -36t-62.5 -49t-55 -72q-25 -42 -44 -102q23 14 44.5 20t46.5 6q40 0 67 -15t43.5 -39.5t20.5 -57.5t-3 -67q-8 -40 -31 -73.5t-54.5 -60t-69.5 -41.5t-76 -15q-58 0 -95 21.5t-57 58.5t-22 88.5z" />
<glyph unicode="&#x201d;" horiz-adv-x="1162" d="M217 1147q6 28 34.5 48.5t65.5 40.5q30 15 63 36t63 50t55 71.5t44 102.5q-23 -15 -45 -20.5t-45 -5.5q-40 0 -68 15t-43.5 39.5t-20 56.5t2.5 66q9 40 32 74.5t54 60.5t69 41.5t77 15.5q57 0 94 -21.5t57 -59.5t22.5 -89.5t-10.5 -111.5q-12 -54 -29.5 -100.5t-41.5 -88 t-55 -80t-70 -75.5q-22 -20 -51 -43t-62.5 -41.5t-67.5 -31.5t-64 -13q-37 0 -51 18.5t-9 44.5zM699 1147q6 28 34 48.5t66 40.5q30 15 63 36t63 50t55 71.5t44 102.5q-23 -15 -45 -20.5t-45 -5.5q-40 0 -68 15t-43.5 39.5t-20 56.5t2.5 66q9 40 31.5 74.5t53.5 60.5 t69.5 41.5t77.5 15.5q57 0 94 -21.5t56.5 -59.5t22.5 -89.5t-10 -111.5q-12 -54 -29.5 -100.5t-42 -88t-55.5 -80t-69 -75.5q-22 -20 -51 -43t-62.5 -41.5t-67.5 -31.5t-64 -13q-37 0 -51 18.5t-9 44.5z" />
<glyph unicode="&#x2022;" horiz-adv-x="973" d="M71.5 611.5q-17.5 73.5 0.5 157.5q17 79 64.5 150t115.5 126t150.5 87t166.5 32q87 0 156.5 -32t115.5 -87t64.5 -126.5t1.5 -149.5q-18 -84 -67 -157.5t-117.5 -128t-151.5 -86t-171 -31.5q-84 0 -153.5 31.5t-113.5 86t-61.5 128z" />
<glyph unicode="&#x202f;" horiz-adv-x="592" />
<glyph unicode="&#x205f;" horiz-adv-x="741" />
<glyph unicode="&#x20ac;" horiz-adv-x="1956" d="M83 660.5q-6 14.5 0 38.5q6 26 17.5 39.5t27.5 20.5t36 9.5t42 2.5h90q3 23 7 47t9 49t11.5 49.5t13.5 48.5h-95q-20 0 -38 2.5t-31 10t-18.5 21t-0.5 38.5q6 25 17.5 39t28.5 21t36.5 10t40.5 3h111q62 147 158 271.5t222.5 214.5t280.5 140t331 50q120 0 221.5 -25 t179 -76.5t131 -128.5t76.5 -179q5 -30 -2 -60.5t-24 -58.5t-44.5 -50.5t-58.5 -33.5q-33 -13 -63.5 -13t-56.5 11.5t-43 33t-23 51.5q-27 137 -118.5 203t-234.5 66q-112 0 -205.5 -32.5t-170 -89t-136 -132t-102.5 -162.5h458q21 0 40.5 -1.5t33 -8.5t20 -20t0.5 -38 q-5 -25 -16.5 -40t-28 -23t-37.5 -11t-43 -3h-482q-6 -20 -11 -40t-9 -40q-6 -28 -11 -57t-8 -57h481q21 0 40.5 -1t33 -8t19.5 -21q7 -15 1 -37q-6 -26 -17.5 -40.5t-28 -22.5t-37 -10.5t-43.5 -2.5h-452q6 -89 34.5 -162.5t82 -127t133 -83t188.5 -29.5q90 0 166.5 26.5 t138 71.5t108 105t79.5 127q15 32 39.5 54.5t53 37t59.5 18t59 -6.5q30 -8 49.5 -27.5t28 -46t5 -57t-17.5 -60.5q-62 -121 -145 -213.5t-186 -156.5t-226.5 -96.5t-267.5 -32.5q-185 0 -318.5 48.5t-220 135.5t-127.5 208.5t-39 266.5h-115q-20 0 -38 2t-30.5 9t-18.5 21.5 z" />
<glyph unicode="&#x2122;" horiz-adv-x="2275" d="M354 1646.5q-2 13.5 1 25.5q3 13 10.5 26.5t20 24t29.5 17.5t40 7h519q23 0 37 -7t21.5 -17.5t8.5 -24t-1 -26.5q-3 -13 -9.5 -26t-18.5 -23t-29.5 -17t-40.5 -7h-153l-137 -642q-7 -36 -23.5 -58t-36.5 -35t-39.5 -18t-30.5 -5q-13 0 -30 5t-31.5 18t-22.5 35t0 58 l137 642h-152q-23 0 -37 7t-22 17t-10 23.5zM1032 957l135 636q11 50 33.5 82t49.5 51.5t56.5 26.5t53.5 7q73 0 116.5 -37.5t59.5 -109.5l61 -429q29 50 60.5 104.5t62 110t62 110t60.5 104.5q46 73 105 110t132 37q25 0 51 -7t45 -26.5t27.5 -51.5t-1.5 -82l-136 -636 q-7 -36 -23.5 -58t-36.5 -35t-40 -18t-32 -5q-13 0 -30 5t-31 18t-21.5 35t-0.5 58l101 474l-8 2q-34 -59 -70.5 -122t-73.5 -126.5t-73.5 -125.5t-72.5 -121q-29 -44 -61 -70.5t-68 -26.5q-34 0 -56 25.5t-32 71.5l-79 495l-7 -2l-102 -474q-7 -36 -24 -58t-37 -35 t-39.5 -18t-30.5 -5q-13 0 -30 5t-31.5 18t-22.5 35t-1 58z" />
<glyph unicode="&#x25cc;" horiz-adv-x="1668" d="M380 721l158 70q-13 -33 -21.5 -68t-8.5 -71zM433 406l90 143q13 -30 30 -55q19 -25 45 -44zM593 1035l136 -50q-43 -20 -74.5 -42t-55.5 -51zM694 406q31 -8 59 -7.5t71 11.5l-93 -140zM817 1021l104 143l36 -139q-35 9 -72.5 7t-67.5 -11zM937 446q34 19 62 42t52 50 l11 -135zM1048 988l170 47l-91 -146q-13 30 -34.5 55.5t-44.5 43.5zM1120 655q17 30 25 63t8 70l120 -70z" />
<glyph unicode="&#x25fc;" horiz-adv-x="1317" d="M0 0v1318h1318v-1318h-1318z" />
<glyph unicode="&#xf700;" horiz-adv-x="1441" d="M146 737.5q-3 21.5 3 47.5q5 26 17.5 47.5t30 37t40 25t48.5 9.5h274q26 0 40 -8t23 -22.5t13 -33t7 -41.5l62 -484q51 80 107 170t106 178.5t87.5 171.5t53.5 150q35 146 -26.5 219.5t-214.5 73.5q-106 0 -181 -41.5t-128 -133.5q-18 -32 -47 -51.5t-61 -26.5 t-64.5 -3.5t-55.5 18.5q-25 15 -39.5 37.5t-17.5 49t5.5 56.5t30.5 58q106 142 267.5 217t372.5 75q65 0 128 -8t118 -28q46 9 80.5 38t52.5 65q19 30 47.5 48.5t59.5 26t61.5 4t55.5 -21.5q24 -15 37.5 -39.5t15.5 -53t-7 -58.5t-32 -59q-29 -36 -69 -63t-90 -44 q34 -59 42 -140.5t-18 -192.5q-12 -59 -38 -125.5t-61.5 -138t-79.5 -147t-92 -152t-98 -154.5q-51 -76 -101 -150q-23 -36 -53.5 -65t-67 -50t-76.5 -31.5t-83 -10.5q-88 0 -144 40q-58 40 -69 119l-75 524h-110q-26 0 -43.5 9.5t-29 25t-14.5 37z" />
<glyph unicode="&#xf701;" d="M-1367.5 1800.5q-3.5 21.5 0.5 45.5q6 26 18.5 47.5t30.5 38t40 25.5t48 9h818q26 0 44 -9t29.5 -25.5t15 -38t-2.5 -47.5t-18 -46.5t-30.5 -37t-41 -26t-47.5 -9.5h-818q-26 0 -44 9.5t-28.5 26t-14 38z" />
<glyph unicode="&#xf702;" d="M-1367.5 1800.5q-3.5 21.5 0.5 45.5q6 26 18.5 47.5t30.5 38t40 25.5t48 9h617l21 96q6 30 22.5 54.5t40 42t51.5 27.5t58 10t52.5 -10t38.5 -27.5t21.5 -42.5t0.5 -54l-43 -200q-6 -30 -22.5 -54.5t-39.5 -42.5t-51.5 -28t-57.5 -10h-760q-26 0 -44 9.5t-28.5 26t-14 38 z" />
<glyph unicode="&#xf703;" d="M-1367.5 1800.5q-3.5 21.5 0.5 45.5q6 26 18.5 47.5t30.5 38t40 25.5t48 9h399l6 25q11 54 42 102.5t75 84.5t96.5 56.5t106.5 20.5q55 0 98.5 -20.5t72 -56.5t38.5 -84q10 -49 -1 -103q-12 -56 -42.5 -103.5t-74.5 -83t-96.5 -56.5t-107.5 -21h-663q-26 0 -44 9.5 t-28.5 26t-14 38zM-656 1991q-9 -39 14 -65t61 -26q20 0 39 7.5t34.5 19.5t26.5 29q11 15 15 35t0.5 37.5t-13.5 30.5t-26 20t-36 7q-18 0 -37.5 -7t-35 -20t-27 -30.5t-15.5 -37.5z" />
<glyph unicode="&#xf704;" d="M-1367.5 1800.5q-3.5 21.5 0.5 45.5q6 26 18.5 47.5t30.5 38t40 25.5t48 9h226l22 103q5 27 21 51t38 40t49 26t55 10q27 0 50 -10t37 -26t20 -40t0 -51l-22 -103h135l23 103q5 27 20 51t38 40t49.5 26t55.5 10q27 0 49 -10t37 -26t21 -40t0 -51l-46 -214 q-6 -29 -21.5 -52.5t-37 -40t-48.5 -26t-54 -9.5h-768q-26 0 -44 9.5t-28.5 26t-14 38z" />
<glyph unicode="&#xf705;" d="M-720 1787.5q-6 25.5 1 55.5l54 258q6 30 24 55.5t41.5 43.5t52 28.5t58.5 10.5t54.5 -10.5t40.5 -28.5t22 -43t-1 -56l-55 -258q-5 -30 -22.5 -55.5t-41 -43t-52 -28t-58.5 -10.5t-54.5 10.5t-41 28t-22.5 43z" />
<glyph unicode="&#xf706;" d="M-1128 2023q-5 20 1 43t19 43t30 36t38.5 23.5t44.5 7.5h177q23 0 40 -7.5t28.5 -23.5t16 -36t-1.5 -43l-23 -110q56 2 105.5 14t88.5 33.5t69 50t49 61.5q14 24 35.5 42t45 27.5t48 10t45.5 -9.5q22 -10 35.5 -28t18.5 -40.5t0.5 -48t-19.5 -49.5q-38 -60 -95 -111.5 t-133 -90t-168.5 -61.5t-203.5 -23h-101q-22 0 -39 8.5t-28.5 24.5t-15.5 36t0 43l24 111h-45q-23 0 -40.5 8.5t-29.5 23.5t-16 35z" />
<glyph unicode="&#xf707;" d="M-1286 1832q18 80 50.5 138t75 96t89.5 57t93 19q47 0 83 -23t56 -61q40 37 85 60.5t95 23.5q31 0 59.5 -10t51 -29t36 -47t14.5 -65q23 20 44.5 48.5t37.5 65.5q11 26 28.5 44.5t39 30t45.5 14t47 -2.5q26 -7 41.5 -21.5t21.5 -34.5t2.5 -43.5t-15.5 -48.5 q-27 -55 -65.5 -106t-83.5 -91.5t-94.5 -69.5t-98.5 -37h-93q-33 0 -49 20.5t-12 53.5q3 22 3.5 40.5t-3 32t-13 21.5t-26.5 8q-23 0 -38.5 -16t-24.5 -41q-10 -30 -35 -51t-58 -21t-50.5 20t-13.5 52q4 30 -4.5 43.5t-32.5 13.5q-26 0 -44 -21.5t-29 -61.5 q-6 -27 -19.5 -48t-30.5 -34.5t-38.5 -20t-44.5 -6.5q-49 0 -70.5 31.5t-11.5 77.5z" />
<glyph unicode="&#xf708;" d="M-1009.5 1979q-2.5 20 3 43t16 43t27 35t36.5 23.5t43 8.5h130l16 72q6 28 22.5 51.5t38.5 41t48.5 26.5t55.5 9q27 0 50.5 -9t38.5 -26.5t21.5 -41t-0.5 -51.5l-16 -72h130q23 0 39.5 -8.5t26.5 -23.5t13.5 -36t-2.5 -42q-4 -23 -15.5 -43t-28 -35t-37 -23.5t-43.5 -8.5 h-130l-15 -73q-5 -29 -21.5 -52.5t-38.5 -40.5t-49.5 -26.5t-56 -9.5t-51.5 9.5t-37 26.5t-20 40.5t0 52.5l16 73h-131q-22 0 -38.5 8.5t-27.5 23.5t-13.5 35z" />
<glyph unicode="&#xf709;" d="M-925.5 1790.5q-4.5 24.5 2 51t22.5 53.5q69 113 187 183t276 87q55 6 85 -20t28 -70q-1 -23 -10.5 -46.5t-26 -40.5t-37 -29.5t-43.5 -15.5q-86 -10 -144.5 -46.5t-87.5 -103.5q-12 -27 -34.5 -45.5t-49 -28t-54 -10t-52.5 7.5q-27 10 -42 29.5t-19.5 44z" />
<glyph unicode="&#xf70a;" d="M-204 1788q-5 25 1 55l59 285q5 30 23 55.5t41.5 43.5t52 28t58.5 10t54.5 -10t40.5 -28t22 -43.5t1 -55.5l-62 -285q-5 -30 -22.5 -55.5t-41 -43t-52 -28t-58.5 -10.5t-54.5 10.5t-40 28t-22.5 43.5z" />
<glyph unicode="&#xf70b;" d="M-749 2026q-5 22 1 45q4 23 17 43t31.5 35t41 24t45.5 9h185q23 0 41.5 -9t31 -24t16.5 -35t0 -43l-24 -113q60 1 110.5 14t92 34.5t72.5 50t49 62.5q16 25 38 42.5t46.5 27.5t51 10t47.5 -10q23 -10 38 -27.5t21 -40.5t1 -49t-21 -50q-40 -60 -98.5 -112t-137.5 -91.5 t-176.5 -61.5t-212.5 -22h-106q-23 0 -41.5 9t-30.5 24t-16.5 35t1.5 43l23 112h-49q-23 0 -41.5 9t-30.5 24t-16 35z" />
<glyph unicode="&#xf70c;" d="M-1030.5 1786q-3.5 20 2.5 43q17 83 53.5 144.5t84.5 101.5t101.5 59.5t106.5 19.5q54 0 95.5 -24t65.5 -62q45 37 95.5 61.5t109.5 24.5q36 0 69 -10t58.5 -30t42 -49t17.5 -66q22 22 48.5 54.5t43.5 72.5q11 28 32 46.5t45 30.5t50.5 15t53.5 -3q30 -7 49 -22t26.5 -36 t4 -45t-17.5 -50q-32 -59 -74.5 -112.5t-93.5 -98.5t-106.5 -75t-111.5 -40h-106q-37 0 -56.5 21.5t-16.5 54.5q3 23 3 42t-6 33.5t-16.5 22.5t-26.5 8q-25 0 -45 -21.5t-28 -50.5q-8 -31 -37.5 -55t-66.5 -24q-41 0 -61.5 22.5t-15.5 56.5q4 32 -4 52t-35 20 q-28 0 -50.5 -23t-33.5 -66q-15 -56 -56 -83t-93 -27q-29 0 -49.5 8.5t-33.5 23.5t-16.5 35z" />
<glyph unicode="&#xf70d;" d="M-386 1986q-3 20 1 43q6 23 17.5 44t28 36t38 24t44.5 9h127l14 70q6 29 22.5 53t39.5 41.5t50 26.5t55 9q29 0 52.5 -9t38.5 -26.5t21 -41.5t0 -53l-16 -70h128q22 0 39.5 -9t28 -24t13.5 -35q4 -21 -1 -45q-5 -23 -17 -43t-29 -35t-37 -24t-45 -9h-127l-16 -70 q-5 -29 -21.5 -53.5t-39 -41.5t-50 -26.5t-56.5 -9.5t-51 9.5t-37.5 26.5t-21.5 41.5t1 53.5l15 70h-128q-22 0 -39.5 9t-28 24t-13.5 35z" />
<glyph unicode="&#xf70e;" d="M-380 1786q-5 24 1.5 51.5t22.5 52.5q69 113 186 184t276 88q54 6 84 -20t30 -71q-1 -23 -11 -46t-26 -41t-36.5 -30t-44.5 -15q-85 -10 -143.5 -46.5t-88.5 -102.5q-13 -27 -34.5 -45.5t-48 -28t-54.5 -10.5t-52 9q-27 10 -41.5 28.5t-19.5 42.5z" />
<glyph unicode="&#xf70f;" horiz-adv-x="2368" d="M28.5 75q-4.5 22 1.5 48l144 686q9 40 9.5 81.5t-16.5 79.5q-15 31 -27.5 50.5t-16 36.5t4.5 37t31 56q50 74 119 144t159.5 123t201 84.5t243.5 31.5q126 0 218.5 -24.5t156.5 -67t103 -103t55 -130.5t14 -148.5t-19 -158.5l-82 -380q-15 -73 -3.5 -128.5t42 -93t77 -57 t101 -19.5t106.5 18t95.5 53.5t77.5 92t51 134.5l181 855q6 31 24.5 57.5t43 45t54.5 29.5t61 11q32 0 57 -11t41.5 -29.5t23 -45t0.5 -57.5l-189 -881q-20 -90 -57 -165t-88.5 -134t-114.5 -103t-132.5 -73t-143.5 -43t-147 -14q-113 0 -211 34t-164.5 101.5t-94 166 t0.5 230.5l87 413q13 64 9.5 128t-34.5 114.5t-93 82t-162 34.5q-81 1 -148 -17.5t-118.5 -49t-86.5 -70.5t-54 -79q48 -40 58 -111t-9 -161l-113 -534h64q26 0 45.5 -9.5t30 -26.5t14 -39.5t-0.5 -46.5q-6 -26 -18.5 -48t-31.5 -39t-41.5 -26.5t-48.5 -9.5h-243 q-26 0 -46 9.5t-33.5 26.5t-18 39z" />
<glyph unicode="&#xf710;" d="M-867.5 1809q-6.5 24 0.5 53l28 127q5 29 21 53t39 41.5t50 26.5t55 9q29 0 52.5 -9t39.5 -26.5t21.5 -41.5t-0.5 -53l-7 -27h890q24 0 42 -9.5t28.5 -24.5t15 -36.5t-1.5 -45.5t-18.5 -45t-30 -36.5t-39 -24t-45.5 -8.5h-1029q-29 0 -52 9t-38 26.5t-21.5 41.5z" />
<glyph unicode="&#xf711;" d="M-892.5 1877q-11.5 52 1.5 111q13 58 46 110.5t80 91t104.5 61.5t115.5 23q57 0 104.5 -23t78 -61.5t43 -91t-0.5 -110.5q-13 -59 -46.5 -111t-81.5 -91t-104.5 -61t-113.5 -22q-59 0 -106 22t-78 61t-42.5 91zM-708 1948.5q4 -19.5 15.5 -33t28 -22t36.5 -8.5t41 8.5 t38 22t29 33t17 39.5q4 20 -0.5 39t-15 33t-27.5 22.5t-37 8.5t-41 -8.5t-38 -22.5t-29.5 -33t-16.5 -39t0 -39.5z" />
<glyph unicode="&#xf712;" d="M-1262.5 2005q1.5 37 8.5 67q20 90 65 156t106.5 109t133 63t142.5 20h615q22 0 37 -9t24 -24t12 -35t-1 -43q-10 -47 -43 -77t-76 -30h-592q-47 0 -78.5 -13t-51.5 -33t-30 -42.5t-14 -41.5q-3 -13 -2.5 -30t7 -33.5t20 -27t38.5 -10.5q27 0 49 16t38 45q17 37 48 56.5 t68 19.5q40 0 65 -17t25 -59q0 -29 13 -45t38 -16q23 0 41.5 14t28.5 40v-2q9 22 24 38.5t33.5 27t40 15t41.5 1.5q23 -3 41.5 -13t30.5 -28t15 -43t-7 -56q-18 -57 -50.5 -98.5t-73 -68t-85.5 -39.5t-90 -13q-34 0 -62 10t-49.5 26t-38 36t-27.5 41q-23 -23 -51 -43 t-60 -35.5t-64 -25t-65 -9.5q-56 0 -97.5 15t-68.5 41.5t-43 60t-23 69.5t-5.5 73z" />
<glyph unicode="&#xf713;" d="M-502 2406.5q-6 24.5 0 53.5l47 223q6 28 22.5 51.5t39.5 41.5t50 27.5t56 9.5q28 0 51.5 -9.5t38.5 -27.5t21 -41.5t0 -51.5l-47 -223q-6 -29 -21.5 -53.5t-38.5 -41.5t-50 -26.5t-56 -9.5t-52.5 9.5t-39 26.5t-21.5 41.5z" />
<glyph unicode="&#xf714;" d="M-888 2634q-4 20 0 43q6 23 18.5 43.5t30.5 35.5t41 24.5t46 9.5h180q23 0 41.5 -9.5t30.5 -24.5t17 -35q4 -21 -2 -44l-23 -112q60 2 111.5 14t94.5 33.5t74.5 51t50.5 63.5q15 24 37.5 42t46.5 27.5t50 10t49 -9.5t36.5 -28t18.5 -40.5t0 -48.5t-21 -50 q-40 -60 -98.5 -112.5t-137.5 -91.5t-176 -61.5t-213 -22.5h-96q-23 0 -41.5 9.5t-30.5 24.5t-16.5 35t0.5 43l24 111h-54q-23 0 -41.5 9.5t-31 24.5t-16.5 35z" />
<glyph unicode="&#xf715;" d="M-948 2430q17 77 50.5 134t76.5 94.5t91.5 56t96.5 18.5t84 -23t60 -57q40 34 86.5 57t99.5 23q31 0 61 -9.5t53 -28.5t36.5 -46.5t13.5 -63.5q12 10 24 24t23.5 30.5t22 33.5t18.5 33q11 22 29.5 41t40.5 29.5t46 14t48 -0.5q27 -7 43.5 -21.5t23 -33.5t3 -41.5 t-15.5 -45.5q-28 -54 -67.5 -105.5t-85 -93t-96.5 -69.5q-52 -29 -101 -38h-96q-34 0 -51 20t-15 52q6 41 -1 69t-39 28q-23 0 -40 -14.5t-24 -38.5q-10 -30 -35 -50.5t-58 -20.5q-31 0 -53 18q-23 17 -17 53q4 26 -6 39.5t-34 13.5q-29 0 -46 -20.5t-28 -60.5 q-13 -53 -50.5 -78t-82.5 -25q-52 0 -75 30t-14 73z" />
<glyph unicode="&#xf716;" d="M-696.5 2595q-2.5 20 1.5 42q4 23 15.5 43t28 34t36.5 23t42 9h131l16 74q6 27 22 50.5t37.5 41t49 26.5t54.5 9t50 -9t38 -26.5t20.5 -41t-1.5 -50.5l-14 -74h130q23 0 39.5 -9t26.5 -23t12.5 -34t-1.5 -43t-16 -42.5t-28 -33.5t-36 -22.5t-43 -8.5h-130l-16 -75 q-5 -28 -21.5 -51.5t-38 -40t-49 -26t-54.5 -9.5t-50.5 9.5t-38 26t-20 40t0.5 51.5l15 75h-130q-23 0 -39.5 8.5t-26.5 22.5t-12.5 34z" />
<glyph unicode="&#xf717;" d="M-522 2230.5q-4 24.5 2 51.5q5 26 22 53q33 56 81 102.5t106.5 81t128 56.5t146.5 30q55 6 85.5 -19t29.5 -71q-2 -23 -11 -45.5t-25.5 -40.5t-37.5 -30t-45 -15q-84 -10 -142 -47q-58 -38 -88 -103q-13 -28 -35 -45.5t-48.5 -27.5t-54 -11t-52.5 8q-28 10 -43 29 t-19 43.5z" />
<glyph unicode="&#xf718;" d="M-905 -770.5q-3 21.5 3 44.5q5 24 16.5 45.5t29 37t38.5 24t46 8.5h236q24 0 41 -8.5t28 -24t14 -37.5q4 -23 -2 -45l-71 -338q-6 -30 -22.5 -54.5t-39.5 -41.5t-50 -27t-57 -10t-53 10t-38.5 27t-21.5 41.5t0 54.5l47 223h-60q-24 0 -42 8.5t-28.5 24.5t-13.5 37.5z" />
<glyph unicode="&#xf719;" d="M-1439.5 -771.5q-3.5 20.5 2.5 45.5q6 24 18 44.5t28.5 36.5t38 24.5t45.5 8.5h236q24 0 41.5 -8.5t28.5 -24.5t14 -36.5t-1 -44.5l-20 -91q-16 -71 7 -108t87 -37q60 0 100 37t55 108l20 92q5 30 21.5 54.5t39.5 41.5t51 26.5t56 9.5q30 0 53 -9.5t39 -26.5t21.5 -41.5 t-0.5 -54.5l-20 -92q-15 -77 -51 -146t-95.5 -120.5t-143 -82.5t-196.5 -31q-106 0 -176 26t-110 72.5t-50.5 112t2.5 144.5h-58q-24 0 -41 9t-28 25t-14.5 36.5z" />
<glyph unicode="&#xf71a;" d="M-839.5 -861.5q-8.5 36.5 0.5 77.5q8 43 32.5 80.5t58 65t74.5 44t83 16.5t75 -16.5t54.5 -44t29 -65t-0.5 -80.5q-9 -41 -32.5 -77.5t-57 -63.5t-73.5 -43.5t-82 -16.5q-43 0 -76.5 16.5t-55 43.5t-30 63.5z" />
<glyph unicode="&#xf71d;" horiz-adv-x="1987" d="M196 1331q0 32 12 62.5t34.5 55.5t51.5 43t64 24q32 6 63.5 1.5t55 -20.5t37.5 -40t12 -58l-46 -1000l377 744q15 31 39.5 59.5t54 48.5t62 31.5t68.5 11.5q37 0 65.5 -12t49.5 -33.5t33 -50t14 -63.5l71 -739q32 76 60.5 146.5t55.5 140t55.5 139t58.5 142.5 q23 56 34.5 93.5t20.5 70.5q13 62 -3.5 101t-76.5 52q-38 9 -56.5 40.5t-9.5 72.5q4 22 16 41t28.5 35t36.5 26t42 13q34 5 70 14.5t68.5 26.5t63 40.5t54.5 58.5q18 30 43 54t54 40.5t59.5 24.5t60.5 5q37 -4 60 -21t34 -42t9.5 -55.5t-14.5 -61.5q-16 -41 -46.5 -75.5 t-68 -61.5t-80.5 -47t-84 -32q31 -34 44 -77t11.5 -91.5t-16.5 -101.5t-39 -107l-392 -856q-16 -34 -41 -63.5t-57 -50.5t-68.5 -34t-74.5 -13t-68 11.5t-51.5 32t-34 48.5t-15.5 61l-73 725l-372 -724q-17 -34 -43 -62.5t-56.5 -48.5t-65.5 -31.5t-72 -11.5q-36 0 -67 11.5 t-53 32t-35 48.5t-13 61z" />
<glyph d="M-959 1822q1 27 12 54q38 99 117 164t191 94q20 44 52 84t77 72t101.5 52t125.5 23q24 2 45.5 -4.5t37.5 -19.5t23.5 -31.5t7.5 -42.5q-1 -25 -12 -48t-28 -41.5t-39 -30t-47 -11.5q-32 0 -56.5 -11t-41.5 -30.5t-28 -45.5t-17 -54q-4 -22 -14 -34.5t-22 -18.5 t-25.5 -7.5t-25.5 -1.5q-73 0 -114.5 -29t-61.5 -88q-8 -27 -26.5 -48.5t-43 -34.5t-53 -17t-57.5 0q-27 4 -44 19t-26 37.5t-8 49.5z" />
<glyph horiz-adv-x="1259" d="M-892.5 1877q-11.5 52 1.5 111q13 58 46 110.5t80 91t104.5 61.5t115.5 23q57 0 104.5 -23t78 -61.5t43 -91t-0.5 -110.5q-13 -59 -46.5 -111t-81.5 -91t-104.5 -61t-113.5 -22q-59 0 -106 22t-78 61t-42.5 91zM-708 1948.5q4 -19.5 15.5 -33t28 -22t36.5 -8.5t41 8.5 t38 22t29 33t17 39.5q4 20 -0.5 39t-15 33t-27.5 22.5t-37 8.5t-41 -8.5t-38 -22.5t-29.5 -33t-16.5 -39t0 -39.5zM120.5 1122q3.5 31 19.5 62q46 87 114 151.5t148 108t167 65t173 21.5q116 0 209 -31.5t151.5 -96.5t78.5 -163.5t-7 -231.5l-189 -884q-7 -31 -23.5 -57 t-41.5 -44.5t-54 -28.5t-61 -10q-31 0 -56 10t-41.5 28.5t-23 44.5t0.5 57l177 832q35 162 -11 237t-163 75q-83 0 -150.5 -41.5t-109.5 -121.5q-16 -30 -40.5 -53.5t-54.5 -39.5t-60.5 -21t-60.5 2q-32 9 -53.5 28.5t-31.5 45t-6.5 56.5z" />
<glyph horiz-adv-x="1259" d="M-892.5 1877q-11.5 52 1.5 111q13 58 46 110.5t80 91t104.5 61.5t115.5 23q57 0 104.5 -23t78 -61.5t43 -91t-0.5 -110.5q-13 -59 -46.5 -111t-81.5 -91t-104.5 -61t-113.5 -22q-59 0 -106 22t-78 61t-42.5 91zM-708 1948.5q4 -19.5 15.5 -33t28 -22t36.5 -8.5t41 8.5 t38 22t29 33t17 39.5q4 20 -0.5 39t-15 33t-27.5 22.5t-37 8.5t-41 -8.5t-38 -22.5t-29.5 -33t-16.5 -39t0 -39.5zM120.5 1122q3.5 31 19.5 62q46 87 114 151.5t148 108t167 65t173 21.5q116 0 209 -31.5t151.5 -96.5t78.5 -163.5t-7 -231.5l-189 -884q-7 -31 -23.5 -57 t-41.5 -44.5t-54 -28.5t-61 -10q-31 0 -56 10t-41.5 28.5t-23 44.5t0.5 57l177 832q35 162 -11 237t-163 75q-83 0 -150.5 -41.5t-109.5 -121.5q-16 -30 -40.5 -53.5t-54.5 -39.5t-60.5 -21t-60.5 2q-32 9 -53.5 28.5t-31.5 45t-6.5 56.5z" />
<glyph d="M-979.5 1800.5q-4.5 21.5 1.5 45.5q6 26 18.5 47.5t30.5 38t40 25.5t48 9h864q26 0 43.5 -9t30 -25.5t16 -38t-2.5 -47.5t-18.5 -46.5t-31.5 -37t-41 -26t-46 -9.5h-865q-26 0 -44 9.5t-28.5 26t-15 38z" />
<glyph d="M-979.5 1800.5q-4.5 21.5 1.5 45.5q6 26 18.5 47.5t30.5 38t40 25.5t48 9h674l20 96q5 30 21.5 54.5t40.5 42t51.5 27.5t57.5 10t54 -10t39 -27.5t21 -42.5t-1 -54l-43 -200q-5 -30 -21.5 -54.5t-39.5 -42.5t-51 -28t-58 -10h-816q-26 0 -44 9.5t-28.5 26t-15 38z" />
<glyph d="M-979.5 1800.5q-4.5 21.5 1.5 45.5q6 26 18.5 47.5t30.5 38t40 25.5t48 9h465l6 25q11 54 42 102.5t73.5 84.5t95.5 56.5t108 20.5q54 0 97.5 -20.5t71.5 -56.5t39 -84q10 -49 -1 -103q-12 -56 -42.5 -103.5t-74 -83t-96 -56.5t-106.5 -21h-729q-26 0 -44 9.5t-28.5 26 t-15 38zM-202 1991q-4 -19 0.5 -35.5t14.5 -28.5t25.5 -19.5t34.5 -7.5q20 0 38.5 7.5t33.5 19.5t26 29q12 15 16 35t0.5 37.5t-14 30.5t-26.5 20t-34.5 7t-37.5 -7t-34 -20t-26.5 -30.5t-16.5 -37.5z" />
<glyph d="M-979.5 1800.5q-4.5 21.5 1.5 45.5q6 26 18.5 47.5t30.5 38t40 25.5t48 9h282l23 103q5 27 21 51t38 40t48.5 26t55.5 10q27 0 49 -10t37 -26t21 -40t0 -51l-21 -103h133l22 103q6 27 22 51t38 40t48.5 26t54.5 10t50 -10t37 -26t21 -40q7 -24 1 -51l-46 -214 q-5 -29 -21.5 -52.5t-38 -40t-48.5 -26t-55 -9.5h-823q-26 0 -44 9.5t-28.5 26t-15 38z" />
<glyph d="M-1666.5 1800.5q-3.5 21.5 1.5 45.5q6 26 18.5 47.5t30 38t40.5 25.5t47 9h1177q26 0 44.5 -9t30 -25.5t15 -38t-2.5 -47.5q-5 -26 -18 -46.5t-31 -37t-41 -26t-47 -9.5h-1177q-25 0 -44 9.5t-29.5 26t-14 38z" />
<glyph d="M-1666.5 1800.5q-3.5 21.5 1.5 45.5q6 26 18.5 47.5t30 38t40.5 25.5t47 9h977l20 96q6 30 23 54.5t40 42t51.5 27.5t57.5 10q30 0 53.5 -10t39 -27.5t21.5 -42.5t0 -54l-43 -200q-6 -30 -22 -54.5t-40 -42.5t-51.5 -28t-57.5 -10h-1119q-25 0 -44 9.5t-29.5 26t-14 38z " />
<glyph d="M-1666.5 1800.5q-3.5 21.5 1.5 45.5q6 26 18.5 47.5t30 38t40.5 25.5t47 9h773l4 25q11 54 42.5 102.5t74.5 84.5t95 56.5t108 20.5q54 0 98 -20.5t71 -56.5t37 -84q10 -49 -1 -103q-12 -56 -42.5 -103.5t-73 -83t-94.5 -56.5t-108 -21h-1034q-25 0 -44 9.5t-29.5 26 t-14 38zM-583 1991q-9 -39 12.5 -65t62.5 -26q20 0 38 7.5t34 19.5t26 29q10 15 14 35q8 41 -12 68t-60 27q-20 0 -39 -7t-34 -20t-26.5 -30.5t-15.5 -37.5z" />
<glyph d="M-1666.5 1800.5q-3.5 21.5 1.5 45.5q6 26 18.5 47.5t30 38t40.5 25.5t47 9h585l23 103q6 27 21 51t37 40t49.5 26t54.5 10t50 -10t38 -26t20.5 -40t-0.5 -51l-23 -103h136l22 103q5 27 21 51t38 40t49.5 26t54.5 10t50 -10t37 -26t20 -40t1 -51l-45 -214 q-6 -29 -21.5 -52.5t-38 -40t-49.5 -26t-54 -9.5h-1126q-25 0 -44 9.5t-29.5 26t-14 38z" />
<glyph d="M-440.5 2406.5q-5.5 24.5 0.5 53.5l47 223q5 28 21.5 51.5t39.5 41.5t50 27.5t56 9.5t51.5 -9.5t37.5 -27.5t21 -41.5t0 -51.5l-47 -223q-6 -29 -21.5 -53.5t-38.5 -41.5t-50 -26.5t-56 -9.5t-51.5 9.5t-38.5 26.5t-21.5 41.5z" />
<glyph d="M-852 2634q-5 20 0 43t18 43.5t31.5 35.5t41 24.5t45.5 9.5h181q23 0 41.5 -9.5t30 -24.5t16.5 -35q5 -21 -1 -44l-22 -112q60 2 111.5 14t93.5 33.5t73.5 51t49.5 63.5q16 24 37.5 42t47.5 27.5t51 10t47.5 -9.5t37 -28t19.5 -40.5t-0.5 -48.5t-21.5 -50 q-40 -60 -99 -112.5t-136.5 -91.5t-175 -61.5t-213.5 -22.5h-97q-23 0 -41 9.5t-30 24.5t-17 35t1 43l23 111h-55q-22 0 -41 9.5t-30.5 24.5t-16.5 35z" />
<glyph d="M-875 2430q17 77 50 134t76 94.5t91.5 56t96.5 18.5q53 0 87.5 -21.5t57.5 -58.5q40 34 85.5 57t100.5 23q31 0 60.5 -9.5t52.5 -28.5t37 -46.5t14 -63.5q12 10 23.5 24t23.5 30.5t22.5 33.5t17.5 33q12 22 30.5 41t40 29.5t46 14t46.5 -0.5q28 -7 45 -21.5t23.5 -33.5 t3 -41.5t-15.5 -45.5q-28 -54 -68 -105.5t-86 -93t-96 -70t-102 -37.5h-94q-34 0 -51.5 20t-14.5 52q6 41 -1 69t-39 28q-24 0 -40.5 -14.5t-25.5 -38.5q-10 -30 -34 -50.5t-58 -20.5q-32 0 -53.5 17.5t-15.5 53.5q4 26 -6.5 39.5t-33.5 13.5q-29 0 -46 -20.5t-29 -60.5 q-12 -53 -49.5 -78t-84.5 -25q-51 0 -74 30q-22 30 -13 73z" />
<glyph d="M-630 2595q-2 20 2 42q5 23 15.5 43t27 34t36.5 23t43 9h131l16 74q6 27 21.5 50.5t38 41t48.5 26.5q25 9 54 9q27 0 50 -9t38 -26.5t20.5 -41t-0.5 -50.5l-17 -74h132q23 0 39.5 -9t26.5 -23t12.5 -34t-1.5 -43t-16.5 -42.5t-28 -33.5t-35.5 -22.5t-43 -8.5h-132 l-14 -75q-6 -28 -21.5 -51.5t-37.5 -40t-49.5 -26t-54.5 -9.5t-50 9.5t-38 26t-20 40t-1 51.5l18 75h-132q-23 0 -39.5 8.5t-26.5 22.5t-12 34z" />
<glyph d="M-1638 1800.5q-4 21.5 2 45.5q6 26 18 47.5t30 38t41 25.5t47 9h1531q26 0 44.5 -9t30 -25.5t15 -38t-1.5 -47.5q-6 -26 -19 -46.5t-31 -37t-40.5 -26t-47.5 -9.5h-1531q-26 0 -44.5 9.5t-29 26t-14.5 38z" />
<glyph d="M-1638 1800.5q-4 21.5 2 45.5q6 26 18 47.5t30 38t41 25.5t47 9h1333l20 96q5 30 21.5 54.5t40.5 42t51.5 27.5t57.5 10t54 -10t39 -27.5t21 -42.5t-1 -54l-43 -200q-5 -30 -21.5 -54.5t-39.5 -42.5t-51 -28t-58 -10h-1474q-26 0 -44.5 9.5t-29 26t-14.5 38z" />
<glyph d="M-1638 1800.5q-4 21.5 2 45.5q6 26 18 47.5t30 38t41 25.5t47 9h1124l6 25q11 54 42 102.5t73.5 84.5t95.5 56.5t108 20.5q54 0 97.5 -20.5t71.5 -56.5t39 -84q10 -49 -1 -103q-12 -56 -42.5 -103.5t-74 -83t-96 -56.5t-106.5 -21h-1387q-26 0 -44.5 9.5t-29 26t-14.5 38 zM-202 1991q-4 -19 0.5 -35.5t14.5 -28.5t25.5 -19.5t34.5 -7.5q20 0 38.5 7.5t33.5 19.5t26 29q12 15 16 35t0.5 37.5t-14 30.5t-26.5 20t-34.5 7t-37.5 -7t-34 -20t-26.5 -30.5t-16.5 -37.5z" />
<glyph d="M-1638 1800.5q-4 21.5 2 45.5q6 26 18 47.5t30 38t41 25.5t47 9h941l23 103q5 27 21 51t38 40t48.5 26t55.5 10q27 0 49 -10t37 -26t21 -40t0 -51l-21 -103h133l22 103q6 27 22 51t38 40t48.5 26t54.5 10t50 -10t37 -26t21 -40q7 -24 1 -51l-46 -214q-5 -29 -21.5 -52.5 t-38 -40t-48.5 -26t-55 -9.5h-1481q-26 0 -44.5 9.5t-29 26t-14.5 38z" />
<glyph d="M-100 2220.5q-6 24.5 1 53.5l48 223q5 28 21.5 52t38.5 41.5t50 27t57 9.5q28 0 51 -9.5t38 -27t21 -41.5t0 -52l-47 -223q-6 -29 -21.5 -53.5t-38.5 -41.5t-50.5 -26t-55.5 -9q-29 0 -52.5 9t-39 26t-21.5 41.5z" />
<glyph d="M-493 2452q-5 20 1 43t19 43t31.5 36t40.5 24.5t45 8.5h182q22 0 40 -8.5t30 -24.5t16.5 -36t-1.5 -43l-24 -111q60 1 112 13.5t94.5 33.5t74 50.5t51.5 62.5q16 24 37 42t46 28t51 10.5t49 -9.5t36.5 -28.5t18.5 -41t0 -48t-21 -49.5q-40 -60 -99.5 -113t-138 -91.5 t-175 -60.5t-212.5 -22h-96q-22 0 -41 8.5t-31 23.5t-16.5 35t0.5 44l24 112h-54q-23 0 -41.5 8.5t-31 24t-17.5 35.5z" />
<glyph d="M-676 2247q15 77 49 133.5t76.5 93.5t91.5 55.5t96 18.5q48 0 87 -22t59 -58q40 34 85 57t99 23q32 0 62 -9t52.5 -28.5t37 -46.5t14.5 -63q20 20 45.5 54.5t41.5 67.5q12 22 30.5 40t40 29.5t45.5 15t47 -2.5q27 -7 44.5 -21t23 -32.5t2.5 -41.5t-14 -46 q-29 -54 -69 -105.5t-86.5 -93t-96.5 -69.5t-100 -38h-96q-34 0 -51 20t-13 51q6 42 -2 70.5t-39 28.5q-25 0 -40.5 -14.5t-24.5 -38.5q-10 -30 -34 -50.5t-59 -20.5q-31 0 -52.5 17.5t-15.5 53.5q4 26 -7 39.5t-33 13.5q-29 0 -47 -21q-19 -22 -28 -60q-5 -26 -19 -46 t-31.5 -33t-39 -19.5t-44.5 -6.5q-52 0 -74.5 31t-12.5 74z" />
<glyph d="M-289 2413q-3 19 2 42t16.5 42.5t27.5 34.5t36 23t43 8h130l17 74q6 27 21.5 51.5t37 41t48.5 25.5t54 9q28 0 50.5 -9t37.5 -25.5t21 -40t0 -52.5l-16 -74h132q23 0 38.5 -8t25.5 -23t13 -35t-1 -42q-5 -23 -16 -42t-27.5 -34t-36.5 -23.5t-42 -8.5h-131l-18 -75 q-5 -28 -21 -51t-37.5 -39.5t-48.5 -26t-54 -9.5t-50 9.5t-38 26t-21 39.5t0 51l16 75h-130q-23 0 -39.5 8.5t-26.5 23.5t-13 34z" />
<glyph d="M-578 2277l47 223q6 28 22.5 52.5t39.5 41.5t50 26.5t56 9.5q28 0 52 -9.5t39 -26.5t20.5 -41.5t-0.5 -52.5l-47 -223q-6 -29 -22 -52.5t-39 -41.5t-50.5 -27.5t-55.5 -9.5q-29 0 -52 9.5t-38.5 27.5t-21 41.5t-0.5 52.5z" />
<glyph d="M-965 2452q-5 20 1 43t19 43t31.5 36t40.5 24.5t45 8.5h182q23 0 40.5 -8.5t30 -24.5t16.5 -36t0 -43l-24 -111q60 1 112 13.5t94 33.5t73.5 50.5t51.5 62.5q16 24 37.5 42t46 28t50 10.5t48.5 -9.5t36.5 -28.5t18.5 -41t0 -48t-21 -49.5q-40 -60 -99 -113t-137 -91.5 t-175.5 -60.5t-213.5 -22h-95q-23 0 -42 8.5t-31 23.5t-16 35t0 44l24 112h-54q-23 0 -41.5 8.5t-31 24t-17.5 35.5z" />
<glyph d="M-1060 2248q16 77 49.5 134.5t77.5 94.5t92.5 55t95.5 18q49 0 86.5 -22.5t57.5 -56.5q40 34 86 56.5t100 22.5q32 0 62 -9.5t53 -28t37 -45.5t14 -63q10 10 21.5 23.5t23.5 29t23 33.5t19 34q12 23 30 41t40 29t45.5 15t47.5 -2q28 -7 43.5 -21.5t22 -33t3.5 -41.5 t-14 -46q-29 -54 -68 -105.5t-85.5 -93t-97 -69.5t-100.5 -36h-97q-34 0 -51 19t-13 51q6 41 -2 69.5t-40 28.5q-24 0 -40 -14q-14 -14 -23 -38q-10 -30 -35 -51t-59 -21q-31 0 -52 20t-17 52q5 25 -6 38.5t-34 13.5q-28 0 -46 -21t-28 -60q-13 -53 -51 -78.5t-83 -25.5 q-52 0 -75 30.5t-13 73.5z" />
<glyph d="M-772 2413q-3 19 1 42q6 23 17.5 42.5t27 34.5t35.5 23t43 8h132l16 74q5 27 21 51.5t38 41t48.5 25.5t55.5 9q27 0 49.5 -9t37.5 -25.5t21 -40t-1 -52.5l-16 -74h130q23 0 39.5 -8t26.5 -23t13 -35t-3 -42q-4 -23 -15 -42t-27.5 -34t-36.5 -24q-18 -8 -41 -8h-132 l-15 -75q-6 -28 -22 -51t-38 -39.5t-48.5 -26t-54.5 -9.5t-50.5 9.5t-37.5 26t-21 39.5t1 51l16 75h-132q-22 0 -38.5 8.5t-26.5 23.5t-13 34z" />
<glyph d="M-1111.5 -333.5q-3.5 21.5 1.5 46.5q6 24 17.5 44.5t28.5 36.5t38.5 24.5t45.5 8.5h236q25 0 42 -8.5t27.5 -24.5t14.5 -36q5 -21 -1 -45l-73 -339q-5 -30 -21.5 -54t-39.5 -41.5t-50 -27.5t-57 -10t-53 10t-39 27.5t-21.5 41.5t0.5 54l48 223h-61q-24 0 -41.5 9t-28 24 t-14 36.5z" />
<glyph d="M-1444 -333.5q-3 21.5 1 46.5q6 24 18 44.5t29 36.5t38.5 24.5t44.5 8.5h238q24 0 41 -8.5t28 -24.5t14.5 -36.5t-2.5 -44.5l-18 -91q-16 -71 6 -108t88 -37q60 0 100 37t54 108l19 92q6 30 23 53.5t40 41.5t51 27.5t56 9.5q30 0 53 -9.5t38 -27.5t21.5 -41.5t-0.5 -53.5 l-19 -92q-17 -77 -53 -146t-94.5 -121.5t-142.5 -82.5q-86 -30 -198 -30q-105 0 -175.5 26t-109.5 72.5t-50.5 111.5t2.5 145h-57q-24 0 -41.5 9t-28.5 24t-14 36.5z" />
<glyph d="M-1076 -408.5q-8 36.5 1 78.5q8 43 32.5 80t57.5 65.5t73.5 44.5t83.5 16q42 0 74.5 -16t54 -44.5t30 -65.5t-1.5 -80q-8 -42 -31.5 -78.5t-56.5 -63.5t-74 -43t-81 -16q-43 0 -76.5 16t-55.5 43t-30 63.5z" />
<glyph d="M-1076 -333.5q-4 21.5 2 46.5q6 24 17.5 44.5t28.5 36.5t38.5 24.5t45.5 8.5h236q24 0 41.5 -8.5t28 -24.5t14 -36.5t-1.5 -44.5l-72 -339q-6 -30 -22 -54t-39 -41.5t-50.5 -27.5t-57.5 -10t-52.5 10t-38.5 27.5t-21.5 41.5t-0.5 54l49 223h-61q-25 0 -42 9t-27.5 24 t-14.5 36.5z" />
<glyph d="M-1628 -333.5q-4 21.5 2 46.5q6 24 18 44.5t29 36.5t38.5 24.5t44.5 8.5h236q24 0 42 -8.5t29 -24.5t14.5 -36.5t-2.5 -44.5l-18 -91q-16 -71 6 -108t86 -37q61 0 101.5 37t54.5 108l19 92q6 30 23 53.5t40 41.5t50 27.5t57 9.5t53 -9.5t38 -27.5t20.5 -41.5t0.5 -53.5 l-19 -92q-17 -77 -53 -146t-94.5 -121.5t-143 -82.5t-197.5 -30q-105 0 -175.5 26t-109.5 72.5t-50.5 111.5t2.5 145h-57q-24 0 -42 9t-28.5 24t-14.5 36.5z" />
<glyph d="M-1018.5 -408.5q-8.5 36.5 0.5 78.5q8 43 32.5 80t59 65.5t74.5 44.5t83 16q41 0 74.5 -16t55 -44.5t29.5 -65.5q7 -37 -2 -80q-9 -42 -32.5 -78.5t-56.5 -63.5t-73 -43t-81 -16q-43 0 -77.5 16t-56 43t-30 63.5z" />
<glyph d="M-903.5 1809q-5.5 24 1.5 53l27 127q6 29 21.5 53t38.5 41.5t50 26.5t56 9q28 0 52 -9t39.5 -26.5t21.5 -41.5q4 -24 -2 -53l-5 -27h1069q24 0 42 -9.5t29.5 -24.5t15 -36.5t-1.5 -45.5q-6 -24 -18 -45t-30 -36.5t-39.5 -24t-45.5 -8.5h-1210q-29 0 -52 9t-38.5 26.5 t-21 41.5z" />
<glyph d="M-517.5 2406.5q-5.5 24.5 1.5 53.5l47 223q6 28 22.5 51.5t39 41.5t50 27.5t55.5 9.5q29 0 52 -9.5t38 -27.5t21.5 -41.5t-1.5 -51.5l-47 -223q-6 -29 -21.5 -53.5t-38.5 -41.5t-50 -26.5t-56 -9.5q-28 0 -51.5 9.5t-39.5 26.5t-21.5 41.5z" />
<glyph d="M-878 2634q-4 20 0 43q6 23 18.5 43.5t31.5 35.5t41 24.5t45 9.5h181q23 0 41 -9.5t30 -24.5t17 -35q4 -21 0 -44l-25 -112q60 2 112.5 14t94.5 33.5t74.5 51t50.5 63.5q16 24 37.5 42t45.5 27.5t50 10t49 -9.5t37 -28t19 -40.5t-0.5 -48.5t-21.5 -50 q-40 -60 -98.5 -112.5t-136.5 -91.5t-176 -61.5t-212 -22.5h-98q-23 0 -41.5 9.5t-30.5 24.5t-16.5 35t0.5 43l24 111h-54q-23 0 -41.5 9.5t-31 24.5t-16.5 35z" />
<glyph d="M-837 2430q18 77 51.5 134t76.5 94.5t91.5 56t95.5 18.5q49 0 86.5 -23t57.5 -57q41 34 87 57t99 23q32 0 62 -9.5t53 -28.5t36.5 -46.5t13.5 -63.5q11 10 23.5 24t23.5 30.5t22 33.5t18 33q12 22 30.5 41t40.5 29.5t46.5 14t47.5 -0.5q27 -7 43.5 -21.5t22.5 -33.5 t2.5 -41.5t-14.5 -45.5q-29 -54 -68 -105.5t-85.5 -93t-96.5 -70t-101 -37.5h-95q-35 0 -52 20q-16 20 -13 52q6 41 -2 69t-39 28q-24 0 -40.5 -14.5t-23.5 -38.5q-10 -30 -35.5 -50.5t-57.5 -20.5t-53.5 17.5t-15.5 53.5q4 26 -7 39q-12 14 -35 14q-28 0 -45 -20.5 t-27 -60.5q-13 -53 -51 -78t-84 -25q-51 0 -74 30t-15 73z" />
<glyph d="M-706.5 2595q-2.5 20 1.5 42q4 23 15.5 43t27.5 34t36 23t43 9h131l16 74q6 27 21.5 50.5t37.5 41t48.5 26.5t55.5 9q27 0 49 -9t37 -26.5t21 -41t0 -50.5l-16 -74h131q22 0 38.5 -9t27.5 -23t13 -34t-2 -43q-5 -23 -16 -42.5t-27.5 -33.5t-36.5 -22.5t-43 -8.5h-130 l-16 -75q-6 -28 -21.5 -51.5t-38 -40t-49 -26t-54.5 -9.5q-27 0 -50 9.5t-38 26t-20 40t1 51.5l15 75h-131q-23 0 -39.5 8.5t-26 22.5t-12 34z" />
<glyph d="M-867.5 1809q-6.5 24 0.5 53l28 127q5 29 21 53t39 41.5t50 26.5t55 9q29 0 52.5 -9t39.5 -26.5t21.5 -41.5t-0.5 -53l-7 -27h890q24 0 42 -9.5t28.5 -24.5t15 -36.5t-1.5 -45.5t-18.5 -45t-30 -36.5t-39 -24t-45.5 -8.5h-1029q-29 0 -52 9t-38 26.5t-21.5 41.5z" />
<glyph d="M-656.5 2634q-4.5 20 0.5 43t18 43.5t31.5 35.5t41 24.5t44.5 9.5h181q23 0 41.5 -9.5t30.5 -24.5t17 -35q5 -21 -1 -44l-23 -112q59 2 110.5 14t94.5 33.5t74.5 51t49.5 63.5q16 24 37.5 42t46.5 27.5t50.5 10t48.5 -9.5t37.5 -28t19.5 -40.5t-1 -48.5t-21 -50 q-40 -60 -99 -112.5t-137.5 -91.5t-175.5 -61.5t-212 -22.5h-97q-23 0 -41.5 9.5t-30 24.5t-16.5 35t-1 43l25 111h-55q-23 0 -41.5 9.5t-30.5 24.5t-16.5 35z" />
<glyph d="M-662 2430q17 77 50.5 134t76.5 94.5t91.5 56t96.5 18.5t84 -23t60 -57q40 34 85.5 57t100.5 23q31 0 60.5 -9.5t53 -28.5t37 -46.5t13.5 -63.5q12 10 24 24t23.5 30.5t22 33.5t18.5 33q11 22 29.5 41t40.5 29.5t46 14t48 -0.5q27 -7 43.5 -21.5t23 -33.5t3 -41.5 t-15.5 -45.5q-28 -54 -67.5 -105.5t-86 -93t-96.5 -70t-100 -37.5h-97q-35 0 -52 20t-13 52q6 41 -2 69t-38 28q-23 0 -40 -14.5t-24 -38.5q-10 -30 -35 -50.5t-58 -20.5q-31 0 -53 18q-23 17 -17 53q4 26 -6 39.5t-34 13.5q-29 0 -46 -20.5t-28 -60.5q-13 -53 -50.5 -78 t-82.5 -25q-52 0 -75 30t-14 73z" />
<glyph d="M-1140.5 1800.5q-3.5 21.5 2.5 45.5q5 26 17.5 47.5t31 38t40.5 25.5t47 9h1026q26 0 44 -9t29.5 -25.5t14.5 -38.5q5 -21 0 -47q-6 -26 -19 -46.5t-31.5 -37t-40.5 -26t-48 -9.5h-1025q-26 0 -44 9.5t-29.5 26t-15 38z" />
<glyph d="M-1140.5 1800.5q-3.5 21.5 2.5 45.5q5 26 17.5 47.5t31 38t40.5 25.5t47 9h835l20 96q5 30 21.5 54.5t40.5 42t51.5 27.5t57.5 10t54 -10t39 -27.5t21 -42.5t-1 -54l-43 -200q-5 -30 -21.5 -54.5t-39.5 -42.5t-51 -28t-58 -10h-976q-26 0 -44 9.5t-29.5 26t-15 38z" />
<glyph d="M-1140.5 1800.5q-3.5 21.5 2.5 45.5q5 26 17.5 47.5t31 38t40.5 25.5t47 9h626l6 25q11 54 42 102.5t73.5 84.5t95.5 56.5t108 20.5q54 0 97.5 -20.5t71.5 -56.5t39 -84q10 -49 -1 -103q-12 -56 -42.5 -103.5t-74 -83t-96 -56.5t-106.5 -21h-889q-26 0 -44 9.5t-29.5 26 t-15 38zM-202 1991q-4 -19 0.5 -35.5t14.5 -28.5t25.5 -19.5t34.5 -7.5q20 0 38.5 7.5t33.5 19.5t26 29q12 15 16 35t0.5 37.5t-14 30.5t-26.5 20t-34.5 7t-37.5 -7t-34 -20t-26.5 -30.5t-16.5 -37.5z" />
<glyph d="M-1140.5 1800.5q-3.5 21.5 2.5 45.5q5 26 17.5 47.5t31 38t40.5 25.5t47 9h443l23 103q5 27 21 51t38 40t48.5 26t55.5 10q27 0 49 -10t37 -26t21 -40t0 -51l-21 -103h133l22 103q6 27 22 51t38 40t48.5 26t54.5 10t50 -10t37 -26t21 -40q7 -24 1 -51l-46 -214 q-5 -29 -21.5 -52.5t-38 -40t-48.5 -26t-55 -9.5h-983q-26 0 -44 9.5t-29.5 26t-15 38z" />
<glyph d="M-605 2425q-4 23 2 52l47 223q5 28 21.5 52.5t39 41.5t50 26.5t56.5 9.5t51.5 -9.5t37.5 -26.5t21 -41.5t0 -52.5l-47 -223q-6 -29 -22.5 -52.5t-38.5 -41.5t-49 -27t-56 -9t-53 9t-39 27t-21 42z" />
<glyph d="M-791 2613.5q-3 19.5 2 42.5q4 22 16 41.5t28 34.5t36 23t43 8h131l14 74q6 27 22 51.5t38.5 41t49 25.5t55.5 9q27 0 49 -9t37 -25.5t21 -40t0 -52.5l-16 -74h131q22 0 38.5 -8t26.5 -23t12.5 -35t-2.5 -41q-4 -23 -15.5 -42.5t-27 -34.5t-35.5 -23.5t-43 -8.5h-132 l-14 -75q-6 -28 -21.5 -51t-38.5 -39.5t-49 -25.5q-25 -9 -54 -9q-27 0 -50 9t-38 25.5t-20.5 39.5t-0.5 51l16 75h-132q-22 0 -38.5 8.5t-26 23.5t-12.5 34.5z" />
<glyph d="M-1079.5 -333.5q-4.5 21.5 1.5 46.5q6 24 18 44.5t29 36.5t39 24q22 9 45 9h235q24 0 42 -8.5t28.5 -24.5t14.5 -36.5t-2 -44.5l-73 -339q-6 -30 -22.5 -54t-38.5 -41.5t-50 -27.5t-56 -10q-30 0 -54 10t-39 27.5t-21.5 41.5t-0.5 54l49 223h-60q-25 0 -42.5 9t-27.5 24 t-14.5 36.5z" />
<glyph d="M-1432.5 -333.5q-3.5 21.5 2.5 46.5q6 24 18 44.5t28.5 36.5t38 24.5t45.5 8.5h236q24 0 42 -8.5t28 -24.5t14.5 -36.5t-1.5 -44.5l-19 -91q-15 -71 7 -108t86 -37q60 0 100.5 37t55.5 108l19 92q6 30 23 53.5t40 41.5t50 27.5t57 9.5t53 -9.5t38 -27.5t20.5 -41.5 t0.5 -53.5l-19 -92q-17 -77 -53 -146t-94.5 -121.5t-143 -82.5t-197.5 -30q-105 0 -175.5 26t-109.5 72.5t-50.5 111.5t2.5 145h-57q-24 0 -42 9t-29 24t-14.5 36.5z" />
<glyph d="M-1038.5 -408.5q-8.5 36.5 0.5 78.5q8 43 32.5 80t58 65.5t74.5 44.5t84 16q41 0 74 -16t54.5 -44.5t29.5 -65.5t-1 -80q-9 -42 -32.5 -78.5t-57 -63.5t-73.5 -43t-80 -16q-43 0 -76.5 16t-56 43t-31 63.5z" />
</font>
</defs>
</svg>
