<?xml version="1.0" standalone="no"?>
<!DOCTYPE svg PUBLIC "-//W3C//DTD SVG 1.1//EN" "http://www.w3.org/Graphics/SVG/1.1/DTD/svg11.dtd" >
<svg xmlns="http://www.w3.org/2000/svg" xmlns:xlink="http://www.w3.org/1999/xlink" version="1.1">
<metadata></metadata>
<defs>
<font id="db_heaventroundedbold_it" horiz-adv-x="0" >
<font-face units-per-em="2560" ascent="2048" descent="-512" />
<missing-glyph horiz-adv-x="622" />
<glyph unicode="&#x2b;&#x2d;" horiz-adv-x="1488" d="M-77 76q-6 27 3 68q8 40 26 66.5t44.5 43t58 24.5t65.5 8h1048q35 0 63.5 -8t47 -24.5t25.5 -43.5t-1 -66q-9 -40 -27.5 -67.5t-45 -44t-58 -24.5t-65.5 -8h-1047q-34 0 -62.5 8t-48 24.5t-26.5 43.5zM113 1021q14 66 68.5 103t131.5 37h372l80 378q9 37 25.5 68.5 t40.5 54.5t53 35q28 12 63 12q34 0 58.5 -12t38.5 -35t17 -54.5t-4 -68.5l-80 -378h371q78 0 116.5 -37t24.5 -103q-15 -66 -68.5 -104t-132.5 -38h-371l-80 -377q-9 -37 -25.5 -68t-40 -53.5t-53 -35.5t-63.5 -13t-58.5 13t-38 35.5t-17 53.5t3.5 68l81 377h-371 q-39 0 -68.5 11.5t-48 31.5t-25 45t-0.5 54z" />
<glyph unicode="&#x2e;&#x2e;&#x2e;" horiz-adv-x="2481" d="M102 114.5q-8 37.5 1 78.5q9 42 32.5 79t57 64t73.5 43t81 16q42 0 75.5 -16t55 -43t30 -64t-1.5 -79q-8 -41 -32 -78.5t-56.5 -64.5t-73.5 -43t-82 -16q-42 0 -75.5 16t-55 43t-29.5 64.5zM913 114.5q-8 37.5 1 78.5q8 42 32 79t56.5 64t73.5 43t82 16q42 0 75.5 -16 t55 -43t30 -64t-1.5 -79q-9 -41 -32.5 -78.5t-56.5 -64.5t-73.5 -43t-82.5 -16q-41 0 -74.5 16t-55 43t-29.5 64.5zM1729.5 114.5q-7.5 37.5 0.5 78.5q9 42 32.5 79t57 64t73.5 43t82 16q41 0 75.5 -16t56 -43t29.5 -64q6 -37 -2 -79q-9 -41 -32.5 -78.5t-56.5 -64.5 t-73 -43t-83 -16q-41 0 -75 16t-55.5 43t-29 64.5z" />
<glyph unicode="&#x3c;&#x3d;" horiz-adv-x="1603" d="M-23 76q-7 27 2 68q8 40 26.5 66.5t44.5 43t58 24.5t66 8h1016q34 0 62.5 -8t47 -24.5t26 -43.5t-1.5 -66q-8 -40 -27 -67.5t-45 -44t-57.5 -24.5t-66.5 -8h-1015q-34 0 -63 8t-47.5 24.5t-25.5 43.5zM174 1057q10 46 43 83t76 55l1086 454q44 18 86 29t76.5 7.5 t57.5 -25.5q23 -24 28 -70q7 -61 -28.5 -110t-119.5 -81l-856 -342l701 -338q34 -15 57 -38t31.5 -49.5t4.5 -56.5t-26 -60q-27 -40 -57 -60t-63 -25t-69.5 3.5t-74.5 29.5l-892 455q-35 17 -53 55t-8 84z" />
<glyph unicode="&#x3e;&#x3d;" horiz-adv-x="1603" d="M16.5 76q-7.5 27 0.5 68q9 40 28 66.5t45 43t58 24.5t65 8h1015q35 0 63.5 -8t47 -24.5t25.5 -43.5t0 -66q-8 -40 -27.5 -67.5t-45 -44t-57 -24.5t-66.5 -8h-1015q-34 0 -63 8t-47.5 24.5t-26 43.5zM106.5 575q7.5 30 28.5 56.5t53 49.5t74 38l843 338l-710 342 q-70 32 -85 81q-15 47 19 110q26 46 58 69t67.5 26.5t73.5 -7.5t74 -29l894 -454q34 -17 51 -54.5t9 -83.5q-6 -23 -17.5 -44.5t-27 -39.5t-35 -32t-40.5 -23l-1086 -455q-47 -20 -87 -29t-71.5 -4t-53 25t-31.5 60q-8 30 -0.5 60z" />
<glyph unicode="&#xe4f;&#x22;" horiz-adv-x="1811" d="M98 538q-6 100 16 208q23 109 73 210t120.5 188t158 159.5t186.5 123t207 78.5t216.5 28t202 -28t170 -78.5t133 -123t89 -159.5t38.5 -187q7 -102 -16 -211q-23 -108 -72.5 -208t-119 -188t-156.5 -160.5t-185 -123t-204 -78.5t-213 -28q-110 0 -206 28t-173 78.5 t-135 123t-91 160.5t-39 188zM363.5 544.5q21.5 -99.5 79 -174t148 -118t204.5 -43.5q73 0 145 19t139.5 55.5t128 86.5t108.5 111t82.5 130.5t50 143.5t10.5 143t-27 128t-61.5 108.5t-91.5 84.5t-116.5 54.5t-137.5 19.5q-75 0 -149.5 -19.5t-142.5 -54.5t-128 -84.5 t-108 -108.5t-81.5 -128t-49.5 -143q-24 -111 -2.5 -210.5zM488 592q-18 76 1 163q17 84 67 158.5t119.5 132t153 90t169.5 32.5q85 0 152 -32.5t110.5 -90t60.5 -132.5t0 -158q-18 -87 -67.5 -163t-116.5 -133t-148.5 -89.5t-166.5 -32.5q-87 0 -156.5 32.5t-114.5 89.5 t-63 133zM711.5 677.5q6.5 -36.5 28 -63t54.5 -42.5t75 -16q39 0 76 16t68 42.5t53 62.5q24 38 32 78q9 39 0.5 72.5t-28 60t-50 42t-69.5 15.5q-43 0 -82.5 -15.5t-71 -42t-53.5 -60t-30 -72.5q-9 -41 -2.5 -77.5zM831 1810l51 245q6 29 20.5 53t34.5 42t45 27t53 9 q58 0 84 -36t14 -95l-52 -245q-6 -28 -20 -52.5t-34 -41.5t-45 -27t-54 -10q-57 0 -83.5 36.5t-13.5 94.5zM1197 1810l51 245q6 29 20.5 53t34.5 42t45 27t53 9q58 0 83.5 -36t14.5 -95l-53 -245q-6 -28 -19.5 -52.5t-34.5 -41.5t-46 -27t-53 -10q-57 0 -83 36.5t-13 94.5z " />
<glyph unicode="&#xe0e;&#xe3a;" horiz-adv-x="1673" d="M-78.5 89.5q-4.5 26.5 1.5 54.5q5 30 21 56.5t38 46t50 31t57 11.5h34l112 520q7 32 4 66t-23 67q-19 30 -29 52.5t-10.5 41.5t8.5 41.5t31 53.5q51 80 124 152.5t169 128t216 88.5t263 33q135 0 235.5 -24.5t170 -67t111 -103.5t60.5 -132t17 -149.5t-19 -158.5 l-257 -1211q-10 -46 -36.5 -86.5t-63 -71.5t-81.5 -49q-47 -18 -93 -18q-48 0 -86.5 20t-61.5 55q-16 23 -38 42t-53.5 33.5t-71.5 23.5t-93 9q-59 0 -109 -11.5t-98 -32.5t-94.5 -51t-96.5 -66q-24 -17 -51 -24.5t-52 -5t-46.5 14.5t-34.5 33q-13 22 -15 47t5.5 50.5 t25 49.5t40.5 44q62 52 133 96.5t146 76.5t153 50t155 18q96 0 164 -20.5t114 -45.5l224 1054q12 52 6 103.5t-36 93t-88.5 66.5t-151.5 28q-73 1 -131.5 -13.5t-103.5 -36.5t-75 -49t-45 -53q19 -20 31 -43t17 -53t2 -69t-13 -91l-140 -661q-5 -30 -21 -55.5t-39 -45.5 t-50 -31.5t-56 -11.5h-268q-30 0 -52.5 11.5t-36.5 31.5t-18.5 46.5zM764.5 -949q-9.5 42 0.5 88q10 49 38 92t66.5 74t85 50t95.5 19q45 0 83 -19t63 -50t34.5 -74t-0.5 -92q-10 -46 -38 -88t-66 -73.5t-83.5 -50t-92.5 -18.5q-49 0 -87 18.5t-63.5 50t-35 73.5z" />
<glyph unicode="&#xe0f;&#xe3a;" horiz-adv-x="1673" d="M-116 -445.5q-4 29.5 4 63t28 66.5q38 60 86 103.5t101.5 72t111.5 42.5t118 14q43 0 79.5 -9.5t66 -26.5t53 -40t39.5 -49q24 25 54 46t63 37.5t68.5 25t70.5 8.5q50 0 83 -16q34 -15 54 -38l227 1068q12 52 6 103.5t-36 93t-88.5 66.5t-151.5 28q-73 1 -131.5 -13.5 t-103.5 -36.5t-75 -49t-45 -53q19 -20 31 -43t17 -53t2 -69t-13 -91l-140 -661q-5 -30 -21 -55.5t-39 -45.5t-50 -31.5t-56 -11.5h-268q-30 0 -52.5 11.5t-36.5 31.5t-18.5 46.5t1.5 54.5q5 30 21 56.5t38 46t50 31t57 11.5h34l112 520q7 32 4 66t-23 67q-19 30 -29 52.5 t-10.5 41.5t8.5 41.5t31 53.5q51 80 124 152.5t169 128t216 88.5t263 33q135 0 235.5 -24.5t170 -67t111 -103.5t60.5 -132t17 -149.5t-19 -158.5l-263 -1235q-10 -46 -35 -84.5t-61.5 -66.5t-79.5 -44.5t-89 -16.5q-48 0 -86 18t-51 58q-7 21 -15 40.5t-18 34.5t-24 23.5 t-34 8.5q-32 0 -59 -22t-47 -54q-15 -23 -35 -43t-43.5 -33.5t-50 -22t-51.5 -8.5q-55 0 -90.5 30.5t-44.5 79.5q-6 31 -22.5 53.5t-50.5 22.5t-66.5 -23.5t-52.5 -58.5q-22 -37 -52 -60t-63 -35t-65.5 -10.5t-62.5 14.5t-46.5 37t-20.5 53.5zM764.5 -949q-9.5 42 0.5 88 q10 49 38 92t66.5 74t85 50t95.5 19q45 0 83 -19t63 -50t34.5 -74t-0.5 -92q-10 -46 -38 -88t-66 -73.5t-83.5 -50t-92.5 -18.5q-49 0 -87 18.5t-63.5 50t-35 73.5z" />
<glyph unicode="&#xe0e;&#xe38;" horiz-adv-x="1673" d="M-78.5 89.5q-4.5 26.5 1.5 54.5q5 30 21 56.5t38 46t50 31t57 11.5h34l112 520q7 32 4 66t-23 67q-19 30 -29 52.5t-10.5 41.5t8.5 41.5t31 53.5q51 80 124 152.5t169 128t216 88.5t263 33q135 0 235.5 -24.5t170 -67t111 -103.5t60.5 -132t17 -149.5t-19 -158.5 l-257 -1211q-10 -46 -36.5 -86.5t-63 -71.5t-81.5 -49q-47 -18 -93 -18q-48 0 -86.5 20t-61.5 55q-16 23 -38 42t-53.5 33.5t-71.5 23.5t-93 9q-59 0 -109 -11.5t-98 -32.5t-94.5 -51t-96.5 -66q-24 -17 -51 -24.5t-52 -5t-46.5 14.5t-34.5 33q-13 22 -15 47t5.5 50.5 t25 49.5t40.5 44q62 52 133 96.5t146 76.5t153 50t155 18q96 0 164 -20.5t114 -45.5l224 1054q12 52 6 103.5t-36 93t-88.5 66.5t-151.5 28q-73 1 -131.5 -13.5t-103.5 -36.5t-75 -49t-45 -53q19 -20 31 -43t17 -53t2 -69t-13 -91l-140 -661q-5 -30 -21 -55.5t-39 -45.5 t-50 -31.5t-56 -11.5h-268q-30 0 -52.5 11.5t-36.5 31.5t-18.5 46.5zM669.5 -833q-4.5 24 1.5 52q5 27 19.5 51.5t35 42.5t46 28.5t52.5 10.5h286q27 0 47.5 -10.5t33.5 -28.5t17.5 -42.5t-1.5 -51.5l-79 -369q-7 -34 -27 -65t-47 -52t-61.5 -33.5t-68.5 -12.5 q-35 0 -64 12.5t-47 33.5t-25 51.5t0 65.5l50 235h-70q-27 0 -48 10.5t-33.5 29t-17 42.5z" />
<glyph unicode="&#xe0f;&#xe38;" horiz-adv-x="1673" d="M-116 -445.5q-4 29.5 4 63t28 66.5q38 60 86 103.5t101.5 72t111.5 42.5t118 14q43 0 79.5 -9.5t66 -26.5t53 -40t39.5 -49q24 25 54 46t63 37.5t68.5 25t70.5 8.5q50 0 83 -16q34 -15 54 -38l227 1068q12 52 6 103.5t-36 93t-88.5 66.5t-151.5 28q-73 1 -131.5 -13.5 t-103.5 -36.5t-75 -49t-45 -53q19 -20 31 -43t17 -53t2 -69t-13 -91l-140 -661q-5 -30 -21 -55.5t-39 -45.5t-50 -31.5t-56 -11.5h-268q-30 0 -52.5 11.5t-36.5 31.5t-18.5 46.5t1.5 54.5q5 30 21 56.5t38 46t50 31t57 11.5h34l112 520q7 32 4 66t-23 67q-19 30 -29 52.5 t-10.5 41.5t8.5 41.5t31 53.5q51 80 124 152.5t169 128t216 88.5t263 33q135 0 235.5 -24.5t170 -67t111 -103.5t60.5 -132t17 -149.5t-19 -158.5l-263 -1235q-10 -46 -35 -84.5t-61.5 -66.5t-79.5 -44.5t-89 -16.5q-48 0 -86 18t-51 58q-7 21 -15 40.5t-18 34.5t-24 23.5 t-34 8.5q-32 0 -59 -22t-47 -54q-15 -23 -35 -43t-43.5 -33.5t-50 -22t-51.5 -8.5q-55 0 -90.5 30.5t-44.5 79.5q-6 31 -22.5 53.5t-50.5 22.5t-66.5 -23.5t-52.5 -58.5q-22 -37 -52 -60t-63 -35t-65.5 -10.5t-62.5 14.5t-46.5 37t-20.5 53.5zM669.5 -833q-4.5 24 1.5 52 q5 27 19.5 51.5t35 42.5t46 28.5t52.5 10.5h286q27 0 47.5 -10.5t33.5 -28.5t17.5 -42.5t-1.5 -51.5l-79 -369q-7 -34 -27 -65t-47 -52t-61.5 -33.5t-68.5 -12.5q-35 0 -64 12.5t-47 33.5t-25 51.5t0 65.5l50 235h-70q-27 0 -48 10.5t-33.5 29t-17 42.5z" />
<glyph unicode="&#xe0e;&#xe39;" horiz-adv-x="1673" d="M-78.5 89.5q-4.5 26.5 1.5 54.5q5 30 21 56.5t38 46t50 31t57 11.5h34l112 520q7 32 4 66t-23 67q-19 30 -29 52.5t-10.5 41.5t8.5 41.5t31 53.5q51 80 124 152.5t169 128t216 88.5t263 33q135 0 235.5 -24.5t170 -67t111 -103.5t60.5 -132t17 -149.5t-19 -158.5 l-257 -1211q-10 -46 -36.5 -86.5t-63 -71.5t-81.5 -49q-47 -18 -93 -18q-48 0 -86.5 20t-61.5 55q-16 23 -38 42t-53.5 33.5t-71.5 23.5t-93 9q-59 0 -109 -11.5t-98 -32.5t-94.5 -51t-96.5 -66q-24 -17 -51 -24.5t-52 -5t-46.5 14.5t-34.5 33q-13 22 -15 47t5.5 50.5 t25 49.5t40.5 44q62 52 133 96.5t146 76.5t153 50t155 18q96 0 164 -20.5t114 -45.5l224 1054q12 52 6 103.5t-36 93t-88.5 66.5t-151.5 28q-73 1 -131.5 -13.5t-103.5 -36.5t-75 -49t-45 -53q19 -20 31 -43t17 -53t2 -69t-13 -91l-140 -661q-5 -30 -21 -55.5t-39 -45.5 t-50 -31.5t-56 -11.5h-268q-30 0 -52.5 11.5t-36.5 31.5t-18.5 46.5zM168.5 -847.5q-4.5 26.5 1.5 55.5q6 30 22.5 56.5t38 45.5t48.5 30.5t57 11.5h233q30 0 52.5 -11.5t36 -30.5t17.5 -45.5t-1 -56.5l-19 -90q-13 -59 3.5 -88.5t66.5 -29.5q94 0 120 118l16 83 q8 34 28 65.5t49 54.5t62 36q35 14 70 14q34 0 62 -13.5t46.5 -36.5t25 -54t-0.5 -66l-18 -83q-17 -85 -56 -159t-102 -130t-153 -89t-212 -33q-109 0 -182.5 26.5t-116.5 74t-56.5 112.5t-3.5 143l-28 2q-30 0 -52.5 10.5t-36 30.5t-18 46.5z" />
<glyph unicode="&#xe0f;&#xe39;" horiz-adv-x="1673" d="M-116 -445.5q-4 29.5 4 63t28 66.5q38 60 86 103.5t101.5 72t111.5 42.5t118 14q43 0 79.5 -9.5t66 -26.5t53 -40t39.5 -49q24 25 54 46t63 37.5t68.5 25t70.5 8.5q50 0 83 -16q34 -15 54 -38l227 1068q12 52 6 103.5t-36 93t-88.5 66.5t-151.5 28q-73 1 -131.5 -13.5 t-103.5 -36.5t-75 -49t-45 -53q19 -20 31 -43t17 -53t2 -69t-13 -91l-140 -661q-5 -30 -21 -55.5t-39 -45.5t-50 -31.5t-56 -11.5h-268q-30 0 -52.5 11.5t-36.5 31.5t-18.5 46.5t1.5 54.5q5 30 21 56.5t38 46t50 31t57 11.5h34l112 520q7 32 4 66t-23 67q-19 30 -29 52.5 t-10.5 41.5t8.5 41.5t31 53.5q51 80 124 152.5t169 128t216 88.5t263 33q135 0 235.5 -24.5t170 -67t111 -103.5t60.5 -132t17 -149.5t-19 -158.5l-263 -1235q-10 -46 -35 -84.5t-61.5 -66.5t-79.5 -44.5t-89 -16.5q-48 0 -86 18t-51 58q-7 21 -15 40.5t-18 34.5t-24 23.5 t-34 8.5q-32 0 -59 -22t-47 -54q-15 -23 -35 -43t-43.5 -33.5t-50 -22t-51.5 -8.5q-55 0 -90.5 30.5t-44.5 79.5q-6 31 -22.5 53.5t-50.5 22.5t-66.5 -23.5t-52.5 -58.5q-22 -37 -52 -60t-63 -35t-65.5 -10.5t-62.5 14.5t-46.5 37t-20.5 53.5zM168.5 -847.5 q-4.5 26.5 1.5 55.5q6 30 22.5 56.5t38 45.5t48.5 30.5t57 11.5h233q30 0 52.5 -11.5t36 -30.5t17.5 -45.5t-1 -56.5l-19 -90q-13 -59 3.5 -88.5t66.5 -29.5q94 0 120 118l16 83q8 34 28 65.5t49 54.5t62 36q35 14 70 14q34 0 62 -13.5t46.5 -36.5t25 -54t-0.5 -66l-18 -83 q-17 -85 -56 -159t-102 -130t-153 -89t-212 -33q-109 0 -182.5 26.5t-116.5 74t-56.5 112.5t-3.5 143l-28 2q-30 0 -52.5 10.5t-36 30.5t-18 46.5z" />
<glyph unicode=" "  horiz-adv-x="622" />
<glyph unicode="&#x09;" horiz-adv-x="622" />
<glyph unicode="&#xa0;" horiz-adv-x="622" />
<glyph unicode="!" horiz-adv-x="1005" d="M180 179q9 40 32 75t55.5 61.5t72.5 42t80 15.5q42 0 75 -15.5t54.5 -42t30 -61.5t-0.5 -75q-8 -40 -32 -76t-56 -62.5t-72 -42t-82 -15.5q-41 0 -74 15.5t-53.5 42t-29 62.5t-0.5 76zM347 572l65 659l73 345q20 91 79 137.5t152 46.5q92 0 132 -45q41 -48 21 -139 l-74 -345l-216 -659q-17 -51 -52 -69t-82 -18q-25 0 -43.5 3.5t-31 13.5t-18.5 27t-5 43z" />
<glyph unicode="&#x22;" horiz-adv-x="1131" d="M307 1189q-5 28 2 62l79 373q7 33 23.5 62t40 49.5t53.5 31t64 10.5q33 0 58 -10.5t40 -31t19.5 -49.5t-2.5 -62l-81 -373q-7 -34 -23.5 -62t-39 -48t-52.5 -31.5t-63 -11.5q-35 0 -59 11.5t-39 31.5t-20 48zM737 1189q-5 28 4 62l78 373q8 33 24 62t40 49.5t53 31 t64 10.5q32 0 57.5 -10.5t40.5 -31t19 -49.5t-3 -62l-79 -373q-7 -34 -23.5 -62t-40 -48t-53.5 -31.5t-63 -11.5q-34 0 -58.5 11.5t-39.5 31.5t-20 48z" />
<glyph unicode="#" horiz-adv-x="1525" d="M75 566.5q-2 21.5 2.5 43t15.5 43t30 37.5t44 26t59 10h133l104 295h-97q-34 0 -55.5 10t-33 26.5t-13.5 38t2 42.5q4 23 15.5 44t30 37.5t45 26.5t59.5 10h133l135 377q10 27 23.5 50t33.5 41t48 27q29 9 66 9q24 0 43.5 -7t33 -20t19.5 -31.5t1 -41.5 q-1 -11 -7.5 -30.5t-17.5 -55.5l-116 -318h227l135 377q10 27 23.5 50t33.5 41t47 27t66 9q24 0 44 -7t33.5 -20t19.5 -31q7 -19 1 -42q-1 -11 -7.5 -30.5t-19.5 -55.5l-114 -318h100q33 0 53.5 -10t32 -26.5t14 -38t-2 -43t-16 -43t-30 -38t-43.5 -26.5t-58 -10h-136 l-101 -295h95q35 0 56.5 -10t32.5 -26t13.5 -37.5t-2.5 -43.5q-4 -23 -15.5 -43.5t-30 -37t-44 -26.5t-60.5 -10h-133l-136 -379q-10 -27 -22 -50t-32.5 -40t-48.5 -26.5t-67 -9.5q-48 0 -77 26.5t-19 73.5q3 12 9 31t16 54l113 320h-225l-134 -379q-10 -27 -23 -50t-33 -40 t-48.5 -26.5t-67.5 -9.5q-24 0 -44 7t-33 20t-19.5 31t-0.5 42q3 12 9.5 31t16.5 54l114 320h-99q-32 0 -53.5 10t-32.5 26.5t-13 38zM622 726h226l104 295h-226z" />
<glyph unicode="$" horiz-adv-x="1610" d="M26 373q-7 37 1 76q9 40 30.5 74.5t52 60t66.5 40.5t73 15q30 0 55.5 -10t45 -28t31 -42t14.5 -53q3 -53 21.5 -93t50 -70t74 -48t91.5 -25l99 461q-23 5 -45 10t-45 14q-60 17 -117.5 39.5t-106 51.5t-86.5 67t-60 88.5t-28 115t13 146.5q17 84 55 155t91.5 128 t118.5 100.5t137.5 74.5t148 49t150.5 22l27 133q3 16 13.5 31.5t25 27t31 18.5t30.5 7q16 0 29.5 -7t22.5 -18.5t13 -27t-1 -31.5l-28 -137q84 -11 158.5 -36t131.5 -66.5t95.5 -100t54.5 -135.5q9 -37 -1 -76q-9 -40 -30.5 -73.5t-51.5 -60t-66.5 -41t-74.5 -14.5 q-30 0 -55 9.5t-44 28t-31 42t-15 52.5q-8 67 -43 105t-96 52l-90 -424q26 -8 52.5 -15t56.5 -15q30 -9 76 -21t96 -34.5t98 -57.5t80.5 -88t45 -126.5t-9.5 -171.5q-24 -112 -83.5 -208.5t-151.5 -169.5t-215 -120t-275 -60l-34 -160q-3 -16 -13.5 -30.5t-24.5 -26.5 t-30.5 -19t-31.5 -7q-16 0 -29 7t-22 19t-13 27q-3 13 -1 30l33 156q-103 5 -195 34.5t-164.5 81.5t-119.5 127t-61 171zM622.5 1229.5q3.5 -26.5 23.5 -48t59.5 -41.5t103.5 -42l82 388q-43 -3 -85 -16t-78.5 -36.5t-62.5 -58.5t-37 -84q-9 -35 -5.5 -61.5zM798 272 q46 5 91.5 20t85 40.5t68.5 62.5t41 90q9 44 -2 76t-38 56.5t-68 41t-89 30.5z" />
<glyph unicode="%" horiz-adv-x="2481" d="M265.5 1047.5q-3.5 92.5 19.5 198.5q21 101 62 193.5t105 164t153.5 112.5t208.5 41q83 0 143 -17.5t100.5 -51t63 -81t31 -104t3.5 -121t-20 -132.5q-21 -99 -64.5 -190.5t-110 -162t-156.5 -113.5t-206 -43t-187.5 39t-106.5 107t-38.5 160.5zM533.5 1120 q-1.5 -33 3.5 -63t16.5 -52.5t32 -36t55.5 -13.5q51 0 89 28.5t64.5 72.5t43.5 95.5t26 98.5q5 30 11 63t8 65.5t-2 62.5t-17 53t-36 36q-21 13 -59 13q-31 0 -58 -13t-48.5 -36t-39.5 -53t-31.5 -62.5t-23.5 -65.5t-16 -63t-11.5 -63.5t-7 -66.5zM556.5 83q4.5 20 17 43 t32.5 48l1134 1506q12 13 24.5 27.5t29 26t36.5 18.5t42 7q26 0 44.5 -8.5t31.5 -23.5t18 -34q5 -17 0.5 -37t-17.5 -43t-31 -49l-1134 -1505q-10 -13 -24 -27.5t-30 -26t-35.5 -18.5t-42.5 -7q-26 0 -45 9.5t-31.5 23.5t-18 32t-1 38zM1371.5 293.5q-4.5 91.5 17.5 194.5 q21 101 62.5 194t107 164.5t158 113.5t215.5 42q121 0 194 -40.5t106 -109t34 -161.5t-22 -196q-22 -99 -65 -191t-108.5 -163t-154 -113t-201.5 -42q-118 0 -191.5 40t-110.5 108t-41.5 159.5zM1643.5 365q-0.5 -33 4 -62.5t16.5 -52.5t33.5 -36.5t55.5 -13.5q52 0 88.5 28 t62.5 71t42.5 95t26.5 101q9 44 15.5 95.5t0 96t-30 73t-72.5 28.5q-51 0 -90 -29.5t-65 -73.5t-43.5 -96.5t-27.5 -98.5q-5 -28 -10.5 -60t-6 -65z" />
<glyph unicode="&#x26;" horiz-adv-x="1617" d="M-14.5 336q-1.5 59 11.5 117q20 98 67.5 179.5t113 147t146.5 118t169 90.5q-25 37 -47.5 76t-36.5 81.5t-17.5 89t7.5 101.5q23 105 79.5 186t134.5 136t172 83.5t192 28.5q95 0 166 -19t120.5 -50.5t78.5 -74t43.5 -89.5t14.5 -96q-1 -48 -10 -94q-16 -73 -52.5 -138.5 t-88.5 -121.5t-117 -101t-138 -77l181 -286q33 45 67.5 93.5t66 83t68 54.5t73.5 20q30 0 56 -11t44.5 -29.5t26 -43.5t2.5 -55q-7 -31 -32 -75t-60.5 -89t-76 -88t-80.5 -74l109 -176q25 -40 12 -97q-5 -29 -23.5 -56t-46.5 -48.5t-65.5 -35t-79.5 -13.5q-20 0 -35.5 5.5 t-27.5 15t-21 21.5t-19 26l-86 129q-143 -114 -293.5 -162.5t-314.5 -48.5q-96 0 -169 20t-126.5 54t-87 80.5t-51.5 100t-19.5 112.5zM333 485q-11 -55 3 -97t46.5 -72t78 -45.5t98.5 -15.5q97 0 176.5 35t149.5 106l-256 396q-53 -28 -101 -59t-87 -66.5t-67.5 -80 t-40.5 -101.5zM721 1285.5q5 -35.5 21.5 -65.5t40.5 -56.5t51 -55.5q34 17 73.5 40t76 53t64 69.5t39.5 90.5q7 33 -1 62.5t-27 51t-50 34.5t-71 13t-75 -11.5t-63.5 -33t-47 -49.5t-26.5 -61q-10 -46 -5 -81.5z" />
<glyph unicode="'" horiz-adv-x="687" d="M297 1189q-5 28 2 62l80 373q7 33 23.5 62t40 49.5t53.5 31t63 10.5t58 -10.5t41 -31t20 -49.5t-3 -62l-80 -373q-7 -34 -23.5 -62t-39.5 -48t-53 -31.5t-63 -11.5q-34 0 -59 11.5t-40 31.5t-20 48z" />
<glyph unicode="(" horiz-adv-x="823" d="M56 253.5q-3 214.5 40 417.5t137 417.5t230 427.5q58 90 102 155t77.5 109.5t61 70t49.5 40t43 18.5q22 4 45 4q30 0 53 -10t38 -26.5t20.5 -37.5t-0.5 -47q-7 -33 -37 -89t-73.5 -133t-96.5 -173t-104.5 -209.5t-97 -243t-77.5 -273.5q-30 -145 -39 -273.5t-5.5 -242.5 t15 -210.5t22.5 -173t17.5 -132t-0.5 -88.5q-6 -26 -21 -47.5t-36 -38.5t-49 -26.5t-58 -9.5q-23 0 -41.5 4.5t-36 18t-32.5 40t-30.5 70t-32 108.5t-36.5 156q-44 213 -47 427.5z" />
<glyph unicode=")" horiz-adv-x="823" d="M-164.5 -496.5q-5.5 21.5 0.5 47.5q5 33 36 88.5t74 132t95.5 173t104 210.5t97.5 243.5t77 272.5q30 144 39.5 273.5t6 243t-15 209.5t-23 173t-18 133t2.5 89q5 26 19.5 47t36.5 37.5t50 26.5q25 10 57 10q23 0 42 -4t35.5 -18.5t31.5 -40t31 -70t32.5 -109.5 t36.5 -155q44 -213 47 -427.5t-40 -417.5t-137.5 -417t-230.5 -428q-57 -91 -101.5 -156t-78 -108.5t-60 -70t-49.5 -40t-43.5 -18t-43.5 -4.5q-30 0 -53.5 9.5t-38 26.5t-20 38.5z" />
<glyph unicode="*" horiz-adv-x="1016" d="M197 1447q6 30 22 51t35 35t38.5 21.5t33.5 7.5q13 0 30 -4.5t32 -11.5l168 -65l45 209q12 56 46 85.5t85 29.5q52 0 73.5 -29.5t8.5 -85.5l-45 -210l198 66q15 6 35 11t33 5t29.5 -7.5t30 -21.5t20 -35.5t0.5 -50.5q-17 -71 -111 -100q-56 -16 -110.5 -30t-108.5 -30 l103 -184q9 -16 14 -34.5t0 -38.5q-7 -32 -25 -53.5t-39 -33.5t-41.5 -16.5t-30.5 -4.5q-27 0 -47.5 11t-30.5 31q-23 50 -46.5 100t-46.5 100q-44 -51 -88 -100.5t-89 -99.5q-18 -20 -43.5 -31t-51.5 -11q-11 0 -29.5 4.5t-34.5 16.5t-25 33.5t-2 53.5q4 20 17 37.5 t28 35.5l182 184l-194 60q-85 27 -68 100z" />
<glyph unicode="+" horiz-adv-x="1488" d="M46 708q14 66 69 104.5t132 38.5h372l80 375q9 37 25.5 68.5t40 54t53 35t63.5 12.5t58.5 -12.5t38.5 -35t17 -54t-5 -68.5l-79 -375h372q38 0 67.5 -10t48 -28.5t25 -45t-0.5 -59.5q-14 -66 -68.5 -104.5t-133.5 -38.5h-372l-78 -376q-9 -37 -26 -68t-40.5 -54t-53 -35 t-63.5 -12q-35 0 -58.5 12t-37.5 35t-18 54t5 68l80 376h-372q-38 0 -67.5 12t-47.5 32t-25 46t-1 53z" />
<glyph unicode="," horiz-adv-x="760" d="M-66 -317q6 25 26 42.5t48.5 34.5t63.5 37t70 48.5t66.5 69.5t54.5 102q-37 -21 -87 -21q-42 0 -71 15.5t-46.5 41.5t-21.5 59.5t4 70.5q9 42 32.5 77.5t56.5 62.5t74 43t83 16q58 0 97 -20t60.5 -56.5t25.5 -86.5q2 -50 -10 -112q-12 -64 -33.5 -117.5t-48 -98.5 t-59 -81.5t-66.5 -68.5q-23 -20 -54.5 -43.5t-65.5 -43.5t-68.5 -32t-61.5 -12q-40 0 -57.5 22t-11.5 51z" />
<glyph unicode="-" horiz-adv-x="1195" d="M60.5 641q-6.5 28 0.5 68q9 40 27.5 66.5t44.5 43t58 24.5t66 8h720q34 0 62.5 -8t47 -24.5t26.5 -43.5t0 -66q-9 -40 -28.5 -68t-45 -44t-57.5 -24t-65 -8h-720q-34 0 -63.5 8t-48 24t-25 44z" />
<glyph unicode="." horiz-adv-x="760" d="M56.5 114.5q-7.5 37.5 0.5 78.5q9 42 32.5 79t57 64t73.5 43t82 16q41 0 75.5 -16t56 -43t29.5 -64q6 -37 -3 -79q-8 -41 -31.5 -78.5t-56.5 -64.5t-73 -43t-83 -16q-42 0 -75.5 16t-55 43t-29 64.5z" />
<glyph unicode="/" horiz-adv-x="995" d="M-112 87q5 20 16.5 41t23.5 42l961 1583q9 16 22.5 34t33 33.5t46.5 25.5t67 10q23 0 46 -8.5t39.5 -25.5t24 -41t2.5 -54q-5 -20 -16 -41t-23 -42l-962 -1583q-10 -15 -23 -32.5t-32.5 -33t-47 -26t-66.5 -10.5q-23 0 -46 8.5t-39.5 25t-24 40t-2.5 54.5z" />
<glyph unicode="0" horiz-adv-x="1391" d="M22.5 413.5q-3.5 74.5 2.5 151.5t20 156.5t29 153.5q20 95 49 199t71.5 204.5t103.5 190.5t147 158.5t201 108.5t265 40q113 0 196 -23.5t141.5 -64.5t93.5 -97.5t53.5 -123t22 -140.5t-2.5 -150.5t-19 -153t-29 -148.5q-21 -100 -50 -206t-71.5 -206t-103.5 -190 t-147.5 -157t-201.5 -106.5t-267 -39.5q-113 0 -195 23t-140 63t-94 95t-53.5 121.5t-21 141zM401.5 502.5q3.5 -60.5 24 -107t61.5 -74.5t108 -28q69 0 122.5 28t94 74.5t70.5 107t51.5 125t36.5 128.5q17 65 28 119q12 53 23 116.5t16 127.5t1.5 124t-25 105.5t-63 73.5 t-109.5 28q-67 0 -119.5 -28t-92.5 -73.5t-69 -105.5t-51.5 -124t-37.5 -127.5t-26 -116.5q-12 -54 -24 -118.5t-17.5 -129t-2 -125z" />
<glyph unicode="1" horiz-adv-x="1391" d="M259 1261q7 33 21.5 57.5t38.5 41.5t60 28.5t84 21.5l95 19q70 14 118 44t83.5 66.5t62.5 75t56 69.5t64 51.5t86 20.5q30 0 54.5 -7t39.5 -26.5t19 -51.5t-6 -81l-297 -1398q-10 -48 -28 -87t-46 -67.5t-65.5 -44.5t-89.5 -16q-51 0 -82.5 16t-46.5 44.5t-16 67.5t9 87 l215 1008q-55 -20 -104 -33.5t-92.5 -21.5t-78.5 -11.5t-60 -3.5q-60 0 -85.5 28.5t-8.5 102.5z" />
<glyph unicode="2" horiz-adv-x="1391" d="M-72 119q-5 33 2 65q29 133 173 277.5t405 293.5q95 54 170.5 97t133 80.5t100.5 69.5t72.5 67t47.5 75t29 92q13 60 2 105t-40 74t-72 43.5t-92 14.5q-58 0 -109.5 -13.5t-97.5 -44.5t-86 -81t-77 -126q-16 -34 -32.5 -60.5t-37.5 -43.5t-47.5 -25.5t-64.5 -8.5 q-37 0 -67 7.5t-50 27.5t-27 51.5t3 79.5q16 75 54.5 144.5t93.5 129.5t123.5 108t148 81.5t166 53t175.5 19.5q144 0 250 -43t170 -115t86.5 -166t-0.5 -195q-26 -120 -70.5 -205.5t-110 -150.5t-152 -118t-193.5 -108q-116 -60 -209 -109.5t-162.5 -92.5t-113.5 -81.5 t-64 -72.5h726q34 0 61.5 -9t44.5 -28t23.5 -49t-2.5 -73q-17 -84 -73.5 -120t-139.5 -36h-908q-53 0 -86.5 16.5t-52 43t-23.5 59.5z" />
<glyph unicode="3" horiz-adv-x="1391" d="M-16.5 315q-3.5 45 3.5 80q9 38 29 70.5t48 54.5t62 35.5t71 13.5q42 0 65.5 -13t38 -33.5t22 -47t17 -54.5t23 -54.5t38.5 -47t66 -33.5t104 -13q68 0 122.5 19.5t95 53t68 80.5t38.5 105q9 44 8 82t-18 67t-53.5 47.5t-99.5 26.5q-26 2 -58.5 7t-61.5 18t-45 38t-8 68 q12 49 31 79.5t50 48.5t71.5 26t93.5 11q93 5 146 55t71 136q12 56 2 95.5t-36.5 65t-66.5 37t-89 11.5q-71 0 -121 -20t-86.5 -51t-65 -66t-58 -65.5t-64 -50.5t-81.5 -20q-31 0 -60 9t-49 28t-27 47q-6 27 6 65q23 71 64.5 130.5t95.5 107.5t118.5 83.5t132 60t136 36 t131.5 11.5q104 -2 184 -20.5t137.5 -52t93 -78.5t53.5 -98t18.5 -111.5t-11.5 -118.5q-26 -119 -95.5 -204t-183.5 -141q64 -20 105 -56.5t62 -86.5t22.5 -111.5t-12.5 -131.5q-31 -146 -106.5 -254t-179.5 -179.5t-231.5 -107t-261.5 -35.5q-115 0 -198.5 22t-143 57.5 t-96 81.5t-55 93t-22 92z" />
<glyph unicode="4" horiz-adv-x="1391" d="M-40.5 509q-3.5 33 1.5 63q10 49 29 81t49 63l955 973q36 37 78 52.5t95 15.5q49 0 80 -12.5t48.5 -36t20 -56.5t-4.5 -72l-190 -896h122q30 0 52.5 -12.5t36.5 -33t17.5 -48t-3.5 -57.5q-6 -30 -21 -57t-38 -47t-50 -32t-59 -12h-121l-50 -236q-9 -39 -24.5 -70.5 t-41.5 -53.5t-62.5 -35t-83.5 -13t-77 13t-46.5 35t-19.5 54.5t6 69.5l50 236h-602q-47 0 -78 17.5t-48 45.5t-20.5 61zM359 684h412l114 537h-4z" />
<glyph unicode="5" horiz-adv-x="1391" d="M-41.5 253q-5.5 39 1.5 73q9 37 28 69.5t48.5 55t65 35.5t75.5 13q39 0 62.5 -18t42 -45t37 -59t46.5 -59.5t70.5 -45t109.5 -17.5q71 0 136 27t117.5 72t88 103t48.5 119q17 80 3 137.5t-52.5 93t-96.5 52t-130 16.5q-74 0 -130 -18.5t-102.5 -41.5t-88 -42t-89.5 -19 q-69 0 -100.5 25.5t-38 67.5t6.5 96t35 109l195 535q12 32 32.5 61t46.5 50.5t56 34.5t60 13h762q36 0 64.5 -8.5t46.5 -28t24.5 -49.5t-3.5 -73q-9 -41 -27.5 -71t-44.5 -49.5t-57 -28.5t-66 -9h-649l-139 -377l6 -5q80 58 178 87.5t194 29.5q117 0 218 -34.5t168 -105 t93 -178t-4 -251.5q-32 -152 -108.5 -269t-186 -196.5t-245 -120t-286.5 -40.5q-108 0 -191 17t-143 45.5t-99.5 65.5t-61 77t-27 79z" />
<glyph unicode="6" horiz-adv-x="1391" d="M23 577.5q7 97.5 28 196.5q59 276 150.5 466.5t212.5 309.5t267.5 171t318.5 52q108 0 192 -30t140.5 -77t80 -105.5t11.5 -116.5q-5 -25 -18 -51t-34.5 -46t-48 -33.5t-59.5 -13.5q-46 0 -71.5 18t-45.5 48q-20 31 -46.5 54t-57.5 38t-66.5 23t-71.5 8q-63 0 -117 -19 t-100 -51.5t-82.5 -77t-65 -96t-48.5 -108t-32 -113.5l-10 -46q49 39 97 69t98 50t105 30.5t117 10.5q137 0 233.5 -44t152 -119.5t71.5 -175.5t-8 -211q-32 -155 -106.5 -270.5t-176 -192t-225 -116t-256.5 -39.5q-130 0 -223.5 32t-156 89.5t-97 134t-47 165.5t-5.5 186.5 zM377 435q8 -57 36.5 -97.5t77 -61.5t114.5 -21t123 21t102 61.5t76.5 97.5t47.5 128q17 79 7.5 137t-40 95t-78.5 55.5t-108 18.5q-59 0 -115.5 -20t-103.5 -59t-81.5 -96.5t-49.5 -130.5q-16 -71 -8 -128z" />
<glyph unicode="7" horiz-adv-x="1391" d="M192.5 82q-0.5 35 9.5 75q10 46 37.5 114t70 148.5t96.5 172.5t117 185.5t132.5 186.5t141.5 178.5t145 159.5t142 129h-767q-31 0 -57.5 9t-43.5 27.5t-23 48.5q-4 30 4.5 73t26.5 72t43.5 48.5t57 28t65.5 8.5h984q35 0 64 -8.5t47 -28.5t23.5 -55t-5.5 -88 q-9 -37 -33 -71.5t-63.5 -74t-92.5 -88.5t-117 -118.5t-137 -162.5t-154.5 -219.5t-169 -290t-178.5 -375.5q-23 -56 -44.5 -94t-46.5 -60.5t-56 -32.5t-74 -10q-52 0 -83 14t-46 39t-15.5 60z" />
<glyph unicode="8" horiz-adv-x="1391" d="M-13 339.5q-10 82.5 13 188.5q16 73 46.5 136.5t76.5 115.5t105 92t132 62q-45 26 -79.5 64.5t-53 85.5t-23 103t8.5 114q22 103 82 190.5t150 150.5t208.5 98.5t258.5 35.5t242.5 -35.5t167 -98.5t86.5 -150.5t1 -190.5q-13 -58 -40.5 -114t-66.5 -103t-89 -85.5 t-108 -64.5q63 -23 107 -62.5t66.5 -91.5t26 -116.5t-11.5 -135.5q-23 -106 -67.5 -188.5t-104.5 -144.5t-132 -105.5t-150 -70t-157.5 -38.5t-153.5 -12q-75 0 -149 12t-140 38.5t-120.5 70t-88 105.5t-43.5 144.5zM349.5 409.5q10.5 -50.5 42 -85.5t81.5 -53t115 -18 q64 0 122 18t103.5 53t78.5 85.5t46 115.5q9 40 4.5 89.5t-29.5 92t-74.5 72t-132.5 29.5t-145 -29.5t-105.5 -72t-69.5 -92t-34 -89.5q-13 -65 -2.5 -115.5zM544.5 1174q11.5 -43 40 -71t73 -42t98.5 -14q55 0 105.5 14t91.5 42t70 71q29 42 41 102q11 55 1 98t-38.5 72.5 t-73 44.5t-98.5 15t-105 -15t-92.5 -44.5t-70.5 -72.5t-41 -98q-13 -59 -1.5 -102z" />
<glyph unicode="9" horiz-adv-x="1391" d="M24 299q6 26 19 50t33.5 45t48 34.5t59.5 16.5q23 1 40.5 -3t31.5 -14t25 -23t19 -27q40 -63 105 -92.5t137 -29.5q63 0 117.5 18t100 51t82 77t65 95.5t48.5 109t33 114.5l10 44q-47 -39 -95 -69t-98.5 -50t-105.5 -30t-117 -10q-137 0 -233.5 44t-152.5 119t-71.5 175 t8.5 213q31 154 105 269.5t176 192.5t226 115.5t257 38.5q130 0 223 -32t155.5 -88.5t97 -133t46.5 -166t5 -187.5t-27 -196q-59 -276 -150.5 -467t-212 -310t-268.5 -171t-317 -52q-109 0 -193 30t-140 78t-80.5 106t-11.5 115zM487 1043q9 -58 39 -95t78 -55.5t108 -18.5 q59 0 116 20t103.5 59t81.5 96.5t51 131.5q16 72 8 129t-36.5 96.5t-77.5 61t-114 21.5q-66 0 -123 -21.5t-102.5 -61t-77.5 -96.5t-46 -129q-17 -80 -8 -138z" />
<glyph unicode=":" horiz-adv-x="760" d="M56.5 114.5q-7.5 37.5 0.5 78.5q9 42 32.5 79t57 64t73.5 43t82 16q41 0 75.5 -16t56 -43t29.5 -64q6 -37 -3 -79q-8 -41 -31.5 -78.5t-56.5 -64.5t-73 -43t-83 -16q-42 0 -75.5 16t-55 43t-29 64.5zM251 1028.5q-8 36.5 1 78.5q8 41 32.5 78.5t57.5 65t73 43.5t83 16 q41 0 74.5 -16t55 -43.5t29.5 -64t-1 -79.5q-8 -42 -32.5 -78.5t-57.5 -64t-73 -43.5q-38 -16 -81 -16q-42 0 -76 16t-55.5 43.5t-29.5 64z" />
<glyph unicode=";" horiz-adv-x="760" d="M-66 -317q6 25 26.5 42.5t50 34.5t65.5 37t70 48.5t65 69.5t52 102q-37 -21 -87 -21q-42 0 -71 15.5t-46.5 41.5t-21.5 59.5t4 70.5q9 42 32.5 77.5t56.5 62.5t72 43q41 16 81 16q59 0 99 -20t62 -56t26.5 -86.5t-10.5 -112.5q-12 -64 -33.5 -117.5t-48 -98.5t-59 -81.5 t-66.5 -68.5q-23 -20 -54.5 -43.5t-65.5 -43.5t-68.5 -32t-61.5 -12q-40 0 -57.5 22t-11.5 51zM251 1028.5q-8 36.5 1 78.5q8 41 32.5 78.5t57.5 65t73 43.5t83 16q41 0 74.5 -16t55 -43.5t29.5 -64t-1 -79.5q-8 -42 -32.5 -78.5t-57.5 -64t-73 -43.5q-38 -16 -81 -16 q-42 0 -76 16t-55.5 43.5t-29.5 64z" />
<glyph unicode="&#x3c;" horiz-adv-x="1603" d="M106 734q10 45 43 83t76 55l1085 455q50 23 83 28.5t58 5.5q30 0 52.5 -9t36 -27t18.5 -41.5t-1 -53.5q-4 -22 -12 -42.5t-24.5 -40t-42 -37t-68.5 -35.5l-855 -341l709 -344q34 -15 53.5 -34t27.5 -38t6.5 -39t-5.5 -42q-6 -30 -21 -53.5t-36.5 -40.5t-48 -27t-55.5 -10 q-25 0 -55 5.5t-72 28.5l-892 455q-34 17 -52 55t-8 84z" />
<glyph unicode="=" horiz-adv-x="1488" d="M-9 458q8 32 25.5 59.5t44 46.5t61 29t72.5 10h1034q39 0 69 -10t47 -29t24.5 -46.5t0.5 -59.5q-8 -33 -25.5 -60.5t-44 -46.5t-60.5 -29t-72 -10h-1035q-39 0 -67.5 12.5t-46.5 33t-24.5 46.5t-2.5 54zM99 901q-7 26 0 54q5 33 23 59.5t44.5 46t60 29.5t72.5 10h1035 q77 0 116 -39.5t24 -105.5q-7 -33 -25 -60t-44 -46.5t-60 -29.5t-72 -10h-1036q-38 0 -66.5 12.5t-46.5 33t-25 46.5z" />
<glyph unicode="&#x3e;" horiz-adv-x="1603" d="M35 184.5q-5 24.5 1 52.5q4 20 12 41t23.5 40t42 38t68.5 34l856 344l-711 341q-34 16 -52.5 34.5t-26.5 38t-7 40.5q-1 20 5 42q6 30 21.5 53.5t37 41.5t47.5 27t56 9q25 0 55 -6q30 -5 72 -28l892 -455q34 -17 52 -55t8 -83q-10 -46 -43 -83.5t-75 -55.5l-1086 -455 q-50 -23 -83.5 -28.5t-57.5 -5.5q-30 0 -52.5 10t-36 27t-18.5 41.5z" />
<glyph unicode="?" horiz-adv-x="1480" d="M259.5 1214q-6.5 30 0.5 64l3.5 14l3.5 14q45 115 115 205.5t160 153t197.5 95.5t225.5 33q126 0 224 -35t159.5 -102t82 -163.5t-4.5 -218.5q-17 -80 -52.5 -142t-81 -112t-95 -90.5t-94.5 -75.5q-38 -29 -73.5 -54.5t-66.5 -54.5t-54.5 -63t-37.5 -79 q-10 -31 -30 -57.5t-47.5 -46t-58 -30.5t-61.5 -11q-35 0 -63 12.5t-45.5 35.5t-24 53t0.5 64q1 8 4 18q20 67 56 119t79 95t89 80q47 35 89 69q33 27 71 59t71 68.5t57.5 76.5t31.5 83q5 49 -3.5 89.5t-31.5 69.5t-60.5 44.5t-89.5 15.5q-60 0 -109.5 -19.5t-89.5 -54.5 t-71.5 -83.5t-51.5 -105.5q-11 -29 -31.5 -53t-46 -42t-55.5 -28t-61 -10q-34 0 -61.5 13t-44.5 35t-23.5 52zM415.5 106.5q-7.5 36.5 0.5 77.5q9 42 32.5 78.5t56.5 64.5t72 43.5t81 15.5q40 0 73 -15.5t54.5 -43.5t29 -64.5t-0.5 -78.5q-9 -41 -33.5 -77.5t-56.5 -63.5 t-72 -43.5t-80 -16.5q-41 0 -73.5 16.5t-54 43.5t-29 63.5z" />
<glyph unicode="@" horiz-adv-x="2130" d="M163.5 627q-9.5 118 19.5 250q27 130 85.5 247t141 218t186 181.5t220 138t244 89t257.5 31.5q116 0 220.5 -21.5t191 -64.5t150.5 -108.5t102 -154.5t45 -202t-21 -247q-26 -122 -78 -216t-120 -165t-146 -119t-153 -78t-141.5 -43t-112.5 -13q-141 0 -120 123h-4 q-56 -51 -129 -78q-71 -26 -146 -26q-73 0 -131.5 32t-95 88.5t-48.5 134t6 165.5q27 125 86.5 226.5t139.5 175t171.5 113.5t183.5 40q56 0 98 -8.5t74 -28t55 -47t42 -65.5l20 43q13 28 28.5 45t33.5 26t37 12t35 3q23 0 40 -6.5t29.5 -19t16.5 -32t-1 -45.5 q-2 -11 -7.5 -27t-17.5 -41l-164 -418q-3 -9 -8 -20t-10 -23.5t-8.5 -24t-5.5 -18.5q-4 -23 3 -35t33 -12q33 0 75 24.5t84.5 71.5t78 115.5t54.5 157.5q31 146 7 256.5t-94.5 186.5t-180.5 114.5t-250 38.5q-94 0 -185 -25t-175.5 -70t-159.5 -108t-135 -139.5t-102 -165 t-62 -182.5q-35 -161 -8.5 -287.5t101 -214.5t192 -135t264.5 -47q91 0 162 11.5t126 29.5t96 38t72 37.5t55.5 29t44.5 11.5q17 0 33 -7.5t26 -20t14 -30t0 -36.5q-7 -31 -42 -64t-90 -64.5t-124 -59t-141 -48t-144 -32t-134 -11.5q-131 0 -246.5 30t-209.5 86t-165 136 t-112.5 180t-51 218zM851.5 731.5q6.5 -39.5 26.5 -66.5t52 -42q31 -14 74 -14q51 0 100 20t87.5 57.5t66.5 86t40 106.5q10 46 6 84t-22 65t-49.5 42t-77.5 15q-52 0 -101.5 -21.5t-89.5 -57.5t-68 -83.5t-39 -100.5q-12 -51 -5.5 -90.5z" />
<glyph unicode="A" horiz-adv-x="1763" d="M-47 96.5q-7 33.5 1 73.5q9 37 27 67l827 1375q40 65 100 101.5t134 36.5h91q34 0 64.5 -6.5t55.5 -23.5t42.5 -45.5t24.5 -74.5l242 -1363q2 -15 2 -32.5t-4 -34.5q-8 -40 -30.5 -73.5t-53 -59.5t-68 -40t-75.5 -14q-62 0 -102.5 34t-49.5 89l-44 312h-654l-177 -312 q-16 -27 -38 -49.5t-48.5 -39t-57 -25.5t-60.5 -9q-41 0 -71 14t-50.5 40t-27.5 59.5zM649 706h439l-86 614z" />
<glyph unicode="B" horiz-adv-x="1738" d="M50 137q-5 19 -4 41q0 23 5 47l275 1289q10 49 37 91t66.5 73.5t86.5 50t96 18.5h419q59 0 128 -1t137 -7.5t128 -21t100 -41.5q42 -29 76 -66.5t56 -87.5t28 -108q2 -16 2 -33q0 -44 -10 -95q-13 -59 -38 -112t-60 -97.5t-78 -80t-91 -62.5q55 -26 98 -66.5t69 -93 t34 -114.5q3 -21 2 -43q0 -41 -9 -83q-14 -66 -46.5 -131.5t-80 -125.5t-110.5 -110.5t-139 -88t-164.5 -58t-187.5 -20.5h-643q-48 0 -85.5 18t-62 48.5t-34.5 70.5zM456 303h451q63 0 115 18.5t92 50t65.5 74.5t37.5 95q5 24 5 45q0 30 -10 54q-18 41 -56.5 66.5 t-91.5 37.5q-52 11 -109 11h-403zM612 1035h333q82 0 140.5 14.5t100 41.5t65.5 66q25 38 33 86q6 30 6 54q0 27 -8 48q-14 39 -49 61.5t-87.5 29.5t-114.5 7h-333z" />
<glyph unicode="C" horiz-adv-x="1780" d="M90 624v13q0 111 26 230q27 130 78.5 248t123.5 220t163.5 185.5t199.5 143t231 92t258 32.5q113 0 212 -27.5t178 -79t133 -127t79 -173.5q5 -20 5 -41q0 -19 -4 -39q-8 -37 -29.5 -70t-51.5 -57t-66 -38.5t-73 -14.5q-56 0 -95 31t-48 79q-11 50 -37.5 93t-67.5 74 t-92.5 48.5t-111.5 17.5q-86 0 -159.5 -22.5t-135 -64t-111 -97.5t-87 -123t-65 -141t-44.5 -149q-15 -73 -19 -145q-1 -18 -2 -35q0 -53 9 -102q11 -64 36 -120t68.5 -97t108 -63.5t149.5 -22.5q76 0 142 22.5t122.5 60.5t100.5 89.5t76 107.5q14 24 35.5 44t46.5 34.5 t53 22.5t56 8q39 0 69 -14.5t49.5 -39t26.5 -56.5q7 -35 0 -72q-4 -21 -13.5 -41t-22.5 -38q-67 -103 -153.5 -186.5t-189 -142t-220.5 -90.5t-246 -32q-135 0 -244 32t-192 90.5t-139.5 141.5t-85 184t-30.5 217z" />
<glyph unicode="D" horiz-adv-x="1786" d="M44 122q-2 15 -2 32q0 34 9 78l272 1281q14 66 40.5 111t63 71.5t81.5 38.5t97 12h485q108 0 208.5 -17t184 -57t147 -106t99.5 -163q35 -97 39 -228q0 -11 1 -23q0 -123 -34 -278q-45 -209 -135.5 -371.5t-221.5 -274t-299 -170t-367 -58.5h-477q-52 0 -92.5 11.5 t-66 39t-32.5 71.5zM453 306h345q79 0 146 23t123 63.5t101 95.5t79 118t57.5 132t38.5 136q24 115 24 211v21q-3 104 -40 178t-109.5 114.5t-179.5 40.5h-343z" />
<glyph unicode="E" horiz-adv-x="1551" d="M50 137q-5 19 -4 41q0 23 5 47l275 1289q10 49 37 91t66.5 73.5t86.5 50t96 18.5h931q33 0 60 -12.5t44.5 -34t24.5 -50t0 -61.5t-26 -61.5t-45.5 -50t-58.5 -34t-66 -12.5h-784l-79 -370h723q31 0 58 -11.5t43.5 -33t23 -49t-0.5 -60.5q-7 -32 -25 -60t-43.5 -48.5 t-57 -32.5t-63.5 -12h-723l-95 -442h791q33 0 59.5 -12.5t43.5 -33.5t23.5 -50t-0.5 -60q-7 -32 -25 -60.5t-44.5 -50t-57 -33.5t-65.5 -12h-946q-48 0 -85.5 18t-62 48.5t-34.5 70.5z" />
<glyph unicode="F" horiz-adv-x="1460" d="M37 162l289 1352q10 49 37 91t66.5 73.5t86.5 50t96 18.5h872q33 0 60.5 -12.5t44.5 -34t23.5 -50t0.5 -61.5q-7 -33 -25.5 -61.5t-46 -50t-59.5 -34t-65 -12.5h-725l-79 -370h618q32 0 58.5 -11.5t42.5 -33t22.5 -49t1.5 -60.5q-8 -32 -25.5 -60t-44 -48.5t-57.5 -32.5 t-64 -12h-617l-126 -592q-9 -40 -31 -72.5t-53.5 -56.5t-68.5 -37t-77 -13t-72.5 13t-53 37t-28.5 57t-1 72z" />
<glyph unicode="G" horiz-adv-x="1920" d="M78 638q5 114 31 237q45 220 147.5 390.5t245.5 287t322.5 176.5t379.5 60q109 0 197 -21t155.5 -53.5t114 -76.5t75.5 -90t38 -92q5 -26 5 -50q0 -18 -3 -35q-11 -51 -35.5 -85.5t-55 -53.5t-65 -27t-66.5 -8q-37 0 -60 11.5t-38.5 30.5t-28.5 43.5t-27 50t-35.5 50 t-55 44t-83 31.5t-122.5 12q-102 0 -198.5 -35t-178 -110t-143.5 -192.5t-96 -281.5q-21 -98 -21 -182q0 -27 2 -53q9 -105 54.5 -180.5t128.5 -117t205 -41.5q90 0 171.5 27.5t148 77.5t113 120t67.5 154h-267q-32 0 -61 7.5t-51.5 25t-32.5 47.5t0 76q16 73 64 115.5 t124 42.5h486q87 0 115 -42q17 -26 17 -66q0 -26 -8 -60l-147 -695q-6 -27 -21 -51.5t-36.5 -42t-48 -28.5t-56.5 -11q-43 0 -67 13.5t-35 41.5t-12 71q-1 9 -1 20q0 35 4 79q-55 -55 -117 -97t-133 -72.5t-151.5 -47t-172.5 -16.5q-153 0 -268 32.5t-196 94t-130 145.5 t-71 184q-17 82 -17 173q0 21 1 43z" />
<glyph unicode="H" horiz-adv-x="1830" d="M37 162l303 1424q9 38 30.5 71t53 57.5t69.5 37.5t78 13t72 -13t52.5 -37.5t28.5 -57.5t1 -71l-112 -525h733l111 525q9 38 31 71t53 57.5t68.5 37.5t77.5 13t72.5 -13t53 -37.5t29 -57.5t0.5 -71l-303 -1424q-9 -40 -31 -72.5t-53 -56.5t-69 -37t-78 -13t-72 13 t-52.5 37t-28.5 57t0 72l125 589h-734l-124 -589q-9 -40 -31 -72.5t-53.5 -56.5t-68.5 -37t-77 -13t-72.5 13t-53 37t-28.5 57t-1 72z" />
<glyph unicode="I" horiz-adv-x="760" d="M61 162l304 1424q8 38 29.5 71t53 57.5t69.5 37.5t78 13t72 -13t53 -37.5t28.5 -57.5t0.5 -71l-303 -1424q-8 -40 -30.5 -72.5t-54 -56.5t-68.5 -37t-77 -13t-72 13t-53 37t-29 57t-1 72z" />
<glyph unicode="J" horiz-adv-x="1329" d="M-44 368q0 52 10 95q11 55 32.5 97.5t51.5 73.5t68 47.5t84 16.5q53 0 83 -18.5t43.5 -49.5t12.5 -71.5t-11 -83.5q-5 -26 -5 -49q0 -51 26 -85q38 -49 125 -49q45 1 84 14.5t71.5 43.5t57.5 77.5t39 115.5l219 1027q8 44 29.5 80t52.5 61t70 39.5t85 14.5q44 0 78 -14.5 t54 -39.5t26 -61q2 -14 2 -28q0 -25 -6 -52l-220 -1032q-28 -133 -87.5 -238.5t-149 -179.5t-207.5 -112.5t-264 -38.5q-105 0 -183 25t-130.5 66.5t-82.5 93.5t-44 107t-14 107z" />
<glyph unicode="K" horiz-adv-x="1690" d="M38 97q-3 14 -3 30q0 24 6 50l296 1395q9 44 30.5 79t53 60.5t71 39.5t84.5 14q46 0 79.5 -14t53.5 -39.5t27 -61.5q5 -36 -4 -78l-114 -545l775 660q34 30 72.5 51t77.5 29t74 -2t63 -43q25 -27 30.5 -58.5t-3 -64t-30.5 -64t-55 -56.5l-494 -409l362 -795 q10 -23 13 -49.5t-3 -56.5q-9 -40 -31 -74t-52.5 -59t-68.5 -39t-78 -14q-50 0 -86.5 23t-52.5 63l-327 730l-286 -236l-80 -386q-10 -44 -31.5 -80t-53 -61t-71 -39t-85.5 -14q-45 0 -79 14t-54 39t-26 61z" />
<glyph unicode="L" horiz-adv-x="1415" d="M44 118q-2 15 -2 32q0 34 9 76l286 1346q9 44 30.5 79t51.5 60.5t69.5 39.5t84.5 14q46 0 79 -14t52.5 -39.5t25 -61.5t-3.5 -78l-266 -1246h643q42 0 77.5 -10.5t58 -31.5t32.5 -51t1.5 -70t-30.5 -70t-54.5 -51t-71.5 -31.5t-82 -10.5h-799q-53 0 -93 11.5t-65.5 37 t-32.5 69.5z" />
<glyph unicode="M" horiz-adv-x="2235" d="M38 95q-8 34 1 72l280 1316q13 64 48 114t83.5 85t108.5 55q62 19 125 19q48 0 89.5 -13.5t73.5 -38.5t53 -61t28 -83l156 -1011h4l562 1011q26 46 61.5 83t78.5 61.5t91 38t97 13.5q63 0 115 -19.5t86.5 -54.5t46.5 -85q6 -24 6 -50q0 -30 -7 -64l-279 -1317 q-8 -37 -29.5 -71.5t-52.5 -59t-67.5 -38.5t-73.5 -14t-68 14t-50 38.5t-26 58t0 72.5l234 1095l-13 -20l-665 -1148q-28 -49 -76.5 -79.5t-104.5 -30.5t-91 31.5t-42 79.5l-183 1137v15l-229 -1079q-9 -38 -31 -72t-52 -59t-66.5 -39t-75.5 -14q-38 0 -69 14t-50 39t-27 59 z" />
<glyph unicode="N" horiz-adv-x="1840" d="M39 170l288 1360q12 53 37 96.5t63.5 73.5t87 46.5t106.5 16.5q60 0 107 -26.5t69 -79.5l463 -1072h8l209 987q20 94 79.5 142.5t146.5 48.5t127 -48q26 -31 26 -83q0 -27 -7 -60l-286 -1346q-24 -117 -94 -180t-186 -63q-75 0 -120.5 23.5t-69.5 82.5l-465 1071h-7 l-211 -990q-20 -94 -78.5 -140.5t-147.5 -46.5q-87 1 -127 47q-26 30 -26 79q0 28 8 61z" />
<glyph unicode="O" horiz-adv-x="1924" d="M72 646q0 111 25 228q26 118 74.5 232t118.5 215.5t162.5 186.5t204 147t241.5 96.5t279 34.5t266 -34.5t203 -96.5t142.5 -147t84 -186.5t28.5 -215.5v-8q0 -110 -25 -224q-26 -119 -73.5 -232.5t-118.5 -214.5t-164 -184.5t-205 -145t-243 -95t-281 -33.5 q-149 0 -264 33.5t-201 95t-141.5 145t-83.5 184.5q-29 103 -29 219zM467 732q0 -10 -1 -21q0 -61 11 -115q12 -64 40 -120t74.5 -96t113 -62.5t154.5 -22.5q91 0 168.5 22.5t143 62.5t116.5 96t91.5 120.5t67.5 135t43 142.5q15 71 17 142q0 12 1 24q-1 58 -11 112 q-12 65 -39.5 120.5t-75.5 96.5t-115.5 64.5t-158.5 23.5q-89 0 -164.5 -23.5t-140 -64.5t-116 -96.5t-91.5 -120.5t-67.5 -136t-42.5 -142q-16 -72 -18 -142z" />
<glyph unicode="P" horiz-adv-x="1645" d="M37 162l300 1408q9 39 30.5 72t53 56.5t68.5 36t77 12.5h618q149 0 254 -36t165 -107q61 -72 77 -174q6 -37 6 -77q0 -71 -19 -153q-27 -129 -85.5 -229t-148 -167.5t-209.5 -101.5q-117 -33 -261 -33h-8h-424l-109 -507q-9 -40 -31 -72.5t-53.5 -56.5t-68.5 -37t-77 -13 t-72.5 13t-53 37t-28.5 57t-1 72zM593 971h349h9q71 1 125 15q58 16 100 45.5t69 72.5q28 43 39 96q7 29 7 56q0 20 -4 38q-9 43 -39 74t-81.5 47t-125.5 16h-349z" />
<glyph unicode="Q" horiz-adv-x="1924" d="M73 642.5q0 113.5 25.5 232.5t73.5 233.5t119 216.5t162.5 187t203.5 146.5t242.5 96.5t279 35t266 -35t203 -96.5t142 -146.5t84.5 -187q29 -104 29 -221q0 -112 -25 -229q-23 -106 -64 -207.5t-99.5 -193t-134.5 -172t-167 -145.5l74 -120q19 -31 19 -70q0 -16 -3 -33 q-7 -33 -25.5 -62t-45 -51.5t-58 -34.5t-64.5 -12q-37 0 -66.5 16t-45.5 41l-111 175q-70 -17 -143 -27t-153 -10q-149 0 -264 33.5t-201 95t-141.5 145.5t-83.5 185t-28 214.5zM468 732v-21q0 -60 10 -115q11 -64 39 -119t74.5 -96t113 -63.5t154.5 -22.5h22h21l-43 68 q-12 22 -17 48.5t2 57.5q7 34 25.5 63.5t45.5 51.5t59.5 35t66.5 13q37 0 65.5 -15.5t47.5 -43.5l87 -141q49 41 89 93.5t70.5 109.5t53 118t35.5 122q15 72 18 143q1 15 1 29q0 56 -10 107q-12 64 -40.5 120.5t-76 98t-115.5 64.5t-158 23q-88 0 -164.5 -23t-140.5 -64.5 t-116 -98t-91.5 -120.5t-66.5 -135.5t-43 -143.5q-16 -71 -18 -143z" />
<glyph unicode="R" horiz-adv-x="1738" d="M38 98q-3 14 -3 30q0 24 6 51l285 1335q10 49 37 91t66.5 73.5t86.5 50t96 18.5h631q141 0 244 -35.5t166 -101.5t83 -160q9 -42 9 -90q0 -56 -13 -119q-15 -67 -47.5 -135t-85.5 -125t-126 -100t-169 -60q44 -17 78.5 -46.5t60.5 -69t41 -87t19 -102.5l19 -289 q1 -13 -0.5 -28t-4.5 -30q-8 -39 -30.5 -72.5t-53 -59.5t-68 -40t-75.5 -14q-59 0 -99 33t-50 84q-6 27 -9.5 58.5t-7.5 68.5l-14 253q-3 45 -16 84t-40 68.5t-72 46.5t-110 17h-331l-111 -517q-10 -45 -30.5 -80.5t-51.5 -61.5t-69.5 -40t-82.5 -14t-78 14t-54 39.5 t-26 61.5zM606 1001h375q60 0 119.5 11.5t109.5 38t85.5 70t48.5 106.5q6 28 6 53q0 14 -2 28q-5 38 -27.5 65.5t-62.5 44t-97 16.5h-463z" />
<glyph unicode="S" horiz-adv-x="1645" d="M26.5 409.5q-0.5 19.5 3.5 39.5q9 40 30.5 73t50.5 57t65.5 38t76.5 14q63 0 104 -35t56 -90q32 -106 112.5 -164.5t212.5 -58.5q34 0 74 2t81 10t79.5 21.5t70.5 36t55 55t33 77.5q4 20 4 37q1 22 -7 42q-14 34 -45 58t-77 41.5t-101.5 32.5t-116 28.5t-122.5 30.5 q-63 17 -122 39.5t-110 51.5t-91 67t-63.5 88.5t-29.5 114.5q-1 16 -1 33q0 52 13 114q18 88 61 162.5t102.5 134t133 103.5t153.5 73t164.5 43t164.5 14q109 0 205.5 -20t173 -62t128.5 -107t71 -154q4 -17 4 -35.5t-4 -40.5q-9 -40 -28 -72t-48 -56.5t-63 -38t-74 -13.5 q-63 0 -104.5 35t-55.5 88q-23 80 -97 117t-188 37q-49 0 -99.5 -10t-94 -32t-76 -55.5t-42.5 -82.5q-7 -33 -5 -58t18 -45.5t49.5 -38.5t87 -37t131 -41.5t183.5 -50.5q31 -9 79.5 -21t101 -34.5t101.5 -57.5t84 -88t49 -127q5 -28 5 -59q0 -51 -14 -112 q-26 -122 -96 -225.5t-180 -179t-259 -117.5t-330 -42q-118 0 -223.5 26.5t-188.5 78.5t-139 130t-73 181q-3 17 -3.5 36.5z" />
<glyph unicode="T" horiz-adv-x="1430" d="M186 1516q-6 30 1 64t26 65t45.5 54t58.5 35.5t68 12.5h1081q34 0 61 -12.5t43.5 -35.5t22.5 -54t-3 -65q-7 -34 -25 -64t-43.5 -53t-58.5 -36t-67 -13h-352l-266 -1251q-9 -40 -31 -72t-53.5 -56.5t-70 -38t-78.5 -13.5t-72.5 13.5t-53.5 38t-29 57.5q-10 32 -1 71 l267 1251h-343q-34 0 -60.5 13t-43.5 36t-23 53z" />
<glyph unicode="U" horiz-adv-x="1851" d="M136 362q-9 51 -9 109q0 93 23 203l193 909q9 40 31 73t53 57t68.5 38t77.5 14t72.5 -14t54 -38t28.5 -57.5t0 -72.5l-193 -909q-13 -61 -12 -113q1 -25 3 -49q10 -72 47.5 -122t104.5 -76.5t163 -26.5q89 0 161.5 26.5t128.5 76.5t94 121.5t56 162.5l193 909q9 40 31 73 t53 57t69 38t78 14t72.5 -14t53.5 -38t29 -57.5t-1 -72.5l-193 -909q-37 -172 -114.5 -303.5t-191 -220.5t-261.5 -134t-325 -45q-185 0 -319.5 42.5t-214.5 129.5t-104 219z" />
<glyph unicode="V" horiz-adv-x="1603" d="M245 1510q-8 30 1 63q9 40 31.5 76t55 62t70.5 42q40 16 80 16q32 0 60 -11t48.5 -28.5t33.5 -43.5t16 -54l117 -1090l583 1091q16 30 39 55t51 42t59.5 28t62.5 11q40 0 71.5 -15t52 -41.5t28.5 -61.5t-2 -75q-6 -32 -23 -62l-798 -1411q-21 -40 -47 -63.5t-57.5 -37 t-67 -18t-78.5 -4.5t-77 4.5t-59.5 18t-40.5 37.5q-15 23 -20 63z" />
<glyph unicode="W" horiz-adv-x="2373" d="M237 1533q0 11 1 23.5t4 25.5q8 38 29.5 72.5t52.5 59.5t68 40t77 15q33 0 60 -11t47 -31t31.5 -45.5t13.5 -57.5l24 -1083h4l504 1056q15 35 36.5 65t51 52.5t67.5 35.5q39 13 91 13q51 0 85.5 -11.5t54.5 -33t28.5 -52t11.5 -69.5l54 -1056h3l488 1083q12 31 35 57 t51.5 46t61 31t65.5 11q38 0 69 -15t51 -40t28 -60q9 -35 0 -72q-3 -13 -8 -25q-5 -13 -9 -24l-648 -1353q-24 -50 -49.5 -88t-59.5 -62t-76.5 -36.5t-100.5 -12.5q-55 0 -94 10t-62.5 33t-35 59.5t-14.5 88.5l-50 1011l-477 -1003q-25 -50 -50.5 -88t-59 -62t-76.5 -36.5 t-100 -12.5q-56 0 -94.5 10t-62 33t-35 59.5t-14.5 88.5z" />
<glyph unicode="X" horiz-adv-x="1537" d="M-94 154q8 38 30.5 76.5t53.5 69.5l582 575l-340 592q-23 37 -23 79q-1 10 1 19q6 52 39 97t85 75t118 30q34 0 59 -9t41.5 -23.5t26.5 -31t17 -30.5l261 -509l474 506q22 23 40.5 40t39 29.5t45.5 19t57 6.5q59 0 99 -26q40 -27 55 -67q8 -22 8 -46q0 -21 -6 -44 q-13 -50 -60 -96l-599 -599l346 -592q30 -51 30 -101q0 -26 -8 -51q-24 -74 -117 -126q-45 -24 -86.5 -31t-77 2t-63 31t-44.5 57l-264 520l-466 -502q-37 -40 -79 -66q-41 -28 -83 -38q-26 -6 -51 -6q-15 0 -29 2q-38 6 -69 34q-31 26 -41 61t-2 73z" />
<glyph unicode="Y" horiz-adv-x="1544" d="M216 1584q10 49 41.5 90t81.5 66t113 25q36 0 60 -7.5t41.5 -21.5t29.5 -35.5t23 -48.5l235 -604l489 604q26 31 48 52.5t44 35t47 19.5t55 6q58 0 97 -24.5t54 -64.5q9 -24 9 -52q0 -18 -4 -38q-10 -50 -53 -100l-669 -788l-113 -526q-8 -43 -29.5 -79t-53 -61.5 t-71 -39t-85.5 -13.5q-45 0 -79 13.5t-54 39t-26.5 61.5t2.5 79l113 526l-336 788q-13 32 -13 65q0 16 3 33z" />
<glyph unicode="Z" horiz-adv-x="1613" d="M-70 100q-5 17 -5 39q0 24 6 53q10 45 36.5 81t61.5 67l1142 1080h-699q-43 0 -78 10.5t-58 31.5t-32 51q-9 31 -2 71q8 40 31 70.5t55 50.5t71.5 30.5t82.5 10.5h1042q38 0 70 -8.5t52 -29.5t28 -55q3 -13 3 -28q0 -24 -7 -55q-8 -36 -29.5 -73t-54.5 -67l-1163 -1104 h790q43 0 78 -10.5t58.5 -31.5t32.5 -51t0.5 -70t-30.5 -70t-54 -51t-71.5 -31.5t-82.5 -10.5h-1074q-54 0 -96.5 10t-68 32t-35.5 58z" />
<glyph unicode="[" horiz-adv-x="797" d="M-74.5 -452q-8.5 43 5.5 110l432 2029q15 68 42 110t61 66.5t74.5 33t80.5 8.5h270q34 0 62 -7.5t46 -24.5t23.5 -43.5t-2.5 -64.5q-9 -39 -26 -65.5t-41.5 -43t-55 -24.5t-66.5 -8h-137l-405 -1904h137q34 0 62 -7.5t46 -24.5t23.5 -44t-1.5 -64q-8 -39 -25.5 -65.5 t-42.5 -43t-55.5 -24.5t-66.5 -8h-270q-40 0 -76.5 9.5t-61 33t-33 66.5z" />
<glyph unicode="\" horiz-adv-x="995" d="M236 1686.5q-1 20.5 3 42.5q6 30 23.5 53.5t41 40t50 25t49.5 8.5q39 0 62 -10t35.5 -25.5t18.5 -33.5t9 -34l289 -1583q4 -20 6 -40.5t-2 -42.5q-6 -30 -24.5 -53.5t-42 -40t-50 -25.5t-49.5 -9q-40 0 -62 10.5t-35 26t-19 33.5t-8 34l-289 1583q-5 20 -6 40.5z" />
<glyph unicode="]" horiz-adv-x="797" d="M-262.5 -485.5q-6.5 26.5 2.5 65.5q8 37 25.5 64t41.5 44t55 24.5t65 7.5h139l404 1904h-138q-35 0 -62.5 8t-45 24.5t-24 43.5t2.5 65q17 75 68 107.5t121 32.5h272q40 0 75.5 -8.5t60 -33t33 -66.5t-5.5 -110l-432 -2029q-15 -67 -41.5 -110t-60.5 -66.5t-74 -33 t-80 -9.5h-271q-34 0 -62 8t-45 24.5t-23.5 43z" />
<glyph unicode="^" horiz-adv-x="1653" d="M205 771.5q-2 16.5 1 30.5q6 27 20 53t37 59l596 779q26 33 49 54.5t46.5 33.5t46.5 16.5t49 4.5q25 0 46 -4.5t39 -16.5t33 -33.5t25 -54.5l263 -781q10 -31 12 -57.5t-4 -53.5q-3 -15 -11.5 -30.5t-25.5 -29t-44 -23t-67 -9.5q-30 0 -53 4.5t-41.5 16t-33 30.5 t-25.5 51l-198 596l-452 -595q-24 -31 -47 -51t-45.5 -31.5t-48.5 -15t-56 -3.5q-40 0 -63 8.5t-34.5 22t-13.5 30z" />
<glyph unicode="_" horiz-adv-x="1255" d="M-213 -288q-4 22 1.5 48t18.5 48t31 39t40.5 26.5t48.5 9.5h1030q25 0 44 -9.5t30 -26.5t15 -39t-2 -48t-19 -48t-31.5 -38.5t-42 -26.5t-47.5 -10h-1030q-26 0 -43.5 10t-29 26.5t-14.5 38.5z" />
<glyph unicode="`" horiz-adv-x="896" d="M415.5 1747.5q2.5 28.5 18.5 57t54 55.5q37 29 70.5 35.5t62 -5t53 -37t42.5 -60.5l109 -200q23 -40 19.5 -83t-26.5 -76.5t-61 -50.5t-83 -6q-9 3 -18.5 6t-19.5 10t-22 20t-26 33l-136 196q-17 24 -28 50.5t-8.5 55z" />
<glyph unicode="a" horiz-adv-x="1389" d="M-21 182q-8 33 -8 73q0 48 12 104q17 81 55.5 145.5t92 113t119 83.5t136 59.5t145 39t145 21.5t134.5 7q22 0 42 1q40 0 76 -1l9 41q6 29 6 52q1 22 -5 40q-10 36 -38.5 56t-70 27.5t-91.5 7.5q-26 0 -59 -5t-68.5 -15.5t-70 -27t-62.5 -39.5q-35 -30 -75 -48t-77 -18 q-26 0 -48.5 9t-37.5 26.5t-21.5 42.5t0.5 58q7 36 27.5 64.5t45.5 50.5q55 51 122.5 85.5t139.5 55t147 29t150 8.5q109 0 201.5 -23.5t154 -76.5t85.5 -137q12 -41 13 -90q0 -53 -14 -116l-120 -568q-7 -34 -10.5 -71t-7.5 -79v-9.5t-2 -10.5q-7 -34 -27.5 -64t-48.5 -52 t-61.5 -35t-68.5 -13q-31 0 -57 10t-43 29t-26.5 44.5t-6.5 56.5v31q-60 -57 -120.5 -94t-121.5 -58.5t-121 -30t-119 -8.5q-90 0 -163.5 24t-121.5 72.5t-66 122.5zM342 392q-6 -24 -6 -43q0 -21 7 -36q13 -30 39 -47t59.5 -23t64.5 -6q37 -1 76 10.5t76 31.5t70.5 45 t60 52t43.5 53.5t22 48.5l31 148q-15 1 -33 1q-23 1 -50 -1q-50 -2 -107 -11.5t-115.5 -26t-107.5 -43.5t-84.5 -65t-45.5 -88z" />
<glyph unicode="b" horiz-adv-x="1518" d="M-4 139l317 1495q20 89 77 135q56 46 142 46q87 0 125 -45q25 -29 25 -79q0 -26 -7 -57l-104 -489h7q37 45 82.5 78.5t100 56.5t114.5 35t123 12q99 0 174 -25.5t130 -71.5t88.5 -108t49.5 -138q13 -64 14 -132q0 -12 -1 -26q-3 -84 -20 -170q-37 -174 -113 -303.5 t-174.5 -215.5t-213.5 -127t-234 -41q-69 0 -127.5 14t-103.5 42t-75 71t-40 100h-6l-11 -57q-18 -83 -70 -126.5t-135 -43.5q-87 -1 -120 43q-21 28 -21 72q0 25 7 55zM426 496q4 -72 31.5 -127.5t79.5 -89t137 -33.5q77 1 140.5 34t113.5 86.5t84.5 126t51.5 152.5 q8 43 12 89q2 23 2 46q0 24 -2 46q-4 45 -18 85.5t-41 70.5t-70 49t-103 19h-5q-85 0 -151 -36q-68 -37 -117.5 -96t-82.5 -131t-48 -142q-14 -64 -14 -125q-1 -12 0 -24z" />
<glyph unicode="c" horiz-adv-x="1414" d="M18 365q-7 45 -7 93q0 83 20 175q30 146 99 273.5t173.5 222.5t244.5 149q138 55 313 55q96 0 179.5 -20t149.5 -59.5t113 -101t70 -144.5q8 -31 -0.5 -68.5t-26.5 -67.5t-44 -51.5t-59 -33.5t-70 -12q-60 0 -96 30t-52 79q-20 61 -80 97.5t-153 36.5q-87 0 -153.5 -31.5 t-115 -85t-79.5 -123t-46 -145.5q-12 -56 -13 -110q0 -11 1 -21q3 -64 30 -113.5t79.5 -80.5t135.5 -31q47 0 95 16t90.5 41.5t79 60.5t64.5 74q31 47 79 79.5t106 32.5q38 0 64.5 -13t43.5 -35t22 -53t-2 -65q-5 -17 -10.5 -35t-15.5 -34q-54 -90 -125.5 -161t-158 -120 t-187.5 -75.5t-213 -26.5q-167 0 -282 50t-181 139.5t-82 212.5z" />
<glyph unicode="d" horiz-adv-x="1518" d="M26 352q-7 45 -7 96q0 94 24 208q17 88 50.5 170.5t80 158t107.5 137.5t134.5 108t161 71.5t185.5 25.5q126 0 216 -47t127 -135h8l103 489q20 89 75.5 135t142.5 46q86 0 124 -45q25 -30 25 -79q0 -26 -7 -57l-318 -1495q-17 -83 -67 -126.5t-139 -43.5q-82 -1 -116 43 q-23 29 -23 76q0 23 6 51l13 57h-4q-34 -57 -82.5 -100t-106 -71t-122.5 -42t-132 -14q-117 0 -215 41t-161 127.5t-83 214.5zM394 492q4 -72 30 -125.5t77 -85.5t127 -35q83 0 149.5 33.5t117 88.5t84 126.5t51.5 150.5q13 63 13 128q-1 7 -1 14q-2 72 -26.5 131 t-77.5 95.5t-140 36.5q-60 0 -110 -19t-91 -49t-72.5 -70.5t-55 -85.5t-39 -91.5t-24.5 -89.5q-13 -63 -13 -122q0 -16 1 -31z" />
<glyph unicode="e" horiz-adv-x="1431" d="M34 622q35 159 107.5 289t177 223t238.5 143.5t290 50.5q101 0 182 -25t141.5 -67.5t103 -101.5t64.5 -126.5t26 -143.5q1 -13 0 -25q0 -62 -14 -123q-10 -45 -24.5 -79t-36.5 -55t-54 -30.5t-75 -9.5h-791q-6 -34 -6 -65q-1 -90 51 -142q68 -70 218 -70q54 0 101.5 9 t86.5 23.5t71.5 31.5t58.5 34q17 12 33.5 23.5t32.5 20t35 14t39 5.5q31 0 54.5 -12t37 -32t18 -45t-1.5 -50q-11 -54 -47.5 -99.5t-88.5 -81.5t-116 -63t-130.5 -44.5t-130 -26.5t-116.5 -9q-123 0 -214.5 27t-156.5 74.5t-104.5 110t-58.5 135.5q-19 71 -19 148 q0 82 18 164zM416 769h615q2 19 2 38q1 42 -9 80q-14 55 -44 97.5t-75.5 66.5t-105.5 24q-65 0 -122.5 -23.5t-105.5 -64t-87 -96.5t-68 -122z" />
<glyph unicode="f" horiz-adv-x="783" d="M58.5 70q-5.5 33 4.5 77l190 900h-44q-75 0 -101 33q-16 23 -16 56q0 17 4 37q13 58 53 92.5t114 34.5h44l35 163q17 84 62.5 149t108.5 109t138 66.5t153 22.5q48 0 88 -10t67.5 -31.5t39 -53.5t1.5 -76q-6 -26 -19.5 -48t-33 -39.5t-41.5 -27.5t-47 -10 q-20 0 -37.5 4.5t-37.5 4.5q-38 0 -60 -23.5t-29 -60.5l-30 -139h67q79 0 112 -32q24 -22 24 -60q0 -16 -4 -35q-13 -65 -60.5 -95.5t-125.5 -30.5h-67l-191 -900q-10 -44 -30 -77t-48.5 -56t-63.5 -34t-75 -11t-70.5 11t-49.5 34t-24.5 56z" />
<glyph unicode="g" horiz-adv-x="1488" d="M-55.5 -344q-5.5 32 1.5 64q7 31 24 59t41.5 47.5t55 30t65.5 10.5q40 0 69 -13.5t55 -37.5q26 -28 51.5 -47t54 -31.5t62.5 -17.5t75 -5q69 0 127.5 17.5t105 54t79.5 90.5t47 129l33 154q-54 -60 -106.5 -95.5t-105.5 -55.5t-108 -26t-112 -6q-99 0 -174.5 25 t-128.5 69.5t-84.5 107.5t-45.5 139q-10 58 -10 123q0 19 1 39q4 88 24 182q19 89 54 172.5t83 158.5t108.5 138t133.5 109t156 71t176 25q63 0 115 -9t95 -31t78 -58q34 -37 60 -91q18 89 72 135t138 46q89 0 121 -46q20 -29 20 -75q0 -27 -7 -60l-239 -1124 q-11 -56 -34 -122.5t-62 -133t-99 -129.5t-147 -111t-202 -76.5t-263 -28.5q-63 0 -126 10t-120.5 32.5t-105 56t-80.5 80.5q-16 23 -21.5 55zM385 519q0 -72 21 -130q22 -59 69.5 -96t132.5 -37q77 0 140.5 32t112 85t81.5 121t49 139q17 83 19 159v10q0 71 -22 125 q-23 58 -73.5 93t-138.5 35q-77 0 -139 -32t-108.5 -85t-78.5 -123t-48 -145q-17 -76 -17 -151z" />
<glyph unicode="h" horiz-adv-x="1471" d="M-3 144l320 1508q9 34 27.5 62.5t46 48.5t61 31t69.5 11q34 0 63 -11t48 -31t26.5 -48.5t-0.5 -62.5l-106 -499h7q54 54 108.5 89.5t109 56.5t108 29t109.5 8q143 0 226.5 -39t122 -109.5t38.5 -170t-25 -219.5l-139 -654q-9 -37 -30.5 -67.5t-50.5 -51.5t-64 -31.5 t-70 -10.5q-34 0 -64.5 10.5t-50.5 31.5t-29 51t0 68l126 588q17 82 17 142t-18.5 100t-58 60.5t-100.5 20.5q-72 0 -127.5 -21.5t-99.5 -67t-74.5 -115.5t-52.5 -170l-114 -537q-9 -38 -30 -68t-50.5 -51.5t-64.5 -31.5t-69 -10q-35 0 -65.5 11.5t-50.5 32t-28.5 50.5 t-0.5 67z" />
<glyph unicode="i" horiz-adv-x="614" d="M-1.5 84.5q-7.5 31.5 0.5 68.5l214 1004q9 37 28 67t48.5 51t64.5 32t72 11t67 -11t50 -32t29 -51t0 -67l-213 -1004q-9 -37 -29.5 -68.5t-50 -54.5t-64.5 -35t-73 -12t-68 12t-49 35t-26.5 54.5zM310 1551.5q-7 32.5 2 70.5q8 37 28 70t50 56.5t66 37.5t73 14t67 -14 t49 -37.5t26 -56.5t0 -70q-9 -38 -29.5 -70.5t-50.5 -57t-66 -39t-73 -14.5t-66.5 14.5t-49 39t-26.5 57z" />
<glyph unicode="j" horiz-adv-x="650" d="M-290 -376q14 69 56 106t100 37h40q25 0 41.5 18.5t22.5 44.5l279 1313q8 35 23 68t40 57.5t63 39.5t91 15q52 0 83.5 -15t47 -39.5t16 -57.5t-6.5 -68l-276 -1302q-20 -97 -55 -168.5t-89 -118.5t-128 -71t-174 -24q-103 0 -146 43q-32 31 -32 82q0 19 4 40zM345 1551.5 q-8 32.5 1 70.5q9 37 30.5 70t50.5 56.5t65 37.5t73 14t66.5 -14t48.5 -37.5t26.5 -56.5t-0.5 -70q-8 -38 -29 -70.5t-50 -57t-65 -39t-74 -14.5t-67 14.5t-48.5 39t-27.5 57z" />
<glyph unicode="k" horiz-adv-x="1312" d="M0 156l313 1477q9 44 29.5 78t48.5 56t63 34t75 12q80 0 120 -46q27 -30 27 -80q0 -25 -7 -54l-160 -748l578 399q34 24 72.5 36.5t78.5 12.5q35 0 60 -13.5t40.5 -36.5t20.5 -53t-2 -60q-6 -29 -23 -61q-16 -31 -50 -54l-396 -267l243 -539q6 -13 12.5 -39.5t-2.5 -69.5 q-7 -31 -25 -60.5t-44.5 -52.5t-58 -36.5t-63.5 -13.5q-31 0 -53.5 7t-38.5 18.5t-25 25t-16 28.5l-239 522l-156 -105l-67 -317q-19 -87 -77.5 -133t-138.5 -46t-119 46q-26 31 -26 80q0 25 6 53z" />
<glyph unicode="l" horiz-adv-x="647" d="M16 84.5q-7 31.5 0 68.5l316 1490q8 37 29 68t50 51.5t63.5 31.5t71.5 11t68 -11t51 -31.5t27 -50.5t0 -69l-317 -1490q-9 -37 -29 -68.5t-49.5 -54.5t-64.5 -35t-73 -12q-37 0 -67.5 12t-49.5 35t-26 54.5z" />
<glyph unicode="m" horiz-adv-x="2239" d="M-7.5 91.5q-1.5 32.5 7.5 68.5l209 985q8 40 27 74t46 57.5t60 36.5t73 13q78 0 112 -50q23 -34 23 -82q0 -23 -5 -49l-9 -37h6q91 106 215 162t258 56q46 0 92.5 -12.5t86 -39.5t69.5 -70t40 -106q48 53 101 94.5t111 71t122.5 46t137.5 16.5q91 0 169 -23t130 -74.5 t72 -134.5q8 -35 8 -78q0 -58 -15 -127l-154 -729q-9 -36 -24 -68.5t-40.5 -57t-63.5 -39t-90 -14.5q-51 0 -82.5 14.5t-46 39t-15.5 57t6 68.5l137 644q7 33 7 65q1 13 -1 27q-4 44 -23.5 78t-54 54t-87.5 20q-51 0 -101 -23t-92.5 -62t-74.5 -93.5t-45 -117.5l-124 -592 q-9 -36 -24 -68.5t-40.5 -57t-63.5 -39t-90 -14.5q-51 0 -82.5 14.5t-46 39t-15.5 57t6 68.5l137 644q8 37 8 72q0 10 -1 20q-3 44 -20 78t-51.5 54t-86 20t-103 -23t-95 -62t-76.5 -93.5t-46 -117.5l-125 -592q-9 -36 -24 -68.5t-40 -57t-63 -39t-89 -14.5 q-52 0 -83.5 14.5t-46.5 39t-16.5 57z" />
<glyph unicode="n" horiz-adv-x="1474" d="M-4.5 91q-1.5 32 5.5 68l212 998q17 80 68 129.5t135 49.5t114 -49q19 -31 20 -74q0 -26 -7 -56l-11 -54q51 52 105 95t112.5 74t123.5 47.5t141 16.5q54 0 106.5 -10t98 -32.5t82.5 -57.5t58.5 -86.5t25.5 -121.5q1 -12 1 -25q0 -61 -16 -134l-152 -710q-7 -36 -22 -68 t-40 -56t-62 -38q-39 -14 -90 -14q-52 0 -83.5 14t-46.5 38t-16 56t6 68l134 630q10 44 10 83q0 10 -1 19q-3 47 -23 83.5t-57.5 57t-94.5 20.5q-53 0 -110 -27t-108 -75t-88.5 -111.5t-55.5 -136.5l-114 -543q-7 -36 -23 -68t-41 -56t-62.5 -38t-89.5 -14q-51 0 -82.5 14 t-46 38t-16 56z" />
<glyph unicode="o" horiz-adv-x="1471" d="M24 364q-9 52 -10 109q0 83 20 175q23 103 64.5 195t100 168.5t131.5 138t157.5 104t178 65t192.5 22.5q150 0 264.5 -50t185.5 -141q72 -90 94 -218q9 -51 9 -106q0 -84 -21 -178q-23 -103 -64.5 -195.5t-100 -169t-131.5 -138t-157.5 -103.5t-178.5 -65t-195 -23 q-148 0 -262 50t-184.5 141t-92.5 219zM376 495.5q0 -75.5 24.5 -134t78 -94t143.5 -35.5q92 0 162.5 35.5t120.5 94t81.5 134t48.5 152.5q15 70 15 139v13q-2 75 -28.5 133.5t-80.5 94.5t-143 36q-87 0 -155 -36t-118 -94.5t-83 -133.5t-49 -152q-17 -77 -17 -152.5z" />
<glyph unicode="p" horiz-adv-x="1518" d="M-104 -336l317 1496q17 83 68 126.5t138 43.5q83 0 117 -44q22 -28 22 -75q0 -23 -6 -51l-11 -57h1q77 113 192 170t254 57q117 0 214.5 -41.5t160.5 -127.5t83 -215q8 -45 8 -95q0 -95 -25 -209q-19 -87 -51 -170t-79.5 -157.5t-108 -137.5t-134.5 -108.5t-160.5 -71.5 t-186.5 -26q-126 0 -216.5 47.5t-127.5 135.5h-5l-104 -490q-20 -89 -76 -134.5t-143 -45.5q-84 0 -123 45q-25 30 -25 79q0 25 7 56zM429 560q-1 -16 -1 -31q0 -32 4 -63q7 -46 23.5 -86t46 -68.5t72 -45.5t100.5 -17q60 0 110.5 18.5t91.5 48.5t71.5 71t54 86t40 92 t25.5 90q13 63 13 121v30q-5 72 -32 125.5t-77 86t-126 34.5q-83 0 -150 -33.5t-117 -88.5t-84.5 -126.5t-51.5 -148.5q-10 -47 -13 -95z" />
<glyph unicode="q" horiz-adv-x="1518" d="M19 472q2 84 21 170q37 175 112 304t174.5 215t214.5 127.5t234 41.5q69 0 127.5 -13.5t104 -42t76 -71.5t41.5 -100h3l11 57q17 83 69.5 126.5t135.5 43.5q87 0 119 -44q20 -28 20 -72q0 -25 -6 -54l-316 -1496q-20 -89 -77 -134q-56 -46 -142 -46q-87 0 -125 45 q-25 29 -25 78q0 26 7 57l104 490h-4q-37 -44 -84.5 -78.5t-101.5 -57t-114 -35t-123 -12.5q-99 0 -174 26t-130 71.5t-88.5 108.5t-49.5 137q-14 67 -14 140v18zM396 473q3 -45 18 -86t42 -71t70 -48.5t103 -18.5h9q81 0 146 35q68 38 118 96.5t82.5 130.5t47.5 144 q15 63 15 122q0 13 -1 27q-4 71 -31 126t-79 88.5t-137 33.5q-77 -1 -140.5 -34t-113.5 -86.5t-84.5 -125t-51.5 -151.5q-9 -43 -13 -90q-2 -25 -2 -50q0 -21 2 -42z" />
<glyph unicode="r" horiz-adv-x="936" d="M-5.5 86.5q-1.5 32.5 5.5 67.5l212 994q8 42 27.5 73.5t46 53t58 32t66.5 10.5t62 -10.5t45 -32t23.5 -53t-2.5 -73.5l-15 -70q29 35 69.5 75.5t90 75.5t106 58.5t112.5 23.5q33 0 60 -12.5t45 -35t24.5 -52.5t-0.5 -63q-8 -31 -25 -59t-40.5 -49.5t-53.5 -35t-62 -16.5 q-88 -10 -157 -45t-117.5 -89.5t-80.5 -124.5t-49 -151l-90 -424q-8 -35 -23 -67.5t-40.5 -56.5t-62.5 -38.5t-89 -14.5q-51 0 -82.5 14.5t-46.5 38.5t-16.5 56.5z" />
<glyph unicode="s" horiz-adv-x="1321" d="M-6 295q7 34 24.5 61t41.5 46.5t52 29.5t57 10q25 0 44 -6.5t33 -18.5t26.5 -28t24.5 -33q18 -24 43.5 -45.5t58.5 -38t75 -26t92 -9.5q26 0 62 6t70 20t62.5 40.5t37.5 66.5t-8.5 66.5t-59 47.5t-108 39t-156.5 38q-48 11 -95.5 25.5t-89 35t-75 47.5t-54.5 65 q-20 38 -26 86q-2 15 -2 30q0 37 10 80q16 71 49 128t78.5 101t103.5 76t122.5 52t133 29.5t137.5 9.5q73 0 145 -11t134.5 -33t111 -58t72.5 -86q13 -27 13 -59q0 -16 -3 -34q-5 -25 -19.5 -49t-36 -42.5t-48 -30t-55.5 -11.5q-22 0 -41 6t-35 16t-30.5 23t-27.5 25 q-40 42 -104 60q-65 19 -130 19q-26 0 -59 -4.5t-64.5 -16.5t-55 -33.5t-30.5 -52.5q-9 -43 18.5 -68t77.5 -42t117.5 -29.5t139.5 -30.5q74 -18 139 -45t111 -70t64 -106q9 -31 9 -68q0 -38 -10 -83q-17 -85 -55 -151.5t-89.5 -115.5t-115 -83.5t-133.5 -55t-145 -30 t-150 -9.5q-80 0 -154 15t-136.5 44.5t-109.5 75t-73 105.5q-10 24 -10 52q0 17 4 36z" />
<glyph unicode="t" horiz-adv-x="819" d="M89 1174q13 59 53.5 92.5t114.5 33.5h60l49 223q9 44 28 77t47.5 55t64 33.5t75.5 11.5q81 0 119 -45q27 -31 26 -83q0 -23 -5 -49l-47 -223h107q78 0 112 -31q25 -22 25 -62q0 -15 -4 -33q-27 -127 -188 -127h-107l-144 -681q-3 -13 -2 -24q0 -57 72 -57h4h52 q30 0 50 -11t32 -29.5t15 -44.5t-3 -54q-16 -77 -90 -121.5t-203 -44.5q-97 0 -161.5 20t-100.5 59.5t-44 98.5q-3 20 -3 42q0 44 11 96l161 751h-62q-74 -1 -100 33q-18 23 -18 59q0 16 4 35z" />
<glyph unicode="u" horiz-adv-x="1495" d="M55 271q-1 12 -1 25q0 60 16 134l150 711q7 36 23 68t41 55.5t62 38t89 14.5q51 0 83.5 -14.5t47.5 -38t17 -56.5t-5 -67l-136 -639q-8 -38 -9 -72q0 -14 2 -27q5 -45 26.5 -78t60.5 -51t96 -18q46 0 99.5 18.5t101.5 54.5t85 88t51 118l129 606q7 36 22 68t41 55.5 t63 38t90 14.5q51 0 82.5 -14.5t46 -38t16 -56.5t-5.5 -67l-212 -999q-17 -81 -65.5 -129.5t-133.5 -48.5q-41 0 -69 12.5t-42.5 36.5t-16.5 56.5t5 72.5l10 45q-50 -48 -104.5 -89.5t-114.5 -71t-127 -45.5q-66 -17 -143 -17q-54 0 -106.5 10t-99 31.5t-82 57.5t-57.5 87.5 t-26 120.5z" />
<glyph unicode="v" horiz-adv-x="1226" d="M109 1064q-4 22 -4 42q1 30 9 58q14 46 43.5 81.5t72 55.5t92.5 20t78.5 -18.5t43 -42.5t18.5 -49.5t6 -37.5l78 -738h3l403 745q6 13 21 36.5t38.5 46.5t58.5 40.5t83 17.5t80.5 -19t46 -52t7 -78t-36.5 -97l-538 -929q-20 -36 -49.5 -66t-65 -52t-75 -33.5t-80.5 -11.5 q-40 0 -73.5 11.5t-59.5 34t-42.5 53t-21.5 65.5z" />
<glyph unicode="w" horiz-adv-x="1951" d="M106 1088q-3 27 4 53q9 37 29 68.5t49 56t64 38t71 13.5q30 0 56 -9.5t44.5 -27t30 -42t12.5 -51.5l53 -741h4l304 648q24 51 49 93.5t56.5 71.5t70.5 45.5t92 16.5q58 0 93 -15.5t53.5 -45t25.5 -71.5t10 -95l30 -644h4l368 740q13 27 33.5 50.5t46.5 40.5t55 26.5 t58 9.5q34 0 63.5 -13.5t47.5 -36.5t25 -54.5t-2 -67.5q-5 -25 -18 -51l-508 -937q-23 -43 -48 -76.5t-55 -56.5t-65.5 -35t-80.5 -12q-43 0 -75 8.5t-53.5 28.5t-33.5 55t-17 90l-54 712h-3l-349 -714q-43 -87 -100.5 -133.5t-147.5 -46.5q-43 0 -74 8.5t-52.5 29.5 t-33.5 56t-19 88z" />
<glyph unicode="x" horiz-adv-x="1216" d="M-103 76q-9 30 0 67q4 23 20.5 52.5t51.5 60.5l414 399l-241 397q-20 32 -20 70q0 16 4 33q6 32 24.5 62t47 53.5t66.5 38t83 14.5q43 0 73 -21t56 -69l173 -322l298 307q30 32 56.5 52t49 31.5t44 15.5t43.5 4q30 0 56.5 -12t44 -33.5t25.5 -49.5t1 -56 q-9 -40 -27.5 -69t-41.5 -51l-400 -388l249 -413q11 -20 16 -43.5t-3 -62.5q-8 -31 -25 -61.5t-44 -53t-61.5 -37t-77.5 -14.5q-27 0 -47 6.5t-35 19.5t-28.5 31.5t-27.5 44.5l-179 329l-348 -359q-25 -28 -64.5 -50t-89.5 -22q-32 0 -60.5 12t-47.5 34.5t-28 52.5z" />
<glyph unicode="y" horiz-adv-x="1232" d="M-106.5 -405.5q-6.5 29.5 0.5 60.5q16 72 69 108.5t124 36.5h27q18 0 36.5 1.5t37 13t37 33.5t37.5 63l43 89l-189 987q-4 31 -8 55.5t-5 43t-0.5 34t3.5 33.5q8 35 28 66t49 54t63 35.5t70 12.5q72 0 110.5 -36.5t42.5 -96.5l92 -740l384 716q16 34 36.5 63t45.5 50 t55.5 32.5t65.5 11.5q46 0 77 -11.5t48 -30.5t22 -45t1.5 -53.5t-14.5 -57t-25 -55.5l-689 -1205q-52 -92 -103.5 -160.5t-108 -115t-123 -70t-150.5 -23.5q-59 0 -99 13t-62 35.5t-28.5 52z" />
<glyph unicode="z" horiz-adv-x="1305" d="M-83 139q9 38 27.5 70.5t46.5 57.5l828 754h-513q-24 0 -47.5 7t-41 23.5t-25.5 43t1 65.5q9 38 27.5 64.5t42.5 43t51.5 23.5t51.5 7h844q71 0 99 -42q18 -27 18 -66q0 -22 -6 -47q-5 -29 -26.5 -60.5t-53.5 -58.5l-815 -747h584q25 0 49 -7t41 -23.5t24 -43t0 -64.5 q-9 -39 -27.5 -65.5t-42.5 -43t-51.5 -23.5t-51.5 -7h-905q-40 0 -66 11.5t-41.5 31.5t-20.5 44q-7 25 -1 52z" />
<glyph unicode="{" horiz-adv-x="936" d="M20 626q-3 23 3 48q4 22 16 44.5t31 39.5t45.5 28t57.5 11q24 0 48.5 5t47.5 22t42 52t31 94l127 590q37 177 138.5 260t269.5 83h191q52 0 78.5 -29t14.5 -86q-13 -61 -53 -93t-91 -32h-63q-56 0 -96 -33t-59 -114l-123 -581q-12 -58 -35 -99t-51.5 -69.5t-61 -45.5 t-64.5 -26.5t-61.5 -13t-53.5 -6.5l-2 -6q23 -1 51 -5.5t56.5 -13.5t53.5 -26.5t42.5 -45t22.5 -69t-8 -100.5l-125 -582q-8 -40 -5 -68t15.5 -45t32.5 -25.5t49 -8.5h63q51 0 77.5 -32.5t14 -91t-52 -88t-89.5 -29.5h-192q-169 0 -234.5 83t-28.5 261l126 592q13 58 8.5 93 t-19.5 52.5t-38 22.5t-47 5q-31 0 -52.5 10.5t-33 27.5t-14.5 40z" />
<glyph unicode="|" horiz-adv-x="622" d="M-98 -451.5q-6 28.5 1 62.5l470 2218q7 34 26.5 62t46 49t59.5 33t66 12q34 0 62 -12t45.5 -33t24 -49.5t-0.5 -61.5l-470 -2218q-7 -34 -26.5 -62.5t-46 -49.5t-58.5 -32.5t-67 -11.5q-34 0 -62 11.5t-46 32.5t-24 49.5z" />
<glyph unicode="}" horiz-adv-x="936" d="M-259 -443.5q13 58.5 52.5 91t89.5 32.5h63q55 0 96 32.5t58 114.5l125 582q12 59 35 100.5t51.5 69t61 45t64.5 26.5t61.5 12.5t52.5 6.5l1 6q-23 1 -51 5.5t-55.5 14t-53.5 26.5t-42.5 45.5t-21.5 69.5t8 99l123 581q9 40 6 68.5t-15 45.5t-33 25q-19 8 -48 8h-64 q-52 0 -77.5 32t-13.5 93q13 57 52 86t90 29h190q169 0 235.5 -82t29.5 -261l-126 -590q-13 -59 -8.5 -94t19.5 -52t37.5 -22t47.5 -5q31 0 52.5 -11t33 -28t14.5 -39.5t-2 -44.5q-5 -23 -17.5 -47t-31 -41t-45 -27.5t-57.5 -10.5q-24 0 -48.5 -5t-47.5 -22.5t-42 -52.5 t-31 -93l-127 -592q-37 -178 -138.5 -261t-270.5 -83h-190q-52 0 -78.5 29.5t-13.5 88z" />
<glyph unicode="~" horiz-adv-x="1419" d="M94.5 597.5q5.5 31.5 22.5 57.5q37 60 85 106t100.5 78t105 48.5t101.5 16.5q57 0 101 -13t77.5 -31.5t60 -41.5t48.5 -42.5t41.5 -31.5t40.5 -12q40 0 72 21q31 19 54 65q11 24 30.5 45t42.5 36t48 23.5t50 8.5q32 0 57.5 -12t41.5 -33.5t22.5 -49t-0.5 -58.5 q-6 -29 -22 -57q-37 -60 -85 -107.5t-101 -79.5t-106.5 -48.5t-100.5 -16.5q-60 0 -103.5 13t-77.5 33t-58 43t-45.5 43t-42.5 32.5t-43 12.5q-36 0 -68.5 -22t-54.5 -68q-13 -24 -32 -45t-41.5 -36t-47.5 -22.5t-51 -7.5q-32 0 -57.5 12t-41 32t-22 48.5t-1 60z" />
<glyph unicode="&#xa2;" horiz-adv-x="1460" d="M137.5 637q-8.5 108 18.5 234q28 136 87 251.5t144.5 202t198.5 140.5t252 67l33 154q3 17 13 32t23.5 26t29 16.5t30 5.5t27.5 -5.5t22 -16.5t12.5 -25t-0.5 -33l-31 -149q97 -7 171.5 -36.5t123.5 -73.5t69 -98.5t9 -110.5q-9 -37 -27.5 -64t-43.5 -45.5t-56.5 -28 t-64.5 -9.5q-37 0 -56 12t-31.5 31t-21.5 42.5t-23.5 45t-39.5 38.5t-68 26l-156 -738q45 8 76 27.5t55.5 42.5t46 48.5t44.5 46.5t52 34.5t69 13.5q32 0 56 -11.5t39.5 -29.5t20.5 -41.5t-1 -49.5q-12 -51 -49.5 -109t-102 -109t-156 -87.5t-207.5 -44.5l-36 -165 q-3 -17 -13 -32.5t-22.5 -25.5t-28.5 -16t-30 -6q-30 0 -50 22.5t-13 57.5l34 165q-138 8 -229.5 57.5t-141 131t-58 189.5zM489 871q-29 -136 5 -225.5t131 -113.5l154 726q-43 -11 -86.5 -38t-82 -73.5t-70 -114.5t-51.5 -161z" />
<glyph unicode="&#xa3;" horiz-adv-x="1495" d="M-84 91q-5 25 1 53q10 46 42 80.5t77 50.5q48 15 90.5 43.5t76.5 67.5t58 86t34 100q7 40 7 80t-10 83h-133q-26 0 -46.5 10t-33.5 26.5t-18 38t0.5 47t20 48t34.5 39.5t44 26.5t50 9.5h27q-17 58 -16 132.5t16 150.5q18 83 56.5 153t92.5 128.5t121.5 103.5t142.5 76 t157 46q82 16 163 16q127 0 227 -26.5t167 -83.5t101 -146t28 -213q-2 -7 -2.5 -14t-1.5 -15q-9 -35 -29 -67.5t-48.5 -55t-63.5 -37t-72 -14.5q-32 0 -58.5 10.5t-45 30t-28.5 46t-9 56.5q3 126 -54 184.5t-167 58.5q-59 0 -112 -20t-96.5 -54.5t-73.5 -79.5t-40 -93 q-16 -79 -11.5 -145.5t25.5 -127.5h295q26 0 46 -9.5t32.5 -26.5t17.5 -40q7 -22 1 -47.5t-20 -47t-34 -38t-45 -26.5t-50 -10h-194q1 -21 0.5 -46t-6.5 -47q-10 -44 -25 -87.5t-36.5 -84.5t-47 -77.5t-54.5 -65.5h52q57 0 110.5 -10t104.5 -22t101 -22t103 -10q15 0 39 1.5 t52.5 5t61.5 9.5q31 6 65 14q10 2 19 3q10 1 19 1q30 0 52.5 -11t37 -30t20 -44t0.5 -55q-10 -44 -42.5 -78.5t-75.5 -49.5q-50 -19 -95.5 -30.5t-88.5 -18t-84.5 -8t-85.5 -1.5q-62 0 -129 13t-135.5 28t-136.5 28.5t-131 13.5q-54 0 -121.5 -11.5t-133.5 -29.5 q-20 -6 -40 -4q-28 0 -50.5 10.5t-37.5 28.5t-20 43z" />
<glyph unicode="&#xa5;" horiz-adv-x="1588" d="M166 566q3 19 14.5 36t26.5 30t33.5 20t39.5 7h295l8 39l-41 99h-233q-20 0 -36 7t-26 20t-13 30q-4 15 1 35q2 19 13.5 36t26.5 30t33.5 20t40.5 7h113l-215 504q-20 48 -10.5 97.5t41.5 90.5t83 66t112 25q36 0 60.5 -7.5t41.5 -21.5t29 -35.5t24 -48.5l234 -604 l489 604q26 31 48 52.5t44.5 35t47.5 19.5t55 6q57 0 96.5 -24.5t55 -64.5t4 -90t-52.5 -100l-429 -504h116q40 0 61 -27q22 -28 14 -66q-4 -20 -14.5 -36t-26.5 -29t-35 -20t-39 -7h-234l-82 -99l-9 -39h296q40 0 61.5 -27t14.5 -66q-5 -20 -15.5 -36.5t-26 -29t-35 -20 t-39.5 -7.5h-296l-64 -301q-9 -43 -30.5 -79t-53 -61.5t-70.5 -39t-85 -13.5t-79.5 13.5t-53.5 39t-26.5 61.5t1.5 79l65 301h-295q-40 0 -61.5 26.5t-12.5 66.5z" />
<glyph unicode="&#xa9;" horiz-adv-x="1980" d="M64.5 628q-8.5 120 19.5 254q28 130 87 249t143 222t186.5 187t220 143.5t242.5 92t253 32.5q127 0 237.5 -32.5t201.5 -92t159 -143.5t106.5 -187t46.5 -222t-19 -249q-29 -133 -88.5 -253.5t-141.5 -223.5t-185 -186t-219 -141.5t-241 -90t-252 -31.5t-239 31.5 t-203.5 90t-159 141.5t-107 186t-48 223zM309.5 592.5q23.5 -133.5 96 -231.5t189 -152.5t269.5 -54.5q97 0 192 24.5t183 71t165 112.5t138.5 146.5t107 175t67.5 198.5q23 105 18 198.5t-32.5 173.5t-78 145t-118 110t-152 69.5t-183.5 24.5q-101 0 -197.5 -24.5 t-184 -69.5t-163 -110t-136.5 -145t-104.5 -173.5t-66.5 -198.5q-33 -156 -9.5 -289.5zM535.5 672.5q-13.5 96.5 9.5 208.5q24 113 78.5 210t131.5 168.5t176.5 112.5t211.5 41q95 0 164.5 -28t112.5 -71.5t59.5 -96t6.5 -100.5q-7 -32 -23 -54.5t-34.5 -36.5t-36.5 -20 q-19 -6 -31 -6q-27 0 -43.5 6t-26.5 17.5t-15.5 27.5t-11.5 33q-7 20 -15 40.5t-25 38t-47 28t-79 10.5q-51 0 -98.5 -22t-86.5 -63t-67.5 -98.5t-44.5 -130.5q-16 -70 -11.5 -129.5t26 -102.5t60 -67.5t91.5 -24.5q44 0 76 11t57 27.5t44 38t37 44.5q14 17 28.5 32.5 t31 28.5t36.5 21t46 8q44 0 65.5 -28t11.5 -77q-6 -23 -24.5 -55.5t-50 -67.5t-73.5 -70.5t-93.5 -62.5t-111 -44t-126.5 -17q-112 0 -193.5 41.5t-130 112t-62 167z" />
<glyph unicode="&#xab;" horiz-adv-x="1354" d="M113 695q11 54 43.5 101.5t80.5 75.5l275 173q20 13 45 26t58 13q26 0 44.5 -11t30 -28t15 -40t-2.5 -48q-8 -40 -37.5 -71.5t-66.5 -54.5l-228 -136l171 -136q28 -21 43 -53q15 -34 7 -74q-6 -24 -19 -46.5t-32 -40.5t-42 -28.5t-49 -10.5q-33 0 -51.5 13t-34.5 26 l-200 173q-37 30 -49 77t-1 100zM680.5 595q-11.5 47 0.5 100q11 54 42.5 101.5t80.5 75.5l274 173q20 13 45 26t58 13q24 0 43 -11t31 -28t16 -40q5 -23 -1 -48q-9 -40 -38 -71.5t-68 -54.5l-227 -136l170 -136q28 -21 44 -53q16 -34 6 -74q-6 -24 -19 -46.5t-32 -40.5 t-42 -28.5t-47 -10.5q-33 0 -52.5 13t-33.5 26l-203 173q-36 30 -47.5 77z" />
<glyph unicode="&#xad;" horiz-adv-x="1195" d="M60.5 641q-6.5 28 0.5 68q9 40 27.5 66.5t44.5 43t58 24.5t66 8h720q34 0 62.5 -8t47 -24.5t26.5 -43.5t0 -66q-9 -40 -28.5 -68t-45 -44t-57.5 -24t-65 -8h-720q-34 0 -63.5 8t-48 24t-25 44z" />
<glyph unicode="&#xae;" horiz-adv-x="1980" d="M64.5 628q-8.5 120 19.5 254q28 130 87 249t143 222t186.5 187t220 143.5t242.5 92t253 32.5q127 0 237.5 -32.5t201.5 -92t159 -143.5t106.5 -187t46.5 -222t-19 -249q-29 -133 -88.5 -253.5t-141.5 -223.5t-185 -186t-219 -141.5t-241 -90t-252 -31.5t-239 31.5 t-203.5 90t-159 141.5t-107 186t-48 223zM309.5 592.5q23.5 -133.5 96 -231.5t189 -152.5t269.5 -54.5q97 0 192 24.5t183 71t165 112.5t138.5 146.5t107 175t67.5 198.5q23 105 18 198.5t-32.5 173.5t-78 145t-118 110t-152 69.5t-183.5 24.5q-101 0 -197.5 -24.5 t-184 -69.5t-163 -110t-136.5 -145t-104.5 -173.5t-66.5 -198.5q-33 -156 -9.5 -289.5zM566 440.5q-5 21.5 2 51.5l161 761q6 27 20.5 47.5t33 35t40.5 21t44 6.5h314q85 0 147.5 -14.5t102 -48t51 -92t-7.5 -144.5q-14 -69 -44.5 -120.5t-71 -87t-85.5 -54t-89 -21.5 l116 -213q11 -20 15.5 -43t1 -44.5t-17 -42t-38.5 -36.5q-30 -20 -57 -24.5t-50 3.5t-42 26t-31 43l-164 331h-65l-61 -289q-6 -30 -19.5 -51.5t-31.5 -35t-40 -20.5t-44 -7q-23 0 -42 7t-31 20.5t-17 35zM891 960h190q27 0 52 4t46 17t36.5 35t22.5 58q8 34 1.5 55 t-21.5 33t-39 17t-51 5h-190z" />
<glyph unicode="&#xbb;" horiz-adv-x="1354" d="M56.5 386q-3.5 23 2.5 46q8 40 37.5 73t66.5 54l229 136l-172 136q-28 23 -43 54.5t-7 71.5q6 25 19 48t32 40t43 28q25 11 48 11q33 0 52 -13.5t34 -25.5l201 -173q36 -28 48 -75.5t1 -101.5q-12 -54 -43.5 -101.5t-79.5 -75.5l-276 -173q-20 -13 -45 -26t-58 -13 q-24 0 -43 10.5t-31 28.5t-15.5 41zM623.5 386q-4.5 23 1.5 46q8 40 37.5 73t66.5 54l229 136l-170 136q-29 23 -44.5 54.5t-7.5 71.5q6 25 19.5 48t32.5 40t41.5 28t48.5 11q33 0 52.5 -13.5t33.5 -25.5l201 -173q38 -28 50 -75.5t-1 -101.5q-11 -54 -43.5 -101.5 t-80.5 -75.5l-273 -173q-20 -13 -46 -26t-59 -13q-26 0 -44.5 10.5t-29 28.5t-15 41z" />
<glyph unicode="&#xbc;" horiz-adv-x="2196" d="M259 1444q6 26 16 42t25.5 26t38.5 15.5t56 11.5l60 10q44 7 73.5 25t51 41.5t38.5 47.5t35.5 45t41.5 34.5t60 13.5q49 0 70.5 -21.5t9.5 -78.5l-174 -819q-6 -30 -17.5 -54t-28.5 -40.5t-43.5 -25.5t-65.5 -9q-68 0 -90.5 35t-9.5 94q32 147 57 266q12 51 22 100.5 t18.5 88.5t14 65.5t7.5 31.5q-55 -23 -107.5 -29t-91.5 -6q-40 0 -58.5 22.5t-8.5 67.5zM446 63q4 19 15.5 39.5t28.5 43.5l1146 1544q8 12 20.5 24.5t26 22t29 16t34.5 6.5q20 0 36.5 -7t26.5 -18.5t14.5 -27.5t-0.5 -30q-7 -34 -44 -83l-1147 -1544q-9 -12 -19.5 -24 t-25 -22t-30 -16.5t-34.5 -6.5q-20 0 -35.5 7t-25.5 18.5t-14.5 26.5t-1.5 31zM1150 290.5q-3 18.5 0 35.5q7 34 18.5 54t24.5 33l574 557q16 15 33.5 28t36 21.5t40.5 13.5t52 5q59 0 89 -31q31 -29 21 -80l-110 -515h59q40 0 57.5 -26.5t9.5 -69.5q-10 -43 -38.5 -68.5 t-68.5 -25.5h-59l-29 -130q-4 -23 -14 -42t-27 -32.5t-42 -20.5t-61 -7t-58 7t-33.5 20.5t-13.5 32.5t2 42l29 130h-392q-32 0 -52.5 10t-32.5 25t-15 33.5zM1399 412h283l71 333h-6z" />
<glyph unicode="&#xbd;" horiz-adv-x="2196" d="M259 1444q6 26 16 42t25.5 26t38.5 15.5t56 11.5l60 10q44 7 73.5 25t51 41.5t38.5 47.5t35.5 45t41.5 34.5t60 13.5q49 0 70.5 -21.5t9.5 -78.5l-174 -819q-6 -30 -17.5 -54t-28.5 -40.5t-43.5 -25.5t-65.5 -9q-68 0 -90.5 35t-9.5 94q32 147 57 266q12 51 22 100.5 t18.5 88.5t14 65.5t7.5 31.5q-55 -23 -107.5 -29t-91.5 -6q-40 0 -58.5 22.5t-8.5 67.5zM392 63q4 19 15 39.5t29 43.5l1146 1544q8 12 20 24.5t26 22t29.5 16t34.5 6.5q20 0 35.5 -7t26.5 -18.5t14.5 -27.5t0.5 -30q-7 -34 -44 -83l-1147 -1544q-9 -12 -20.5 -24t-25 -22 t-29 -16.5t-34.5 -6.5q-20 0 -35.5 7t-25.5 18.5t-14.5 26.5t-1.5 31zM1172.5 76.5q-2.5 22.5 2.5 47.5q9 40 33.5 79t67 78t105 80t145.5 84q93 48 155 79.5t101.5 59.5t59.5 58t30 74q6 28 -2 50t-26.5 37.5t-45 24.5t-59.5 9q-66 0 -121.5 -31t-94.5 -97q-11 -20 -22 -35 t-24 -25.5t-29.5 -15.5t-40.5 -5q-26 0 -46 5t-33.5 16.5t-18.5 30.5t1 46q14 68 60 125t112.5 99t148.5 66.5t169 24.5q95 0 165.5 -22t113.5 -61.5t60 -92.5t3 -114q-16 -72 -41.5 -124t-64 -93.5t-92.5 -73.5t-124 -65q-74 -35 -130.5 -62t-97 -47.5t-66.5 -37t-36 -29.5 h428q55 0 79.5 -27.5t13.5 -82.5q-13 -62 -48 -85.5t-91 -23.5h-594q-34 0 -56 10t-34.5 27t-15 39.5z" />
<glyph unicode="&#xbe;" horiz-adv-x="2196" d="M156.5 904q-2.5 27 2.5 47q10 46 47 73.5t93 27.5q34 0 52 -10.5t26.5 -27.5t15.5 -36.5t22 -36.5t44 -28t82 -11q44 0 79.5 11t60.5 28t41 40t22 50q5 24 3 44t-14 36.5t-35.5 27.5t-64.5 16q-15 2 -37.5 5.5t-41 12t-29 24.5t-4.5 43q7 31 19.5 51t32.5 31t46.5 16 t61.5 6q54 4 86 33t42 74q6 25 -2 43.5t-25 31.5t-41.5 18.5t-54.5 5.5q-45 0 -76 -10t-53 -25t-38.5 -33.5t-34.5 -33.5t-39.5 -25t-52.5 -10q-23 0 -42.5 4t-33 14t-18.5 27.5t1 41.5q14 67 62 115t113 79.5t136.5 46.5t131.5 15q107 0 177.5 -25t109 -65t48.5 -91 t-2 -104q-15 -70 -65 -120q-49 -50 -129 -81v-6q44 -10 72.5 -30.5t43.5 -49.5t17.5 -66t-6.5 -77q-18 -87 -66 -151.5t-116 -106.5t-151.5 -63.5t-174.5 -21.5q-75 0 -131.5 13t-96 34t-64 48.5t-37 55.5t-15 55zM546 63q5 19 16 39.5t29 43.5l1145 1544q9 12 21 24.5 t25.5 22t29.5 16t34 6.5q20 0 36.5 -7t26.5 -18.5t14.5 -27.5t-0.5 -30q-7 -34 -44 -83l-1147 -1544q-8 -12 -19 -24t-25 -22t-30 -16.5t-35 -6.5q-20 0 -35.5 7t-25.5 18.5t-14.5 26.5t-1.5 31zM1150 290.5q-3 18.5 0 35.5q7 34 18.5 54t24.5 33l574 557q16 15 33.5 28 t36 21.5t40.5 13.5t52 5q59 0 89 -31q31 -29 21 -80l-110 -515h59q40 0 57.5 -26.5t9.5 -69.5q-10 -43 -38.5 -68.5t-68.5 -25.5h-59l-29 -130q-4 -23 -14 -42t-27 -32.5t-42 -20.5t-61 -7t-58 7t-33.5 20.5t-13.5 32.5t2 42l29 130h-392q-32 0 -52.5 10t-32.5 25t-15 33.5z M1399 412h283l74 352h-6z" />
<glyph unicode="&#xd7;" horiz-adv-x="1441" d="M31 213q-5 27 0 62q6 27 24 51t44 46l404 336l-261 334q-17 23 -24.5 47t-1.5 52q7 34 25 62t43.5 48t57 31t64.5 11q26 0 47 -14q22 -15 36 -32l266 -333l405 333q23 17 50 31.5t53 14.5q33 0 60 -11t44 -31t23 -48t-1 -62q-6 -27 -24 -51.5t-44 -47.5l-404 -334 l261 -336q17 -22 25 -46q7 -26 1 -51q-7 -35 -25 -63t-43.5 -48t-57 -31t-64.5 -11q-26 0 -47 14q-22 16 -36 33l-265 333l-406 -333q-23 -17 -50 -32t-53 -15q-34 0 -60.5 11t-43 31t-22.5 49z" />
<glyph unicode="&#xf7;" horiz-adv-x="1488" d="M60.5 641q-6.5 28 0.5 68q9 40 27.5 66.5t44.5 43t58 24.5t66 8h1016q34 0 62.5 -8t47 -24.5t26 -43.5t-1.5 -66q-8 -40 -27 -68t-44.5 -44t-57.5 -24q-31 -8 -65 -8h-1016q-34 0 -63.5 8t-48 24t-25 44zM418 197q8 43 34 81.5t60 67.5t75 47q42 17 82 17 q43 0 76.5 -17.5t56 -46.5t31 -67.5t-0.5 -81.5q-8 -38 -32.5 -74t-58 -63t-73.5 -43.5t-82 -16.5q-41 0 -76 15t-58 42t-33 63t-1 77zM636 1223q9 43 34 80.5t59.5 66.5t75 45t80.5 16q43 0 78 -16t57 -45t31 -66.5t-1 -80.5q-9 -42 -33.5 -79t-58.5 -65t-74 -44.5 t-82 -16.5q-41 0 -75.5 16.5t-57.5 44.5t-32 65t-1 79z" />
<glyph unicode="&#xe01;" horiz-adv-x="1610" d="M34 167l138 642q7 32 4 66q-2 34 -22 67q-18 30 -29 52.5t-11.5 41.5t9 41.5t30.5 53.5q51 80 125 152.5t169 128t215 88.5q122 33 265 33q134 0 234 -24.5t169.5 -67t111.5 -103.5t61 -132t17.5 -149.5t-18.5 -158.5l-155 -728q-9 -40 -30 -72t-52.5 -56.5t-69 -37.5 t-75.5 -13q-40 0 -71 13t-51.5 37.5t-28.5 57.5t1 71l160 752q11 52 5.5 103.5t-35.5 93t-89 66.5t-153 28q-73 1 -131.5 -13.5t-103 -36.5t-75 -49t-45.5 -53q38 -41 48.5 -107t-6.5 -149l-136 -638q-9 -38 -31 -70.5t-52 -56t-66.5 -36.5t-75.5 -13q-38 0 -69 13 t-51.5 36.5t-28.5 56t-1 70.5z" />
<glyph unicode="&#xe02;" horiz-adv-x="1372" d="M143 1291q-6 27 1 59q6 31 23 58.5t42.5 48t55.5 32t61 11.5h255q31 0 53 -11.5t36.5 -31.5t21.5 -47t7 -60l13 -755l340 781q16 37 44 66t62.5 47t73 25.5t74.5 1.5q37 -6 64 -26t40.5 -48.5t13.5 -64.5t-17 -74l-502 -1051q-26 -59 -59.5 -107.5t-74 -85t-90 -56.5 t-105.5 -20q-54 0 -92.5 20.5t-65 57t-39.5 86t-16 105.5l-50 948h-51q-32 0 -56 12t-40.5 32t-22.5 47z" />
<glyph unicode="&#xe03;" horiz-adv-x="1455" d="M114 329q-5 73 12 159q13 60 24.5 112t26.5 98t35 86.5t49 77.5t69 73t96 72q20 11 40 25q17 13 38.5 27.5t40.5 28.5q-7 -3 -19.5 -6.5t-25 -5t-23.5 -3t-15 -1.5q-23 0 -51.5 4t-59.5 13t-61 26.5t-54 43.5t-42 64t-24 91q-3 32 7 64t30 59t50 47t66 30q35 9 66 4.5 t55.5 -19.5t39.5 -40t18 -58q1 -27 15.5 -42.5t38.5 -15.5q26 0 46 16.5t36 43.5q14 26 35.5 47t46 37t52 24.5t56.5 8.5q37 0 66.5 -13.5t48 -38t25.5 -56.5t-1 -69q-26 -99 -52.5 -171t-61.5 -129.5t-79.5 -106t-104.5 -98.5q-37 -30 -62.5 -67t-44.5 -78t-30 -82.5 t-20 -79.5q-13 -56 -7 -99.5t25 -74t52.5 -45.5t76.5 -15q42 0 79 11.5t68.5 36.5t54.5 66.5t34 100.5l176 828q9 39 31 71t52 55.5t66.5 37t75.5 13.5q38 0 69.5 -13.5t52.5 -37t28 -55.5t0 -71l-182 -852q-28 -136 -95.5 -235t-159 -163t-199.5 -95.5t-221 -31.5 q-76 0 -145 15t-126.5 44t-101.5 73.5t-70 102.5t-32 131z" />
<glyph unicode="&#xe04;" horiz-adv-x="1661" d="M13 96.5q-7 32.5 0 70.5l153 718q17 83 48.5 163t79.5 152.5t113.5 133t152 105.5t195.5 69.5t245 24.5q133 0 230.5 -24.5t164 -69.5t107 -105.5t56.5 -133t12.5 -152.5t-20.5 -163l-153 -718q-8 -38 -29.5 -70.5t-52.5 -56t-67.5 -36.5t-74.5 -13q-39 0 -70 13 t-51.5 36.5t-28.5 56t1 70.5l159 748q11 52 4.5 105.5t-35 95.5t-82 69.5t-139.5 27.5q-84 0 -151.5 -27.5t-117 -69.5t-80 -95.5t-40.5 -105.5l-30 -140q64 53 132 88.5t145 57.5q35 9 65.5 3t53.5 -22.5t36.5 -41.5t15.5 -56q1 -33 -12 -65.5t-34.5 -58.5t-50.5 -45.5 t-64 -25.5q-88 -16 -157 -51t-119 -87t-83 -120q-34 -68 -51 -149l-6 -35q-8 -38 -29.5 -70.5t-52.5 -56t-66.5 -36.5t-74.5 -13q-38 0 -69 13t-51 36.5t-27 56z" />
<glyph unicode="&#xe05;" horiz-adv-x="1675" d="M13 167l160 754q19 89 52.5 175.5t88 163t132 138.5t185.5 104q17 5 42 12.5t52 9.5t55.5 -4t51.5 -23l140 -108l193 110q30 17 58 21t51.5 3t42.5 -8.5t31 -11.5q92 -40 145 -102.5t77 -139t22 -163.5t-20 -177l-161 -754q-8 -38 -29.5 -70.5t-51.5 -56t-66.5 -36.5 t-75.5 -13q-38 0 -69 13t-51.5 36.5t-28.5 56t-1 70.5l172 803q6 25 9.5 55t3.5 59t-5 54.5t-18 44.5l-222 -125q-87 -54 -157 0l-172 120q-17 -23 -31.5 -48.5t-26.5 -54t-20.5 -56t-14.5 -49.5l-44 -212q63 53 131.5 88.5t145.5 55.5q35 9 65.5 3t53.5 -21.5t36 -40.5 t14.5 -58t-11 -64.5t-34 -58.5t-50.5 -45.5t-64 -24.5q-88 -16 -157 -51.5t-119 -87t-83.5 -119.5t-50.5 -151l-3 -16q-8 -38 -29.5 -70.5t-52.5 -56t-67.5 -36.5t-74.5 -13q-39 0 -70 13t-51 36.5t-27.5 56t-0.5 70.5z" />
<glyph unicode="&#xe06;" horiz-adv-x="1621" d="M58.5 90.5q-7.5 31.5 0.5 68.5l83 386q12 58 22 104t23 84t31 68.5t46 60.5t66.5 59.5t95.5 63.5q57 36 93.5 60.5t61.5 49.5q-16 -10 -40.5 -16.5t-42.5 -6.5q-23 0 -51.5 4t-59.5 13t-60.5 26.5t-54.5 43.5t-42.5 64t-23.5 91q-3 32 7 64t30 59t50 47t66 30 q34 9 65.5 4.5t55 -19.5t39.5 -40t19 -58q1 -27 15.5 -42.5t38.5 -15.5q26 0 46 16.5t36 43.5q14 26 37 47t50 37t57 24.5t59 8.5q37 0 67 -12t50 -35.5t28 -56t-1 -73.5l-29 -139q-12 -66 -43.5 -121t-73 -103t-90.5 -88t-99 -75q-37 -26 -62.5 -47.5t-43.5 -46t-30 -54.5 t-21 -76q-13 -58 -0.5 -111t46.5 -94.5t90.5 -66t133.5 -24.5q46 0 87.5 15t75 43t57 66.5t33.5 87.5l176 829q9 39 31 72t52 56.5t67.5 37t77.5 13.5q38 0 69.5 -13.5t52.5 -37t28.5 -57t-0.5 -71.5l-170 -800q-27 -126 -75 -231t-127.5 -180.5t-194.5 -117.5t-274 -42 q-60 0 -113 15t-96.5 41.5t-77 61.5t-58.5 74q-8 -37 -29 -68.5t-50 -54.5t-65 -36t-73 -13t-67 13t-50 36t-27.5 54.5z" />
<glyph unicode="&#xe07;" horiz-adv-x="1218" d="M83 722q-6 34 5 69.5t32.5 64.5t53.5 52.5t71 36.5q37 13 72.5 12.5t63.5 -13.5t47.5 -37.5t24.5 -59.5l75 -530q3 -22 13.5 -31t27.5 -9q16 0 28 12.5t15 25.5l187 882h-75q-32 0 -55.5 12t-38.5 32t-20 48t2 59q6 32 23 60t40 48t52 32t61 12h306q31 0 55 -12t39 -32 t19 -48q3 -28 -3 -60l-209 -989q-23 -104 -70.5 -179.5t-113.5 -123t-147 -70.5t-166 -23q-88 0 -149.5 20.5t-100.5 59.5t-61 94q-21 55 -33 123z" />
<glyph unicode="&#xe08;" horiz-adv-x="1478" d="M173 646q-4 28 1 60q8 32 25 60.5t40.5 49.5t52 33t61.5 12h240q32 0 52 -12t32 -33t18.5 -49.5t9.5 -60.5l33 -278q24 41 52.5 90.5t58 101t56.5 102t49.5 95.5t37.5 81.5t20 61.5q26 117 -21 185t-173 68q-83 0 -149 -40t-116 -116q-24 -36 -59 -59t-73 -32t-75 -5.5 t-66 20.5q-31 17 -49 45.5t-21.5 61t7 67.5t38.5 69q57 72 128.5 129t155.5 97t178.5 61.5t197.5 21.5q70 0 140 -10.5t131.5 -36.5t111.5 -67.5t81 -101.5t39.5 -141.5t-14.5 -187.5q-15 -74 -56 -164t-100.5 -194.5t-136 -223.5t-161.5 -249q-26 -40 -60.5 -73 t-74.5 -55.5t-85 -34t-91 -11.5q-48 0 -89 11.5t-71 33.5t-50 55.5t-26 76.5l-58 392h-58q-31 0 -55.5 12t-39.5 33t-19 49z" />
<glyph unicode="&#xe09;" horiz-adv-x="1610" d="M64 307q-3 105 25 231l28 133q9 38 30.5 70.5t51.5 56t66.5 37t74.5 13.5q39 0 70.5 -13.5t51.5 -37t28 -56t-1 -70.5l-33 -159q-10 -49 -3 -87.5t31.5 -66.5t64 -43t93.5 -15q92 0 164 28t126.5 77.5t90 116t52.5 144.5l55 256q11 52 7 102.5t-30.5 91.5t-80.5 66.5 t-142 25.5q-62 0 -111 -9t-88 -26.5t-68 -40t-49 -49.5q-27 -32 -61 -52.5t-69.5 -29.5t-70 -3t-61.5 26t-42 49.5t-16.5 63t12 69t39.5 65.5q51 59 117.5 107.5t147.5 83t178 53t210 18.5q138 0 236.5 -24.5t165 -68t104.5 -103.5t53.5 -131.5t10.5 -151t-22 -162.5 l-157 -738q-9 -37 -29.5 -69t-50 -55t-65 -36t-73.5 -13q-37 0 -67.5 14t-50 37.5t-26.5 55.5t0 69q-49 -41 -106.5 -76t-121.5 -60t-129 -39.5t-126 -14.5q-155 0 -248.5 42t-138 117.5t-47.5 180.5z" />
<glyph unicode="&#xe0a;" horiz-adv-x="1441" d="M67 329q-7 73 10 159l26 115q13 59 26 102.5t28.5 78t35 62.5t42 54.5t52 53.5t65.5 60q48 46 79.5 81.5t41.5 68.5q9 24 -2.5 39t-35.5 15q-42 0 -112 -15q-31 -9 -59.5 -5.5t-50 16.5t-36 34.5t-17.5 49.5q-3 30 6.5 59t27.5 54t43.5 42.5t57.5 27.5q40 13 77 21 t69 12.5t57 6.5t43 2q94 0 164 -23.5t111 -70t46 -117.5t-30 -167q173 33 246 219q16 39 43 69.5t61.5 52t72.5 30t76 1.5q39 -5 67.5 -24t43.5 -47.5t15 -65t-17 -79.5q-34 -87 -93 -161q-57 -73 -149 -122q46 -33 67.5 -81.5t27 -102t-0.5 -104.5t-14 -89l-32 -153 q-19 -89 -57.5 -163.5t-90 -133t-114.5 -101.5t-133 -71t-144.5 -42t-147.5 -14q-76 0 -146 15t-129 44t-105.5 73.5t-75.5 102.5t-36 131zM451 408q8 -45 31.5 -76.5t59.5 -48t81 -16.5q42 0 81.5 13t72 39.5t57.5 69.5t38 101l32 151q14 65 4.5 118t-38 89.5t-76.5 58.5 q-48 20 -109 25q-23 -27 -50 -55q-29 -28 -60 -65q-27 -27 -42 -49t-24.5 -43.5t-15 -45t-14.5 -52.5l-24 -113q-12 -56 -4 -101z" />
<glyph unicode="&#xe0b;" horiz-adv-x="1478" d="M115 329q-6 73 11 159q13 60 24.5 112t26.5 98t35 86.5t49 77.5t69 73t96 72q23 14 44 28q19 13 40 29t35 31q-16 -10 -40.5 -16.5t-42.5 -6.5q-23 0 -51.5 4t-59.5 13t-61 26.5t-54 43.5t-42 64t-24 91q-3 32 7 64t30 59t50 47t66 30q35 9 66 4.5t55.5 -19.5t39.5 -40 t18 -58q1 -27 15.5 -42.5t38.5 -15.5q26 0 46 16.5t36 43.5q14 26 35.5 47t46.5 37t53.5 24.5t57.5 8.5q37 0 66.5 -12t48.5 -35t25.5 -56t-4.5 -74q-16 -55 -32.5 -100.5t-33.5 -85.5q41 8 76 24.5t63 41.5t50.5 61t40.5 83q14 37 40.5 68.5t60.5 51.5t71.5 28.5t73.5 1.5 q39 -5 66.5 -23t42 -45.5t14.5 -63.5q2 -37 -16 -79q-17 -45 -39 -84t-50.5 -73.5t-66 -65.5t-85.5 -58q33 -21 53.5 -50.5t32 -63.5t15 -71.5t2 -73t-6.5 -69t-11 -59.5l-31 -150q-20 -90 -58 -164.5t-90 -133t-115.5 -101.5t-134.5 -71t-146 -41.5t-149.5 -13.5t-144.5 15 t-129.5 44t-106 73.5t-73.5 102.5t-35 131zM507.5 431.5q8.5 -43.5 31 -74t57.5 -45.5t78 -15q42 0 82.5 11.5t74 36.5t57.5 66.5t37 100.5l27 126q13 60 6.5 113.5t-30.5 95t-63.5 68t-93.5 30.5q-23 -27 -48 -52.5t-54 -54.5q-34 -31 -60 -68.5t-45 -77.5t-31 -81.5 t-21 -79.5q-13 -56 -4.5 -99.5z" />
<glyph unicode="&#xe0c;" horiz-adv-x="2382" d="M44.5 89.5q-4.5 26.5 1.5 54.5l140 661q7 32 5 68t-22 69q-19 30 -29 52.5t-10.5 41.5t8.5 42q11 22 31 53q51 80 121 152.5t163 128t207.5 88.5t254.5 33q130 0 226 -24.5t162.5 -68t105 -103.5t55 -131t13.5 -149.5t-20 -158.5l-50 -232q-17 -77 -12 -144t30.5 -116.5 t73.5 -77.5t114 -28q36 0 66.5 11.5t56.5 36t46 65t33 99.5l174 818q9 39 30.5 71.5t52 57t67.5 38t76 13.5t71 -13.5t52 -38t28 -57t-1 -71.5l-169 -792q-28 -136 -71.5 -242.5t-112.5 -179t-167.5 -111t-237.5 -38.5q-55 0 -104.5 16.5t-92.5 43t-75 60t-51 67.5 q-8 -37 -29 -68.5t-50.5 -54t-65 -35.5t-72.5 -13t-67 13t-50 35.5t-28 54t0 70.5l163 762q12 52 7 102.5t-31.5 90.5t-78.5 66q-51 24 -137 27q-66 1 -118.5 -11t-93.5 -32.5t-69.5 -48t-45.5 -54.5q75 -88 40 -256l-109 -513h36q30 0 52 -11.5t36.5 -31t18.5 -45.5 q3 -27 -3 -57t-21.5 -55.5t-37.5 -45.5t-49.5 -31.5t-57.5 -11.5h-271q-30 0 -53 11.5t-36.5 31.5t-18 46.5z" />
<glyph unicode="&#xe0d;" horiz-adv-x="2382" d="M44.5 89.5q-4.5 26.5 1.5 54.5l140 661q7 32 5 68t-22 69q-19 30 -29 52.5t-10.5 41.5t8.5 42q11 22 31 53q51 80 121 152.5t163 128t207.5 88.5t254.5 33q130 0 226 -24.5t162.5 -68t105 -103.5t55 -131t13.5 -149.5t-20 -158.5l-50 -236q-26 -119 2 -184 q30 -65 104 -65q67 0 126.5 33.5t106.5 89.5t81.5 129t51.5 152l110 513q9 39 30.5 71.5t52 57t67.5 38t76 13.5t71 -13.5t52 -38t28 -57t-1 -71.5l-236 -1110q-31 -151 -97.5 -285t-166.5 -234t-237.5 -158t-309.5 -58q-82 0 -156 18.5t-134.5 55t-105 91.5t-67.5 127 q-10 40 -4 75t23 63.5t45 51t65 39.5q36 15 71.5 16.5t65 -9t51.5 -33.5t31 -54q8 -32 26.5 -57t43 -42t52.5 -25.5t55 -8.5q83 0 143.5 27t103.5 70.5t69 96.5t37 106l30 144q-74 -55 -162 -87.5t-185 -32.5q-143 0 -231 37.5t-131 110t-45 179.5t26 244l50 230 q12 52 7.5 104t-31 92.5t-78.5 66.5t-136 27q-61 2 -113 -11t-94 -33.5t-73.5 -47t-50.5 -51.5q37 -44 48 -112t-6 -151l-109 -513h36q30 0 52 -11.5t36.5 -31t18.5 -45.5q3 -27 -3 -57t-21.5 -55.5t-37.5 -45.5t-49.5 -31.5t-57.5 -11.5h-271q-30 0 -53 11.5t-36.5 31.5 t-18 46.5z" />
<glyph unicode="&#xe0e;" horiz-adv-x="1673" d="M-78.5 89.5q-4.5 26.5 1.5 54.5q5 30 21 56.5t38 46t50 31t57 11.5h34l112 520q7 32 4 66t-23 67q-19 30 -29 52.5t-10.5 41.5t8.5 41.5t31 53.5q51 80 124 152.5t169 128t216 88.5t263 33q135 0 235.5 -24.5t170 -67t111 -103.5t60.5 -132t17 -149.5t-19 -158.5 l-257 -1211q-10 -46 -36.5 -86.5t-63 -71.5t-81.5 -49q-47 -18 -93 -18q-48 0 -86.5 20t-61.5 55q-16 23 -38 42t-53.5 33.5t-71.5 23.5t-93 9q-59 0 -109 -11.5t-98 -32.5t-94.5 -51t-96.5 -66q-24 -17 -51 -24.5t-52 -5t-46.5 14.5t-34.5 33q-13 22 -15 47t5.5 50.5 t25 49.5t40.5 44q62 52 133 96.5t146 76.5t153 50t155 18q96 0 164 -20.5t114 -45.5l224 1054q12 52 6 103.5t-36 93t-88.5 66.5t-151.5 28q-73 1 -131.5 -13.5t-103.5 -36.5t-75 -49t-45 -53q19 -20 31 -43t17 -53t2 -69t-13 -91l-140 -661q-5 -30 -21 -55.5t-39 -45.5 t-50 -31.5t-56 -11.5h-268q-30 0 -52.5 11.5t-36.5 31.5t-18.5 46.5z" />
<glyph unicode="&#xe0f;" horiz-adv-x="1673" d="M-116 -445.5q-4 29.5 4 63t28 66.5q38 60 86 103.5t101.5 72t111.5 42.5t118 14q43 0 79.5 -9.5t66 -26.5t53 -40t39.5 -49q24 25 54 46t63 37.5t68.5 25t70.5 8.5q50 0 83 -16q34 -15 54 -38l227 1068q12 52 6 103.5t-36 93t-88.5 66.5t-151.5 28q-73 1 -131.5 -13.5 t-103.5 -36.5t-75 -49t-45 -53q19 -20 31 -43t17 -53t2 -69t-13 -91l-140 -661q-5 -30 -21 -55.5t-39 -45.5t-50 -31.5t-56 -11.5h-268q-30 0 -52.5 11.5t-36.5 31.5t-18.5 46.5t1.5 54.5q5 30 21 56.5t38 46t50 31t57 11.5h34l112 520q7 32 4 66t-23 67q-19 30 -29 52.5 t-10.5 41.5t8.5 41.5t31 53.5q51 80 124 152.5t169 128t216 88.5t263 33q135 0 235.5 -24.5t170 -67t111 -103.5t60.5 -132t17 -149.5t-19 -158.5l-263 -1235q-10 -46 -35 -84.5t-61.5 -66.5t-79.5 -44.5t-89 -16.5q-48 0 -86 18t-51 58q-7 21 -15 40.5t-18 34.5t-24 23.5 t-34 8.5q-32 0 -59 -22t-47 -54q-15 -23 -35 -43t-43.5 -33.5t-50 -22t-51.5 -8.5q-55 0 -90.5 30.5t-44.5 79.5q-6 31 -22.5 53.5t-50.5 22.5t-66.5 -23.5t-52.5 -58.5q-22 -37 -52 -60t-63 -35t-65.5 -10.5t-62.5 14.5t-46.5 37t-20.5 53.5z" />
<glyph unicode="&#xe10;" horiz-adv-x="1471" d="M-123 -488q0 25 11 50q36 85 83.5 135.5t96.5 78.5t97 36.5t87 7.5q54 -3 97 -26t63 -61q14 15 32.5 31.5t40 29t45 19.5t46.5 7q45 0 75.5 -23t43.5 -57q7 33 26.5 62t45 51.5t57.5 34.5q31 13 65 13q33 0 60.5 -10.5t45 -30.5t25 -48.5t-1.5 -61.5l-40 -190 q-7 -33 -25 -61t-43 -48t-55.5 -31.5t-65.5 -11.5q-51 0 -87 30t-43 77q-4 32 -21 49.5t-46 17.5q-34 0 -64 -27.5t-50 -70.5q-16 -33 -47 -54.5t-66 -21.5q-36 0 -58 22t-24 57q0 44 -15.5 69.5t-50.5 25.5q-31 0 -57.5 -22.5t-45.5 -59.5q-11 -26 -30.5 -44.5t-42 -31 t-47.5 -16t-48 3.5q-23 6 -39.5 21t-23.5 35t-6 44zM173 646q-4 28 1 60q8 32 25 60.5t40.5 49.5t52 33t61.5 12h240q32 0 52 -12t32 -33t18.5 -49.5t9.5 -60.5l33 -278q24 41 52.5 90.5t58 101t56.5 102t49.5 95.5t37.5 81.5t20 61.5q26 117 -21 185t-173 68 q-83 0 -149 -40t-116 -116q-24 -36 -59 -59t-73 -32t-75 -5.5t-66 20.5q-31 17 -49 45.5t-21.5 61t7 67.5t38.5 69q57 72 128.5 129t155.5 97t178.5 61.5t197.5 21.5q59 0 116 -8t112 -25q25 9 47.5 29.5t39.5 46.5q26 36 61 58.5t72 32t74 5t66 -24.5q30 -18 47 -47.5 t19.5 -65t-9 -73t-38.5 -71.5q-28 -32 -61 -57q-34 -26 -71 -45q23 -58 28.5 -131.5t-14.5 -168.5q-15 -74 -55.5 -163t-99 -191.5t-133 -220t-159.5 -247.5q-26 -40 -62 -73.5t-76.5 -58.5t-87 -38t-92.5 -13q-48 0 -89 14t-72.5 40t-51.5 61.5t-27 78.5l-54 375h-58 q-31 0 -55.5 12t-39.5 33t-19 49z" />
<glyph unicode="&#xe11;" horiz-adv-x="1621" d="M61 169l71 333q11 56 22.5 99.5t24.5 78t30.5 64.5t42.5 60t59.5 64t83.5 77q58 53 100.5 89t70.5 61q-10 -4 -22 -7.5t-22.5 -6.5t-21.5 -4.5t-15 -1.5q-23 0 -51.5 4.5t-58 14t-59 25.5t-53 43.5t-40.5 65.5t-21 89q-3 31 6 63.5t30 59.5t50 48t65 29q35 9 65.5 4.5 t55 -18.5t40 -39t18.5 -60q1 -27 15.5 -42t38.5 -15q26 0 46 16t37 43q15 25 37 47.5t50 38t57 24t58 8.5q30 0 56.5 -8.5t45.5 -25t31.5 -39t15.5 -51.5q125 76 214 106.5t147 30.5q85 0 131.5 -25t65.5 -71.5t15.5 -111.5t-20.5 -146l-216 -1017q-9 -39 -31 -72 t-52.5 -56.5t-67 -37t-75.5 -13.5q-38 0 -70.5 13.5t-52.5 37t-28.5 56.5t0.5 72l198 932q3 16 6.5 33t4.5 30.5t-2.5 22.5t-15.5 9q-16 0 -49.5 -20t-80 -54t-104.5 -80.5t-119 -97.5q-74 -63 -125.5 -111.5t-87.5 -95t-58 -96.5q-21 -49 -35 -110l-77 -359 q-9 -39 -30.5 -71t-51.5 -56.5t-67 -37.5t-76 -13q-38 0 -69.5 13t-51.5 37.5t-27.5 56.5t-0.5 71z" />
<glyph unicode="&#xe12;" horiz-adv-x="2536" d="M15 94q-9 35 1 80l157 747q19 89 56.5 175.5t96.5 163t141 138.5t189 104q18 5 43 12.5t52 9.5t55.5 -4t52.5 -23l139 -108l193 110q30 17 58 21t51.5 3t42 -8.5t31.5 -11.5q92 -40 147.5 -102.5t83 -139t28.5 -163.5t-19 -177l-51 -246q-17 -80 -12 -147.5t30.5 -116 t72 -75.5t113.5 -27q38 0 69.5 11.5t57 35.5t44.5 65q21 41 33 100l170 800q8 39 30.5 73.5t53 60.5t67.5 40.5t78 14.5q38 0 69.5 -14.5t51.5 -40.5t27 -60.5t0 -73.5l-164 -775q-30 -136 -73.5 -241.5t-114 -178.5t-172.5 -112q-104 -38 -247 -38q-51 0 -97.5 15 t-86.5 41.5t-71.5 60t-51.5 70.5l-1 -11q-9 -38 -29.5 -68.5t-50 -53.5t-64.5 -35t-74 -12q-37 0 -66.5 12t-49.5 35t-27 54.5t2 68.5l167 788q16 69 2 126q-13 60 -59 103l-180 -105q-40 -20 -81.5 -22.5t-79.5 22.5l-138 109q-67 -44 -106 -104t-54 -129l-102 -475 l245 212h-16q-24 0 -43 8.5t-31 24t-16.5 37t0.5 44.5q5 25 18 46t31.5 36t41.5 24.5t47 9.5h305q27 0 49.5 -10t36.5 -28t20 -41.5t-2 -50.5q-5 -26 -16.5 -51t-33.5 -42l-729 -638q-36 -31 -79.5 -49t-89.5 -18q-44 0 -80.5 14.5t-59.5 39.5t-32 60z" />
<glyph unicode="&#xe13;" horiz-adv-x="2382" d="M44.5 89.5q-4.5 26.5 1.5 54.5l141 665q7 32 4.5 66t-22.5 67q-19 30 -29 52.5t-10.5 41.5t8.5 42q11 22 31 53q51 80 121 152.5t163 128t207.5 88.5t254.5 33q130 0 226 -24.5t162.5 -68t105 -103.5t55 -131t13.5 -149.5t-20 -158.5l-81 -377q-13 -59 -10 -100t18 -65 t42 -35.5t64 -11.5q67 0 125 28t104.5 77t79.5 116.5t50 144.5l140 658q9 38 31 72t52 57.5t67 37t76 13.5t71 -13.5t52 -37t29 -57.5q8 -35 0 -72l-252 -1180q-9 -37 -29.5 -68.5t-50 -54.5t-64.5 -35t-72 -12t-68 12t-51 35t-27.5 53.5t0.5 68.5l2 11q-38 -39 -82 -73 t-92.5 -59t-101 -40t-105.5 -15q-143 0 -228.5 38.5t-126.5 111.5t-41.5 179.5t29.5 240.5l78 376q12 52 7.5 102t-31 90.5t-78.5 66.5t-136 27q-61 2 -113 -11t-94 -33.5t-73.5 -47t-50.5 -51.5q37 -44 48.5 -110.5t-5.5 -149.5l-110 -516h36q30 0 52 -11.5t36.5 -31 t18.5 -45.5q3 -27 -3 -57t-21.5 -55.5t-37.5 -45.5t-49.5 -31.5t-57.5 -11.5h-271q-30 0 -53 11.5t-36.5 31.5t-18 46.5z" />
<glyph unicode="&#xe14;" horiz-adv-x="1720" d="M14 170l153 719q17 83 50 162.5t83 151t119 132.5t159 105t202 68.5t248 24.5q135 0 235.5 -24.5t170.5 -68.5t112.5 -105t62.5 -132.5t18.5 -151.5t-18.5 -162l-153 -723q-9 -39 -30.5 -71t-52 -55.5t-67 -37t-75.5 -13.5q-38 0 -69.5 13.5t-51.5 37t-28 55.5t1 71 l160 752q11 52 3 104.5t-40 95t-92 69t-153 26.5q-94 0 -167 -26.5t-124.5 -69t-82.5 -94.5q-31 -53 -41 -105l-94 -446l252 206h-26q-24 0 -43 8.5t-31 24t-16.5 37t0.5 44.5q5 25 18 46t31.5 36t41.5 24.5t47 9.5h312q27 0 49.5 -10t36.5 -28t20 -41.5t-1 -50.5 q-6 -26 -17.5 -50t-37.5 -47l-742 -635q-34 -30 -76.5 -48t-87.5 -18q-43 0 -78 13.5t-58 38.5t-31.5 60t-0.5 78z" />
<glyph unicode="&#xe15;" horiz-adv-x="1720" d="M14 170l159 751q19 89 56.5 175.5t96.5 163t141 138.5t189 104q18 5 43 12.5t52 9.5t55.5 -4t52.5 -23l139 -108l193 110q30 17 58 21t51.5 3t42 -8.5t31.5 -11.5q92 -40 147.5 -102.5t83 -139t28.5 -163.5t-19 -177l-158 -755q-9 -39 -30.5 -71t-52 -55.5t-67 -37 t-75.5 -13.5q-38 0 -69.5 13.5t-51.5 37t-28 55.5t1 71l165 784q6 30 7 61t-5.5 61.5t-21 57.5t-37.5 48l-179 -104q-40 -20 -81.5 -22t-79.5 22l-139 109q-67 -45 -106.5 -108.5t-53.5 -124.5l-100 -478l252 206h-26q-24 0 -43 8.5t-31 24t-16.5 37t0.5 44.5q5 25 18 46 t31.5 36t41.5 24.5t47 9.5h312q27 0 49.5 -10t36.5 -28t20 -41.5t-1 -50.5q-6 -26 -17.5 -50t-37.5 -47l-742 -635q-34 -30 -76.5 -48t-87.5 -18q-43 0 -78 13.5t-58 38.5t-31.5 60t-0.5 78z" />
<glyph unicode="&#xe16;" horiz-adv-x="1610" d="M28.5 89.5q-4.5 26.5 1.5 54.5l142 665q7 32 4 66q-2 34 -22 67q-18 30 -29 52.5t-11.5 41.5t9 41.5t30.5 53.5q51 80 125 152.5t169 128t215 88.5q122 33 265 33q134 0 234 -24.5t169.5 -67t111.5 -103.5t61 -132t17.5 -149.5t-18.5 -158.5l-155 -729q-9 -40 -30 -72.5 t-52.5 -56.5t-69 -37.5t-75.5 -13.5q-40 0 -71 13.5t-51.5 37.5t-28.5 57t1 72l160 753q11 52 5.5 103.5t-35.5 93t-89 66.5t-153 28q-73 1 -131.5 -13.5t-103 -36.5t-75 -49t-45.5 -53q38 -41 47 -107t-9 -149l-111 -516h36q30 0 53 -11.5t36.5 -31t18 -46t-1.5 -56.5 t-21.5 -55.5t-38.5 -45.5t-50 -31.5t-56 -11.5h-270q-30 0 -53 11.5t-36.5 31.5t-18 46.5z" />
<glyph unicode="&#xe17;" horiz-adv-x="1610" d="M11.5 89q-7.5 33 1.5 71l253 1197q9 37 29.5 68.5t49 54.5t64.5 35t73 12t67 -12t49.5 -35t26.5 -54.5t0 -68.5l-4 -23q111 92 227 141t229 49q154 0 252 -37t149.5 -108t59.5 -173t-19 -231l-173 -815q-9 -38 -31 -71t-52 -56.5t-66.5 -36.5t-75.5 -13q-38 0 -69 13 t-51 36.5t-27 56.5t1 71l173 820q23 105 -23.5 158t-160.5 53q-90 0 -164 -27t-129 -75.5t-91 -116.5q-37 -65 -54 -145l-141 -667q-9 -38 -30.5 -71t-51.5 -56.5t-67 -36.5t-76 -13q-38 0 -69.5 13t-51.5 36.5t-27.5 56.5z" />
<glyph unicode="&#xe18;" horiz-adv-x="1530" d="M70 455l30 136q9 38 30.5 71t51.5 56.5t66.5 37t74.5 13.5q39 0 70.5 -13.5t51.5 -37t27.5 -56.5t0.5 -71l-30 -136q-10 -46 6.5 -78t49.5 -53t76 -30t89 -9q41 0 88 7.5t90 27.5t75.5 51.5t42.5 83.5q10 45 8.5 79.5t-30.5 64t-93 58t-180 61.5q-106 30 -196.5 65.5 t-153 84.5t-90.5 115.5t-9 159.5q17 73 54 129t88 99t114 73t132.5 49.5t141.5 28t143 8.5q103 0 192 -15.5t159 -51.5t116.5 -91.5t64.5 -135.5q8 -35 -1 -72q-9 -39 -29.5 -71.5t-51.5 -57.5t-67 -39.5t-74 -14.5q-58 0 -96 30.5t-50 81.5q-8 40 -31.5 65.5t-58 40.5 t-78 21.5t-92.5 6.5q-38 0 -72.5 -6.5t-63 -18.5t-46.5 -29.5t-22 -39.5q-3 -18 11 -33t41.5 -28.5t61.5 -25.5t68 -22t64.5 -18t49.5 -14q90 -27 164.5 -52.5t131.5 -56.5t96.5 -69t60 -88.5t21.5 -117.5q3 -65 -17 -153q-18 -87 -57.5 -157.5t-95 -124t-123.5 -91.5 t-144.5 -63t-159.5 -37q-80 -12 -163 -12q-126 0 -234.5 28t-183 86t-105.5 150t-5 221z" />
<glyph unicode="&#xe19;" horiz-adv-x="1610" d="M69 293q-9 102 20 230l174 817q9 39 29.5 71t50.5 55.5t66.5 37t75.5 13.5q38 0 69 -13.5t51.5 -37t28 -55.5t-1.5 -71l-172 -811q-11 -53 -3 -93.5t32 -69.5t63.5 -43t92.5 -14q90 0 163 27t128 75.5t91.5 116t53.5 146.5l142 666q8 39 29.5 71t52.5 55.5t67.5 37 t74.5 13.5q39 0 69.5 -13.5t51.5 -37t28 -55.5t0 -71l-253 -1193q-9 -37 -29.5 -68.5t-49 -54.5t-64.5 -35t-73 -12t-67 12t-49.5 35t-27.5 54.5t1 68.5l4 19q-111 -92 -227 -142t-230 -50q-155 0 -253 38t-149.5 109t-59.5 172z" />
<glyph unicode="&#xe1a;" horiz-adv-x="1610" d="M87 452.5q5 79.5 22 162.5l154 726q9 39 29.5 71t50.5 55t66.5 36.5t75.5 13.5q38 0 69 -13.5t51 -36.5t28 -55t-1 -71l-159 -752q-11 -54 -8 -107t28 -96t76.5 -70t135.5 -27t146.5 27t105.5 70t68.5 96t36.5 107l161 752q8 39 29.5 71t51.5 55t66.5 36.5t75.5 13.5 q38 0 69.5 -13.5t52.5 -36.5t28.5 -55t-0.5 -71l-155 -726q-17 -83 -46 -162.5t-74 -152.5t-107.5 -133.5t-146 -105t-190 -69.5t-239.5 -25q-135 0 -231.5 25t-161.5 69.5t-100.5 105t-49 133.5t-8.5 152.5z" />
<glyph unicode="&#xe1b;" horiz-adv-x="1608" d="M85 452.5q5 79.5 24 162.5l154 726q9 39 29.5 71t50.5 55t66 36.5t74 13.5q39 0 69.5 -13.5t50.5 -36.5t29 -55t0 -71l-160 -752q-12 -54 -9 -107t28 -96t77 -70q50 -27 136 -27q84 0 146 27t105 70t69 96t37 107l300 1410q9 39 30.5 70.5t52 55t67 37t75.5 13.5 q38 0 69 -13.5t51.5 -37t28.5 -56t0 -69.5l-294 -1384q-17 -83 -47 -162.5t-75 -152.5t-107 -133.5t-145 -105t-190.5 -69.5t-240.5 -25q-134 0 -230.5 25t-161 69.5t-100 105t-50 133.5t-9.5 152.5z" />
<glyph unicode="&#xe1c;" horiz-adv-x="1723" d="M56 230q-10 90 16 210l185 874q9 39 30.5 72.5t52 59t68 40t75.5 14.5h259q32 0 56 -12t39 -33t19.5 -48.5t-1.5 -59.5q-7 -31 -24 -59t-41 -49.5t-52.5 -33.5t-61.5 -12h-73l-147 -695q-23 -108 -10.5 -158.5t52.5 -50.5q30 0 52 20.5t39 57t30 85t26 104.5l24 113 q9 36 28 66t48 52t62.5 34.5t70.5 12.5q36 0 65 -12.5t48 -34.5t26 -52.5t0 -65.5l-25 -113q-12 -56 -18.5 -104.5t-3 -85t19 -57t48.5 -20.5t64 50t55 159l179 842q8 39 29.5 71t51.5 55.5t67.5 37t75.5 13.5q39 0 69.5 -13.5t51.5 -37t28.5 -55.5t-0.5 -71l-192 -900 q-26 -120 -73.5 -210t-113.5 -148t-148 -86.5t-175 -28.5q-100 0 -173 32t-113 100q-63 -62 -147 -97t-185 -35q-94 0 -165.5 28.5t-114 86.5t-53.5 148z" />
<glyph unicode="&#xe1d;" horiz-adv-x="1723" d="M56 230q-10 90 16 210l185 874q9 39 30.5 72.5t52 59t68 40t75.5 14.5h259q32 0 56 -12t39 -33t19.5 -48.5t-1.5 -59.5q-7 -31 -24 -59t-41 -49.5t-52.5 -33.5t-61.5 -12h-73l-147 -695q-23 -108 -10.5 -158.5t52.5 -50.5q30 0 52 20.5t39 57t30 85t26 104.5l24 113 q9 36 28 66t48 52t62.5 34.5t70.5 12.5q36 0 65 -12.5t48 -34.5t26 -52.5t0 -65.5l-25 -113q-12 -56 -18.5 -104.5t-3 -85t19 -57t48.5 -20.5t64 50t55 159l317 1498q9 39 31 72t52 56.5t67.5 37t75.5 13.5q39 0 69.5 -13.5t51.5 -37t28 -56.5t-1 -72l-331 -1556 q-26 -120 -73.5 -210t-113.5 -148t-148 -86.5t-175 -28.5q-100 0 -173 32t-113 100q-63 -62 -147 -97t-185 -35q-94 0 -165.5 28.5t-114 86.5t-53.5 148z" />
<glyph unicode="&#xe1e;" horiz-adv-x="2009" d="M203 1294q-1 39 12.5 74.5t39 65t60.5 50t75 30.5q42 9 78.5 4t64.5 -23.5t45 -48t17 -67.5l4 -727l375 744q14 27 34 49t46 38.5t54.5 26t58.5 9.5t54.5 -9.5t43 -26t29 -40t13.5 -50.5l59 -734l309 720q17 38 46 67.5t65 48t75 23.5t78 -4q37 -8 63 -29.5t38.5 -51 t10.5 -65t-20 -74.5l-561 -1172q-16 -32 -39.5 -57.5t-53 -44.5t-63 -28t-67.5 -9t-63 10t-50 28.5t-34 44.5t-16 57l-60 734l-369 -735q-16 -32 -40 -57.5t-53.5 -44.5t-62.5 -28t-69 -9q-34 0 -63.5 9t-50.5 28t-34 44.5t-13 58.5z" />
<glyph unicode="&#xe1f;" horiz-adv-x="2009" d="M203 1294q-1 39 12.5 74.5t39 65t60.5 50t75 30.5q42 9 78.5 4t64.5 -23.5t45 -48t17 -67.5l4 -727l375 744q14 27 34 49t46 38.5t54.5 26t58.5 9.5t54.5 -9.5t43 -26t29 -40t13.5 -50.5l59 -734l619 1377q16 39 44.5 68.5t64 47t75.5 22.5t77.5 -3.5t63 -30t38.5 -50.5 t11.5 -65t-20.5 -74l-869 -1829q-16 -32 -39.5 -57.5t-53 -44.5t-63 -28t-67.5 -9t-63 10t-50 28.5t-34 44.5t-16 57l-60 734l-369 -735q-16 -32 -40 -57.5t-53.5 -44.5t-62.5 -28t-69 -9q-34 0 -63.5 9t-50.5 28t-34 44.5t-13 58.5z" />
<glyph unicode="&#xe20;" horiz-adv-x="1673" d="M-78.5 89.5q-4.5 26.5 1.5 54.5q5 30 21 56.5t38 46t50 31t57 11.5h34l112 520q7 32 4 66t-23 67q-19 30 -29 52.5t-10.5 41.5t8.5 41.5t31 53.5q51 80 124 152.5t169 128t216 88.5t263 33q135 0 235.5 -24.5t170 -67t111 -103.5t60.5 -132t17 -149.5t-19 -158.5 l-156 -736q-8 -40 -29.5 -72.5t-53 -56.5t-69 -37t-75.5 -13q-40 0 -71 13t-51.5 37t-28.5 57t1 72l161 760q12 52 6 103.5t-36 93t-88.5 66.5t-151.5 28q-73 1 -131.5 -13.5t-103.5 -36.5t-75 -49t-45 -53q19 -20 31 -43t17 -53t2 -69t-13 -91l-140 -661q-5 -30 -21 -55.5 t-39 -45.5t-50 -31.5t-56 -11.5h-268q-30 0 -52.5 11.5t-36.5 31.5t-18.5 46.5z" />
<glyph unicode="&#xe21;" horiz-adv-x="1610" d="M10 82.5q-7 31.5 1 69.5l252 1188q9 39 29.5 71t51.5 55.5t67.5 37t74.5 13.5q39 0 70.5 -13.5t51.5 -37t28 -55.5t-1 -71l-140 -666q-17 -81 -9.5 -147.5t42 -115t95.5 -75.5t152 -27q52 0 98 14t82.5 43t61.5 69.5t35 93.5l174 811q8 39 29 71t51 55.5t67 37t74 13.5 q39 0 69.5 -13.5t51.5 -37t28 -55.5t0 -71l-175 -817q-27 -128 -77.5 -229.5t-131.5 -172.5t-195.5 -109t-268.5 -38q-56 0 -110.5 13.5t-102 40t-88.5 65.5t-72 90l-6 -31q-9 -38 -29.5 -69.5t-50 -54t-64.5 -35t-72 -12.5t-67 12.5t-49.5 35t-26.5 54z" />
<glyph unicode="&#xe22;" horiz-adv-x="1570" d="M46.5 319.5q-10.5 73.5 7.5 163.5q23 112 76.5 195.5t144.5 130.5q-32 30 -52 66.5t-30.5 75.5t-11.5 79.5t6 79.5q16 77 49.5 136.5t77.5 103t95 72t106.5 46.5t109 25t100.5 7h122q31 0 57.5 -12t43 -33.5t23 -49.5t-0.5 -59q-8 -32 -25.5 -60.5t-43.5 -50t-56.5 -33.5 t-63.5 -12h-75q-34 0 -61 -8t-45.5 -22.5t-30 -32t-14.5 -36.5q-6 -27 -2.5 -51.5t18.5 -43t40 -30t60 -14.5h74q30 0 53 -11t38.5 -30.5t20.5 -44.5t0 -55q-6 -30 -23 -55t-40 -44.5t-51 -30t-58 -10.5h-59q-30 -2 -59 -9t-55 -25.5t-46 -52t-31 -89.5q-12 -53 4 -94 t51 -69.5t83.5 -42.5t102.5 -14q60 0 116 17.5t102.5 55t79.5 96.5t51 141l160 758q9 38 30.5 70.5t51.5 55t66.5 36.5t75.5 14q38 0 69 -14t51 -36.5t27.5 -55t-0.5 -70.5l-172 -805q-30 -142 -103.5 -249t-178 -179.5t-231 -109.5t-260.5 -37q-83 0 -162 13.5t-147.5 41.5 t-122 71t-88 100t-45 130.5z" />
<glyph unicode="&#xe23;" horiz-adv-x="1361" d="M19.5 323.5q-0.5 16.5 3.5 35.5q7 36 26.5 66t45 52t57.5 35.5t68 13.5q49 0 81 -26.5t48 -61.5q13 -32 36 -62.5t53 -54.5t66.5 -39.5t76.5 -15.5t82 7t80 25.5t66 51.5q26 32 38 80q8 42 -8.5 72t-58.5 55.5t-109.5 47t-158.5 44.5q-74 19 -143.5 48t-118 75.5 t-70 114.5t-1.5 167q18 89 56 158t90.5 122t116 90t133 61t141.5 34.5t143 10.5q83 0 159 -15t138 -46.5t107 -82t65 -122.5q9 -31 2 -69q-7 -34 -25.5 -63t-43.5 -50.5t-57.5 -33t-66.5 -11.5q-37 0 -65 18.5t-45 42.5q-23 30 -49 53.5t-56 41t-65.5 26t-80.5 8.5 q-27 0 -61 -5.5t-68 -19.5t-59 -36t-32 -55q-5 -31 5 -55t32.5 -41.5t57 -31t76 -26.5t88 -24.5t94.5 -25.5q76 -20 142.5 -50t111.5 -79t62.5 -119.5t-4.5 -173.5q-20 -97 -60 -173.5t-93.5 -134t-119.5 -97.5t-138 -65.5t-148.5 -36.5t-152.5 -11q-89 0 -169.5 19.5 t-145 60t-109.5 101.5t-62 144q-3 15 -3.5 31.5z" />
<glyph unicode="&#xe24;" horiz-adv-x="1580" d="M28.5 89.5q-4.5 26.5 1.5 54.5l142 665q7 32 4 66q-2 34 -22 67q-18 30 -29 52.5t-11.5 41.5t9 41.5t30.5 53.5q51 80 125 152.5t169 128t215 88.5q122 33 265 33q134 0 234 -24.5t169.5 -67t111.5 -103.5t61 -132t17.5 -149.5t-18.5 -158.5l-259 -1214q-9 -40 -30.5 -72 t-51.5 -56.5t-68 -38t-76 -13.5q-40 0 -71 13.5t-51.5 38t-28.5 56.5t1 72l263 1238q11 52 5.5 103.5t-35.5 93t-89 66.5t-153 28q-73 1 -131.5 -13.5t-103 -36.5t-75 -49t-45.5 -53q38 -41 47 -107t-9 -149l-111 -516h36q30 0 53 -11.5t36.5 -31t18 -46t-1.5 -56.5 t-21.5 -55.5t-38.5 -45.5t-50 -31.5t-56 -11.5h-270q-30 0 -53 11.5t-36.5 31.5t-18 46.5z" />
<glyph unicode="&#xe25;" horiz-adv-x="1573" d="M17 398q22 100 72.5 177t124 135t166.5 97.5t198.5 63t219.5 32.5t233 8q17 0 33.5 -1t33.5 -1l26 128q13 58 -3 97t-48 61.5t-74 32.5t-85 10q-45 0 -87.5 -10t-81.5 -30.5t-71.5 -52.5t-58.5 -75q-16 -28 -39 -52t-50 -41t-57.5 -26.5t-62.5 -9.5q-40 0 -70.5 15 t-50.5 40t-27.5 59.5t1.5 74.5q8 37 28 71q59 95 136 158.5t169 102t194 55t209 16.5q72 0 142 -9.5t133 -32t113 -61.5t81.5 -95.5t40.5 -132t-12 -175.5l-186 -868q-9 -39 -29.5 -71t-51.5 -55.5t-66.5 -36.5t-74.5 -13q-38 0 -69 13t-51 36.5t-27.5 55.5t0.5 71l100 469 q-18 1 -37.5 2t-39.5 1q-97 0 -192 -9t-173 -31t-131 -62t-67 -103q-10 -46 4 -77.5t42.5 -48.5t68 -24t79.5 -7q33 0 76 4q4 2 8.5 2h8.5q30 0 53.5 -11.5t39.5 -31t21 -45.5q5 -27 -1 -55q-6 -26 -19 -49t-31.5 -41t-41 -30.5t-47.5 -18.5q-101 -23 -190 -23 q-110 0 -203 25t-156.5 77t-89.5 132.5t-3 193.5z" />
<glyph unicode="&#xe26;" horiz-adv-x="1673" d="M-78.5 89.5q-4.5 26.5 1.5 54.5q5 30 21 56.5t38 46t50 31t57 11.5h34l112 520q7 32 4 66t-23 67q-19 30 -29 52.5t-10.5 41.5t8.5 41.5t31 53.5q51 80 124 152.5t169 128t216 88.5t263 33q135 0 235.5 -24.5t170 -67t111 -103.5t60.5 -132t17 -149.5t-19 -158.5 l-259 -1214q-8 -40 -29.5 -72t-51.5 -56.5t-68 -37.5t-77 -13q-40 0 -70.5 13t-51.5 37.5t-29 57t1 71.5l263 1238q12 52 6 103.5t-36 93t-88.5 66.5t-151.5 28q-73 1 -131.5 -13.5t-103.5 -36.5t-75 -49t-45 -53q19 -20 31 -43t17 -53t2 -69t-13 -91l-140 -661 q-5 -30 -21 -55.5t-39 -45.5t-50 -31.5t-56 -11.5h-268q-30 0 -52.5 11.5t-36.5 31.5t-18.5 46.5z" />
<glyph unicode="&#xe27;" horiz-adv-x="1434" d="M49 333q-8 36 1.5 73t31.5 70t54.5 58t72.5 39q40 13 75.5 11t64.5 -17.5t48 -42t23 -64.5q12 -85 60 -128t115 -43q61 0 116 28t101.5 83.5t82.5 143t62 207.5q25 118 26 206t-20.5 145.5t-64.5 85.5t-106 28q-34 0 -67 -11t-65 -31.5t-61.5 -53t-52.5 -75.5 q-20 -37 -50.5 -63.5t-65.5 -42t-73 -18.5t-72 11q-35 13 -55.5 39t-29 58t-3 69t28.5 73q51 83 119 151t149.5 116t174 73.5t192.5 25.5q167 0 278 -56.5t169.5 -160t66.5 -248t-29 -321.5q-38 -178 -108 -322t-172 -247t-236.5 -159t-301.5 -56q-103 0 -186 26 t-142.5 73.5t-97.5 115.5t-53 151z" />
<glyph unicode="&#xe28;" horiz-adv-x="1661" d="M13 96.5q-7 32.5 0 70.5l153 718q17 83 48.5 163t79.5 152.5t113.5 133t152 105.5t195.5 69.5t245 24.5q90 0 163 -11.5t131 -32.5q26 13 49.5 33t40.5 44q35 51 77.5 77.5t100.5 26.5q35 0 64 -14t46.5 -38t23.5 -55t-4 -67q-17 -65 -64.5 -109t-110.5 -79 q25 -44 37.5 -94t15.5 -103.5t-2.5 -111t-17.5 -114.5l-153 -718q-8 -38 -29.5 -70.5t-52.5 -56t-67.5 -36.5t-74.5 -13q-39 0 -70 13t-51.5 36.5t-28.5 56t1 70.5l159 748q11 52 4.5 105.5t-35 95.5t-82 69.5t-139.5 27.5q-84 0 -151.5 -27.5t-117 -69.5t-80 -95.5 t-40.5 -105.5l-30 -140q64 53 132 88.5t145 57.5q35 9 65.5 3t53.5 -22.5t36.5 -41.5t15.5 -56q1 -33 -12 -65.5t-34.5 -58.5t-50.5 -45.5t-64 -25.5q-88 -16 -157 -51t-119 -87t-83 -120q-34 -68 -51 -149l-6 -35q-8 -38 -29.5 -70.5t-52.5 -56t-66.5 -36.5t-74.5 -13 q-38 0 -69 13t-51 36.5t-27 56z" />
<glyph unicode="&#xe29;" horiz-adv-x="1668" d="M87.5 452.5q4.5 79.5 21.5 162.5l154 726q9 39 30.5 71t51.5 55.5t67 37.5t76 14q38 0 69 -14t51 -37.5t28 -56t-1 -70.5l-159 -752q-11 -54 -7 -107t33 -96t84.5 -70t148.5 -27q92 0 158.5 27t111.5 70t71.5 96t37.5 107l19 89h-305q-34 0 -60.5 11.5t-45 32t-25 48.5 t0.5 62l26 118q7 34 25.5 62.5t45 48.5t58.5 32q31 11 65 11q33 0 61 -10.5t45.5 -31t25 -47.5t1.5 -60h140l82 386q8 39 29.5 71t52.5 55.5t68 37.5t76 14q38 0 69.5 -14t52.5 -37.5t28.5 -56t0.5 -70.5l-81 -386h18q29 0 51 -11.5t35 -30t17.5 -43.5t-1.5 -53 q-6 -29 -21.5 -55t-36.5 -44.5t-47.5 -29t-54.5 -10.5h-19l-14 -63q-17 -83 -48 -162.5t-77.5 -152.5t-111 -133.5t-151 -105t-196.5 -69.5t-246 -25q-140 0 -239.5 25t-167 69.5t-106.5 105t-54.5 133.5t-11 152.5z" />
<glyph unicode="&#xe2a;" horiz-adv-x="1573" d="M17 398q22 100 72.5 177t124 135t166.5 97.5t198.5 63t219.5 32.5t233 8q17 0 33.5 -1t33.5 -1l26 128q13 58 -3 97t-48 61.5t-74 32.5t-85 10q-45 0 -87.5 -10t-81.5 -30.5t-71.5 -52.5t-58.5 -75q-16 -28 -39 -52t-50 -41t-57.5 -26.5t-62.5 -9.5q-40 0 -70.5 15 t-50.5 40t-27.5 59.5t1.5 74.5q8 37 28 71q59 95 136 158.5t169 102t194 55t209 16.5q70 0 139.5 -9.5t132.5 -32.5v2q23 13 44.5 33t35.5 40q34 51 78.5 77.5t100.5 26.5q36 0 64.5 -14t47 -38t23.5 -55t-5 -67q-17 -60 -63 -106t-114 -84q23 -55 27 -123t-13 -156 l-186 -868q-9 -39 -29.5 -71t-51.5 -55.5t-66.5 -36.5t-74.5 -13q-38 0 -69 13t-51 36.5t-27.5 55.5t0.5 71l100 469q-18 1 -37.5 2t-39.5 1q-97 0 -192 -9t-173 -31t-131 -62t-67 -103q-10 -46 4 -77.5t42.5 -48.5t68 -24t79.5 -7q33 0 76 4q4 2 8.5 2h8.5q30 0 53.5 -11.5 t39.5 -31t21 -45.5q5 -27 -1 -55q-6 -26 -19 -49t-31.5 -41t-41 -30.5t-47.5 -18.5q-101 -23 -190 -23q-110 0 -203 25t-156.5 77t-89.5 132.5t-3 193.5z" />
<glyph unicode="&#xe2b;" horiz-adv-x="1577" d="M11.5 89q-7.5 33 1.5 71l250 1181q9 39 30.5 71t51.5 55.5t67 37.5t76 14q38 0 69 -14t51 -37.5t28 -56t-1 -70.5l-60 -289l788 439q34 21 70.5 26.5t67.5 -1.5t56 -26.5t37 -50.5q13 -30 11.5 -64t-15.5 -67.5t-40 -61.5t-60 -48l-126 -73q39 -34 59.5 -79.5t27 -101 t1 -119.5t-20.5 -136l-113 -529q-8 -38 -29.5 -71t-51.5 -56.5t-67 -36.5t-76 -13t-70.5 13t-51.5 36.5t-27 56.5t0 71l119 555q8 37 10.5 70t-2.5 61t-18 48t-39 33l-532 -304l-98 -463q-9 -38 -30.5 -71t-51.5 -56.5t-67 -36.5t-76 -13q-38 0 -69.5 13t-51.5 36.5 t-27.5 56.5z" />
<glyph unicode="&#xe2c;" horiz-adv-x="1960" d="M203 1294q-1 39 13 74.5t39 65t61 50t76 30.5q41 9 77.5 4t64.5 -23.5t44.5 -48t16.5 -67.5l-17 -778l329 564q15 28 36 50t45 38.5t53 25.5t57 9q60 0 96 -34t44 -87l96 -589l179 410q20 49 33.5 88t14.5 68.5t-14 49.5t-51 32q-23 5 -39.5 19.5t-27 33.5t-13.5 42t1 49 q6 27 21 52t35.5 44.5t46.5 33t52 17.5q74 13 130.5 44t93.5 85q16 23 37.5 42t45.5 33.5t50.5 21.5t55.5 7q38 0 68.5 -14t49.5 -39t26 -58t-1 -72q-9 -41 -34 -76t-59 -63t-75 -49.5t-80 -38.5q49 -73 55 -159t-43 -181l-451 -888q-14 -29 -37 -53.5t-49.5 -41t-57 -25.5 t-63.5 -9q-66 0 -103.5 35.5t-46.5 93.5l-99 646l-367 -646q-15 -29 -37 -53.5t-48.5 -41t-57 -25.5t-63.5 -9q-66 0 -107 35q-42 35 -45 94z" />
<glyph unicode="&#xe2d;" horiz-adv-x="1551" d="M57.5 507q1.5 94 18.5 194q6 31 23 59t40 48t52 32t61 12h422q31 0 54.5 -12t38.5 -32t19.5 -48t-1.5 -59q-7 -32 -23.5 -60t-39.5 -48t-52 -32t-61 -12h-174q3 -59 20.5 -106t48.5 -81.5t75 -53.5t100 -19q75 0 140 31.5t118 90t93 143t63 192.5q47 225 -7 343.5 t-215 118.5q-43 0 -89 -10t-89.5 -27.5t-81.5 -45.5q-39 -27 -65 -63q-27 -34 -57 -60.5t-63.5 -41.5t-70 -17.5t-75.5 9.5q-34 12 -56 37.5t-30 60t0 72.5t32 72q57 80 134.5 143.5t169.5 108t195.5 68t215.5 23.5q192 0 312.5 -60.5t181.5 -167t67 -251.5q7 -146 -29 -312 q-23 -104 -60 -202t-91 -184.5t-124.5 -158.5t-159 -124.5t-195.5 -80.5q-105 -29 -231 -29q-123 0 -215 26.5t-158 74.5t-106 116t-58.5 148.5t-17 174.5z" />
<glyph unicode="&#xe2e;" horiz-adv-x="1551" d="M57.5 507q1.5 94 18.5 194q6 31 23 59t40 48t52 32t61 12h422q31 0 54.5 -12t38.5 -32t19.5 -48t-1.5 -59q-7 -32 -23.5 -60t-39.5 -48t-52 -32t-61 -12h-174q3 -59 20.5 -106t48.5 -81.5t75 -53.5t100 -19q75 0 140 31.5t118 90t93 143t63 192.5q47 225 -7 343.5 t-215 118.5q-43 0 -89 -10t-89.5 -27.5t-81.5 -45.5q-39 -27 -65 -63q-27 -34 -57 -60.5t-63.5 -41.5t-70 -17.5t-75.5 9.5q-34 12 -56 37.5t-30 60t0 72.5t32 72q57 80 134.5 143.5t169.5 108t195.5 68t215.5 23.5q84 0 154 -12t128 -35q25 13 49 33t39 43q35 51 78.5 77.5 t99.5 26.5q35 0 64 -14t47.5 -38t23.5 -55q3 -31 -5 -67q-17 -65 -64.5 -110t-111.5 -79l-6 -1q59 -108 65 -250q7 -144 -29 -310q-23 -104 -60 -202t-91 -184.5t-124.5 -158.5t-159 -124.5t-194.5 -81t-232 -28.5q-123 0 -215 26.5t-158 74.5t-106 116t-58.5 148.5 t-17 174.5z" />
<glyph unicode="&#xe2f;" horiz-adv-x="1617" d="M200 840.5q-20 94.5 4 210.5q18 84 55 150.5t85.5 117t108 85.5t122.5 56t127 30.5t126 9.5h143q31 0 55.5 -12t39.5 -33t19.5 -48.5t-1.5 -59.5q-7 -31 -24.5 -59t-41 -49.5t-52 -33.5t-61.5 -12h-143q-74 0 -118.5 -39.5t-58.5 -106.5q-7 -33 -2 -66.5t27 -60t65 -43 t114 -16.5q165 0 265.5 56.5t126.5 180.5l52 245q8 38 29.5 70.5t51.5 55t66.5 36.5t75.5 14q38 0 69 -14t51 -36.5t28 -55t-1 -70.5l-252 -1184q-8 -39 -29.5 -71t-51.5 -55.5t-66.5 -36.5t-75.5 -13q-38 0 -69 13t-51 36.5t-27 55.5t0 71l99 459q-78 -36 -166 -56 q-90 -20 -182 -20q-159 0 -269.5 35.5t-176.5 102t-86 161z" />
<glyph unicode="&#xe30;" horiz-adv-x="932" d="M57.5 302.5q-6.5 26.5 1.5 57.5l25 128q8 31 25.5 57.5t42.5 46t55 30t63 10.5q32 0 57.5 -10.5t43 -30t23 -46t-1.5 -57.5h266q27 0 48.5 -11t35 -29.5t17 -43.5t-2.5 -52q-5 -29 -20 -54t-35 -43t-46.5 -28.5t-53.5 -10.5h-419q-32 0 -57.5 10.5t-43 30t-24 46z M216 1044.5q-7 26.5 0 59.5l27 126q6 31 24 57.5t43 46t55 30t63 10.5q31 0 57 -10.5t43 -30t22.5 -46t0.5 -57.5h266q27 0 48.5 -11t34 -29.5t17 -43.5t-2.5 -52q-6 -29 -20.5 -53t-35 -42t-46.5 -28.5t-53 -10.5h-419q-31 0 -57.5 10.5t-43 29t-23.5 45z" />
<glyph unicode="&#xe31;" d="M-748.5 1806q-6.5 29 0.5 63l27 130q7 34 26.5 62t46.5 49t59.5 32.5t66.5 11.5t62 -11.5t45 -32.5t25 -49q7 -28 0 -62h606q30 0 51.5 -11.5t35 -31.5t18.5 -45.5t-2 -54.5q-6 -30 -21.5 -55.5t-38 -45t-49 -31t-56.5 -11.5h-770q-35 0 -62 11.5t-45.5 32t-25 49.5z" />
<glyph unicode="&#xe32;" horiz-adv-x="1295" d="M123 1125.5q7 37.5 29 74.5q50 83 119 145t149 103.5t167 63t171 21.5q119 0 215.5 -31t159 -95t85.5 -162t-5 -231l-182 -854q-9 -38 -31 -71t-52 -56.5t-67 -36.5t-76 -13t-70 13t-51 36.5t-27.5 56.5t-0.5 71l172 807q27 130 -8.5 188t-130.5 58q-64 0 -118.5 -36 t-91.5 -106q-21 -37 -53.5 -65t-69 -43.5t-75 -18t-72.5 12.5q-35 13 -56 38.5t-29 59t-1 71z" />
<glyph unicode="&#xe33;" horiz-adv-x="1295" d="M-387 1866.5q-12 56.5 1 121.5q14 65 50.5 122.5t87.5 100.5t113 67t126 24q63 0 115.5 -24t86 -67t47 -100.5t-0.5 -122.5q-13 -65 -51 -121.5t-90 -98.5t-114.5 -67t-125.5 -25q-64 0 -115.5 25t-84.5 67t-45 98.5zM-189 1988q-4 -22 1 -42.5t17 -36.5t30.5 -25 t40.5 -9q23 0 46.5 9t43 25t33.5 36.5t18 42.5q6 23 1 44t-18 37.5t-32 26t-43 9.5q-22 0 -44 -9.5t-41.5 -26t-33 -37.5t-19.5 -44zM122.5 1125.5q-6.5 -37.5 1.5 -71t29 -59t56 -38.5q34 -13 72.5 -11.5t75 17t69 43.5t53.5 65q37 70 92 106t118 36q93 0 129.5 -59 t9.5 -187l-172 -807q-8 -38 0 -71t28 -56.5t51 -36.5t70 -13t76 13t67 36.5t52 56.5t31 71l182 854q27 133 4.5 231t-85 162t-159 95t-215.5 31q-84 0 -171 -21.5t-167 -63t-149 -104.5t-119 -144q-23 -37 -29.5 -74.5z" />
<glyph unicode="&#xe34;" d="M-1256 1800q-4 28 3 56q6 30 21 55t37 45t49.5 31.5t55.5 11.5h1096q30 0 51.5 -11.5t35 -31.5t17.5 -45.5t-1 -54.5q-6 -30 -21.5 -55.5t-38 -45t-49 -31t-56.5 -11.5h-1094q-30 0 -52 11.5t-35.5 31t-18.5 44.5z" />
<glyph unicode="&#xe35;" d="M-1256 1800q-4 28 3 56q6 30 21 55t37 45t49.5 31.5t55.5 11.5h857l17 79q9 37 28 67.5t48.5 53.5t64.5 35.5t72 12.5t66 -12.5t48 -35.5t27 -53.5t-1 -67.5l-41 -196q-9 -37 -29.5 -68t-49 -53t-63 -35t-71.5 -13h-1033q-30 0 -52 11.5t-35.5 31t-18.5 44.5z" />
<glyph unicode="&#xe36;" d="M-1256 1800q-4 28 3 56q6 30 21 55t37 45t49.5 31.5t55.5 11.5h692l3 12q12 57 45 107.5t78 88t100.5 59.5t112.5 22q58 0 103.5 -22t75 -61t40 -90.5t-0.5 -108.5q-13 -63 -46 -116.5t-79.5 -93t-101.5 -61.5t-112 -22h-970q-30 0 -52 11.5t-35.5 31t-18.5 44.5z M-216.5 1973.5q3.5 -17.5 14 -31t27 -20.5t36.5 -7t40 7t36.5 20.5t28 31t16 37.5t0 37.5t-15 31.5t-27 21t-36.5 7t-40 -7t-36 -21t-27.5 -31.5t-15.5 -37.5t-0.5 -37.5z" />
<glyph unicode="&#xe37;" d="M-1256 1800q-4 28 3 56q6 30 21 55t37 45t49.5 31.5t55.5 11.5h509l23 110q6 30 23 56t41 44t53 28t59 10t55 -10t41 -28t21.5 -44t-0.5 -56l-22 -110h117l21 110q6 30 23 56t41.5 44t53 28t58.5 10t55 -10t41 -28t21.5 -44t-0.5 -56l-48 -227q-9 -37 -29.5 -68t-49 -53 t-63 -35t-71.5 -13h-1033q-30 0 -52 11.5t-35.5 31t-18.5 44.5z" />
<glyph unicode="&#xe38;" d="M-903 -364.5q-4 24.5 1 51.5t20 51.5t35 42t46 28.5t53 11h285q27 0 47.5 -11t33.5 -28.5t17.5 -41.5t-1.5 -52l-80 -378q-7 -34 -27 -64t-48 -51.5t-61.5 -33.5t-68.5 -12q-34 0 -62.5 12t-48 33.5t-26.5 51t0 64.5l53 245h-70q-27 0 -48 10t-33.5 28.5t-16.5 43z" />
<glyph unicode="&#xe39;" d="M-1403.5 -379.5q-3.5 26.5 2.5 56.5q5 30 21 55.5t38 45.5t49 31t57 11h232q30 0 52 -11t36 -31t19 -46.5t-2 -54.5l-19 -90q-13 -59 3.5 -88.5t66.5 -29.5q96 0 120 118l17 83q7 34 27 65.5t49 54.5t62 36q35 14 70 14q34 0 62 -13.5t46.5 -36.5t25 -54.5t-0.5 -65.5 l-18 -83q-17 -85 -56 -159t-102 -130.5t-153 -89t-210 -32.5q-109 0 -182.5 26.5t-116.5 73t-57.5 112.5t-4.5 143l-28 1q-30 0 -51.5 11.5t-36 31t-18 46z" />
<glyph unicode="&#xe3a;" d="M-791.5 -435.5q-9.5 42.5 0.5 88.5q10 48 37.5 90.5t66.5 73.5t85.5 50.5t95.5 19.5q46 0 84.5 -19.5t62.5 -50.5t34 -74q8 -42 -1 -90q-10 -46 -37 -88.5t-65 -74t-84.5 -50t-92.5 -18.5q-49 0 -87.5 18.5t-64 50t-35 74z" />
<glyph unicode="&#xe3e;" />
<glyph unicode="&#xe3f;" horiz-adv-x="1738" d="M50.5 137q-9.5 40 0.5 88l275 1289q10 49 37 91t66.5 73.5t86.5 50t96 18.5h379l37 178q3 16 13.5 31.5t25 27t31 18.5t30.5 7q16 0 29.5 -7t23 -18.5t13 -27t-0.5 -31.5l-38 -179q52 -1 105 -5t101.5 -11.5t90.5 -20.5t72 -33q42 -29 76 -66.5t56.5 -87t28 -108 t-8.5 -128.5q-13 -59 -38 -112t-60 -97.5t-78 -80t-91 -62.5q55 -26 98 -66.5t69 -93t33.5 -114t-6.5 -127t-46.5 -131t-80 -125.5t-110.5 -110.5t-139 -88t-164.5 -58t-187.5 -20.5h-90l-43 -197q-3 -16 -13.5 -30.5t-24 -26.5t-30 -19t-32.5 -7t-28.5 7t-21.5 19t-13 27 q-4 13 -1 30l43 197h-389q-48 0 -85.5 18t-62 48.5t-34 70.5zM456 303h229l96 452h-229zM612 1035h229l86 408h-229zM849 303h58q63 0 115 18.5t92 50t65.5 74.5t37.5 95q13 58 -5.5 99t-56.5 66.5t-91 37.5q-52 11 -109 11h-10zM1004 1037q66 5 114.5 21.5t81.5 44t54.5 63 t29.5 77.5q12 54 2 91t-36.5 60t-67.5 34t-92 13z" />
<glyph unicode="&#xe40;" horiz-adv-x="683" d="M26.5 90q-7.5 33 0.5 72l250 1176q9 39 30.5 72t52 57t68.5 38q35 14 75 14q39 0 71 -14t52 -38t28 -57q10 -33 1 -72l-252 -1176q-8 -40 -29.5 -72.5t-52.5 -56.5t-68 -37t-76 -13q-40 0 -71.5 13t-51.5 37t-27.5 57z" />
<glyph unicode="&#xe41;" horiz-adv-x="1236" d="M12 90q-8 33 1 72l250 1176q9 39 30.5 72t52 57t67.5 38q36 14 76 14q39 0 71 -14t52 -38t28 -57q9 -33 1 -72l-252 -1176q-9 -40 -30.5 -72.5t-52 -56.5t-67.5 -37t-76 -13q-40 0 -71.5 13t-51.5 37t-28 57zM594 90q-8 33 1 72l250 1176q9 39 30.5 72t52 57t67.5 38 t76 14t71 -14t52 -38t28 -57t-1 -72l-250 -1176q-9 -40 -30.5 -72.5t-52 -56.5t-67.5 -37t-76 -13q-40 0 -71.5 13t-51.5 37t-28 57z" />
<glyph unicode="&#xe42;" horiz-adv-x="760" d="M49 93q-5 27 2 59l341 1608q13 60 -9 110q-20 49 -71 73q-36 18 -53 54t-7 82q5 32 24 59t43 47t53.5 32t60.5 12h655q30 0 54.5 -12t41 -32t21.5 -47t-1 -57q-6 -32 -23.5 -58.5t-42 -46.5t-54 -31.5t-60.5 -11.5h-310q15 -15 26.5 -40t17.5 -54t6 -59.5t-8 -59.5 l-300 -1417h33q32 0 56 -11.5t38.5 -32t18.5 -48.5t-1 -59q-8 -32 -24 -59t-39 -48t-53 -33q-27 -12 -59 -12h-264q-32 0 -55.5 12t-38 33t-19.5 48z" />
<glyph unicode="&#xe43;" horiz-adv-x="760" d="M52 93q-5 27 2 59l286 1341q10 49 32.5 91.5t52.5 80.5t63 71.5t64 63.5q44 42 75.5 78.5t38.5 69.5q2 8 2 19.5t-6 21.5t-18.5 17t-37.5 7t-50 -10.5t-48 -29t-43 -44.5t-35 -57q-15 -32 -39.5 -55.5t-53 -37.5t-60 -18t-60 5t-48.5 28t-28.5 45t-6 56.5t18.5 62.5 q41 84 100.5 147t129 104.5t144 61.5t147.5 20q80 0 150.5 -18t119 -58t70 -102t3.5 -151q-6 -30 -19.5 -57t-31.5 -52t-40 -49t-44 -47q-27 -27 -52.5 -55.5t-49.5 -60t-42.5 -68t-28.5 -80.5l-253 -1190h37q32 0 55.5 -11.5t38.5 -32t19 -48.5q3 -28 -3 -59 q-7 -32 -22.5 -59t-39 -48t-52.5 -33t-60 -12h-263q-32 0 -55.5 12t-38.5 33t-20 48z" />
<glyph unicode="&#xe44;" horiz-adv-x="760" d="M49 93q-5 27 2 59l334 1568q5 29 18 59.5t31 59.5t38.5 54t43.5 40h-310q-32 0 -55.5 11.5t-40 31.5t-22 46.5t0.5 58.5q5 30 24 57t43 47t53.5 32t60.5 12h654q31 0 55.5 -12t41 -32t21.5 -47t-1 -59q-6 -23 -16.5 -43.5t-25.5 -38.5t-33.5 -31.5t-40.5 -22.5 q-61 -24 -104 -73.5t-56 -109.5l-309 -1457h33q32 0 56 -11.5t38.5 -32t18.5 -48.5t-1 -59q-8 -32 -24 -59t-39 -48t-53 -33q-27 -12 -59 -12h-264q-32 0 -55.5 12t-38 33t-19.5 48z" />
<glyph unicode="&#xe45;" horiz-adv-x="1295" d="M123 1125.5q7 37.5 29 74.5q50 83 119 145t149 103.5t167 63t171 21.5q119 0 215.5 -31t159 -95t85.5 -162t-5 -231l-286 -1341q-9 -39 -30.5 -71t-52 -56t-67 -37.5t-75.5 -13.5q-38 0 -69.5 13.5t-51.5 37.5t-28 56t0 71l275 1294q27 130 -8.5 188t-130.5 58 q-64 0 -118.5 -36t-91.5 -106q-21 -37 -53.5 -65t-69 -43.5t-75 -18t-72.5 12.5q-35 13 -56 38.5t-29 59t-1 71z" />
<glyph unicode="&#xe46;" horiz-adv-x="1530" d="M160 930q12 97 44.5 185t91.5 162t144.5 131.5t204.5 91.5q17 4 40.5 10t50 6.5t51.5 -6.5t42 -29l70 -87l99 87q26 23 54.5 30.5t55.5 6.5t51.5 -7.5t40.5 -10.5q71 -21 120 -55t78 -77.5t41 -95t13 -109.5t-8 -119q-10 -63 -23 -126l-264 -1245q-9 -39 -31 -71t-53 -56 t-68 -37.5t-75 -13.5q-39 0 -70.5 13.5t-52.5 37.5t-28.5 56t0.5 71l271 1274q5 28 13 66t13 74.5t3.5 66.5t-12.5 43l-158 -125q-17 -14 -38.5 -25.5t-46.5 -11.5q-27 0 -45 11.5t-27 25.5l-107 125q-20 -16 -36.5 -42.5t-29.5 -58.5t-23 -65.5t-14 -63.5q-3 -22 -3.5 -47 t5 -46.5t19 -36.5t39.5 -18q63 -7 92.5 -45.5t16.5 -104.5q-7 -31 -24.5 -58.5t-43 -48t-55 -32.5t-60.5 -11q-48 2 -95.5 14t-91.5 34t-81 55t-62 78t-35.5 102t-2.5 128z" />
<glyph unicode="&#xe47;" d="M-993 2008.5q1 37.5 8 70.5q20 95 69 164t116.5 113.5t147 66.5t159.5 22h649q26 0 45 -9t30 -26.5t14.5 -39.5t-0.5 -48q-6 -25 -19 -46.5t-31.5 -39t-41.5 -26.5t-49 -9h-625q-48 0 -79.5 -13.5t-50 -32.5t-26.5 -39.5t-11 -36.5q-1 -10 -2.5 -26.5t2.5 -32t16.5 -27 t35.5 -11.5q27 0 50 15t35 44q20 41 57.5 62t80.5 21q44 0 72.5 -19.5t30.5 -63.5q0 -28 13.5 -43.5t37.5 -15.5q47 0 67 49q12 25 28.5 43t37 29.5t44 16t48.5 1.5q27 -3 49 -14t35.5 -30t16.5 -47t-8 -64q-22 -63 -57 -107t-78.5 -71.5t-93.5 -39.5t-102 -12 q-37 0 -67.5 9.5t-54.5 25t-42.5 36.5t-29.5 41q-23 -23 -53 -43t-63.5 -36t-70 -24.5t-72.5 -8.5q-63 0 -108.5 15.5t-77 43t-49.5 63t-26 74.5t-7 76.5z" />
<glyph unicode="&#xe48;" d="M-112 2457q-8 30 0 66l43 204q9 36 29 66t48 53t62 34t70 11t65.5 -11t48 -34t26 -53t-0.5 -66l-43 -204q-9 -38 -29 -67t-47.5 -51.5t-62 -34.5t-70.5 -12t-65 12t-47.5 34.5t-26.5 52.5z" />
<glyph unicode="&#xe49;" d="M-489 2692q-3 22 1 46q6 26 19 47.5t31 38t40.5 26t47.5 9.5h216q25 0 43.5 -9.5t30 -26t15.5 -38.5t-2 -47l-23 -103q53 3 98 17t82 34.5t66.5 47t49.5 56.5q19 27 44 47t52.5 30t56.5 9q27 0 53 -13q24 -13 39 -35t19.5 -48t-3 -56t-25.5 -57q-43 -62 -105 -115.5 t-142.5 -92.5t-177 -61.5t-210.5 -22.5h-126q-26 0 -44.5 9.5t-29 26.5t-13.5 38.5t1 47.5l26 121h-43q-26 0 -43.5 9.5t-29 26t-14.5 38.5z" />
<glyph unicode="&#xe4a;" d="M-556 2425q-5 23 1 46q17 86 53.5 149t82.5 104.5t97.5 61.5t98.5 20q49 0 86.5 -24.5t62.5 -64.5q41 40 90.5 64.5t103.5 24.5q33 0 63 -10t53.5 -29.5t38 -47.5t18.5 -63q20 21 41.5 52.5t38.5 68.5q13 26 34 46t45 32t51 16q29 5 52 -2q27 -8 44 -23.5t23 -37 t2.5 -46.5t-15.5 -51q-30 -60 -72 -116.5t-90.5 -103t-101.5 -78t-105 -41.5h-101q-35 0 -52.5 22.5t-13.5 56.5q3 23 3.5 44.5t-3 38.5t-13.5 27q-11 10 -29 10q-28 0 -43 -18.5t-24 -48.5q-11 -37 -37 -57q-24 -20 -59 -20q-34 0 -52.5 20.5t-11.5 56.5q6 30 -3.5 48.5 t-37.5 18.5q-32 0 -53.5 -28.5t-31.5 -71.5q-14 -59 -53.5 -87.5t-87.5 -28.5q-27 0 -46.5 8.5t-31 24.5t-15.5 37z" />
<glyph unicode="&#xe4b;" d="M-315.5 2645.5q-3.5 24.5 2.5 51.5t19.5 50.5t33.5 41t44 27.5t52 10h120l11 54q7 34 26.5 63.5t47.5 51t60.5 33.5t68.5 12q34 0 62 -12t46.5 -33.5t26 -51t-1.5 -63.5l-10 -54h122q27 0 47.5 -10t32 -27.5t15 -41.5t-0.5 -51q-6 -28 -20 -51.5t-34 -40.5t-44.5 -28 t-51.5 -11h-122l-11 -52q-7 -35 -26.5 -65t-47.5 -50.5t-60.5 -33t-68.5 -12.5q-34 0 -63 12.5t-46.5 33t-24 50t-1.5 65.5l13 52h-121q-27 0 -47 11t-32.5 28t-16 41.5z" />
<glyph unicode="&#xe4c;" d="M-331.5 2313q-5.5 31 2 66t30.5 66q40 59 92.5 109t117.5 86.5t143 61t168 31.5q63 4 99.5 -24.5t34.5 -83.5q0 -27 -12 -53.5t-30.5 -48t-43.5 -36.5q-25 -13 -54 -16q-46 -4 -81.5 -18.5t-63 -34.5t-48 -45.5t-34.5 -55.5q-18 -35 -45 -58.5t-60 -35.5t-68.5 -13 t-67.5 11q-34 13 -54 37t-25.5 55z" />
<glyph unicode="&#xe4d;" d="M-387 1866.5q-12 56.5 1 121.5q14 65 50.5 122.5t87.5 100.5t113 67t126 24q63 0 115.5 -24t86 -67t47 -100.5t-0.5 -122.5q-13 -65 -51 -121.5t-90 -98.5t-114.5 -67t-125.5 -25q-64 0 -115.5 25t-84.5 67t-45 98.5zM-189 1988q-4 -22 1 -42.5t17 -36.5t30.5 -25 t40.5 -9q23 0 46.5 9t43 25t33.5 36.5t18 42.5q6 23 1 44t-18 37.5t-32 26t-43 9.5q-22 0 -44 -9.5t-41.5 -26t-33 -37.5t-19.5 -44z" />
<glyph unicode="&#xe4e;" d="M-547.5 1827q4.5 31 18.5 62q44 99 123 167.5t194 95.5q23 44 59.5 83.5t86.5 70.5t111 51t132 27q66 6 101 -25q37 -31 34 -88q-2 -27 -14.5 -54.5t-32 -49t-45.5 -35.5t-54 -17q-36 -3 -60 -12t-40.5 -23.5t-26.5 -36.5q-8 -21 -13.5 -48t-17.5 -43.5t-28 -25 t-34 -12.5t-35 -4q-60 0 -97 -27t-59 -77q-15 -31 -38 -55t-51 -38t-60 -19t-66.5 3.5t-54.5 27t-28.5 45t-4 57.5z" />
<glyph unicode="&#xe4f;" horiz-adv-x="1811" d="M98 538q-6 100 16 208q23 109 73 210t120.5 188t158 159.5t186.5 123t207 78.5t216.5 28t202 -28t170 -78.5t133 -123t89 -159.5t38.5 -187q7 -102 -16 -211q-23 -108 -72.5 -208t-119 -188t-156.5 -160.5t-185 -123t-204 -78.5t-213 -28q-110 0 -206 28t-173 78.5 t-135 123t-91 160.5t-39 188zM363.5 544.5q21.5 -99.5 79 -174t148 -118t204.5 -43.5q73 0 145 19t139.5 55.5t128 86.5t108.5 111t82.5 130.5t50 143.5t10.5 143t-27 128t-61.5 108.5t-91.5 84.5t-116.5 54.5t-137.5 19.5q-75 0 -149.5 -19.5t-142.5 -54.5t-128 -84.5 t-108 -108.5t-81.5 -128t-49.5 -143q-24 -111 -2.5 -210.5zM488 592q-18 76 1 163q17 84 67 158.5t119.5 132t153 90t169.5 32.5q85 0 152 -32.5t110.5 -90t60.5 -132.5t0 -158q-18 -87 -67.5 -163t-116.5 -133t-148.5 -89.5t-166.5 -32.5q-87 0 -156.5 32.5t-114.5 89.5 t-63 133zM711.5 677.5q6.5 -36.5 28 -63t54.5 -42.5t75 -16q39 0 76 16t68 42.5t53 62.5q24 38 32 78q9 39 0.5 72.5t-28 60t-50 42t-69.5 15.5q-43 0 -82.5 -15.5t-71 -42t-53.5 -60t-30 -72.5q-9 -41 -2.5 -77.5z" />
<glyph unicode="&#xe50;" horiz-adv-x="1723" d="M99 446q-3 106 25 242q30 144 106 263t187 202.5t255.5 129t312.5 45.5t291.5 -45.5t199.5 -129t100 -202.5t-6 -263q-28 -136 -77 -242.5t-113 -186.5t-142 -136t-165.5 -90t-182.5 -50t-194 -16q-100 0 -189 16t-162 51t-127.5 90.5t-85 135.5t-33.5 186zM468 495.5 q12 -66.5 50 -115t100.5 -76t143.5 -27.5q83 0 155.5 27.5t129.5 76t97 115t57 145.5q22 101 8 172.5t-54.5 116.5t-101.5 66.5t-134 21.5q-72 0 -143 -21.5t-131 -66.5t-105 -116.5t-67 -172.5q-17 -79 -5 -145.5z" />
<glyph unicode="&#xe51;" horiz-adv-x="1701" d="M-35.5 228q1.5 28 13.5 57.5t35 54.5q23 26 52 41t58 19.5t56.5 -2t49.5 -23.5q41 -38 92.5 -58.5t107.5 -32t113 -14.5t112 -3q102 0 188 28t153 82.5t112.5 132.5t66.5 178q16 74 8 137.5t-43 108t-96.5 69.5t-150.5 25q-70 0 -131.5 -11.5t-110 -35t-80 -59 t-41.5 -84.5q-7 -34 0 -61.5t31.5 -47.5t67.5 -32t107 -12q40 3 67 -4t43 -25t21.5 -42.5t1.5 -52.5q-6 -38 -21.5 -64.5t-38 -45t-49.5 -30t-56 -17.5t-58.5 -9t-56.5 -3q-109 0 -197.5 30t-147.5 85.5t-84 134.5t-3 175q20 91 62 165.5t102 131.5t134 98.5t156 68 t169.5 39.5t172.5 13q102 0 193 -16t165 -48.5t130 -84t88 -123t38.5 -163t-17.5 -206.5q-35 -160 -118 -293t-205.5 -229t-282 -148t-345.5 -52q-70 0 -144 5t-149 21.5t-150.5 48.5t-148.5 87q-22 17 -32.5 42.5t-9 53.5z" />
<glyph unicode="&#xe52;" horiz-adv-x="1973" d="M128 345q-28 115 2 253l96 453q11 49 7 79.5t-33 44.5q-26 13 -41 34.5t-20 46.5t0 54.5t20 58.5q17 34 42.5 60.5t58 41.5t66.5 20t69 -2q63 -16 108.5 -48t72.5 -81.5t33.5 -115.5t-10.5 -149l-111 -524q-12 -56 11.5 -107t81.5 -90t147.5 -62t206.5 -23 q110 0 196.5 20.5t149.5 55t99.5 77.5t46.5 89l80 373q7 36 0 63t-26 43l-257 -175l-164 172q-19 -13 -34.5 -37.5t-23.5 -54.5l-11 -54q-6 -27 -10 -50t-2.5 -39t10.5 -24.5t32 -8.5q34 0 59 -10.5t40 -29t19.5 -44.5t-1.5 -56q-5 -30 -21.5 -58t-39.5 -48.5t-52.5 -33.5 t-60.5 -13h-32q-91 0 -150.5 23t-93.5 60t-47 84.5t-13 97.5t8.5 100t19.5 90q20 73 56.5 136.5t90.5 115.5t124 91.5t154 63.5q12 3 28 6t35 1t38 -9.5t36 -25.5l82 -87l129 87q27 18 50.5 26t43 9.5t34.5 -1.5t25 -6q77 -21 137 -59t98.5 -90t52.5 -114q15 -61 0 -133 l-72 -341q-22 -103 -65.5 -186t-103.5 -149.5t-134.5 -114.5t-159 -80t-175 -48t-185.5 -16h-197q-185 0 -320.5 45t-218.5 126.5t-111 196.5z" />
<glyph unicode="&#xe53;" horiz-adv-x="1720" d="M74.5 282q-5.5 73 3.5 154.5t28 164.5l20 91q30 145 86.5 252t136 183.5t181 123t224.5 67.5q8 2 22.5 2.5t31.5 -2t35.5 -11.5t37.5 -29l80 -85l124 85q28 19 50 28.5t40 12t30.5 1t21.5 -1.5q119 -17 199.5 -64t125 -114.5t55 -151.5t-9.5 -176l-140 -656 q-8 -37 -29 -69.5t-51 -55t-66.5 -35.5t-73.5 -13t-68 13t-51 35.5t-27 55t0 69.5l143 675q7 33 5 64.5t-12.5 55t-29.5 38.5t-42 18l-281 -195l-182 190q-26 -7 -53 -24.5t-54 -51.5t-50 -86t-40 -126l-23 -111q-16 -77 -26.5 -135.5t-2 -97t41.5 -57t103 -16.5 q34 2 59 -10t40 -33t20 -49t-2 -59q-6 -29 -21 -54t-37 -45t-49 -33t-56 -17q-127 -17 -214.5 -2.5t-141.5 54.5t-80 100t-31.5 133z" />
<glyph unicode="&#xe54;" horiz-adv-x="1720" d="M85 449.5q2 66.5 17 128.5l28 140q32 151 107 261.5t184.5 183.5t251 108.5t308.5 35.5h315q48 0 77.5 24.5t50.5 64.5q20 37 49 64t64 42t72.5 16t76.5 -12q34 -13 55 -38t28.5 -58t2 -70t-25.5 -74q-31 -59 -76.5 -109t-107.5 -88t-141.5 -59.5t-182.5 -21.5h-350 q-74 0 -139 -15t-115.5 -44.5t-83.5 -72.5q-35 -44 -47 -101l-34 -166q-13 -58 -6.5 -107.5t33 -86t76 -58t124.5 -22.5q-20 37 -28.5 77.5t1.5 90.5q5 20 14 49.5t28.5 63t48.5 67t73.5 63t106.5 50.5t145 28q32 3 58.5 -4.5t45.5 -23t30 -40t11 -58.5q0 -32 -13 -59.5 t-35 -50.5t-51 -39q-27 -16 -61 -23q-28 -6 -40 -22q-12 -18 -16 -38q-6 -28 -1.5 -52.5t18.5 -41.5t36.5 -27t53.5 -10h253q32 0 57.5 -13t40.5 -34.5t20 -50t-2 -60.5q-7 -31 -24 -59.5t-41.5 -50t-54 -34.5t-62.5 -13h-700q-125 0 -215 25.5t-150 69.5t-95 102t-50 122 t-13 130.5z" />
<glyph unicode="&#xe55;" horiz-adv-x="1720" d="M85 449.5q2 66.5 17 128.5l28 140q24 116 74.5 207.5t121 160t162 115t200.5 73.5l4 19q13 58 48 111t85 94t111 64.5t122 23.5q65 0 115.5 -22t82.5 -61t45 -89.5t5 -106.5q42 3 70 26.5t48 62.5q20 37 50 64t66.5 42t74.5 16t71 -12t54.5 -39t29 -58.5t2 -69 t-25.5 -73.5q-31 -59 -76.5 -109t-107.5 -88t-141.5 -59.5t-182.5 -21.5h-350q-74 0 -139 -15t-115.5 -44.5t-83.5 -72.5q-35 -44 -47 -101l-34 -166q-13 -58 -6.5 -107.5t33 -86t76 -58t124.5 -22.5q-20 37 -28.5 77.5t1.5 90.5q5 20 14 49.5t28.5 63t48.5 67t73.5 63 t106.5 50.5t145 28q32 3 58.5 -4.5t45.5 -23t30 -40t11 -58.5q0 -32 -13 -59.5t-35 -50.5t-51 -39q-27 -16 -61 -23q-28 -6 -40 -22q-12 -18 -16 -38q-6 -28 -1.5 -52.5t18.5 -41.5t36.5 -27t53.5 -10h253q32 0 57.5 -13t40.5 -34.5t20 -50t-2 -60.5q-7 -31 -24 -59.5 t-41.5 -50t-54 -34.5t-62.5 -13h-700q-125 0 -215 25.5t-150 69.5t-95 102t-50 122t-13 130.5zM898 1260q4 -17 15 -30.5t26.5 -21.5t35.5 -8t41 8t37.5 21.5t27 30.5t14.5 36q5 20 1.5 38.5t-14.5 31.5t-27.5 21.5t-37.5 8.5q-20 0 -40 -8.5t-36 -21.5t-27.5 -31.5 t-15.5 -38.5q-4 -19 0 -36z" />
<glyph unicode="&#xe56;" horiz-adv-x="1748" d="M189 440q21 99 69.5 170.5t121 118t164 69.5t198.5 23q30 0 54.5 -11.5t40 -31.5t21.5 -47t0 -57q-7 -30 -23 -57.5t-38 -47.5t-50 -30.5t-58 -10.5q-37 0 -61.5 -7.5t-40.5 -20t-25 -30.5t-13 -38q-6 -29 8 -54t44.5 -43.5t77.5 -29t107 -12.5q69 -1 137 18t126 58.5 t101 98.5q43 58 58 135l19 85q36 167 -26.5 244.5t-220.5 77.5q-55 0 -110 -4.5t-113 -16t-118.5 -30t-126.5 -45.5q-74 -35 -134.5 -20.5t-85.5 73.5l-86 198q-13 30 -11.5 62.5t14.5 64t37 59.5t57 48q33 18 67.5 24t64.5 -0.5t54 -25.5q26 -18 37 -47l55 -120 q97 44 211.5 67t239.5 29q135 2 235 -20t168.5 -64t109.5 -102t59 -131t14 -151t-21 -163l-20 -92q-24 -84 -64 -163.5t-96 -150t-128 -128.5t-161.5 -99.5t-194.5 -62.5q-105 -19 -227 -16q-137 3 -242 38.5t-173.5 95.5t-95.5 143q-26 83 -6 180z" />
<glyph unicode="&#xe57;" horiz-adv-x="2074" d="M74.5 282q-5.5 73 3.5 154.5t28 164.5l20 94q54 256 199 409q144 154 366 209q13 3 31.5 5t40 0.5t43 -10t39.5 -27.5l76 -81l124 83q26 17 47 24t37 9t28.5 1t19.5 -3q117 -26 185.5 -79.5t97.5 -130.5t25 -177t-28 -221l-24 -105q-16 -59 -36 -127.5t-60 -140.5 q39 16 74 47.5t63 74.5t48.5 93t31.5 100l96 450q17 83 51.5 149.5t82.5 116t108 81t129 46.5q35 9 68 4t59 -20.5t41.5 -41.5t16.5 -62q2 -28 -8 -56.5t-28.5 -54.5t-44.5 -46.5t-57 -33.5q-35 -15 -52 -46q-17 -30 -28 -79l-82 -384q-30 -138 -104.5 -260t-186.5 -215 t-256.5 -148t-314.5 -59q-34 -2 -63 11.5t-48 37t-27 55t-1 66.5q12 45 43 86q36 44 59.5 89.5t38.5 90.5t25 89t17 84l29 130q11 56 14.5 100t-0.5 77t-15.5 55t-25.5 35l-256 -174l-175 181q-23 -12 -45.5 -36t-45 -59t-41 -80.5t-29.5 -105.5l-26 -118 q-16 -77 -26.5 -135.5t-2 -97t41.5 -57t103 -16.5q34 2 59 -10t40 -33t20 -49t-2 -59q-6 -29 -21 -54t-37 -45t-49 -33t-56 -17q-127 -17 -214.5 -2.5t-141.5 54.5t-80 100t-31.5 133z" />
<glyph unicode="&#xe58;" horiz-adv-x="1683" d="M75 331q-9 78 8 164l47 219q30 138 95 248t166 187t234.5 117.5t299.5 40.5h319q47 0 78.5 25t51.5 68q20 37 48.5 64t64 42.5t74 16.5t75.5 -13q34 -13 55.5 -38t29.5 -58t1.5 -70t-26.5 -74q-31 -59 -77 -112t-109 -92t-142.5 -62t-182.5 -23h-354q-75 0 -132 -19.5 t-97 -51.5t-64 -72q-26 -40 -35 -83l-54 -260q-7 -32 -2 -62t17 -53.5t30.5 -40.5t40.5 -24l263 187l194 -190q25 3 46.5 12t40.5 27.5t33.5 47.5t22.5 73q3 17 6 36.5t0 35t-13.5 25t-30.5 9.5q-35 0 -58.5 12t-36 32t-15.5 45t3 54q7 33 24.5 61.5t43 49t56.5 32t69 11.5 q84 0 142.5 -17t97 -45.5t59.5 -68.5t27.5 -84.5t3 -93t-13.5 -94.5q-20 -92 -59.5 -169.5t-97.5 -138.5t-135 -102.5t-172 -61.5q-21 -4 -49.5 -10t-58.5 -6.5t-59.5 6.5t-52.5 30l-97 93l-123 -93q-27 -20 -55 -27t-55 -7t-50 5t-40 9q-98 26 -165 74.5t-106.5 113.5 t-48.5 143z" />
<glyph unicode="&#xe59;" horiz-adv-x="1738" d="M78.5 282q-8.5 73 0 154.5t27.5 164.5l18 87q33 156 84.5 276t129.5 200t185 121q106 41 252 41q26 0 57.5 -1t61.5 -4t58.5 -8.5t51.5 -16.5q30 -13 52 -34t41 -46l81 72q13 12 35.5 25t53.5 13h109q45 0 73 22t47 66q16 36 41.5 61t57.5 38t68 13.5t70 -12.5 q30 -11 50 -32.5t26.5 -51t1 -63.5t-22.5 -70q-28 -56 -67 -103t-97 -81.5t-137.5 -53.5t-185.5 -19q-8 0 -16 -2.5t-11 -5.5l-67 -54l207 -746q9 -32 4 -67t-23 -65.5t-46 -57t-63 -42.5q-38 -16 -72 -16.5t-63.5 9.5t-50 33t-29.5 56l-216 775q-23 73 -57 113t-93 40 q-31 0 -61.5 -14.5t-57.5 -50.5t-50.5 -96t-43.5 -150l-20 -96q-16 -77 -24 -136t3.5 -98t47.5 -55.5t107 -7.5q35 3 60.5 -8t40.5 -32t19.5 -50t-1.5 -60q-6 -29 -21.5 -56t-38.5 -48.5t-49.5 -36t-54.5 -18.5q-128 -17 -216.5 -2.5t-145 54.5t-84.5 100t-36.5 133z" />
<glyph unicode="&#xe5a;" horiz-adv-x="2177" d="M200 840.5q-20 94.5 4 210.5q18 84 55 150.5t85.5 117t108 85.5t122.5 56t127 30.5t126 9.5h143q31 0 55.5 -12t39.5 -33t19.5 -48.5t-1.5 -59.5q-7 -31 -24.5 -59t-41 -49.5t-52 -33.5t-61.5 -12h-143q-74 0 -118.5 -39.5t-58.5 -106.5q-7 -33 -2 -66.5t27 -60t65 -43 t114 -16.5q165 0 265.5 56.5t126.5 180.5l52 245q8 38 29.5 70.5t51.5 55t66.5 36.5t75.5 14q38 0 69 -14t51 -36.5t28 -55t-1 -70.5l-252 -1184q-8 -39 -29.5 -71t-51.5 -55.5t-66.5 -36.5t-75.5 -13q-38 0 -69 13t-51 36.5t-27 55.5t0 71l99 459q-78 -36 -166 -56 q-90 -20 -182 -20q-159 0 -269.5 35.5t-176.5 102t-86 161zM1536 88q-7 32 0 71l253 1184q9 38 29.5 70.5t50.5 55t66.5 36.5t75.5 14q38 0 69 -14t51 -36.5t27.5 -55t-0.5 -70.5l-252 -1184q-8 -39 -29 -71t-51.5 -55.5t-67 -36.5t-73.5 -13q-39 0 -70 13t-51.5 36.5 t-27.5 55.5z" />
<glyph unicode="&#xe5b;" horiz-adv-x="3483" d="M131 575q-2 100 19 200q19 89 57.5 181t95 178t129.5 161.5t160 132t188 89t212 32.5q133 0 225.5 -41.5t148 -111.5t77 -164t10.5 -200q-3 -34 -19.5 -67t-41.5 -58.5t-57 -43.5t-68 -24q-36 -5 -66.5 4t-53 28.5t-34.5 47.5q-12 31 -9 65q4 103 -36 154.5t-126 58.5 q-87 -2 -157.5 -37.5t-125 -95t-91.5 -138.5t-56 -168q-19 -87 -4 -168t60 -143t119 -98.5t172 -36.5q95 0 178.5 29t158 83t137.5 127.5t114.5 161.5t90.5 187.5t65 203.5q9 36 29.5 67.5t49 54t63 36.5t70.5 12q37 -1 67.5 -16t47.5 -44q46 -70 84.5 -136t61.5 -123 q23 26 49 56t53 61t55 61.5t54 59.5q15 17 33.5 26t36.5 9t33 -8.5t24 -25.5q34 -69 62.5 -131t47.5 -108q31 36 62.5 70.5t60.5 62.5h572q37 0 66.5 -14t48 -38t25.5 -56.5t0 -70.5q-9 -37 -29.5 -69t-50 -56.5t-64.5 -38t-72 -13.5h-436q-23 -24 -48.5 -53.5t-57 -66.5 t-69 -83.5t-80.5 -105.5q-11 -15 -27.5 -24t-32 -8t-28.5 9.5t-17 27.5q-26 85 -51 156t-48 127q-46 -59 -103 -139t-124 -190q-18 -29 -40 -44t-42.5 -15.5t-37 14.5t-22.5 48q-20 97 -40 167.5t-37 121.5q-45 -106 -110 -201t-143.5 -175.5t-170.5 -144t-192.5 -108 t-204 -68.5t-207.5 -24q-128 0 -231 33t-179.5 90.5t-127 136.5t-77 170.5t-28.5 191.5z" />
<glyph unicode="&#x2000;" horiz-adv-x="1520" />
<glyph unicode="&#x2001;" horiz-adv-x="3040" />
<glyph unicode="&#x2002;" horiz-adv-x="1520" />
<glyph unicode="&#x2003;" horiz-adv-x="3040" />
<glyph unicode="&#x2004;" horiz-adv-x="1013" />
<glyph unicode="&#x2005;" horiz-adv-x="760" />
<glyph unicode="&#x2006;" horiz-adv-x="506" />
<glyph unicode="&#x2007;" horiz-adv-x="506" />
<glyph unicode="&#x2008;" horiz-adv-x="380" />
<glyph unicode="&#x2009;" horiz-adv-x="608" />
<glyph unicode="&#x200a;" horiz-adv-x="168" />
<glyph unicode="&#x200b;" />
<glyph unicode="&#x2010;" horiz-adv-x="1195" d="M60.5 641q-6.5 28 0.5 68q9 40 27.5 66.5t44.5 43t58 24.5t66 8h720q34 0 62.5 -8t47 -24.5t26.5 -43.5t0 -66q-9 -40 -28.5 -68t-45 -44t-57.5 -24t-65 -8h-720q-34 0 -63.5 8t-48 24t-25 44z" />
<glyph unicode="&#x2011;" horiz-adv-x="1195" d="M60.5 641q-6.5 28 0.5 68q9 40 27.5 66.5t44.5 43t58 24.5t66 8h720q34 0 62.5 -8t47 -24.5t26.5 -43.5t0 -66q-9 -40 -28.5 -68t-45 -44t-57.5 -24t-65 -8h-720q-34 0 -63.5 8t-48 24t-25 44z" />
<glyph unicode="&#x2012;" horiz-adv-x="1195" d="M60.5 641q-6.5 28 0.5 68q9 40 27.5 66.5t44.5 43t58 24.5t66 8h720q34 0 62.5 -8t47 -24.5t26.5 -43.5t0 -66q-9 -40 -28.5 -68t-45 -44t-57.5 -24t-65 -8h-720q-34 0 -63.5 8t-48 24t-25 44z" />
<glyph unicode="&#x2013;" horiz-adv-x="1548" d="M-13 641q-7 28 2 67q8 40 26.5 67t43.5 44.5t55 25t63 7.5h1234q32 0 60 -7.5t45 -25t24 -45.5t-1 -66q-9 -40 -27.5 -67.5t-43.5 -43.5t-55 -25t-63 -9h-1234q-32 0 -59 9t-45 25t-25 44z" />
<glyph unicode="&#x2014;" horiz-adv-x="2854" d="M-13 641q-7 28 2 67q8 40 26.5 67t43.5 44.5t55 25t63 7.5h2540q31 0 59 -7.5t46 -25t24.5 -45.5t-2.5 -66q-8 -40 -26 -67.5t-44 -43.5t-56 -25t-61 -9h-2541q-32 0 -59 9t-45 25t-25 44z" />
<glyph unicode="&#x2018;" horiz-adv-x="760" d="M287 1273q-2 54 12 117q23 106 73 189.5t123 150.5q23 22 54.5 45.5t65.5 42t67.5 31.5t62.5 13q40 0 56.5 -22t10.5 -51q-5 -26 -26 -43t-50.5 -35t-65 -37t-70 -48t-65 -70.5t-50.5 -101.5q17 10 39 16t48 6q41 0 71.5 -16t46.5 -41.5t21 -59t-3 -71.5 q-9 -41 -32.5 -77t-56.5 -63t-72 -42.5t-81 -15.5q-58 0 -97 23.5t-59 64t-23 95.5z" />
<glyph unicode="&#x2019;" horiz-adv-x="760" d="M252 1161q5 26 26 44t51 35t65.5 37t70 48.5t64.5 69.5t50 102q-17 -10 -39 -15.5t-48 -5.5q-42 0 -71 15.5t-46 41.5t-22.5 58.5t3.5 70.5q9 41 32.5 77.5t56.5 63.5t72 43t81 16q58 0 97.5 -23.5t59 -65t22 -96.5t-10.5 -117q-22 -106 -73 -189t-122 -150 q-23 -21 -55.5 -44.5t-66 -43t-68 -31.5t-61.5 -12q-40 0 -57 21.5t-11 49.5z" />
<glyph unicode="&#x201c;" horiz-adv-x="1284" d="M287 1273q-2 54 12 117q23 106 73 189.5t123 150.5q23 22 54.5 45.5t65.5 42t67.5 31.5t62.5 13q40 0 56.5 -22t10.5 -51q-5 -26 -26 -43t-50.5 -35t-65 -37t-70 -48t-65 -70.5t-50.5 -101.5q17 10 39 16t48 6q41 0 71.5 -16t46.5 -41.5t21 -59t-3 -71.5 q-9 -41 -32.5 -77t-56.5 -63t-72 -42.5t-81 -15.5q-58 0 -97 23.5t-59 64t-23 95.5zM816 1273q-2 54 11 117q22 106 72.5 189.5t122.5 150.5q23 22 55.5 45.5t66 42t67 31.5t62.5 13q40 0 57 -22t11 -51q-5 -26 -26.5 -43t-51 -35t-65 -37t-70 -48t-65.5 -70.5t-49 -101.5 q17 10 38.5 16t47.5 6q41 0 71 -16t46.5 -41.5t21.5 -59t-3 -71.5q-9 -41 -32 -77t-56.5 -63t-73 -42.5t-79.5 -15.5q-58 0 -97.5 23.5t-59.5 64t-22 95.5z" />
<glyph unicode="&#x201d;" horiz-adv-x="1284" d="M252 1161q5 26 26 44t51 35t65.5 37t70 48.5t64.5 69.5t50 102q-17 -10 -39 -15.5t-48 -5.5q-42 0 -71 15.5t-46 41.5t-22.5 58.5t3.5 70.5q9 41 32.5 77.5t56.5 63.5t72 43t81 16q58 0 97.5 -23.5t59 -65t22 -96.5t-10.5 -117q-22 -106 -73 -189t-122 -150 q-23 -21 -55.5 -44.5t-66 -43t-68 -31.5t-61.5 -12q-40 0 -57 21.5t-11 49.5zM778 1161q6 26 26.5 44t50 35t65 37t70 48.5t65.5 69.5q29 41 49 102q-17 -10 -39.5 -15.5t-47.5 -5.5q-42 0 -71 15.5t-45.5 41.5t-21.5 58.5t3 70.5q9 41 32.5 77.5t56.5 63.5t72.5 43t80.5 16 q59 0 97.5 -23.5t58.5 -65t22 -96.5t-11 -117q-23 -106 -73 -189t-123 -150q-23 -21 -54 -44.5t-65.5 -43t-68 -31.5t-62.5 -12q-40 0 -57 21.5t-10 49.5z" />
<glyph unicode="&#x2022;" horiz-adv-x="1045" d="M67.5 597q-18.5 81 1.5 172q13 58 40 112t67 102.5t90 89.5t107 70.5t118 45t124 15.5q94 0 170 -35.5t126 -96t71 -138.5q22 -79 2 -165q-20 -91 -73.5 -172t-129.5 -141t-167 -95t-186 -35t-169.5 35t-123.5 95t-67.5 141z" />
<glyph unicode="&#x202f;" horiz-adv-x="608" />
<glyph unicode="&#x205f;" horiz-adv-x="760" />
<glyph unicode="&#x20ac;" horiz-adv-x="1949" d="M66.5 667q-3.5 18 1 38t15.5 38t27 30.5t34.5 20.5t38.5 8h123q1 16 4 31.5t7.5 33t8.5 34.5t9 34h-123q-20 0 -36 8t-26 20t-14 30t1 38t15.5 38t26 31t34.5 20.5t40 7.5h149q64 145 161.5 265.5t221 208.5t271.5 137t315 49q113 0 213.5 -27.5t178 -79t132 -127 t80.5 -173.5q10 -38 0 -80q-9 -37 -29.5 -70t-50.5 -57t-66.5 -38.5t-73.5 -14.5q-56 0 -94.5 31t-48.5 79q-12 50 -38.5 93t-66.5 74t-92 48.5t-112 17.5q-92 0 -168.5 -25t-139.5 -70t-113 -107t-87 -134h386q20 0 36 -7.5t26.5 -20.5t14 -31t-0.5 -38t-15.5 -38 t-27.5 -30t-35 -20q-18 -8 -38 -8h-423l-8 -34l-8 -34q-3 -16 -6.5 -32.5t-6.5 -32.5h424q20 0 35.5 -8t25.5 -20.5t13.5 -30.5t-0.5 -38t-15.5 -38t-27.5 -30t-35 -20t-38 -8h-386q9 -70 32.5 -129.5t67.5 -103.5t110 -69t156 -25q76 0 142.5 22.5t122 60.5t100 89.5 t77.5 107.5q14 24 35 44t46 34.5t53 22.5t56 8q39 0 69 -14.5t50 -39t27 -56.5q7 -35 -1 -72q-5 -21 -13.5 -41t-21.5 -38q-67 -103 -153.5 -186.5t-189.5 -142t-220 -90.5t-246 -32q-166 0 -294 48.5t-215 135t-133 206t-50 260.5h-150q-20 0 -36 8t-26 20t-13.5 30z" />
<glyph unicode="&#x2122;" horiz-adv-x="2459" d="M415.5 1623q-2.5 16 2.5 32q2 15 11.5 31.5t24.5 29.5t36.5 22t48.5 9h518q28 0 46 -9t26.5 -22t10 -29.5t-1.5 -31.5q-3 -16 -12 -32t-23.5 -29.5t-35 -22t-49.5 -8.5h-134l-125 -579q-8 -40 -27.5 -66.5t-42.5 -41.5t-45.5 -21t-35.5 -6q-15 0 -35.5 6t-37 21t-24.5 41 q-9 27 -2 67l123 579h-133q-27 0 -44 8.5t-27 22t-12.5 29.5zM1104 984l126 590q11 56 36 92t56 56.5t63 29t58 8.5q83 0 128.5 -37.5t62.5 -119.5l63 -343l211 343q50 82 112 119.5t144 37.5q27 0 55.5 -8.5t50 -29t31.5 -56.5t-2 -92l-127 -590q-8 -40 -27.5 -66.5 t-43 -41.5t-46 -21t-36.5 -6t-34 6t-36.5 21t-25.5 41q-10 27 -1 67l89 415h-6l-246 -441q-32 -54 -67.5 -81.5t-81.5 -27.5q-84 0 -103 109l-60 441h-3l-88 -415q-9 -40 -29 -66.5t-43 -41.5t-45 -21t-36 -6q-15 0 -35.5 6t-37 21t-25.5 41q-10 27 -1 67z" />
<glyph unicode="&#x25cc;" horiz-adv-x="1668" d="M380 721l158 70q-13 -33 -21.5 -68t-8.5 -71zM433 406l90 143q13 -30 30 -55q19 -25 45 -44zM593 1035l136 -50q-43 -20 -74.5 -42t-55.5 -51zM694 406q31 -8 59 -7.5t71 11.5l-93 -140zM817 1021l104 143l36 -139q-35 9 -72.5 7t-67.5 -11zM937 446q34 19 62 42t52 50 l11 -135zM1048 988l170 47l-91 -146q-13 30 -34.5 55.5t-44.5 43.5zM1120 655q17 30 25 63t8 70l120 -70z" />
<glyph unicode="&#x25fc;" horiz-adv-x="1322" d="M0 0v1323h1323v-1323h-1323z" />
<glyph unicode="&#xf700;" horiz-adv-x="1471" d="M173 646q-4 28 1 60q8 32 25 60.5t40.5 49.5t52 33t61.5 12h240q32 0 52 -12t32 -33t18.5 -49.5t9.5 -60.5l33 -278q24 41 52.5 90.5t58 101t56.5 102t49.5 95.5t37.5 81.5t20 61.5q26 117 -21 185t-173 68q-83 0 -149 -40t-116 -116q-24 -36 -59 -59t-73 -32t-75 -5.5 t-66 20.5q-31 17 -49 45.5t-21.5 61t7 67.5t38.5 69q57 72 128.5 129t155.5 97t178.5 61.5t197.5 21.5q59 0 116 -8t112 -25q25 9 47.5 29.5t39.5 46.5q26 36 61 58.5t72 32t74 5t66 -24.5q30 -18 47 -47.5t19.5 -65t-9 -73t-38.5 -71.5q-28 -32 -61 -57q-34 -26 -71 -45 q23 -58 28.5 -131.5t-14.5 -168.5q-15 -74 -55.5 -163t-99 -191.5t-133 -220t-159.5 -247.5q-26 -40 -62 -73.5t-76.5 -58.5t-87 -38t-92.5 -13q-48 0 -89 14t-72.5 40t-51.5 61.5t-27 78.5l-54 375h-58q-31 0 -55.5 12t-39.5 33t-19 49z" />
<glyph unicode="&#xf701;" d="M-1449 1800q-4 28 3 56q6 30 21 55t37 45t48.5 31.5t56.5 11.5h813q30 0 51 -11.5t35 -31.5t18 -46q3 -25 -3 -54q-6 -30 -21 -55.5t-37 -45t-48.5 -31t-56.5 -11.5h-811q-30 0 -52 11.5t-35.5 31t-18.5 44.5z" />
<glyph unicode="&#xf702;" d="M-1449 1800q-4 28 3 56q6 30 21 55t37 45t48.5 31.5t56.5 11.5h562l17 79q9 37 29 67.5t49.5 53.5t64.5 35.5t72 12.5t65.5 -12.5t48 -35.5t27.5 -53.5t-1 -67.5l-41 -196q-9 -37 -29.5 -68t-49.5 -53t-63 -35t-71 -13h-740q-30 0 -52 11.5t-35.5 31t-18.5 44.5z" />
<glyph unicode="&#xf703;" d="M-1449 1800q-4 28 3 56q6 30 21 55t37 45t48.5 31.5t56.5 11.5h391l3 12q11 57 44 107.5t78.5 88t100.5 59.5t114 22q57 0 103 -22t75 -61t40 -90.5t-1 -108.5q-12 -63 -45 -116.5t-79.5 -93t-102.5 -61.5t-113 -22h-668q-30 0 -52 11.5t-35.5 31t-18.5 44.5z M-710.5 1973.5q4.5 -17.5 15 -31t27 -20.5t36.5 -7t40 7t35.5 20.5t28 31t16.5 37.5t0 37.5t-15 31.5t-27.5 21t-36.5 7t-40 -7t-36.5 -21t-27.5 -31.5t-15.5 -37.5t0 -37.5z" />
<glyph unicode="&#xf704;" d="M-1449 1800q-4 28 3 56q6 30 21 55t37 45t48.5 31.5t56.5 11.5h229l24 113q6 30 22.5 55t38.5 43t51 27.5t59 9.5t54 -9.5t40 -27.5t21.5 -43t-0.5 -55l-24 -113h117l25 113q5 30 21.5 55t39.5 43t51 27.5t58 9.5q61 0 94 -36.5t20 -98.5l-48 -230q-9 -37 -29.5 -68 t-49.5 -53t-63 -35t-71 -13h-740q-30 0 -52 11.5t-35.5 31t-18.5 44.5z" />
<glyph unicode="&#xf705;" d="M-819.5 1791q-7.5 31 1.5 69l47 229q9 37 29.5 68.5t50.5 54t65 35.5q34 12 71 12t67 -12.5t49.5 -35t27.5 -54t-1 -68.5l-48 -229q-9 -37 -30 -68.5t-50 -54t-64 -35.5q-34 -13 -71 -13t-67 13t-50 35.5t-27.5 53.5z" />
<glyph unicode="&#xf706;" d="M-1200 2034q-4 22 2 47q5 25 17.5 46.5t30 38t39 26t44.5 9.5h205q24 0 41 -9.5t27 -26t13 -38.5t-3 -46l-20 -103q46 3 87 15.5t76.5 33.5t64 48t47.5 57q17 27 42 47t52 30t55 9.5t51 -13.5t36.5 -35t16.5 -48t-3.5 -56t-25.5 -57q-41 -61 -99.5 -115t-133.5 -93 t-167.5 -61.5t-199.5 -22.5h-119q-24 0 -42 9.5t-28 26.5t-12 38.5t3 47.5l26 122h-40q-24 0 -41 9t-28 25.5t-14 38.5z" />
<glyph unicode="&#xf707;" d="M-1342 1768.5q-4 21.5 2 46.5q19 85 53 149t75.5 105.5t89 61.5t91.5 20q46 0 80 -24.5t56 -64.5q38 40 84 64.5t96 24.5q30 0 57 -10t48.5 -30t35 -47.5t15.5 -62.5q20 21 40 53t36 70q11 25 31 45t42 32.5t47.5 16t47.5 -2.5q26 -7 41 -23t20 -37t1.5 -47t-14.5 -52 q-30 -60 -69.5 -116.5t-85.5 -103t-94.5 -78.5t-95.5 -41h-93q-31 0 -47.5 21.5t-12.5 56.5q3 23 4.5 45t-1 38.5t-11 26.5t-25.5 10q-26 0 -41.5 -18t-24.5 -49q-8 -35 -32.5 -56.5t-57.5 -21.5q-30 0 -46 23q-17 20 -10 55q6 27 -2.5 47t-32.5 20q-35 0 -52.5 -28 t-29.5 -72q-16 -59 -51 -87.5t-80 -28.5q-25 0 -42.5 9t-27.5 24t-14 36.5z" />
<glyph unicode="&#xf708;" d="M-1106.5 1978q-3.5 23 2.5 48.5t19.5 47.5t33 38.5t43 26.5t48.5 10h115l11 52q7 33 26 61.5t44.5 48.5t57 31.5t64.5 11.5q34 0 61.5 -11.5t45 -31.5t24 -48.5t-0.5 -61.5l-11 -52h115q26 0 46 -10t31.5 -26.5t15 -39t-2 -48.5t-18.5 -49t-32.5 -40t-43 -26.5 t-48.5 -9.5h-116l-12 -50q-7 -34 -25.5 -62t-44.5 -48.5t-58 -31.5t-65 -11q-34 0 -60.5 11t-43.5 31.5t-24.5 48.5t0.5 62l11 50h-116q-26 0 -45 9.5t-31.5 27.5t-16 41z" />
<glyph unicode="&#xf709;" d="M-977.5 1799.5q-6.5 30.5 1.5 65.5t31 67q40 59 92 109t117 87t144 60.5t169 30.5q63 5 99 -23q38 -28 35 -82q0 -28 -12 -55t-30.5 -48.5t-44.5 -35.5t-53 -17q-46 -5 -81.5 -19t-63 -34t-48 -46t-34.5 -56q-18 -34 -45.5 -57.5t-60.5 -35t-69 -13t-67 9.5 q-34 13 -53.5 37.5t-26 55z" />
<glyph unicode="&#xf70a;" d="M-263 1791q-7 31 0 69l54 255q9 37 29.5 68.5t49 54.5t64.5 36t72 13q37 0 67 -13t49.5 -36t27 -53.5t-0.5 -69.5l-55 -255q-8 -37 -29 -68.5t-49.5 -54t-64 -35.5t-71.5 -13q-37 0 -67 13t-49.5 35.5t-26.5 53.5z" />
<glyph unicode="&#xf70b;" d="M-791.5 2034q-3.5 22 2.5 47q5 25 18 46.5t31 38t41 26t47 9.5h217q26 0 44.5 -9.5t30 -26t14.5 -38.5t-3 -46l-21 -103q48 3 91.5 15.5t81.5 33.5t67.5 48t49.5 57q19 27 44.5 47t54 30t58 9.5t55.5 -13.5q24 -13 38 -35t18.5 -48t-2.5 -56t-26 -57q-43 -61 -104.5 -115 t-141.5 -93t-177 -61.5t-210 -22.5h-126q-26 0 -45.5 9.5t-30 26.5t-13.5 38.5t3 47.5l26 122h-43q-26 0 -44.5 9t-30 25.5t-15 38.5z" />
<glyph unicode="&#xf70c;" d="M-1075.5 1768.5q-4.5 21.5 1.5 46.5q17 85 55.5 148t88 104t105.5 61t109 20q54 0 97.5 -24.5t72.5 -62.5q44 38 97 62.5t114 24.5q38 0 70.5 -10t58.5 -29.5t44 -47.5q16 -28 22 -62q23 22 45.5 54t40.5 69q13 26 35 45t50 31.5t57 16t56 -2.5q32 -7 50.5 -22 t26.5 -36.5t5 -46.5t-17 -51q-32 -60 -77 -117t-98 -103.5t-110.5 -78t-113.5 -40.5h-113q-37 0 -58.5 21.5t-16.5 56.5q3 23 4 44t-3.5 38.5t-14.5 27.5t-28 10q-26 0 -47.5 -16.5t-31.5 -59.5q-4 -17 -14 -31.5t-25 -24.5t-33 -15.5t-37 -5.5q-37 0 -58.5 21.5t-15.5 55.5 q7 41 -6 58.5t-40 17.5q-34 0 -56.5 -28.5t-32.5 -71.5q-15 -59 -57.5 -87.5t-96.5 -28.5q-30 0 -52 9t-35 24t-17.5 36.5z" />
<glyph unicode="&#xf70d;" d="M-464 1986.5q-4 24.5 2 51.5t19.5 50.5t33.5 40.5t44.5 28t51.5 11h121l12 53q7 34 26.5 64t47 51t60.5 33t69 12q34 0 62 -12t46.5 -33t25 -50t-0.5 -65l-12 -53h122q27 0 48 -11t33 -28t15.5 -41.5t-2.5 -51.5q-5 -27 -19 -50.5t-34 -40.5t-45 -27t-50 -10h-123 l-12 -55q-7 -34 -26.5 -63.5t-47 -51t-60.5 -33.5q-35 -12 -69 -12t-62 12t-46 33.5t-25 51t0 63.5l13 55h-123q-27 0 -47 10t-32 27t-16 41.5z" />
<glyph unicode="&#xf70e;" d="M-440.5 1799.5q-5.5 30.5 2.5 65.5t29 67q40 59 93 109t118 87t143 60.5t168 30.5q63 5 99.5 -23t33.5 -82q0 -28 -11.5 -55t-30 -48.5t-44.5 -35.5t-53 -17q-46 -5 -81.5 -19t-62.5 -34t-48 -46t-35 -56q-16 -34 -44 -57.5t-61.5 -35t-68.5 -13t-66 9.5q-35 13 -55 37.5 t-25.5 55z" />
<glyph unicode="&#xf70f;" horiz-adv-x="2382" d="M44.5 89.5q-4.5 26.5 1.5 54.5l141 665q7 32 4.5 66t-22.5 67q-19 30 -29 52.5t-10.5 41.5t8.5 42q11 22 31 53q51 80 121 152.5t163 128t207.5 88.5t254.5 33q130 0 226 -24.5t162.5 -68t105 -103.5t55 -131t13.5 -149.5t-20 -158.5l-83 -386q-11 -56 -2 -99t34 -72 t61.5 -44t81.5 -15q43 0 85 13.5t77.5 41.5t63 71.5t40.5 103.5l176 826q8 39 29.5 72t52.5 57t68 38t77 14q39 0 70 -14t52 -38t28 -57t0 -72l-182 -848q-20 -90 -57.5 -164t-90.5 -133t-118 -102.5t-137.5 -71.5t-149 -42t-152.5 -14q-77 0 -148.5 15t-131.5 45t-107 74.5 t-75.5 103t-36 130.5t11.5 159l91 432q12 52 7.5 102t-31 90.5t-78.5 66.5t-136 27q-61 2 -113 -11t-94 -33.5t-73.5 -47t-50.5 -51.5q37 -44 48.5 -110.5t-5.5 -149.5l-110 -516h36q30 0 52 -11.5t36.5 -31t18.5 -45.5q3 -27 -3 -57t-21.5 -55.5t-37.5 -45.5t-49.5 -31.5 t-57.5 -11.5h-271q-30 0 -53 11.5t-36.5 31.5t-18 46.5z" />
<glyph unicode="&#xf710;" d="M-908.5 1806q-6.5 29 0.5 63l27 130q7 34 26.5 62t46.5 49t59.5 32.5t66.5 11.5t62 -11.5t46 -32.5t24 -49q7 -28 -1 -62h848q30 0 52.5 -11.5t36 -31.5t18 -45.5t-1.5 -54.5q-6 -30 -22.5 -55.5t-38 -45t-48.5 -31t-56 -11.5h-1012q-34 0 -62 11.5t-46.5 32t-25 49.5z " />
<glyph unicode="&#xf711;" d="M-1005.5 1866.5q-11.5 56.5 1.5 121.5q14 65 50.5 122.5t87.5 100.5t113 67t127 24q63 0 114.5 -24t85.5 -67t47.5 -100.5t-0.5 -122.5q-13 -65 -51 -121.5t-90 -98.5t-115 -67t-124 -25q-65 0 -117 25t-85 67t-44.5 98.5zM-807 1988q-4 -22 0.5 -42.5t17.5 -36.5 t30.5 -25t40.5 -9t46.5 9t43 25t33.5 36.5t19 42.5q5 23 0 44t-17.5 37.5t-32.5 26.5q-20 9 -43 9t-44.5 -9.5t-41 -26t-33 -37.5t-19.5 -44z" />
<glyph unicode="&#xf712;" d="M-1357 2020.5q1 37.5 9 70.5q20 93 67.5 160.5t112 112t140.5 65.5t153 21h623q25 0 42.5 -9.5t28.5 -26t14.5 -38.5t-2.5 -47q-5 -25 -17.5 -46.5t-29.5 -38t-39 -26t-47 -9.5h-600q-48 0 -78.5 -12.5t-47.5 -31.5t-25 -39.5t-11 -34.5q-1 -10 -2.5 -26.5t2.5 -31.5 t15 -27.5t34 -12.5q25 0 47.5 16t35.5 43q17 42 53.5 62t76.5 20q43 0 71.5 -19t29.5 -63q-1 -26 12.5 -42.5t36.5 -16.5q21 0 37.5 13t26.5 36q20 50 63 72t89 18q27 -3 48.5 -14.5t34.5 -30.5t15 -45.5t-9 -62.5q-21 -63 -55 -106t-76.5 -70t-90 -38.5t-97.5 -11.5 q-36 0 -64.5 9.5t-52.5 24.5t-41.5 35t-29.5 40q-23 -23 -50.5 -42.5t-60.5 -34.5t-67.5 -23.5t-70.5 -8.5q-60 0 -103.5 16t-73.5 43t-46.5 61.5t-24 72t-6.5 75z" />
<glyph unicode="&#xf713;" d="M-602 2457q-7 30 0 66l43 204q8 36 28 66t48 53t63 34t71 11t64.5 -11t48 -34t26.5 -53t-2 -66l-43 -204q-8 -38 -27.5 -67t-48 -51.5t-63 -34.5t-69.5 -12q-36 0 -64.5 12t-48 34.5t-26.5 52.5z" />
<glyph unicode="&#xf714;" d="M-869.5 2692q-2.5 22 2.5 46q6 26 18 47.5t31 38t41 26t46 9.5h218q25 0 44 -9.5t30 -26t15 -38.5t-2 -47l-23 -103q53 3 98 17t82 34.5t66 47t49 56.5q18 27 44 47t53 30t55.5 9.5t54.5 -13.5q24 -13 38.5 -35t18.5 -48t-2 -56q-5 -30 -25 -57q-43 -62 -105 -115.5 t-142.5 -92.5t-177.5 -61.5t-210 -22.5h-126q-26 0 -45 9.5t-30 26.5t-13.5 38.5t2.5 47.5l26 121h-43q-26 0 -44.5 9.5t-30 26t-14 38.5z" />
<glyph unicode="&#xf715;" d="M-1030 2425q-2 23 2 46q17 86 53.5 149t82 104.5t96.5 61.5t99.5 20t86.5 -24.5t64 -64.5q41 40 89.5 64.5t104.5 24.5q33 0 62.5 -10t53 -29.5t38.5 -47.5t18 -63q20 21 40.5 52.5t37.5 68.5q13 26 34.5 46t46 32t51 16.5t50.5 -2.5q27 -8 44.5 -23.5t23.5 -37 t2.5 -46.5t-16.5 -51q-30 -60 -72 -116.5t-90 -103t-101 -77.5q-51 -32 -103 -42h-103q-34 0 -52 22.5t-13 56.5q2 23 3.5 44.5t-2.5 38.5t-14 27t-27 10q-29 0 -44 -18.5t-25 -48.5q-12 -37 -37 -57t-59 -20t-52.5 20.5t-11.5 56.5q5 30 -5 48.5t-38 18.5 q-32 0 -52.5 -28.5t-30.5 -71.5q-14 -59 -53.5 -87.5t-88.5 -28.5q-27 0 -46 8.5t-31.5 24.5t-15.5 37z" />
<glyph unicode="&#xf716;" d="M-801.5 2645.5q-3.5 24.5 2.5 51.5q5 27 19 50.5t34 41t44 27.5t51 10h122l11 54q7 34 26.5 63.5t46.5 51t61 33.5t68 12t62.5 -12t47.5 -33.5t25.5 -51t-1.5 -63.5l-10 -54h120q28 0 48.5 -10t32 -27.5t15 -41.5t-0.5 -51q-6 -28 -20 -51.5t-34 -40.5t-44.5 -28 t-51.5 -11h-120l-12 -52q-7 -35 -27 -65t-47 -50.5t-61 -33t-68 -12.5t-62.5 12.5t-46.5 33t-25 50t0 65.5l11 52h-121q-28 0 -48 11t-32 28t-15.5 41.5z" />
<glyph unicode="&#xf717;" d="M-629 2286q-6 31 2 66q6 35 29 66q40 59 93 109t118 87t143 60.5t168 31.5q63 4 99.5 -24t35.5 -82q-2 -27 -13.5 -54.5t-30 -49t-44 -35.5t-53.5 -17q-45 -4 -80 -18.5t-62.5 -34.5t-48 -46t-34.5 -56q-18 -34 -45.5 -57.5t-61.5 -35t-69 -13t-66 10.5q-34 12 -54 36.5 t-26 55.5z" />
<glyph unicode="&#xf718;" d="M-1003.5 -833q-3.5 24 2.5 52q6 27 20 51.5t34 42.5t46 28.5t53 10.5h285q27 0 47.5 -10.5t33.5 -28.5t17.5 -42.5t-1.5 -51.5l-79 -369q-7 -34 -26.5 -65t-47 -52t-61.5 -33.5t-69 -12.5t-63.5 12.5t-47 33.5t-25.5 51.5t0 65.5l50 235h-69q-27 0 -48.5 10.5t-34.5 29 t-16.5 42.5z" />
<glyph unicode="&#xf719;" d="M-1503 -847.5q-4 26.5 1 55.5q6 30 22 56.5t38 45.5t49 30.5t57 11.5h232q30 0 53 -11.5t36 -30.5t18 -45.5t-3 -56.5l-18 -90q-13 -59 3.5 -88.5t67.5 -29.5q95 0 119 118l17 83q9 34 29 65.5t48 54.5t62 36.5t69 13.5q34 0 62.5 -13.5t47 -36.5t25 -54t-1.5 -66 l-18 -83q-17 -85 -55.5 -159t-102 -130t-153.5 -89t-211 -33q-108 0 -182 26.5t-116.5 74t-56.5 112.5t-5 143l-27 2q-30 0 -52 10.5t-36 30.5t-18 46.5z" />
<glyph unicode="&#xf71a;" d="M-907.5 -949q-9.5 42 0.5 88q10 49 37.5 92t66.5 74t85.5 50t94.5 19q45 0 84 -19t63 -50t34 -74t0 -92q-10 -46 -38 -88t-65.5 -73.5t-83.5 -50t-93 -18.5q-49 0 -87 18.5t-63.5 50t-35 73.5z" />
<glyph unicode="&#xf71d;" horiz-adv-x="1960" d="M203 1294q-1 39 13 74.5t39 65t61 50t76 30.5q41 9 77.5 4t64.5 -23.5t44.5 -48t16.5 -67.5l-17 -778l329 564q15 28 36 50t45 38.5t53 25.5t57 9q60 0 96 -34t44 -87l96 -589l179 410q20 49 33.5 88t14.5 68.5t-14 49.5t-51 32q-23 5 -39.5 19.5t-27 33.5t-13.5 42t1 49 q6 27 21 52t35.5 44.5t46.5 33t52 17.5q74 13 130.5 44t93.5 85q16 23 37.5 42t45.5 33.5t50.5 21.5t55.5 7q38 0 68.5 -14t49.5 -39t26 -58t-1 -72q-9 -41 -34 -76t-59 -63t-75 -49.5t-80 -38.5q49 -73 55 -159t-43 -181l-451 -888q-14 -29 -37 -53.5t-49.5 -41t-57 -25.5 t-63.5 -9q-66 0 -103.5 35.5t-46.5 93.5l-99 646l-367 -646q-15 -29 -37 -53.5t-48.5 -41t-57 -25.5t-63.5 -9q-66 0 -107 35q-42 35 -45 94z" />
<glyph d="M-1118.5 1827q4.5 31 18.5 62q45 99 123 167q76 69 193 96q23 44 60.5 83.5t87.5 70.5t111.5 51t132.5 27q66 6 101 -25t32 -88q-1 -27 -13.5 -54.5t-32.5 -49t-45.5 -35.5t-54.5 -17q-35 -3 -59.5 -12t-40.5 -23.5t-26 -36t-14 -48.5q-6 -27 -18 -43.5t-27.5 -25 t-33.5 -12.5t-35 -4q-60 0 -97.5 -27t-60.5 -77q-15 -31 -37.5 -55t-50 -38t-60.5 -19t-67.5 3.5t-54.5 27t-28 45t-3.5 57.5z" />
<glyph horiz-adv-x="1295" d="M-1005.5 1866.5q-11.5 56.5 1.5 121.5q14 65 50.5 122.5t87.5 100.5t113 67t127 24q63 0 114.5 -24t85.5 -67t47.5 -100.5t-0.5 -122.5q-13 -65 -51 -121.5t-90 -98.5t-115 -67t-124 -25q-65 0 -117 25t-85 67t-44.5 98.5zM-807 1988q-4 -22 0.5 -42.5t17.5 -36.5 t30.5 -25t40.5 -9t46.5 9t43 25t33.5 36.5t19 42.5q5 23 0 44t-17.5 37.5t-32.5 26.5q-20 9 -43 9t-44.5 -9.5t-41 -26t-33 -37.5t-19.5 -44zM122.5 1125.5q-6.5 -37.5 1.5 -71t29 -59t56 -38.5q34 -13 72.5 -11.5t75 17t69 43.5t53.5 65q37 70 92 106t118 36 q93 0 129.5 -59t9.5 -187l-172 -807q-8 -38 0 -71t28 -56.5t51 -36.5t70 -13t76 13t67 36.5t52 56.5t31 71l182 854q27 133 4.5 231t-85 162t-159 95t-215.5 31q-84 0 -171 -21.5t-167 -63t-149 -104.5t-119 -144q-23 -37 -29.5 -74.5z" />
<glyph horiz-adv-x="1295" d="M-1005.5 1866.5q-11.5 56.5 1.5 121.5q14 65 50.5 122.5t87.5 100.5t113 67t127 24q63 0 114.5 -24t85.5 -67t47.5 -100.5t-0.5 -122.5q-13 -65 -51 -121.5t-90 -98.5t-115 -67t-124 -25q-65 0 -117 25t-85 67t-44.5 98.5zM-807 1988q-4 -22 0.5 -42.5t17.5 -36.5 t30.5 -25t40.5 -9t46.5 9t43 25t33.5 36.5t19 42.5q5 23 0 44t-17.5 37.5t-32.5 26.5q-20 9 -43 9t-44.5 -9.5t-41 -26t-33 -37.5t-19.5 -44zM122.5 1125.5q-6.5 -37.5 1.5 -71t29 -59t56 -38.5q34 -13 72.5 -11.5t75 17t69 43.5t53.5 65q37 70 92 106t118 36 q93 0 129.5 -59t9.5 -187l-172 -807q-8 -38 0 -71t28 -56.5t51 -36.5t70 -13t76 13t67 36.5t52 56.5t31 71l182 854q27 133 4.5 231t-85 162t-159 95t-215.5 31q-84 0 -171 -21.5t-167 -63t-149 -104.5t-119 -144q-23 -37 -29.5 -74.5z" />
<glyph d="M-1024 1800q-4 28 3 56q6 30 21 55t37 45t48.5 31.5t56.5 11.5h872q30 0 51.5 -11.5t35 -31.5t18 -45.5t-1.5 -54.5q-5 -30 -21 -55.5t-37.5 -45t-48.5 -31t-56 -11.5h-872q-30 0 -52 11.5t-36 31t-18 44.5z" />
<glyph d="M-1024 1800q-4 28 3 56q6 30 21 55t37 45t48.5 31.5t56.5 11.5h625l17 79q9 37 28 67.5t48.5 53.5t64.5 35.5t72 12.5t66 -12.5t48 -35.5t27 -53.5t-1 -67.5l-41 -196q-9 -37 -29.5 -68t-49 -53t-63 -35t-71.5 -13h-801q-30 0 -52 11.5t-36 31t-18 44.5z" />
<glyph d="M-1024 1800q-4 28 3 56q6 30 21 55t37 45t48.5 31.5t56.5 11.5h460l3 12q12 57 45 107.5t78 88t100.5 59.5t112.5 22q58 0 103.5 -22t75 -61t40 -90.5t-0.5 -108.5q-13 -63 -46 -116.5t-79.5 -93t-101.5 -61.5t-112 -22h-738q-30 0 -52 11.5t-36 31t-18 44.5z M-216.5 1973.5q3.5 -17.5 14 -31t27 -20.5t36.5 -7t40 7t36.5 20.5t28 31t16 37.5t0 37.5t-15 31.5t-27 21t-36.5 7t-40 -7t-36 -21t-27.5 -31.5t-15.5 -37.5t-0.5 -37.5z" />
<glyph d="M-1024 1800q-4 28 3 56q6 30 21 55t37 45t48.5 31.5t56.5 11.5h277l23 110q6 30 23 56t41 44t53 28t59 10t55 -10t41 -28t21.5 -44t-0.5 -56l-22 -110h117l21 110q6 30 23 56t41.5 44t53 28t58.5 10t55 -10t41 -28t21.5 -44t-0.5 -56l-48 -227q-9 -37 -29.5 -68t-49 -53 t-63 -35t-71.5 -13h-801q-30 0 -52 11.5t-36 31t-18 44.5z" />
<glyph d="M-1686 1800q-4 28 1 56q6 30 22 55t38 45t48.5 31.5t56.5 11.5h1092q30 0 51.5 -11.5t35.5 -31.5t19 -45.5t-3 -54.5q-5 -30 -20 -55.5t-37.5 -45t-49.5 -31t-56 -11.5h-1094q-30 0 -52 11.5t-35 31t-17 44.5z" />
<glyph d="M-1686 1800q-4 28 1 56q6 30 22 55t38 45t48.5 31.5t56.5 11.5h845l16 79q8 37 29 67.5t49.5 53.5t63.5 35.5t72 12.5t66.5 -12.5t48 -35.5t26.5 -53q9 -31 1 -68l-43 -196q-9 -37 -29 -68t-48.5 -53t-63.5 -35t-72 -13h-1023q-30 0 -52 11.5t-35 31t-17 44.5z" />
<glyph d="M-1686 1800q-4 28 1 56q6 30 22 55t38 45t48.5 31.5t56.5 11.5h712l3 12q11 57 44 107.5t79 88t101 59.5t112 22t103.5 -22t76 -61t40 -90.5t-0.5 -108.5q-13 -63 -46.5 -116.5t-80 -93t-101.5 -61.5t-113 -22h-991q-30 0 -52 11.5t-35 31t-17 44.5zM-626.5 1973.5 q4.5 -17.5 15 -31t26.5 -20.5t37 -7q20 0 40 7t36 20.5t28 31t16.5 37.5t0 37.5t-15 31.5t-27 21t-36.5 7t-40 -7t-36.5 -21t-28 -31.5t-16 -37.5t0 -37.5z" />
<glyph d="M-1686 1800q-4 28 1 56q6 30 22 55t38 45t48.5 31.5t56.5 11.5h496l23 110q6 30 23 56t40.5 44t53 28t59.5 10t55 -10t40.5 -28t21.5 -44t0 -56l-23 -110h118l22 110q6 30 23 56t41 44t53 28t59 10t55 -10t41 -28t21.5 -44t-1.5 -56l-47 -227q-9 -37 -29.5 -68t-49 -53 t-63.5 -35t-71 -13h-1023q-30 0 -52 11.5t-35 31t-17 44.5z" />
<glyph d="M-557 2457q-8 30 1 66l43 207q8 36 28 66t48 52.5t62.5 34t71.5 11.5q36 0 64.5 -11.5t47 -34t25.5 -52.5t0 -66l-43 -207q-8 -38 -28 -67t-48 -51.5t-63 -34.5t-70 -12t-64.5 12t-48 34.5t-26.5 52.5z" />
<glyph d="M-834 2692q-3 22 3 46q6 26 18 47.5t30.5 38t41 26t46.5 9.5h217q26 0 44.5 -9.5t30 -26t15 -38.5t-1.5 -47l-23 -103q53 3 98 17t82 34.5t65.5 47t48.5 56.5q19 27 44.5 47t53 30t56 9.5t54.5 -13.5q24 -13 38.5 -35t18.5 -48t-2.5 -56t-26.5 -57q-43 -62 -104.5 -115.5 t-141.5 -92.5t-177 -61.5t-210 -22.5h-126q-26 0 -45 9.5t-30 26.5t-14 38.5t3 47.5l26 121h-43q-26 0 -44.5 9.5t-30 26t-14.5 38.5z" />
<glyph d="M-990 2425q-4 23 2 46q17 86 53 149t81.5 104.5t97 61.5t100 20t86.5 -24.5t62 -64.5q42 40 90.5 64.5t104.5 24.5q33 0 63 -10t53 -29.5t38 -47.5t17 -63q20 21 41.5 52.5t39.5 68.5q12 26 33 46t45 32t51.5 16.5t51.5 -2.5q27 -8 44.5 -23.5t23.5 -37t2.5 -46.5 t-16.5 -51q-30 -60 -72 -116.5t-90.5 -103t-101 -78t-103.5 -41.5h-102q-34 0 -52.5 22.5t-12.5 56.5q2 23 3 44.5t-2.5 38.5t-13.5 27t-29 10q-28 0 -43 -18.5t-24 -48.5q-11 -37 -37 -57t-60 -20q-35 0 -53.5 20.5t-11.5 56.5q6 30 -3.5 48.5t-37.5 18.5 q-32 0 -52.5 -28.5t-31.5 -71.5q-15 -59 -54 -87.5t-88 -28.5q-27 0 -46.5 8.5t-31 24.5t-14.5 37z" />
<glyph d="M-758.5 2645.5q-3.5 24.5 2.5 51.5q5 27 18.5 50.5t33.5 41t44.5 27.5t51.5 10h122l11 54q7 34 26.5 63.5t46.5 51t61 33.5t68 12t62 -12t46.5 -33.5t25.5 -51t-1 -63.5l-10 -54h121q28 0 48.5 -10t32 -27.5t15 -41.5t-0.5 -51q-6 -28 -20.5 -51.5t-34.5 -40.5t-44 -28 t-51 -11h-120l-12 -52q-7 -35 -27 -65t-47 -50.5t-61 -33t-68 -12.5t-63 12.5t-46.5 33t-25 50t0.5 65.5l11 52h-122q-27 0 -47 11t-32 28t-15.5 41.5z" />
<glyph d="M-1665 1800q-2 28 3 56q6 30 21 55t37 45t48.5 31.5t56.5 11.5h1513q30 0 51.5 -11.5t35 -31.5t18 -45.5t-1.5 -54.5q-5 -30 -21 -55.5t-37.5 -45t-48.5 -31t-56 -11.5h-1514q-30 0 -51.5 11.5t-35 31t-18.5 44.5z" />
<glyph d="M-1665 1800q-2 28 3 56q6 30 21 55t37 45t48.5 31.5t56.5 11.5h1266l17 79q9 37 28 67.5t48.5 53.5t64.5 35.5t72 12.5t66 -12.5t48 -35.5t27 -53.5t-1 -67.5l-41 -196q-9 -37 -29.5 -68t-49 -53t-63 -35t-71.5 -13h-1443q-30 0 -51.5 11.5t-35 31t-18.5 44.5z" />
<glyph d="M-1665 1800q-2 28 3 56q6 30 21 55t37 45t48.5 31.5t56.5 11.5h1104l3 12q12 57 44.5 107.5t78.5 88t101 59.5t112 22t103.5 -22t76 -61t40 -90.5t-0.5 -108.5q-13 -63 -46.5 -116.5t-79.5 -93t-101.5 -61.5t-112.5 -22h-1383q-30 0 -51.5 11.5t-35 31t-18.5 44.5z M-213 1973.5q4 -17.5 15 -31t26.5 -20.5t37.5 -7q20 0 40 7t35.5 20.5t27 31t16 37.5t0.5 37.5t-14.5 31.5t-27 21t-37.5 7q-20 0 -40 -7t-36 -21t-27.5 -31.5t-15.5 -37.5t0 -37.5z" />
<glyph d="M-1665 1800q-2 28 3 56q6 30 21 55t37 45t48.5 31.5t56.5 11.5h918l23 110q6 30 23 56t41 44t53 28t59 10t55 -10t41 -28t21.5 -44t-0.5 -56l-22 -110h117l21 110q6 30 23 56t41.5 44t53 28t58.5 10t55 -10t41 -28t21.5 -44t-0.5 -56l-48 -227q-9 -37 -29.5 -68t-49 -53 t-63 -35t-71.5 -13h-1443q-30 0 -51.5 11.5t-35 31t-18.5 44.5z" />
<glyph d="M-144 2309q-8 30 0 66l48 228q9 35 29 66t48.5 53t63 34t69.5 12q36 0 65.5 -12t48 -34t25.5 -53t-1 -66l-49 -228q-7 -37 -27 -66.5t-48 -52t-62.5 -34t-69.5 -11.5q-36 0 -65.5 11.5t-48 34t-26.5 52.5z" />
<glyph d="M-521 2545q-2 20 3 46q6 26 18 48t30 38.5t41 26t49 9.5h217q26 0 43.5 -9.5t28.5 -26t14.5 -38.5t-2.5 -48l-23 -101q52 1 97.5 14t83 33.5t66.5 48.5t49 58q19 27 45 47t53.5 29.5t55.5 8.5t54 -13q24 -13 39 -34.5t18.5 -48t-3.5 -56t-26 -57.5q-42 -62 -103.5 -115.5 t-142 -92t-177 -61t-210.5 -22.5h-126q-26 0 -44.5 9.5t-30 26t-14 38.5t1.5 46l27 122h-43q-26 0 -44.5 9.5t-30 26t-14.5 38.5z" />
<glyph d="M-698.5 2278q-3.5 21 2.5 44q17 86 53.5 149t81.5 105t96.5 62t100 20t86.5 -25t62 -63q42 40 90.5 64t104.5 24q32 0 61.5 -10.5t53 -29t38.5 -46.5t20 -64q20 22 40.5 53.5t37.5 68.5q13 26 34 46t46 32t51.5 16t50.5 -3q27 -7 44 -22.5t23.5 -37t3 -46.5t-16.5 -51 q-30 -60 -72 -116.5t-90.5 -103t-101 -78.5t-103.5 -41h-102q-34 0 -52.5 22t-14.5 57q3 23 4.5 44.5t-3 38.5t-14 26t-27.5 9q-29 0 -44 -17.5t-23 -47.5q-12 -38 -37.5 -58t-58.5 -20q-34 0 -53 20t-11 58q5 30 -5 47.5t-38 17.5q-32 0 -52.5 -27.5t-30.5 -72.5 q-16 -58 -54.5 -86t-87.5 -28q-27 0 -46.5 8.5t-31.5 24.5t-15.5 37z" />
<glyph d="M-346.5 2499q-3.5 24 1.5 51q6 27 19.5 50.5t33.5 40.5t44.5 28t51.5 11h122l10 53q8 34 27.5 64t46.5 51t61 33q35 12 69 12t62 -12t46 -33t25 -50.5t0 -64.5l-11 -53h121q27 0 48 -11t32.5 -28t15.5 -41q4 -26 -1 -52q-6 -27 -20.5 -50t-34.5 -40.5t-44 -27.5t-52 -10 h-121l-12 -55q-7 -34 -26 -63.5t-47 -51t-61 -33.5t-69 -12q-34 0 -62 12t-45.5 33.5t-25 51t-0.5 63.5l12 55h-122q-27 0 -47 10t-32 27.5t-15.5 41.5z" />
<glyph d="M-626 2375l48 228q9 35 29 66t48.5 53t63 34t69.5 12q36 0 65.5 -12t48 -34t25.5 -53t-1 -66l-47 -228q-8 -37 -28.5 -66.5t-48.5 -52t-62 -34t-70 -11.5t-65.5 11.5t-48 34t-25.5 52.5t-1 66z" />
<glyph d="M-901 2545q-3 20 2 46t18 48t31 38.5t41 26t48 9.5h216q26 0 44.5 -9.5t30 -26t14.5 -38.5t-3 -48l-21 -101q51 1 96 14t83 33.5t67.5 48.5t49.5 58q18 27 43 47t53 29.5t56 8.5t52 -13.5t39 -34t19.5 -48t-2.5 -56t-26 -57.5q-43 -62 -104.5 -115.5t-141 -92t-177 -61 t-210.5 -22.5h-126q-26 0 -45.5 9.5t-30 26t-14 38.5t1.5 46l26 122h-43q-25 0 -43 9.5t-29.5 26t-14.5 38.5z" />
<glyph d="M-1061.5 2278q-3.5 21 1.5 44q18 86 53.5 149t81.5 105t97.5 62t100 20t86.5 -25t62 -63q41 40 90 64t104 24q33 0 63 -10.5t53 -29t38 -46.5t19 -64q20 22 41 53.5t38 68.5q13 26 33.5 46t45 32t51.5 16t52 -3q27 -7 44 -22.5t23.5 -37t3 -46.5t-16.5 -51 q-30 -60 -72 -116.5t-91 -103t-101 -78.5t-104 -41h-101q-34 0 -53 22t-13 57q3 23 3.5 44.5t-3 38.5t-13.5 26t-28 9q-29 0 -44 -17.5t-24 -47.5q-11 -38 -36.5 -58t-60.5 -20q-34 0 -52.5 20t-11.5 58q6 30 -3.5 47.5t-38.5 17.5q-31 0 -52 -27.5t-32 -72.5 q-16 -58 -54.5 -86t-87.5 -28q-27 0 -46 8.5t-30.5 24.5t-15 37z" />
<glyph d="M-825.5 2499q-3.5 24 1.5 51q6 27 19.5 50.5t33.5 40.5t44.5 28t51.5 11h122l11 53q9 34 28 64t46.5 51t61 33t67.5 12t63 -12t46.5 -33t25 -50.5t-1.5 -64.5l-10 -53h120q27 0 48 -11t33 -28t15 -41q3 -26 -1 -52q-6 -27 -20.5 -50t-33.5 -40.5t-44 -27.5t-53 -10h-120 l-11 -55q-7 -34 -27 -63.5t-47.5 -51t-61 -33.5t-67.5 -12q-35 0 -63.5 12t-46 33.5t-25 51t-0.5 63.5l12 55h-122q-27 0 -47 10t-32 27.5t-15.5 41.5z" />
<glyph d="M-1165.5 -364.5q-4.5 24.5 1.5 51.5t20 51.5t35 42t46 28.5t52 11h285q27 0 48.5 -11t34 -28.5t16.5 -41.5t-2 -52l-80 -378q-7 -34 -27 -64t-48 -51.5t-61 -33.5t-69 -12q-34 0 -62.5 12t-47 33.5t-26 51t-0.5 64.5l52 245h-70q-27 0 -48 10t-33 28.5t-16.5 43z" />
<glyph d="M-1462 -380.5q-5 25.5 2 55.5q6 30 21.5 56.5t37.5 46t49.5 31t57.5 11.5h233q30 0 51.5 -11.5t35.5 -31t18 -46t-2 -56.5l-19 -90q-13 -58 3.5 -87.5t66.5 -29.5q96 0 121 117l17 83q7 35 27.5 66t48.5 54t61.5 36.5t69.5 13.5q34 0 63 -13.5t46.5 -36.5t25 -54 t-0.5 -66l-18 -83q-17 -84 -56 -158.5t-102.5 -130t-153.5 -88.5q-91 -33 -212 -33q-108 0 -181 26.5t-116 73.5t-57 112t-4 144h-28q-30 0 -52.5 11.5t-35.5 31.5t-18 45.5z" />
<glyph d="M-1070 -347q10 48 38 90.5t66.5 73.5t86 50.5t94.5 19.5q46 0 84.5 -19.5t63 -50.5t33.5 -73.5t1 -90.5q-10 -46 -38 -88.5t-66 -74t-84.5 -50t-92.5 -18.5q-48 0 -87 18.5t-64 50t-35 74t0 88.5z" />
<glyph d="M-1121 -364.5q-4 24.5 1.5 51.5t20 51.5t35 42t45.5 28.5t52 11h286q27 0 48 -11t34 -28.5t17 -41.5t-3 -52l-80 -378q-7 -34 -27 -64t-47 -51.5t-61 -33.5q-35 -12 -69 -12q-35 0 -63.5 12t-47 33.5t-25.5 51t0 64.5l51 245h-70q-27 0 -48 10t-33 28.5t-16 43z" />
<glyph d="M-1689 -380.5q-4 25.5 2 55.5q5 30 21 56.5t38 46t50 31t56 11.5h234q30 0 52 -11.5t35.5 -31t18 -46t-2.5 -56.5l-19 -90q-13 -58 3.5 -87.5t67.5 -29.5q96 0 119 117l19 83q7 35 27 66t48 54t62 36.5t69 13.5q34 0 62.5 -13.5t47 -36.5t25 -54t-0.5 -66l-19 -83 q-17 -84 -55.5 -158.5t-102 -130t-153.5 -88.5t-210 -33q-109 0 -182.5 26.5t-116.5 73.5t-56.5 112t-5.5 144h-27q-30 0 -52 11.5t-36 31.5t-18 45.5z" />
<glyph d="M-1070 -347q10 48 38 90.5t66.5 73.5t86 50.5t94.5 19.5q46 0 84.5 -19.5t63 -50.5t33.5 -73.5t1 -90.5q-10 -46 -38 -88.5t-66 -74t-84.5 -50t-92.5 -18.5q-48 0 -87 18.5t-64 50t-35 74t0 88.5z" />
<glyph d="M-908.5 1806q-6.5 29 0.5 63l27 130q7 34 26.5 62t46.5 49t59.5 32.5t66.5 11.5t62 -11.5t46 -32.5t24 -49q7 -28 -1 -62h1040q30 0 52 -11.5t36 -31.5t18 -45.5t-2 -54.5q-5 -30 -21 -55.5t-38 -45t-48.5 -31t-56.5 -11.5h-1204q-34 0 -62 11.5t-46.5 32t-25 49.5z" />
<glyph d="M-594 2457q-8 30 1 66l44 207q8 36 27.5 66.5t48 52.5t63 34.5t70.5 12.5q35 0 64.5 -12.5t48 -34.5t26 -52.5t-0.5 -66.5l-44 -207q-9 -38 -29 -67t-47.5 -51.5t-62 -34.5t-70.5 -12q-35 0 -64.5 12t-48 34.5t-26.5 52.5z" />
<glyph d="M-870.5 2692q-3.5 22 2.5 46q6 26 18 47.5t30.5 38t41 26t47.5 9.5h218q25 0 43 -9.5t29.5 -26t15 -38.5t-2.5 -47l-21 -103q51 2 97 15t84 34.5t68 48.5t50 57q18 27 42.5 47t51.5 30t55 9.5t52.5 -13.5t39.5 -35t18.5 -48t-3 -56t-24.5 -57q-43 -62 -105.5 -115.5 t-142 -92.5t-177 -61.5t-210.5 -22.5h-126q-26 0 -44.5 9.5t-29.5 26.5t-14.5 38.5t2.5 47.5l26 121h-43q-26 0 -44.5 9.5t-29.5 26t-14.5 38.5z" />
<glyph d="M-1030 2425q-2 23 2 46q17 86 53.5 149t82 104.5t96.5 61.5t99.5 20t86.5 -24.5t64 -64.5q41 40 89.5 64.5t104.5 24.5q33 0 62.5 -10t53 -29.5t38.5 -47.5t18 -63q20 21 40.5 52.5t37.5 68.5q13 26 34.5 46t46 32t51 16.5t50.5 -2.5q27 -8 44.5 -23.5t23.5 -37 t2.5 -46.5t-16.5 -51q-30 -60 -72 -116.5t-90 -103t-101 -77.5q-51 -32 -103 -42h-103q-34 0 -52 22.5t-13 56.5q2 23 3.5 44.5t-2.5 38.5t-14 27t-27 10q-29 0 -44 -18.5t-25 -48.5q-12 -37 -37 -57t-59 -20t-52.5 20.5t-11.5 56.5q5 30 -5 48.5t-38 18.5 q-32 0 -52.5 -28.5t-30.5 -71.5q-14 -59 -53.5 -87.5t-88.5 -28.5q-27 0 -46 8.5t-31.5 24.5t-15.5 37z" />
<glyph d="M-794.5 2645.5q-3.5 24.5 2.5 51.5t19.5 50.5t33.5 41t44 27.5t51 10h122l10 54q7 34 27 63.5t47.5 51t61 33.5t67.5 12t63 -12t46.5 -33.5t25 -51t0.5 -63.5l-10 -54h120q27 0 47 -10t32 -27.5t15.5 -41.5t-0.5 -51q-6 -28 -20 -51.5t-34 -40.5t-44.5 -28t-51.5 -11 h-120l-12 -52q-7 -35 -27 -65t-48 -50.5t-60.5 -33t-67.5 -12.5q-34 0 -62.5 12.5t-47 33t-25 50t0.5 65.5l11 52h-121q-27 0 -47 11t-32.5 28t-16 41.5z" />
<glyph d="M-908.5 1806q-6.5 29 0.5 63l27 130q7 34 26.5 62t46.5 49t59.5 32.5t66.5 11.5t62 -11.5t46 -32.5t24 -49q7 -28 -1 -62h848q30 0 52.5 -11.5t36 -31.5t18 -45.5t-1.5 -54.5q-6 -30 -22.5 -55.5t-38 -45t-48.5 -31t-56 -11.5h-1012q-34 0 -62 11.5t-46.5 32t-25 49.5z " />
<glyph d="M-660 2665q-4 22 1 46q5 26 18 47.5t31 38.5t41 26.5t48 9.5h218q26 0 43.5 -9.5t29 -26.5t14.5 -39q4 -21 -1 -47l-23 -103q51 3 97 17.5t83 34.5t65.5 46.5t48.5 56.5q19 27 44 47t53.5 30t57 9.5t53 -13.5t39.5 -34.5t18.5 -48t-3.5 -56t-26 -57.5 q-43 -62 -104.5 -115.5t-141.5 -92t-177 -61.5t-210 -23h-126q-26 0 -44.5 10t-30 26.5t-14.5 38t3 47.5l26 121h-43q-26 0 -44.5 9.5t-29 26t-14.5 38.5z" />
<glyph d="M-731.5 2398.5q-3.5 21.5 2.5 45.5q17 86 52.5 149t81.5 104t97.5 61t98.5 20q49 0 87.5 -24t62.5 -64q42 40 89.5 64t103.5 24q33 0 63 -10t53.5 -29t38.5 -47t18 -64q20 22 41.5 54t38.5 69q13 26 34 45.5t45 31.5t51.5 16.5t50.5 -1.5q27 -7 44.5 -23t24 -37.5 t3 -46.5t-16.5 -50q-30 -61 -72 -118t-90.5 -103.5t-101.5 -78t-105 -39.5h-101q-35 0 -52.5 21.5t-13.5 55.5q3 23 3.5 44.5t-3 38.5t-13.5 27t-28 10q-29 0 -43 -19q-15 -20 -23 -48q-12 -37 -37.5 -57t-59.5 -20q-35 0 -53 20t-10 57q5 30 -5 48.5t-38 18.5 q-32 0 -53 -29q-23 -28 -32 -71q-15 -59 -54 -87.5t-87 -28.5q-27 0 -46.5 9.5t-31 24.5t-15 36.5z" />
<glyph d="M-1148 1800q-5 28 3 56q5 30 20 55t37.5 45t49 31.5t56.5 11.5h988q30 0 51.5 -11.5t35 -31.5t17.5 -45.5t-1 -54.5q-6 -30 -21.5 -55.5t-38 -45t-49 -31t-56.5 -11.5h-986q-30 0 -52.5 11.5t-36 31t-17.5 44.5z" />
<glyph d="M-1148 1800q-5 28 3 56q5 30 20 55t37.5 45t49 31.5t56.5 11.5h749l17 79q9 37 28 67.5t48.5 53.5t64.5 35.5t72 12.5t66 -12.5t48 -35.5t27 -53.5t-1 -67.5l-41 -196q-9 -37 -29.5 -68t-49 -53t-63 -35t-71.5 -13h-925q-30 0 -52.5 11.5t-36 31t-17.5 44.5z" />
<glyph d="M-1148 1800q-5 28 3 56q5 30 20 55t37.5 45t49 31.5t56.5 11.5h584l3 12q12 57 45 107.5t78 88t100.5 59.5t112.5 22q58 0 103.5 -22t75 -61t40 -90.5t-0.5 -108.5q-13 -63 -46 -116.5t-79.5 -93t-101.5 -61.5t-112 -22h-862q-30 0 -52.5 11.5t-36 31t-17.5 44.5z M-216.5 1973.5q3.5 -17.5 14 -31t27 -20.5t36.5 -7t40 7t36.5 20.5t28 31t16 37.5t0 37.5t-15 31.5t-27 21t-36.5 7t-40 -7t-36 -21t-27.5 -31.5t-15.5 -37.5t-0.5 -37.5z" />
<glyph d="M-1148 1800q-5 28 3 56q5 30 20 55t37.5 45t49 31.5t56.5 11.5h401l23 110q6 30 23 56t41 44t53 28t59 10t55 -10t41 -28t21.5 -44t-0.5 -56l-22 -110h117l21 110q6 30 23 56t41.5 44t53 28t58.5 10t55 -10t41 -28t21.5 -44t-0.5 -56l-48 -227q-9 -37 -29.5 -68t-49 -53 t-63 -35t-71.5 -13h-925q-30 0 -52.5 11.5t-36 31t-17.5 44.5z" />
<glyph d="M-718.5 2457q-7.5 30 0.5 66l43 204q9 36 29 66t47.5 53t62 34t70.5 11t65 -11t47.5 -34t26.5 -53t0 -66l-43 -204q-9 -38 -28.5 -67t-48 -51.5t-62.5 -34.5t-70 -12t-65.5 12t-48 34.5t-26 52.5z" />
<glyph d="M-917.5 2645.5q-3.5 24.5 0.5 51.5q6 27 19.5 50.5t34.5 41t45 27.5t52 10h121l10 54q7 34 27 63.5t47.5 51t61 33.5t67.5 12t63 -12t47.5 -33.5t25 -51t-0.5 -63.5l-12 -54h122q27 0 47 -10t32 -27.5t15.5 -41.5t-2 -51.5t-19 -51t-33 -40.5t-44.5 -28t-51 -11h-121 l-12 -52q-7 -35 -27 -65t-48 -50.5t-60.5 -33t-67.5 -12.5q-34 0 -62.5 12.5t-47 33t-25 50t0.5 65.5l11 52h-121q-27 0 -47 11t-32.5 28t-16 41.5z" />
<glyph d="M-1171 -364.5q-4 24.5 1.5 51.5t20 51.5t35 42t45.5 28.5t52 11h286q27 0 48 -11t34 -28.5t17 -41.5t-3 -52l-80 -378q-7 -34 -26.5 -64t-47.5 -51.5t-61.5 -33.5t-67.5 -12t-63.5 12t-48 33.5t-25.5 51t0 64.5l51 245h-70q-27 0 -48 10t-33 28.5t-16 43z" />
<glyph d="M-1439.5 -379.5q-3.5 26.5 2.5 56.5t21.5 55.5t37.5 45.5t49.5 31t57.5 11h231q30 0 52.5 -11t36 -31t18.5 -46.5t-2 -54.5l-20 -90q-13 -59 4 -88.5t67 -29.5q96 0 120 118l18 83q7 34 27 65.5t48.5 54.5t62 36.5t67.5 13.5q35 0 63.5 -13.5t47 -36.5t25 -54.5 t-0.5 -65.5l-17 -83q-17 -85 -56 -159t-102.5 -130.5t-153.5 -89t-210 -32.5q-109 0 -182.5 26.5t-116.5 73t-57.5 112.5t-4.5 143l-27 1q-30 0 -52 11.5t-36.5 31t-18 46z" />
<glyph d="M-1060 -347q10 48 38 90.5t66.5 73.5t86 50.5t95.5 19.5q46 0 84 -19.5t63 -50.5t34.5 -73.5t-0.5 -90.5q-10 -46 -38 -88.5t-66 -74t-84 -50t-93 -18.5q-48 0 -87 18.5t-64 50t-35 74t0 88.5z" />
</font>
</defs>
</svg>
