<?xml version="1.0" standalone="no"?>
<!DOCTYPE svg PUBLIC "-//W3C//DTD SVG 1.1//EN" "http://www.w3.org/Graphics/SVG/1.1/DTD/svg11.dtd" >
<svg xmlns="http://www.w3.org/2000/svg" xmlns:xlink="http://www.w3.org/1999/xlink" version="1.1">
<metadata></metadata>
<defs>
<font id="db_heaventroundedmed" horiz-adv-x="0" >
<font-face units-per-em="2560" ascent="2048" descent="-512" />
<missing-glyph horiz-adv-x="622" />
<glyph unicode="&#x2b;&#x2d;" horiz-adv-x="1500" d="M89 116q0 54 40 85t104 31h1035q66 0 105.5 -31t39.5 -85q0 -55 -40 -85.5t-105 -30.5h-1035q-31 0 -58.5 10t-46 25.5t-29 37t-10.5 43.5zM89 975q0 55 40 86.5t104 31.5h399v400q0 63 31.5 103.5t87.5 40.5t87 -40t31 -104v-400h399q66 0 105.5 -31.5t39.5 -86.5 q0 -54 -40 -85t-105 -31h-399v-401q0 -63 -31 -103t-87 -40t-87.5 40t-31.5 103v401h-399q-31 0 -58.5 10t-46 26.5t-29.5 37.5q-10 19 -10 42z" />
<glyph unicode="&#x2e;&#x2e;&#x2e;" horiz-adv-x="2481" d="M225 174q0 39 15 74t40.5 61t59 40t73.5 14q39 0 73.5 -14t60 -40t40.5 -61q15 -36 15 -74q0 -40 -15 -72.5t-40.5 -59t-60 -41t-73.5 -14.5q-40 0 -73.5 14.5t-59 41t-40.5 59t-15 72.5zM1050 174q0 39 14 74t40.5 61t60 40t73.5 14q39 0 73.5 -14t60 -40t40.5 -61 q15 -36 15 -74q0 -40 -15 -72.5t-40.5 -59t-60.5 -41t-73 -14.5q-40 0 -73.5 14.5t-60 41t-40.5 59t-14 72.5zM1876 174q0 39 14.5 74t41 61t60 40t73.5 14q39 0 73 -14t60 -40t41 -61q15 -36 15 -74q0 -40 -15 -72.5t-41 -59t-60 -41t-73 -14.5q-40 0 -73.5 14.5t-60 41 t-41 59t-14.5 72.5z" />
<glyph unicode="&#x3c;&#x3d;" horiz-adv-x="1595" d="M132 122q0 32 11 55t30 37.5t45.5 21t56.5 6.5h1015q30 0 55.5 -6.5t45 -21t31 -37.5t11.5 -55q0 -35 -11.5 -58t-31 -37t-46 -20.5t-54.5 -6.5h-1015q-30 0 -56.5 6.5t-45.5 20.5t-30 37t-11 58zM133 1011q0 40 22 71.5t54 45.5l1008 462q33 16 64.5 24.5t59.5 4 t50.5 -23t37.5 -56.5q11 -30 7.5 -56t-18 -46t-36.5 -35.5t-48 -27.5l-831 -363l828 -362q26 -13 49 -28t37 -36.5t17 -47t-11 -58.5q-17 -40 -42 -56.5t-56 -18t-64 8.5t-63 25l-989 454q-32 16 -54 47.5t-22 71.5z" />
<glyph unicode="&#x3e;&#x3d;" horiz-adv-x="1595" d="M159.5 1483q-3.5 26 7.5 56q16 40 38 57.5t50 22t60 -4.5q31 -10 64 -24l1008 -462q32 -15 54 -46.5t22 -70.5q0 -40 -22 -71.5t-54 -47.5l-989 -454q-30 -15 -63 -25t-63 -8.5t-56 18.5t-43 56q-14 33 -10.5 58.5t17 47t36.5 37.5t49 27l828 362l-831 363 q-26 12 -48 27.5t-36.5 35.5t-18 46zM163 122q0 32 12 55t31.5 37.5t45 21t54.5 6.5h1015q30 0 56.5 -6.5t46 -21t30 -37.5t10.5 -55q0 -35 -10.5 -58t-30 -37t-46 -20.5t-56.5 -6.5h-1015q-30 0 -55 6.5t-44.5 20.5t-31.5 37t-12 58z" />
<glyph unicode="&#xe4f;&#x22;" horiz-adv-x="1856" d="M132 746q0 109 28.5 210t80 188t124.5 159.5t160.5 123t189.5 78.5q103 28 211.5 28t208 -28t187 -78.5t159 -123t122 -159.5t79.5 -187q28 -102 28 -211q0 -108 -28.5 -208t-79 -188t-122 -160.5t-159 -123t-187.5 -78.5q-99 -28 -207 -28q-110 0 -212 28t-189.5 78.5 t-160.5 123t-124.5 160.5t-80 188t-28.5 208zM352 755q0 -117 44 -222t121.5 -184t182.5 -124q107 -45 227 -45q77 0 149 20t135 58.5t115.5 91t89.5 116t57 136.5t20 153q0 79 -20 151t-57 135t-89.5 114.5t-115.5 88.5t-135 57t-149 20q-120 0 -226 -44t-183.5 -121.5 t-121.5 -180.5t-44 -220zM505 755q0 84 33.5 158.5t90.5 132t134 89.5q78 33 164 33q84 0 158.5 -32.5t130 -90t88 -132.5t32.5 -158q0 -87 -32.5 -163t-88 -133t-130.5 -89.5t-158 -32.5q-88 0 -164.5 32.5t-133.5 89.5t-90.5 133t-33.5 163zM613 1842v224q0 53 31 86.5 t84 33.5t83.5 -33.5t30.5 -86.5v-224q0 -53 -30.5 -86.5t-83.5 -33.5t-84 33.5t-31 86.5zM699 755q0 -49 16.5 -90.5t47.5 -72t72 -47.5q43 -17 92 -17q45 0 84 17t68 47.5t46.5 72t17.5 90.5q0 46 -17.5 85t-46.5 69.5t-69 47.5q-38 17 -83 17q-49 0 -91 -17t-73 -47.5 t-47.5 -69.5t-16.5 -85zM1015 1842v224q0 53 30 86.5t83 33.5t84 -33.5t31 -86.5v-224q0 -53 -31 -86.5t-84 -33.5t-83 33.5t-30 86.5z" />
<glyph unicode="&#xe0e;&#xe3a;" horiz-adv-x="1643" d="M49 123q0 26 7.5 47.5t22.5 38.5t36 26.5t47 9.5h65v567q0 40 -8.5 80t-34.5 78q-22 31 -38 50.5t-23 36.5t-3.5 37t19.5 56q34 74 90 144t137.5 123t191.5 84.5t251 31.5q132 0 235.5 -23.5t181 -67t131 -102.5t86.5 -129t47 -148q14 -79 14 -159v-1253q0 -39 -14 -72.5 t-40 -58.5t-60 -40t-73 -15q-41 0 -76.5 16.5t-60.5 45.5q-23 25 -55 48t-75 39.5t-98 26.5t-125 10q-45 0 -86.5 -12t-80.5 -33.5t-77 -50t-74 -63.5q-17 -15 -38.5 -21.5t-43.5 -4.5t-43 12t-35 27q-16 19 -22.5 41t-3.5 44t13 43t24 37q46 51 102.5 93.5t117.5 72.5 t124.5 45.5t122.5 15.5q70 0 127 -8t103 -20.5t81.5 -29t61.5 -33.5v1124q0 62 -19.5 124.5t-65 111t-121 79.5t-185.5 33q-91 2 -160.5 -19.5t-117.5 -53.5t-75 -69q-27 -35 -36 -66q48 -42 78 -111.5t30 -149.5v-686q0 -26 -9.5 -48t-26.5 -39t-39.5 -26.5t-47.5 -9.5 h-243q-26 0 -47 9.5t-36 26.5t-22.5 39t-7.5 48zM1145 -821q0 43 16.5 80t44 66t64.5 44.5t80 15.5q41 0 77.5 -15.5t64.5 -44.5t44.5 -66t16.5 -80q0 -41 -16.5 -77.5t-44.5 -64t-64.5 -43t-77.5 -15.5q-43 0 -80 15.5t-64.5 43t-44 64t-16.5 77.5z" />
<glyph unicode="&#xe0f;&#xe3a;" horiz-adv-x="1643" d="M49 123q0 26 7.5 47.5t22.5 38.5t36 26.5t47 9.5h65v567q0 40 -8.5 80t-34.5 78q-22 31 -38 50.5t-23 36.5t-3.5 37t19.5 56q34 74 90 144t137.5 123t191.5 84.5t251 31.5q132 0 235.5 -23.5t181 -67t131 -102.5t86.5 -129t47 -148q14 -79 14 -159v-1266q0 -36 -13.5 -67 t-36.5 -55t-55 -37.5t-68 -13.5q-51 0 -91 26t-62 69q-10 20 -22.5 37.5t-29 32t-37.5 22.5t-47 8q-25 0 -45 -8t-36 -22.5t-28 -32t-21 -37.5q-17 -42 -55 -68.5t-86 -26.5q-49 0 -87 27.5t-53 69.5q-6 19 -17 37t-25 32t-34 23t-46 9q-23 0 -41.5 -9t-32 -23t-23.5 -34 q-9 -19 -14 -40q-6 -25 -22 -44t-36 -31.5t-43.5 -16t-47.5 3.5q-24 6 -43 21t-31 35t-16 44q-3 22 3 48q15 71 49.5 124t79 86.5t96 50t101.5 16.5q88 0 157 -36.5t113 -102.5q26 32 56 55.5t62.5 40t65.5 24.5t65 8q67 0 113.5 -19.5t79.5 -50.5v1117q0 62 -19.5 124.5 t-65 111t-121 79.5t-185.5 33q-91 2 -160.5 -19.5t-117.5 -53.5t-75 -69q-27 -35 -36 -66q48 -42 78 -111.5t30 -149.5v-686q0 -26 -9.5 -48t-26.5 -39t-39.5 -26.5t-47.5 -9.5h-243q-26 0 -47 9.5t-36 26.5t-22.5 39t-7.5 48zM1145 -821q0 43 16.5 80t44 66t64.5 44.5 t80 15.5q41 0 77.5 -15.5t64.5 -44.5t44.5 -66t16.5 -80q0 -41 -16.5 -77.5t-44.5 -64t-64.5 -43t-77.5 -15.5q-43 0 -80 15.5t-64.5 43t-44 64t-16.5 77.5z" />
<glyph unicode="&#xe0e;&#xe38;" horiz-adv-x="1643" d="M49 123q0 26 7.5 47.5t22.5 38.5t36 26.5t47 9.5h65v567q0 40 -8.5 80t-34.5 78q-22 31 -38 50.5t-23 36.5t-3.5 37t19.5 56q34 74 90 144t137.5 123t191.5 84.5t251 31.5q132 0 235.5 -23.5t181 -67t131 -102.5t86.5 -129t47 -148q14 -79 14 -159v-1253q0 -39 -14 -72.5 t-40 -58.5t-60 -40t-73 -15q-41 0 -76.5 16.5t-60.5 45.5q-23 25 -55 48t-75 39.5t-98 26.5t-125 10q-45 0 -86.5 -12t-80.5 -33.5t-77 -50t-74 -63.5q-17 -15 -38.5 -21.5t-43.5 -4.5t-43 12t-35 27q-16 19 -22.5 41t-3.5 44t13 43t24 37q46 51 102.5 93.5t117.5 72.5 t124.5 45.5t122.5 15.5q70 0 127 -8t103 -20.5t81.5 -29t61.5 -33.5v1124q0 62 -19.5 124.5t-65 111t-121 79.5t-185.5 33q-91 2 -160.5 -19.5t-117.5 -53.5t-75 -69q-27 -35 -36 -66q48 -42 78 -111.5t30 -149.5v-686q0 -26 -9.5 -48t-26.5 -39t-39.5 -26.5t-47.5 -9.5 h-243q-26 0 -47 9.5t-36 26.5t-22.5 39t-7.5 48zM1055 -726q0 24 8 45.5t22.5 37t33.5 24t42 8.5h238q24 0 42.5 -8.5t33 -24t21.5 -37.5q8 -23 8 -45v-338q0 -30 -11.5 -54.5t-30 -41.5t-44 -27t-54.5 -10q-30 0 -55 10t-44 27t-30.5 41.5t-11.5 54.5v223h-62 q-24 0 -42.5 8.5t-33 24.5t-22.5 37.5t-8 44.5z" />
<glyph unicode="&#xe0f;&#xe38;" horiz-adv-x="1643" d="M49 123q0 26 7.5 47.5t22.5 38.5t36 26.5t47 9.5h65v567q0 40 -8.5 80t-34.5 78q-22 31 -38 50.5t-23 36.5t-3.5 37t19.5 56q34 74 90 144t137.5 123t191.5 84.5t251 31.5q132 0 235.5 -23.5t181 -67t131 -102.5t86.5 -129t47 -148q14 -79 14 -159v-1266q0 -36 -13.5 -67 t-36.5 -55t-55 -37.5t-68 -13.5q-51 0 -91 26t-62 69q-10 20 -22.5 37.5t-29 32t-37.5 22.5t-47 8q-25 0 -45 -8t-36 -22.5t-28 -32t-21 -37.5q-17 -42 -55 -68.5t-86 -26.5q-49 0 -87 27.5t-53 69.5q-6 19 -17 37t-25 32t-34 23t-46 9q-23 0 -41.5 -9t-32 -23t-23.5 -34 q-9 -19 -14 -40q-6 -25 -22 -44t-36 -31.5t-43.5 -16t-47.5 3.5q-24 6 -43 21t-31 35t-16 44q-3 22 3 48q15 71 49.5 124t79 86.5t96 50t101.5 16.5q88 0 157 -36.5t113 -102.5q26 32 56 55.5t62.5 40t65.5 24.5t65 8q67 0 113.5 -19.5t79.5 -50.5v1117q0 62 -19.5 124.5 t-65 111t-121 79.5t-185.5 33q-91 2 -160.5 -19.5t-117.5 -53.5t-75 -69q-27 -35 -36 -66q48 -42 78 -111.5t30 -149.5v-686q0 -26 -9.5 -48t-26.5 -39t-39.5 -26.5t-47.5 -9.5h-243q-26 0 -47 9.5t-36 26.5t-22.5 39t-7.5 48zM1055 -726q0 24 8 45.5t22.5 37t33.5 24 t42 8.5h238q24 0 42.5 -8.5t33 -24t21.5 -37.5q8 -23 8 -45v-338q0 -30 -11.5 -54.5t-30 -41.5t-44 -27t-54.5 -10q-30 0 -55 10t-44 27t-30.5 41.5t-11.5 54.5v223h-62q-24 0 -42.5 8.5t-33 24.5t-22.5 37.5t-8 44.5z" />
<glyph unicode="&#xe0e;&#xe39;" horiz-adv-x="1643" d="M49 123q0 26 7.5 47.5t22.5 38.5t36 26.5t47 9.5h65v567q0 40 -8.5 80t-34.5 78q-22 31 -38 50.5t-23 36.5t-3.5 37t19.5 56q34 74 90 144t137.5 123t191.5 84.5t251 31.5q132 0 235.5 -23.5t181 -67t131 -102.5t86.5 -129t47 -148q14 -79 14 -159v-1253q0 -39 -14 -72.5 t-40 -58.5t-60 -40t-73 -15q-41 0 -76.5 16.5t-60.5 45.5q-23 25 -55 48t-75 39.5t-98 26.5t-125 10q-45 0 -86.5 -12t-80.5 -33.5t-77 -50t-74 -63.5q-17 -15 -38.5 -21.5t-43.5 -4.5t-43 12t-35 27q-16 19 -22.5 41t-3.5 44t13 43t24 37q46 51 102.5 93.5t117.5 72.5 t124.5 45.5t122.5 15.5q70 0 127 -8t103 -20.5t81.5 -29t61.5 -33.5v1124q0 62 -19.5 124.5t-65 111t-121 79.5t-185.5 33q-91 2 -160.5 -19.5t-117.5 -53.5t-75 -69q-27 -35 -36 -66q48 -42 78 -111.5t30 -149.5v-686q0 -26 -9.5 -48t-26.5 -39t-39.5 -26.5t-47.5 -9.5 h-243q-26 0 -47 9.5t-36 26.5t-22.5 39t-7.5 48zM525 -726q0 24 8 44.5t22 36.5t32.5 24.5t43.5 8.5h236q24 0 43.5 -8.5t33.5 -24.5t22 -36.5t8 -44.5v-91q0 -71 30 -108t94 -37q60 0 92.5 37t32.5 108v92q0 30 11.5 54.5t30.5 41.5t44 26.5t55 9.5t55 -9.5t43.5 -26.5 t30 -41.5t11.5 -54.5v-92q0 -77 -21.5 -146t-69 -120.5t-125 -82.5t-190.5 -31q-106 0 -181.5 26t-125 72.5t-74.5 112t-29 144.5h-57q-25 0 -43.5 9t-32.5 25t-22 36.5t-8 45.5z" />
<glyph unicode="&#xe0f;&#xe39;" horiz-adv-x="1643" d="M49 123q0 26 7.5 47.5t22.5 38.5t36 26.5t47 9.5h65v567q0 40 -8.5 80t-34.5 78q-22 31 -38 50.5t-23 36.5t-3.5 37t19.5 56q34 74 90 144t137.5 123t191.5 84.5t251 31.5q132 0 235.5 -23.5t181 -67t131 -102.5t86.5 -129t47 -148q14 -79 14 -159v-1266q0 -36 -13.5 -67 t-36.5 -55t-55 -37.5t-68 -13.5q-51 0 -91 26t-62 69q-10 20 -22.5 37.5t-29 32t-37.5 22.5t-47 8q-25 0 -45 -8t-36 -22.5t-28 -32t-21 -37.5q-17 -42 -55 -68.5t-86 -26.5q-49 0 -87 27.5t-53 69.5q-6 19 -17 37t-25 32t-34 23t-46 9q-23 0 -41.5 -9t-32 -23t-23.5 -34 q-9 -19 -14 -40q-6 -25 -22 -44t-36 -31.5t-43.5 -16t-47.5 3.5q-24 6 -43 21t-31 35t-16 44q-3 22 3 48q15 71 49.5 124t79 86.5t96 50t101.5 16.5q88 0 157 -36.5t113 -102.5q26 32 56 55.5t62.5 40t65.5 24.5t65 8q67 0 113.5 -19.5t79.5 -50.5v1117q0 62 -19.5 124.5 t-65 111t-121 79.5t-185.5 33q-91 2 -160.5 -19.5t-117.5 -53.5t-75 -69q-27 -35 -36 -66q48 -42 78 -111.5t30 -149.5v-686q0 -26 -9.5 -48t-26.5 -39t-39.5 -26.5t-47.5 -9.5h-243q-26 0 -47 9.5t-36 26.5t-22.5 39t-7.5 48zM525 -726q0 24 8 44.5t22 36.5t32.5 24.5 t43.5 8.5h236q24 0 43.5 -8.5t33.5 -24.5t22 -36.5t8 -44.5v-91q0 -71 30 -108t94 -37q60 0 92.5 37t32.5 108v92q0 30 11.5 54.5t30.5 41.5t44 26.5t55 9.5t55 -9.5t43.5 -26.5t30 -41.5t11.5 -54.5v-92q0 -77 -21.5 -146t-69 -120.5t-125 -82.5t-190.5 -31 q-106 0 -181.5 26t-125 72.5t-74.5 112t-29 144.5h-57q-25 0 -43.5 9t-32.5 25t-22 36.5t-8 45.5z" />
<glyph unicode=" "  horiz-adv-x="622" />
<glyph unicode="&#x09;" horiz-adv-x="622" />
<glyph unicode="&#xa0;" horiz-adv-x="622" />
<glyph unicode="!" horiz-adv-x="925" d="M277 170q0 37 14.5 70t39.5 58t59.5 39.5t72.5 14.5q39 0 72.5 -14.5t58.5 -39.5t40 -58t15 -70t-15 -70.5t-40 -58.5t-58.5 -39.5t-72.5 -14.5q-38 0 -72.5 14.5t-59.5 39.5t-39.5 58.5t-14.5 70.5zM299 1214v362q0 91 37 137.5t129 46.5q91 0 128.5 -46.5t37.5 -137.5 v-362q0 -9 -1.5 -16.5t-4 -26t-7.5 -56.5t-13.5 -107.5t-21 -177.5t-30.5 -267q-7 -51 -30.5 -69.5t-57.5 -18.5q-35 0 -58.5 18.5t-31.5 69.5q-17 159 -30 267t-21 177.5t-13 107.5t-8 56.5t-3.5 25.5t-0.5 17z" />
<glyph unicode="&#x22;" horiz-adv-x="1093" d="M245 1233v417q0 53 30.5 86t82.5 33q51 0 81 -33t30 -86v-417q0 -52 -30 -84t-81 -32q-52 0 -82.5 32t-30.5 84zM631 1233v417q0 53 30 86t81 33q52 0 82 -33t30 -86v-417q0 -52 -31 -84t-81 -32q-51 0 -81 32t-30 84z" />
<glyph unicode="#" horiz-adv-x="1467" d="M102 613q0 20 5.5 39t20 34t35.5 23.5t53 8.5h142l44 306h-107q-32 0 -55 9t-36.5 24t-20 34.5t-6.5 39.5t6.5 38.5t20 33.5t36 24.5t55.5 9.5h140l57 393q3 25 11.5 46t23.5 37t39.5 25t59.5 9q23 0 43 -6t36 -17.5t25 -29t9 -37.5q0 -2 -0.5 -9.5t-3.5 -24t-6.5 -45 t-10.5 -73.5t-17 -111t-23 -157h246l57 393q3 25 11 46t23.5 37t40 25t59.5 9q23 0 43 -6t35 -17.5t24.5 -29t9.5 -37.5q0 -2 -0.5 -9.5t-3 -24t-6.5 -45t-10.5 -73.5t-16 -111t-23.5 -157h110q30 0 52 -9.5t36 -24.5t19.5 -34t5.5 -38q0 -20 -5.5 -39.5t-19.5 -34.5 t-36 -24t-52 -9h-143l-43 -306h107q32 0 54 -8.5t36.5 -23.5t20 -34t5.5 -39t-5.5 -39t-20 -34t-36.5 -24.5t-54 -9.5h-141l-57 -390q-3 -24 -11.5 -45.5t-23.5 -37.5t-40.5 -24.5t-60.5 -8.5q-26 0 -47.5 8.5t-36 23.5t-20.5 33.5t-4 40.5l56 400h-243l-57 -390 q-3 -24 -12.5 -45t-24.5 -37.5t-39 -25t-61 -8.5q-23 0 -42.5 6.5t-34.5 18t-23.5 28t-8.5 36.5l59 417h-109q-32 0 -53 9.5t-35.5 24.5t-20 34t-5.5 39zM602 718h245l44 306h-246z" />
<glyph unicode="$" horiz-adv-x="1445" d="M54 482q-3 30 6 58.5t24.5 50t38.5 34.5t51 16q28 1 53 -7t46.5 -23.5t36.5 -40.5t20 -61q10 -56 36 -103.5t66.5 -85t98 -62.5t128.5 -33v549q-48 11 -95.5 22.5t-93.5 27.5q-112 37 -184.5 87t-113 109.5t-55.5 125t-15 132.5q0 80 21 146t60 120.5t91.5 96.5t114 71.5 t130.5 46.5t140 23v143q0 16 6 31.5t15 27t22 18.5t27 7q15 0 27.5 -7t22 -18.5t14.5 -27t5 -31.5v-145q84 -8 169 -39t157.5 -84.5t126 -131.5t76.5 -182q7 -30 0.5 -58.5t-23.5 -50t-42.5 -34.5t-58.5 -13q-32 0 -55 7t-40.5 20.5t-29 34.5t-18.5 44q-33 103 -94.5 160 t-167.5 71v-493l182 -41q120 -28 199 -81.5t127 -123.5t66.5 -151.5t17.5 -164.5q-3 -106 -44.5 -196t-117 -156t-184.5 -106.5t-246 -47.5v-160q0 -16 -5 -30.5t-14.5 -26.5t-22 -19t-27.5 -7q-14 0 -27 7t-22 19t-15 27q-6 13 -6 30v161q-106 7 -191 33t-150 64.5t-112 88 t-79.5 104.5t-49.5 113.5t-23 114.5zM396 1291q-1 -53 22.5 -90t61.5 -62.5t85.5 -43t93.5 -31.5v462q-126 -13 -193.5 -74t-69.5 -161zM798 225q63 5 116.5 24.5t93 48.5t63 69.5t24.5 85.5q2 89 -48 160t-155 103q-23 8 -47 13.5t-47 12.5v-517z" />
<glyph unicode="%" horiz-adv-x="2518" d="M227 1291q0 99 23 183.5t73 147.5t129.5 98t192.5 35t191.5 -35t129.5 -98t73 -147.5t22 -183.5q0 -98 -22 -182.5t-73 -147t-130.5 -98t-190.5 -35.5q-113 0 -192.5 35.5t-129.5 98t-73 147t-23 182.5zM499 1291q0 -57 7 -105.5t23.5 -85t44.5 -56.5t71 -20q41 0 69 20 t44.5 56.5t23.5 85t7 105.5q0 55 -7 103.5t-23.5 85.5t-44.5 58.5t-69 21.5q-42 0 -70.5 -21.5t-45 -58.5t-23.5 -85.5t-7 -103.5zM731 59q0 18 7 38t18 43l846 1563q5 12 14.5 24t21 21t26.5 15.5t32 6.5q20 0 37 -7t30 -18.5t20 -25.5t7 -30q0 -17 -7 -37t-18 -43 l-846 -1565q-5 -11 -14.5 -23t-21 -21.5t-26.5 -16t-32 -6.5q-20 0 -37 7t-30 18.5t-20 26t-7 30.5zM1457 455q0 98 23 182.5t73 147t129.5 98t192.5 35.5t191.5 -35.5t129.5 -98t73 -147.5t22 -182q0 -99 -22 -183.5t-73 -146.5t-130.5 -98t-190.5 -36q-113 0 -192.5 36 t-129.5 98t-73 146.5t-23 183.5zM1729 455q0 -57 7 -106.5t23.5 -85.5t44.5 -56.5t71 -20.5q41 0 69 20.5t44.5 56.5t23.5 85.5t7 106.5q0 54 -7 102t-23.5 85t-44.5 59.5t-69 22.5q-42 0 -70.5 -22.5t-45 -59.5t-23.5 -85t-7 -102z" />
<glyph unicode="&#x26;" horiz-adv-x="1635" d="M80 458q0 95 31 175.5t83 147t123.5 119t155.5 92.5q-34 40 -67 81t-58 85.5t-39 91.5t-14 100q0 101 37.5 179t102 132t149.5 81.5t178 27.5t165.5 -18.5t126 -49t90.5 -71.5t60 -86.5t33 -93t10 -91.5q0 -70 -23.5 -134.5t-65 -120t-99.5 -102t-127 -79.5l262 -315 q19 20 35.5 43.5t30.5 48t27.5 49t26.5 47.5q19 34 50 51q32 17 63 17q26 0 51 -9t44.5 -25.5t31.5 -39t12 -49.5q0 -31 -16.5 -73.5t-43 -88t-59.5 -89t-67 -75.5l156 -191q30 -35 30 -88q0 -25 -11.5 -49.5t-33 -43t-51.5 -31t-69 -12.5q-34 0 -58.5 18t-46.5 44l-125 146 q-123 -120 -263 -171t-302 -51q-138 0 -237.5 41.5t-163 108t-94.5 151.5t-31 170zM373 489q0 -59 25 -104.5t66 -78.5t94 -50t108 -17q102 0 183.5 36.5t144.5 117.5l-368 431q-51 -32 -97 -65.5t-81 -73.5t-55 -88t-20 -108zM579 1380q0 -49 14.5 -87.5t38.5 -71.5 t56.5 -62t69.5 -61q33 20 71.5 45t70.5 58t54.5 75t22.5 98q0 37 -15 70t-42.5 58t-64 39.5t-79.5 14.5q-42 0 -78.5 -13.5t-62.5 -37.5t-41 -56t-15 -69z" />
<glyph unicode="'" horiz-adv-x="723" d="M250 1233v417q0 53 31 86t82 33q52 0 82 -33t30 -86v-417q0 -52 -31 -84t-81 -32q-51 0 -82 32t-31 84z" />
<glyph unicode="(" horiz-adv-x="716" d="M104 671q0 98 13 202.5t36.5 209.5t58 211t77.5 210q50 118 87 191.5t68 115.5t56.5 58t54.5 16q24 0 43.5 -7.5t34.5 -21t23 -30t8 -34.5q0 -29 -16.5 -82t-42.5 -121q-27 -77 -60 -176.5t-61.5 -216t-48 -249t-19.5 -276.5q0 -145 19.5 -276.5t48 -248t61.5 -216 t60 -176.5q26 -70 42.5 -122t16.5 -81q0 -19 -8 -36t-23 -30t-34.5 -20t-43.5 -7q-20 0 -36.5 5t-34.5 19.5t-37 40t-42 67.5t-51 103t-65 144q-43 103 -77.5 209.5t-58 212.5t-36.5 209.5t-13 202.5z" />
<glyph unicode=")" horiz-adv-x="716" d="M54 -449q0 29 16.5 81t42.5 122q27 77 60 176.5t61.5 216t48 249t19.5 275.5q0 144 -19.5 276.5t-48 249t-61.5 216t-60 176.5q-26 70 -42.5 122t-16.5 81q0 18 8 34.5t22.5 30t34.5 21t44 7.5q27 0 53.5 -16t56.5 -58t67.5 -115.5t87.5 -191.5q42 -103 77.5 -209.5 t59 -211.5t36 -209.5t12.5 -202.5q0 -99 -12.5 -202.5t-36 -209.5t-59 -212.5t-77.5 -209.5q-36 -84 -64 -144.5t-51 -102.5t-42 -67.5t-37 -40t-35 -19.5t-36 -5q-24 0 -44 7t-34.5 20t-22.5 29.5t-8 36.5z" />
<glyph unicode="*" horiz-adv-x="943" d="M26 1447q0 26 10 45.5t24 31.5t30 17.5t27 5.5q12 0 29 -4t31 -10l202 -72v229q0 49 24.5 74.5t68.5 25.5t68.5 -25.5t24.5 -74.5v-229l201 72q13 6 30.5 10t30.5 4q11 0 26.5 -5.5t30 -17.5t24.5 -31.5t10 -45.5q0 -30 -20.5 -52t-59.5 -35l-226 -66l154 -200 q10 -14 19 -30.5t9 -33.5q0 -29 -12.5 -47.5t-28 -28.5t-32.5 -14.5t-27 -4.5q-23 0 -43 10t-33 26l-145 217l-147 -217q-13 -17 -32 -26.5t-42 -9.5q-10 0 -27.5 4.5t-34 14.5t-28.5 28.5t-12 47.5q0 17 9.5 33.5t17.5 30.5l155 200q-52 16 -113.5 34t-112.5 32 q-80 26 -80 87z" />
<glyph unicode="+" horiz-adv-x="1537" d="M107 672q0 54 39.5 85t105.5 31h397v402q0 63 32 103q34 40 88 40q56 0 87.5 -40t31.5 -103v-402h398q65 0 104.5 -31t39.5 -85t-39.5 -85t-104.5 -31h-398v-402q0 -62 -32 -102.5t-87 -40.5t-87.5 40.5t-32.5 102.5v402h-397q-32 0 -59 9.5t-46.5 26t-29.5 37t-10 43.5z " />
<glyph unicode="," horiz-adv-x="723" d="M157 177q0 40 15 74.5t41.5 60t61 41.5t72.5 16q58 0 99.5 -21.5t69 -59.5t41.5 -89.5t14 -111.5q0 -107 -30 -189t-93 -155q-18 -20 -43.5 -43t-55 -41.5t-60 -31.5t-57.5 -13q-38 0 -56.5 18.5t-18.5 44.5q0 14 6.5 25.5t18 21.5t26.5 20t32 21q27 19 53.5 41t49.5 52 t40 71t25 97q-20 -15 -41 -20.5t-44 -5.5q-40 0 -70.5 15t-51.5 39.5t-32.5 56.5t-11.5 66z" />
<glyph unicode="-" horiz-adv-x="1185" d="M104 671q0 54 39.5 86t105.5 32h689q66 0 105.5 -32t39.5 -86q0 -55 -39.5 -86.5t-105.5 -31.5h-689q-66 0 -105.5 32.5t-39.5 85.5z" />
<glyph unicode="." horiz-adv-x="723" d="M169 174q0 40 15 75.5t41.5 61.5t61.5 42t75 16t75 -16t61.5 -42t41.5 -61q15 -36 15 -76t-15 -74t-41.5 -60.5t-61.5 -41.5t-75 -15t-75 15t-61.5 41.5t-41.5 60.5t-15 74z" />
<glyph unicode="/" horiz-adv-x="943" d="M23 73q0 17 5.5 37t14.5 40l631 1603q5 13 13 29.5t22.5 30t37 23t55.5 9.5q20 0 41.5 -8t39.5 -22.5t29 -34.5q12 -21 12 -47q0 -17 -7.5 -37t-14.5 -39l-630 -1603l1 2q-6 -13 -13.5 -29.5t-22 -30t-37.5 -23.5t-58 -10q-20 0 -41 8t-39 21.5t-28.5 34t-10.5 46.5z" />
<glyph unicode="0" horiz-adv-x="1415" d="M77 875q0 72 3 148.5t13 153t29.5 150.5t50.5 140.5t77.5 123t111 97.5t149.5 64.5t194 23.5t194 -23.5t150 -64.5t110.5 -97.5t78 -123t51 -140.5t28.5 -150.5t13 -153t3 -148.5q0 -100 -6 -206t-27.5 -206t-62 -190t-110.5 -157t-173 -106.5t-249 -39.5t-248 39.5 t-173 106.5t-111.5 157t-62 190t-27.5 206t-6 206zM380 875q0 -60 2.5 -131.5t11.5 -143t29 -138t56.5 -118.5t91 -83t134.5 -31t135 31t91 83t56 118.5t30 138t11.5 142.5t1.5 132q0 59 -3 129.5t-14 142t-31.5 139t-57 119.5t-90 83t-129.5 31t-129.5 -31t-90 -83 t-56.5 -119.5t-30.5 -139t-14.5 -142t-4 -129.5z" />
<glyph unicode="1" horiz-adv-x="1415" d="M209 1291q0 26 8 49t25 42t45 33t68 21q77 11 128.5 34t85 52.5t54.5 61.5q22 32 39 63q13 23 28 44.5t35 36.5t43.5 24.5t52.5 9.5q21 0 44 -6t40 -20t28.5 -39t11.5 -64v-1473q0 -40 -7.5 -72t-25 -55.5t-45.5 -36.5t-69 -13q-42 0 -69 13t-45 36.5t-25 55.5t-7 72 v1091q-79 -48 -154.5 -69t-162.5 -19q-25 0 -47.5 10t-40 27t-28 40.5t-10.5 50.5z" />
<glyph unicode="2" horiz-adv-x="1415" d="M83 102q-6 27 1 58q29 120 80.5 211.5t117 163t141.5 126.5t152 104q110 72 189.5 127t131 107t75.5 109t24 133q0 62 -22 112t-61.5 84t-92.5 53t-113 19q-54 0 -101 -16t-84.5 -49t-61 -83.5t-29.5 -122.5q-2 -30 -9.5 -58.5t-24.5 -50.5t-45 -35.5t-74 -13.5 q-31 0 -59 8.5t-49.5 27.5t-33.5 50.5t-12 76.5q0 113 45 208.5t125 166.5t189.5 110t235.5 39q121 0 229 -34t187.5 -102.5t126 -167.5t46.5 -226q0 -123 -40 -216.5t-104.5 -166.5t-142.5 -128q-79 -54 -156 -100q-70 -43 -141 -87t-131.5 -90.5t-106 -93t-65.5 -95.5h751 q62 0 100.5 -34t38.5 -96q0 -61 -38.5 -95.5t-100.5 -34.5h-969q-30 0 -55 13.5t-41.5 36.5t-22.5 52z" />
<glyph unicode="3" horiz-adv-x="1415" d="M80 422q-7 44 6 76.5t35.5 53t52 30.5t55.5 10q44 0 72 -13t45 -33.5t26.5 -48.5t15.5 -57q8 -51 32.5 -92t62.5 -69.5t88 -43.5t110 -15q74 0 137 20t107.5 57.5t68.5 91t24 120.5q0 70 -24 121.5t-68.5 85t-105.5 50t-132 16.5h-30q-25 0 -47 9.5t-37.5 25t-25 38 t-9.5 46.5t9.5 46.5t25 38t37.5 25t47 9.5q57 0 110 17t93 48.5t63.5 77t23.5 104.5t-20 104t-56.5 75.5t-86 46.5t-107.5 16q-50 0 -95 -14.5t-80 -42.5t-58 -70q-22 -41 -26 -98q-3 -30 -10 -59.5t-23.5 -51.5t-45 -35.5t-73.5 -13.5q-31 0 -59 8.5t-49.5 28t-34 51 t-12.5 76.5q0 96 42.5 182.5t117.5 153t179 105t227 38.5t228 -30.5t182 -93.5t121 -158t44 -222q0 -55 -16 -102t-44 -90t-65 -79q-38 -34 -81 -65q133 -49 206 -155.5t73 -259.5q0 -84 -23 -158t-63 -135.5t-95 -108.5t-120 -80q-37 -20 -78.5 -32t-85.5 -18.5t-89.5 -9.5 t-90.5 -3q-123 0 -224.5 28t-179 84.5t-128 141.5t-69.5 201z" />
<glyph unicode="4" horiz-adv-x="1415" d="M49 528q0 44 10.5 74t30.5 59l738 1034q23 31 58 46.5t81 15.5q43 0 73 -11t48.5 -31t27 -49t8.5 -63v-965h120q32 0 58 -10t45.5 -27.5t30.5 -43t11 -55.5q0 -32 -11 -57t-30.5 -42.5t-45.5 -27t-58 -9.5h-120v-230q0 -33 -10.5 -61.5t-29.5 -48.5t-45.5 -31.5 t-60.5 -11.5q-33 0 -59.5 11.5t-45 31.5t-28.5 48.5t-10 61.5v230h-619q-43 0 -74.5 16t-52 38.5t-30.5 51t-10 56.5zM388 638h447v626q-59 -77 -112.5 -154.5t-108.5 -155t-110.5 -157t-115.5 -159.5z" />
<glyph unicode="5" horiz-adv-x="1415" d="M122 378q0 34 11 62.5t32 48.5t49 31t62 11q54 0 91.5 -31.5t55.5 -87.5q10 -30 30 -62.5t53 -58.5t80 -43.5t113 -17.5q69 0 129 23t104.5 69t69.5 114q26 70 26 162q0 74 -25 137.5t-70.5 108.5t-111 71t-143.5 26q-46 0 -82.5 -11.5t-67 -29.5t-57 -38t-51 -37.5 t-50 -29t-54.5 -11.5q-63 0 -98 24t-49.5 63.5t-13.5 89t11 100.5l97 583q3 22 14.5 40.5t28.5 33t38 21.5t44 7h729q63 0 103.5 -35.5t40.5 -100.5q0 -63 -40 -98.5t-104 -35.5h-604l-55 -345q60 39 129 52.5t141 13.5q127 0 238.5 -38.5t194 -116t129 -193t46.5 -271.5 q0 -118 -40 -225.5t-122.5 -191.5t-205.5 -134t-287 -50q-100 0 -180.5 21t-142 54.5t-106.5 76.5t-74 87t-42.5 86.5t-13.5 75.5z" />
<glyph unicode="6" horiz-adv-x="1415" d="M73 824q0 123 13.5 241t45 223.5t82.5 195t126.5 154.5t178 101.5t236.5 36.5q94 0 168 -18t129 -47t94 -66.5t64.5 -76t38 -75.5t17.5 -67q5 -35 -3.5 -62.5t-27.5 -47.5t-47 -31q-27 -11 -61 -11q-55 0 -90 30t-60 82q-30 61 -89 89t-149 28q-68 0 -119.5 -19.5 t-91 -53.5t-66 -80.5t-45 -100.5t-28.5 -112.5t-16 -115.5q37 34 82 62t96 47.5t104.5 30t109.5 10.5q139 0 246 -45t181.5 -125t112.5 -188t38 -231q0 -69 -13 -140.5t-42.5 -139t-78 -128t-117 -106t-161.5 -72t-213 -26.5q-140 0 -242.5 38t-174 101.5t-116.5 148.5 t-69 180t-33.5 194t-9.5 192zM403 568q0 -73 21.5 -135.5t64 -106.5t103 -70t136.5 -26q74 0 133.5 26.5t99.5 71.5t60.5 106t20.5 129q0 72 -19 135t-57.5 111t-98 75.5t-139.5 27.5q-77 0 -138 -27t-102.5 -74t-63 -109.5t-21.5 -133.5z" />
<glyph unicode="7" horiz-adv-x="1415" d="M84 1610q0 63 41 99.5t104 36.5h969q30 0 56.5 -10.5t45 -30t30 -46t11.5 -56.5q0 -31 -12 -57.5t-32 -45.5q-84 -80 -160 -176t-141 -203t-120 -224.5t-98 -239t-73.5 -246t-46.5 -245.5q-7 -52 -20 -87.5t-34 -58.5t-50 -33t-69 -10q-49 0 -79.5 14.5t-48 40 t-22.5 58.5q-6 33 -3 69q10 111 37 228.5t69 234.5t97.5 232.5t122.5 224.5t143.5 209.5t160.5 187.5h-733q-63 0 -104 35.5t-41 98.5z" />
<glyph unicode="8" horiz-adv-x="1415" d="M61 528q2 141 71.5 250.5t196.5 173.5q-44 29 -77 68.5t-54.5 84.5t-31.5 95.5t-10 102.5q0 116 43 204.5t116.5 148t171.5 90t208 30.5q153 0 259 -40.5t172.5 -107t95.5 -151t29 -174.5q0 -59 -9 -109t-30 -93.5t-53 -80t-81 -65.5q63 -31 114.5 -75.5t87.5 -99 t56 -118t20 -134.5q0 -135 -52.5 -239.5t-140.5 -174.5t-203 -107t-242 -37q-135 0 -254 35t-208.5 105t-141 174.5t-53.5 243.5zM368 521q0 -71 26 -125t73.5 -90.5t111 -56t137.5 -19.5q72 0 132.5 21.5t105 59.5t69.5 92.5t25 119.5q0 59 -28 110.5t-74.5 89.5t-107 60 t-126.5 22q-68 0 -131 -20t-110.5 -56.5t-75 -89.5t-27.5 -118zM458 1293q0 -59 20.5 -102.5t56.5 -73t83 -44.5t98 -15q50 0 93 16t74 46t48 73.5t19 99.5q-2 54 -20 95.5t-49.5 68.5t-75.5 41.5t-97 14.5q-47 0 -93 -13.5t-81 -41t-56.5 -69t-19.5 -96.5z" />
<glyph unicode="9" horiz-adv-x="1415" d="M73 1164q0 69 13 140.5t43 139.5t78 128t117 105.5t162 72t213 26.5q140 0 241.5 -38t174 -101.5t117 -148.5t69.5 -180t33.5 -194.5t8.5 -191.5q0 -123 -13 -241t-44.5 -223.5t-82 -195t-126.5 -154t-179 -101.5t-236 -37q-91 0 -163.5 18t-127.5 47t-95 66.5t-66.5 76 t-40 76.5t-17.5 66q-6 35 2.5 63.5t28 48.5t46.5 30.5t61 10.5q27 0 48 -8.5t39 -23.5t33 -36q16 -20 30 -45q35 -55 95.5 -86t142.5 -31q68 0 119.5 20t90.5 54.5t66 81t45 99.5t28.5 110.5t14.5 116.5q-37 -34 -81 -62t-95 -47.5t-105.5 -30t-108.5 -10.5 q-139 0 -247 45.5t-181.5 126t-112 187.5t-38.5 230zM373 1183q0 -72 19.5 -135t58 -111t98 -75t139.5 -27q77 0 138.5 26.5t103 73.5t63 109.5t21.5 133.5q0 73 -22 135.5t-64.5 106.5t-102.5 70t-137 26q-75 0 -133.5 -26.5t-98.5 -71.5t-61.5 -106t-21.5 -129z" />
<glyph unicode=":" horiz-adv-x="723" d="M169 173q0 40 15 75t41.5 61t61.5 41.5t75 15.5t75 -15.5t61.5 -41.5t41.5 -61t15 -75t-15 -75t-41.5 -61.5t-61.5 -41.5t-75 -15t-75 15t-61.5 41.5t-41.5 61.5t-15 75zM169 1124q0 40 15 74.5t41.5 61t61.5 42t75 15.5t75 -15.5t61.5 -42t41.5 -61t15 -74.5t-15 -75 t-41.5 -61.5t-61.5 -41.5t-75 -15t-75 15t-61.5 41.5t-41.5 61.5t-15 75z" />
<glyph unicode=";" horiz-adv-x="723" d="M157 177q0 40 15 74.5t41.5 60t61 41.5t72.5 16q58 0 99.5 -21.5t69 -59.5t41.5 -89.5t14 -111.5q0 -107 -30 -189t-93 -155q-18 -20 -43.5 -43t-55 -41.5t-60 -31.5t-57.5 -13q-38 0 -56.5 18.5t-18.5 44.5q0 14 6.5 25.5t18 21.5t26.5 20t32 21q27 19 54.5 40t51 49.5 t40 70t22.5 101.5q-20 -15 -41 -20.5t-44 -5.5q-40 0 -70.5 15t-51.5 39.5t-32.5 56.5t-11.5 66zM169 1118q0 40 15 75t41.5 61.5t61.5 42.5t75 16t75 -16t61.5 -42.5t41.5 -60.5q15 -36 15 -76t-15 -74t-41.5 -60.5t-61.5 -41.5t-75 -15t-75 15t-61.5 41.5t-41.5 60.5 t-15 74z" />
<glyph unicode="&#x3c;" horiz-adv-x="1631" d="M129 681q0 40 22 73.5t56 47.5l1000 459q39 17 75 24.5t67 0t54 -28.5t33 -62q13 -45 -9.5 -86t-90.5 -71l-820 -357l820 -361q70 -30 91.5 -70t5.5 -88q-13 -38 -38 -58t-58 -25.5t-69.5 1.5t-70.5 23l-988 455q-35 15 -57.5 49t-22.5 74z" />
<glyph unicode="=" horiz-adv-x="1525" d="M106 425q0 54 39 85.5t104 31.5h1029q66 0 104.5 -32t38.5 -85q0 -55 -39 -87t-104 -32h-1029q-66 0 -104.5 32t-38.5 87zM106 917q0 54 39 86t104 32h1029q66 0 104.5 -32t38.5 -86q0 -55 -39 -86.5t-104 -31.5h-1029q-66 0 -104.5 32.5t-38.5 85.5z" />
<glyph unicode="&#x3e;" horiz-adv-x="1631" d="M196 1195q11 41 33.5 62t53 28.5t67 0t75.5 -24.5l999 -459q35 -16 57 -48.5t22 -72.5t-23 -74t-56 -49l-989 -455q-35 -16 -71.5 -23t-68.5 -1.5t-57.5 25.5t-38.5 58q-16 48 5.5 89t91.5 69l819 361l-819 357q-69 30 -91 70t-9 87z" />
<glyph unicode="?" horiz-adv-x="1471" d="M170 1271q16 113 65.5 205.5t126 158t178 101.5t221.5 36q124 0 228 -33.5t179 -95t117 -150.5t41 -199q0 -87 -23 -148.5t-57.5 -108t-76.5 -83t-81 -72.5q-34 -31 -68.5 -63.5t-61.5 -67.5t-44 -76q-16 -40 -16 -92v-2q0 -30 -11.5 -57.5t-31.5 -47.5t-46.5 -31.5 t-56.5 -11.5t-57 11.5t-47 31.5t-31.5 46.5t-11.5 58.5v22q0 73 23 129.5t58 103t75.5 85.5t77.5 74q30 30 62.5 59.5t59.5 64t45 76t18 95.5t-19.5 97t-53.5 73t-83.5 47t-108.5 17q-68 0 -119.5 -22.5t-88 -62t-59 -93t-29.5 -115.5q-4 -30 -19.5 -55.5t-38 -42t-51 -24.5 t-58.5 -4q-30 3 -55 19t-42 38.5t-25 50.5t-4 58zM575 174q0 38 14 72t38.5 58.5t57.5 39.5t70 15t70 -15t57.5 -39.5t38.5 -57.5q14 -35 14 -73q0 -37 -14 -70.5t-38.5 -58t-57.5 -39.5t-70 -15t-70 15t-57.5 39.5t-38.5 58t-14 70.5z" />
<glyph unicode="@" horiz-adv-x="2079" d="M123 899q0 128 34.5 245t96.5 219.5t148.5 185.5t191.5 142t226 91.5t251 32.5q117 0 226.5 -26.5t206 -74.5t176.5 -116.5t137.5 -153t89.5 -184.5t32 -210q0 -103 -28.5 -190.5t-76.5 -157.5t-111 -122t-133.5 -86t-143.5 -47.5t-142 -4.5q-46 6 -88 27q-41 23 -75 72 q-58 -45 -124 -75.5t-133 -30.5q-72 0 -132 27t-104.5 75.5t-68.5 114.5t-24 140q0 76 17 151t50 143t79.5 126.5t106 101t131 66.5t151.5 24q27 0 60 -7t65 -24t60 -46t45 -73l24 69q13 34 45 53q31 20 68 8q17 -5 31.5 -16.5t22.5 -27.5t9.5 -34t-3.5 -35l-160 -533 q-7 -26 -10.5 -51.5t-1 -47t15.5 -34.5t39 -13q51 0 107 34.5t103 94.5t78 140.5t31 176.5q0 145 -53 254t-141.5 183t-205 111.5t-245.5 37.5q-156 0 -287.5 -58.5t-229.5 -158.5t-153 -236t-55 -290q0 -102 26.5 -195.5t74.5 -173.5t115 -146t149.5 -113t176 -72 t194.5 -25q80 0 156 8.5t145.5 32t133.5 63t123 99.5q13 13 30 19.5t35 6.5t35 -6.5t30 -19.5t20 -31t6.5 -35.5t-7 -35t-20.5 -30.5q-73 -73 -152.5 -121.5t-166.5 -77.5t-180 -42t-190 -13q-135 0 -258.5 32t-230 90.5t-194 142.5t-149 187t-95 222t-33.5 252zM764 804 q0 -40 12 -73t34 -57.5t53.5 -38.5t68.5 -14q43 0 82.5 20t74 53.5t62 78t47.5 91.5t31 95t11 91q0 31 -11 62t-29.5 56t-45.5 40.5t-61 15.5q-51 0 -94.5 -19.5t-80.5 -51.5t-65.5 -75t-48.5 -89.5t-30 -94t-10 -90.5z" />
<glyph unicode="A" horiz-adv-x="1723" d="M67 120q0 13 3.5 31.5t8.5 36.5t11.5 35t12.5 32l538 1378q25 63 66.5 89.5t103.5 26.5h83q28 0 54.5 -4.5t51 -17t43 -36.5t32.5 -61l544 -1358q5 -15 11.5 -33.5t12.5 -37.5t10 -38t4 -33q0 -31 -12 -58.5t-32.5 -46t-50 -28.5t-63.5 -10q-62 0 -100 21t-55 66 l-153 416h-680l-153 -421q-16 -43 -51 -62.5t-93 -19.5q-31 0 -59 9.5t-47 27t-30 42t-11 54.5zM621 759h464l-234 641z" />
<glyph unicode="B" horiz-adv-x="1723" d="M173 154v1439q0 31 12 60t33.5 49.5t50 32.5t61.5 12h592q80 0 156.5 -9t144.5 -30.5t126 -56t99.5 -86.5t64.5 -123.5t23 -164.5q0 -47 -13.5 -98t-43 -99.5t-74 -90.5t-105.5 -71q73 -16 133.5 -56.5t104.5 -96.5t67 -125q24 -68 24 -142q0 -96 -34.5 -185.5t-108 -159 t-188.5 -111.5t-277 -42h-691q-31 0 -60.5 12t-51 33t-33.5 49q-12 29 -12 60zM488 260h530q72 0 127.5 21t93.5 53t58 75t20 89q0 73 -26.5 123t-73 80t-109.5 42.5t-136 12.5h-484v-496zM488 1022h416q90 0 151.5 21t98.5 54.5t53.5 77t16.5 92.5v9q0 50 -20 87 q-22 40 -61.5 67t-96 40t-124.5 13h-434v-461z" />
<glyph unicode="C" horiz-adv-x="1764" d="M93 867q0 128 25.5 246t75 220.5t123 186t170 143t217 91.5t261.5 32q120 0 226.5 -25t195.5 -76.5t158 -128.5t115 -179q13 -30 12.5 -60.5t-13 -58.5t-34 -50.5t-51.5 -33.5q-30 -13 -61.5 -13t-58.5 11.5t-49 33t-35 51.5q-56 137 -161 203t-248 66q-96 0 -174.5 -25 t-140 -68.5t-106.5 -104t-74.5 -131t-44.5 -150.5t-15 -162q2 -134 34.5 -254t100.5 -210.5t172.5 -142.5t250.5 -52q90 0 160.5 26.5t122 71.5t86 105t53.5 127q8 32 27.5 54.5t45 37t55.5 18t60 -6.5q32 -8 55.5 -27.5t38 -46t18 -57t-6.5 -60.5q-37 -121 -99.5 -213.5 t-152 -156.5t-206 -96.5t-260.5 -32.5q-220 0 -382.5 68.5t-271 189t-161.5 284.5t-53 356z" />
<glyph unicode="D" horiz-adv-x="1770" d="M173 154v1439q0 31 12 60t33.5 49.5t50 32.5t61.5 12h475q215 0 380 -51.5t278.5 -154t172.5 -258.5t59 -366q0 -221 -51.5 -391.5t-160.5 -287t-277 -177.5t-401 -61h-475q-31 0 -60.5 12t-51 33t-33.5 49q-12 29 -12 60zM488 260h336q37 0 93.5 6.5t118.5 27.5 t123.5 61t111.5 108.5t81.5 170.5t31.5 247q0 143 -30 255t-95.5 189.5t-171 117.5t-256.5 40h-343v-1223z" />
<glyph unicode="E" horiz-adv-x="1547" d="M173 154v1439q0 31 12 60t33.5 49.5t50 32.5t61.5 12h1021q28 0 53 -10.5t42.5 -28.5t28.5 -42t11 -51.5t-11 -51.5t-28.5 -42t-42.5 -28t-53 -10h-863v-446h790q28 0 53 -11t42.5 -28.5t28.5 -42t11 -51.5t-11 -51.5t-28.5 -42.5t-42 -28.5t-53.5 -10.5h-790v-511h863 q28 0 53 -10t42.5 -27t28.5 -41.5t11 -51.5t-11 -50.5t-28.5 -41.5t-42.5 -28t-53 -10h-1021q-31 0 -60.5 12t-51 33t-33.5 49q-12 29 -12 60z" />
<glyph unicode="F" horiz-adv-x="1445" d="M173 150v1443q0 31 12 60t33.5 49.5t50 32.5t61.5 12h947q27 0 52 -10.5t43 -28.5t28.5 -42t10.5 -51.5t-10.5 -51.5t-28.5 -42t-43 -28t-52 -10h-789v-446h672q27 0 52 -11t43 -28.5t28.5 -42t10.5 -51.5t-10.5 -51.5t-28.5 -42.5t-42.5 -28.5t-52.5 -10.5h-672v-621 q0 -31 -9 -62t-28 -54.5t-48.5 -37t-72.5 -13.5t-73 13.5t-49 37t-27 53.5t-8 63z" />
<glyph unicode="G" horiz-adv-x="1893" d="M83 867q0 128 25 246t74.5 220.5t123.5 186t170.5 143t216 91.5t262.5 32q123 0 232 -25t199 -76.5t159 -128.5t114 -180q13 -30 12 -61t-12.5 -58t-33.5 -49.5t-52 -33.5q-30 -13 -61.5 -13t-59.5 11.5t-49.5 33t-32.5 51.5q-53 140 -158 204.5t-262 64.5 q-96 0 -174 -25t-139.5 -68.5t-106.5 -104t-74.5 -131t-44.5 -150.5t-15 -162q2 -88 14 -172.5t39 -158.5t69.5 -134t104 -103.5t140 -67t179.5 -23.5q112 0 200.5 38.5t151.5 103t98 149.5t39 175h-446q-28 0 -52.5 10t-42.5 28t-28.5 41.5t-10.5 52.5q0 27 10.5 51 t28.5 42t42.5 29t52.5 11h601q27 0 52 -11t43.5 -29t29.5 -42t11 -51v-722q0 -25 -9.5 -46.5t-25 -37t-37 -25t-46.5 -9.5q-21 0 -41 7.5t-35 21t-26 30.5t-13 37l-28 153q-45 -60 -105 -109.5t-129.5 -83.5t-142 -52.5t-142.5 -18.5q-214 0 -375 68.5t-269 189 t-161.5 284.5t-53.5 356z" />
<glyph unicode="H" horiz-adv-x="1811" d="M173 152v1445q0 32 8 62.5t27 54t49 37.5t73 14t72.5 -14t48.5 -37.5t28 -54t9 -62.5v-560h838v560q0 32 8.5 62.5t27 54t48.5 37.5t73 14t73 -14t48.5 -37.5t27 -54t8.5 -62.5v-1445q0 -32 -8.5 -62.5t-27 -54.5t-48.5 -38t-73 -14t-73 14t-48.5 38t-27 54t-8.5 63v619 h-838v-619q0 -32 -9 -62.5t-28 -54.5t-48.5 -38t-72.5 -14t-73 14t-49 38t-27 54t-8 63z" />
<glyph unicode="I" horiz-adv-x="709" d="M197 152v1444q0 31 8.5 62t27.5 54.5t49 38t73 14.5t73 -14.5t48.5 -38t27 -53.5t8.5 -63v-1444q0 -32 -8.5 -62.5t-27 -54.5t-48.5 -38t-73 -14t-73 14t-49 38t-27.5 54t-8.5 63z" />
<glyph unicode="J" horiz-adv-x="1288" d="M33 449q0 92 39.5 146t119.5 54q41 0 72 -13.5t50 -38.5t28.5 -60t9.5 -78q0 -49 13 -91.5t40.5 -74t71.5 -49.5t104 -18q55 0 97.5 14.5t69.5 46.5t41.5 85.5t14.5 130.5v1093q0 31 8.5 62t27 54.5t48.5 38t73 14.5t73 -14.5t48.5 -38t27 -53.5t8.5 -63v-1098 q0 -126 -33.5 -225t-101.5 -167.5t-169.5 -105.5t-238.5 -37q-112 0 -195 23.5t-143 62t-99 88.5t-63 104t-33 108t-9 100z" />
<glyph unicode="K" horiz-adv-x="1660" d="M173 150v1453q0 34 11.5 63.5t32 51.5t49.5 34.5t64 12.5t64 -12.5t49 -34.5t32.5 -52t12.5 -63v-636l779 758q21 20 47.5 30t54.5 9t53 -11t47 -31q20 -22 30 -47.5t9 -53t-12.5 -53t-32.5 -45.5l-522 -488l611 -815q18 -26 25 -54.5t2 -57t-20.5 -54t-41.5 -44.5 q-26 -17 -55 -24t-57.5 -2t-55 20t-45.5 40l-579 780q-63 -56 -118.5 -112.5t-118.5 -113.5v-448q0 -31 -9 -62t-28 -54.5t-48.5 -37t-72.5 -13.5t-73 13.5t-49 37t-27 53.5t-8 63z" />
<glyph unicode="L" horiz-adv-x="1368" d="M173 154v1449q0 31 10.5 60.5t31 52.5t49.5 36t66 13q35 0 64 -13t50 -36t32.5 -52.5t11.5 -60.5v-1343h739q27 0 52 -10t43 -27t28.5 -41.5t10.5 -51.5t-10.5 -50.5t-28.5 -41.5t-42 -28t-53 -10h-897q-31 0 -60.5 12t-51 33t-33.5 49q-12 29 -12 60z" />
<glyph unicode="M" horiz-adv-x="2173" d="M172 143v1399q0 47 16 86t46.5 66.5t71.5 43t93 15.5q80 0 133.5 -40.5t79.5 -105.5l476 -1282l444 1274q24 70 83.5 112t144.5 42q55 0 99 -17t76.5 -46.5t50 -71.5t17.5 -92v-1383q0 -31 -8.5 -61.5t-27.5 -54.5t-49 -37.5t-73 -13.5t-73 13.5t-48.5 37.5t-27.5 54.5 t-9 61.5v1091l-437 -1161q-19 -49 -63 -73t-100 -24t-99 23q-41 22 -61 74l-439 1161v-1091q0 -31 -9 -61.5t-28 -54.5t-48.5 -37.5t-72.5 -13.5t-73 13.5t-49 37.5t-27.5 54.5t-8.5 61.5z" />
<glyph unicode="N" horiz-adv-x="1823" d="M173 142v1415q0 45 13 82.5t39.5 66.5t66.5 46t96 17q52 0 103 -23.5t82 -72.5l763 -1230v1157q0 85 41.5 127t115.5 42t115.5 -42t41.5 -127v-1400q0 -107 -52 -165t-148 -58q-41 0 -75 10t-61.5 27t-49.5 40q-20 23 -37 49l-739 1188v-1149q0 -85 -41.5 -125 t-116.5 -40q-74 0 -115.5 41t-41.5 124z" />
<glyph unicode="O" horiz-adv-x="1910" d="M73 874q0 120 24.5 233.5t73 215t121.5 187.5t170 146.5t219.5 95t271 34.5t271.5 -34.5t221 -95t171.5 -146.5t123 -187.5t74 -216t24.5 -232.5q0 -120 -24.5 -234t-74 -214t-123 -185t-171.5 -145t-221.5 -93.5t-271 -33.5t-270.5 33.5t-220 93.5t-170 145t-121.5 185 t-73 214t-24.5 234zM388 874q0 -80 14 -159.5t42.5 -152.5t73.5 -133.5t108 -106.5t144 -71t182 -25q103 0 184.5 25t145.5 71t109.5 106.5t75 133.5t43 151.5t13.5 160.5q0 80 -13.5 160t-43 152t-75 134.5t-109.5 108t-145.5 71.5t-184.5 26q-101 0 -182 -26t-144 -71.5 t-108 -108t-73.5 -134.5t-42.5 -152t-14 -160z" />
<glyph unicode="P" horiz-adv-x="1631" d="M173 144v1449q0 31 12 60t33.5 49.5t50 32.5t61.5 12h644q146 0 256.5 -35.5t185.5 -103.5t113 -167.5t38 -226.5q0 -126 -38 -224t-113 -166q-76 -68 -186 -104q-102 -33 -233 -32h-23h-486v-544q0 -31 -11.5 -60.5t-32.5 -52t-49.5 -35.5t-64.5 -13q-37 0 -66 13 t-49.5 35.5t-31 52t-10.5 60.5zM488 948h404h15q172 0 259 66q91 70 91 200q0 132 -91 200.5t-274 68.5h-404v-535z" />
<glyph unicode="Q" horiz-adv-x="1910" d="M70 874q0 120 24.5 233.5t73.5 215t122 187.5t171 146.5t220.5 95t269.5 34.5q149 0 272 -34.5t221.5 -95t171.5 -146.5t121.5 -187.5t72 -216t23.5 -232.5q0 -113 -21.5 -221t-64 -204.5t-108 -179t-153.5 -145.5l106 -121q17 -20 23.5 -43t4 -46t-14.5 -45t-33 -39 q-20 -17 -43 -25t-46 -7.5t-45 10.5q-22 12 -39 32l-149 170q-67 -20 -141.5 -30.5t-157.5 -10.5q-147 0 -269.5 33.5t-220.5 93.5t-171.5 145t-122 185t-73 214t-24.5 234zM385 874q0 -80 13.5 -159.5t42.5 -152.5t75 -133.5t109 -106.5t143.5 -71t181.5 -25q57 0 108 7 l-97 113q-17 20 -25 43.5t-5 48t16 46.5t34 41q20 17 43.5 25.5t48 8t47.5 -11.5t40 -31l144 -176q56 46 97.5 106t67 129.5t38 145.5t12.5 153q0 80 -14 160t-43 152t-74 134.5t-108 108t-145.5 71.5t-184.5 26t-182 -26t-143.5 -71.5t-109 -108t-74.5 -134.5t-42.5 -152 t-13.5 -160z" />
<glyph unicode="R" horiz-adv-x="1723" d="M173 144v1449q0 31 12 60t33.5 49.5t50 32.5t61.5 12h691q137 0 244.5 -32t182 -93.5t113 -149.5t38.5 -201q0 -98 -28 -175.5t-76 -133t-112.5 -91.5t-135.5 -52q51 -25 89 -53t66.5 -62.5t48.5 -77.5t35 -97q20 -70 33.5 -119.5t22 -82t14.5 -52.5t11 -36t9 -29t10 -31 q10 -29 8.5 -58t-13 -54.5t-32 -45.5t-50.5 -30q-29 -11 -57.5 -9.5t-53.5 13t-44.5 32t-30.5 49.5q-13 30 -28 68t-28 83l-77 276q-13 42 -34 80.5t-56 68t-89 47t-130 17.5h-383v-572q0 -31 -11 -60.5t-31.5 -52t-50 -35.5t-65.5 -13q-37 0 -66 13t-49.5 35.5t-31 52 t-10.5 60.5zM488 974h436q71 0 137 11.5t116 41.5q49 29 79 81q28 48 28 120v10v12q0 48 -14 88q-16 46 -51 77.5t-89 49.5q-55 18 -126 18h-516v-509z" />
<glyph unicode="S" horiz-adv-x="1631" d="M79 482q-3 30 5.5 58.5t26.5 50t43 34.5t55 16q30 1 57 -7t50 -23.5t39.5 -40.5t23.5 -61q11 -60 43.5 -112t84.5 -90t124.5 -61t165.5 -26h10q79 0 149 14q74 16 130.5 47t89 74.5t34.5 97.5v9q0 84 -52 151q-55 71 -170 103q-56 16 -113 28t-115 24.5t-116.5 25.5 t-112.5 30q-123 37 -201 87t-122.5 109.5t-61 125t-16.5 132.5q0 83 26 152.5t71.5 124.5t107 97.5t134 71t151.5 43.5t161 18h13q62 -1 126 -9q72 -10 141.5 -32t133 -57t116.5 -85t93 -115q37 -64 57 -144q9 -30 2 -58.5t-25.5 -50t-47.5 -34.5t-63 -13h-9q-63 -1 -95 27 q-35 30 -52 79q-21 63 -53.5 108t-79.5 74t-110 42q-58 12 -134 12h-12q-159 -5 -244 -67q-89 -65 -89 -175q1 -52 27 -89q28 -38 72.5 -64t99 -43t104.5 -31l332 -70q130 -28 217.5 -81.5t138.5 -123.5q50 -69 72 -151q19 -72 18 -145v-20q-3 -116 -56 -211t-150 -163 q-96 -67 -234 -103q-121 -31 -267 -32q-21 0 -42 1q-125 3 -223.5 27.5t-174.5 62.5t-131 88.5t-91.5 107t-56.5 116.5t-25 119z" />
<glyph unicode="T" horiz-adv-x="1452" d="M14 1614q0 30 12.5 54.5t31.5 42.5t45.5 27t55.5 9h1138q27 0 53.5 -9t46.5 -27t32 -42.5t12 -54.5q0 -31 -12 -56t-32 -41.5t-46.5 -25t-53.5 -8.5h-419v-1334q0 -32 -8.5 -62.5t-27 -54t-48 -37.5t-72.5 -14t-73 14t-49 37.5t-28 54t-9 62.5v1334h-404q-29 0 -55.5 8.5 t-45.5 25.5t-31.5 42t-12.5 55z" />
<glyph unicode="U" horiz-adv-x="1837" d="M173 641v955q0 31 8 62t27 54.5t49 38t73 14.5t72.5 -14.5t48.5 -38t28 -53.5t9 -63v-955q0 -211 110.5 -313t333.5 -102q211 0 314.5 102t103.5 313v955q0 31 8.5 62t27 54.5t48.5 38t73 14.5t73 -14.5t48.5 -38t28 -53.5t9.5 -63v-955q0 -169 -48.5 -296.5 t-142.5 -211.5t-229.5 -126.5t-313.5 -42.5q-181 0 -322 40t-238 123t-148 210.5t-51 303.5z" />
<glyph unicode="V" horiz-adv-x="1554" d="M37 1606q-3 33 8 62t34 52q24 25 67 36q34 10 62 10q10 0 18 -2q34 -4 60 -19.5t43 -42t27 -58.5l423 -1265l428 1270q10 30 27 55.5t42 41.5t59.5 20t77.5 -9q40 -12 63.5 -33t33.5 -49t7 -59.5t-14 -65.5l-523 -1453q-13 -37 -32.5 -59t-46 -35t-58.5 -18t-72 -5t-73 5 t-59 18t-45 35.5t-32 58.5l-511 1445q-11 31 -14 64z" />
<glyph unicode="W" horiz-adv-x="2313" d="M43 1622q0 37 13.5 63.5t36.5 43.5t51.5 25.5t57.5 8.5q63 0 99 -30t54 -101l286 -1159l309 1144q8 33 21 59.5t35 46t55.5 30t85.5 10.5q58 0 96 -9t61 -28t36 -46t21 -64l312 -1151l295 1171q17 69 52.5 98t97.5 29q27 0 55 -8t49.5 -25t35 -43.5t13.5 -62.5 q0 -22 -4.5 -43.5t-11.5 -48.5l-383 -1392q-13 -44 -28.5 -74t-39.5 -48.5t-57.5 -27.5t-79.5 -9q-48 0 -81 10t-56.5 30t-38.5 51t-27 74l-319 1164l-324 -1173q-12 -43 -27.5 -73t-39 -48.5t-56 -26.5t-77.5 -8q-48 0 -80.5 10t-55 30t-37.5 50.5t-25 70.5l-364 1385 q-8 27 -12 49.5t-4 45.5z" />
<glyph unicode="X" horiz-adv-x="1441" d="M34 126q0 26 10 48.5t25 42.5l463 685l-425 621q-15 21 -24.5 45t-9.5 51q0 31 13 58.5t34.5 47.5t51.5 31t65 11q29 0 50.5 -7t37 -18.5t27 -25t18.5 -26.5l356 -556l375 561q7 11 17 24t25 23.5t36 17.5q22 7 48 7q33 0 61 -10.5t48.5 -30t32.5 -44.5t12 -55 q0 -25 -9 -47.5t-24 -43.5l-439 -638l464 -669q16 -23 25 -47q9 -25 9 -50q0 -32 -12 -59t-34.5 -48t-52.5 -32.5t-65 -11.5q-29 0 -50.5 8t-38 19.5t-28 25t-19.5 26.5l-385 581l-400 -585q-9 -12 -19.5 -25.5t-26.5 -24t-36 -18t-48 -7.5q-35 0 -62.5 11t-49 30t-34 45.5 t-12.5 58.5z" />
<glyph unicode="Y" horiz-adv-x="1560" d="M49.5 1614.5q-0.5 41.5 17 75t55 55t88.5 21.5q30 0 52.5 -5.5t40 -18t32 -29.5t28.5 -41l416 -694l425 698q14 23 28.5 39.5t31.5 28t38.5 17t50.5 5.5q23 0 50.5 -7t51.5 -24.5t39.5 -43.5t15.5 -67q0 -20 -7 -41t-20 -40l-545 -838v-556q0 -32 -8.5 -62.5t-27 -54 t-48.5 -37.5t-73 -14t-74 14t-50 37.5t-27.5 54t-8.5 62.5v553l-545 831q-26 40 -26.5 81.5z" />
<glyph unicode="Z" horiz-adv-x="1721" d="M116 163q0 40 16.5 71.5t40.5 60.5l995 1186h-808q-34 0 -64.5 9t-53.5 26t-36.5 42t-13.5 56q0 32 13.5 57.5t36.5 43t53.5 25t64.5 7.5h1090q30 0 56.5 -7t47 -24t32 -45t11.5 -71q0 -31 -12 -63.5t-35 -59.5l-1005 -1210h912q34 0 65.5 -9t54.5 -25.5t36.5 -41.5 t13.5 -58q0 -31 -13.5 -56.5t-36.5 -42.5t-54.5 -25.5t-65.5 -8.5h-1148q-46 0 -81.5 8t-60.5 27t-38 50.5t-13 77.5z" />
<glyph unicode="[" horiz-adv-x="687" d="M157 -297v1939q0 58 15 94.5t41 57.5t58 28.5t68 7.5h217q29 0 53 -5.5t42 -19t27.5 -35t9.5 -51.5t-9.5 -51.5t-27.5 -35t-42 -19.5t-53 -6h-113v-1870h113q29 0 53 -6.5t42 -20t28 -34.5q9 -19 9 -51q0 -30 -9.5 -52t-27.5 -35t-42 -19.5t-53 -6.5h-217q-34 0 -67 8 t-59 29t-41 58t-15 96z" />
<glyph unicode="\" horiz-adv-x="943" d="M23 1733q0 26 10.5 46.5t28.5 35t39.5 22.5t41.5 8q34 0 56.5 -9.5t36.5 -23t22 -30t14 -29.5l630 -1603q9 -20 15.5 -39t6.5 -38q0 -26 -11.5 -46.5t-28.5 -34t-38.5 -21.5t-41.5 -8q-35 0 -57.5 10t-37 23.5t-23 29t-12.5 30.5v-2l-631 1603q-7 19 -13.5 39t-6.5 37z " />
<glyph unicode="]" horiz-adv-x="687" d="M1 -375q0 60 36 86t95 26h113v1870h-113q-59 0 -95 25t-36 87q0 60 36 85.5t95 25.5h217q34 0 67 -7.5t58.5 -28.5t41.5 -57q15 -35 15 -95v-1939q0 -59 -15.5 -96t-41 -58t-57.5 -29t-68 -8h-217q-59 0 -95 26q-36 27 -36 87z" />
<glyph unicode="^" horiz-adv-x="1525" d="M167 806q-7 22 0 52q7 29 26 60l430 781q16 28 32 46t33.5 29t37 15t40.5 4q22 0 41.5 -4t37 -15t34 -29t32.5 -46l427 -781q20 -34 26.5 -64t-1 -52.5t-31.5 -34.5t-66 -12q-26 0 -47 3t-40 13t-35 27t-30 43l-348 639l-348 -638q-15 -25 -30 -42.5t-33 -27.5 t-38.5 -13.5t-46.5 -3.5q-45 0 -70.5 14.5t-32.5 36.5z" />
<glyph unicode="_" horiz-adv-x="1291" d="M9 -270q0 21 7 39.5t20 33t30 23t38 8.5h1081q22 0 40 -8.5t30.5 -23t19 -33t6.5 -39.5q0 -22 -6.5 -41t-19 -33.5t-30.5 -23t-40 -8.5h-1081q-21 0 -38 8.5t-30 23t-20 33.5t-7 41z" />
<glyph unicode="`" horiz-adv-x="790" d="M171.5 1757.5q-2.5 25.5 6.5 50t31 44.5q34 30 67 31.5t61.5 -14.5t53.5 -43t44 -51l146 -192q30 -40 35.5 -73t-4.5 -57t-33.5 -38.5t-53 -15t-62.5 13.5t-61 44l-177 196q-23 24 -37 51.5t-16.5 53z" />
<glyph unicode="a" horiz-adv-x="1368" d="M74 345v6q0 66 20 122q22 58 58.5 104t85.5 82t106.5 61t119.5 40.5t124 24.5q53 6 105.5 9.5t99 3.5t81.5 -1.5t54 -2.5v80q0 47 -21.5 81.5t-56.5 55.5t-80.5 32.5t-94.5 11.5q-46 0 -80 -7t-63.5 -20.5t-56.5 -35.5t-57 -54q-20 -19 -44.5 -31.5t-50.5 -17.5t-53 -1 t-53 21q-20 13 -34 34t-20.5 45t-3 50.5t17.5 54.5q35 62 89 106.5t123.5 73t150.5 42t169 13.5q62 0 124 -8.5t119.5 -28.5t107.5 -52t87 -78.5t58 -108.5q22 -62 22 -141v-656q0 -32 0.5 -58.5t5.5 -52.5q4 -28 -2.5 -55.5t-22 -49.5t-39.5 -36t-52 -19q-29 -4 -56 2.5 t-48.5 22t-36.5 39.5t-19 52q-3 16 -5 31t-5 32q-46 -56 -97 -93t-106 -59t-110.5 -31.5t-110.5 -9.5q-84 0 -165 22t-143 68t-101 117q-40 70 -40 168zM383 366q0 -37 16.5 -63.5t44.5 -43.5t65 -25t79 -8q91 0 156 23.5t105 59.5t59.5 77.5t19.5 78.5v151q-22 2 -48 2 t-54 -2q-58 -3 -118 -13.5t-118.5 -28.5t-104.5 -46.5t-74 -68.5t-28 -93z" />
<glyph unicode="b" horiz-adv-x="1508" d="M140 142v1504q0 34 10 63.5t31 51t48 32.5q26 12 60 12q33 0 61 -11.5t48 -33t31 -51t11 -63.5v-461q40 49 86 81t94.5 49.5t97 24.5t94.5 7q106 0 193.5 -26.5t156 -73.5t120 -111.5t85.5 -141t51.5 -162.5t17.5 -173q0 -143 -38 -268t-114.5 -218.5t-191.5 -148 t-271 -54.5q-52 0 -102 7t-98 25.5t-93 52.5t-88 87q0 -33 -10.5 -62.5t-30 -51t-47.5 -33.5q-29 -12 -63 -12t-62 12t-47.5 33.5t-29.5 51t-10 62.5zM428 659q0 -83 19 -159.5t62 -135t111 -94t168 -35.5q94 0 158 37t102.5 97.5t55 139.5t16.5 162q0 77 -19.5 150.5 t-61 132t-107 94.5t-160 36t-160.5 -38t-106.5 -98t-59 -136.5t-18.5 -152.5z" />
<glyph unicode="c" horiz-adv-x="1328" d="M70 633.5q0 148.5 39.5 276t117.5 221t196 145.5t275 52q96 0 179.5 -19t152 -57.5t119.5 -94.5t84 -129q5 -13 9 -28.5t4 -31.5q0 -31 -10 -57.5t-29 -46.5t-44.5 -31.5t-57.5 -11.5q-48 0 -84 28q-37 28 -60 66q-20 35 -48.5 60t-64.5 42t-74.5 25.5t-78.5 8.5 q-86 0 -148 -33.5t-101.5 -90t-57.5 -133t-18 -161.5q0 -77 22.5 -147t64.5 -122t103 -83.5t138 -31.5q54 0 95 12t73 34t58 52.5t47 64.5t57 55.5t77 21.5q30 0 56 -11.5t44 -30.5t28 -46.5t10 -58.5q0 -17 -4.5 -32t-11.5 -30q-32 -63 -80.5 -120t-114 -98.5t-148.5 -66.5 t-180 -25q-149 0 -266.5 48t-199.5 135t-125 209.5t-43 271z" />
<glyph unicode="d" horiz-adv-x="1508" d="M73 659q0 89 17 174t50.5 161.5t86 141t121 111.5t156 73.5t192.5 26.5q52 0 101.5 -8t97 -25.5t92.5 -49.5q45 -31 83 -79v461q0 34 10.5 63.5t30.5 51t47 32.5q26 12 60 12q33 0 61 -11.5t48 -33t31.5 -51t11.5 -63.5v-1504q0 -33 -11.5 -62.5t-30 -51t-46.5 -33.5 q-29 -12 -64 -12q-34 0 -62 12t-47 33.5t-29 51t-10 62.5q-45 -53 -91.5 -87t-93.5 -52.5t-96.5 -25.5t-100.5 -7q-156 0 -271 54.5t-191.5 148t-114.5 218.5t-38 268zM389 671q0 -83 16.5 -162t55 -139.5t102 -97.5t158.5 -37q98 0 167 35.5t111.5 94t62 135t19.5 159.5 q0 77 -18.5 153t-60 136t-106.5 98t-159.5 38t-159.5 -36t-107 -94.5t-61.5 -132t-19.5 -150.5z" />
<glyph unicode="e" horiz-adv-x="1368" d="M70 655q0 153 47 277.5t132.5 212.5t204.5 135.5t262 47.5q139 0 250.5 -48.5t190.5 -133.5t121.5 -197t42.5 -238q0 -45 -7.5 -74t-25 -46.5t-47.5 -25t-74 -7.5h-789q2 -68 28 -124t71.5 -97.5t110 -64.5t150.5 -23q46 0 87.5 8.5t76.5 24t62.5 36.5t47.5 45 q22 26 52 44.5t67 18.5q30 0 56 -11.5t44.5 -30.5t29 -45t10.5 -56q0 -23 -5 -42q-8 -19 -19 -37q-37 -55 -90.5 -99.5t-120 -75t-143 -46.5t-159.5 -16q-172 0 -297 51.5t-206.5 143t-121 218t-39.5 275.5zM383 769h629q-8 59 -28 115t-56 99.5t-91 69t-131 25.5 q-73 0 -129 -27t-96.5 -71.5t-64.5 -99.5t-33 -111z" />
<glyph unicode="f" horiz-adv-x="837" d="M27 1184q0 53 26.5 84.5t88.5 31.5h100v190q0 79 29 139t78.5 100t114 60.5t135.5 20.5q43 0 80 -8.5t66 -26.5t44.5 -45t15.5 -65q0 -21 -6.5 -39.5t-18.5 -33.5t-28 -23q-17 -9 -34 -9q-7 0 -16.5 1t-17.5 2q-10 1 -19.5 2.5t-23.5 1.5q-52 0 -75.5 -30.5t-23.5 -79.5 v-157h116q66 0 100 -29.5t34 -86.5t-34 -85t-100 -28h-113l-3 -951q0 -76 -41 -113.5t-109 -37.5q-69 0 -109.5 37.5t-40.5 113.5l1 951h-101q-62 0 -88.5 30t-26.5 83z" />
<glyph unicode="g" horiz-adv-x="1462" d="M70 645q0 74 12 154t41 156t76 144t116.5 119.5t162.5 80.5t214 29q100 0 187.5 -34t158.5 -117q2 70 38.5 106.5t104.5 36.5q73 0 109 -39q36 -37 36 -111v-1061q0 -139 -38 -255.5t-116.5 -201t-198.5 -131.5q-121 -47 -284 -47q-88 0 -167 17t-146 49t-119.5 79.5 t-86.5 105.5q-13 28 -14.5 55.5t6 53.5t24.5 47.5t44 34t55 13.5t54 -8.5t48.5 -27t40.5 -40.5q48 -63 118 -88q69 -25 158 -25q94 0 158.5 30.5t103.5 81.5t57 114.5t18 127.5v62q-40 -44 -83.5 -74.5t-88 -48t-91.5 -26.5q-46 -8 -94 -8q-155 0 -270 51.5t-191.5 138.5 t-114.5 205t-38 251zM378 646v-15q0 -61 14 -123q17 -69 54 -125.5t98 -92t150 -35.5q94 0 162 32.5t111 88.5t62 127.5t19 148.5q0 47 -8.5 96.5t-26.5 96t-45 87t-64 70.5t-85 49t-107 19q-91 0 -154 -34t-102.5 -91t-57.5 -134q-19 -79 -20 -165z" />
<glyph unicode="h" horiz-adv-x="1419" d="M140 142v1504q0 34 10 63.5t31 51t48 32.5q26 12 60 12q33 0 61 -11.5t48 -33t31 -51t11 -63.5v-486q39 43 84 75.5t92.5 54t94.5 32.5t91 11q142 0 234 -37.5t147 -102.5t76.5 -154t21.5 -194v-703q0 -35 -10.5 -64t-30 -50.5t-46.5 -33t-63 -11.5q-34 0 -62 11.5 t-47.5 33t-30 50.5t-10.5 64v722q0 97 -54 151q-52 55 -158 55q-83 0 -144.5 -27.5t-103 -73t-61.5 -107t-20 -130.5v-590q0 -35 -11 -64t-30 -50.5t-47 -33.5q-29 -11 -63 -11t-62 11.5t-47.5 33t-29.5 50t-10 64.5z" />
<glyph unicode="i" horiz-adv-x="629" d="M144 1622q0 34 14 65.5t36.5 54.5t54 36.5t67.5 13.5q34 0 65.5 -13.5t54.5 -36.5t36.5 -54.5t13.5 -65.5q0 -35 -13.5 -66.5t-36.5 -55t-54.5 -37t-65.5 -13.5t-66.5 13.5t-55 37t-36.5 55t-14 66.5zM164 142q0 -35 10 -64t29.5 -50.5t48 -33t63.5 -11.5q34 0 62 11.5 t47 33t30 50t11 64.5v1016q0 35 -11 64t-30 50.5t-47 33t-62 11.5q-35 0 -63.5 -11.5t-48 -33t-29.5 -50.5t-10 -64v-1016z" />
<glyph unicode="j" horiz-adv-x="629" d="M-50 -375q0 -74 46.5 -112.5t145.5 -38.5q94 0 156 29t99.5 78.5t52.5 116.5t15 143v1317q0 35 -11 64t-30 50.5t-47 33t-62 11.5q-35 0 -63.5 -11.5t-48 -33t-29.5 -50.5t-10 -64v-1350q0 -24 -15 -42.5t-39 -18.5h-49q-54 0 -82.5 -28.5t-28.5 -93.5zM144 1622 q0 34 14 65.5t36.5 54.5t54 36.5t67.5 13.5q34 0 65.5 -13.5t54.5 -36.5t36.5 -54.5t13.5 -65.5q0 -35 -13.5 -66.5t-36.5 -55t-54.5 -37t-65.5 -13.5t-66.5 13.5t-55 37t-36.5 55t-14 66.5z" />
<glyph unicode="k" horiz-adv-x="1301" d="M140 142v1504q0 34 9.5 63.5t28.5 51t47 33t62 11.5q35 0 63 -11.5t46.5 -33t28.5 -51t10 -63.5v-815l527 439q26 21 57 34.5t65 13.5q44 0 77 -25.5t48 -62.5t7 -78t-45 -71l-354 -289l380 -566q7 -10 19 -36t12 -63q0 -28 -11.5 -54.5t-30.5 -46.5t-45 -31.5t-56 -11.5 q-27 0 -48.5 5.5t-38 16.5t-27.5 23t-20 23l-368 550l-148 -121v-338q0 -35 -10 -64t-28.5 -50.5t-46 -33t-63.5 -11.5q-34 0 -62 11.5t-47 33t-28.5 50t-9.5 64.5z" />
<glyph unicode="l" horiz-adv-x="629" d="M164 142v1504q0 34 10 63.5t29.5 51t48 33t63.5 11.5q34 0 62 -11.5t47 -33t30 -51t11 -63.5v-1504q0 -35 -11 -64t-30 -50.5t-47 -33t-62 -11.5q-35 0 -63.5 11.5t-48 33t-29.5 50t-10 64.5z" />
<glyph unicode="m" horiz-adv-x="2152" d="M140 142v1019q0 70 36.5 114.5t106.5 44.5q34 0 61.5 -11.5t46 -33t28 -51t9.5 -63.5q72 89 164.5 127t205.5 38q54 0 107 -12.5t100 -36.5t87.5 -61.5t71.5 -85.5q74 91 169.5 143.5t212.5 52.5q107 0 193 -23t147.5 -71t94.5 -124q32 -76 32 -181v-785q0 -35 -10.5 -64 t-30 -50.5t-46.5 -33t-63 -11.5q-34 0 -62.5 11.5t-48 33t-29.5 50t-10 64.5v715q0 48 -9 86.5t-32 65t-62 41.5q-37 15 -97 15q-67 0 -121 -18.5t-91 -53.5t-55.5 -85.5t-18.5 -112.5v-653q0 -35 -11.5 -64t-30 -50.5t-46.5 -33.5q-29 -11 -64 -11q-34 0 -62 11.5t-47 33 t-29 50t-10 64.5v693q0 49 -9 92t-30 73.5t-58.5 47.5t-94.5 17q-56 0 -99.5 -14t-76.5 -37.5t-56 -52.5t-37 -59t-20 -58.5t-6 -48.5v-653q0 -35 -11 -64t-30 -50.5t-47 -33.5q-29 -11 -63 -11t-62 11.5t-47.5 33t-29.5 50t-10 64.5z" />
<glyph unicode="n" horiz-adv-x="1419" d="M140 142v1019q0 70 36.5 114.5t106.5 44.5q67 0 105 -41.5t40 -107.5v-18q34 40 73.5 72t85 54t98.5 34.5t117 12.5q142 0 234 -36.5t147 -101.5t76.5 -154.5t21.5 -195.5v-696q0 -35 -10.5 -64t-30 -50.5t-46.5 -33t-63 -11.5q-34 0 -62 11.5t-47.5 33t-30 50 t-10.5 64.5v719q0 97 -54 151q-52 53 -158 53q-83 0 -144.5 -26.5t-103 -73t-61.5 -107t-20 -130.5v-586q0 -35 -11 -64t-30 -50.5t-47 -33.5q-29 -11 -63 -11t-62 11.5t-47.5 33t-29.5 50t-10 64.5z" />
<glyph unicode="o" horiz-adv-x="1460" d="M70 648q0 144 41.5 268.5t124.5 216t207.5 143.5t288.5 52q163 0 287.5 -52t207.5 -143.5t126 -216t43 -268.5q0 -143 -43 -267t-126 -215.5t-207.5 -143.5t-287.5 -52q-164 0 -288.5 52t-207.5 143.5t-124.5 215.5t-41.5 267zM378 648q0 -103 27 -181t75 -130t113 -79.5 t139 -27.5q72 0 135.5 27.5t111.5 79.5t76.5 130t28.5 181q0 100 -28.5 178t-76.5 132t-111.5 83t-135.5 29q-74 0 -139 -29t-113 -83t-75 -132t-27 -178z" />
<glyph unicode="p" horiz-adv-x="1508" d="M140 -346v1504q0 33 10 62.5t29.5 51t47.5 33.5t62 12t62.5 -12t48 -33.5t30 -51t10.5 -62.5q43 53 88 86.5t93 52.5t98 25t102 6q156 0 271 -53.5t191.5 -147t114.5 -218.5t38 -268q0 -89 -17.5 -175t-51.5 -162.5t-85.5 -140.5t-120 -110.5t-156 -73t-193.5 -26.5 q-46 0 -94.5 6.5t-97 24t-94.5 48.5t-86 81v-459q0 -34 -11 -63.5t-31 -51t-47.5 -33t-61.5 -11.5t-60.5 11.5t-47.5 33t-31 51t-10 63.5zM428 641q0 -78 18.5 -153.5t59 -135.5t106.5 -98t160.5 -38t160 35.5t107 93.5t61 132.5t19.5 151.5q0 83 -16.5 161.5t-55 139.5 t-102.5 98t-158 37q-99 0 -167.5 -35.5t-111.5 -95t-62 -135t-19 -158.5z" />
<glyph unicode="q" horiz-adv-x="1508" d="M73 641q0 143 38 268t114.5 218.5t191.5 147t271 53.5q51 0 102.5 -7t101 -26t94.5 -52q46 -33 84 -85q0 33 10 62.5t29 51t47 33.5t62 12q35 0 63.5 -12t47 -33.5t30 -51t11.5 -62.5v-1504q0 -34 -11.5 -63.5t-31.5 -51t-47 -33t-62 -11.5q-33 0 -60 11.5t-47 33 t-30.5 51t-10.5 63.5v459q-40 -50 -86.5 -81t-94.5 -48.5t-97.5 -24t-95.5 -6.5q-105 0 -192.5 26.5t-156 73t-121 110.5t-86 140.5t-50.5 162.5t-17 175zM389 629q0 -77 19.5 -151.5t61.5 -132.5t107 -93.5t159.5 -35.5t159.5 38t106.5 98t60 135.5t18.5 153.5 q0 83 -19.5 158.5t-62 135t-110.5 95t-168 35.5q-95 0 -158.5 -37t-102 -98t-55 -139.5t-16.5 -161.5z" />
<glyph unicode="r" horiz-adv-x="886" d="M140 142v1016q0 70 36.5 114.5t106.5 44.5q34 0 60.5 -11.5t45.5 -33t28 -50.5t9 -64v-41q23 33 55 68.5t71 64t82.5 46.5t91.5 18q28 0 52 -8t44 -23.5t35 -36.5q12 -22 18 -51q6 -30 -0.5 -57.5t-23 -51.5t-39.5 -39q-24 -15 -56 -20q-95 -15 -156.5 -51t-97.5 -92.5 t-50 -133t-14 -172.5v-436q0 -35 -10 -64t-30 -50.5t-47.5 -33t-61.5 -11.5t-62 11.5t-47.5 33t-29.5 50t-10 64.5z" />
<glyph unicode="s" horiz-adv-x="1276" d="M59 319q0 30 11.5 56.5t30.5 46.5t46 31.5t57 11.5q46 0 79 -28q34 -28 57 -65t59 -63t76 -41t81.5 -21.5t76.5 -6.5t78.5 4.5t82 17.5t64.5 37t26 66q0 40 -21 67t-59 47t-89 34.5t-112 28.5q-57 13 -117 28t-118 37t-108.5 51.5t-89 70t-61 93t-22.5 119.5 q0 69 22.5 124.5t62.5 99t92 75t113 52.5q61 22 125 30q52 7 103 6h24q82 -1 159 -15.5t143.5 -42t117.5 -69t82 -96.5q9 -15 14 -33q5 -20 5 -40q0 -30 -11 -55t-28.5 -43.5t-41.5 -29t-52 -10.5q-43 0 -76.5 23.5t-56.5 53.5q-19 26 -47 43.5t-59.5 30t-65.5 19.5t-64 8 q-18 1 -36 1q-32 1 -61 -3q-45 -6 -79 -20.5t-53.5 -38t-19.5 -56.5q0 -31 23 -53.5t62 -39.5t91.5 -30.5t110.5 -26.5q128 -30 223 -64.5t158.5 -82t95.5 -113.5t32 -157q0 -83 -23.5 -146t-64 -109.5t-95.5 -78t-120 -50t-136.5 -26.5t-143.5 -8q-87 1 -170 18.5t-153 53 t-126 89t-90 126.5q-13 28 -14 62z" />
<glyph unicode="t" horiz-adv-x="819" d="M19 1178.5q0 55.5 26.5 87.5t86.5 32h84v252q0 76 40.5 114.5t109.5 38.5t109.5 -38t40.5 -115v-252h112q66 0 99.5 -30t33.5 -90t-34.5 -90.5t-98.5 -30.5h-112v-699q0 -49 23 -80.5t74 -31.5q22 0 41.5 3t37.5 3q23 0 38.5 -11.5t27 -29t16 -38.5t4.5 -41 q0 -38 -16 -67t-44.5 -48.5t-65 -29.5t-79.5 -10q-180 0 -268.5 81.5t-88.5 238.5v760h-84q-60 0 -86.5 33t-26.5 88.5z" />
<glyph unicode="u" horiz-adv-x="1427" d="M140 459v698q0 34 10 63.5t29.5 51t47.5 33.5t62 12t62.5 -12t48 -33.5t30 -50t10.5 -64.5v-721q0 -97 53 -150.5t159 -53.5q83 0 145 26.5t105 73t65 106.5q21 62 21 131v588q0 34 11 63.5t29.5 51t46.5 33.5t63 12t62.5 -12t47 -33.5t30 -50t10.5 -64.5v-1021 q0 -70 -37 -114.5t-107 -44.5q-34 0 -61.5 11.5t-46 33t-27.5 51t-9 63.5q-68 -77 -161 -121t-220 -44q-141 0 -234 36.5t-147.5 101.5t-76 154.5t-21.5 195.5z" />
<glyph unicode="v" horiz-adv-x="1202" d="M26 1184q3 40 21.5 68.5t49 46.5t69.5 22q44 6 75 -9.5t51 -38.5t30 -47q11 -25 15 -36l275 -817l266 822q3 12 11.5 33.5t25 41.5t43.5 35.5t70 15.5q37 0 70 -16.5t53 -45t25 -67.5q1 -9 1 -18q0 -32 -13 -69l-373 -1013q-12 -29 -24 -50.5t-33.5 -35t-53 -20 t-78.5 -6.5t-78.5 7t-53 20.5t-34.5 35t-24 50.5l-372 1002q-14 42 -14 77v12z" />
<glyph unicode="w" horiz-adv-x="1857" d="M46 1098q-15 47 -15 85q0 43 18 73q35 58 138 65q46 3 75.5 -12.5t47 -38t25.5 -46t11 -36.5l212 -763l191 778q6 27 19 48.5t34.5 37t53.5 24.5q31 8 76 8t77 -8.5t53.5 -23.5t34.5 -36.5t20 -48.5l201 -779l211 770q3 13 10.5 35.5t25 44t45 35.5t69.5 11q53 -5 86 -23 t48 -46t15 -63.5t-13 -75.5l-325 -1026q-9 -27 -21.5 -47t-33.5 -33.5t-51.5 -20t-75.5 -6.5t-76.5 7t-51.5 20.5t-32.5 33.5t-19.5 46l-200 755l-190 -755q-7 -27 -20 -47.5t-34.5 -34.5t-53.5 -19.5t-78 -5.5q-47 0 -79.5 6.5t-53 20t-33.5 33.5t-20 47z" />
<glyph unicode="x" horiz-adv-x="1221" d="M42 130q1 42 32 82l358 440l-350 432q-13 17 -23 37t-10 43q0 24 9 50.5t28.5 49.5t48.5 38t71 15q34 0 67 -19.5t66 -59.5l274 -363l269 358q39 48 70.5 68t71.5 19q54 -3 87.5 -28t47.5 -62t6.5 -78.5t-35.5 -77.5l-339 -416l354 -433q28 -35 33.5 -77t-9.5 -78.5 t-50 -61.5t-88 -25q-20 0 -38.5 4t-36.5 15t-36.5 30t-41.5 48l-269 356l-283 -376q-31 -40 -60.5 -59.5t-61.5 -19.5q-48 0 -86 21t-58 54t-18 74z" />
<glyph unicode="y" horiz-adv-x="1234" d="M34 1161q-1 42 11 71t32 48.5t46.5 28t53.5 9.5q45 2 73.5 -13t45.5 -35t25.5 -41.5t13.5 -33.5l296 -822l281 827q3 11 11.5 32t25 40t44 32.5t69.5 13.5q26 -1 52 -9.5t45 -26.5t30.5 -46t10.5 -68q-2 -15 -8.5 -38t-13.5 -43l-482 -1270q-38 -97 -79.5 -163t-90 -105 t-107.5 -56.5t-133 -17.5q-54 0 -93 12.5t-64 33t-36 47t-11 56.5q0 66 41 98t107 32h32q23 0 44 1.5t37.5 7t30.5 17t22 33.5l80 201l-420 1063q-9 20 -14.5 45t-7.5 39z" />
<glyph unicode="z" horiz-adv-x="1349" d="M87 114q0 40 16 71.5t36 56.5l690 796h-544q-23 0 -47.5 8.5t-44 25t-31.5 41.5t-12 57q0 31 12 55.5t31.5 41t43 24t48.5 7.5h846q59 0 89 -34t30 -94q0 -25 -13.5 -55t-36.5 -55l-697 -801h615q25 0 47.5 -8t40 -24.5t28 -40.5t10.5 -56q0 -31 -11.5 -56t-29.5 -41.5 t-40 -24.5t-45 -8h-895q-31 0 -57 9.5t-43 25.5t-26.5 36.5t-9.5 42.5z" />
<glyph unicode="{" horiz-adv-x="863" d="M44 674q0 17 6 34t18 30.5t30 21.5t44 8q30 0 57.5 5.5t50.5 26.5t37.5 61t14.5 109v546q0 163 76.5 238.5t230.5 75.5h156q19 0 36.5 -7.5t31.5 -22t21.5 -34t7.5 -41.5q0 -28 -7.5 -48.5t-21.5 -35t-31.5 -22t-36.5 -7.5h-37q-34 0 -60 -4.5t-44.5 -18t-28 -42 t-9.5 -76.5v-504q0 -78 -18.5 -130t-48.5 -85.5t-65 -51.5t-68 -29q32 -12 67.5 -30t65 -51.5t48.5 -85.5t19 -129v-502q0 -49 9.5 -77t28 -42t45 -18.5t59.5 -4.5h37q19 0 36.5 -7t31.5 -22t21.5 -36t7.5 -46.5t-7.5 -45.5t-21.5 -33.5t-31.5 -21t-36.5 -7.5h-156 q-156 0 -231.5 76t-75.5 239v548q0 68 -14.5 108t-37.5 61t-51.5 26.5t-56.5 5.5q-26 0 -44 8.5t-30 22.5t-18 31t-6 36z" />
<glyph unicode="|" horiz-adv-x="584" d="M169 -430v2299q0 26 10 46.5t26.5 36.5t39 24.5t48.5 8.5t49 -8.5t39.5 -24.5t26.5 -37.5t10 -45.5v-2299q0 -26 -10 -47t-26.5 -36t-39.5 -23.5t-49 -8.5t-48.5 8.5t-39 23.5t-26.5 36.5t-10 46.5z" />
<glyph unicode="}" horiz-adv-x="863" d="M1 -380q0 27 8 47t21.5 35t31.5 22t37 7h37q34 0 60.5 4.5t44.5 18.5t27 42t9 77v502q0 77 19.5 129t49 85.5t65 52.5t67.5 29q-33 11 -68 29t-64.5 51.5t-49 85.5t-19.5 130v504q0 49 -9 77t-27 41.5t-44.5 18t-60.5 4.5h-37q-19 0 -37 7.5t-31.5 22t-21.5 35t-8 48.5 q0 22 8 41.5t21.5 34t31.5 22t37 7.5h156q155 0 231 -75.5t76 -238.5v-546q0 -69 13.5 -109t36.5 -61t52.5 -26.5t59.5 -5.5q25 0 43 -8t29.5 -21.5t17 -30.5t5.5 -34q0 -18 -5.5 -35.5t-17 -31.5t-30 -22.5t-42.5 -8.5q-30 0 -59.5 -5.5t-52.5 -26.5t-36.5 -61t-13.5 -108 v-548q0 -163 -76 -239t-231 -76h-156q-19 0 -37 7.5t-31.5 21t-21.5 33.5t-8 46z" />
<glyph unicode="~" horiz-adv-x="1525" d="M194 575q12 77 43.5 135.5t74.5 97.5t95 58t106 19q58 0 105 -13.5t87.5 -35t77 -46t71.5 -45.5t70.5 -35t75.5 -14q52 0 78 30t35 86q2 20 12 38t24.5 30t34 20t39.5 8q24 0 45.5 -10.5t37 -28.5t23 -41t4.5 -47q-12 -77 -42.5 -136t-75 -97.5t-96.5 -58.5t-105 -20 q-59 0 -107 14.5t-88.5 34.5t-76.5 45t-70 45t-70 34t-77 14q-39 0 -68 -29t-41 -85q-3 -20 -13 -37t-25 -30t-33.5 -21t-38.5 -8q-24 0 -46.5 11.5t-38 28.5t-23.5 40t-4 49z" />
<glyph unicode="&#xa2;" horiz-adv-x="1379" d="M113 874q0 131 34.5 243.5t101.5 197t168.5 137t237.5 65.5v172q0 27 19.5 44t42 17t42 -16.5t19.5 -44.5v-167q99 -8 179.5 -35.5t139 -69t90 -93t31.5 -104.5q0 -32 -11.5 -57t-30.5 -40.5t-45 -24t-54 -8.5q-23 0 -40 6.5t-31 17t-24.5 24t-21.5 29.5q-13 17 -27 35.5 t-33 36t-48.5 30t-73.5 19.5v-782q41 9 69 22.5t47.5 30.5t33.5 36.5t27 37.5t26 34.5t28.5 29t36.5 20t48 7.5t50.5 -9.5t39.5 -25t25 -35.5q9 -19 9 -42q0 -49 -25.5 -104.5t-80 -103.5t-137.5 -83t-197 -44v-181q0 -29 -19.5 -45.5t-42.5 -16.5q-11 0 -21.5 4.5 t-19.5 12.5t-14.5 19.5t-5.5 25.5v181q-140 9 -242.5 57.5t-169 127.5t-98.5 184t-32 228zM412 874q0 -70 15.5 -130t46.5 -107.5t76.5 -79t104.5 -45.5v772q-47 -13 -90.5 -43t-78 -79t-54.5 -120.5t-20 -167.5z" />
<glyph unicode="&#xa3;" horiz-adv-x="1480" d="M64 126q0 37 19.5 65.5t49.5 43.5q56 25 101.5 62.5t78.5 83t50 98.5t17 109q2 20 -1.5 43t-11 45.5t-16.5 45t-21 40.5h-138q-48 0 -77 22.5t-29 70.5q0 43 23 68t65 25h46q-37 69 -61.5 148t-22.5 178q0 80 23 149.5t63.5 126t97 101t124.5 75t144.5 45.5t156.5 15 q130 0 236 -30.5t184.5 -93.5t128 -159t66.5 -227q4 -32 -5 -61.5t-30 -53t-49.5 -37.5t-62.5 -14q-28 0 -52 9t-43.5 25.5t-33 38.5t-17.5 48q-23 153 -97.5 230.5t-210.5 77.5q-68 0 -126 -21t-99.5 -57.5t-65 -87t-23.5 -109.5q0 -44 8.5 -86.5t23.5 -81.5t33.5 -76.5 t40.5 -71.5h341q45 0 67.5 -25t22.5 -68q0 -47 -24 -70t-64 -23h-245q10 -30 17.5 -65t7.5 -66q1 -53 -10.5 -102t-31.5 -93t-48 -83.5t-56 -73.5q23 6 43.5 8.5t44.5 2.5q59 0 114 -12t107 -26.5t103 -26.5q52 -12 101 -12q59 0 114.5 8.5t111.5 28.5q20 7 40 7 q24 0 45.5 -8.5t37.5 -25t25 -38t9 -45.5q0 -33 -17 -59.5t-44 -40.5q-42 -23 -86 -37t-89 -21.5t-91 -9.5q-47 -2 -93 -2q-57 0 -125 11.5t-139 25.5t-139.5 26.5t-125.5 12.5q-69 1 -131 -7.5t-127 -27.5q-8 -2 -16.5 -3t-17.5 -1q-26 0 -46.5 9.5t-37 26t-26 38 t-9.5 45.5z" />
<glyph unicode="&#xa5;" horiz-adv-x="1474" d="M62 1625q1 42 24 74.5t64.5 50t94.5 17.5q31 0 55.5 -10.5t41.5 -26t27.5 -32t15.5 -28.5l353 -658l352 660q5 11 16 27t28 31.5t41.5 27t55.5 11.5q55 0 96.5 -19.5t63.5 -51.5t21 -74q1 -41 -28 -87l-349 -562h186q16 0 30.5 -5.5t25 -15.5t17 -23.5t6.5 -31.5 q0 -15 -6.5 -28.5t-16.5 -24.5t-24.5 -16.5t-31.5 -5.5h-276l-43 -69v-86h319q17 0 32 -6.5t25 -17t16 -23.5t6 -27t-6 -27t-16 -24.5t-25 -18t-32 -6.5h-319v-379q0 -73 -42.5 -118t-121.5 -45t-122.5 45t-43.5 118v379h-319q-36 0 -56.5 23t-20.5 53t22 52t55 22h319v86 l-41 69h-278q-34 0 -55.5 22.5t-21.5 52.5q0 32 21.5 54t55.5 22h187l-348 562q-31 46 -30 88z" />
<glyph unicode="&#xa9;" horiz-adv-x="1990" d="M59 882q0 130 34 249t95 222t146.5 187t189.5 143.5t222.5 92t245.5 32.5q128 0 246 -32.5t221 -92t188.5 -143.5t146.5 -187t94.5 -222t33.5 -249q0 -133 -33.5 -253.5t-94.5 -223.5t-146.5 -186t-188.5 -141.5t-222 -90t-245 -31.5q-127 0 -245.5 31.5t-222.5 90 t-189.5 141.5t-146.5 186t-95 223t-34 254zM275 882q0 -160 53.5 -296.5t148.5 -236.5t226.5 -156.5t288.5 -56.5q102 0 193.5 25.5t171.5 73t145 114.5t111.5 149.5t71.5 179.5t25 204q0 108 -25 204.5t-71.5 178.5t-111.5 148t-145 112.5t-172 71.5t-193 25 q-155 0 -287.5 -55t-227.5 -154t-148.5 -235t-53.5 -296zM498 877q0 117 34 217t98.5 173.5t156 115t208.5 41.5q98 0 173.5 -27t128.5 -70t81 -95t28 -99q0 -28 -8.5 -47t-21 -30.5t-26 -17.5t-23.5 -6q-23 0 -38.5 6.5t-27 17.5t-19.5 24.5t-15 29.5q-13 25 -29.5 49.5 t-43.5 43t-65.5 29.5t-93.5 11q-63 0 -114.5 -24.5t-88 -70t-56.5 -113.5q-20 -65 -20 -151q0 -83 20 -151.5t57.5 -116.5t89.5 -75.5t117 -27.5q51 0 87.5 11.5t62 30t44.5 43t33 50.5q10 17 20 32t23 26.5t28.5 18.5t38.5 7q34 0 56.5 -22t22.5 -62q0 -27 -13 -61.5 t-36.5 -69t-59.5 -68t-81.5 -60t-102 -42t-123.5 -15.5q-113 0 -207 42t-159 115.5t-100.5 173t-35.5 214.5z" />
<glyph unicode="&#xab;" horiz-adv-x="1148" d="M73 695q0 46 19.5 88t56.5 66l243 178q16 11 33 20.5t41 9.5q19 0 34.5 -8t28 -22.5t18.5 -32t6 -37.5q0 -32 -18.5 -58.5t-46.5 -44.5l-233 -159l233 -159q27 -17 46 -43.5t19 -60.5q0 -19 -6 -36.5t-18.5 -31.5t-28 -22.5t-34.5 -8.5q-24 0 -42 10t-32 20l-243 176 q-37 26 -56.5 68t-19.5 88zM556 695q0 46 19.5 88t56.5 66l243 178q16 11 34 20.5t41 9.5q18 0 34 -8t28 -22.5t18.5 -32t6.5 -37.5q0 -32 -18.5 -58.5t-47.5 -44.5l-233 -159l233 -159q27 -17 46.5 -43.5t19.5 -60.5q0 -19 -6.5 -36.5t-18.5 -31.5t-28 -22.5t-34 -8.5 q-25 0 -43 10t-32 20l-243 176q-37 26 -56.5 68t-19.5 88z" />
<glyph unicode="&#xad;" horiz-adv-x="1185" d="M104 671q0 54 39.5 86t105.5 32h689q66 0 105.5 -32t39.5 -86q0 -55 -39.5 -86.5t-105.5 -31.5h-689q-66 0 -105.5 32.5t-39.5 85.5z" />
<glyph unicode="&#xae;" horiz-adv-x="1980" d="M59 882q0 130 34 249t95 222t146.5 187t189.5 143.5t222.5 92t245.5 32.5q128 0 246 -32.5t221 -92t188.5 -143.5t146.5 -187t94.5 -222t33.5 -249q0 -133 -33.5 -253.5t-94.5 -223.5t-146.5 -186t-188.5 -141.5t-222 -90t-245 -31.5q-127 0 -245.5 31.5t-222.5 90 t-189.5 141.5t-146.5 186t-95 223t-34 254zM275 882q0 -160 53.5 -296.5t148.5 -236.5t226.5 -156.5t288.5 -56.5q102 0 193.5 25.5t171.5 73t145 114.5t111.5 149.5t71.5 179.5t25 204q0 108 -25 204.5t-71.5 178.5t-111.5 148t-145 112.5t-172 71.5t-193 25 q-155 0 -287.5 -55t-227.5 -154t-148.5 -235t-53.5 -296zM633 492v761q0 25 9.5 44t24 31.5t33 19t38.5 6.5h314q82 0 147 -13.5t109.5 -47t68.5 -90t24 -139.5q0 -67 -20 -117t-53.5 -84.5t-76.5 -52.5t-88 -21l170 -227q14 -19 22.5 -39t9.5 -38.5t-8.5 -37t-29.5 -34.5 q-26 -20 -51 -24t-47 4.5t-42 25t-34 37.5l-236 333h-78v-297q0 -54 -29 -80t-72 -26q-22 0 -41 6.5t-32.5 20t-22.5 33t-9 46.5zM839 950h199q29 0 54.5 5t45 19t31.5 37.5t12 62.5q0 37 -12 60t-31.5 36t-45 18t-54.5 5h-199v-243z" />
<glyph unicode="&#xbb;" horiz-adv-x="1148" d="M113 432q0 33 18.5 59.5t45.5 44.5l235 159l-233 159q-29 18 -47.5 45.5t-18.5 57.5q0 20 6.5 37.5t18 32t28 22.5t34.5 8q23 0 41 -10q18 -9 34 -20l243 -178q37 -25 55.5 -66t18.5 -88q0 -46 -18.5 -88t-55.5 -68l-243 -176q-16 -11 -33 -20.5t-42 -9.5 q-18 0 -34.5 8.5t-28 22.5t-18.5 31q-6 17 -6 37zM596 432q0 33 19 59q17 27 46 45l234 159l-233 159q-29 18 -47.5 45.5t-18.5 57.5q0 20 6.5 37.5t18 32t28 22.5t35.5 8q22 0 40 -10q18 -9 34 -20l243 -178q37 -25 55.5 -66t18.5 -88q0 -46 -18.5 -88t-55.5 -68l-243 -176 q-16 -11 -33 -20.5t-41 -9.5q-19 0 -35.5 8.5t-28 22.5t-17.5 31q-7 17 -7 37z" />
<glyph unicode="&#xbc;" horiz-adv-x="2196" d="M176 1461q0 20 5.5 33t18.5 21.5t31 13.5t44 10l58 10q36 5 61 19t42 31t29.5 37t22.5 40q8 16 16.5 29.5t19.5 25t26.5 18.5t37.5 7q40 0 61.5 -18t21.5 -65v-818q0 -26 -5 -46.5t-17.5 -35t-33 -22t-53.5 -7.5q-59 0 -84 30t-25 81v574q-48 -26 -102.5 -32.5 t-105.5 -6.5q-32 0 -50.5 17t-18.5 54zM600.5 45q-2.5 34 14.5 67l841 1588q8 16 20.5 29.5t27.5 22t33.5 9.5t38.5 -8q24 -11 35 -26t13 -33t-3 -36t-14 -34l-839 -1584q-9 -17 -22.5 -30.5t-29 -21t-35.5 -6.5t-43 12q-35 17 -37.5 51zM1243 307q0 32 5 49t13 27l458 558 q11 13 24 24.5t28 19t35 12.5t46 5q51 0 83.5 -25.5t32.5 -68.5v-533h75q32 0 51.5 -21.5t19.5 -54.5q0 -34 -19.5 -55.5t-51.5 -21.5h-75v-120q0 -19 -5 -39t-17.5 -36t-33 -26.5t-50.5 -10.5q-32 0 -52 10.5t-32.5 26.5t-17 36t-4.5 39v120h-410q-28 0 -46.5 7.5t-31 20.5 t-19 28t-6.5 29zM1419 375h337v419z" />
<glyph unicode="&#xbd;" horiz-adv-x="2196" d="M176 1461q0 20 5.5 33t18.5 21.5t31 13.5t44 10l58 10q36 5 61 19t42 31t29.5 37t22.5 40q8 16 16.5 29.5t19.5 25t26.5 18.5t37.5 7q40 0 61.5 -18t21.5 -65v-818q0 -26 -5 -46.5t-17.5 -35t-33 -22t-53.5 -7.5q-59 0 -84 30t-25 81v574q-48 -26 -102.5 -32.5 t-105.5 -6.5q-32 0 -50.5 17t-18.5 54zM538.5 45q-3.5 34 14.5 67l841 1588q9 16 21 29.5t27 22t33 9.5t39 -8q25 -11 35.5 -26t12.5 -33t-3 -36t-13 -34l-840 -1584q-8 -17 -21.5 -30.5t-29.5 -21t-36 -6.5t-43 12q-34 17 -37.5 51zM1328 106q0 37 17.5 74t57.5 79.5 t106 89.5q67 47 161 103q66 37 111 63.5t73 53t41 57t13 73.5q0 32 -16 57t-41 43t-58.5 28t-69.5 10q-70 0 -125 -34t-81 -105q-5 -17 -11.5 -30t-16 -22.5t-22.5 -13.5t-33 -4q-41 0 -69.5 18t-28.5 63q0 63 31.5 117.5t86.5 94t129 61.5q76 22 159 22q90 0 161.5 -24.5 t121 -66t75.5 -95.5t26 -112q0 -65 -16 -111t-46.5 -81t-74 -63t-99.5 -59q-77 -40 -130.5 -68.5t-90 -51.5t-59.5 -44t-37 -45h459q46 0 72.5 -23t26.5 -68q0 -52 -26 -72t-73 -20h-593q-29 0 -49.5 8.5t-34.5 23t-20.5 33.5t-6.5 41z" />
<glyph unicode="&#xbe;" horiz-adv-x="2196" d="M134 970q0 37 27.5 59.5t74.5 22.5q20 0 33.5 -5t23.5 -12t17 -17.5t15 -20.5q11 -17 23 -34.5t33 -31t51.5 -21.5t78.5 -8t84.5 12.5t61 32.5t36 45.5t11.5 55.5q0 27 -7.5 51t-24 42.5t-45.5 31.5q-29 11 -75 17q-14 1 -34 4.5t-39 11t-31 19.5t-12 32q0 26 8 42.5 t23.5 25.5t38 13.5t52.5 5.5q61 4 91 38t30 88q0 29 -12.5 50.5t-35 36.5t-51 22t-62.5 7q-40 0 -68 -7t-47.5 -19.5t-33.5 -28t-26 -31.5q-8 -11 -16 -20t-18 -16t-23.5 -12t-32.5 -5q-18 0 -36 4.5t-30.5 12t-20 21.5t-7.5 32q0 42 17 76t45 60t66 45t79.5 32t83.5 19.5 t81 6.5q102 0 173 -23.5t116 -61.5t66 -85t21 -97q0 -65 -38 -118.5t-114 -87.5q44 -12 77 -34t55 -52t33 -66t11 -73q0 -83 -33 -143t-89.5 -100.5t-133 -60.5t-162.5 -20q-108 0 -181 25.5t-116.5 62.5t-62.5 78t-19 70zM701 45q-3 34 14 67l841 1588q8 16 20.5 29.5 t27.5 22t33.5 9.5t38.5 -8q24 -11 35 -26t13 -33t-3 -36t-14 -34l-839 -1584q-9 -17 -22.5 -30.5t-29 -21t-35.5 -6.5t-43 12q-34 17 -37 51zM1260 307q0 32 5.5 49t14.5 27l456 558q11 13 24 24.5t29 19t35 12.5q21 5 46 5q52 0 83.5 -25.5t31.5 -68.5v-533h77 q32 0 50.5 -21.5t18.5 -54.5q0 -34 -18.5 -55.5t-50.5 -21.5h-77v-120q0 -19 -5 -39t-17 -36t-32.5 -26.5t-51.5 -10.5t-51 10.5t-32.5 26.5t-17.5 36t-5 39v120h-409q-27 0 -46.5 7.5t-32 20.5t-19 28t-6.5 29zM1436 375h337v419z" />
<glyph unicode="&#xd7;" horiz-adv-x="1281" d="M82 238q2 22 12 43t28 38l348 352l-348 350q-19 19 -29 41t-10.5 45t7 45t26.5 41q17 17 39 27.5t46.5 11.5t48 -8.5t45.5 -28.5l350 -358l352 358q20 21 42 30t45.5 9t46 -10t42.5 -29q20 -20 28.5 -43.5t7 -47t-12.5 -44.5q-9 -22 -26 -39l-351 -350l351 -352 q18 -19 27.5 -41.5t10 -46.5t-8.5 -46t-29 -41q-20 -20 -43 -29t-46.5 -7.5t-45 11.5t-40.5 28l-350 359l-350 -359q-20 -20 -44 -30.5t-48 -9t-47.5 12t-42.5 32.5q-17 20 -25 42t-6 44z" />
<glyph unicode="&#xf7;" horiz-adv-x="1488" d="M87 671q0 54 39.5 86t105.5 32h1024q65 0 104 -32t39 -86q0 -55 -40 -86q-38 -32 -103 -32h-1024q-66 0 -105.5 32.5t-39.5 85.5zM556 180q0 39 16 73t41 61.5t59 43t70 15.5q39 0 73 -15.5t60.5 -43t41.5 -62.5t15 -72q0 -34 -15 -67t-40 -58t-59 -40t-71.5 -15 t-71.5 14.5t-60.5 38.5t-42.5 57t-16 70zM556 1160q0 38 16 72.5t41 61t59 41.5t70 15q39 0 73 -15t60.5 -41.5t41.5 -61t15 -72.5q0 -37 -15 -71t-40 -59.5t-59 -40.5t-71.5 -15t-71.5 15t-60.5 40.5t-42.5 59.5t-16 71z" />
<glyph unicode="&#xe01;" horiz-adv-x="1580" d="M57 1094q3 20 19 56q34 74 90 144t137.5 123t191.5 85q108 31 251 31q132 0 235.5 -23.5t181.5 -67t131 -102.5t86 -129t48 -148q15 -79 15 -159v-790q0 -31 -12 -55.5t-33 -41.5t-49 -25.5t-59 -8.5q-32 0 -59 8.5t-47.5 25.5t-33 41.5t-12.5 55.5v816q0 62 -19 124.5 t-65 111t-121 79.5t-187 33q-91 2 -160.5 -19.5t-117.5 -53.5t-75 -69q-27 -35 -34 -66q47 -42 76.5 -111.5t29.5 -149.5v-695q0 -31 -11.5 -55.5t-32.5 -41.5t-48 -25.5t-58 -8.5q-32 0 -59 8.5t-48 25.5t-32.5 41.5t-11.5 55.5v698q0 40 -8.5 80t-32.5 78 q-23 31 -38.5 50.5t-23 36.5t-4.5 37z" />
<glyph unicode="&#xe02;" horiz-adv-x="1389" d="M16 1380q0 26 7.5 47.5t22 37.5t35.5 25.5t46 9.5h276q26 0 44.5 -8.5t32 -25t22.5 -38t14 -48.5l216 -1050l223 1076q6 30 23 54t41.5 38.5t54 19t59.5 -1.5q30 -7 55 -23.5t41.5 -40t22 -52.5t-1.5 -59l-260 -1174q-10 -41 -34.5 -76t-59.5 -58.5t-78 -36.5t-88.5 -13 t-88.5 13t-78 37t-59.5 58.5t-33.5 77.5l-243 1091h-100q-25 0 -46 9t-35.5 25.5t-22 39t-7.5 46.5z" />
<glyph unicode="&#xe03;" horiz-adv-x="1427" d="M76 1383.5q3 30.5 17 57t39 46.5q22 20 57 27q70 18 118.5 -9.5t67.5 -97.5q7 -26 24 -41q19 -15 41 -15q29 0 47 15t28 41q17 50 60 82.5t99 32.5q34 0 65.5 -14t54.5 -36.5t35.5 -54t12.5 -66.5v-161q0 -45 -14 -80.5t-40.5 -71.5t-64.5 -75t-90 -88q-35 -36 -61 -66.5 t-41.5 -60t-23.5 -61.5t-9 -72v-94q0 -71 18.5 -125t51.5 -90.5t78.5 -56t99.5 -19.5q52 0 95.5 14.5t76.5 46t51.5 82t18.5 125.5v879q0 32 12 57.5t32 45t47.5 29.5t58.5 10q32 0 59 -10t48 -29.5t32 -45t11 -57.5v-902q0 -132 -44 -227.5t-119 -158.5t-172.5 -94.5 t-206.5 -31.5q-110 0 -210 33t-177 98t-123 160t-46 221v70q0 91 7 152.5t28.5 108t60.5 86.5t102 89q20 16 42.5 31.5t42 34t35 41.5t24.5 52q-26 -16 -61.5 -21.5t-75.5 -5.5q-33 0 -76 6t-86.5 28.5t-83 64t-65.5 111.5q-11 30 -8 60.5z" />
<glyph unicode="&#xe04;" horiz-adv-x="1595" d="M140 123v745q0 84 12 166.5t41.5 156t79 136.5t122.5 108.5t172 71.5t231 26q130 0 229.5 -26t173 -71.5t122 -108.5t78.5 -136.5t43 -156t13 -166.5v-745q0 -31 -12 -57t-33 -44.5t-48.5 -28.5t-59.5 -10q-31 0 -58.5 10t-48 28.5t-32.5 44.5t-12 57v778q0 41 -7.5 85 t-24.5 84.5t-44 76.5t-66.5 62.5t-91.5 42t-121 15.5q-102 0 -170.5 -33.5t-110.5 -86.5t-59.5 -118t-17.5 -128v-202q60 87 132 138t170 67q27 4 53.5 -0.5t48 -17t37.5 -32.5t21.5 -47.5t2 -54t-16.5 -47.5t-34.5 -37t-48.5 -22q-103 -13 -173.5 -52t-113 -102.5 t-60.5 -149.5t-18 -192v-27q0 -31 -12 -57t-32.5 -44.5t-48 -28.5t-58.5 -10q-32 0 -59 10t-47 28.5t-31.5 44.5t-11.5 57z" />
<glyph unicode="&#xe05;" horiz-adv-x="1610" d="M140 123v786q0 95 16 187t57.5 171t113 139.5t181.5 93.5q17 6 37 10t40.5 3.5t42 -10t43.5 -30.5l134 -142l126 142q20 21 41.5 30.5t43.5 10t43.5 -4.5t40.5 -9q111 -31 183.5 -92.5t114.5 -140.5t57.5 -171t15.5 -187v-786q0 -31 -12 -57t-32 -44.5t-48 -28.5t-59 -10 q-32 0 -59.5 10t-47.5 28.5t-32.5 44.5t-12.5 57v789q0 40 -6.5 86t-20.5 89.5t-38.5 80t-60.5 55.5l-185 -195q-22 -21 -52.5 -22t-53.5 22l-195 195q-35 -19 -58 -54.5t-36 -78.5t-17.5 -89t-4.5 -89v-213q60 87 132 138t170 67q27 4 53.5 -0.5t48 -17t37.5 -32.5 t21.5 -47.5t2 -54t-16.5 -47.5t-34.5 -37t-48.5 -22q-103 -13 -173.5 -52t-113 -102.5t-60.5 -149.5t-18 -192v-27q0 -31 -12 -57t-32.5 -44.5t-48 -28.5t-58.5 -10q-32 0 -59 10t-47 28.5t-31.5 44.5t-11.5 57z" />
<glyph unicode="&#xe06;" horiz-adv-x="1591" d="M74.5 1383.5q2.5 30.5 17 57t39.5 46.5t58 27q70 18 118 -9.5t66 -97.5q7 -26 25 -41t41 -15q29 0 46.5 15t27.5 41q18 50 60.5 82.5t100.5 32.5q34 0 64.5 -14t53.5 -36.5t36.5 -54t13.5 -66.5v-158q0 -59 -18.5 -105t-48.5 -85t-69.5 -75t-79.5 -71q-37 -32 -61 -57.5 t-39 -54.5t-21.5 -66t-6.5 -94q0 -67 27 -130t78 -111.5t122.5 -78.5t159.5 -30q59 0 108 18.5t83.5 52.5t54 83t19.5 109v878q0 31 12 57.5t32 45t48 29.5t59 11q32 0 60 -11t48 -29.5t32 -45t12 -57.5v-853q0 -123 -26 -226t-87.5 -175.5t-164.5 -113.5t-257 -41 q-142 0 -249 47q-108 46 -186 146v-40q0 -30 -11.5 -55.5t-31.5 -43.5t-46 -28t-57 -10q-30 0 -57 10t-47 28t-31.5 43t-11.5 56v415q0 64 3 111.5t10 83.5t20 65.5t33 56t49.5 53.5t67.5 62q20 20 41.5 37t41 38.5t35 46t25.5 56.5q-27 -12 -57 -20t-64 -8q-30 0 -73 7 t-88 29t-85 63t-66 107q-11 30 -8.5 60.5z" />
<glyph unicode="&#xe07;" horiz-adv-x="1181" d="M86 799q3 28 16.5 51.5t35 42.5t51.5 28q27 11 55.5 10.5t53.5 -10.5t45 -30t30 -50l209 -564q11 -30 31 -43.5t46 -13.5q40 0 61.5 21.5t21.5 51.5v974h-119q-24 0 -44 9.5t-33.5 25t-21.5 36.5q-8 23 -8 46q0 25 8 45.5t21.5 36t33.5 25t44 9.5h312q25 0 45 -9.5 t33.5 -25t21 -37t7.5 -44.5v-1044q0 -100 -30 -171.5t-82 -117t-123 -67t-152 -21.5q-80 0 -141 20.5t-106.5 58.5t-78 90t-54.5 117l-181 493q-11 29 -8 57z" />
<glyph unicode="&#xe08;" horiz-adv-x="1448" d="M137 1183.5q3 29.5 19 57.5q77 138 223 213.5t356 75.5q70 0 141.5 -10t138 -34.5t125 -63t101.5 -96.5t66.5 -137t20.5 -182q-1 -88 -26.5 -193t-66 -218t-90.5 -229q-51 -115 -103 -227q-31 -73 -96 -115t-149 -42q-88 0 -153.5 40t-94.5 119l-186 524h-110 q-26 0 -46 9.5t-34 25t-22 37t-8 47.5t8 47.5t22 37t34 25t46 9.5h275q25 0 41.5 -8t28 -22.5t19.5 -32.5q6 -19 15 -42l166 -484q34 80 71.5 170t68 178.5t50.5 171.5t22 150q2 146 -74.5 219.5t-229.5 73.5q-105 0 -171 -41.5t-100 -133.5q-13 -31 -39 -49.5t-56 -27 t-62 -5t-58 18.5q-28 15 -47.5 37.5t-29 49.5t-6.5 56.5z" />
<glyph unicode="&#xe09;" horiz-adv-x="1580" d="M140 545v170q0 31 11.5 57t31.5 44.5t48 29.5q26 11 58 11q31 0 58.5 -11t48 -29.5t32.5 -44.5t12 -57v-199q0 -61 19.5 -112t56 -87.5t88.5 -55.5t117 -19q106 0 184.5 33.5t130.5 93t77 140t25 176.5v223q0 64 -17 128t-58.5 115.5t-112.5 83.5t-178 32 q-77 0 -134 -15.5t-98 -41t-66.5 -59t-40.5 -67.5q-13 -29 -35.5 -49t-50 -30t-58 -8.5t-59.5 15.5q-28 13 -49 36t-30 50t-8.5 57t13.5 59q31 69 85 127t129.5 100.5t175.5 67t226 24.5q133 0 235.5 -24.5t176.5 -69.5t123.5 -106.5t79.5 -134.5t43 -154.5t13 -165.5v-758 q0 -31 -12 -56t-32 -44t-47.5 -29t-57.5 -10q-31 0 -57.5 10t-46.5 29t-32.5 44t-12.5 56v49q-80 -108 -193 -157t-267 -49q-159 0 -263.5 43t-167 119.5t-88.5 183.5t-26 236z" />
<glyph unicode="&#xe0a;" horiz-adv-x="1412" d="M36.5 1378.5q2.5 21.5 12.5 40t25.5 33t37.5 22.5q37 13 72.5 22.5t67 15t56 8.5t39.5 3q85 0 154.5 -20t116.5 -61.5t69 -103t12 -145.5q-5 -42 -19.5 -78.5t-39 -75.5t-58 -87t-77.5 -110q-23 -33 -35 -59.5t-18 -52t-6.5 -52t-2.5 -60.5v-97q0 -71 21 -125t58 -90.5 t86.5 -56t105.5 -19.5q54 0 100.5 14.5t81 46t54.5 82t20 125.5v100q0 68 -12.5 113t-37.5 72.5t-60.5 40.5t-81.5 17q-22 3 -41 13t-33.5 25t-22 35t-7.5 41q0 22 7.5 42t20 35t30 25.5t37.5 13.5q56 10 96 36t67.5 66.5t42.5 97.5t20 129q6 33 21.5 58t40 40.5t54 22 t59.5 1.5q31 -6 57 -20.5t42.5 -36.5t22.5 -51.5t1 -63.5q-10 -62 -27.5 -120.5t-46.5 -108.5t-72 -90.5t-100 -68.5q53 -15 90 -41t62 -57.5t39.5 -65.5t21.5 -70t8.5 -69t1.5 -61v-123q0 -87 -21.5 -159.5t-59.5 -129t-90 -98.5t-113.5 -70t-131 -41.5t-140.5 -13.5 q-111 0 -213 33t-182 98t-128 160t-48 221v123q0 57 3 100t10 76t18.5 60t28 53.5t38.5 53.5t52 61q22 28 39 50.5t30 43.5t20.5 42.5t12.5 44.5q5 44 -19 73.5t-69 29.5q-31 0 -61 -5t-69 -18q-23 -6 -44 -4t-40 12t-33 26.5t-20 38.5q-6 21 -3.5 42.5z" />
<glyph unicode="&#xe0b;" horiz-adv-x="1502" d="M47 1383.5q3 30.5 17.5 58t38.5 46.5q23 19 57 26q69 16 118 -12t68 -95q7 -26 28.5 -41.5t44.5 -15.5q26 0 41.5 15.5t25.5 41.5q17 50 60 81.5t100 31.5q35 0 65.5 -12t52.5 -33.5t35 -53.5t13 -71q0 -99 -10 -167t-32 -119.5t-55.5 -94t-81.5 -91.5q-34 -36 -53 -79.5 t-28.5 -90.5t-11.5 -96t-2 -91q0 -71 21.5 -125t58 -90.5t84 -56t103.5 -19.5q54 0 100.5 14.5t81 46t54.5 82t20 125.5v100q0 64 -12 107.5t-36.5 72.5t-60 44t-83.5 19q-21 3 -39.5 13t-33 25t-22.5 35t-8 41q0 22 7.5 42t20.5 35t30 25.5t37 13.5q56 10 96.5 36 t67.5 66.5t42.5 97.5t20.5 129q6 33 21.5 58t40 40.5t53.5 22.5q27 6 58.5 0.5t57 -20t42 -36.5t23 -51.5t2.5 -63.5q-10 -62 -27.5 -120.5t-47.5 -108.5t-72 -90.5t-101 -68.5q53 -15 91 -41t63 -57.5t40 -65.5t22 -70t9.5 -69t2.5 -61v-123q0 -132 -47.5 -227.5 t-126 -158.5t-179.5 -94.5t-208 -31.5q-110 0 -213 33t-182.5 98t-127 160t-47.5 221q0 88 2.5 159.5t17.5 132.5t48.5 114.5t95.5 110.5q13 13 29.5 31t33 40t30 46t20.5 48q-62 -44 -146 -44q-30 0 -73.5 7.5t-88 30.5t-84.5 64t-66 108q-10 30 -7 60.5z" />
<glyph unicode="&#xe0c;" horiz-adv-x="2368" d="M57 1094q3 20 19 56q34 74 89 144t133 123t182.5 84.5t237.5 31.5q126 0 224 -24.5t170.5 -67t124 -103t83 -130.5t46 -148.5t14.5 -158.5v-242q0 -91 22 -170t65 -136t106 -90t144 -33q49 0 87 14.5t65 46t41.5 82t14.5 125.5v878q0 31 12 57.5t33 46t48 29.5t58 10 q32 0 60 -10t48.5 -29.5t32.5 -46t12 -57.5v-853q0 -133 -23.5 -237t-79 -175.5t-148 -109.5t-228.5 -38q-63 0 -118.5 15t-103.5 41.5t-88 62.5q-39 35 -70 78v-40q0 -30 -12 -55.5t-31.5 -43.5t-46.5 -28t-57 -10t-57.5 10t-46.5 28t-31.5 43t-12.5 56v810q0 61 -17 122.5 t-59 111.5t-111 81t-170 33q-82 2 -144 -16.5t-107 -49.5t-71.5 -68t-36.5 -74q56 -39 81 -109t25 -156v-560h66q25 0 46 -9.5t36 -26.5t23 -39.5t8 -46.5q0 -26 -8 -48t-23 -39t-36.5 -26.5t-45.5 -9.5h-244q-25 0 -47.5 9.5t-39.5 26.5t-26.5 39t-9.5 48v686 q0 40 -8.5 81.5t-32.5 79.5q-23 31 -38.5 50.5t-23 36.5t-4.5 37z" />
<glyph unicode="&#xe0d;" horiz-adv-x="2368" d="M57 1094q3 20 19 56q34 74 89 144t133 123t182.5 84.5t237.5 31.5q126 0 224 -24.5t170.5 -67t124 -103t83 -130.5t46 -148.5t14.5 -158.5v-286q0 -77 15 -129.5t41.5 -84.5t66 -46.5t86.5 -14.5q80 0 143 34.5t105.5 94t65 140t22.5 175.5v592q0 31 12 57.5t33 46 t48 29.5t58 10q32 0 60 -10t48.5 -29.5t32.5 -46t12 -57.5v-1064q0 -109 -10.5 -190.5t-28.5 -143.5t-41 -106t-48 -76l4 2q-46 -67 -103 -113.5t-123 -75.5t-139 -42t-147 -13q-83 0 -160 16.5t-144.5 51.5t-120.5 87q-54 51 -87 122q-16 32 -18 59.5t8 51.5t28.5 41.5 t45.5 30.5q26 13 54 14t53.5 -8t47 -27.5t33.5 -43.5q37 -75 105.5 -113t150.5 -38q98 0 164.5 34.5t106.5 88t56.5 121t16.5 131.5v94q-31 -40 -72.5 -76.5t-88.5 -64t-102.5 -44t-113.5 -16.5q-137 0 -229.5 38.5t-148 112t-79.5 181.5t-24 247v263q0 64 -17 128 t-59 114.5t-111 82t-170 34.5q-82 1 -144 -17.5t-107 -49t-71.5 -70.5t-36.5 -79q56 -40 81 -111t25 -161v-534h66q25 0 46 -9.5t36 -26.5t23 -39.5t8 -46.5q0 -26 -8 -48t-23 -39t-36.5 -26.5t-45.5 -9.5h-244q-25 0 -47.5 9.5t-39.5 26.5t-26.5 39t-9.5 48v686 q0 40 -8.5 81.5t-32.5 79.5q-23 31 -38.5 50.5t-23 36.5t-4.5 37z" />
<glyph unicode="&#xe0e;" horiz-adv-x="1643" d="M49 123q0 26 7.5 47.5t22.5 38.5t36 26.5t47 9.5h65v567q0 40 -8.5 80t-34.5 78q-22 31 -38 50.5t-23 36.5t-3.5 37t19.5 56q34 74 90 144t137.5 123t191.5 84.5t251 31.5q132 0 235.5 -23.5t181 -67t131 -102.5t86.5 -129t47 -148q14 -79 14 -159v-1253q0 -39 -14 -72.5 t-40 -58.5t-60 -40t-73 -15q-41 0 -76.5 16.5t-60.5 45.5q-23 25 -55 48t-75 39.5t-98 26.5t-125 10q-45 0 -86.5 -12t-80.5 -33.5t-77 -50t-74 -63.5q-17 -15 -38.5 -21.5t-43.5 -4.5t-43 12t-35 27q-16 19 -22.5 41t-3.5 44t13 43t24 37q46 51 102.5 93.5t117.5 72.5 t124.5 45.5t122.5 15.5q70 0 127 -8t103 -20.5t81.5 -29t61.5 -33.5v1124q0 62 -19.5 124.5t-65 111t-121 79.5t-185.5 33q-91 2 -160.5 -19.5t-117.5 -53.5t-75 -69q-27 -35 -36 -66q48 -42 78 -111.5t30 -149.5v-686q0 -26 -9.5 -48t-26.5 -39t-39.5 -26.5t-47.5 -9.5 h-243q-26 0 -47 9.5t-36 26.5t-22.5 39t-7.5 48z" />
<glyph unicode="&#xe0f;" horiz-adv-x="1643" d="M49 123q0 26 7.5 47.5t22.5 38.5t36 26.5t47 9.5h65v567q0 40 -8.5 80t-34.5 78q-22 31 -38 50.5t-23 36.5t-3.5 37t19.5 56q34 74 90 144t137.5 123t191.5 84.5t251 31.5q132 0 235.5 -23.5t181 -67t131 -102.5t86.5 -129t47 -148q14 -79 14 -159v-1266q0 -36 -13.5 -67 t-36.5 -55t-55 -37.5t-68 -13.5q-51 0 -91 26t-62 69q-10 20 -22.5 37.5t-29 32t-37.5 22.5t-47 8q-25 0 -45 -8t-36 -22.5t-28 -32t-21 -37.5q-17 -42 -55 -68.5t-86 -26.5q-49 0 -87 27.5t-53 69.5q-6 19 -17 37t-25 32t-34 23t-46 9q-23 0 -41.5 -9t-32 -23t-23.5 -34 q-9 -19 -14 -40q-6 -25 -22 -44t-36 -31.5t-43.5 -16t-47.5 3.5q-24 6 -43 21t-31 35t-16 44q-3 22 3 48q15 71 49.5 124t79 86.5t96 50t101.5 16.5q88 0 157 -36.5t113 -102.5q26 32 56 55.5t62.5 40t65.5 24.5t65 8q67 0 113.5 -19.5t79.5 -50.5v1117q0 62 -19.5 124.5 t-65 111t-121 79.5t-185.5 33q-91 2 -160.5 -19.5t-117.5 -53.5t-75 -69q-27 -35 -36 -66q48 -42 78 -111.5t30 -149.5v-686q0 -26 -9.5 -48t-26.5 -39t-39.5 -26.5t-47.5 -9.5h-243q-26 0 -47 9.5t-36 26.5t-22.5 39t-7.5 48z" />
<glyph unicode="&#xe10;" horiz-adv-x="1441" d="M139 1183q3 30 17 58q76 143 221.5 217.5t357.5 74.5q64 0 128.5 -8t124.5 -28q46 9 73 38t39 65q13 30 37 48.5t52.5 26t61 4t59.5 -21.5q27 -15 46.5 -39.5t28 -53t4.5 -58.5q-2 -30 -19 -59q-46 -73 -137 -107q47 -59 72.5 -140.5t22.5 -192.5q-1 -88 -26.5 -193 t-66 -218t-90.5 -229q-51 -115 -103 -227q-31 -73 -96 -115t-149 -42q-88 0 -153.5 40t-94.5 119l-186 524h-110q-26 0 -46 9.5t-34 25t-22 37t-8 47.5t8 47.5t22 37t34 25t46 9.5h275q25 0 41.5 -8t28 -22.5t19.5 -32.5q6 -19 15 -42l166 -484q34 80 71.5 170t68 178.5 t50.5 171.5t22 150q2 146 -74.5 219.5t-229.5 73.5q-105 0 -172.5 -41.5t-98.5 -133.5q-12 -32 -37 -51.5t-55.5 -26.5t-63.5 -3.5t-59 18.5q-28 15 -47.5 37.5t-28 49t-5.5 56.5zM170.5 -447.5q-3.5 21.5 2.5 44.5q17 76 51.5 122t76.5 70.5t87 32.5t82 6q55 -2 101.5 -23 t73.5 -55q11 15 25.5 29.5t32.5 25.5t39.5 17t42.5 6q43 0 78 -20.5t54 -52.5q0 31 12.5 58t34 46t50 30.5t60.5 11.5q31 0 60 -10t50 -27.5t33.5 -42.5t12.5 -56v-170q0 -30 -11.5 -55t-32.5 -43t-48.5 -28.5t-59.5 -10.5q-26 0 -48.5 7t-42.5 20t-35 30q-14 19 -22 39 q-12 30 -32 45.5t-49 15.5q-34 0 -57 -25t-33 -63q-8 -30 -34 -49.5t-59 -19.5q-34 0 -61 20t-34 52q-9 40 -30.5 62.5t-52.5 22.5q-32 0 -52.5 -20.5t-32.5 -53.5q-7 -23 -20.5 -40t-33.5 -28t-43 -14.5t-47 3.5q-24 6 -43 19t-30.5 31.5t-15 40z" />
<glyph unicode="&#xe11;" horiz-adv-x="1591" d="M76 1383.5q3 30.5 17 58t39 46.5q22 19 57 26q68 16 117.5 -12t68.5 -95q7 -26 28.5 -41.5t44.5 -15.5q25 0 41 15.5t26 41.5q17 50 60 81.5t100 31.5q63 0 108 -36.5t55 -99.5q67 46 123.5 75.5t104.5 47t86 24t66 6.5q75 0 120.5 -23.5t71.5 -66.5t34.5 -103.5 t8.5 -135.5v-1085q0 -31 -12 -57t-32 -44.5t-48 -28.5t-60 -10q-31 0 -59 10t-48 28.5t-32 44.5t-12 57v990q0 28 -1.5 52.5t-5 41.5t-11 26.5t-19.5 9.5q-56 0 -172.5 -93t-288.5 -293q-30 -36 -53.5 -63.5t-40.5 -51.5t-29.5 -47t-20.5 -48.5t-10.5 -57t-2.5 -73.5v-393 q0 -31 -12.5 -57t-33 -44.5t-48.5 -28.5t-59 -10q-32 0 -59 10t-48 28.5t-33 44.5t-12 57v365q0 55 1.5 99t6.5 78t16 63.5t28.5 59.5t45.5 63t67 76q45 48 79.5 82.5t56.5 60t34.5 45.5t16.5 42q-30 -22 -68 -33t-79 -11q-30 0 -74 7.5t-88 30.5t-84 64t-66 108 q-10 30 -7 60.5z" />
<glyph unicode="&#xe12;" horiz-adv-x="2431" d="M140 146v763q0 95 13.5 187t52.5 171t108 139.5t179 93.5q18 6 38 10t40.5 3.5t42 -10t42.5 -30.5l135 -139l126 139q20 21 41.5 30.5t43.5 10t43.5 -4.5t39.5 -9q112 -31 182 -92.5t108.5 -140.5t53 -171t14.5 -187v-250q0 -91 22 -170t65 -136t106 -90t143 -33 q49 0 88 14.5t66.5 46t41 82t13.5 125.5v878q0 31 12 57.5t32.5 45t48 29.5t58.5 11q32 0 60 -11t48.5 -29.5t32 -45t11.5 -57.5v-853q0 -133 -23 -237t-78.5 -175.5t-148.5 -109.5q-90 -38 -228 -38q-63 0 -118.5 15t-103.5 41.5t-88 62t-72 78.5v-40q0 -30 -11 -55.5 t-30.5 -43.5t-46.5 -28t-57 -10t-57.5 10t-47.5 28t-31.5 43t-11.5 56v835q0 39 -2.5 79.5t-12.5 78t-31.5 67.5t-59.5 47l-190 -185q-11 -11 -25.5 -16t-28.5 -4.5t-28 5.5t-25 15l-193 188q-30 -17 -50 -48.5t-31.5 -69.5t-16 -79t-4.5 -78v-553l234 276h-39 q-24 0 -44 8.5t-36 24t-25 37t-9 44.5q0 25 9 46t25 36t36.5 24.5t43.5 9.5h272q27 0 51 -10t42 -28t29 -41.5t11 -50.5q0 -26 -8 -50t-22 -43l-552 -651q-26 -27 -60.5 -42t-74.5 -15q-38 0 -72 12t-58 34.5t-38.5 54t-14.5 68.5z" />
<glyph unicode="&#xe13;" horiz-adv-x="2368" d="M57 1094q3 20 19 56q34 74 89 144t133 123t182.5 84.5t237.5 31.5q126 0 224 -24.5t170.5 -67t124 -103t83 -130.5t46 -148.5t14.5 -158.5v-403q0 -75 15 -125.5t41.5 -82t66 -46t86.5 -14.5q80 0 143 33t105.5 90t65 135t22.5 171v717q0 31 12 57.5t33 45t48 29.5t58 11 q32 0 60 -11t48.5 -29.5t32.5 -45t12 -57.5v-1254q0 -30 -12 -56t-32 -44.5t-47 -28.5t-57 -10q-32 0 -58.5 10t-46.5 28.5t-31.5 44.5t-11.5 56v38q-31 -43 -71 -78.5t-87.5 -62t-102.5 -41.5t-116 -15q-137 0 -229.5 38t-148 109.5t-79.5 175.5t-24 237v407 q0 61 -17 122.5t-59 111.5t-111 81t-170 33q-82 2 -144 -16.5t-107 -48t-71.5 -68t-36.5 -75.5q56 -39 81 -109t25 -156v-560h66q25 0 46 -9.5t36 -26.5t23 -39.5t8 -46.5q0 -26 -8 -48t-23 -39t-36.5 -26.5t-45.5 -9.5h-244q-25 0 -47.5 9.5t-39.5 26.5t-26.5 39t-9.5 48 v686q0 40 -8.5 81.5t-32.5 79.5q-23 31 -38.5 50.5t-23 36.5t-4.5 37z" />
<glyph unicode="&#xe14;" horiz-adv-x="1610" d="M140 146v752q0 80 12 158t41.5 149t79.5 131t123.5 104t174.5 68.5t234 24.5q132 0 232 -24.5t174.5 -68.5t124.5 -104t80 -131t42.5 -149t12.5 -158v-775q0 -31 -12 -57t-32 -44.5t-48 -28.5t-59 -10q-32 0 -59.5 10t-47.5 28.5t-32.5 44.5t-12.5 57v804q0 61 -15.5 124 t-55.5 113t-111 82t-181 32q-111 0 -182 -32t-112 -82t-56 -113q-15 -61 -15 -124v-525l242 276h-37q-24 0 -45 8.5t-36.5 24t-24 37t-8.5 44.5q0 25 8.5 46t24 36t36.5 24.5t45 9.5h270q27 0 51.5 -10t43 -28t28.5 -41.5t10 -50.5q0 -26 -8 -50t-22 -43l-560 -651 q-25 -27 -60 -42t-75 -15q-38 0 -72 12t-58 34.5t-38.5 54t-14.5 68.5z" />
<glyph unicode="&#xe15;" horiz-adv-x="1621" d="M140 146v763q0 95 17 187t60 171t115.5 139.5t182.5 93.5q17 6 37 10t40.5 3t42 -10t43.5 -30l134 -135l126 135q20 21 41.5 30.5t43.5 10t43.5 -4.5t40.5 -9q111 -31 184 -92.5t115.5 -140.5t59.5 -171t17 -187v-786q0 -31 -11.5 -57t-32 -44.5t-48 -28.5t-58.5 -10 q-32 0 -59 10t-48 28.5t-32 44.5t-11 57v812q0 37 -8 81t-25 85.5t-41.5 76.5t-57.5 53l-187 -183q-12 -10 -24.5 -15t-27 -5.5t-29 5t-25.5 15.5l-195 188q-37 -18 -60.5 -52t-38 -75.5t-19.5 -87.5t-5 -86v-533l245 276h-37q-25 0 -45 8.5t-35.5 24t-25 37t-9.5 44.5 q0 25 9.5 46t25 36t35.5 24.5t45 9.5h270q27 0 52 -10t43 -28t28.5 -41.5t10.5 -50.5q0 -26 -7.5 -50t-23.5 -43l-563 -651q-25 -27 -60 -42t-75 -15q-38 0 -72 12t-58 34.5t-38.5 54t-14.5 68.5z" />
<glyph unicode="&#xe16;" horiz-adv-x="1551" d="M57 1094q3 20 19 56q34 74 85.5 144t129.5 123t186 84.5t255 31.5q132 0 235 -23.5t178 -67t126.5 -102.5t83 -129t44.5 -148q14 -79 14 -159v-781q0 -31 -11.5 -57t-32.5 -44.5t-48 -28.5t-58 -10q-32 0 -59 10t-48 28.5t-32 44.5t-11 57v807q0 62 -18 124.5t-61.5 111 t-117.5 79.5t-184 33q-93 2 -160 -20t-111.5 -54.5t-69.5 -69t-32 -64.5q27 -19 47 -47t33 -61.5t19.5 -73t6.5 -79.5v-564h66q25 0 46 -9.5t36 -26.5t23 -39.5t8 -46.5q0 -26 -8 -48t-23 -39t-36.5 -26.5t-45.5 -9.5h-244q-25 0 -47.5 9.5t-39.5 26.5t-26.5 39t-9.5 48v689 q0 40 -8.5 80t-32.5 78q-23 31 -38.5 50.5t-23 36.5t-4.5 37z" />
<glyph unicode="&#xe17;" horiz-adv-x="1580" d="M140 123v1271q0 30 11.5 56t31 44.5t46.5 28.5t58 10q30 0 57.5 -10t47.5 -28.5t31.5 -44.5t11.5 -56v-76q80 106 193 163q116 56 270 56q159 0 262.5 -42t166.5 -119.5t89.5 -184.5t26.5 -236v-832q0 -31 -12 -57t-32 -44.5t-47.5 -28.5t-58.5 -10q-32 0 -59 10 t-48 28.5t-32 44.5t-11 57v862q0 62 -20 112t-57.5 86.5t-89 56.5t-115.5 20q-106 0 -184.5 -33.5t-130 -93t-77.5 -141t-26 -175.5v-694q0 -31 -12 -57t-32.5 -44.5t-48 -28.5t-58.5 -10q-32 0 -60 10t-48.5 28.5t-32 44.5t-11.5 57z" />
<glyph unicode="&#xe18;" horiz-adv-x="1500" d="M139 440v191q0 31 11.5 57t32 45t47.5 29t59 10q31 0 58.5 -10t48 -29t32 -45t11.5 -57v-191q0 -60 28.5 -101.5t73 -67t99.5 -37t108 -11.5q49 0 105 9.5t102.5 33t77.5 65.5q31 44 31 109q0 35 -5 60.5t-20 47t-42 41t-72.5 38.5t-109 40t-151.5 47q-72 21 -139 42.5 t-126 48t-108 58t-83.5 71.5t-52.5 90t-15 114q2 69 26 124.5t65 99.5t95 76t116.5 52t129.5 30t133 10q112 0 209 -18.5t175.5 -58t134.5 -101t83 -148.5q7 -24 7 -47q0 -32 -12 -59.5t-33 -48.5t-48.5 -33t-59.5 -12q-26 0 -48.5 8.5t-42 23t-33 34.5t-20.5 44 q-13 44 -39 76.5t-63.5 52.5t-86.5 29t-107 9q-56 0 -107 -7t-89.5 -24t-61.5 -43t-23 -62q0 -25 21.5 -49t56 -43t77.5 -35t85 -28.5t79.5 -22t59.5 -15.5q88 -22 162 -46.5t135.5 -53t109.5 -64.5t80 -85t49 -114q16 -63 16 -149q-1 -84 -24 -152t-65 -120t-100 -89.5 t-127.5 -61.5t-146.5 -35.5t-157 -11.5q-82 0 -158.5 12t-144.5 35.5t-125 61.5t-98 90.5t-63 119.5q-23 69 -23 151z" />
<glyph unicode="&#xe19;" horiz-adv-x="1580" d="M140 546v833q0 31 11.5 56.5t31.5 44.5t48 29q26 10 58 10q31 0 58.5 -10t48 -29t32.5 -44.5t12 -56.5v-863q0 -61 17.5 -111t52.5 -86.5t88 -56.5t123 -20q106 0 184.5 33.5t130.5 93t77 141t25 175.5v694q0 31 12.5 56.5t33 44.5t48.5 29q26 10 58 10q31 0 59 -10 t49 -29t33 -44.5t12 -56.5v-1272q0 -31 -12 -56t-31.5 -43.5t-46.5 -28.5t-57 -10q-32 0 -59 10t-47 28.5t-31.5 43.5t-11.5 56v76q-80 -106 -194.5 -162.5t-267.5 -56.5q-159 0 -263.5 42.5t-167 119.5t-88.5 184.5t-26 235.5z" />
<glyph unicode="&#xe1a;" horiz-adv-x="1580" d="M140 633v746q0 31 11.5 56.5t31.5 44.5t48 29q26 10 58 10q31 0 58.5 -10t48 -29t32.5 -44.5t12 -56.5v-776q0 -64 16.5 -129.5t57.5 -118.5t108 -86.5t169 -33.5q101 0 168.5 33.5t107.5 86.5t55.5 119.5t15.5 128.5v776q0 31 12.5 56.5t33 44.5t48.5 29q26 10 58 10 q31 0 59 -10t49 -29t33 -44.5t12 -56.5v-753q0 -84 -12 -165.5t-41.5 -155t-78 -135t-121 -107.5t-171 -71t-228.5 -25t-229.5 26t-172 72.5t-121 109t-77 136.5t-40 156t-11.5 166z" />
<glyph unicode="&#xe1b;" horiz-adv-x="1580" d="M140 633v746q0 31 11.5 56.5t31.5 44.5t48 29q26 10 58 10q31 0 58.5 -10t48 -29t32.5 -44.5t12 -56.5v-776q0 -64 16.5 -129.5t57.5 -118.5t108 -86.5t169 -33.5q101 0 168.5 33.5t107.5 86.5t55.5 119.5t15.5 128.5v1430q0 32 12.5 57.5t33 44.5t48.5 29q26 11 58 11 q31 0 59 -10.5t49 -29.5t33 -44.5t12 -57.5v-1407q0 -84 -12 -165.5t-41.5 -155t-78 -135t-121 -107.5t-171 -71t-228.5 -25t-229.5 26t-172 72.5t-121 109t-77 136.5t-40 156t-11.5 166z" />
<glyph unicode="&#xe1c;" horiz-adv-x="1694" d="M140 425v954q0 25 9.5 46.5t26 38.5t38.5 26.5t48 9.5h280q26 0 46.5 -9.5t35.5 -26.5t23 -39t8 -46q0 -26 -8 -48.5t-23 -39.5t-36.5 -26t-45.5 -9h-102v-784q0 -135 31.5 -192t96.5 -57q48 0 74 25t38 68.5t13.5 102.5t1.5 126v116q0 31 11.5 57t32 44.5t48 29 t58.5 10.5q32 0 59 -10.5t47.5 -29t32 -44.5t11.5 -57v-116q0 -67 3.5 -126t18.5 -102.5t43 -68.5t78 -25q30 0 52.5 14.5t36.5 43.5t21.5 76.5t7.5 114.5v905q0 32 11 57.5t32 45t48 29.5t59 10q31 0 58 -10t48 -29.5t32.5 -45t11.5 -57.5v-952q0 -118 -27 -203 t-76.5 -140.5t-120.5 -83.5t-157 -28q-108 0 -192.5 45t-137.5 128q-41 -89 -120 -131t-194 -42q-89 0 -161.5 28t-124 83.5t-78.5 140.5t-27 203z" />
<glyph unicode="&#xe1d;" horiz-adv-x="1694" d="M140 425v954q0 25 9.5 46.5t26 38.5t38.5 26.5t48 9.5h280q26 0 46.5 -9.5t35.5 -26.5t23 -39t8 -46q0 -26 -8 -48.5t-23 -39.5t-36.5 -26t-45.5 -9h-102v-784q0 -135 31.5 -192t96.5 -57q48 0 74 25t38 68.5t13.5 102.5t1.5 126v116q0 31 11.5 57t32 44.5t48 29 t58.5 10.5q32 0 59 -10.5t47.5 -29t32 -44.5t11.5 -57v-116q0 -67 3.5 -126t18.5 -102.5t43 -68.5t78 -25q30 0 52.5 14.5t36.5 43.5t21.5 76.5t7.5 114.5v1561q0 32 11 57.5t32 44.5t48 29.5t59 10.5q31 0 58 -10.5t48 -29.5t32.5 -44.5t11.5 -57.5v-1608q0 -118 -27 -203 t-76.5 -140.5t-120.5 -83.5t-157 -28q-108 0 -192.5 45t-137.5 128q-41 -89 -120 -131t-194 -42q-89 0 -161.5 28t-124 83.5t-78.5 140.5t-27 203z" />
<glyph unicode="&#xe1e;" horiz-adv-x="1987" d="M84.5 1392q5.5 31 22 56.5t42 43t57.5 22.5q31 6 63.5 2t59 -19.5t44.5 -40.5q17 -23 25 -57l200 -974l201 942q8 32 25.5 60.5t43.5 48.5t58 31.5t68 11.5q37 0 69 -12.5t58 -34t44.5 -50.5t25.5 -62l205 -925l194 964q6 32 24.5 57t44.5 40.5t56.5 20.5t61.5 -3 q32 -5 57.5 -22.5t42 -43t22.5 -56.5t-3 -62l-300 -1187q-9 -34 -27.5 -63.5t-44 -51t-58.5 -33.5t-70 -12q-36 0 -68 11.5t-58.5 31.5t-44.5 48t-25 60l-212 931l-200 -922q-9 -34 -26.5 -64t-44 -51.5t-59.5 -33t-70 -11.5q-36 0 -68 11.5t-58 31.5t-44.5 48t-27.5 60 l-303 1196q-8 31 -2.5 62z" />
<glyph unicode="&#xe1f;" horiz-adv-x="1987" d="M84.5 1392q5.5 31 22 56.5t42 43t57.5 22.5q31 6 63.5 2t59 -19.5t44.5 -40.5q17 -23 25 -57l200 -974l201 942q8 32 25.5 60.5t43.5 48.5t58 31.5t68 11.5q37 0 69 -12.5t58 -34t44.5 -50.5t25.5 -62l205 -925l307 1618q6 33 24.5 58t43.5 40t56 20t63 0q32 -6 57.5 -24 t42 -43.5t22.5 -55.5t-3 -63l-413 -1842q-9 -34 -27.5 -63.5t-44 -51t-58.5 -33.5t-70 -12q-36 0 -68 11.5t-58.5 31.5t-44.5 48t-25 60l-212 931l-200 -922q-9 -34 -26.5 -64t-44 -51.5t-59.5 -33t-70 -11.5q-36 0 -68 11.5t-58 31.5t-44.5 48t-27.5 60l-303 1196 q-8 31 -2.5 62z" />
<glyph unicode="&#xe20;" horiz-adv-x="1643" d="M49 123q0 26 7.5 47.5t22.5 38.5t36 26.5t47 9.5h65v567q0 40 -9 80t-34 78q-22 31 -38 50.5t-23 36.5t-4 37t18 56q35 74 90.5 144t137 123t191.5 84.5t253 31.5q132 0 235 -23.5t181 -67t131 -102.5t85.5 -129t47.5 -148q15 -79 15 -159v-781q0 -31 -12 -57 t-32.5 -44.5t-48 -28.5t-58.5 -10q-32 0 -59.5 10t-48.5 28.5t-33 44.5t-12 57v807q0 62 -19.5 124.5t-65 111t-121 79.5t-185.5 33q-91 2 -160.5 -19.5t-117.5 -53.5t-75 -69q-27 -35 -36 -66q48 -42 78 -111.5t30 -149.5v-686q0 -26 -9.5 -48t-26.5 -39t-39.5 -26.5 t-47.5 -9.5h-243q-26 0 -47 9.5t-36 26.5t-22.5 39t-7.5 48z" />
<glyph unicode="&#xe21;" horiz-adv-x="1580" d="M140 109v1270q0 31 11.5 56.5t32 44.5t48.5 29t60 10q31 0 58.5 -10t48 -29t32.5 -44.5t12 -56.5v-694q0 -94 26 -175.5t77.5 -141t130 -93t184.5 -33.5q70 0 123 20t88 56.5t53 86.5t18 111v863q0 31 11 56.5t32 44.5t48 29t59 10q31 0 58.5 -10t47.5 -29t32 -44.5 t12 -56.5v-833q0 -128 -26.5 -235.5t-89.5 -184.5t-167.5 -119.5t-261.5 -42.5q-154 0 -268.5 56.5t-194.5 162.5v-74q0 -32 -11.5 -57.5t-31.5 -44t-47.5 -28.5t-57.5 -10q-31 0 -58 10t-46.5 28.5t-31 44t-11.5 57.5z" />
<glyph unicode="&#xe22;" horiz-adv-x="1540" d="M113 472q0 57 8 108.5t27 94.5t51.5 78t82.5 59q-52 30 -84 68.5t-50 81t-24.5 86t-6.5 83.5q0 73 19.5 129.5t51.5 97.5t75.5 68t91 43.5t96.5 23.5t94 7h126q27 0 49 -9.5t38 -27t23.5 -40.5t7.5 -50t-7.5 -50t-23.5 -41t-38 -27t-49 -9h-63q-20 0 -51 -4t-59.5 -16.5 t-49 -39t-20.5 -73.5q0 -52 15.5 -85t42.5 -52t63 -27q37 -8 77 -8h46q26 0 48 -10t38 -27t23.5 -40t7.5 -50q0 -26 -7.5 -49t-23.5 -40t-38 -27t-48 -10h-46q-44 0 -80.5 -8.5t-63 -31t-40.5 -62.5t-14 -103q0 -67 27.5 -116.5t75 -82t108 -48.5t126.5 -16q73 0 134.5 18.5 t106.5 61t71 111t26 167.5v801q0 31 11 56.5t32 44.5t48 29t59 10q31 0 58 -10t47.5 -29t32.5 -44.5t12 -56.5v-851q0 -138 -51 -243t-138 -176.5t-203 -108.5t-246 -37q-81 0 -161.5 13.5t-152.5 41.5t-133.5 69.5t-107.5 98t-71.5 128t-25.5 158.5z" />
<glyph unicode="&#xe23;" horiz-adv-x="1331" d="M84 392q0 31 11 58.5t29.5 47.5t45 31.5t57.5 11.5q55 0 93 -34t55 -82q15 -43 46.5 -77.5t70.5 -58t81 -36.5t81 -13q51 0 100.5 7.5t88 26t61.5 50.5t23 84q0 48 -23 86t-63 68t-92.5 51.5t-109.5 35.5q-58 15 -118.5 32t-117.5 40.5t-107 55.5t-88 76.5t-59.5 104 t-21.5 137.5q0 85 23 150t63 114.5t93.5 82t115 52.5t127.5 29t129 7q91 -1 175 -22t152.5 -59.5t119 -95.5t78.5 -132q8 -23 7 -50q0 -31 -10 -57.5t-28.5 -46.5t-45 -31t-58.5 -11q-26 0 -48 10t-40.5 25t-33 34.5t-24.5 39.5q-14 27 -37.5 50.5t-55 41t-69.5 28t-81 10.5 q-63 0 -108 -13t-73 -35.5t-40.5 -52t-12.5 -62.5q0 -31 22 -59t61.5 -51.5t91 -43.5t109.5 -36q126 -34 222.5 -75t161.5 -94.5t99 -123t34 -159.5q-2 -94 -24 -168t-61.5 -128t-94 -90.5t-118 -59t-133 -32.5t-140.5 -10q-99 0 -192.5 21.5t-173 67.5t-137.5 117.5 t-83 171.5q-3 10 -4 20.5t-1 22.5z" />
<glyph unicode="&#xe24;" horiz-adv-x="1551" d="M57 1094q3 20 19 56q34 74 85.5 144t129.5 123t186 84.5t255 31.5q132 0 235 -23.5t178 -67t126.5 -102.5t83 -129t44.5 -148q14 -79 14 -159v-1267q0 -32 -11.5 -57.5t-32.5 -45t-48 -29.5t-58 -10q-32 0 -59 10t-48 29.5t-32 45t-11 57.5v1293q0 62 -18 124.5 t-61.5 111t-117.5 79.5t-184 33q-93 2 -160 -20t-111.5 -54.5t-69.5 -69t-32 -64.5q27 -19 47 -47t33 -61.5t19.5 -73t6.5 -79.5v-564h66q25 0 46 -9.5t36 -26.5t23 -39.5t8 -46.5q0 -26 -8 -48t-23 -39t-36.5 -26.5t-45.5 -9.5h-244q-25 0 -47.5 9.5t-39.5 26.5t-26.5 39 t-9.5 48v689q0 40 -8.5 80t-32.5 78q-23 31 -38.5 50.5t-23 36.5t-4.5 37z" />
<glyph unicode="&#xe25;" horiz-adv-x="1544" d="M97 398q0 114 38.5 197.5t103 142.5t150.5 95t180.5 57.5t191 29t184.5 7.5h48h39t35.5 -1.5t37.5 -1.5v134q0 73 -27 116.5t-70.5 66.5t-98 30t-107.5 7q-60 0 -112 -10t-95 -32t-73 -58.5t-46 -89.5q-8 -31 -27 -54.5t-44.5 -38t-56.5 -19t-61 4.5t-54 27.5t-38.5 43.5 t-19.5 55t5 60q32 101 94.5 170.5t147 112.5t186 61.5t213.5 18.5q70 0 140 -8.5t135 -28.5t121.5 -53t98 -83t65.5 -118q25 -66 25 -155v-960q0 -34 -11.5 -60.5t-32.5 -45t-48 -28.5t-58 -10q-32 0 -59 10t-47 28.5t-32.5 45t-12.5 60.5v568q-41 3 -83 3t-85 -1 q-55 -2 -115.5 -8.5t-120 -19t-113 -33.5t-95 -51t-66 -71.5t-24.5 -94.5q0 -60 24.5 -98.5t64 -60.5t88 -31.5t98.5 -9.5q11 0 24 0.5t24 2.5q23 1 46 -6t41 -21.5t31 -34.5q11 -20 17 -44q1 -24 -5.5 -46.5t-20.5 -40t-33.5 -30t-42.5 -16.5q-34 -7 -67.5 -10.5 t-70.5 -3.5q-106 0 -201 23.5t-166.5 75t-114 133.5t-42.5 200z" />
<glyph unicode="&#xe26;" horiz-adv-x="1643" d="M49 123q0 26 7.5 47.5t22.5 38.5t36 26.5t47 9.5h65v567q0 40 -9 80t-34 78q-22 31 -38 50.5t-23 36.5t-4 37t18 56q35 74 90.5 144t137 123t191.5 84.5t253 31.5q132 0 235 -23.5t181 -67t131 -102.5t85.5 -129t47.5 -148q15 -79 15 -159v-1267q0 -32 -12 -57.5 t-32.5 -45t-48 -29.5t-58.5 -10q-32 0 -59.5 10t-48.5 29.5t-33 45t-12 57.5v1293q0 62 -19.5 124.5t-65 111t-121 79.5t-185.5 33q-91 2 -160.5 -19.5t-117.5 -53.5t-75 -69q-27 -35 -36 -66q48 -42 78 -111.5t30 -149.5v-686q0 -26 -9.5 -48t-26.5 -39t-39.5 -26.5 t-47.5 -9.5h-243q-26 0 -47 9.5t-36 26.5t-22.5 39t-7.5 48z" />
<glyph unicode="&#xe27;" horiz-adv-x="1405" d="M120 434q6 29 20 54t38 43t54 26.5t59 3.5t54 -19t43 -38t27 -54q13 -60 38 -103.5t59 -72t77 -41.5t92 -13q74 0 133.5 31.5t101.5 97.5t64 166t22 236q0 137 -22 238t-64 166.5t-101.5 98t-133.5 32.5q-49 0 -92 -14t-77 -41.5t-59 -72.5q-25 -43 -38 -103 q-9 -30 -27 -53.5t-43 -37.5t-54 -19q-29 -7 -59 1.5t-54 27t-38 43.5t-19 54.5t2 59.5q26 93 76 168t121.5 128t162 81.5t198.5 28.5q161 0 280.5 -56.5t198 -160t116.5 -248t38 -321.5q0 -178 -38 -322t-116.5 -247t-198 -159t-280.5 -56q-108 0 -198.5 29.5t-162 82.5 t-121.5 128t-76 168q-9 30 -3 59z" />
<glyph unicode="&#xe28;" horiz-adv-x="1595" d="M140 123v745q0 84 12 166.5t41.5 156t79 136.5t122.5 108.5t172 71.5t231 26q84 0 155.5 -11.5t131.5 -31.5q40 3 66.5 26t42.5 56q11 30 31.5 52.5t46.5 36.5t57 16t60 -8q30 -12 52.5 -32t35.5 -47t16 -57t-9 -62q-8 -25 -24.5 -48t-37.5 -41.5t-45 -33.5t-50 -27 q36 -45 61 -98t40 -112t22 -119.5t7 -123.5v-745q0 -31 -12 -57t-33 -44.5t-48.5 -28.5t-59.5 -10q-31 0 -58.5 10t-48 28.5t-32.5 44.5t-12 57v778q0 41 -7.5 85t-24.5 84.5t-44 76.5t-66.5 62.5t-91.5 42t-121 15.5q-102 0 -170.5 -33.5t-110.5 -86.5t-59.5 -118 t-17.5 -128v-202q60 87 132 138t170 67q27 4 53.5 -0.5t48 -17t37.5 -32.5t21.5 -47.5t2 -54t-16.5 -47.5t-34.5 -37t-48.5 -22q-103 -13 -173.5 -52t-113 -102.5t-60.5 -149.5t-18 -192v-27q0 -31 -12 -57t-32.5 -44.5t-48 -28.5t-58.5 -10q-32 0 -59 10t-47 28.5 t-31.5 44.5t-11.5 57z" />
<glyph unicode="&#xe29;" horiz-adv-x="1580" d="M140 633v746q0 31 11.5 56.5t31.5 44.5t48 29q26 10 58 10q31 0 58.5 -10t48 -29t32.5 -44.5t12 -56.5v-776q0 -64 16.5 -129.5t57.5 -118.5t108 -86.5t169 -33.5q101 0 168.5 33.5t107.5 86.5t55.5 119.5t15.5 128.5v96h-301q-30 0 -56 9.5t-45.5 28t-30.5 43t-11 52.5 v118q0 30 11 54t30.5 42t45.5 28t56 10t55.5 -10t45 -28t31 -42t11.5 -54v-9h158v438q0 31 12.5 56.5t33 44.5t48.5 29q26 10 58 10q31 0 59 -10t49 -29t33 -44.5t12 -56.5v-438h46q25 0 46 -9.5t35 -26t22 -38.5t8 -48q0 -25 -8 -46.5t-22 -38t-35.5 -26t-45.5 -9.5h-46 v-73q0 -84 -12 -165.5t-41.5 -155t-78 -135t-121 -107.5t-171 -71t-228.5 -25t-229.5 26t-172 72.5t-121 109t-77 136.5t-40 156t-11.5 166z" />
<glyph unicode="&#xe2a;" horiz-adv-x="1544" d="M97 398q0 114 38.5 197.5t103 142.5t150.5 95t180.5 57.5t191 29t184.5 7.5h48h39t35.5 -1.5t37.5 -1.5v134q0 73 -27 116.5t-70.5 66.5t-98 30t-107.5 7q-60 0 -112 -10t-94.5 -32t-73 -58.5t-46.5 -89.5q-8 -31 -27 -54.5t-44.5 -38t-56.5 -19t-61 4.5t-53.5 27.5 t-38.5 42.5t-19 54t4 62q29 101 91 170.5t147 112.5t188 61.5t215 18.5q70 0 140.5 -8.5t138.5 -30.5q34 6 57.5 28.5t36.5 52.5q11 30 31.5 52.5t46.5 36.5t57 16t60 -8q30 -12 52.5 -32t35.5 -47t16 -57t-9 -62q-17 -48 -57 -84.5t-89 -59.5q32 -47 50 -107 q18 -59 18 -136v-960q0 -34 -11.5 -60.5t-32.5 -45t-48 -28.5t-58 -10q-32 0 -59 10t-47 28.5t-32.5 45t-12.5 60.5v568q-41 3 -83 3t-85 -1q-55 -2 -115.5 -8.5t-120 -19t-113 -33.5t-95 -51t-66 -71.5t-24.5 -94.5q0 -60 24.5 -98.5t64 -60.5t88 -31.5t98.5 -9.5 q11 0 24 0.5t24 2.5q23 1 46 -6t41 -21.5t31 -34.5q11 -20 17 -44q1 -24 -5.5 -46.5t-20.5 -40t-33.5 -30t-42.5 -16.5q-34 -7 -67.5 -10.5t-70.5 -3.5q-106 0 -201 23.5t-166.5 75t-114 133.5t-42.5 200z" />
<glyph unicode="&#xe2b;" horiz-adv-x="1548" d="M140 124v1252q0 30 11.5 57t31.5 45.5t48 29.5q26 11 58 11q31 0 58.5 -11t48 -29.5t32.5 -45t12 -57.5v-376l787 497q26 16 53 20.5t52.5 -1.5t48.5 -21t38 -39q15 -26 20 -53t-0.5 -53t-20.5 -49t-41 -38l-153 -100q54 -40 90 -88t57.5 -103t30 -117.5t8.5 -129.5v-601 q0 -31 -12 -57t-32 -45t-48 -29t-58 -10q-32 0 -59 10t-47.5 29t-33 45t-12.5 57v627q0 41 -5.5 80.5t-20.5 74t-41 60.5t-66 44l-535 -344v-542q0 -31 -12 -57t-32.5 -45t-48 -29t-58.5 -10q-32 0 -59 10t-47 29t-31.5 45t-11.5 57z" />
<glyph unicode="&#xe2c;" horiz-adv-x="1987" d="M73.5 1393.5q6.5 30.5 23 55.5t42.5 43q27 18 58 24q32 6 64 1.5t58.5 -20.5t46 -40t24.5 -58l166 -1000l219 744q9 31 27.5 59.5t43.5 48.5t55.5 31.5t66.5 11.5q37 0 68 -12t56 -33.5t43 -50t29 -63.5l226 -739q16 76 29.5 146.5t26.5 140t26.5 139t27.5 142.5 q12 56 15.5 93.5t3.5 70.5q0 62 -24 101t-86 52q-40 9 -65.5 40.5t-25.5 72.5q0 22 7.5 41t21 35t31.5 26t39 13q34 5 67 14.5t62.5 26.5t54.5 40.5t41 58.5q13 30 33 54t45 40.5t54 24.5q28 8 59 5q39 -4 66 -21t43 -42t20 -55.5t-1 -61.5q-9 -41 -31 -75.5t-54.5 -61.5 t-71 -47t-77.5 -32q39 -34 61 -77t31 -91.5t6 -101.5t-17 -107l-209 -856q-9 -34 -28 -63.5t-46.5 -50.5t-61.5 -34q-36 -13 -73 -13t-68.5 11.5t-58 32t-46 48.5t-29.5 61l-226 725l-218 -724q-12 -34 -30.5 -62.5t-45 -48.5t-58.5 -31.5t-69 -11.5q-36 0 -69.5 11.5 t-60 32t-46 48.5t-25.5 61l-266 1195q-7 32 -0.5 62.5z" />
<glyph unicode="&#xe2d;" horiz-adv-x="1522" d="M87 738q0 24 9.5 45.5t26 38t38.5 26t45 9.5h468q24 0 44 -9.5t34 -26t23 -38.5t9 -45q0 -24 -9 -46.5t-23 -38t-34 -25.5t-44 -10h-275q3 -89 31.5 -162t76.5 -126t114.5 -81.5t143.5 -28.5q87 0 156 34.5t117.5 102.5t74 166t25.5 223q0 259 -93 396q-95 136 -284 136 q-120 0 -206 -48.5t-125 -141.5q-10 -30 -28.5 -54t-44 -38.5t-55.5 -19t-60 4.5t-54.5 28t-39 45t-18 56.5t9.5 59.5q34 86 90.5 153.5t134 115t177 73t219.5 25.5q126 0 225 -28t175.5 -78t130.5 -121.5t88 -159.5t50 -189q16 -103 16 -215q0 -104 -16 -202t-50 -184.5 t-88.5 -158.5t-130.5 -124.5t-174.5 -81t-221.5 -28.5t-221.5 28t-173.5 79.5t-128 122t-87.5 156t-50 183t-17.5 202.5z" />
<glyph unicode="&#xe2e;" horiz-adv-x="1522" d="M87 738q0 24 9.5 45.5t26 38t38.5 26t45 9.5h468q24 0 44 -9.5t34 -26t23 -38.5t9 -45q0 -24 -9 -46.5t-23 -38t-34 -25.5t-44 -10h-275q3 -89 31.5 -162t76.5 -126t114.5 -81.5t143.5 -28.5q87 0 156 34.5t117.5 102.5t74 166t25.5 223q0 259 -93 396q-95 136 -284 136 q-120 0 -206 -48.5t-125 -141.5q-10 -30 -28.5 -54t-44 -38.5t-55.5 -19t-60 4.5t-54.5 28t-39 45t-18 56.5t9.5 59.5q34 86 90.5 153.5t134 115t177 73t219.5 25.5q74 0 138.5 -10t121.5 -28q39 4 64.5 27.5t39.5 55.5q12 30 32 52t46.5 35.5t56.5 15.5t60 -8 q30 -11 53 -31t35.5 -47t15.5 -57t-8 -61q-17 -48 -57.5 -85.5t-88.5 -59.5q46 -55 79.5 -119t55 -139.5t31.5 -159t10 -172.5q0 -104 -16 -202t-50 -184.5t-88.5 -158.5t-130.5 -124.5t-174.5 -81t-221.5 -28.5t-221.5 28t-173.5 79.5t-128 122t-87.5 156t-50 182.5 t-17.5 203z" />
<glyph unicode="&#xe2f;" horiz-adv-x="1551" d="M106 1072q0 81 21.5 143.5t58.5 110.5t86.5 81.5t106 53.5t115.5 30q61 9 118 9h150q26 0 47.5 -9.5t37 -26.5t24 -40.5t8.5 -49.5t-8.5 -48.5t-24 -40t-37 -27.5t-47.5 -10h-150q-99 0 -147 -44q-47 -43 -47 -134q0 -45 13.5 -88.5t47 -77t91.5 -55t148 -21.5 q191 0 293 71t102 221v257q0 32 11 57.5t32 45t48 29.5t59 10q31 0 58 -10t48 -29.5t32.5 -45t11.5 -57.5v-1254q0 -31 -11.5 -57t-32.5 -44.5t-48 -28.5t-58 -10q-32 0 -59 10t-48 28.5t-32 44.5t-11 57v576q-72 -60 -170 -90.5t-215 -30.5q-155 0 -270.5 35t-194.5 100 t-118 156t-39 203z" />
<glyph unicode="&#xe30;" horiz-adv-x="903" d="M140 365v118q0 29 10 53.5t29.5 41.5t44.5 26t53 9q29 0 55 -9t44.5 -26t30 -41.5t11.5 -53.5v-14h286q24 0 44 -10t33.5 -25.5t22 -37t8.5 -44.5q0 -25 -8.5 -46t-22 -37t-33.5 -25t-44 -9h-427q-28 0 -53 9t-44.5 26t-29.5 41.5t-10 53.5zM140 1108v119q0 29 10 53 t29.5 41t44.5 26.5t53 9.5q29 0 55 -9.5t44.5 -26.5t30 -41t11.5 -53v-14h286q24 0 44 -10t33.5 -26t22 -37.5t8.5 -44.5q0 -24 -8.5 -45.5t-22 -37t-33.5 -25t-44 -9.5h-427q-28 0 -53 9.5t-44.5 26.5t-29.5 41.5t-10 52.5z" />
<glyph unicode="&#xe31;" d="M-945 1862v127q0 29 10.5 53t30 41.5t44.5 26.5t53 9q29 0 55 -9t44.5 -26.5t30 -41.5t11.5 -53v-27h639q24 0 44 -9.5t34.5 -24.5t22.5 -36.5t8 -45.5t-8 -45t-22.5 -36.5t-34.5 -24t-44 -8.5h-780q-28 0 -53 9t-44.5 26.5t-30 41.5t-10.5 53z" />
<glyph unicode="&#xe32;" horiz-adv-x="1259" d="M43.5 1122q-3.5 31 6.5 62q27 87 81.5 151.5t125 108t153.5 65t169 21.5q116 0 215.5 -31.5t171.5 -96.5t113.5 -163.5t41.5 -231.5v-884q0 -31 -11.5 -57t-32 -44.5t-48 -28.5t-58.5 -10t-58.5 10t-48 28.5t-32 44.5t-11.5 57v832q0 162 -61.5 237t-180.5 75 q-83 0 -141 -41.5t-83 -121.5q-10 -30 -29.5 -53.5t-45 -39.5t-56.5 -21t-62 2q-35 9 -60 28.5t-40 45t-18.5 56.5z" />
<glyph unicode="&#xe33;" horiz-adv-x="1259" d="M-608 1988q0 58 22.5 110.5t61.5 91t91.5 61.5t110.5 23q57 0 109.5 -23t91 -61.5t61.5 -91t23 -110.5q0 -59 -23 -111t-61.5 -91t-91 -61t-109.5 -22q-58 0 -110.5 22t-91.5 61t-61.5 91t-22.5 111zM-425 1988q0 -20 8 -39.5t22.5 -33t33.5 -22t39 -8.5t38.5 8.5t33 22 t22.5 33t8 39.5t-8 39t-22.5 33t-33 22.5t-38.5 8.5t-39 -8.5t-33.5 -22.5t-22.5 -33t-8 -39zM43.5 1122q-3.5 31 6.5 62q27 87 81.5 151.5t125 108t153.5 65t169 21.5q116 0 215.5 -31.5t171.5 -96.5t113.5 -163.5t41.5 -231.5v-884q0 -31 -11.5 -57t-32 -44.5t-48 -28.5 t-58.5 -10t-58.5 10t-48 28.5t-32 44.5t-11.5 57v832q0 162 -61.5 237t-180.5 75q-83 0 -141 -41.5t-83 -121.5q-10 -30 -29.5 -53.5t-45 -39.5t-56.5 -21t-62 2q-35 9 -60 28.5t-40 45t-18.5 56.5z" />
<glyph unicode="&#xe34;" d="M-1460 1846q0 26 8 47.5t23 38t35 25.5t46 9h1116q26 0 46 -9t34.5 -25.5t23 -38t8.5 -47.5t-8.5 -46.5t-23 -37t-35.5 -25.5q-19 -10 -45 -10h-1116q-26 0 -46 9.5t-35 26t-23 38t-8 45.5z" />
<glyph unicode="&#xe35;" d="M-1460 1846q0 26 8 47.5t23 38t35 25.5t46 9h923v96q0 30 11.5 54.5t31 42t45 27.5t55.5 10t56 -10t45 -27.5t30 -42.5t11 -54v-200q0 -30 -11 -54.5t-30 -42.5t-45 -28t-56 -10h-1066q-26 0 -46 9.5t-35 26t-23 38t-8 45.5z" />
<glyph unicode="&#xe36;" d="M-1460 1846q0 26 8 47.5t23 38t35 25.5t46 9h715v25q0 54 20.5 102.5t56 84.5t83 56.5t103.5 20.5q54 0 102.5 -20.5t84.5 -56.5t56 -84q21 -49 21 -103q0 -56 -20.5 -103.5t-56.5 -83t-84.5 -56.5t-102.5 -21h-978q-26 0 -46 9.5t-35 26t-23 38t-8 45.5zM-465 1991 q0 -19 8 -35.5t21 -28.5t30 -19.5t36 -7.5q20 0 37 7.5t30.5 19.5t20.5 29q7 15 7 35t-7 37.5t-20.5 30.5t-30.5 20t-37 7q-19 0 -36 -7t-30 -20t-21 -30.5t-8 -37.5z" />
<glyph unicode="&#xe37;" d="M-1460 1846q0 26 8 47.5t23 38t35 25.5t46 9h531v103q0 27 11 51t30.5 40t43.5 26t51 10t52.5 -10t44 -26t29 -40t10.5 -51v-103h135v103q0 27 10.5 51t29 40t43.5 26t52 10q28 0 53 -10t43.5 -26t28.5 -40t10 -51v-214q0 -29 -10 -52.5t-28.5 -40t-43 -26t-53.5 -9.5 h-1073q-26 0 -46 9.5t-35 26t-23 38t-8 45.5z" />
<glyph unicode="&#xe38;" d="M-588 -287q0 24 7.5 44.5t21.5 36.5t33.5 24.5t43.5 8.5h236q24 0 43.5 -8.5t34 -24.5t21.5 -36.5t7 -44.5v-339q0 -30 -11 -54t-29.5 -41.5t-44 -27.5t-55.5 -10t-55 10t-44.5 27.5t-30 41.5t-10.5 54v223h-62q-24 0 -43.5 9t-33.5 24t-21.5 36.5t-7.5 46.5z" />
<glyph unicode="&#xe39;" d="M-1118 -287q0 24 7 44.5t21.5 36.5t33.5 24.5t44 8.5h236q24 0 43 -8.5t33.5 -24.5t21.5 -36.5t7 -44.5v-91q0 -71 31 -108t95 -37q60 0 92.5 37t32.5 108v92q0 30 10.5 53.5t30 41.5t45 27.5t54.5 9.5q30 0 55.5 -9.5t44 -27.5t29.5 -41.5t11 -53.5v-92q0 -77 -21 -146 t-68.5 -121.5t-125 -82.5t-190.5 -30q-106 0 -181.5 26t-125.5 72.5t-75 111.5t-28 145h-57q-25 0 -44 9t-33.5 24t-21.5 36.5t-7 46.5z" />
<glyph unicode="&#xe3a;" d="M-512 -330q0 43 16 80t43.5 65.5t65 44.5t80.5 16q41 0 77.5 -16t63.5 -44.5t43.5 -65.5t16.5 -80q0 -42 -16.5 -78.5t-43.5 -63.5t-63.5 -43t-77.5 -16q-43 0 -80.5 16t-65 43t-43.5 63.5t-16 78.5z" />
<glyph unicode="&#xe3e;" />
<glyph unicode="&#xe3f;" horiz-adv-x="1701" d="M173 154v1439q0 31 12 60t33.5 49.5t50 32.5t61.5 12h455v178q0 16 4.5 31.5t13.5 27t22 18.5t30 7q33 0 51 -25.5t18 -58.5v-178q80 0 156.5 -9t144.5 -30.5t125 -56.5t98.5 -87t64.5 -123t23 -164q0 -47 -13.5 -98t-43 -99.5t-74 -90.5t-105.5 -71q73 -16 133.5 -56.5 t104.5 -96.5t67 -125q24 -68 24 -142q0 -96 -34.5 -185.5t-108 -159t-188.5 -111.5t-277 -42h-97v-197q0 -16 -4.5 -30.5t-13 -26.5t-22.5 -19q-12 -7 -29 -7t-30 7t-22 19t-14 27q-4 13 -4 30v197h-455q-31 0 -60.5 12t-51 33t-33.5 49q-12 29 -12 60zM488 260h297v496 h-297v-496zM488 1022h297v461h-297v-461zM924 260h94q72 0 127.5 21t93.5 53t58 75t20 89q0 73 -26.5 123t-73 80t-109.5 42.5t-136 12.5h-48v-496zM924 1022q84 3 142 24t92.5 55t50 77t15.5 89q2 54 -20.5 95t-61.5 67.5t-94.5 40t-123.5 13.5v-461z" />
<glyph unicode="&#xe40;" horiz-adv-x="640" d="M169 123v1254q0 32 11.5 57.5t32 45t48.5 29.5t59 10q32 0 59 -10t48 -29.5t33 -45t12 -57.5v-1254q0 -31 -12 -57t-33 -44.5t-48 -28.5t-59 -10q-31 0 -59 10t-48.5 28.5t-32 44.5t-11.5 57z" />
<glyph unicode="&#xe41;" horiz-adv-x="1145" d="M169 123v1254q0 32 11.5 57.5t32 45t48.5 29.5t59 10q32 0 59 -10t48 -29.5t33 -45t12 -57.5v-1254q0 -31 -12 -57t-33 -44.5t-48 -28.5t-59 -10q-31 0 -59 10t-48.5 28.5t-32 44.5t-11.5 57zM674 123v1254q0 32 12 57.5t32.5 45t48.5 29.5t60 10q31 0 58 -10t48 -29.5 t33 -45t12 -57.5v-1254q0 -31 -12 -57t-33 -44.5t-49 -28.5q-26 -10 -57 -10q-32 0 -60 10t-48.5 28.5t-32.5 44.5t-12 57z" />
<glyph unicode="&#xe42;" horiz-adv-x="760" d="M-4 2051q0 25 10 49t27 41t40.5 27t49.5 10h642q26 0 47.5 -9.5t38 -26t25.5 -38.5t9 -46q0 -26 -9 -47.5t-25.5 -38t-39 -26.5t-46.5 -10h-319q36 -41 53 -93.5t17 -106.5v-1491h66q26 0 46.5 -9.5t35.5 -26.5t23 -39.5t8 -46.5q0 -26 -8 -48t-23 -39t-36.5 -26.5 t-45.5 -9.5h-243q-26 0 -48 9.5t-39 26.5t-26.5 39t-9.5 48v1604q0 79 -38 131t-101 74q-37 13 -59 46t-22 73z" />
<glyph unicode="&#xe43;" horiz-adv-x="760" d="M-68.5 1874q-5.5 26 1.5 55q20 83 60.5 141.5t95.5 98t120.5 57.5t135.5 18q74 0 144 -17.5t124.5 -55t86.5 -97t32 -145.5q0 -47 -15 -82t-38.5 -66t-53 -61t-57.5 -65q-19 -23 -29.5 -53t-15.5 -62.5t-6 -64t-1 -58.5v-1172h66q26 0 46.5 -9.5t35.5 -26.5t23 -39.5 t8 -46.5q0 -26 -8 -48t-23 -39t-36.5 -26.5t-45.5 -9.5h-243q-26 0 -48 9.5t-39 26.5t-26.5 39t-9.5 48v1294q0 62 5 109.5t19.5 89t40 79.5t66.5 81q12 12 30.5 27.5t36.5 35t31 38.5t13 38q0 15 -6 31.5t-19 30.5t-34 21.5t-54 7.5q-55 0 -90 -35.5t-49 -100.5 q-6 -28 -21.5 -50t-38.5 -36.5t-50 -20.5t-56 2q-29 5 -51.5 21.5t-37 39t-20 48.5z" />
<glyph unicode="&#xe44;" horiz-adv-x="760" d="M-153 2058q0 26 9.5 47t25.5 37.5t38.5 26t48.5 9.5h642q25 0 49 -10t41 -27t27 -41t10 -49q0 -40 -23 -72.5t-60 -46.5q-62 -23 -100.5 -74.5t-38.5 -130.5v-1482h66q26 0 46.5 -9.5t35.5 -26.5t23 -39.5t8 -46.5q0 -26 -8 -48t-23 -39t-36.5 -26.5t-45.5 -9.5h-243 q-26 0 -48 9.5t-39 26.5t-26.5 39t-9.5 48v1613q0 54 17 106.5t53 93.5h-317q-26 0 -48.5 10t-38.5 26.5t-25.5 38t-9.5 47.5z" />
<glyph unicode="&#xe45;" horiz-adv-x="1259" d="M43.5 1122q-3.5 31 6.5 62q27 87 81.5 151.5t125 108t153.5 65t169 21.5q116 0 215.5 -31.5t171.5 -96.5t113.5 -163.5t41.5 -231.5v-1370q0 -32 -11.5 -57.5t-32 -44t-48 -28.5t-58.5 -10t-58.5 10t-48 28.5t-32 44t-11.5 57.5v1318q0 162 -61.5 237t-180.5 75 q-83 0 -141 -41.5t-83 -121.5q-10 -30 -29.5 -53.5t-45 -39.5t-56.5 -21t-62 2q-35 9 -60 28.5t-40 45t-18.5 56.5z" />
<glyph unicode="&#xe46;" horiz-adv-x="1462" d="M99 945q0 97 15 183t53.5 157t107 123.5t177.5 84.5q17 6 37 10t41 3.5t42 -9t41 -30.5l108 -111l100 111q20 22 42 31t43.5 10t43.5 -4q20 -4 40 -10q113 -30 179.5 -89t100.5 -138.5t45 -173t11 -192.5v-1264q0 -32 -12.5 -57.5t-33 -44t-48.5 -28.5t-58 -10 q-31 0 -59 10t-49 28.5t-33 44t-12 57.5v1293q0 41 -1.5 88t-9.5 89.5t-25.5 74t-52.5 41.5l-160 -168q-11 -11 -24 -17t-28 -6t-29.5 6t-24.5 17l-161 163q-30 -18 -51.5 -46.5t-34.5 -63t-18 -75.5t-2 -85q1 -33 7 -66t21 -58t44 -38.5t78 -7.5q30 3 52 -7t38 -28 t24.5 -43t8.5 -54q0 -55 -34.5 -91t-88.5 -42q-94 -8 -177 14t-143 76.5t-95 139.5t-35 202z" />
<glyph unicode="&#xe47;" d="M-1326 2075q0 89 34 154.5t89.5 108t127.5 62.5q71 20 148 20h650q22 0 41.5 -9t33 -24t21 -35t7.5 -41q0 -47 -28 -77t-75 -30h-625q-52 0 -82 -13t-47 -32.5t-23 -42t-6 -41.5q0 -13 5 -30t15 -33.5t27.5 -27.5t42.5 -11q29 0 50 16q22 16 31 46q10 37 38.5 55.5 t68.5 18.5q43 0 73.5 -17t39.5 -57q7 -29 25 -45.5t45 -16.5q26 0 41.5 14.5t19.5 40.5v-2q5 22 18.5 37.5t31.5 26.5t39 15t43 3q26 -3 48 -13.5t38.5 -28.5t25 -42.5t5.5 -55.5q-7 -56 -32 -97.5t-62 -68t-83 -39.5t-93 -13q-36 0 -68 10t-59.5 26t-49.5 36t-39 40 q-19 -23 -44.5 -42.5t-55.5 -35t-63.5 -25t-68.5 -9.5q-60 0 -107 16t-83 41.5t-60 58.5t-40 69.5t-22.5 72t-6.5 67.5z" />
<glyph unicode="&#xe48;" d="M-420 2460v223q0 28 10.5 51.5t30 41.5t44.5 27.5t53 9.5q29 0 54.5 -9.5t44.5 -27.5t29.5 -41.5t10.5 -51.5v-223q0 -29 -10.5 -53.5t-29.5 -41.5t-44.5 -26.5t-54.5 -9.5q-28 0 -53 9.5t-44.5 26.5t-30 41.5t-10.5 53.5z" />
<glyph unicode="&#xe49;" d="M-861 2677q0 23 8.5 43.5t23.5 35.5t35 24.5t45 9.5h180q23 0 43 -9.5t35.5 -24.5t24.5 -35q8 -21 8 -44v-112q60 2 109.5 14t86.5 33.5t63 50.5q27 30 39 64q10 24 28 42t40.5 27.5t48.5 10t50 -9.5q26 -10 44 -28t27 -40.5t10 -48.5t-11 -50q-26 -60 -74.5 -112.5 t-119 -91.5t-163 -61.5t-208.5 -22.5h-95q-23 0 -43 9.5t-36 24.5t-24.5 35t-8.5 43v111h-54q-23 0 -44 9.5t-36 24.5t-23.5 35t-8.5 43z" />
<glyph unicode="&#xe4a;" d="M-885 2430q0 77 21.5 134t56.5 94.5t80 56t92 18.5q49 0 90.5 -23t71.5 -57q31 34 73 57t97 23q31 0 62.5 -9.5t59 -28.5t46.5 -46.5t28 -63.5q15 20 34 54t27 67q6 22 21 41t34.5 29.5t43 14t47.5 -0.5q29 -7 49 -21.5t30 -33.5t11.5 -41.5t-6.5 -45.5 q-17 -54 -44.5 -105.5t-65.5 -93t-82.5 -70t-93.5 -37.5h-95q-35 0 -56.5 20t-23.5 52q-3 41 -16.5 69t-45.5 28q-24 0 -37 -14.5t-16 -38.5q-3 -30 -23.5 -50.5t-54.5 -20.5q-32 0 -57 17.5t-28 53.5q-1 26 -14.5 39.5t-36.5 13.5q-29 0 -42 -20.5t-14 -60.5 q-2 -53 -34 -78t-79 -25q-52 0 -81 30t-29 73z" />
<glyph unicode="&#xe4b;" d="M-648 2637q0 23 7.5 43t20 34t31 23t40.5 9h131v74q0 27 11 50.5t29.5 41t43.5 26.5t52 9t52.5 -9t43 -26.5t29 -41t11.5 -50.5v-74h130q23 0 41.5 -9t31.5 -23t20 -34t7 -43t-7 -42.5t-20 -33.5t-31.5 -22.5t-41.5 -8.5h-130v-75q0 -28 -11.5 -51.5t-30 -40t-43 -26 t-52.5 -9.5q-27 0 -51.5 9.5t-43 26t-29.5 40t-11 51.5v75h-131q-23 0 -41 8.5t-30.5 22.5t-20 34t-7.5 42z" />
<glyph unicode="&#xe4c;" d="M-603 2281.5q0 26.5 11 53.5q44 113 147 183t258 87q53 6 88.5 -19t44.5 -71q4 -23 -1 -45.5t-17 -40.5t-31 -30t-41 -15q-83 -10 -134 -47q-51 -38 -67 -103q-8 -28 -25.5 -45.5t-41.5 -27.5t-52 -11t-54 8q-28 10 -47.5 29t-28.5 43.5t-9 51z" />
<glyph unicode="&#xe4d;" d="M-608 1988q0 58 22.5 110.5t61.5 91t91.5 61.5t110.5 23q57 0 109.5 -23t91 -61.5t61.5 -91t23 -110.5q0 -59 -23 -111t-61.5 -91t-91 -61t-109.5 -22q-58 0 -110.5 22t-91.5 61t-61.5 91t-22.5 111zM-425 1988q0 -20 8 -39.5t22.5 -33t33.5 -22t39 -8.5t38.5 8.5t33 22 t22.5 33t8 39.5t-8 39t-22.5 33t-33 22.5t-38.5 8.5t-39 -8.5t-33.5 -22.5t-22.5 -33t-8 -39z" />
<glyph unicode="&#xe4e;" d="M-674 1876q16 99 82 164t172 94q11 44 34 84t61.5 72t90.5 52t121 23q24 2 46.5 -4.5t40 -19.5t30.5 -31.5t16 -42.5q3 -25 -2 -48t-18 -41.5t-33 -30t-44 -11.5q-33 0 -55 -11t-35 -30.5t-18 -45.5t-5 -54q0 -22 -7 -34.5t-18 -18.5t-24 -7.5t-24 -1.5q-73 0 -109 -29 t-43 -88q-3 -27 -17 -48.5t-35.5 -34.5t-49.5 -17t-56 0t-48.5 19t-34 37.5t-18 49.5t-0.5 54z" />
<glyph unicode="&#xe4f;" horiz-adv-x="1856" d="M132 746q0 109 28.5 210t80 188t124.5 159.5t160.5 123t189.5 78.5q103 28 211.5 28t208 -28t187 -78.5t159 -123t122 -159.5t79.5 -187q28 -102 28 -211q0 -108 -28.5 -208t-79 -188t-122 -160.5t-159 -123t-187.5 -78.5q-99 -28 -207 -28q-110 0 -212 28t-189.5 78.5 t-160.5 123t-124.5 160.5t-80 188t-28.5 208zM352 755q0 -117 44 -222t121.5 -184t182.5 -124q107 -45 227 -45q77 0 149 20t135 58.5t115.5 91t89.5 116t57 136.5t20 153q0 79 -20 151t-57 135t-89.5 114.5t-115.5 88.5t-135 57t-149 20q-120 0 -226 -44t-183.5 -121.5 t-121.5 -180.5t-44 -220zM505 755q0 84 33.5 158.5t90.5 132t134 89.5q78 33 164 33q84 0 158.5 -32.5t130 -90t88 -132.5t32.5 -158q0 -87 -32.5 -163t-88 -133t-130.5 -89.5t-158 -32.5q-88 0 -164.5 32.5t-133.5 89.5t-90.5 133t-33.5 163zM699 755q0 -49 16.5 -90.5 t47.5 -72t72 -47.5q43 -17 92 -17q45 0 84 17t68 47.5t46.5 72t17.5 90.5q0 46 -17.5 85t-46.5 69.5t-69 47.5q-38 17 -83 17q-49 0 -91 -17t-73 -47.5t-47.5 -69.5t-16.5 -85z" />
<glyph unicode="&#xe50;" horiz-adv-x="1628" d="M106 655q0 162 48.5 287t141 210.5t223 129.5t298.5 44q164 0 295 -44t222.5 -129.5t140 -210.5t48.5 -287q0 -185 -56 -314t-152.5 -212t-225 -121t-272.5 -38q-98 0 -188.5 16.5t-169.5 52t-144 90t-111.5 131t-72 174.5t-25.5 221zM406 641q0 -92 29.5 -168.5t83 -133 t129.5 -88t169 -31.5q94 0 168.5 31.5t127 88t81.5 133t29 168.5q0 117 -32.5 200t-88 135t-129.5 75.5t-156.5 23.5t-158 -23.5t-131 -75.5t-88.5 -134.5t-33 -200.5z" />
<glyph unicode="&#xe51;" horiz-adv-x="1617" d="M77 198q-5 28 1 56.5t24 51.5q17 24 42 40t52 20t55.5 -1.5t51.5 -25.5q87 -73 193 -99.5t225 -26.5q106 0 195 31t154 91.5t101.5 150t36.5 206.5q0 87 -25 161t-75.5 126.5t-127 82t-178.5 29.5q-84 0 -153.5 -20t-119 -53.5t-77 -78t-27.5 -90.5q0 -37 15 -73.5 t50 -64t90.5 -45t137.5 -15.5q30 3 53 -3.5t38.5 -20.5t24 -34t10.5 -41q3 -44 -15 -70.5t-47.5 -41t-64.5 -18.5t-66 -4h-25q-104 0 -197 29t-162.5 83.5t-109.5 129.5t-40 168q0 90 26.5 162t74.5 128t112.5 96t140 65t158.5 37t166 12q99 0 191 -15t172 -47t146 -82.5 t113 -121t73 -162t26 -205.5q0 -162 -54.5 -295t-156 -228t-247.5 -146.5t-330 -51.5q-69 0 -142.5 3t-148.5 16t-151 39.5t-149 71.5q-25 16 -40 41t-20 53z" />
<glyph unicode="&#xe52;" horiz-adv-x="1847" d="M-5.5 1346.5q-1.5 23.5 4.5 46.5q7 27 23.5 47.5t39 34.5t49 19t55.5 2q56 -7 103 -38t80.5 -80.5t52 -116.5t18.5 -148v-542q0 -71 34 -131.5t101 -105.5t167 -71t233 -26q126 0 215.5 24.5t147.5 64.5t85.5 91.5t27.5 105.5v362q0 39 -9 69t-26 51.5t-41 35.5t-52 20 l-198 -176l-197 166q-20 -1 -38.5 -12t-33.5 -30t-24.5 -48.5t-9.5 -68.5v-80q0 -37 1.5 -73.5t11 -66.5t28.5 -49q21 -20 55 -20h13q24 0 45.5 -9t37.5 -24t25 -36.5t9 -45.5q0 -25 -9 -46.5t-25 -37t-37.5 -25t-45.5 -9.5h-40q-87 0 -147 21.5t-100.5 57.5t-63 82.5 t-33.5 94.5t-14.5 95t-3.5 84v70q0 75 26 144t73.5 125t116.5 98t154 65q9 3 24 4.5t33 -1t37 -9.5t37 -23l95 -81l88 81q20 19 41.5 27t42.5 9.5t39 -1.5q17 -3 31 -6q83 -17 153 -54t120 -88t79 -115q28 -63 28 -138v-344q0 -103 -25.5 -186t-71.5 -148t-109.5 -113 t-140 -79t-163 -45t-177.5 -14h-148q-184 0 -326.5 43t-240.5 123.5t-149 193.5q-52 115 -52 255v480q0 70 -15 109.5t-49 53.5q-20 9 -34.5 24.5t-22 36.5t-9 44.5z" />
<glyph unicode="&#xe53;" horiz-adv-x="1657" d="M117 593v99q0 137 28.5 242.5t85 179.5t137.5 121.5t184 70.5q11 2 30 4.5t40.5 -0.5t45 -12.5t46.5 -29.5l117 -100l124 100q27 23 55 32.5t53 11.5t45 -1.5t35 -6.5q103 -23 178 -69.5t123.5 -110.5t73 -143t24.5 -164v-694q0 -31 -12.5 -57t-33 -44.5t-48 -28.5 t-58.5 -10q-32 0 -59 10t-47 28.5t-31.5 44.5t-11.5 57v694q0 42 -15.5 82.5t-40.5 71.5t-57.5 50.5t-66.5 20.5l-233 -190l-225 190q-30 -7 -62.5 -26t-60 -59t-45 -104t-17.5 -158v-97q0 -62 1 -125.5t15.5 -115t46 -83.5t90.5 -32q15 0 41 0.5t60 3.5q29 3 52.5 -5.5 t40 -26t25.5 -40t9 -50.5q0 -24 -7.5 -46t-23.5 -38.5t-36 -28.5t-44 -17q-125 -23 -215 -9t-153.5 53t-103.5 100t-62 134.5t-29.5 156.5t-7.5 164z" />
<glyph unicode="&#xe54;" horiz-adv-x="1657" d="M117 571v143q0 148 50 259t143 183t225.5 108t295.5 36h253q37 0 63 7t44.5 21.5t30 35t18.5 46.5q8 30 28 53t45 36.5t56 17.5q31 5 61 -4q31 -9 55 -29t37.5 -45.5t16.5 -56.5t-6 -61q-17 -55 -48.5 -106t-84 -89t-127.5 -61t-178 -23h-290q-89 0 -160.5 -18.5 t-122 -55t-77.5 -90.5t-27 -123v-173q0 -70 20.5 -130t62.5 -104.5t108 -69.5t156 -25h19q-20 19 -37.5 42.5t-30 50.5t-20.5 57t-8 62q0 18 3 46t13.5 59.5t31 64.5t57 61t91 48t130.5 28q27 3 51.5 -4t44.5 -21.5t33.5 -36t16.5 -46.5q3 -26 -3.5 -50.5t-21 -43.5 t-36.5 -33t-48 -18q-27 -6 -41.5 -16.5t-21.5 -21.5t-8 -22q-2 -10 -2 -19q0 -37 16 -71t41 -60t55.5 -41t59.5 -15h306q25 0 47.5 -10t38 -27t24 -40.5t8.5 -49.5t-8.5 -49t-24 -40t-38 -27t-47.5 -10h-724q-121 0 -214 25.5t-162 68.5t-114.5 100.5t-73.5 120.5 t-39.5 128.5t-11.5 127.5z" />
<glyph unicode="&#xe55;" horiz-adv-x="1657" d="M117 571v143q0 118 31.5 212t92.5 164t147 116q87 47 195 70h-1q-3 8 -5 23t-2 27q0 54 21.5 103.5t58.5 86.5t87 58.5t107 21.5q62 0 113.5 -21.5t89.5 -58.5t58.5 -86.5t20.5 -103.5v-12t-1.5 -7t-1.5 -4q49 8 74.5 36t37.5 71q8 30 28 53t45 36.5t56 17.5q31 5 61 -4 q31 -9 55 -29t37.5 -45.5t16.5 -56.5t-6 -61q-17 -55 -48.5 -106t-84 -89t-127.5 -61t-178 -23h-290q-89 0 -160.5 -18.5t-122 -55t-77.5 -90.5t-27 -123v-173q0 -70 20.5 -130t62.5 -104.5t108 -69.5t156 -25h19q-20 19 -37.5 42.5t-30 50.5t-20.5 57t-8 62q0 18 3 46 t13.5 59.5t31 64.5t57 61t91 48t130.5 28q27 3 51.5 -4t44.5 -21.5t33.5 -36t16.5 -46.5q3 -26 -3.5 -50.5t-21 -43.5t-36.5 -33t-48 -18q-27 -6 -41.5 -16.5t-21.5 -21.5t-8 -22q-2 -10 -2 -19q0 -37 16 -71t41 -60t55.5 -41t59.5 -15h306q25 0 47.5 -10t38 -27t24 -40.5 t8.5 -49.5t-8.5 -49t-24 -40t-38 -27t-47.5 -10h-724q-121 0 -214 25.5t-162 68.5t-114.5 100.5t-73.5 120.5t-39.5 128.5t-11.5 127.5zM761 1326q0 -42 25 -69t63 -27q45 0 70.5 27t25.5 69q0 44 -25.5 69t-70.5 25q-38 0 -63 -25t-25 -69z" />
<glyph unicode="&#xe56;" horiz-adv-x="1680" d="M80 1255.5q-4 27.5 2.5 53t22 48t39.5 37.5q25 16 52 19.5t52 -3t48 -21.5t39 -39l85 -137q40 18 89.5 36.5t107.5 33.5t127.5 25t147.5 13q132 3 234 -18.5t178.5 -64.5t129 -102t84 -130t45.5 -150.5t14 -160.5v-92q0 -84 -20.5 -163.5t-60.5 -150t-101.5 -128.5 t-142.5 -99.5t-182 -62.5q-100 -19 -221 -16q-134 3 -245.5 35.5t-191.5 90t-123.5 138t-43.5 181.5q0 94 32 163.5t91.5 113.5t143.5 65t187 21h36q24 0 45.5 -8.5t36.5 -24.5t25 -37q9 -23 9 -46q0 -24 -9.5 -45t-24.5 -36.5t-36.5 -24t-45.5 -8.5h-24q-52 0 -84 -11.5 t-50 -31t-25 -45t-7 -55.5q0 -38 23.5 -70.5t65 -57t100 -40t130.5 -15.5q80 -2 153.5 21t130.5 69.5t91.5 115t34.5 160.5v87q0 97 -25.5 168.5t-73 118.5t-115.5 70q-70 22 -156 20q-118 -1 -234 -34q-115 -33 -244 -107q-13 -9 -32 -19t-40.5 -13t-45.5 9q-25 11 -48 47 l-160 256q-16 24 -20 51.5z" />
<glyph unicode="&#xe57;" horiz-adv-x="1966" d="M120 593v95q0 260 113.5 414t322.5 201q12 3 29.5 4t39 -2.5t44.5 -15t46 -32.5l80 -82l79 82q23 23 45 34.5t43.5 14t38.5 0.5t29 -3q117 -27 194 -83.5t122 -135.5t63 -177t18 -208v-101q0 -30 -3 -70t-9 -84.5t-18.5 -89.5t-30.5 -85q84 46 130.5 141t46.5 231v472 q0 81 18 148t50.5 116.5t78.5 80.5t102 38q27 3 55 -2t51.5 -19t40.5 -34.5t24 -47.5q6 -23 4.5 -46.5t-9 -44.5t-22.5 -37q-16 -15 -36 -24q-34 -14 -48 -54t-14 -109v-412q0 -137 -39.5 -253t-117.5 -204.5t-196 -144.5q-118 -58 -277 -75q-30 -3 -60 4.5t-55.5 27.5 t-41.5 48t-19.5 57.5t4.5 60t28 58.5q30 42 46.5 83.5t24.5 84t9 86t1 90.5v110q0 79 -12.5 137.5t-34 99.5t-50 66t-60.5 33l-190 -193l-197 200q-29 -7 -60.5 -29.5t-58 -65.5t-44.5 -106t-18 -149v-94q0 -62 2.5 -125.5t16.5 -115t45.5 -83.5t90.5 -32h41q25 1 59 4 q29 3 53 -5.5t40.5 -26t26 -40t9.5 -50.5q0 -24 -9 -46t-24 -38.5t-35 -28.5t-44 -17q-124 -23 -215 -9t-154.5 53t-103 100t-61.5 134.5t-30 156.5t-8 164z" />
<glyph unicode="&#xe58;" horiz-adv-x="1653" d="M124 479v235q0 135 41.5 244t124.5 184.5t205.5 116.5t283.5 41h339q37 0 63.5 7t45.5 21.5t31 35t18 46.5q8 30 28 53t45 36.5t56 17.5q31 5 61 -4q31 -9 54.5 -29t37.5 -45.5t16.5 -56.5t-5.5 -61q-17 -55 -48.5 -107.5t-83 -91.5t-126.5 -63t-180 -24h-376 q-87 0 -149.5 -23.5t-102.5 -63t-59 -89.5t-19 -104v-276q0 -41 15 -80t38.5 -70.5t54 -52.5t60.5 -27l245 193l237 -193q33 1 62.5 12.5t51 36t33 65t11.5 100.5q0 26 -2.5 54t-14.5 50t-37.5 38.5t-70.5 20.5q-24 2 -45 12.5t-36.5 26.5t-25 37.5t-9.5 43.5q0 25 9 45.5 t24.5 36.5t36.5 25t46 11q90 5 156.5 -10.5t114 -45t76.5 -70t45.5 -86.5t23 -94.5t6.5 -94.5q0 -194 -78 -311.5t-249 -155.5q-20 -5 -49.5 -10t-61.5 -4t-65 9t-60 30l-129 102l-126 -100q-26 -20 -52.5 -28t-50 -9.5t-44 2t-34.5 8.5q-101 23 -177.5 69.5t-127 110 t-76.5 141.5t-26 162z" />
<glyph unicode="&#xe59;" horiz-adv-x="1683" d="M117 593v99q0 156 25 273.5t84 196.5t154 119t235 40h56.5t63.5 -3.5t65 -10t61 -19.5q24 -17 48.5 -37t50.5 -51l98 96q12 11 28.5 18t41.5 7h73q73 0 109 25t47 83q6 31 26 53t46.5 36t56.5 17q30 4 61 -3q32 -9 55.5 -28.5t36.5 -45t16 -54.5q1 -30 -8 -61 q-17 -60 -46 -111t-79.5 -88t-125.5 -58t-183 -21q-12 0 -26 -7.5t-29 -20t-29.5 -27.5t-25.5 -29l387 -797q13 -25 14.5 -53t-7 -54t-28 -47t-45.5 -33q-25 -13 -54 -14.5t-54.5 7.5t-47 27.5t-32.5 43.5l-398 821q-44 89 -98 136t-128 47q-41 0 -77 -17t-62.5 -59 t-40.5 -112t-14 -178v-101q0 -62 1 -125.5t15.5 -115t46 -83.5t90.5 -32q15 0 41 0.5t60 3.5q29 3 52.5 -5.5t40 -26t25.5 -40t9 -50.5q0 -24 -7.5 -46t-23.5 -38.5t-36 -28.5t-44 -17q-125 -23 -215 -9t-153.5 53t-103.5 100t-62 134.5t-29.5 156.5t-7.5 164z" />
<glyph unicode="&#xe5a;" horiz-adv-x="2060" d="M106 1072q0 81 21.5 143.5t58.5 110.5t86.5 81.5t106 53.5t115.5 30q61 9 118 9h150q26 0 47.5 -9.5t37 -26.5t24 -40.5t8.5 -49.5t-8.5 -48.5t-24 -40t-37 -27.5t-47.5 -10h-150q-99 0 -147 -44q-47 -43 -47 -134q0 -45 13.5 -88.5t47 -77t91.5 -55t148 -21.5 q191 0 293 71t102 221v257q0 32 11 57.5t32 45t48 29.5t59 10q31 0 58 -10t48 -29.5t32.5 -45t11.5 -57.5v-1254q0 -31 -11.5 -57t-32.5 -44.5t-48 -28.5t-58 -10q-32 0 -59 10t-48 28.5t-32 44.5t-11 57v576q-72 -60 -170 -90.5t-215 -30.5q-155 0 -270.5 35t-194.5 100 t-118 156t-39 203zM1622 123v1254q0 32 12 57.5t32 45t48 29.5t58 10q31 0 58.5 -10t48 -29.5t32 -45t11.5 -57.5v-1254q0 -31 -11.5 -57t-32 -44.5t-48 -28.5t-58.5 -10q-32 0 -59 10t-47 28.5t-32 44.5t-12 57z" />
<glyph unicode="&#xe5b;" horiz-adv-x="3217" d="M146 779q0 85 19 171.5t57 168t94 152t129 123.5t162 84t195 31q123 0 219 -35t164 -96t109.5 -142t58.5 -171q5 -30 -1 -57t-21 -48.5t-38 -37t-52 -21.5q-28 -6 -56 0t-50 21t-38 38q-16 24 -22 52q-23 101 -83.5 152.5t-160.5 58.5q-92 0 -162.5 -36.5t-120 -98 t-76 -146t-26.5 -181.5q0 -90 34.5 -174.5t96 -149.5t147 -104.5t188.5 -39.5q96 0 172.5 29.5t135 81t101.5 123.5t71.5 158t44.5 183t19 199q0 31 12 59.5t33 50t48.5 33t60.5 11.5q72 0 117 -56q59 -71 106 -140q47 -70 82 -121q17 24 36.5 53.5t40 61t42.5 63.5t45 62 q12 14 27.5 22t32.5 8.5t32 -6.5t25 -21q45 -64 85 -129.5t70 -116.5l113 157h479q30 0 57 -11.5t46.5 -31.5t31.5 -46q12 -25 12 -57q0 -30 -12 -57t-31.5 -47t-46.5 -31.5t-57 -11.5h-385q-43 -51 -86.5 -126.5t-89.5 -160.5q-17 -30 -42.5 -29t-42.5 31q-45 88 -85 158 q-41 71 -78 131q-38 -53 -78.5 -133t-83.5 -186q-11 -21 -28.5 -31t-36 -9.5t-35.5 13t-26 36.5q-38 94 -75.5 169.5t-71.5 129.5q-23 -163 -93 -302.5t-176 -240.5t-240.5 -158t-288.5 -57q-122 0 -225 31.5t-187 86.5t-148 129.5t-107.5 161t-65.5 181t-22 189.5z" />
<glyph unicode="&#x2000;" horiz-adv-x="1482" />
<glyph unicode="&#x2001;" horiz-adv-x="2964" />
<glyph unicode="&#x2002;" horiz-adv-x="1482" />
<glyph unicode="&#x2003;" horiz-adv-x="2964" />
<glyph unicode="&#x2004;" horiz-adv-x="988" />
<glyph unicode="&#x2005;" horiz-adv-x="741" />
<glyph unicode="&#x2006;" horiz-adv-x="494" />
<glyph unicode="&#x2007;" horiz-adv-x="494" />
<glyph unicode="&#x2008;" horiz-adv-x="370" />
<glyph unicode="&#x2009;" horiz-adv-x="592" />
<glyph unicode="&#x200a;" horiz-adv-x="164" />
<glyph unicode="&#x200b;" />
<glyph unicode="&#x2010;" horiz-adv-x="1185" d="M104 671q0 54 39.5 86t105.5 32h689q66 0 105.5 -32t39.5 -86q0 -55 -39.5 -86.5t-105.5 -31.5h-689q-66 0 -105.5 32.5t-39.5 85.5z" />
<glyph unicode="&#x2011;" horiz-adv-x="1185" d="M104 671q0 54 39.5 86t105.5 32h689q66 0 105.5 -32t39.5 -86q0 -55 -39.5 -86.5t-105.5 -31.5h-689q-66 0 -105.5 32.5t-39.5 85.5z" />
<glyph unicode="&#x2012;" horiz-adv-x="1185" d="M104 671q0 54 39.5 86t105.5 32h689q66 0 105.5 -32t39.5 -86q0 -55 -39.5 -86.5t-105.5 -31.5h-689q-66 0 -105.5 32.5t-39.5 85.5z" />
<glyph unicode="&#x2013;" horiz-adv-x="1255" d="M9 698q0 56 40.5 89.5t107.5 33.5h941q67 0 108 -33t41 -90q0 -56 -41 -89.5t-108 -33.5h-941q-67 0 -107.5 33.5t-40.5 89.5z" />
<glyph unicode="&#x2014;" horiz-adv-x="2481" d="M9 698q0 56 40.5 89.5t107.5 33.5h2167q67 0 107.5 -33t40.5 -90q0 -56 -40.5 -89.5t-107.5 -33.5h-2167q-67 0 -107.5 33.5t-40.5 89.5z" />
<glyph unicode="&#x2018;" horiz-adv-x="730" d="M159 1364q0 55 7 102t22 88.5t38 80t54 75.5q17 20 41.5 42.5t54 41.5t60.5 32q33 13 62 13q37 0 55 -19.5t18 -44.5q0 -15 -6.5 -25.5t-18 -21.5t-26.5 -21t-31 -21q-26 -17 -53.5 -38t-51.5 -51t-41 -71.5t-23 -98.5q20 14 41 20t44 6q40 0 70.5 -15t52 -39.5 t32.5 -57.5t11 -67q0 -40 -15 -73.5t-41 -60t-60.5 -41.5t-74.5 -15q-57 0 -98.5 21.5t-69.5 58.5t-40.5 88.5t-12.5 111.5z" />
<glyph unicode="&#x2019;" horiz-adv-x="730" d="M160 1147q0 27 24.5 47t58.5 42q24 15 52 36t51.5 50t41.5 71.5t24 102.5q-20 -15 -41 -20.5t-44 -5.5q-40 0 -70.5 15t-52 39.5t-33 56.5t-11.5 66q0 40 16 74.5t41.5 60.5t60 41.5t74.5 15.5q57 0 98.5 -21.5t68.5 -59.5t40.5 -89.5t13.5 -111.5q0 -107 -30 -189 t-91 -155q-17 -20 -42 -43t-54 -41.5t-60 -31.5t-61 -13q-38 0 -56.5 18.5t-18.5 44.5z" />
<glyph unicode="&#x201c;" horiz-adv-x="1162" d="M133 1364q0 55 8 102t23 88.5t38 80t54 75.5q17 20 41.5 42.5t53.5 41.5t60 32t61 13q37 0 55.5 -19.5t18.5 -44.5q0 -15 -6.5 -26.5t-17 -21.5t-26.5 -20t-33 -21q-27 -16 -54 -36t-50.5 -49t-40.5 -72q-16 -42 -22 -102q20 14 40 20t44 6q40 0 71 -15t51.5 -39.5 t32 -57.5t11.5 -67q0 -40 -15 -73.5t-41.5 -60t-60.5 -41.5t-73 -15q-57 0 -99.5 21.5t-69.5 58.5t-40.5 88.5t-13.5 111.5zM615 1364q0 55 8 102t23 88.5t37.5 80t54.5 75.5q17 20 41.5 42.5t53 41.5t60 32t61.5 13q37 0 55.5 -19.5t18.5 -44.5q0 -15 -6.5 -26.5t-18 -21.5 t-26.5 -20t-32 -21q-27 -16 -54 -36t-50.5 -49t-40.5 -72q-16 -42 -22 -102q20 14 40 20t43 6q40 0 71.5 -15t52 -39.5t32 -57.5t11.5 -67q0 -40 -15 -73.5t-41.5 -60t-60.5 -41.5t-73 -15q-57 0 -99.5 21.5t-69.5 58.5t-40.5 88.5t-13.5 111.5z" />
<glyph unicode="&#x201d;" horiz-adv-x="1162" d="M134 1147q0 27 24.5 48t58.5 41q28 15 55 36t50.5 50t40.5 71.5t22 102.5q-20 -15 -40 -20.5t-43 -5.5q-40 0 -71.5 15t-52.5 39.5t-32.5 56.5t-11.5 66q0 40 16 74.5t41.5 60.5t60 41.5t74.5 15.5q57 0 98.5 -21.5t69 -59.5t41 -89.5t13.5 -111.5q0 -107 -30 -189 q-29 -82 -92 -155q-17 -20 -42 -43t-53.5 -41.5t-60 -31.5t-61.5 -13q-37 0 -56 18.5t-19 44.5zM616 1147q0 27 24.5 48t58.5 41q27 15 54.5 36t51 50t40 71.5t22.5 102.5q-20 -15 -40 -20.5t-43 -5.5q-40 0 -71.5 15t-52.5 39.5t-32.5 56.5t-11.5 66q0 40 15 74.5 t41.5 60.5t61 41.5t73.5 15.5q57 0 98.5 -21.5t69 -59.5t41.5 -89.5t14 -111.5q0 -107 -30 -189t-93 -155q-18 -20 -42 -43t-52.5 -41.5t-60 -31.5t-61.5 -13q-37 0 -56 18.5t-19 44.5z" />
<glyph unicode="&#x2022;" horiz-adv-x="973" d="M70 769q0 79 32 150t88.5 126t132.5 87t160 32q88 0 164.5 -32t133.5 -87t90 -126.5t33 -149.5q0 -84 -33 -157.5t-90 -128t-133.5 -86t-164.5 -31.5q-84 0 -160 31.5t-132.5 86t-88.5 128t-32 157.5z" />
<glyph unicode="&#x202f;" horiz-adv-x="592" />
<glyph unicode="&#x205f;" horiz-adv-x="741" />
<glyph unicode="&#x20ac;" horiz-adv-x="1956" d="M94 699q0 26 9.5 39.5t25 20.5t35 9.5t39.5 2.5h90q-1 23 -2.5 47t-1.5 49t1.5 49.5t2.5 48.5h-94q-20 0 -38.5 2.5t-33.5 10t-24 21t-9 38.5t9.5 39t25 21t35 10t39.5 3h110q32 147 102 271.5t176.5 214.5t249.5 140t320 50q120 0 227.5 -25t196 -76.5t157 -128.5 t114.5 -179q13 -30 12.5 -60.5t-12 -58.5t-34 -50.5t-52.5 -33.5q-30 -13 -60.5 -13t-58.5 11.5t-50 33t-34 51.5q-55 137 -161 203t-249 66q-112 0 -197.5 -32.5t-151.5 -89t-109 -132t-67 -162.5h458q21 0 40.5 -1.5t35 -8.5t24 -20t8.5 -38t-8.5 -40t-22.5 -23t-34 -11 t-43 -3h-484l-2 -40t-1 -40q0 -28 1.5 -57t4.5 -57h481q21 0 40.5 -1t35 -8t24.5 -21q8 -15 8 -37q0 -26 -8.5 -40.5t-22.5 -22.5t-34 -10.5t-43 -2.5h-452q26 -89 68.5 -162.5t107.5 -127t151.5 -83t195.5 -29.5q90 0 160 26.5t121.5 71.5t86 105t53.5 127q8 32 27.5 54.5 t45 37t56.5 18t61 -6.5q31 -8 54.5 -27.5t37.5 -46t17.5 -57t-5.5 -60.5q-37 -121 -99 -213.5t-151.5 -156.5t-206 -96.5t-262.5 -32.5q-185 0 -328.5 48.5t-248.5 135.5t-171.5 208.5t-96.5 266.5h-113q-20 0 -38.5 2t-33.5 9t-24 21.5t-9 38.5z" />
<glyph unicode="&#x2122;" horiz-adv-x="2275" d="M160 1672q0 13 5 26.5t15 24t26 17.5t39 7h519q22 0 38 -7t26 -17.5t13.5 -24t3.5 -26.5t-3.5 -26t-13.5 -23t-26 -17t-38 -7h-153v-642q0 -36 -12.5 -58t-29.5 -35t-35 -18q-19 -5 -31 -5q-13 0 -30.5 5t-35 18t-29.5 35t-12 58v642h-151q-23 0 -39 7t-26 17t-15 23.5 t-5 25.5zM990 957v636q0 50 15.5 82t39 51.5t51 26.5t51.5 7q73 0 124.5 -37.5t82.5 -109.5l153 -429q17 50 37 104.5t39.5 110t39.5 110t37 104.5q32 73 82.5 110t125.5 37q24 0 51 -7t50.5 -26.5t38.5 -51.5t15 -82v-636q0 -36 -12 -58t-29 -35t-35.5 -18t-31.5 -5t-30 5 t-35 18t-30 35t-12 58v474l-8 2q-23 -59 -45.5 -122t-46 -126.5t-46.5 -125.5t-46 -121q-19 -44 -46 -70.5t-63 -26.5q-34 0 -62 25.5t-46 71.5l-185 495l-7 -2v-474q0 -36 -13 -58t-30 -35t-35.5 -18t-30.5 -5q-13 0 -30.5 5t-35 18t-30 35t-12.5 58z" />
<glyph unicode="&#x25cc;" horiz-adv-x="1668" d="M388 721l143 70q-6 -33 -7 -68t7 -71zM509 406l59 143q20 -30 42 -55t52 -44zM535 1035l146 -50q-39 -20 -66 -42t-44 -51zM761 1021l74 143l66 -139q-37 9 -74.5 7t-65.5 -11zM769 406q33 -8 61 -7.5t68 11.5l-63 -140zM1000 988l160 47l-62 -146q-20 30 -45.5 55.5 t-52.5 43.5zM1002 446q30 19 53 42t43 50l40 -135zM1143 655q11 30 11 63t-9 70l136 -70z" />
<glyph unicode="&#x25fc;" horiz-adv-x="1317" d="M0 0v1318h1318v-1318h-1318z" />
<glyph unicode="&#xf700;" horiz-adv-x="1441" d="M139 1183q3 30 17 58q76 142 221.5 217t357.5 75q64 0 128.5 -8t124.5 -28q46 9 73 38t39 65q13 30 37 48.5t52.5 26t61 4t59.5 -21.5q27 -15 46.5 -39.5t28 -53t4.5 -58.5q-2 -30 -19 -59q-46 -73 -137 -107q47 -59 72.5 -140.5t22.5 -192.5q-1 -88 -26.5 -193t-66 -218 t-90.5 -229q-51 -115 -103 -227q-31 -73 -96 -115t-149 -42q-88 0 -153.5 40t-94.5 119l-186 524h-110q-26 0 -46 9.5t-34 25t-22 37t-8 47.5t8 47.5t22 37t34 25t46 9.5h275q25 0 41.5 -8t28 -22.5t19.5 -32.5q6 -19 15 -42l166 -484q34 80 71.5 170t68 178.5t50.5 171.5 t22 150q2 146 -74.5 219.5t-229.5 73.5q-105 0 -171.5 -41.5t-99.5 -133.5q-12 -32 -37 -51.5t-55.5 -26.5t-63.5 -3.5t-59 18.5q-28 15 -47.5 37.5t-28 49t-5.5 56.5z" />
<glyph unicode="&#xf701;" d="M-1599 1846q0 26 8 47.5t23 38t35 25.5t46 9h818q25 0 45.5 -9t35.5 -25.5t22.5 -38t7.5 -47.5t-7.5 -46.5t-22.5 -37t-36 -26t-45 -9.5h-818q-26 0 -46 9.5t-35 26t-23 38t-8 45.5z" />
<glyph unicode="&#xf702;" d="M-1599 1846q0 26 8 47.5t23 38t35 25.5t46 9h616v96q0 30 11.5 54.5t31 42t46 27.5t54.5 10q30 0 56 -10t45 -27.5t30.5 -42.5t11.5 -54v-200q0 -30 -11.5 -54.5t-30.5 -42.5t-45 -28t-56 -10h-759q-26 0 -46 9.5t-35 26t-23 38t-8 45.5z" />
<glyph unicode="&#xf703;" d="M-1599 1846q0 26 8 47.5t23 38t35 25.5t46 9h399v25q0 54 20.5 102.5t56.5 84.5t84.5 56.5t102.5 20.5q55 0 102.5 -20.5t83.5 -56.5t57 -84q20 -49 20 -103q0 -56 -20.5 -103.5t-56.5 -83t-83.5 -56.5t-102.5 -21h-663q-26 0 -46 9.5t-35 26t-23 38t-8 45.5zM-918 1991 q0 -19 7 -35.5t20 -28.5t31 -19.5t36 -7.5q20 0 37.5 7.5t30 19.5t20.5 29q8 15 8 35t-8 37.5t-20.5 30.5t-30 20t-37.5 7q-18 0 -36 -7t-31 -20t-20 -30.5t-7 -37.5z" />
<glyph unicode="&#xf704;" d="M-1599 1846q0 26 8 47.5t23 38t35 25.5t46 9h226v103q0 27 10 51t29 40t44 26q23 10 51 10q27 0 52 -10t44 -26t29.5 -40t10.5 -51v-103h134v103q0 27 11 51t29.5 40t43.5 26t52 10t52 -10t44 -26t29.5 -40t10.5 -51v-214q0 -29 -10.5 -52.5t-29.5 -40t-43 -26t-53 -9.5 h-766q-26 0 -46 9.5t-35 26t-23 38t-8 45.5z" />
<glyph unicode="&#xf705;" d="M-951 1843v258q0 30 11.5 55.5t31.5 43.5t46.5 28.5t57.5 10.5q30 0 56.5 -10.5t46 -28.5t31 -43t11.5 -56v-258q0 -30 -11.5 -55.5t-31 -43t-45.5 -27.5q-25 -11 -57 -11q-30 0 -57 10.5t-47 28t-31.5 43t-11.5 55.5z" />
<glyph unicode="&#xf706;" d="M-1404 2066q0 23 7.5 43t22 36t34.5 24q19 7 42 7h177q23 0 42 -7.5t33.5 -23.5t23 -36t8.5 -43v-110q56 2 103 14t81.5 33.5t59 50t35.5 61.5q10 24 27 42t38.5 27.5t46.5 9.5q25 1 48 -9t41 -28t27 -40.5t10.5 -48t-9.5 -49.5q-26 -60 -71.5 -111.5t-113 -90 t-156 -61.5t-198.5 -23h-100q-22 0 -42 8.5t-34.5 24.5t-23 36t-8.5 43v111h-45q-23 0 -42.5 8.5t-34 23.5t-22 35t-7.5 43z" />
<glyph unicode="&#xf707;" d="M-1514 1832q0 80 20.5 138t55 96t77.5 57t87 19q47 0 88.5 -23t68.5 -61q32 37 72.5 60.5t89.5 23.5q31 0 62.5 -10t57.5 -29t46 -47t28 -65q19 20 34.5 48.5t22.5 65.5q6 26 19.5 44.5t33 30t43 14t46.5 -2.5q27 -7 46.5 -21.5t29.5 -34.5t11.5 -43.5t-5.5 -48.5 q-16 -55 -43.5 -106t-63.5 -91.5t-79 -69.5t-90 -37h-93q-33 0 -54 20.5t-24 53.5q-1 22 -4.5 40.5t-10 32t-18 21.5t-28.5 8q-23 0 -35 -16t-15 -41q-3 -30 -24 -51t-53 -21q-33 0 -55.5 20t-24.5 52q-3 30 -14.5 43.5t-36.5 13.5t-38.5 -21.5t-15.5 -61.5 q-1 -56 -32.5 -82.5t-77.5 -26.5q-49 0 -76.5 31.5t-27.5 77.5z" />
<glyph unicode="&#xf708;" d="M-1276 2022q0 23 7.5 43t20 35t31.5 23.5t42 8.5h130v72q0 28 10.5 51.5t29 41t43.5 26.5t54 9q27 0 52 -9t44.5 -26.5t30 -41t10.5 -51.5v-72h129q23 0 41.5 -8.5t32 -23.5t20.5 -36t7 -42q0 -23 -7 -43t-20.5 -35t-32 -23.5t-41.5 -8.5h-129v-73q0 -29 -11.5 -52.5 t-30 -40.5t-43.5 -26.5t-53.5 -9.5t-53 9.5t-43 26.5t-29 40.5t-10.5 52.5v73h-130q-23 0 -42 8.5t-31.5 23.5t-20 35t-7.5 43z" />
<glyph unicode="&#xf709;" d="M-1154.5 1841.5q0.5 26.5 11.5 53.5q45 113 148 183t257 87q53 6 89 -20t44 -70q4 -23 -1 -46.5t-17 -40.5t-30.5 -29.5t-41.5 -15.5q-83 -10 -133.5 -46.5t-66.5 -103.5q-9 -27 -26 -45.5t-41.5 -28t-52.5 -9.5q-29 -1 -55 7q-28 10 -46.5 29.5t-28.5 44t-9.5 51z" />
<glyph unicode="&#xf70a;" d="M-435 1843v285q0 30 11.5 55.5t31.5 43.5t46.5 28t56.5 10t56.5 -10t46.5 -28t31.5 -43.5t11.5 -55.5v-285q0 -30 -11.5 -55.5t-31.5 -43t-46.5 -28t-56.5 -10.5t-56.5 10.5t-46.5 28t-31.5 43t-11.5 55.5z" />
<glyph unicode="&#xf70b;" d="M-1028 2071q0 23 9 43t24 35t35 24t43 9h186q23 0 44 -9t36 -24t24 -35t9 -43v-113q60 1 108 14t84.5 34.5t61 50t37.5 62.5q10 25 28.5 42.5t41 27.5t48 10t50.5 -10q26 -10 44 -27.5t28 -40.5t11.5 -49t-10.5 -50q-26 -60 -74.5 -112t-118.5 -91.5t-163 -61.5t-209 -22 h-105q-23 0 -43 9t-35 24t-24.5 35t-9.5 43v112h-49q-23 0 -43 9t-35 24t-24 35q-9 22 -9 45z" />
<glyph unicode="&#xf70c;" d="M-1257 1829q0 83 23.5 144.5t63 101.5t89 59.5t101.5 19.5q55 0 101.5 -24t79.5 -62q37 37 82 61.5t104 24.5q35 0 70 -10t66 -30t53 -49t32 -66q17 22 36.5 54.5t28.5 72.5q5 28 21.5 46.5t38.5 30.5t48.5 15t52.5 -3q32 -7 54.5 -22t34 -36t13 -45t-5.5 -50 q-19 -59 -51 -112.5t-73.5 -98.5t-91 -75t-102.5 -40h-107q-37 0 -60.5 21.5t-27.5 54.5q-3 46 -19.5 76t-49.5 30q-26 0 -41.5 -21.5t-17.5 -50.5q-1 -16 -7.5 -30t-17 -25t-26.5 -17.5t-36 -6.5q-41 0 -66 22.5t-27 56.5q-1 32 -14 52t-40 20q-29 0 -47 -23t-19 -66 q-1 -29 -11 -49t-26.5 -34t-39 -20.5t-47.5 -6.5q-29 0 -52 8.5t-38.5 23.5t-23.5 35t-8 43z" />
<glyph unicode="&#xf70d;" d="M-655 2029q0 23 7 44t21 36t33 24t42 9h127v70q0 29 11.5 53t30 41.5t44.5 26.5t54 9q29 0 54 -9t43.5 -26.5t30 -41.5t11.5 -53v-70h127q23 0 41.5 -9t32.5 -24t21.5 -35.5t7.5 -44.5q0 -23 -7.5 -43t-21.5 -35t-32.5 -24t-41.5 -9h-127v-70q0 -29 -11.5 -53.5 t-30 -41.5t-44 -26.5t-54.5 -9.5t-54 9.5t-43.5 26.5t-30 41.5t-11.5 53.5v70h-127q-23 0 -42 9t-33 24t-21 35t-7 43z" />
<glyph unicode="&#xf70e;" d="M-608 1838q-1 27 10 52q45 113 148.5 184t257.5 88q53 6 88 -20t45 -71q5 -23 0 -46t-17.5 -41t-31 -30t-41.5 -15q-83 -10 -133.5 -46.5t-66.5 -102.5q-9 -27 -26 -45.5t-41 -28t-52 -10.5t-55 9q-29 10 -47.5 28.5t-28.5 42.5t-9 52z" />
<glyph unicode="&#xf70f;" horiz-adv-x="2368" d="M57 1094q3 20 19 56q34 74 89 144t133 123t182.5 84.5t237.5 31.5q126 0 224 -24.5t170.5 -67t124 -103t83 -130.5t46 -148.5t14.5 -158.5v-380q0 -73 23 -128.5t61.5 -93t88.5 -57t104.5 -19.5t102.5 18t85 53.5t58.5 92t21.5 134.5v855q0 31 12 57.5t33 45t48 29.5 t58 11q32 0 60 -11t48.5 -29.5t32.5 -45t12 -57.5v-881q0 -136 -47.5 -236t-128 -166t-183.5 -98t-213 -32q-113 0 -218 34t-185.5 101.5t-129.5 166t-49 230.5v413q0 64 -17 128t-59 114.5t-111 82t-170 34.5q-82 1 -144 -17.5t-107 -49t-71.5 -70.5t-36.5 -79 q56 -40 81 -111t25 -161v-534h66q25 0 46 -9.5t36 -26.5t23 -39.5t8 -46.5q0 -26 -8 -48t-23 -39t-36.5 -26.5t-45.5 -9.5h-244q-25 0 -47.5 9.5t-39.5 26.5t-26.5 39t-9.5 48v686q0 40 -8.5 81.5t-32.5 79.5q-23 31 -38.5 50.5t-23 36.5t-4.5 37z" />
<glyph unicode="&#xf710;" d="M-1103 1862v127q0 29 11 53t30.5 41.5t44.5 26.5t53 9q29 0 54.5 -9t44 -26.5t30 -41.5t11.5 -53v-27h890q24 0 44 -9.5t34.5 -24.5t22 -36.5t7.5 -45.5t-7.5 -45t-22 -36.5t-34.5 -24t-44 -8.5h-1030q-28 0 -53 9t-44.5 26.5t-30.5 41.5t-11 53z" />
<glyph unicode="&#xf711;" d="M-1153 1988q0 58 22.5 110.5t61 91t90.5 61.5t111 23q57 0 109.5 -23t91.5 -61.5t62 -91t23 -110.5q0 -59 -23 -111t-62 -91t-91.5 -61t-109.5 -22q-59 0 -111 22t-90.5 61t-61 91t-22.5 111zM-970 1988q0 -20 8 -39.5t22.5 -33t33 -22t38.5 -8.5t39.5 8.5t33 22t22 33 t8.5 39.5t-8.5 39t-22 33t-32.5 22.5t-40 8.5q-20 0 -38.5 -8.5t-33 -22.5t-22.5 -33t-8 -39z" />
<glyph unicode="&#xf712;" d="M-1533 2072q0 90 31 156t83 109t119 63t139 20h615q21 0 39 -9t31 -24t19.5 -35t6.5 -43q0 -47 -26.5 -77t-69.5 -30h-592q-47 0 -76 -13t-44.5 -33t-21.5 -42.5t-6 -41.5q0 -13 4.5 -30t14.5 -33.5t25.5 -27t40.5 -10.5q27 0 46.5 16t27.5 45q9 37 36 56.5t64 19.5 q40 0 68.5 -17t37.5 -59q6 -29 23 -45t43 -16q23 0 38 14t19 40v-2q4 22 16.5 38.5t29 27t35.5 15t41 1.5t43.5 -13t37.5 -28t24 -43t5 -56q-7 -57 -31 -98.5t-58 -68t-76 -39.5q-41 -13 -87 -13q-34 0 -64 10t-55 26t-46 36t-38 41q-17 -23 -40.5 -43t-52.5 -35.5 t-59.5 -25t-62.5 -9.5q-84 0 -142 33.5t-92 83t-48.5 106t-14.5 103.5z" />
<glyph unicode="&#xf713;" d="M-864 2460v223q0 28 11.5 51.5t30 41.5t44.5 27.5t54 9.5q29 0 54 -9.5t44.5 -27.5t30 -41.5t10.5 -51.5v-223q0 -29 -10.5 -53.5t-30 -41.5t-44.5 -26.5t-54 -9.5q-28 0 -54 9.5t-44.5 26.5t-30 41.5t-11.5 53.5z" />
<glyph unicode="&#xf714;" d="M-1297 2677q0 23 9.5 43.5t24.5 35.5t35 24.5t43 9.5h181q23 0 43 -9.5t35 -24.5t24 -35q10 -21 10 -44v-112q60 2 108.5 14t86.5 33.5t63 51t38 63.5q10 24 28.5 42t41.5 27.5t48 10t50 -9.5q26 -10 43 -28t26.5 -40.5t10.5 -48.5t-11 -50q-26 -60 -73.5 -112.5 t-118.5 -91.5t-163.5 -61.5t-207.5 -22.5h-96q-23 0 -44 9.5t-36 24.5t-24 35t-9 43v111h-54q-23 0 -43 9.5t-35 24.5t-24.5 35t-9.5 43z" />
<glyph unicode="&#xf715;" d="M-1304 2430q0 77 21.5 134t56.5 94.5t80 56t92 18.5q49 0 89.5 -23t72.5 -57q31 34 73.5 57t94.5 23q32 0 64 -9.5t59.5 -28.5t46.5 -46.5t28 -63.5q15 20 34 54t27 67q6 22 21 41t34.5 29.5t43 14t47.5 -0.5q29 -7 48 -21.5t30 -33.5t12.5 -41.5t-6.5 -45.5 q-17 -54 -45.5 -105.5t-65.5 -93t-81.5 -70t-93.5 -37.5h-95q-35 0 -56.5 20t-23.5 52q-3 41 -16.5 69t-45.5 28q-23 0 -37 -14.5t-17 -38.5q-3 -30 -23 -50.5t-54 -20.5q-32 0 -57 17.5t-28 53.5q-1 26 -14.5 39.5t-36.5 13.5q-29 0 -42 -20.5t-14 -60.5q-2 -53 -34 -78 t-79 -25q-52 0 -81 30t-29 73z" />
<glyph unicode="&#xf716;" d="M-1095 2637q0 23 7 43t20 34t31.5 23t41.5 9h131v74q0 27 11 50.5t29.5 41t43 26.5t52.5 9q27 0 51.5 -9t43 -26.5t29.5 -41t11 -50.5v-74h131q23 0 41 -9t30.5 -23t20 -34t7.5 -43t-7.5 -42.5t-20 -33.5t-31 -22.5t-40.5 -8.5h-131v-75q0 -28 -11 -51.5t-29.5 -40 t-43.5 -26t-52 -9.5t-52.5 9.5t-43 26t-28.5 40t-11 51.5v75h-131q-23 0 -41.5 8.5t-31.5 22.5t-20 34t-7 42z" />
<glyph unicode="&#xf717;" d="M-844.5 2281.5q0.5 26.5 12.5 53.5q44 113 147 183t257 87q53 6 89 -19t44 -71q5 -23 0 -45.5t-17.5 -40.5t-31 -30t-41.5 -15q-83 -10 -133 -47q-51 -38 -67 -103q-8 -28 -25.5 -45.5t-41.5 -27.5t-52 -11t-55 8q-29 10 -48.5 29t-28.5 43.5t-8.5 51z" />
<glyph unicode="&#xf718;" d="M-588 -726q0 24 7.5 45.5t21.5 37t33.5 24t43.5 8.5h236q24 0 43.5 -8.5t34 -24t21.5 -37.5q7 -23 7 -45v-338q0 -30 -11 -54.5t-29.5 -41.5t-44 -27t-55.5 -10t-55 10t-44.5 27t-30 41.5t-10.5 54.5v223h-62q-24 0 -43.5 8.5t-33.5 24.5t-21.5 37.5t-7.5 44.5z" />
<glyph unicode="&#xf719;" d="M-1123 -726q0 24 8 44.5t22.5 36.5t33 24.5t42.5 8.5h236q25 0 44 -8.5t33.5 -24.5t22 -36.5t7.5 -44.5v-91q0 -71 30.5 -108t94.5 -37q60 0 92 37t32 108v92q0 30 11.5 54.5t31 41.5t44.5 26.5t55 9.5t55 -9.5t43.5 -26.5t30 -41.5t11.5 -54.5v-92q0 -77 -20.5 -146 t-69.5 -120.5t-126 -82.5t-190 -31q-106 0 -182 26t-125 72.5t-74 112t-30 144.5h-57q-24 0 -42.5 9t-33 25t-22.5 36.5t-8 45.5z" />
<glyph unicode="&#xf71a;" d="M-512 -784q0 43 16 80.5t43.5 65t65 44t80.5 16.5q41 0 77.5 -16.5t63.5 -44t43.5 -65t16.5 -80.5q0 -41 -16.5 -77.5t-43.5 -63.5t-63.5 -43.5t-77.5 -16.5q-43 0 -80.5 16.5t-65 43.5t-43.5 63.5t-16 77.5z" />
<glyph unicode="&#xf71d;" horiz-adv-x="1987" d="M73.5 1393.5q6.5 30.5 23 55.5t42.5 43q27 18 58 24q32 6 64 1.5t58.5 -20.5t46 -40t24.5 -58l166 -1000l219 744q9 31 27.5 59.5t43.5 48.5t55.5 31.5t66.5 11.5q37 0 68 -12t56 -33.5t43 -50t29 -63.5l226 -739q16 76 29.5 146.5t26.5 140t26.5 139t27.5 142.5 q12 56 15.5 93.5t3.5 70.5q0 62 -24 101t-86 52q-40 9 -65.5 40.5t-25.5 72.5q0 22 7.5 41t21 35t31.5 26t39 13q34 5 67 14.5t62.5 26.5t54.5 40.5t41 58.5q13 30 33 54t45 40.5t54 24.5q28 8 59 5q39 -4 66 -21t43 -42t20 -55.5t-1 -61.5q-9 -41 -31 -75.5t-54.5 -61.5 t-71 -47t-77.5 -32q39 -34 61 -77t31 -91.5t6 -101.5t-17 -107l-209 -856q-9 -34 -28 -63.5t-46.5 -50.5t-61.5 -34q-36 -13 -73 -13t-68.5 11.5t-58 32t-46 48.5t-29.5 61l-226 725l-218 -724q-12 -34 -30.5 -62.5t-45 -48.5t-58.5 -31.5t-69 -11.5q-36 0 -69.5 11.5 t-60 32t-46 48.5t-25.5 61l-266 1195q-7 32 -0.5 62.5z" />
<glyph d="M-1185 1822q-5 27 0 54q15 99 81 164t172 94q11 44 34.5 84t61.5 72t91 52t120 23q24 2 47 -4.5t41 -19.5t30 -31.5t17 -42.5q2 -25 -3 -48t-18.5 -41.5t-32.5 -30t-44 -11.5q-33 0 -55 -11t-35 -30.5t-18.5 -45.5t-5.5 -54q0 -22 -7 -34.5t-18 -18.5t-24 -7.5t-24 -1.5 q-73 0 -108 -29t-44 -88q-3 -27 -17 -48.5t-35.5 -34.5t-48.5 -17t-57 0q-28 4 -48.5 19t-33.5 37.5t-18 49.5z" />
<glyph horiz-adv-x="1259" d="M-1153 1988q0 58 22.5 110.5t61 91t90.5 61.5t111 23q57 0 109.5 -23t91.5 -61.5t62 -91t23 -110.5q0 -59 -23 -111t-62 -91t-91.5 -61t-109.5 -22q-59 0 -111 22t-90.5 61t-61 91t-22.5 111zM-970 1988q0 -20 8 -39.5t22.5 -33t33 -22t38.5 -8.5t39.5 8.5t33 22t22 33 t8.5 39.5t-8.5 39t-22 33t-32.5 22.5t-40 8.5q-20 0 -38.5 -8.5t-33 -22.5t-22.5 -33t-8 -39zM43.5 1122q-3.5 31 6.5 62q27 87 81.5 151.5t125 108t153.5 65t169 21.5q116 0 215.5 -31.5t171.5 -96.5t113.5 -163.5t41.5 -231.5v-884q0 -31 -11.5 -57t-32 -44.5t-48 -28.5 t-58.5 -10t-58.5 10t-48 28.5t-32 44.5t-11.5 57v832q0 162 -61.5 237t-180.5 75q-83 0 -141 -41.5t-83 -121.5q-10 -30 -29.5 -53.5t-45 -39.5t-56.5 -21t-62 2q-35 9 -60 28.5t-40 45t-18.5 56.5z" />
<glyph horiz-adv-x="1259" d="M-1153 1988q0 58 22.5 110.5t61 91t90.5 61.5t111 23q57 0 109.5 -23t91.5 -61.5t62 -91t23 -110.5q0 -59 -23 -111t-62 -91t-91.5 -61t-109.5 -22q-59 0 -111 22t-90.5 61t-61 91t-22.5 111zM-970 1988q0 -20 8 -39.5t22.5 -33t33 -22t38.5 -8.5t39.5 8.5t33 22t22 33 t8.5 39.5t-8.5 39t-22 33t-32.5 22.5t-40 8.5q-20 0 -38.5 -8.5t-33 -22.5t-22.5 -33t-8 -39zM43.5 1122q-3.5 31 6.5 62q27 87 81.5 151.5t125 108t153.5 65t169 21.5q116 0 215.5 -31.5t171.5 -96.5t113.5 -163.5t41.5 -231.5v-884q0 -31 -11.5 -57t-32 -44.5t-48 -28.5 t-58.5 -10t-58.5 10t-48 28.5t-32 44.5t-11.5 57v832q0 162 -61.5 237t-180.5 75q-83 0 -141 -41.5t-83 -121.5q-10 -30 -29.5 -53.5t-45 -39.5t-56.5 -21t-62 2q-35 9 -60 28.5t-40 45t-18.5 56.5z" />
<glyph d="M-1210 1846q0 26 8 47.5t23 38t35 25.5t46 9h865q26 0 46 -9t35 -25.5t22.5 -38t7.5 -47.5t-7.5 -46.5t-22.5 -37t-36 -26t-45 -9.5h-865q-26 0 -46 9.5t-35 26t-23 38t-8 45.5z" />
<glyph d="M-1210 1846q0 26 8 47.5t23 38t35 25.5t46 9h673v96q0 30 11.5 54.5t31 42t45 27.5t55.5 10t56 -10t45 -27.5t30 -42.5t11 -54v-200q0 -30 -11 -54.5t-30 -42.5t-45 -28t-56 -10h-816q-26 0 -46 9.5t-35 26t-23 38t-8 45.5z" />
<glyph d="M-1210 1846q0 26 8 47.5t23 38t35 25.5t46 9h465v25q0 54 20.5 102.5t56 84.5t83 56.5t103.5 20.5q54 0 102.5 -20.5t84.5 -56.5t56 -84q21 -49 21 -103q0 -56 -20.5 -103.5t-56.5 -83t-84.5 -56.5t-102.5 -21h-728q-26 0 -46 9.5t-35 26t-23 38t-8 45.5zM-465 1991 q0 -19 8 -35.5t21 -28.5t30 -19.5t36 -7.5q20 0 37 7.5t30.5 19.5t20.5 29q7 15 7 35t-7 37.5t-20.5 30.5t-30.5 20t-37 7q-19 0 -36 -7t-30 -20t-21 -30.5t-8 -37.5z" />
<glyph d="M-1210 1846q0 26 8 47.5t23 38t35 25.5t46 9h281v103q0 27 11 51t30.5 40t43.5 26t51 10t52.5 -10t44 -26t29 -40t10.5 -51v-103h135v103q0 27 10.5 51t29 40t43.5 26t52 10q28 0 53 -10t43.5 -26t28.5 -40t10 -51v-214q0 -29 -10 -52.5t-28.5 -40t-43 -26t-53.5 -9.5 h-823q-26 0 -46 9.5t-35 26t-23 38t-8 45.5z" />
<glyph d="M-1898 1846q0 26 8 47.5t23 38t36 25.5t45 9h1177q26 0 46.5 -9t35 -25.5t22 -38t7.5 -47.5t-7.5 -46.5t-22 -37t-35 -26t-46.5 -9.5h-1177q-26 0 -46 9.5t-35 26t-23 38t-8 45.5z" />
<glyph d="M-1898 1846q0 26 8 47.5t23 38t36 25.5t45 9h977v96q0 30 10.5 54.5t30.5 42t46 27.5t56 10t55.5 -10t45 -27.5t30 -42.5t10.5 -54v-200q0 -30 -10.5 -54.5t-30 -42.5t-46 -28t-54.5 -10h-1120q-26 0 -46 9.5t-35 26t-23 38t-8 45.5z" />
<glyph d="M-1898 1846q0 26 8 47.5t23 38t36 25.5t45 9h772v25q0 54 20 102.5t56 84.5t83.5 56.5t103.5 20.5q55 0 102.5 -20.5t82.5 -56.5t55 -84q21 -49 21 -103q0 -56 -20.5 -103.5t-55.5 -83t-82.5 -56.5t-102.5 -21h-1035q-26 0 -46 9.5t-35 26t-23 38t-8 45.5zM-845 1991 q0 -39 26.5 -65t67.5 -26q40 0 66 26.5t26 64.5q0 41 -26.5 68t-65.5 27q-41 0 -67.5 -27t-26.5 -68z" />
<glyph d="M-1898 1846q0 26 8 47.5t23 38t36 25.5t45 9h585v103q0 27 10.5 51t29 40t43.5 26t53 10q27 0 52 -10t43 -26t28.5 -40t10.5 -51v-103h136v103q0 27 10.5 51t29.5 40t43 26t53 10q27 0 51.5 -10t43 -26t29 -40t10.5 -51v-214q0 -29 -10.5 -52.5t-29 -40t-43 -26 t-51.5 -9.5h-1127q-26 0 -46 9.5t-35 26t-23 38t-8 45.5z" />
<glyph d="M-802 2460v223q0 28 10.5 51.5t30 41.5t44.5 27.5t53 9.5q29 0 55 -9.5t44.5 -27.5t29 -41.5t10.5 -51.5v-223q0 -29 -10.5 -53.5t-29 -41.5t-44.5 -26.5t-55 -9.5q-28 0 -53 9.5t-44.5 26.5t-30 41.5t-10.5 53.5z" />
<glyph d="M-1260 2677q0 23 8.5 43.5t23.5 35.5t36 24.5t44 9.5h180q23 0 43.5 -9.5t35.5 -24.5t24 -35q8 -21 8 -44v-112q60 2 109.5 14t87 33.5t63 51t38.5 63.5q10 24 28 42t40.5 27.5t48.5 10t50 -9.5q26 -10 44 -28t27 -40.5t10 -48.5t-11 -50q-25 -60 -74 -112.5t-119 -91.5 t-163 -61.5t-207 -22.5h-97q-23 0 -43 9.5t-35 24.5t-24.5 35t-9.5 43v111h-54q-23 0 -44 9.5t-36 24.5t-23.5 35t-8.5 43z" />
<glyph d="M-1231 2430q0 77 21.5 134t56.5 94.5t80 56t92 18.5q53 0 92.5 -21.5t69.5 -58.5q31 34 73 57t95 23q32 0 64 -9.5t58.5 -28.5t46.5 -47q19 -27 27 -63q16 20 35.5 54t27.5 67q6 22 21 41t34.5 29.5t42.5 14.5q25 3 48 -1q29 -7 48 -21.5t29 -33.5t12.5 -41.5t-5.5 -45.5 q-17 -54 -45.5 -105.5t-66.5 -93t-81.5 -70t-92.5 -37.5h-97q-34 0 -55 20t-23 52q-3 41 -17.5 69t-44.5 28q-24 0 -37.5 -14.5t-16.5 -38.5q-3 -30 -24 -50.5t-54 -20.5q-31 0 -56.5 17.5t-27.5 53.5q-1 26 -15 39.5t-36 13.5q-29 0 -42 -20.5t-16 -60.5q-1 -53 -33 -78 t-78 -25q-52 0 -81 30t-29 73z" />
<glyph d="M-1028 2637q0 23 7 43t20 34t31 23t40 9h132v74q0 27 11 50.5t29.5 41t43.5 26.5t52 9t52 -9t43 -26.5t28.5 -41t10.5 -50.5v-74h132q23 0 41 -9t30.5 -23t20 -34t7.5 -43t-7.5 -42.5t-20 -33.5t-30.5 -22.5t-41 -8.5h-132v-75q0 -28 -10.5 -51.5t-29 -40t-43 -26 t-53.5 -9.5q-27 0 -52 9.5t-42.5 26t-28.5 40t-11 51.5v75h-132q-22 0 -40 8.5t-31 22.5t-20 34t-7 42z" />
<glyph d="M-1869 1846q0 26 8 47.5t23 38t35.5 25.5t45.5 9h1532q26 0 46 -9t35 -25.5t23 -38t8 -47.5t-8 -46.5t-23 -37t-35 -26t-46 -9.5h-1532q-26 0 -46 9.5t-35 26t-23 38t-8 45.5z" />
<glyph d="M-1869 1846q0 26 8 47.5t23 38t35.5 25.5t45.5 9h1332v96q0 30 11.5 54.5t31 42t45 27.5t55.5 10t56 -10t45 -27.5t30 -42.5t11 -54v-200q0 -30 -11 -54.5t-30 -42.5t-45 -28t-56 -10h-1475q-26 0 -46 9.5t-35 26t-23 38t-8 45.5z" />
<glyph d="M-1869 1846q0 26 8 47.5t23 38t35.5 25.5t45.5 9h1124v25q0 54 20.5 102.5t56 84.5t83 56.5t103.5 20.5q54 0 102.5 -20.5t84.5 -56.5t56 -84q21 -49 21 -103q0 -56 -20.5 -103.5t-56.5 -83t-84.5 -56.5t-102.5 -21h-1387q-26 0 -46 9.5t-35 26t-23 38t-8 45.5z M-465 1991q0 -19 8 -35.5t21 -28.5t30 -19.5t36 -7.5q20 0 37 7.5t30.5 19.5t20.5 29q7 15 7 35t-7 37.5t-20.5 30.5t-30.5 20t-37 7q-19 0 -36 -7t-30 -20t-21 -30.5t-8 -37.5z" />
<glyph d="M-1869 1846q0 26 8 47.5t23 38t35.5 25.5t45.5 9h940v103q0 27 11 51t30.5 40t43.5 26t51 10t52.5 -10t44 -26t29 -40t10.5 -51v-103h135v103q0 27 10.5 51t29 40t43.5 26t52 10q28 0 53 -10t43.5 -26t28.5 -40t10 -51v-214q0 -29 -10 -52.5t-28.5 -40t-43 -26 t-53.5 -9.5h-1482q-26 0 -46 9.5t-35 26t-23 38t-8 45.5z" />
<glyph d="M-420 2274v223q0 28 10.5 52t30 41.5t44.5 27t53 9.5q29 0 54.5 -9.5t44.5 -27t29.5 -41.5t10.5 -52v-223q0 -29 -10.5 -53.5t-29.5 -41.5t-44.5 -26t-54.5 -9q-28 0 -53 9t-44.5 26t-30 41.5t-10.5 53.5z" />
<glyph d="M-861 2495q0 23 8.5 43t23.5 36t35 24.5t45 8.5h180q23 0 43 -8.5t35.5 -24.5t24 -36t8.5 -43v-111q60 1 109.5 13.5t86.5 33.5t63 51q27 29 39 62q10 24 28 42t40.5 28t48.5 10.5t50 -9.5q26 -10 44 -28.5t27 -41t10 -48t-11 -49.5q-26 -60 -74.5 -113t-119 -91.5 t-163 -60.5t-208.5 -22h-95q-23 0 -43 8.5t-36 23.5t-24.5 35t-8.5 44v112h-54q-23 0 -44 8.5t-36 24t-23.5 35.5t-8.5 43z" />
<glyph d="M-994 2247q0 77 21.5 133.5t56.5 93.5t80 55.5t92 18.5q49 0 91 -22t71 -58q31 34 73.5 57t95.5 23q31 0 63.5 -9t59.5 -28.5t46 -46.5t28 -63q16 20 34.5 54.5t27.5 67.5q5 22 20 40t34.5 29.5t43 15t47.5 -2.5q29 -7 48.5 -21t30 -32.5t12 -41.5t-5.5 -46 q-17 -54 -46 -105.5t-66 -93t-81.5 -69.5t-92.5 -38h-96q-34 0 -55.5 20t-24.5 51q-3 42 -16.5 70.5t-45.5 28.5q-24 0 -37.5 -14.5t-16.5 -38.5q-3 -30 -23 -50.5t-54 -20.5q-32 0 -57 17.5t-28 53.5q-1 26 -14.5 39.5t-36.5 13.5q-29 0 -41.5 -21.5t-14.5 -59.5 q-1 -53 -34 -79t-79 -26q-51 0 -80.5 31t-29.5 74z" />
<glyph d="M-648 2455q0 23 7.5 42.5t20 34.5t31 23t40.5 8h131v74q0 27 11 51.5t29.5 41t43.5 25.5t52 9t52.5 -9t43 -25.5t29 -40t11.5 -52.5v-74h130q23 0 41.5 -8t31.5 -23t20 -35t7 -42q0 -23 -7 -42t-20 -34t-31.5 -23.5t-41.5 -8.5h-130v-75q0 -28 -11.5 -51t-30 -39.5 t-43 -26t-52.5 -9.5q-27 0 -51.5 9.5t-43 26t-29.5 39.5t-11 51v75h-131q-23 0 -41 8.5t-30.5 23.5t-20 34t-7.5 42z" />
<glyph d="M-901 2277v223q0 28 11.5 52.5t30 41.5t44.5 26.5t54 9.5q29 0 54 -9.5t43.5 -26.5t29.5 -41.5t11 -52.5v-223q0 -29 -11 -52.5t-29.5 -41.5t-43.5 -27.5t-54 -9.5q-28 0 -54 9.5t-44.5 27.5t-30 41.5t-11.5 52.5z" />
<glyph d="M-1333 2495q0 23 8.5 43t23.5 36t35 24.5t45 8.5h180q23 0 43 -8.5t35.5 -24.5t24 -36t8.5 -43v-111q61 1 110 13.5t86.5 33.5t62.5 51q27 29 39 62q10 24 28 42t40.5 28t48.5 10.5t50 -9.5q26 -10 44 -28.5t27 -41t10 -48t-11 -49.5q-25 -60 -74 -113t-119.5 -91.5 t-163 -60.5t-208.5 -22h-95q-23 0 -43 8.5t-36 23.5t-24.5 35t-8.5 44v112h-54q-23 0 -44 8.5t-36 24t-23.5 35.5t-8.5 43z" />
<glyph d="M-1377 2248q0 77 21.5 134.5t56.5 94.5t80 55t92 18q49 0 91 -22.5t71 -56.5q31 34 73.5 56.5t94.5 22.5q32 0 64 -9.5t59.5 -28t46.5 -45.5t28 -63q16 20 34.5 53.5t26.5 66.5q6 23 21 41t34.5 29t43 15t47.5 -2q29 -7 48 -21.5t30 -33t12.5 -41.5t-5.5 -46 q-18 -54 -46.5 -105.5t-65.5 -93t-81.5 -69.5t-92.5 -36h-96q-35 0 -56 19t-24 51q-3 41 -16.5 69.5t-45.5 28.5q-24 0 -37.5 -14t-16.5 -38q-3 -30 -24 -51t-55 -21q-16 0 -31 5t-25.5 14.5t-17.5 23t-9 29.5q-1 25 -14.5 38.5t-36.5 13.5q-29 0 -42 -21t-15 -60 q-2 -53 -34 -78.5t-78 -25.5q-51 0 -80.5 30.5t-29.5 73.5z" />
<glyph d="M-1131 2455q0 23 7 42.5t20 34.5t31 23t41 8h131v74q0 27 11 51.5t29.5 41t43.5 25.5t52 9t52 -9t43 -25.5t28.5 -40t10.5 -52.5v-74h132q23 0 41 -8t31.5 -23t20.5 -35t7 -42q0 -23 -7 -42t-20.5 -34t-31.5 -23.5t-41 -8.5h-132v-75q0 -28 -10.5 -51t-29 -39.5t-43 -26 t-52.5 -9.5t-52 9.5t-42.5 26t-29.5 39.5t-11 51v75h-131q-23 0 -41 8.5t-31 23.5t-20 34t-7 42z" />
<glyph d="M-888 -287q0 24 7 44.5t21.5 36.5t33.5 24.5t44 8.5h236q24 0 43.5 -8.5t33.5 -24.5t21.5 -36.5t7.5 -44.5v-339q0 -30 -11 -54t-29.5 -41.5t-44.5 -27.5t-56 -10t-55 10t-44 27.5t-30 41.5t-11 54v223h-61q-25 0 -44 9t-33.5 24t-21.5 36.5t-7 46.5z" />
<glyph d="M-1221 -287q0 24 8 44.5t22 36.5t33.5 24.5t43.5 8.5h236q24 0 42.5 -8.5t33 -24.5t22.5 -36.5t8 -44.5v-91q0 -71 30 -108t96 -37q60 0 91.5 37t31.5 108v92q0 30 11.5 53.5t30.5 41.5t44 27.5t55 9.5t55 -9.5t44.5 -27.5t30 -41.5t10.5 -53.5v-92q0 -77 -20.5 -146 t-69 -121.5t-126 -82.5t-188.5 -30q-106 0 -182 26t-126 72.5t-75 111.5t-28 145h-57q-24 0 -43.5 9t-33.5 24t-22 36.5t-8 46.5z" />
<glyph d="M-845 -330q0 43 15.5 80t43.5 65.5t65 44.5t80 16q42 0 78.5 -16t63.5 -44.5t43 -65.5t16 -80q0 -42 -16 -78.5t-43 -63.5t-63.5 -43t-78.5 -16q-43 0 -80 16t-65 43t-43.5 63.5t-15.5 78.5z" />
<glyph d="M-852 -287q0 24 7 44.5t21.5 36.5t33.5 24.5t44 8.5h235q25 0 44 -8.5t33.5 -24.5t22.5 -36.5t8 -44.5v-339q0 -30 -11.5 -54t-30 -41.5t-44.5 -27.5t-56 -10t-55 10t-44.5 27.5t-30 41.5t-10.5 54v223h-61q-25 0 -44 9t-33.5 24t-21.5 36.5t-7 46.5z" />
<glyph d="M-1404 -287q0 24 7.5 44.5t22 36.5t34 24.5t42.5 8.5h237q24 0 42.5 -8.5t33 -24.5t22.5 -36.5t8 -44.5v-91q0 -71 30 -108t94 -37q60 0 92.5 37t32.5 108v92q0 30 11 53.5t30.5 41.5t44.5 27.5t55 9.5t55 -9.5t44.5 -27.5t30 -41.5t10.5 -53.5v-92q0 -77 -20.5 -146 t-69 -121.5t-126 -82.5t-190.5 -30q-106 0 -181.5 26t-125 72.5t-74.5 111.5q-26 65 -29 145h-57q-25 0 -43.5 9t-33 24t-22 36.5t-7.5 46.5z" />
<glyph d="M-788 -330q0 43 16.5 80t44.5 65.5t65 44.5t80 16q41 0 77.5 -16t64 -44.5t44 -65.5t16.5 -80q0 -42 -16.5 -78.5t-44 -63.5t-64 -43t-77.5 -16q-43 0 -80 16t-65 43t-44.5 63.5t-16.5 78.5z" />
<glyph d="M-1138 1862v127q0 29 10.5 53t30 41.5t44.5 26.5t53 9q29 0 55 -9t44.5 -26.5t30 -41.5t11.5 -53v-27h1071q24 0 43.5 -9.5t33.5 -24.5t22 -36.5t8 -45.5t-8 -45t-22 -36.5t-34 -24t-43 -8.5h-1212q-28 0 -53 9t-44.5 26.5t-30 41.5t-10.5 53z" />
<glyph d="M-878 2460v223q0 28 10.5 51.5t30 41.5t44.5 27.5t54 9.5q28 0 54 -9.5t44.5 -27.5t29 -41.5t10.5 -51.5v-223q0 -29 -10.5 -53.5t-29 -41.5t-44.5 -26.5t-54 -9.5q-29 0 -54 9.5t-44.5 26.5t-30 41.5t-10.5 53.5z" />
<glyph d="M-1286 2677q0 23 9 43.5t24 35.5t35 24.5t44 9.5h180q23 0 43 -9.5t36 -24.5t24 -35q9 -21 9 -44v-112q60 2 109 14t86.5 33.5t63 51t38.5 63.5q10 24 28 42t41 27.5t48.5 10t49.5 -9.5q26 -10 44 -28t27.5 -40.5t10 -48.5t-10.5 -50q-26 -60 -74.5 -112.5t-119.5 -91.5 t-163 -61q-94 -23 -208 -23h-96q-23 0 -43 9.5t-36 24.5t-24.5 35t-8.5 43v111h-54q-23 0 -43.5 9.5t-35.5 24.5t-24 35t-9 43z" />
<glyph d="M-1193 2430q0 77 21.5 134t56.5 94.5t80 56t93 18.5t90.5 -23t70.5 -57q32 34 74 57q41 23 95 23q31 0 63.5 -9.5t59.5 -28.5t46.5 -46.5t27.5 -63.5q16 20 34.5 54t27.5 67q6 22 21 41t34 29.5t42.5 14t48.5 -0.5q28 -7 47.5 -21.5t30 -33.5t12 -41.5t-5.5 -45.5 q-17 -54 -45.5 -105.5t-66 -93t-81.5 -70t-93 -37.5h-96q-34 0 -55.5 20t-24.5 52q-3 41 -16.5 69t-44.5 28q-25 0 -38.5 -14.5t-14.5 -38.5q-3 -30 -24 -50.5t-55 -20.5q-31 0 -56 18q-24 17 -27 53q-1 26 -14.5 39.5t-38.5 13.5q-28 0 -41 -20.5t-15 -60.5q-1 -53 -33 -78 t-80 -25q-51 0 -80.5 30t-29.5 73z" />
<glyph d="M-1105 2637q0 23 7 43t20 34t31.5 23t39.5 9h132v74q0 27 10.5 50.5t29 41t44 26.5t52.5 9t52 -9t43 -26.5t29.5 -41t11.5 -50.5v-74h130q23 0 41.5 -9t31 -23t20 -34t7.5 -43t-7.5 -42.5t-20 -33.5t-31 -22.5t-41.5 -8.5h-130v-75q0 -28 -11.5 -51.5t-30.5 -40t-43 -26 t-53 -9.5q-27 0 -51.5 9.5t-43 26t-29 40t-10.5 51.5v75h-132q-23 0 -40.5 8.5t-30.5 22.5t-20 34t-7 42z" />
<glyph d="M-1103 1862v127q0 29 11 53t30.5 41.5t44.5 26.5t53 9q29 0 54.5 -9t44 -26.5t30 -41.5t11.5 -53v-27h890q24 0 44 -9.5t34.5 -24.5t22 -36.5t7.5 -45.5t-7.5 -45t-22 -36.5t-34.5 -24t-44 -8.5h-1030q-28 0 -53 9t-44.5 26.5t-30.5 41.5t-11 53z" />
<glyph d="M-1064 2677q0 23 8.5 43.5t23.5 35.5t36 24.5t44 9.5h180q23 0 43 -9.5t35.5 -24.5t24.5 -35q8 -21 8 -44v-112q60 2 109.5 14t86.5 33.5t63 51t39 63.5q10 24 28 42t40.5 27.5t48.5 10t50 -9.5q26 -10 44 -28t27 -40.5t10 -48.5t-11 -50q-26 -60 -74.5 -112.5 t-118.5 -91.5t-163 -61.5t-207 -22.5h-97q-23 0 -43 9.5t-36 24.5t-24.5 35t-8.5 43v111h-54q-23 0 -44 9.5t-36 24.5t-23.5 35t-8.5 43z" />
<glyph d="M-1018 2430q0 77 21.5 134t56.5 94.5t80 56t92 18.5q49 0 89.5 -23t72.5 -57q31 34 73.5 57t94.5 23q32 0 64 -9.5t59.5 -28.5t46.5 -46.5t28 -63.5q15 20 34 54t27 67q6 22 21 41t34.5 29.5t43 14t47.5 -0.5q29 -7 48 -21.5t30 -33.5t12.5 -41.5t-6.5 -45.5 q-17 -54 -45.5 -105.5t-65.5 -93t-81.5 -70t-93.5 -37.5h-95q-35 0 -56.5 20t-23.5 52q-3 41 -16.5 69t-45.5 28q-23 0 -37 -14.5t-17 -38.5q-3 -30 -23 -50.5t-54 -20.5q-32 0 -57 17.5t-28 53.5q-1 26 -14.5 39.5t-36.5 13.5q-29 0 -42 -20.5t-14 -60.5q-2 -53 -34 -78 t-79 -25q-52 0 -81 30t-29 73z" />
<glyph d="M-1371 1846q0 26 7.5 47.5t22.5 38t36 25.5t45 9h1028q26 0 46 -9t34.5 -25.5t23 -38t8.5 -47.5t-8.5 -46.5t-23 -37t-35.5 -25.5q-19 -10 -45 -10h-1028q-26 0 -46 9.5t-35 26t-22.5 38t-7.5 45.5z" />
<glyph d="M-1371 1846q0 26 7.5 47.5t22.5 38t36 25.5t45 9h835v96q0 30 11.5 54.5t31 42t45 27.5t55.5 10t56 -10t45 -27.5t30 -42.5t11 -54v-200q0 -30 -11 -54.5t-30 -42.5t-45 -28t-56 -10h-978q-26 0 -46 9.5t-35 26t-22.5 38t-7.5 45.5z" />
<glyph d="M-1371 1846q0 26 7.5 47.5t22.5 38t36 25.5t45 9h627v25q0 54 20.5 102.5t56 84.5t83 56.5t103.5 20.5q54 0 102.5 -20.5t84.5 -56.5t56 -84q21 -49 21 -103q0 -56 -20.5 -103.5t-56.5 -83t-84.5 -56.5t-102.5 -21h-890q-26 0 -46 9.5t-35 26t-22.5 38t-7.5 45.5z M-465 1991q0 -19 8 -35.5t21 -28.5t30 -19.5t36 -7.5q20 0 37 7.5t30.5 19.5t20.5 29q7 15 7 35t-7 37.5t-20.5 30.5t-30.5 20t-37 7q-19 0 -36 -7t-30 -20t-21 -30.5t-8 -37.5z" />
<glyph d="M-1371 1846q0 26 7.5 47.5t22.5 38t36 25.5t45 9h443v103q0 27 11 51t30.5 40t43.5 26t51 10t52.5 -10t44 -26t29 -40t10.5 -51v-103h135v103q0 27 10.5 51t29 40t43.5 26t52 10q28 0 53 -10t43.5 -26t28.5 -40t10 -51v-214q0 -29 -10 -52.5t-28.5 -40t-43 -26 t-53.5 -9.5h-985q-26 0 -46 9.5t-35 26t-22.5 38t-7.5 45.5z" />
<glyph d="M-971 2477v223q0 28 11.5 52.5t30 41.5t44.5 26.5t54 9.5q29 0 54 -9.5t44 -26.5t30 -41.5t11 -52.5v-223q0 -29 -11 -52.5t-30 -41.5t-44 -27t-54 -9q-28 0 -54 9t-44.5 27t-30 41.5t-11.5 52.5z" />
<glyph d="M-1193 2656q0 22 7.5 41.5t20 34.5t30.5 23t41 8h132v74q0 27 10.5 51.5t29 41t43 25.5t52.5 9t53 -9t42.5 -25.5t28.5 -40t11 -52.5v-74h131q23 0 41 -8t31.5 -23t21 -35t7.5 -41q0 -23 -7.5 -42.5t-21 -34.5t-31.5 -23.5t-41 -8.5h-131v-75q0 -28 -11 -51t-29.5 -39.5 t-42.5 -25.5t-53 -9q-27 0 -51.5 9t-43 25.5t-29 39.5t-10.5 51v75h-132q-23 0 -41 8.5t-30.5 23.5t-20 34.5t-7.5 42.5z" />
<glyph d="M-857 -287q0 24 8 44.5t22.5 36.5t33.5 24.5t44 8.5h236q24 0 42.5 -8.5t33 -24.5t22 -36.5t7.5 -44.5v-339q0 -30 -11 -54t-30 -41.5t-44 -27.5t-55 -10t-55 10t-44 27.5t-30.5 41.5t-11.5 54v223h-60q-25 0 -44 9t-33.5 24t-22.5 36.5t-8 46.5z" />
<glyph d="M-1208 -287q0 24 7.5 44.5t22 36.5t33 24.5t42.5 8.5h236q25 0 44 -8.5t33.5 -24.5t22.5 -36.5t8 -44.5v-91q0 -71 30 -108t94 -37q60 0 92 37t32 108v92q0 30 11.5 53.5t31 41.5t44.5 27.5t55 9.5t55 -9.5t43.5 -27.5t30 -41.5t11.5 -53.5v-92q0 -77 -20.5 -146 t-69.5 -121.5t-126 -82.5t-190 -30q-106 0 -181.5 26t-125 72.5t-74.5 111.5t-29 145h-58q-24 0 -42.5 9t-33 24t-22 36.5t-7.5 46.5z" />
<glyph d="M-807 -330q0 43 16 80t44 65.5t65 44.5t80 16q41 0 77.5 -16t64 -44.5t43 -65.5t15.5 -80q0 -42 -15.5 -78.5t-43 -63.5t-64 -43t-77.5 -16q-43 0 -80 16t-65 43t-44 63.5t-16 78.5z" />
</font>
</defs>
</svg>
