<?xml version="1.0" standalone="no"?>
<!DOCTYPE svg PUBLIC "-//W3C//DTD SVG 1.1//EN" "http://www.w3.org/Graphics/SVG/1.1/DTD/svg11.dtd" >
<svg xmlns="http://www.w3.org/2000/svg" xmlns:xlink="http://www.w3.org/1999/xlink" version="1.1">
<metadata></metadata>
<defs>
<font id="db_heaventroundedregular" horiz-adv-x="0" >
<font-face units-per-em="2560" ascent="2048" descent="-512" />
<missing-glyph horiz-adv-x="622" />
<glyph unicode="&#x2b;&#x2d;" horiz-adv-x="1488" d="M103 97q0 20 7 37.5t20.5 31t31 21t37.5 7.5h1091q20 0 38 -7.5t30.5 -21t20.5 -31.5q8 -17 8 -37t-8 -38t-20.5 -30.5t-30.5 -20.5t-38 -8h-1091q-20 0 -37.5 8t-31 20.5t-20.5 30.5t-7 38zM103 975q0 20 7 38t20.5 31t31 20.5t37.5 7.5h450v454q0 20 8 38t21 30.5 t30.5 20.5t37.5 8t38 -8t31 -20.5t21 -30.5t8 -38v-454h446q20 0 38 -7.5t30.5 -20.5t20.5 -31t8 -38t-8 -38t-20.5 -30.5t-30.5 -20.5t-38 -8h-446v-449q0 -20 -8 -38t-21 -31.5t-31 -20.5t-38 -7t-37.5 7t-30.5 20.5t-21 31.5t-8 38v449h-450q-20 0 -37.5 8t-31 20.5 t-20.5 30.5t-7 38z" />
<glyph unicode="&#x2e;&#x2e;&#x2e;" horiz-adv-x="2481" d="M242 152q0 35 13.5 66.5t37 55t55 37.5t67.5 14q35 0 66.5 -14t55.5 -37.5t37.5 -55t13.5 -66.5q0 -36 -13.5 -67.5t-37.5 -55t-55.5 -37t-66.5 -13.5q-36 0 -67.5 13.5t-55 37t-37 55t-13.5 67.5zM1067 152q0 35 13 66.5t37 55t55 37.5t66 14q36 0 68 -14t55 -37.5 t37.5 -55t14.5 -66.5q0 -36 -14.5 -67.5t-37.5 -55t-55 -37t-68 -13.5q-35 0 -66 13.5t-55 37t-37 55t-13 67.5zM1893 152q0 35 13.5 66.5t37.5 55t55.5 37.5t66.5 14q36 0 67.5 -14t55 -37.5t37 -55t13.5 -66.5q0 -36 -13.5 -67.5t-37 -55t-55 -37t-67.5 -13.5 q-35 0 -66.5 13.5t-55.5 37t-37.5 55t-13.5 67.5z" />
<glyph unicode="&#x3c;&#x3d;" horiz-adv-x="1502" d="M72 89q0 -38 25.5 -63.5t62.5 -25.5h1147q37 0 63 25.5t26 63.5q0 37 -26 62.5t-63 25.5h-1147q-37 0 -62.5 -25.5t-25.5 -62.5zM73 990q0 30 17 55.5t43 38.5l1081 498q30 12 57 18.5t50 3t40.5 -17.5t25.5 -44q6 -23 3 -42.5t-13 -36t-26.5 -28t-33.5 -19.5l-965 -426 l961 -424q20 -8 38.5 -21t29 -29.5t13.5 -36.5t-7 -44q-11 -29 -30.5 -42t-43 -15.5t-48 4t-47.5 16.5l-1084 499q-25 12 -43 38q-18 23 -18 55z" />
<glyph unicode="&#x3e;&#x3d;" horiz-adv-x="1502" d="M109 89q0 -38 25.5 -63.5t62.5 -25.5h1147q37 0 63 25.5t26 63.5q0 37 -26 62.5t-63 25.5h-1147q-37 0 -62.5 -25.5t-25.5 -62.5zM110 479q3 20 13.5 36.5t28.5 29.5t40 21l961 424l-966 426q-17 8 -33.5 19.5t-26.5 28t-13.5 36t3.5 42.5q9 30 26 44t40 17.5t50 -2 t56 -19.5l1082 -498q26 -13 43 -38t17 -56q0 -30 -17.5 -55.5t-43.5 -37.5l-1084 -499q-23 -12 -48 -17.5t-48 -3t-42 15.5t-31 42q-10 24 -7 44z" />
<glyph unicode="&#xe4f;&#x22;" horiz-adv-x="1811" d="M110 746q0 -108 28 -208t80 -188t124.5 -160.5t161 -123t190 -78.5t210 -28t209 28t187 78.5t158 123t123 160.5t79 188t27.5 208q0 109 -27.5 210t-79 188t-123 159.5t-158 123t-187 78.5t-208.5 28q-110 0 -211 -28t-189.5 -78.5t-161 -123t-124.5 -159.5t-80 -188 t-28 -210zM315 755q0 80 20.5 154.5t58.5 139t92.5 117t119.5 91.5t140 59t158 20q80 0 154.5 -20t138.5 -59t118 -91.5t91.5 -117t58.5 -139t21 -154.5t-21 -156t-58.5 -141.5t-91.5 -119t-118 -92.5t-138.5 -60.5t-154.5 -21.5q-83 0 -158 21.5t-140 60.5t-119.5 92.5 t-92.5 119t-58.5 141.5t-20.5 156zM483 755q0 -87 34 -163t91 -133t133.5 -89.5t162.5 -32.5q84 0 158.5 32.5t130 89.5t88.5 133q33 77 33 163q0 84 -33 158.5t-88.5 132t-130.5 89.5q-75 33 -158 33q-87 0 -163 -32.5t-133 -90t-91 -132t-34 -158.5zM599 1842v233 q0 49 28.5 80t77.5 31t77.5 -31t28.5 -80v-233q0 -49 -28.5 -79.5t-77.5 -30.5t-77.5 30.5t-28.5 79.5zM662 755q0 49 18.5 91t51 73.5t76.5 50t96 18.5q48 0 90.5 -18.5t74 -50t49.5 -74.5q17 -41 17 -90q0 -51 -17.5 -95.5t-49 -77.5t-74 -51.5t-90.5 -18.5 q-53 0 -96.5 18.5t-76 51.5t-51 77.5t-18.5 95.5zM1002 1842v233q0 49 28 80t77 31q48 0 77 -31t29 -80v-233q0 -49 -29 -79.5t-77 -30.5q-49 0 -77 30.5t-28 79.5z" />
<glyph unicode="&#xe0e;&#xe3a;" horiz-adv-x="1603" d="M60 93q0 20 7 36.5t21 29.5t30 20.5t36 7.5h81v625q0 49 -10.5 98.5t-40.5 90.5q-18 26 -31.5 41t-20 29t-6 30.5t10.5 43.5q30 75 81.5 145.5t131 124.5t188 86t250.5 32q127 0 226 -23.5t172.5 -66.5t124 -101.5t83 -128t46 -147.5t13.5 -158v-1257q0 -31 -12 -60 t-33.5 -50t-50.5 -33.5t-60 -12.5q-34 0 -63.5 15t-52.5 38q-76 73 -158.5 105t-183.5 32q-48 0 -91.5 -15t-82.5 -38.5t-74 -53.5t-66 -61q-13 -13 -30 -18t-35 -4.5t-36 8.5t-29 22q-26 32 -21.5 64.5t29.5 64.5q35 43 83.5 82t105.5 70t120 49t127 18q112 0 200.5 -30 t168.5 -85v1180q0 70 -20.5 138.5t-70 124t-130 89.5t-199.5 36q-70 1 -128 -12.5t-103 -35t-80 -48.5t-58.5 -57t-36.5 -58t-16 -50q26 -15 46 -40t34 -59t21.5 -74t7.5 -83v-716q0 -20 -7.5 -36.5t-20 -29.5t-29 -20t-36.5 -7h-228q-20 0 -36 7t-30 20t-21 29.5t-7 36.5z M1150 -751q0 36 14 68t38.5 56.5t56.5 38t69 13.5q36 0 68.5 -13.5t56 -38t37.5 -56.5t14 -68q0 -37 -14 -69t-37.5 -56.5t-56 -39t-68.5 -14.5q-37 0 -69 14.5t-56.5 39t-38.5 56.5t-14 69z" />
<glyph unicode="&#xe0f;&#xe3a;" horiz-adv-x="1603" d="M60 93q0 20 7 36.5t21 29.5t30 20.5t36 7.5h81v625q0 49 -10.5 98.5t-40.5 90.5q-18 26 -31.5 41t-20 29t-6 30.5t10.5 43.5q30 75 81.5 145.5t131 124.5t188 86t250.5 32q127 0 226 -23.5t172.5 -66.5t124 -101.5t83 -128t46 -147.5t13.5 -158v-1274q0 -29 -11 -54 t-30 -44t-44 -30t-55 -11q-42 0 -75 21.5t-50 55.5q-11 22 -26 41t-35 34.5t-46.5 25.5t-59.5 10t-59.5 -10t-47 -25.5t-35.5 -36t-22 -41.5q-13 -33 -42 -54t-66 -21t-66 21.5t-41 55.5q-7 20 -18.5 40t-31 36.5t-45 26.5t-59.5 10q-32 0 -55.5 -8.5t-40.5 -24t-28.5 -35.5 t-19 -43t-21.5 -39.5t-32.5 -26.5t-41 -13t-45.5 5q-21 5 -38 20t-27 33.5t-13 41t4 45.5q17 60 48 104t74 73.5t94.5 44t109.5 14.5q97 0 169.5 -42.5t109.5 -122.5q20 40 51 68.5t64.5 47.5t68.5 28t66 9q46 0 82 -10.5t63 -26.5t46 -34.5t32 -34.5v1180q0 70 -20.5 138.5 t-70 124t-130 89.5t-199.5 36q-70 1 -128 -12.5t-103 -35t-80 -48.5t-58.5 -57t-36.5 -58t-16 -50q26 -15 46 -40t34 -59t21.5 -74t7.5 -83v-716q0 -20 -7.5 -36.5t-20 -29.5t-29 -20t-36.5 -7h-228q-20 0 -36 7t-30 20t-21 29.5t-7 36.5zM1150 -751q0 36 14 68t38.5 56.5 t56.5 38t69 13.5q36 0 68.5 -13.5t56 -38t37.5 -56.5t14 -68q0 -37 -14 -69t-37.5 -56.5t-56 -39t-68.5 -14.5q-37 0 -69 14.5t-56.5 39t-38.5 56.5t-14 69z" />
<glyph unicode="&#xe0e;&#xe38;" horiz-adv-x="1603" d="M60 93q0 20 7 36.5t21 29.5t30 20.5t36 7.5h81v625q0 49 -10.5 98.5t-40.5 90.5q-18 26 -31.5 41t-20 29t-6 30.5t10.5 43.5q30 75 81.5 145.5t131 124.5t188 86t250.5 32q127 0 226 -23.5t172.5 -66.5t124 -101.5t83 -128t46 -147.5t13.5 -158v-1257q0 -31 -12 -60 t-33.5 -50t-50.5 -33.5t-60 -12.5q-34 0 -63.5 15t-52.5 38q-76 73 -158.5 105t-183.5 32q-48 0 -91.5 -15t-82.5 -38.5t-74 -53.5t-66 -61q-13 -13 -30 -18t-35 -4.5t-36 8.5t-29 22q-26 32 -21.5 64.5t29.5 64.5q35 43 83.5 82t105.5 70t120 49t127 18q112 0 200.5 -30 t168.5 -85v1180q0 70 -20.5 138.5t-70 124t-130 89.5t-199.5 36q-70 1 -128 -12.5t-103 -35t-80 -48.5t-58.5 -57t-36.5 -58t-16 -50q26 -15 46 -40t34 -59t21.5 -74t7.5 -83v-716q0 -20 -7.5 -36.5t-20 -29.5t-29 -20t-36.5 -7h-228q-20 0 -36 7t-30 20t-21 29.5t-7 36.5z M1064 -678q0 19 7 34.5t20 28t28.5 19.5t35.5 7h208q18 0 34.5 -7t29 -19.5t19.5 -28t7 -34.5v-349q0 -25 -8.5 -46.5t-24.5 -36.5t-37.5 -24t-44.5 -9q-24 0 -45.5 9t-36.5 24t-24 36.5t-9 46.5v258h-68q-18 0 -34.5 7t-29.5 20t-20 28.5t-7 35.5z" />
<glyph unicode="&#xe0f;&#xe38;" horiz-adv-x="1603" d="M60 93q0 20 7 36.5t21 29.5t30 20.5t36 7.5h81v625q0 49 -10.5 98.5t-40.5 90.5q-18 26 -31.5 41t-20 29t-6 30.5t10.5 43.5q30 75 81.5 145.5t131 124.5t188 86t250.5 32q127 0 226 -23.5t172.5 -66.5t124 -101.5t83 -128t46 -147.5t13.5 -158v-1274q0 -29 -11 -54 t-30 -44t-44 -30t-55 -11q-42 0 -75 21.5t-50 55.5q-11 22 -26 41t-35 34.5t-46.5 25.5t-59.5 10t-59.5 -10t-47 -25.5t-35.5 -36t-22 -41.5q-13 -33 -42 -54t-66 -21t-66 21.5t-41 55.5q-7 20 -18.5 40t-31 36.5t-45 26.5t-59.5 10q-32 0 -55.5 -8.5t-40.5 -24t-28.5 -35.5 t-19 -43t-21.5 -39.5t-32.5 -26.5t-41 -13t-45.5 5q-21 5 -38 20t-27 33.5t-13 41t4 45.5q17 60 48 104t74 73.5t94.5 44t109.5 14.5q97 0 169.5 -42.5t109.5 -122.5q20 40 51 68.5t64.5 47.5t68.5 28t66 9q46 0 82 -10.5t63 -26.5t46 -34.5t32 -34.5v1180q0 70 -20.5 138.5 t-70 124t-130 89.5t-199.5 36q-70 1 -128 -12.5t-103 -35t-80 -48.5t-58.5 -57t-36.5 -58t-16 -50q26 -15 46 -40t34 -59t21.5 -74t7.5 -83v-716q0 -20 -7.5 -36.5t-20 -29.5t-29 -20t-36.5 -7h-228q-20 0 -36 7t-30 20t-21 29.5t-7 36.5zM1064 -678q0 19 7 34.5t20 28 t28.5 19.5t35.5 7h208q18 0 34.5 -7t29 -19.5t19.5 -28t7 -34.5v-349q0 -25 -8.5 -46.5t-24.5 -36.5t-37.5 -24t-44.5 -9q-24 0 -45.5 9t-36.5 24t-24 36.5t-9 46.5v258h-68q-18 0 -34.5 7t-29.5 20t-20 28.5t-7 35.5z" />
<glyph unicode="&#xe0e;&#xe39;" horiz-adv-x="1603" d="M60 93q0 20 7 36.5t21 29.5t30 20.5t36 7.5h81v625q0 49 -10.5 98.5t-40.5 90.5q-18 26 -31.5 41t-20 29t-6 30.5t10.5 43.5q30 75 81.5 145.5t131 124.5t188 86t250.5 32q127 0 226 -23.5t172.5 -66.5t124 -101.5t83 -128t46 -147.5t13.5 -158v-1257q0 -31 -12 -60 t-33.5 -50t-50.5 -33.5t-60 -12.5q-34 0 -63.5 15t-52.5 38q-76 73 -158.5 105t-183.5 32q-48 0 -91.5 -15t-82.5 -38.5t-74 -53.5t-66 -61q-13 -13 -30 -18t-35 -4.5t-36 8.5t-29 22q-26 32 -21.5 64.5t29.5 64.5q35 43 83.5 82t105.5 70t120 49t127 18q112 0 200.5 -30 t168.5 -85v1180q0 70 -20.5 138.5t-70 124t-130 89.5t-199.5 36q-70 1 -128 -12.5t-103 -35t-80 -48.5t-58.5 -57t-36.5 -58t-16 -50q26 -15 46 -40t34 -59t21.5 -74t7.5 -83v-716q0 -20 -7.5 -36.5t-20 -29.5t-29 -20t-36.5 -7h-228q-20 0 -36 7t-30 20t-21 29.5t-7 36.5z M531 -678q0 19 7 34.5t19 28t28.5 19.5t35.5 7h211q19 0 35.5 -7t28.5 -19.5t19 -28t7 -34.5v-91q0 -86 36.5 -129t113.5 -43q151 0 151 172v83q0 24 9 44.5t24 36.5t36.5 25t45.5 9q25 0 45.5 -9t36.5 -25t24.5 -36.5t8.5 -44.5v-83q0 -73 -19.5 -137.5t-64.5 -112.5 t-118 -76.5t-179 -28.5q-104 0 -177 26t-118.5 73t-67.5 112q-21 64 -21 144h-67q-19 0 -35.5 7t-28.5 20t-19 28.5t-7 35.5z" />
<glyph unicode="&#xe0f;&#xe39;" horiz-adv-x="1603" d="M60 93q0 20 7 36.5t21 29.5t30 20.5t36 7.5h81v625q0 49 -10.5 98.5t-40.5 90.5q-18 26 -31.5 41t-20 29t-6 30.5t10.5 43.5q30 75 81.5 145.5t131 124.5t188 86t250.5 32q127 0 226 -23.5t172.5 -66.5t124 -101.5t83 -128t46 -147.5t13.5 -158v-1274q0 -29 -11 -54 t-30 -44t-44 -30t-55 -11q-42 0 -75 21.5t-50 55.5q-11 22 -26 41t-35 34.5t-46.5 25.5t-59.5 10t-59.5 -10t-47 -25.5t-35.5 -36t-22 -41.5q-13 -33 -42 -54t-66 -21t-66 21.5t-41 55.5q-7 20 -18.5 40t-31 36.5t-45 26.5t-59.5 10q-32 0 -55.5 -8.5t-40.5 -24t-28.5 -35.5 t-19 -43t-21.5 -39.5t-32.5 -26.5t-41 -13t-45.5 5q-21 5 -38 20t-27 33.5t-13 41t4 45.5q17 60 48 104t74 73.5t94.5 44t109.5 14.5q97 0 169.5 -42.5t109.5 -122.5q20 40 51 68.5t64.5 47.5t68.5 28t66 9q46 0 82 -10.5t63 -26.5t46 -34.5t32 -34.5v1180q0 70 -20.5 138.5 t-70 124t-130 89.5t-199.5 36q-70 1 -128 -12.5t-103 -35t-80 -48.5t-58.5 -57t-36.5 -58t-16 -50q26 -15 46 -40t34 -59t21.5 -74t7.5 -83v-716q0 -20 -7.5 -36.5t-20 -29.5t-29 -20t-36.5 -7h-228q-20 0 -36 7t-30 20t-21 29.5t-7 36.5zM531 -678q0 19 7 34.5t19 28 t28.5 19.5t35.5 7h211q19 0 35.5 -7t28.5 -19.5t19 -28t7 -34.5v-91q0 -86 36.5 -129t113.5 -43q151 0 151 172v83q0 24 9 44.5t24 36.5t36.5 25t45.5 9q25 0 45.5 -9t36.5 -25t24.5 -36.5t8.5 -44.5v-83q0 -73 -19.5 -137.5t-64.5 -112.5t-118 -76.5t-179 -28.5 q-104 0 -177 26t-118.5 73t-67.5 112q-21 64 -21 144h-67q-19 0 -35.5 7t-28.5 20t-19 28.5t-7 35.5z" />
<glyph unicode=" "  horiz-adv-x="622" />
<glyph unicode="&#x09;" horiz-adv-x="622" />
<glyph unicode="&#xa0;" horiz-adv-x="622" />
<glyph unicode="!" horiz-adv-x="845" d="M269 143q0 -31 11.5 -58.5t33 -48t49 -33t60.5 -12.5q32 0 60.5 12.5t49 33t33 48t12.5 58.5t-12.5 59t-33 48t-49 32.5t-60.5 12.5q-31 0 -59.5 -12.5t-50 -32.5t-33 -48t-11.5 -59zM295 1198v411q0 73 29 110.5t101 37.5q71 0 100.5 -37.5t29.5 -110.5v-411l-69 -700 q-4 -32 -22.5 -45t-38.5 -13q-10 0 -20 3t-18.5 9.5t-15 18t-9.5 27.5z" />
<glyph unicode="&#x22;" horiz-adv-x="1058" d="M263 1216v444q0 45 26 72.5t69 27.5q42 0 68 -27.5t26 -72.5v-444q0 -45 -26 -72t-68 -27q-43 0 -69 27t-26 72zM611 1216v444q0 45 25.5 72.5t68.5 27.5t68.5 -27.5t25.5 -72.5v-444q0 -45 -25.5 -72t-68.5 -27t-68.5 27t-25.5 72z" />
<glyph unicode="#" horiz-adv-x="1379" d="M60 606q0 17 5 33t17 29t30 20t44 7h187l47 360h-170q-26 0 -44.5 7.5t-30 20t-16.5 28.5t-5 33t5 33t16.5 28.5t30 20t44.5 7.5h196l64 446q3 18 9 34.5t18 29t31 19.5q20 7 45 7q16 0 32 -6t28 -15t19 -23.5t4 -29.5l-67 -462h298l60 446q4 37 28 63q22 27 76 27 q16 0 32.5 -6t28.5 -15t18.5 -23.5t4.5 -29.5l-62 -462h141q26 0 44.5 -7.5t30 -20t16.5 -28.5t5 -33t-5 -33t-16.5 -28.5t-30 -20t-44.5 -7.5h-163l-51 -360h151q26 0 44.5 -7t29.5 -20t16.5 -29t5.5 -33t-5.5 -33.5t-16.5 -28.5t-29.5 -20t-44.5 -8h-180l-63 -443 q-3 -19 -9.5 -36t-18.5 -28.5t-30.5 -18.5t-45.5 -7q-17 0 -33.5 5t-29 15t-19 24t-4.5 30l66 459h-291l-63 -444q-2 -19 -8.5 -35.5t-19.5 -28t-31.5 -18.5t-45.5 -7q-16 0 -32 5t-28 15t-19 23.5t-4 29.5l61 460h-157q-26 0 -44 8t-30 20t-17 28.5t-5 33.5zM526 695h296 l49 360h-290z" />
<glyph unicode="$" horiz-adv-x="1379" d="M70 410q-3 23 3.5 44.5t19.5 39t33 28.5t44 14q23 3 44.5 -2.5t38.5 -19.5t29.5 -33t14.5 -43q10 -63 40.5 -112t74 -83t96.5 -53.5t110 -20.5v626q-120 34 -216 73t-162.5 94t-101.5 130t-35 179q0 110 40.5 201.5t110 159.5t164 109t200.5 49v130q0 32 22 54t54 22 q31 0 53 -22t22 -54v-130q85 -13 153.5 -40.5t123 -72t94.5 -107.5t67 -146q7 -23 4 -44.5t-13 -40t-27 -32.5t-40 -21.5t-43.5 -4.5t-40 13t-33.5 26.5t-20 39.5q-17 51 -38 88.5t-48 64t-61 41.5q-32 15 -78 20v-586l143 -41q32 -9 73.5 -25.5t85 -41.5t86.5 -60t76 -82 t53.5 -107t20.5 -136q0 -115 -40 -210.5t-112 -164.5t-171 -109q-97 -41 -215 -47v-147q0 -31 -22 -52.5t-53 -21.5q-32 0 -54 22q-22 21 -22 52v147q-112 12 -206.5 45.5t-165 90t-116.5 134.5t-60 176zM345 1296q0 -63 20 -106t57 -72.5t87 -49.5q49 -20 109 -37v548 q-59 -6 -108.5 -26.5t-85.5 -56t-57.5 -85.5t-21.5 -115zM769 160q63 3 117.5 24.5t95 59.5t64.5 94.5t24 130.5q0 67 -23 113.5t-62.5 79.5t-94.5 56t-121 41v-599z" />
<glyph unicode="%" horiz-adv-x="2481" d="M245 1307q0 93 20.5 174t66.5 142.5t118.5 95.5t175.5 34t175.5 -34t118 -95.5t66.5 -142.5t21 -174t-21 -174t-66.5 -141.5t-118.5 -95.5q-72 -35 -175 -35t-175.5 35t-118.5 95.5t-66.5 141.5t-20.5 174zM445 1307q0 -66 8.5 -124.5t29 -101.5t55.5 -68 q37 -25 88.5 -25t86.5 25t55.5 68t29.5 101.5t9 124.5q0 62 -9 119.5t-29.5 102t-55.5 71.5t-87 27q-53 0 -88 -27t-55.5 -71.5t-29 -102t-8.5 -119.5zM714 31q0 18 6 36.5t18 39.5l858 1623q13 23 31.5 41.5t48.5 18.5q16 0 29.5 -5.5t25 -15t17 -21.5t5.5 -23 q0 -16 -6.5 -34.5t-17.5 -40.5l-860 -1624q-10 -20 -30.5 -38.5t-47.5 -18.5q-16 0 -30.5 5t-24.5 14t-16 20.5t-6 22.5zM1474 435q0 93 21 174.5t66.5 142t118.5 95.5t176 35t175.5 -35t118 -95.5t66.5 -142t21 -174.5t-21 -174t-66.5 -141.5t-118.5 -95.5 q-72 -35 -175 -35t-176 35t-118.5 95.5t-66.5 141.5t-21 174zM1675 435q0 -66 8.5 -124t29 -101.5t55.5 -68.5q37 -25 88.5 -25t86.5 25t55.5 68.5t29 101.5t8.5 124q0 61 -8.5 119t-29 103t-55.5 71.5t-87 26.5q-53 0 -88 -26.5t-55.5 -71.5t-29 -103t-8.5 -119z" />
<glyph unicode="&#x26;" horiz-adv-x="1562" d="M69 440q0 95 31.5 175t86.5 148t130 123.5t162 100.5q-39 45 -74.5 92.5t-62.5 94.5t-43.5 95t-16.5 100q0 97 35 172.5t95.5 126.5t139.5 77q77 27 166 27q86 0 154 -17.5t118.5 -46.5t85 -68.5t56 -83t31.5 -89.5t10 -87q0 -69 -29.5 -131t-78 -116.5t-114.5 -101 t-137 -81.5l336 -401q27 30 47 58t37 56t32 55.5t31 59.5q14 27 37 40.5t49 13.5q20 0 39 -7.5t34 -20t24.5 -30.5t9.5 -36q0 -30 -17 -73t-45 -90t-63 -93.5t-71 -82.5l186 -229q13 -17 18 -37t3 -39.5t-13 -37t-27 -32.5q-45 -41 -92.5 -34t-85.5 54l-152 185 q-66 -67 -133.5 -113.5t-138.5 -76t-144.5 -43t-151.5 -13.5q-130 0 -223.5 40.5t-153.5 105.5t-88.5 147.5t-28.5 163.5zM299 475q0 -69 26.5 -123.5t69.5 -93t100 -58.5t118 -20q109 0 205 47q94 45 172 148l-402 489q-59 -37 -111 -77.5t-92 -86.5t-63 -102t-23 -123z M503 1400q0 -52 17.5 -94.5t45 -81.5t62.5 -76q36 -35 71 -78q39 24 85.5 53.5t86.5 68t66.5 88.5t26.5 114q0 45 -17 85t-48.5 70t-74.5 48q-43 17 -92 17q-50 0 -91.5 -16t-72 -45t-48 -68t-17.5 -85z" />
<glyph unicode="'" horiz-adv-x="687" d="M249 1216v444q0 45 26.5 72.5t69.5 27.5t68 -27.5t25 -72.5v-444q0 -45 -25 -72t-68 -27t-69.5 27t-26.5 72z" />
<glyph unicode="(" horiz-adv-x="643" d="M106 671q0 97 12 199t35.5 206.5t57.5 208.5t76 205q46 112 81 182t61.5 108.5t48 53t43.5 14.5q31 0 51.5 -16.5t20.5 -39.5t-17 -74t-40 -118q-28 -77 -61 -179.5t-61.5 -221.5t-48 -253t-19.5 -275q0 -142 19.5 -275t48 -252.5t61.5 -221.5t61 -181q23 -66 40 -116.5 t17 -73.5t-20.5 -40t-51.5 -17q-23 0 -44 11.5t-46.5 48.5t-59.5 108t-84 189q-41 102 -75.5 206.5t-58 208.5t-35.5 205.5t-12 199.5z" />
<glyph unicode=")" horiz-adv-x="643" d="M46 -449q0 23 17 73.5t40 116.5q27 77 60.5 180t62.5 222.5t48 253.5t19 274q0 141 -19 275t-48 253t-62.5 221.5t-60.5 179.5q-23 66 -40 117.5t-17 74.5t20.5 39.5t52.5 16.5q21 0 42.5 -14.5t48 -53t60 -109.5t82.5 -181q43 -101 76.5 -205t57 -208.5t35.5 -206.5 t12 -199q0 -98 -12 -199.5t-36.5 -205.5t-58 -208.5t-74.5 -206.5q-49 -117 -83 -188.5t-60 -108.5t-46.5 -48.5t-43.5 -11.5q-32 0 -52.5 16.5t-20.5 40.5z" />
<glyph unicode="*" horiz-adv-x="870" d="M11 1464q0 20 8 35t19 25t22.5 14.5t19.5 4.5q9 0 24.5 -4.5t27.5 -8.5l233 -81v258q0 38 18.5 58.5t51.5 20.5q34 0 52.5 -20t18.5 -59v-260l230 83q19 7 37.5 9.5t35 -2t28.5 -14.5t18 -27q12 -37 -7.5 -61.5t-52.5 -34.5l-257 -76l178 -233q10 -13 14 -27t1.5 -28.5 t-11 -27.5t-22.5 -21q-26 -16 -57.5 -8t-48.5 33l-156 235l-159 -235q-17 -25 -47.5 -33t-56.5 8q-16 8 -24.5 21t-10.5 27.5t2 28.5q6 14 14 27l178 233q-26 7 -58 17t-68 20t-70 20q-36 10 -62 19q-30 10 -46.5 26.5t-16.5 37.5z" />
<glyph unicode="+" horiz-adv-x="1488" d="M102 671q0 20 7 37.5t20 31.5t30.5 21.5t37.5 7.5h451v452q0 20 8 38t20.5 31.5t30 20.5t38.5 7q20 0 37 -7t31 -20.5t21.5 -31.5t7.5 -38v-452h446q20 0 38 -7.5t31 -21.5t21 -31.5t8 -37.5t-8 -37.5t-21 -31t-31 -20.5t-38 -7h-446v-449q0 -20 -7.5 -38t-21.5 -31.5 t-31.5 -21.5t-36.5 -8q-20 0 -38 8t-30.5 21.5t-20.5 30.5q-8 19 -8 39v449h-451q-20 0 -37.5 7t-30.5 20.5t-20 31t-7 37.5z" />
<glyph unicode="," horiz-adv-x="687" d="M157 150q0 36 13.5 67.5t37.5 54.5t55.5 37t66.5 14q52 0 90.5 -20t65 -55t38.5 -83.5t12 -104.5q0 -49 -5 -94t-18 -87t-35 -80.5t-53 -75.5q-20 -23 -45 -44.5t-52.5 -38t-54.5 -26.5t-50 -10q-27 0 -42 13.5t-15 32.5q0 20 23 37.5t51 35.5q30 17 58.5 42.5t52.5 61.5 t39 84t15 110q-26 -22 -53 -26.5t-46 -4.5q-36 0 -64 13t-46.5 35t-28.5 51.5t-10 60.5z" />
<glyph unicode="-" horiz-adv-x="1148" d="M102 671q0 20 7 37.5t20 31.5t30.5 21.5t37.5 7.5h757q20 0 38 -7.5t30.5 -21.5t20 -31.5t7.5 -37.5t-7.5 -37.5t-20 -31t-30.5 -20.5t-38 -7h-757q-20 0 -37.5 7t-30.5 20.5t-20 31t-7 37.5z" />
<glyph unicode="." horiz-adv-x="687" d="M163 150q0 37 14.5 70t39.5 57.5t57 38.5t71 14q37 0 69 -14t57 -38.5t39.5 -57.5t14.5 -70t-14.5 -70t-39.5 -57t-57 -38.5t-69 -14.5q-38 0 -70.5 14.5t-57.5 38.5t-39.5 57t-14.5 70z" />
<glyph unicode="/" horiz-adv-x="826" d="M-16 41q0 16 6 32t13 33l652 1653q4 11 10 23.5t17.5 24t28.5 18.5t43 7q14 0 29.5 -6t29.5 -16t21.5 -25t7.5 -33q0 -13 -5.5 -31t-12.5 -35l-652 -1652q-5 -11 -10.5 -23t-16.5 -23t-28.5 -18t-43.5 -7q-16 0 -31 5t-28 15.5t-21.5 25t-8.5 32.5z" />
<glyph unicode="0" horiz-adv-x="1379" d="M97 875q0 99 6.5 204.5t28 206t61 189.5t106 156.5t161.5 105.5q95 39 229 39q133 0 229.5 -38.5t162.5 -106t106 -156.5t61.5 -189.5t28.5 -206t7 -204.5t-7 -205.5t-28.5 -206.5t-61.5 -188.5t-106 -156t-162.5 -106t-229.5 -38.5q-100 0 -178.5 22.5t-138.5 62.5 t-104.5 95t-74.5 120.5t-49.5 140t-30 152t-13.5 155t-3 153.5zM335 875q0 -64 2.5 -140.5t12.5 -154t31.5 -149.5t61.5 -128.5t99.5 -89.5t146.5 -33t148 33t99.5 89.5t61 128.5t33 149.5t12.5 154t2 140.5q0 65 -2 141.5t-12.5 153.5t-33 149t-61 128t-99.5 90 q-62 33 -148 33q-87 0 -146.5 -33.5t-99.5 -89.5t-61.5 -128t-31.5 -149t-12.5 -153.5t-2.5 -141.5z" />
<glyph unicode="1" horiz-adv-x="1379" d="M184 1294q-1 22 4.5 42t18.5 35t31 25t39 11q73 6 137.5 21t116.5 45.5t90 82t61 131.5q10 33 37 55.5t65 22.5q21 0 40.5 -9t33.5 -23t22.5 -34t8.5 -42v-1563q0 -25 -9 -46t-24 -35t-35 -22t-43 -8t-43.5 8t-35.5 22t-24 35t-9 46v1209q-74 -50 -164 -74t-206 -29 q-21 -2 -40.5 4.5t-34.5 19t-25 31t-12 39.5z" />
<glyph unicode="2" horiz-adv-x="1379" d="M105.5 111.5q-6.5 31.5 3.5 64.5q30 107 79 190t111.5 149t133 119.5t142.5 100.5q113 77 196 136.5t136 116.5t78 120t25 148q0 71 -25 128t-68 96.5t-102.5 61t-126.5 21.5q-77 0 -136.5 -28t-101 -75t-66 -110t-29.5 -133q-2 -24 -13.5 -44t-28.5 -34.5t-39 -22.5 t-47 -6q-24 1 -44 12.5t-35 28.5t-23 39.5t-5 45.5q6 115 49.5 213t120 169t180 110t229.5 39q116 0 217 -34t176.5 -100t119.5 -161.5t44 -218.5q0 -80 -18 -149t-49.5 -126t-73 -104t-89.5 -88t-98.5 -76t-99.5 -65q-79 -50 -157.5 -102.5t-144.5 -107.5t-110 -112 t-53 -119h794q21 0 39 -7.5t32.5 -22t23 -33t8.5 -39.5q0 -22 -8.5 -40t-23 -32t-32.5 -22t-39 -8h-925q-35 0 -61.5 15t-42.5 40t-22.5 56.5z" />
<glyph unicode="3" horiz-adv-x="1379" d="M80 438q-3 24 4.5 45.5t22.5 38.5t35.5 28t44.5 13q25 2 47 -6t38.5 -22t28 -34.5t15.5 -44.5q10 -66 37 -120t71.5 -93.5t104 -61t133.5 -21.5q83 0 151 23t116.5 66t75.5 105t27 141q0 81 -27 140.5t-75.5 99.5t-115 59.5t-143.5 19.5h-53q-45 0 -70 27t-25 67t26 67 t69 27h23q64 0 122 18t102 53t70.5 87.5t26.5 120.5q0 70 -22.5 123t-62.5 89.5t-96 55t-122 18.5q-71 0 -126 -24t-94 -65.5t-61 -96.5t-28 -118q-3 -23 -13.5 -43t-27 -35t-38.5 -22.5t-45 -5.5q-24 1 -45 12.5t-35 28t-21.5 38.5t-4.5 45q13 108 54.5 197t110 153.5 t162.5 100t212 35.5q116 0 215.5 -30t171.5 -90.5t113 -153t41 -215.5q0 -58 -16.5 -109.5t-46.5 -96.5t-72 -82q-41 -35 -91 -63q77 -19 133.5 -58.5t93.5 -95t55 -125t18 -150.5q0 -85 -21.5 -157t-59.5 -131.5t-89.5 -106t-111.5 -77.5q-34 -17 -73.5 -29.5t-81.5 -19 t-86.5 -8.5t-88.5 -2q-120 0 -221 30t-176.5 90t-123 148t-61.5 203z" />
<glyph unicode="4" horiz-adv-x="1379" d="M59 542q0 23 7 44q7 23 18 40l763 1089q15 22 47 36q33 14 61 14q25 0 45.5 -9.5t37 -26t25.5 -38t9 -45.5v-1043h156q23 0 41.5 -7.5t32.5 -22t21.5 -32.5t7.5 -39q0 -22 -7 -40.5t-20.5 -32.5t-33 -22t-42.5 -8h-156v-305q0 -25 -8.5 -46t-24 -35t-35.5 -22t-43 -8 t-43 8t-35.5 22t-24.5 35t-9 46v305h-646q-30 0 -56.5 10.5t-45.5 30t-30.5 46t-11.5 56.5zM292 603h557v788z" />
<glyph unicode="5" horiz-adv-x="1379" d="M109.5 412q3.5 23 15 43t30 34t41.5 20t46.5 3t42 -13.5t32.5 -29.5q15 -17 22 -43q13 -56 43 -102.5t73.5 -79t100.5 -50.5t125 -18q74 0 140.5 25.5t116 76.5t77 128t27.5 179q0 84 -27 156.5t-77.5 124.5t-121.5 82t-157 30q-50 0 -92 -11.5t-78.5 -31.5t-69.5 -47 t-64 -59q-20 -20 -46.5 -28.5t-55.5 -2.5q-23 4 -43 15.5t-32 28.5t-18 39.5t-1 49.5l121 734q6 34 34 57.5t65 23.5h721q23 0 42 -8.5t33.5 -23t23 -34.5t8.5 -41q0 -23 -8.5 -43t-23 -34.5t-34.5 -23t-41 -8.5h-631l-74 -465q30 30 67 51.5t78 34.5t84.5 18.5t86.5 5.5 q120 0 225 -37.5t182 -113.5t122.5 -189.5t45.5 -266.5q0 -76 -17.5 -149.5t-51.5 -139.5t-86.5 -121t-121 -95t-156 -63t-191.5 -23q-99 0 -188 25t-163 74.5t-125.5 121.5t-73.5 168q-6 23 -2.5 46z" />
<glyph unicode="6" horiz-adv-x="1379" d="M87 824q0 123 13.5 241t43.5 223.5t80.5 195t123 154.5t170.5 101.5t224 36.5q83 0 160.5 -22t141.5 -65t111 -107q49 -65 72 -149q6 -23 2.5 -44.5t-15 -41t-29.5 -33t-40 -18.5q-24 -6 -45.5 -3t-40 14t-31.5 28.5t-18 40.5q-13 45 -41 82.5t-65 61.5t-82.5 37 t-93.5 13q-84 0 -146.5 -28t-107 -75.5t-73 -110.5t-46.5 -133t-26.5 -144t-11.5 -141q36 49 83.5 88t102.5 66.5t116.5 42.5t126.5 15q131 0 233 -45t171.5 -124t106 -184t36.5 -226q0 -68 -13 -138t-41 -136.5t-73 -125.5t-111.5 -103.5t-154.5 -71t-201 -26.5 q-131 0 -228.5 38t-165.5 101.5t-110.5 148.5t-66.5 180t-32.5 194t-8.5 192zM352 556q0 -83 23.5 -153t70 -121.5t113.5 -80t152 -28.5q83 0 148 29.5t109 81.5t67 121.5t23 146.5q0 81 -21.5 152.5t-65 125.5t-108.5 84.5t-152.5 30.5t-154.5 -30.5t-112 -83t-68.5 -123 t-23.5 -152.5z" />
<glyph unicode="7" horiz-adv-x="1379" d="M99 1639q0 23 8.5 42t23.5 33.5t34 23t42 8.5h958q26 0 48.5 -9.5t39.5 -26.5t26 -39t9 -47t-9 -46.5t-26 -38.5q-123 -123 -235.5 -284.5t-201 -349t-145 -393.5t-66.5 -418q-2 -27 -14 -48.5t-31 -36.5t-43.5 -22t-51.5 -4t-48.5 15t-36.5 30.5t-22.5 43t-4.5 50.5 q20 201 79.5 394t148 372t201.5 340.5t239 301.5h-814q-23 0 -42 8.5t-34 23t-23.5 34.5t-8.5 43z" />
<glyph unicode="8" horiz-adv-x="1379" d="M83 512q0 162 77 273.5t220 166.5q-53 26 -93 64t-67.5 86t-42 103t-14.5 113q0 109 41.5 194t112.5 144t164.5 89.5t196.5 30.5q144 0 245 -40t165.5 -106t93 -147.5t28.5 -164.5q0 -120 -56 -213.5t-162 -149.5q70 -28 126.5 -71t97.5 -99t63 -124.5t22 -148.5 q0 -130 -48.5 -231t-131.5 -170.5t-192.5 -105t-229.5 -35.5q-127 0 -240 35t-196.5 102t-131.5 169t-48 236zM320 505q0 -80 29 -141.5t80 -104t120 -64.5t150 -22q79 0 144.5 24.5t114.5 69.5t75.5 106.5t26.5 135.5q0 73 -29.5 132.5t-80.5 102t-116.5 67t-138.5 24.5 q-74 0 -142 -21.5t-119.5 -63t-82.5 -103.5t-31 -142zM398 1307q0 -67 23.5 -118.5t65 -86t96.5 -52.5t116 -18q60 0 110 19t86.5 54.5t56.5 86.5t20 115q0 63 -20 111.5t-56.5 82t-88.5 51.5t-115 18q-59 0 -111.5 -17t-93.5 -50t-65 -82.5t-24 -113.5z" />
<glyph unicode="9" horiz-adv-x="1379" d="M87 1175q0 68 13 138t41 137t73 125.5t111.5 104t154.5 71t201 25.5q131 0 228.5 -38t165.5 -101.5t110.5 -148.5t66.5 -180t32.5 -194.5t8.5 -191.5q0 -123 -13.5 -241t-44.5 -223.5t-80.5 -195t-122 -154t-170.5 -101.5t-224 -37q-83 0 -160.5 22t-141.5 66t-111.5 108 t-70.5 147q-5 23 -2.5 45t14 41t29.5 32.5t40 18.5q24 6 45.5 3t40 -14t31.5 -28.5t18 -40.5q13 -47 41.5 -82.5t65 -60.5t81.5 -38t94 -13q84 0 146.5 28t107 75.5t73 111.5t46 134t26.5 143q7 73 10 141q-36 -48 -82.5 -88t-101.5 -67.5t-116 -41.5q-63 -14 -129 -14 q-130 0 -231.5 45t-171 123t-106 183.5t-36.5 225.5zM322 1194q0 -81 21.5 -152.5t65 -124.5t108.5 -84t152 -31t153.5 30t112.5 82.5t69.5 124t23.5 151.5q0 83 -23.5 153t-70 121.5t-113 80.5t-152.5 29q-83 0 -148 -30t-108.5 -82t-67 -121.5t-23.5 -146.5z" />
<glyph unicode=":" horiz-adv-x="687" d="M163 150q0 37 14.5 70t39.5 57.5t57 38.5t71 14q37 0 69 -14t57 -38.5t39.5 -57.5t14.5 -70t-14.5 -70t-39.5 -57t-57 -38.5t-69 -14.5q-38 0 -70.5 14.5t-57.5 38.5t-39.5 57t-14.5 70zM163 1147q0 37 14.5 70t39.5 57t57 38.5t71 14.5q37 0 69 -14.5t57 -38.5t39.5 -57 t14.5 -70t-14.5 -70t-39.5 -57.5t-57 -38.5t-69 -14q-38 0 -70.5 14t-57.5 38.5t-39.5 57.5t-14.5 70z" />
<glyph unicode=";" horiz-adv-x="687" d="M157 150q0 36 13.5 67.5t37.5 54.5t55.5 37t66.5 14q52 0 90.5 -20t65 -55t38.5 -83.5t12 -104.5q0 -49 -5 -94t-18 -87t-35 -80.5t-53 -75.5q-20 -23 -45 -44.5t-52.5 -38t-54.5 -26.5t-50 -10q-27 0 -42 13.5t-15 32.5q0 20 23 37.5t51 35.5q27 15 56.5 39.5t53 60 t39.5 84.5t16 114q-26 -22 -53 -26.5t-46 -4.5q-36 0 -64 13t-46.5 35t-28.5 51.5t-10 60.5zM163 1147q0 37 14.5 70t39.5 57t57 38.5t71 14.5q37 0 69 -14.5t57 -38.5t39.5 -57t14.5 -70t-14.5 -70t-39.5 -57.5t-57 -38.5t-69 -14q-38 0 -70.5 14t-57.5 38.5t-39.5 57.5 t-14.5 70z" />
<glyph unicode="&#x3c;" horiz-adv-x="1488" d="M60 678q0 30 18 55.5t44 38.5l1081 498q30 13 57 19.5t50 2.5t40 -18t26 -44q5 -23 2.5 -42.5t-12.5 -36t-27 -27.5q-18 -11 -35 -20l-964 -426l961 -423q20 -9 38 -22t29.5 -29.5t14.5 -36.5t-7 -44q-12 -29 -31 -41.5t-43 -15.5t-49 2.5t-46 17.5l-1084 499 q-26 13 -44.5 38t-18.5 55z" />
<glyph unicode="=" horiz-adv-x="1488" d="M102 426q0 20 7 38t20 31.5t30.5 20.5t37.5 7h1093q20 0 38 -7t30.5 -20.5t20 -31.5t7.5 -38t-7.5 -38t-20 -30.5t-30.5 -20t-38 -7.5h-1093q-20 0 -37.5 7.5t-30.5 20t-20 30.5t-7 38zM102 917q0 20 7 37.5t20 31.5t30.5 21t37.5 7h1093q20 0 38 -7t30.5 -21t20 -31.5 t7.5 -37.5t-7.5 -38t-20 -31t-30.5 -20t-38 -7h-1093q-20 0 -37.5 7t-30.5 20t-20 31t-7 38z" />
<glyph unicode="&#x3e;" horiz-adv-x="1488" d="M106 167q3 20 14.5 36.5t29 29.5t37.5 22l963 423l-966 426q-17 9 -34 20t-27.5 27t-13.5 36t4 43q11 28 28.5 43t39.5 19t48.5 -2t56.5 -20l1081 -498q26 -13 44 -38t18 -56q0 -30 -18 -55t-44 -38l-1084 -499q-23 -12 -48 -17.5t-48.5 -2.5t-42 15.5t-31.5 41.5 q-10 24 -7 44z" />
<glyph unicode="?" horiz-adv-x="1379" d="M140 1281q12 113 54.5 207t114 161t169 104t214.5 37t215 -33.5t168 -97t109 -155t39 -208.5q0 -78 -26.5 -142t-66.5 -118.5t-84.5 -97.5t-80.5 -76q-40 -35 -70.5 -69t-52 -73t-33 -86.5t-11.5 -110.5v-33q0 -22 -8.5 -43t-24.5 -36.5t-36.5 -24t-43.5 -8.5t-44.5 8.5 t-36.5 24t-24 36.5t-9 43v55q0 73 19 133.5t49 110.5t68.5 91.5t78.5 77.5q31 27 66.5 61.5t66.5 76.5t51 91.5t20 108.5q0 65 -19.5 120t-57.5 95.5t-93 63t-128 22.5q-80 0 -138.5 -24t-98 -68.5t-61.5 -106.5t-28 -138q-1 -23 -12.5 -43t-28 -33.5t-38.5 -21t-45 -6 t-43 13t-33.5 28t-21 38t-4.5 45.5zM523 143q0 31 11.5 59t33 48t49.5 32.5t61 12.5q31 0 59.5 -12.5t49.5 -32.5t33 -48t12 -59t-12 -58.5t-33 -48t-49.5 -33t-59.5 -12.5q-32 0 -60.5 12.5t-50 33t-33 48t-11.5 58.5z" />
<glyph unicode="@" horiz-adv-x="1983" d="M113 871q0 129 32 244.5t91 215.5t141 181t182 138t217.5 88t244.5 31q112 0 217 -21t199.5 -63.5t172 -107.5t134 -153t89 -199t32.5 -244q0 -113 -25 -203t-68 -158.5t-99.5 -117.5t-119.5 -79.5t-129 -45t-126 -14.5q-27 0 -52 9.5t-44 28t-31.5 46.5t-13.5 66 q-52 -70 -122 -97t-150 -27q-70 0 -133.5 31.5t-111.5 85t-76 126.5t-28 157q0 120 36.5 214.5t97.5 159.5t141 100t167 35q52 0 99 -12t86.5 -37t70 -62t49.5 -86l24 136q3 17 12 29t21.5 18.5t25.5 9.5t24 3q29 0 44 -9.5t21 -23.5t6 -32t-4 -37l-96 -559q0 -40 19 -62.5 t63 -22.5q38 0 82.5 29t82.5 83.5t63 131.5t25 173q0 159 -50 279t-139.5 201t-214 122.5t-272.5 41.5q-95 0 -184.5 -26.5t-168.5 -74.5t-145.5 -115.5t-115 -149.5t-76 -177t-27.5 -198q0 -169 58.5 -306t158 -234.5t232.5 -150.5t283 -53q98 0 169.5 13.5t125.5 33 t92 41.5t68 41q23 14 39.5 24t28 10t21.5 -5t17.5 -13.5t12.5 -19t5 -22.5q0 -30 -25 -60t-67 -58.5t-98.5 -53.5t-121 -44.5t-133.5 -30t-134 -10.5q-131 0 -251 30.5t-222.5 86.5t-184.5 136t-141 180t-91 217.5t-32 247.5zM728 812q0 -61 16.5 -108.5t48 -80t73 -49 t91.5 -16.5q60 0 110 24t85.5 66.5t55.5 100.5t20 125q0 56 -14 101.5t-42 77.5t-69.5 51t-95.5 19q-60 0 -112.5 -25.5t-89 -68t-57 -99t-20.5 -118.5z" />
<glyph unicode="A" horiz-adv-x="1610" d="M27 88q-1 21 7 44l597 1523q11 30 26 47t33.5 27.5t38.5 14t45 3.5h73q48 0 81 -20t53 -71l593 -1516q9 -23 8.5 -45.5t-9.5 -43t-25 -36.5t-41 -25q-24 -9 -49 -8t-46.5 10t-38.5 25.5t-27 41.5l-172 446h-738l-171 -449q-9 -26 -25.5 -42.5t-37 -24.5t-44.5 -8.5 t-48 8.5q-24 8 -42.5 23t-28.5 34.5t-12 41.5zM513 709h585l-291 780z" />
<glyph unicode="B" horiz-adv-x="1701" d="M194 123v1501q0 26 9.5 48.5t26 38.5t39.5 26t48 10h525q77 0 154.5 -7.5t147.5 -27t130 -53t104.5 -85t70 -123t25.5 -167.5q0 -58 -16.5 -114t-50 -106t-81.5 -89q-48 -38 -113 -61q98 -26 166 -65.5t111 -93t62.5 -119t19.5 -141.5q0 -99 -31 -188.5t-101 -157 t-184.5 -108.5t-283.5 -41h-655q-25 0 -48 10t-39.5 26.5t-26 38.5t-9.5 48zM443 209h507q87 0 155.5 16.5t116.5 52t73.5 89t25.5 128.5q0 144 -111.5 215.5t-324.5 71.5h-442v-573zM443 985h404q117 0 192 26.5t117 69.5t57 96.5t15 106.5q0 70 -22 118t-68.5 77.5 t-116 43t-164.5 13.5h-414v-551z" />
<glyph unicode="C" horiz-adv-x="1793" d="M116 867q0 128 23.5 247t71.5 221t118.5 185.5t163.5 144t208.5 93t252.5 32.5q116 0 222.5 -31.5t193.5 -90t153.5 -143t103.5 -189.5q9 -23 5.5 -47.5t-15 -44.5t-31 -35.5t-43.5 -24.5t-48 -6t-45 13t-37 28t-24 42q-25 73 -68.5 132.5t-101.5 101t-126.5 64.5 t-142.5 23q-102 0 -184 -26.5t-148 -74.5t-114 -113t-78.5 -143t-46.5 -164.5t-16 -175.5q0 -146 34.5 -276.5t104.5 -228t176.5 -154.5t252.5 -57q93 0 175 31.5t146.5 88t107.5 133.5t59 169q4 24 18 44t33.5 32t44 17t48.5 0q26 -6 45 -19t32 -32.5t18 -42t1 -47.5 q-29 -138 -99 -246t-167 -182t-215 -112.5t-243 -38.5q-137 0 -251.5 31.5t-205 89.5t-158.5 139.5t-114 181.5t-68 216.5t-22 244.5z" />
<glyph unicode="D" horiz-adv-x="1748" d="M194 123v1501q0 26 9.5 48.5t26 38.5t39.5 26t48 10h467q206 0 362.5 -51.5t262 -154t159.5 -258.5t54 -366q0 -221 -47.5 -391.5t-149 -287t-261.5 -177.5t-386 -61h-461q-25 0 -48 10t-39.5 26.5t-26 38.5t-9.5 48zM443 209h332q30 0 71.5 1.5t89.5 9t98.5 26.5 t100 52.5t93 85t77 125.5t53 175t19.5 233q0 153 -30.5 268.5t-98.5 193.5t-174.5 117.5t-259.5 39.5h-371v-1327z" />
<glyph unicode="E" horiz-adv-x="1515" d="M194 123v1501q0 26 9.5 48.5t26 38.5t39.5 26t48 10h1019q24 0 43.5 -8.5t33.5 -22.5t21 -33.5t7 -40.5q0 -22 -7 -41t-21 -33.5t-33.5 -23t-43.5 -8.5h-893v-524h818q23 0 43 -8.5t34.5 -22.5t22.5 -34t8 -42q0 -21 -8 -40.5t-22.5 -33.5t-33.5 -23q-21 -9 -44 -9h-818 v-590h893q22 0 42.5 -8.5t34 -23t21 -33t7.5 -41.5q0 -21 -7.5 -40t-21 -33t-34 -22t-42.5 -8h-1019q-25 0 -48 10t-39.5 26.5t-26 38.5t-9.5 48z" />
<glyph unicode="F" horiz-adv-x="1422" d="M194 104v1520q0 26 9.5 48.5t26 38.5t39.5 26t48 10h953q24 0 43.5 -8.5t33.5 -22.5t21.5 -33.5t7.5 -40.5q0 -22 -7.5 -41t-21.5 -33.5t-33.5 -23t-43.5 -8.5h-827v-524h710q22 0 42.5 -8.5t34 -22.5t22 -34t8.5 -42q0 -21 -8.5 -40.5t-22 -33.5t-34 -23t-42.5 -9h-710 v-695q0 -27 -10 -50t-27 -38.5t-39 -24.5q-24 -8 -50 -8q-25 0 -48 8.5t-39.5 24t-26 38.5t-9.5 50z" />
<glyph unicode="G" horiz-adv-x="1870" d="M116 867q0 123 23.5 238.5t71.5 218.5t118.5 189t163.5 147.5t208.5 95.5t252.5 34t255 -39t209.5 -104t154.5 -150.5t92 -176.5q7 -24 4.5 -48.5t-13 -46t-28.5 -37t-44 -24.5q-25 -9 -50 -6t-47.5 14t-39 28.5t-23.5 42.5q-15 60 -56 120.5t-103 109.5t-142.5 79 t-172.5 30q-102 0 -184 -26.5t-148 -74.5t-114 -113t-78.5 -143t-46.5 -164.5t-16 -175.5q0 -146 36.5 -276.5t109.5 -228t181.5 -154.5t254.5 -57q67 0 128.5 20.5t115.5 57t98 87.5t75.5 111.5t49 129.5t17.5 141h-394q-51 0 -79.5 31t-28.5 74q0 44 29 75.5t79 31.5h531 q23 0 43 -8t35.5 -21.5t24 -34t8.5 -46.5v3v-761q0 -31 -22.5 -54t-55.5 -23q-26 0 -46.5 15t-28.5 39l-63 205q-25 -36 -68 -83t-105 -91t-145 -74t-189 -30q-206 0 -363.5 69t-262.5 189t-158.5 285t-53.5 360z" />
<glyph unicode="H" horiz-adv-x="1793" d="M194 104v1539q0 27 9.5 50t26 38.5t39.5 25t48 9.5q26 0 49 -9.5t40 -25t27 -37.5t10 -51v-631h907v631q0 27 10 50t26.5 38.5t39.5 25t48 9.5q26 0 49 -9.5t40 -25t27 -37.5t10 -51v-1539q0 -27 -10 -50t-27 -38.5t-40 -24t-49 -8.5q-25 0 -48 8.5t-39.5 24t-26.5 38.5 t-10 50v695h-907v-695q0 -27 -10 -50t-27 -38.5t-39 -24.5q-24 -8 -50 -8q-25 0 -48 8.5t-39.5 24t-26 38.5t-9.5 50z" />
<glyph unicode="I" horiz-adv-x="687" d="M219 104v1539q0 27 10 49.5t27 38.5t39 25t50 9q25 0 48 -9t39.5 -25t26.5 -38.5t10 -49.5v-1539q0 -27 -10 -50t-26.5 -38.5t-39.5 -24t-48 -8.5q-26 0 -49 8.5t-40 24t-27 38.5t-10 50z" />
<glyph unicode="J" horiz-adv-x="1288" d="M60 483q0 28 10 50t28 38.5t41 25t48 8.5q26 0 49.5 -8.5t41 -25t28 -38.5t10.5 -50q0 -60 12 -117t43 -100.5t81 -70t126 -26.5q77 0 128.5 23.5t82 65t43.5 96.5t13 119v1170q0 27 10 49.5t26.5 38.5t39.5 25t49 9q25 0 48 -9t40 -25t27 -38.5t10 -49.5v-1203 q0 -58 -10.5 -116t-35 -111t-64.5 -98.5t-98 -78.5t-135.5 -52.5t-180.5 -19.5q-254 0 -382.5 129.5t-128.5 389.5z" />
<glyph unicode="K" horiz-adv-x="1620" d="M194 104v1539q0 27 9.5 49.5t26 38.5t39.5 25t48 9q26 0 49 -9t40 -25t27 -38.5t10 -49.5v-734l864 824q16 16 35 24t40.5 8t41 -9t35.5 -23q15 -16 23 -35t8 -39t-8 -40t-25 -35l-542 -510l618 -890q16 -21 21 -46t1.5 -48.5t-16 -44.5t-35.5 -36q-21 -16 -46 -21 t-49.5 -2t-46 15.5t-35.5 34.5l-586 875l-298 -278v-529q0 -27 -10 -50t-27 -38.5t-39 -24.5q-24 -8 -50 -8q-25 0 -48 8.5t-39.5 24t-26 38.5t-9.5 50z" />
<glyph unicode="L" horiz-adv-x="1365" d="M194 123v1520q0 27 9.5 49.5t26 38.5t39.5 25t48 9q26 0 49 -9t40 -25t27 -38.5t10 -49.5v-1434h790q24 0 43.5 -8.5t33.5 -23t21 -33t7 -41.5q0 -21 -7 -40t-21 -33t-33.5 -22t-43.5 -8h-916q-25 0 -48 8.5t-39.5 25t-26 39.5t-9.5 50z" />
<glyph unicode="M" horiz-adv-x="2152" d="M194 104v1475q0 44 14.5 75.5t38 52t53 30.5t59.5 10h26q35 0 61.5 -7.5t46.5 -24t36 -43t30 -62.5l516 -1295l518 1295q14 36 30 62.5t36 43t45.5 24t61.5 7.5h26q30 0 60 -10t53.5 -30.5t38 -52.5t14.5 -75v-1475q0 -27 -10 -50t-26.5 -38.5t-39.5 -24t-49 -8.5 q-25 0 -48 8.5t-40.5 24t-27.5 38.5t-10 50v1276l-526 -1323q-13 -31 -40.5 -52.5t-65 -21.5t-65.5 21.5t-40 51.5l-527 1324v-1276q0 -27 -10 -50t-27 -38.5t-39 -24.5q-24 -8 -50 -8q-25 0 -48 8.5t-39.5 24t-26 38.5t-9.5 50z" />
<glyph unicode="N" horiz-adv-x="1800" d="M194 104v1488q0 42 12.5 75t34.5 54.5t53.5 32.5t67.5 11q48 0 83 -22.5t58 -59.5l854 -1356v1316q0 27 10 49.5t26.5 38.5t39.5 25t48 9q26 0 49 -9t40 -25t27 -38.5t10 -49.5v-1487q0 -43 -14 -76t-37.5 -55t-55 -32t-69.5 -10q-48 0 -85.5 22t-59.5 59l-843 1346 v-1306q0 -27 -10 -50t-27 -38.5t-39 -24.5q-24 -8 -50 -8q-25 0 -48 8.5t-39.5 24t-26 38.5t-9.5 50z" />
<glyph unicode="O" horiz-adv-x="1889" d="M103 874q0 120 24.5 234.5t71.5 216.5t118 187t163.5 147.5t208 96.5t252.5 34q139 0 255.5 -34t210 -96.5t164.5 -147.5t118 -187t71.5 -217.5t24.5 -233.5q0 -120 -24.5 -234t-71.5 -215.5t-118 -186t-164.5 -146t-210 -95t-255.5 -33.5q-137 0 -252.5 33.5t-208 95 t-163.5 146t-118 186t-71.5 215.5t-24.5 234zM353 874q0 -88 15 -173.5t46 -163.5t78 -146t112 -116.5t149.5 -77t187.5 -28.5q106 0 191 28.5t151.5 77t114.5 116.5t78.5 146t45 163.5t14.5 173.5q0 87 -14.5 173t-45 164.5t-78.5 146.5t-114.5 118t-151.5 78t-191 28 q-103 0 -187.5 -28t-149.5 -78t-112 -118t-78 -146.5t-46 -164.5t-15 -173z" />
<glyph unicode="P" horiz-adv-x="1610" d="M194 104v1520q0 26 9.5 48.5t26 38.5t39.5 26t48 10h645q132 0 235 -36t173 -103.5t106.5 -164t36.5 -215.5q0 -115 -36 -211t-105 -164q-70 -68 -172 -105q-100 -36 -231 -36h-7h-519v-608q0 -27 -10 -50t-27 -38.5t-39 -24.5q-24 -8 -50 -8q-25 0 -48 8.5t-39.5 24 t-26 38.5t-9.5 50zM443 921h439h14q188 0 278 77q94 80 93 230q0 151 -93.5 229.5t-291.5 78.5h-439v-615z" />
<glyph unicode="Q" horiz-adv-x="1889" d="M103 874q0 120 24.5 234.5t71.5 216.5t118 187t163.5 147.5t208 96.5t252.5 34q139 0 255.5 -34t210 -96.5t164.5 -147.5t118 -187t71.5 -217.5t24.5 -233.5q0 -112 -21 -218.5t-61.5 -201.5t-102 -177.5t-141.5 -144.5l120 -141q14 -17 20.5 -37.5t5 -41.5t-11.5 -39.5 t-27 -32.5q-17 -16 -38 -22.5t-41.5 -4t-40 11.5t-33.5 28l-146 168q-73 -27 -154 -42t-172 -15q-137 0 -252.5 33.5t-208 95t-163.5 146t-118 186t-71.5 215.5t-24.5 234zM353 874q0 -88 15 -173.5t46 -163.5t78 -146t112 -116.5t149.5 -77t187.5 -28.5q97 0 177 24 l-133 156q-15 17 -21 38t-4.5 41.5t11.5 40t27 33.5t38 20.5t41.5 4.5t40 -12t35.5 -27l161 -189q59 51 100.5 116t68.5 140.5t40 156t13 162.5q0 87 -14.5 173t-45 164.5t-78.5 146.5t-114.5 118t-151.5 78t-191 28q-103 0 -187.5 -28t-149.5 -78t-112 -118t-78 -146.5 t-46 -164.5t-15 -173z" />
<glyph unicode="R" horiz-adv-x="1701" d="M194 104v1520q0 26 9.5 48.5t26 38.5t39.5 26t48 10h704q129 0 230.5 -31t171.5 -91.5t107 -146t37 -192.5q0 -78 -22.5 -151.5t-66.5 -133.5t-107 -104.5t-143 -65.5q52 -20 90 -55t63 -76t40 -81t22 -67l71 -262q13 -44 23 -81q10 -35 23 -69q9 -23 7.5 -46.5 t-11.5 -44t-26.5 -36.5t-40.5 -24q-23 -9 -46 -7t-43 11.5t-36.5 26t-25.5 39.5q-15 40 -30 91.5t-31 102.5l-76 260q-13 46 -31.5 87.5t-52 72.5t-88 49.5t-137.5 18.5h-449v-637q0 -27 -10 -50t-27 -38.5t-39 -24.5q-24 -8 -50 -8q-25 0 -48 8.5t-39.5 24t-26 38.5 t-9.5 50zM443 945h472q77 0 150 13.5t129.5 48.5t90 94.5t33.5 151.5q0 63 -18.5 115t-57 89t-96.5 58t-139 21h-564v-591z" />
<glyph unicode="S" horiz-adv-x="1601" d="M97 463q-3 25 1 47t16 40.5t29 33t41.5 20t48 1.5t44 -15.5t33.5 -29.5t17 -42q13 -92 57 -157.5t110.5 -108.5t151.5 -63t178 -20q53 0 105.5 5.5t101.5 19t91 36t73.5 56.5t48.5 81.5t17 108.5q0 55 -18.5 95.5t-51.5 71.5t-78.5 53t-100.5 40t-117.5 31.5t-126.5 27.5 q-77 16 -152 34.5t-144 44t-127 61.5t-100 84t-66.5 111t-24.5 144q0 133 54 230.5t142.5 161t201.5 94.5q114 30 232 30q121 0 226 -25.5t188 -79t140.5 -136t80.5 -193.5q4 -25 -0.5 -47.5t-16.5 -42t-30.5 -34t-43 -20t-47.5 -1t-43 16.5t-33.5 30t-19.5 42 q-17 74 -53.5 127.5t-89 88t-121.5 50.5t-150 16q-66 0 -132 -14.5t-118 -48t-85 -89.5t-33 -137q0 -69 33.5 -115.5t93 -78.5t139.5 -53t172 -39q78 -16 158.5 -34.5t154.5 -44.5t138.5 -61.5t112.5 -88.5t75 -125t27 -170q0 -94 -28.5 -170t-77 -133t-116 -98.5 t-144.5 -67t-160 -38t-164 -12.5q-136 0 -259 28.5t-219 89.5t-159.5 155.5t-82.5 225.5z" />
<glyph unicode="T" horiz-adv-x="1431" d="M3 1642q0 21 7 40.5t21.5 33.5t33.5 22.5t44 8.5h1214q24 0 43.5 -8.5t33.5 -22.5t21.5 -33.5t7.5 -40.5q0 -22 -7.5 -41t-21.5 -33.5t-33.5 -23t-43.5 -8.5h-488v-1432q0 -27 -10 -50t-27 -38.5t-40 -24t-49 -8.5q-25 0 -48 8.5t-39.5 24t-26.5 38.5t-10 50v1432h-476 q-25 0 -44 8.5t-33.5 23t-21.5 33.5t-7 41z" />
<glyph unicode="U" horiz-adv-x="1816" d="M194 633v1010q0 27 9.5 49.5t26 38.5t39.5 25t48 9q26 0 49 -9t40 -25t27 -38.5t10 -49.5v-1010q0 -464 479 -464q451 0 451 464v1010q0 27 10 49.5t26.5 38.5t39 25t48.5 9t49 -9t40 -25t26.5 -38.5t9.5 -49.5v-1010q0 -168 -46.5 -293.5t-136 -209t-219.5 -125 t-298 -41.5q-173 0 -308.5 39.5t-228.5 121t-142 208t-49 300.5z" />
<glyph unicode="V" horiz-adv-x="1515" d="M37 1652q3 25 13 46t29.5 37.5t43.5 24.5q26 9 51 8t46.5 -10t38 -27.5t26.5 -48.5l476 -1413l475 1416q8 25 24.5 43t38 28t46.5 11.5t51 -7.5q24 -8 42 -23t28.5 -36t12.5 -45q1 -26 -8 -52l-553 -1532q-10 -28 -25 -45.5t-35 -27.5t-46.5 -14.5t-57.5 -4.5 q-32 0 -58.5 4.5t-47 14.5t-35 27.5t-24.5 45.5l-545 1528q-10 27 -7 52z" />
<glyph unicode="W" horiz-adv-x="2298" d="M69.5 1663.5q3.5 23.5 15.5 43.5t30.5 34.5t44.5 20.5q26 5 50.5 2.5t44.5 -14t35.5 -31t21.5 -44.5l337 -1336l349 1318q6 25 16 45t25.5 33.5t41.5 21.5t63 8q43 0 70 -7.5t44.5 -20t26.5 -32.5t16 -48l346 -1318l339 1336q6 25 21 44.5t35.5 31t46 14t49.5 -2.5 q26 -6 44.5 -20.5t30.5 -34.5t15.5 -44t-3.5 -50l-402 -1504q-8 -32 -19.5 -56t-29.5 -40t-43.5 -24t-63.5 -8q-35 0 -60 6.5t-44 21t-31.5 37.5t-21.5 57l-360 1320l-362 -1320q-9 -34 -21.5 -57t-31.5 -37.5t-44 -21t-60 -6.5q-38 0 -63.5 8t-43.5 24t-29.5 39.5 t-19.5 56.5l-402 1504q-7 27 -3.5 50.5z" />
<glyph unicode="X" horiz-adv-x="1428" d="M44 115q2 22 16 44l505 739l-471 679q-14 22 -18 46t1.5 47t19 42.5t35.5 33.5q22 13 46 17t47.5 -1t43.5 -19t34 -36l415 -633l427 639q13 20 32.5 33t41.5 17t44.5 0.5t43.5 -16.5q20 -12 33.5 -30t18.5 -39.5t1 -44.5t-17 -43l-478 -692l502 -724q14 -21 18 -46 t-1 -48t-19.5 -43t-36.5 -34q-22 -13 -47 -16.5t-49 0.5t-44.5 18t-34.5 36l-438 664l-456 -671q-13 -20 -33 -32.5t-41.5 -17t-44.5 -1t-44 16.5q-20 13 -33.5 31.5t-18 40t-0.5 43.5z" />
<glyph unicode="Y" horiz-adv-x="1505" d="M41.5 1623q-4.5 24 0 47t18.5 42.5t36 33.5q23 13 47 17t47.5 -1t44.5 -19t35 -36l484 -803l493 806q13 22 32 34.5t42 17.5t46.5 1.5t45.5 -16.5q20 -12 33.5 -31.5t18.5 -41t0.5 -45t-16.5 -43.5l-570 -870v-612q0 -27 -10 -50t-27 -38.5t-40.5 -24t-49.5 -8.5 t-48.5 8.5t-40 24t-26.5 38.5t-9 50v612l-568 861q-14 22 -18.5 46z" />
<glyph unicode="Z" horiz-adv-x="1591" d="M72 139q0 45 30 83l1068 1314h-907q-24 0 -44 8.5t-33.5 23t-21.5 33.5t-8 41q0 21 8 40.5t22 33.5t33.5 22.5t43.5 8.5h1098q30 0 54 -10.5t39.5 -29t25 -44.5t9.5 -54q0 -46 -30 -83l-1063 -1314h1018q25 0 43.5 -9t32.5 -23t22 -33.5t8 -40.5q0 -22 -8 -41 t-21.5 -33.5t-32.5 -23t-44 -8.5h-1217q-30 0 -52.5 10.5t-39 29.5t-25 44.5t-8.5 54.5z" />
<glyph unicode="[" horiz-adv-x="650" d="M160 -337v2019q0 48 13 77.5t33.5 45t48.5 20.5t57 5h217q44 0 71.5 -17.5t27.5 -62.5q0 -44 -27.5 -62t-71.5 -18h-144v-1996h144q44 0 71.5 -18t27.5 -62t-27.5 -62t-71.5 -18h-217q-29 0 -57 5t-48.5 20.5t-33.5 45t-13 78.5z" />
<glyph unicode="\" horiz-adv-x="826" d="M-16 1752q0 18 8.5 33t21.5 25t29 16t31 6q26 0 43 -7t28 -18.5t17.5 -24t10.5 -23.5l652 -1653q7 -17 12 -33.5t5 -31.5q0 -18 -7.5 -32.5t-20.5 -25t-29 -15.5t-30 -5q-27 0 -44 7t-28 18t-17.5 23t-9.5 23l-653 1652q-7 16 -13 34.5t-6 31.5z" />
<glyph unicode="]" horiz-adv-x="650" d="M23 -406q0 44 28 62t72 18h144v1996h-144q-44 0 -72 17.5t-28 62.5t28 62.5t72 17.5h217q29 0 56 -5t48.5 -20.5t33.5 -45t12 -77.5v-2019q0 -49 -12 -78.5t-33.5 -45t-48.5 -20.5t-56 -5h-217q-44 0 -72 18t-28 62z" />
<glyph unicode="^" horiz-adv-x="1488" d="M168 836q-5 18 2 41.5t20 49.5l431 778q27 50 57 67t67 17t67 -17q29 -19 57 -67l428 -780q16 -27 23 -51.5t2 -41.5t-24.5 -27t-54.5 -10q-45 0 -75 14q-30 15 -55 60l-368 675l-370 -673q-23 -43 -53 -59.5t-73 -16.5q-37 0 -56.5 11.5t-24.5 29.5z" />
<glyph unicode="_" horiz-adv-x="1255" d="M0 -242q0 16 5.5 29.5t15.5 23t23 15t28 5.5h1113q15 0 28 -5.5t22 -15t15 -23t6 -29.5q0 -15 -6 -29t-15 -23t-22 -15.5t-28 -6.5h-1113q-15 0 -28 6.5t-23 15.5t-15.5 23.5t-5.5 28.5z" />
<glyph unicode="`" horiz-adv-x="623" d="M107 1750.5q-5 21.5 2.5 43t34.5 42.5q32 26 58.5 28t49.5 -10t43.5 -35t40.5 -49l153 -200q11 -16 20 -35t11.5 -39t-3 -38.5t-22.5 -33.5t-38.5 -16.5t-41.5 6t-37.5 20.5t-28.5 26l-189 205q-20 21 -34 42.5t-19 43z" />
<glyph unicode="a" horiz-adv-x="1331" d="M87 345q0 94 31 163.5t82.5 119.5t118.5 83t140 52t147 27q74 9 140 11q28 1 54 0q34 0 63 -1q51 -2 78 -3v107q0 48 -14.5 84t-38.5 59.5t-55.5 39.5t-64.5 23.5t-66 11t-60 3.5q-50 0 -95 -8.5t-82 -27t-65 -48t-44 -70.5q-9 -21 -24.5 -39t-35.5 -29t-43 -15t-44 0 q-23 6 -39.5 18t-26 29t-11.5 38.5t2 44.5q26 85 77 144t120 96.5t153.5 53.5t176.5 16q54 0 112 -5.5t114.5 -22t107 -45t89.5 -75.5t61.5 -114.5t22.5 -158.5v-670q0 -31 3.5 -62.5t11.5 -60.5q5 -22 0 -43.5t-16.5 -39.5t-30 -30t-41.5 -17q-23 -4 -43.5 0.5t-37.5 15.5 t-30 28.5t-17 40.5q-3 23 -6 48t-6 56q-37 -51 -85.5 -89t-106 -63t-120 -38t-127.5 -13q-88 0 -165.5 22t-136 68t-93 116.5t-34.5 168.5zM322 352q0 -52 19 -86t53 -55t77.5 -29.5t91.5 -8.5q102 0 174 27t117 69.5t66 91.5q21 51 21 94v174q-37 3 -97 5q-17 1 -34 1 q-44 0 -94 -4q-70 -5 -140 -21.5t-126.5 -47.5t-92 -82.5t-35.5 -127.5z" />
<glyph unicode="b" horiz-adv-x="1471" d="M157 96v1554q0 26 8.5 46.5t24.5 35.5t36.5 24t43.5 9t44 -9t36.5 -23t25 -35.5t9.5 -47.5v-516q31 46 76 82.5t96.5 61.5t109.5 37.5t117 12.5q98 0 180.5 -25.5t149 -71.5t116.5 -109.5t83.5 -139t50 -161t16.5 -173.5q0 -140 -37 -264t-111 -215.5t-184 -145 t-257 -53.5q-47 0 -101.5 8.5t-109.5 30t-106 57.5t-89 91v-61q0 -26 -9.5 -47.5t-25 -35.5t-35.5 -22t-45 -8q-23 0 -43.5 8t-36.5 23t-24.5 35.5t-8.5 46.5zM373 652q0 -93 21.5 -180t68 -153.5t122.5 -106t184 -39.5q106 0 177 40t114 107.5t60.5 154t17.5 179.5 q0 87 -21.5 171t-68 152t-118.5 110q-72 41 -175 41q-104 0 -177 -42t-119 -110t-66 -153t-20 -171z" />
<glyph unicode="c" horiz-adv-x="1314" d="M87 633q0 145 36.5 271.5t112.5 221t190.5 148.5t268.5 54q91 0 177 -18.5t157 -57.5t123 -99t79 -143q7 -23 7 -46t-8.5 -43t-23.5 -36q-13 -16 -36 -24q-23 -9 -47.5 -6.5t-46 11t-38 25t-24.5 39.5q-34 95 -112 146.5t-188 51.5q-113 0 -188.5 -41.5t-120.5 -110 t-64 -158t-19 -185.5q0 -58 9 -115.5t28 -108t47.5 -94t69 -75t93.5 -49.5t119 -18q277 0 347 242q6 23 22.5 40.5t36.5 28.5t43.5 13t46.5 -5t38 -22t23.5 -36t9.5 -43.5t-7 -45.5q-60 -186 -200.5 -280.5t-359.5 -94.5q-149 0 -262 50t-188 138t-113 209.5t-38 265.5z" />
<glyph unicode="d" horiz-adv-x="1467" d="M87 648q0 88 16.5 173.5t50 161t83.5 139t116.5 109.5t149 71.5t181.5 25.5q58 0 115.5 -12.5t109.5 -37t97 -60.5q46 -37 78 -83v515q0 26 8.5 47.5t23.5 35.5t36.5 23t44.5 9t43.5 -9t36.5 -24t24.5 -35.5t8.5 -46.5v-1554q0 -26 -8.5 -46.5t-24.5 -35.5t-36.5 -23 t-43.5 -8t-44.5 8t-36.5 22t-23.5 35.5t-8.5 47.5v61q-39 -55 -90.5 -91t-106.5 -57.5t-109 -30t-102 -8.5q-145 0 -256 53.5t-184.5 145t-111 215.5t-37.5 264zM329 654q0 -93 18 -179.5t60.5 -154t113.5 -107.5t178 -40q109 0 184 39.5t122 106t68 153.5t21 180 q0 87 -20 171.5t-66 152.5t-118 110t-176 42q-103 0 -176 -41.5t-119.5 -109.5t-68 -152t-21.5 -171z" />
<glyph unicode="e" horiz-adv-x="1331" d="M87 655q0 146 43.5 269t124 213t192 140.5t245.5 50.5q103 0 187.5 -25t149 -70t111.5 -105.5t77 -132t44.5 -149.5t14.5 -158q0 -23 -9 -41.5t-24 -33t-35 -23t-41 -8.5h-845q0 -84 23.5 -158.5t72 -130.5t122 -88t174.5 -32q107 0 188.5 46.5t119.5 149.5 q9 23 24.5 38.5t36 23.5t42.5 8.5t43 -7.5q22 -9 36 -23t20.5 -33.5t6.5 -40t-8 -42.5q-32 -80 -82.5 -140t-116.5 -101t-146 -61.5t-172 -20.5q-155 0 -269 51.5t-190.5 142.5t-115.5 216.5t-44 274.5zM322 769h718q0 80 -25 146t-71.5 113t-113 73.5t-149.5 26.5 q-80 0 -144 -29t-109.5 -79t-73 -114.5t-32.5 -136.5z" />
<glyph unicode="f" horiz-adv-x="746" d="M20 1197q0 21 8 40t21.5 33t32 22t41.5 8h119v133q0 89 31.5 154.5t88.5 106.5t136 56q48 9 102 9q36 0 74 -4q45 -5 70 -35.5t20 -73.5q-3 -42 -32 -67q-25 -21 -61 -21q-7 0 -15 1q-37 3 -70.5 0t-60 -19t-41.5 -44.5t-15 -74.5v-121h156q23 0 41.5 -8t32 -22t20.5 -33 t7 -40q0 -22 -7 -40.5t-20.5 -32t-33 -21.5t-40.5 -8h-156v-999q0 -26 -9.5 -47.5t-25 -35.5t-36 -22t-43.5 -8t-44.5 8t-36.5 23t-23.5 35.5t-8.5 46.5v999h-119q-23 0 -41.5 8t-32 21.5t-21.5 32t-8 40.5z" />
<glyph unicode="g" horiz-adv-x="1427" d="M87 645q0 80 13.5 161.5t43 158t77.5 143t114.5 116t155 77t201.5 27.5q49 0 101 -12.5t103 -39t95 -64t76 -84.5v88q0 22 8.5 41t22 32.5t31.5 20.5t39.5 7t40 -7t32 -20.5t21.5 -32.5t8 -41v-1099q0 -166 -44.5 -286t-124.5 -198.5t-191.5 -117t-243.5 -38.5 q-71 0 -147 15.5t-144 47.5t-122 81t-84 114q-10 22 -11 44t6.5 41.5t21.5 34.5t36 25q21 8 43 7.5t43 -8.5t38 -23.5t29 -35.5q23 -42 57 -71t75.5 -47.5t87.5 -27.5t90 -9q91 0 160.5 34t117 97.5t71.5 153t24 200.5v69q-28 -55 -69 -95t-89.5 -67.5t-104.5 -42 t-114 -14.5q-145 0 -255.5 51t-186 138.5t-114 205t-38.5 250.5zM322 666q0 -55 9 -112.5t28 -109.5t48 -97t70 -78.5t94.5 -52.5t120.5 -19q105 0 177 42.5t116.5 110.5t64.5 153.5t20 172.5q0 83 -21.5 164t-66 144.5t-114.5 103.5t-167 40q-103 0 -175.5 -38 t-117.5 -101.5t-65.5 -147t-20.5 -175.5z" />
<glyph unicode="h" horiz-adv-x="1382" d="M157 96v1554q0 26 8.5 46.5t24.5 35.5t36.5 24t43.5 9t44 -9t36.5 -23t25 -35.5t9.5 -47.5v-526q28 46 74.5 84t101.5 64t113 41t110 15q130 0 215.5 -35.5t135.5 -98.5t71 -151t21 -191v-756q0 -26 -9.5 -47.5t-25 -35.5t-36.5 -22t-43 -8q-23 0 -44.5 8t-36.5 23 t-23.5 35.5t-8.5 46.5v779q0 117 -64.5 185t-184.5 68q-92 0 -161 -30.5t-114.5 -84t-68 -125t-22.5 -153.5v-639q0 -26 -9.5 -47.5t-25 -35.5t-35.5 -22t-45 -8q-23 0 -43.5 8t-36.5 23t-24.5 35.5t-8.5 46.5z" />
<glyph unicode="i" horiz-adv-x="570" d="M163 1664.5q0 25.5 10 47t26.5 38.5t38 26.5t47 9.5t48 -9.5t39.5 -26.5t26.5 -39t9.5 -46q0 -26 -9.5 -48.5t-26.5 -38.5t-39.5 -25.5t-48 -9.5t-47 9.5t-38 25.5t-26.5 38.5t-10 48zM176 96v1108q0 26 9 46.5t24.5 35.5t36 23t43.5 8t44.5 -8t36.5 -23t24 -35.5 t9 -46.5v-1108q0 -26 -9 -47.5t-24 -35.5t-36 -22q-22 -8 -45 -8t-43.5 8t-36 23t-24.5 35.5t-9 46.5z" />
<glyph unicode="j" horiz-adv-x="563" d="M-51 -388q0 20 6 39t18.5 33t30 21.5t43.5 5.5q40 -3 64.5 5.5t38 28.5t18 53t4.5 82v1324q0 26 8.5 46.5t24 35.5t36.5 23t44 8q22 0 43 -8t36.5 -23t25 -35.5t9.5 -46.5v-1358q0 -88 -22 -151.5t-63.5 -104t-100.5 -59.5t-133 -19q-23 0 -46 5t-42 16.5t-31 31 t-12 47.5zM163 1664.5q0 25.5 10 47t26.5 38.5t38 26.5t47 9.5t48 -9.5t39.5 -26.5t26.5 -39t9.5 -46q0 -26 -9.5 -48.5t-26.5 -38.5t-39.5 -25.5t-48 -9.5t-47 9.5t-38 25.5t-26.5 38.5t-10 48z" />
<glyph unicode="k" horiz-adv-x="1221" d="M157 96v1594q0 26 8.5 46.5t24.5 36.5t36.5 24t43.5 8t44 -8t36.5 -23t24.5 -36q10 -22 10 -48v-938l649 538q16 13 36 20t39 7t38.5 -8t33.5 -23q14 -16 21.5 -34.5t7.5 -38.5t-8.5 -38t-26.5 -31l-413 -340l433 -647q13 -20 17.5 -41.5t0 -43t-16.5 -39t-32 -32.5 q-19 -12 -40 -16.5t-42.5 0t-40.5 16.5q-19 10 -31 30l-415 635l-210 -171v-399q0 -26 -9.5 -47.5t-25 -35.5t-35.5 -22t-45 -8q-23 0 -43.5 8t-36.5 23t-24.5 35.5t-8.5 46.5z" />
<glyph unicode="l" horiz-adv-x="566" d="M170 96v1594q0 26 9.5 46.5t24.5 36.5t35.5 24t45.5 8q22 0 43 -8t36.5 -23t24.5 -36q9 -22 9 -48v-1594q0 -26 -9 -47.5t-24.5 -35.5t-36.5 -22t-43 -8q-23 0 -44.5 8t-36.5 23t-24.5 35.5t-9.5 46.5z" />
<glyph unicode="m" horiz-adv-x="2114" d="M157 96v1111q0 26 8.5 46.5t23.5 35t35.5 21.5t43 7t42.5 -8t35 -22t24 -34t9 -46v-87q70 110 168.5 159t232.5 49q58 0 112 -14t99 -43.5t81 -72.5t59 -100q71 113 172 172q102 58 225 58q89 0 167 -23.5t136.5 -72t93 -123t34.5 -175.5v-838q0 -26 -8.5 -47.5 t-24.5 -35.5t-36.5 -22t-43.5 -8t-44.5 8t-36.5 23t-23.5 35.5t-8.5 46.5v753q0 58 -9.5 110t-36 91.5t-73 63t-120.5 23.5t-134.5 -24.5t-101.5 -67.5t-63.5 -104.5t-22.5 -135.5v-709q0 -26 -8.5 -47.5t-24 -35.5t-36.5 -22t-44 -8t-44.5 8t-36.5 23t-23.5 35.5t-8.5 46.5 v753q0 59 -10 111t-35.5 91.5t-69.5 62.5t-112 23q-63 0 -111.5 -18t-86 -46t-63 -64.5t-42 -73.5t-23.5 -70.5t-7 -59.5v-709q0 -26 -9.5 -47.5t-25 -35.5t-35.5 -22t-45 -8q-23 0 -43.5 8t-36.5 23t-24.5 35.5t-8.5 46.5z" />
<glyph unicode="n" horiz-adv-x="1382" d="M157 96v1111q0 26 8.5 46.5t23.5 35t35.5 21.5t43 7t42.5 -8t35 -22t24 -34t9 -46v-116q65 113 165.5 175t240.5 62q130 0 215.5 -37.5t135.5 -103.5t71 -154t21 -188v-749q0 -26 -9.5 -47.5t-25 -35.5t-36.5 -22t-43 -8q-23 0 -44.5 8t-36.5 23t-23.5 35.5t-8.5 46.5 v763q0 136 -64 207t-185 71q-82 0 -149 -33.5t-115.5 -90t-75 -131t-26.5 -156.5v-630q0 -26 -9.5 -47.5t-25 -35.5t-35.5 -22t-45 -8q-23 0 -43.5 8t-36.5 23t-24.5 35.5t-8.5 46.5z" />
<glyph unicode="o" horiz-adv-x="1422" d="M87 648q0 144 40 269t119 217.5t196 145.5t271.5 53t271 -53t196 -145.5t119.5 -217.5t40 -269q0 -142 -40 -265.5t-119.5 -216.5t-196 -146.5t-270.5 -53.5q-156 0 -272.5 53.5t-195.5 146.5t-119 216.5t-40 265.5zM322 648q0 -117 30.5 -207.5t83 -150.5t124.5 -90.5 t154 -30.5q77 0 147.5 30.5t124.5 90.5t85.5 150.5t31.5 207.5q0 113 -31.5 203.5t-85.5 153t-124 95.5t-148 33q-83 0 -154.5 -33t-124 -95.5t-83 -153t-30.5 -203.5z" />
<glyph unicode="p" horiz-adv-x="1471" d="M157 -392v1596q0 26 8.5 46.5t24.5 35.5t36.5 23t43.5 8t44 -8t36.5 -23t25 -35.5t9.5 -46.5v-63q38 54 89 90.5t106 58t109.5 30t101.5 8.5q146 0 256.5 -53.5t184.5 -145t111 -215t37 -263.5q0 -89 -16.5 -174t-50 -161t-83.5 -139.5t-116.5 -109.5t-149 -71.5 t-180.5 -25.5q-128 0 -231 47t-168 146v-555q0 -26 -9.5 -47t-25 -35.5t-35.5 -23t-45 -8.5q-23 0 -43.5 8.5t-36.5 23.5t-24.5 35.5t-8.5 46.5zM373 646q0 -58 9.5 -115.5t28 -109.5t48.5 -98t72 -80t98 -54q57 -19 126 -19q103 0 175 42.5t118.5 109.5t68 151.5 t21.5 171.5q0 93 -17.5 180t-60.5 153.5t-115 107.5q-70 41 -176 41q-108 0 -184 -40t-122.5 -106.5t-68 -153t-21.5 -181.5z" />
<glyph unicode="q" horiz-adv-x="1462" d="M84 651q0 140 37.5 263.5t111 215t183.5 145t258 53.5q45 0 100 -8.5t110.5 -30t106 -58t89.5 -90.5v63q0 26 9 46.5t24 35.5t36 23t44 8t43.5 -8t36 -23t25 -36.5t9.5 -45.5v-1596q0 -26 -9.5 -46.5t-25 -35.5t-35.5 -23.5t-44 -8.5q-23 0 -44 8.5t-36 23t-24 35.5 t-9 47v555q-66 -99 -169 -146t-230 -47q-99 0 -182 25.5t-148.5 71.5t-116 109.5t-84 139.5t-50 161t-16.5 174zM326 645q0 -87 20 -171.5t65 -151.5t118 -109.5t180 -42.5q70 0 125 19.5t97.5 53.5t73 80t49 98t27.5 110t9 115q0 93 -21 180.5t-67.5 154t-122 106.5 t-184.5 40q-103 0 -173 -42.5t-114.5 -110t-63 -154t-18.5 -175.5z" />
<glyph unicode="r" horiz-adv-x="845" d="M157 96v1111q0 26 8.5 46.5t23.5 35t35.5 21.5t43 7t42.5 -8t35 -22t24 -34t9 -46v-152q31 55 68 102t81.5 83.5t96.5 58t114 21.5q43 0 76 -27t41 -72q3 -24 -2 -46t-18.5 -41.5t-33 -32.5t-43.5 -16q-102 -13 -173.5 -52t-115.5 -104t-64 -153t-20 -198v-482 q0 -26 -9.5 -47.5t-25 -35.5t-35.5 -22t-45 -8q-23 0 -43.5 8t-36.5 23t-24.5 35.5t-8.5 46.5z" />
<glyph unicode="s" horiz-adv-x="1241" d="M86 335.5q3 22.5 13.5 41.5t27.5 33.5t40 19.5q20 6 41.5 3t41 -13t34.5 -26t22 -39q17 -50 50 -84.5t75 -56.5t93.5 -31.5t108.5 -9.5q49 0 100.5 6.5t96 26.5t72.5 55.5t28 93.5q0 54 -26 88.5t-70.5 58.5t-103.5 39q-61 15 -127 30q-57 12 -114 26.5t-111.5 34.5 t-101.5 48t-82 66.5t-56 90t-21 118.5q0 99 43 169.5t112.5 116t156.5 66.5q86 21 174 21q91 0 173.5 -15.5t149 -51t113 -91.5t68.5 -135q6 -23 3 -45t-14 -40.5t-28 -32t-40 -19.5t-45 -2.5t-41.5 16t-34.5 30.5t-23 39q-16 37 -43 65t-63 46t-76.5 27t-82.5 9 q-44 0 -90.5 -7t-85 -25t-63 -48.5t-24.5 -77.5q0 -45 26.5 -76.5t71.5 -54t103 -39t121 -29.5q116 -26 207.5 -56t154.5 -74.5t95.5 -106.5t32.5 -149q0 -80 -22 -142.5t-60.5 -108t-91.5 -77t-113 -51t-126.5 -28t-132.5 -8.5q-94 0 -180.5 18.5t-157.5 57t-121.5 99.5 t-73.5 145q-6 23 -3 45.5z" />
<glyph unicode="t" horiz-adv-x="783" d="M13 1198q0 22 8 40t21.5 32t32 22t41.5 8h119v287q0 26 8.5 47t24 36t36.5 22.5t43 7.5q23 0 44 -7.5t36.5 -22t24 -36t8.5 -47.5v-287h158q23 0 41.5 -8t31.5 -22t20.5 -33t7.5 -39q0 -21 -7.5 -39.5t-20.5 -33t-31.5 -22.5t-41.5 -8h-158v-783q0 -47 15 -73.5t41 -38 t60.5 -12.5t72.5 4q23 2 41.5 -3.5t33 -19t23 -31.5t9.5 -38q2 -20 -3 -39.5t-17 -35t-30 -25.5t-40 -13q-48 -5 -92 -5q-48 0 -90 6q-81 12 -136.5 49t-84 100t-28.5 155v803h-119q-23 0 -41.5 8t-32 22.5t-21.5 32t-8 40.5z" />
<glyph unicode="u" horiz-adv-x="1389" d="M157 433v771q0 26 8.5 46.5t24.5 35.5t36.5 23t43.5 8t44 -8t36.5 -23t25 -36.5t9.5 -45.5v-779q0 -69 17 -117.5t50 -78.5t80 -44q49 -13 109 -13q91 0 159.5 30.5t114.5 84t69 125t23 151.5v641q0 26 8.5 46.5t24 35.5t36.5 23t44 8t43.5 -8t36.5 -23t24.5 -36.5 t8.5 -45.5v-1112q0 -26 -8 -46t-24 -34.5t-36 -21.5t-41 -7q-23 0 -43 8t-35 22t-23.5 34t-8.5 45v102q-66 -112 -166 -168t-242 -56q-130 0 -216.5 35.5t-138 98.5t-73 147.5t-21.5 181.5z" />
<glyph unicode="v" horiz-adv-x="1241" d="M69.5 1204.5q0.5 23.5 10.5 45t28 37.5t41 24q23 9 46.5 7t44 -12t37 -27.5t25.5 -40.5l326 -985l327 990q7 23 22 39t34.5 25.5t42.5 10.5q23 3 46 -5q21 -9 37.5 -24t25 -34t10 -42t-5.5 -45l-402 -1104q-9 -21 -18 -37t-25 -26.5t-40 -15.5t-60 -5t-59.5 5t-39 15.5 t-25.5 27t-18 38.5l-403 1092q-8 23 -7.5 46.5z" />
<glyph unicode="w" horiz-adv-x="1880" d="M70 1207.5q3 23.5 13.5 44.5t28.5 36.5t41 24.5q24 7 48.5 4t45 -13.5t36.5 -28.5q16 -19 23 -42l263 -958l235 953q5 20 14 36.5t24 29t38.5 18.5t57.5 6t57 -6t37.5 -17t23 -28t14.5 -37l248 -961l265 972q6 23 22.5 39.5t38 26.5t45.5 11.5t46 -4.5q21 -7 37.5 -22 t26.5 -34.5t12 -41.5t-5 -45l-353 -1108q-6 -20 -15 -36t-24 -26t-39 -15t-58 -5t-57.5 5t-39.5 15t-24.5 26t-14.5 36l-246 929l-231 -928q-6 -21 -15.5 -37t-26 -26t-40 -15t-59.5 -5q-34 0 -57.5 5t-39.5 16t-26 26.5t-15 37.5l-349 1094q-9 24 -6 47.5z" />
<glyph unicode="x" horiz-adv-x="1244" d="M41.5 72.5q-4.5 21.5 0 43t19.5 40.5l431 505l-408 472q-15 18 -21 41.5t-2.5 45t16 41.5t32.5 34.5t42 18t43.5 0t41 -15.5t34.5 -31l352 -440l350 443q30 38 72 46q10 2 20 2q31 0 60 -20q19 -12 31 -31.5t16 -41t0 -43t-20 -39.5l-403 -472l435 -505q15 -20 21 -42 t2.5 -44.5t-16 -42.5t-32.5 -33q-20 -14 -41.5 -18.5t-43 -0.5t-40.5 16q-18 13 -35 32l-382 473l-377 -477q-14 -19 -33 -30.5t-39 -15t-40.5 1t-39 17t-30 31t-16 40z" />
<glyph unicode="y" horiz-adv-x="1241" d="M60.5 1206.5q0.5 23.5 10 44t26 36.5t37.5 24q23 9 46.5 8t44.5 -10t37.5 -25.5t24.5 -37.5l344 -961l340 965q7 21 23 37t35 23.5t41 8.5q23 2 44 -6q20 -9 36.5 -24t25 -34t9 -41.5t-7.5 -43.5l-506 -1339q-35 -93 -73.5 -158t-83 -105.5t-98.5 -60t-123 -19.5 q-27 0 -59 4.5t-60 16t-45 34t-13 61.5q1 21 8.5 40t21.5 31.5t33 18.5q21 6 47 3q11 -2 21 -3t20 -1q59 0 102.5 27t65.5 83l86 214l-452 1143q-9 23 -8.5 46.5z" />
<glyph unicode="z" horiz-adv-x="1192" d="M41 112q0 40 25 68l755 915h-627q-22 0 -41 8t-32.5 22.5t-21 32t-7.5 40.5q0 22 7.5 40t21 32t32.5 22t41 8h848q42 0 67 -29.5t25 -70.5q1 -36 -21 -63l-768 -935h676q46 0 74.5 -29t28.5 -71q0 -43 -28.5 -72.5t-74.5 -29.5h-879q-46 0 -73 32q-28 34 -28 80z" />
<glyph unicode="{" horiz-adv-x="826" d="M53 674q0 22 16 42q14 20 48.5 20t69.5 6.5t62 31t44 70t17 126.5v576q0 147 69.5 215t208.5 68h156q25 0 45 -20q20 -19 20 -53q0 -40 -20 -61.5t-45 -21.5h-55q-41 0 -70.5 -3t-48 -18t-28 -45.5t-9.5 -87.5v-552q0 -70 -15.5 -120t-43.5 -84.5t-66 -56.5 q-36 -21 -82 -35q44 -15 81.5 -36.5t66 -55.5t44 -84t15.5 -120v-551q0 -56 9.5 -87.5t28 -46.5t48 -17.5t70.5 -2.5h55q25 0 45 -22q20 -23 20 -60t-20 -55.5t-45 -18.5h-156q-140 0 -209 68t-69 215v578q0 80 -17 125.5t-44 70t-62 30.5q-35 7 -69.5 7t-49.5 20t-15 46z " />
<glyph unicode="|" horiz-adv-x="547" d="M182 -452v2342q0 38 26.5 61.5t66.5 23.5t66 -23q27 -24 27 -62v-2342q0 -37 -27.5 -60.5t-65.5 -23.5q-40 0 -66.5 23.5t-26.5 60.5z" />
<glyph unicode="}" horiz-adv-x="826" d="M17 -412q0 39 21 60.5t46 21.5h55q41 0 70.5 2.5t48 17.5t28 46.5t9.5 87.5v551q0 70 15.5 120t44 84t66.5 55.5t81 36.5q-44 14 -82 35.5t-66 56t-43.5 84.5t-15.5 120v552q0 55 -9.5 86.5t-28 46.5t-48 18t-70.5 3h-55q-25 0 -46 21q-21 22 -21 62q0 33 21 53t46 20 h156q140 0 209 -68t69 -215v-576q0 -81 17 -126.5t44 -70t61.5 -31t69 -6.5t50 -20t15.5 -42q0 -26 -15.5 -46t-50 -20t-69 -6.5t-61.5 -31t-44 -70t-17 -125.5v-578q0 -147 -70 -215q-68 -68 -208 -68h-156q-25 0 -46 19q-21 18 -21 55z" />
<glyph unicode="~" horiz-adv-x="1488" d="M177 571.5q-3 16.5 2 33.5q17 73 49 121.5t73 76.5t88 40t94 12q49 0 94.5 -13.5t88.5 -33.5t85.5 -43.5t84.5 -43.5t86.5 -33.5t91.5 -13.5q10 0 28 2.5t38 14t38.5 33.5t26.5 61q3 17 13 30t23.5 21.5t30 12t34 -0.5t31 -14t22 -23.5t11.5 -30t-2 -34.5 q-17 -74 -47 -122.5t-70.5 -77t-88 -40t-95.5 -11.5q-47 0 -93.5 13t-92 33t-89.5 43.5t-87 43.5t-86 33.5t-86 13.5q-13 0 -31.5 -2t-38.5 -13t-36.5 -33t-24.5 -61q-3 -17 -13 -30t-23.5 -21.5t-30 -12t-33.5 0.5q-17 3 -31 14t-22.5 24.5t-11.5 30z" />
<glyph unicode="&#xa2;" horiz-adv-x="1379" d="M132 874q0 126 32.5 233t99 188.5t165.5 132.5t230 63v185q0 20 14.5 33.5t34.5 13.5q17 0 32 -13.5t15 -33.5v-180q94 -6 171.5 -31t132.5 -63t87 -85t37 -97q2 -42 -17 -69t-68 -38q-24 -6 -43.5 -0.5t-35 16.5t-27 25t-20.5 27q-15 23 -31 46t-40 43t-59 33.5 t-87 16.5v-844q50 7 83 22t56.5 34t40.5 41t33 45q12 17 22.5 31.5t24 25t30 17t40.5 6.5q20 0 38 -8.5t31 -21.5t21 -30t8 -35q0 -44 -26 -93.5t-78 -93t-133 -75t-191 -38.5v-194q0 -19 -14.5 -34t-32.5 -15q-20 0 -34.5 13.5t-14.5 33.5v196q-134 9 -233.5 54.5 t-165.5 122t-97 177.5t-31 217zM375 874q0 -75 18.5 -140t54 -117t88.5 -88t123 -50v838q-60 -9 -112 -41t-90.5 -88.5t-60 -135t-21.5 -178.5z" />
<glyph unicode="&#xa3;" horiz-adv-x="1379" d="M56 70q0 24 13.5 43.5t33.5 29.5q30 14 62 39t63 58t58 72.5t48.5 83t33.5 89.5t12 91q0 25 -5.5 53.5t-14 57.5t-20 55.5t-23.5 48.5h-164q-27 0 -45.5 18.5t-18.5 45.5t18.5 46.5t45.5 19.5h92q-22 37 -42 77t-34.5 86t-23.5 96.5t-9 109.5q0 116 48 209t128 158 t184.5 99t218.5 34q120 0 218.5 -30.5t174.5 -90t124.5 -150t67.5 -209.5q3 -23 -2 -45t-18.5 -40t-33 -29.5t-43.5 -15.5q-23 -3 -45.5 2.5t-40 18.5t-30 32.5t-16.5 42.5q-27 154 -111.5 237.5t-230.5 83.5q-74 0 -139 -24t-112.5 -67t-73.5 -101.5t-26 -126.5 q0 -54 10.5 -102t27.5 -91t39.5 -83.5t46.5 -80.5h349q27 0 45.5 -19.5t18.5 -46.5t-18.5 -45.5t-45.5 -18.5h-288q16 -32 30.5 -79t14.5 -93q0 -74 -19.5 -136.5t-51 -114t-71.5 -91.5t-81 -71q58 20 112.5 28.5t115.5 8.5q46 0 104 -13.5t117.5 -30t113.5 -31t92 -14.5 q37 0 79 2.5t91 16.5q17 6 34 3.5t33 -9.5t27.5 -20.5t16.5 -30.5q6 -17 3 -35t-10.5 -32.5t-21.5 -26t-31 -16.5q-43 -15 -98.5 -21t-121.5 -6t-129 12t-126.5 26t-130.5 26.5t-142 12.5q-31 0 -75.5 -4.5t-93.5 -12.5t-97 -18t-87 -24q-13 -4 -26 -4q-32 0 -55 22t-23 55z " />
<glyph unicode="&#xa5;" horiz-adv-x="1470" d="M93 1655q0 24 11.5 44.5t30.5 36.5t46.5 25t60.5 9q25 0 44.5 -10.5t33 -25t23 -28.5t13.5 -23l379 -701l382 703q4 8 12.5 22.5t23 28t33 24t44.5 10.5q33 0 60.5 -10t47 -25.5t30.5 -36.5t11 -45q0 -36 -23 -74l-381 -638h246q25 0 42.5 -16t17.5 -41t-17.5 -42 t-42.5 -17h-314l-38 -61v-129h352q27 0 43.5 -18t16.5 -39q0 -22 -17 -39.5t-43 -17.5h-352v-407q0 -60 -35 -96.5t-99 -36.5t-98.5 36.5t-34.5 96.5v407h-350q-27 0 -43 17t-16 40t16.5 40t42.5 17h350v129l-37 61h-313q-27 0 -43 18t-16 41q0 25 16.5 41t42.5 16h244 l-379 638q-13 20 -18.5 39t-5.5 37z" />
<glyph unicode="&#xa9;" horiz-adv-x="1990" d="M59 882q0 130 34 249t95 222t146.5 187t189.5 143.5t222.5 92t245.5 32.5q128 0 246 -32.5t221 -92t188.5 -143.5t146.5 -187t94.5 -222t33.5 -249q0 -133 -33.5 -253.5t-94.5 -223.5t-146.5 -186t-188.5 -141.5t-222 -90t-245 -31.5q-127 0 -245.5 31.5t-222.5 90 t-189.5 141.5t-146.5 186t-95 223t-34 254zM256 882q0 -164 55 -304t152.5 -243t232.5 -160.5t296 -57.5q103 0 198.5 26.5t177 74.5t148 116.5t113.5 153.5t72.5 184.5t25.5 209.5t-25.5 209t-72.5 183t-113.5 151.5t-148 115.5t-177 73.5t-198.5 25.5q-107 0 -203.5 -25.5 t-178 -73.5t-147 -115.5t-111.5 -151.5t-71 -183t-25 -209zM500 875q0 117 34.5 218.5t99 175.5t157.5 116t209 42q97 0 173.5 -28t129.5 -70.5t80.5 -93.5t27.5 -98q0 -26 -7.5 -44t-19 -28t-24 -15t-20.5 -5q-22 0 -36 6t-25 16t-18.5 23t-14.5 27q-13 27 -32 54 t-46.5 48.5t-67.5 35t-100 13.5q-66 0 -121 -27t-96 -77t-63 -121.5t-22 -160.5q0 -87 22 -159t63 -124.5t97 -81.5q55 -29 124 -29q54 0 92.5 12.5t66.5 34t47.5 49t35.5 54.5q8 16 18 31t22 25.5t27 17t37 6.5q31 0 51 -19.5t20 -56.5q0 -27 -12.5 -61.5t-36.5 -68.5 t-59.5 -67t-81.5 -59t-103 -41q-58 -16 -124 -16q-115 0 -207.5 42t-158 116t-102 173t-36.5 215z" />
<glyph unicode="&#xab;" horiz-adv-x="1148" d="M87 695q0 44 18.5 83t51.5 61l246 179q13 9 29.5 17.5t33.5 8.5q16 0 29.5 -7t23.5 -19.5t16 -28t6 -32.5q0 -27 -17.5 -51t-43.5 -42l-248 -169l248 -169q26 -15 43.5 -40.5t17.5 -53.5q0 -16 -6 -31.5t-16 -28t-23 -19.5t-30 -7q-20 0 -34 8t-27 18h1h-3l-246 177 q-34 24 -52 63.5t-18 82.5zM571 695q0 44 18.5 83t51.5 61l247 179q13 9 28.5 17.5t33.5 8.5q15 0 28.5 -7t23.5 -19.5t16 -28t6 -32.5q0 -27 -17 -51t-43 -42l-249 -169l249 -169q26 -15 43 -40.5t17 -53.5q0 -16 -6 -31.5t-16 -28t-22.5 -19.5t-29.5 -7q-20 0 -34.5 8 t-27.5 18h1h-1l-247 177q-35 24 -52.5 63.5t-17.5 82.5z" />
<glyph unicode="&#xad;" horiz-adv-x="1148" d="M102 671q0 20 7 37.5t20 31.5t30.5 21.5t37.5 7.5h757q20 0 38 -7.5t30.5 -21.5t20 -31.5t7.5 -37.5t-7.5 -37.5t-20 -31t-30.5 -20.5t-38 -7h-757q-20 0 -37.5 7t-30.5 20.5t-20 31t-7 37.5z" />
<glyph unicode="&#xae;" horiz-adv-x="1980" d="M59 882q0 130 34 249t95 222t146.5 187t189.5 143.5t222.5 92t245.5 32.5q128 0 246 -32.5t221 -92t188.5 -143.5t146.5 -187t94.5 -222t33.5 -249q0 -133 -33.5 -253.5t-94.5 -223.5t-146.5 -186t-188.5 -141.5t-222 -90t-245 -31.5q-127 0 -245.5 31.5t-222.5 90 t-189.5 141.5t-146.5 186t-95 223t-34 254zM256 882q0 -164 55 -304t152.5 -243t232.5 -160.5t296 -57.5q103 0 198.5 26.5t177 74.5t148 116.5t113.5 153.5t72.5 184.5t25.5 209.5t-25.5 209t-72.5 183t-113.5 151.5t-148 115.5t-177 73.5t-198.5 25.5q-107 0 -203.5 -25.5 t-178 -73.5t-147 -115.5t-111.5 -151.5t-71 -183t-25 -209zM631 469v804q0 25 8.5 43t22 30t32 18.5t37.5 6.5h327q83 0 149.5 -14t112.5 -48.5t70 -91.5t24 -143q0 -69 -21.5 -120.5t-58 -86.5t-82 -53.5t-95.5 -21.5l189 -254q30 -40 31.5 -76.5t-36.5 -68.5 q-24 -20 -48.5 -23.5t-45.5 3.5t-40.5 24.5t-35.5 40.5l-249 357h-94v-326q0 -53 -28.5 -78t-68.5 -25t-70 25t-30 78zM828 944h234q32 0 60.5 5.5t50 21.5t34.5 43t13 70q0 41 -13 67.5t-34.5 41t-50 20t-60.5 5.5h-234v-274z" />
<glyph unicode="&#xbb;" horiz-adv-x="1148" d="M126 432q0 28 16.5 52.5t41.5 41.5l251 169l-249 169q-26 17 -43 41.5t-17 51.5q0 17 5.5 32.5t15 28t23 19.5t29.5 7q17 0 33.5 -8.5t29.5 -17.5l247 -179q33 -22 51 -61t18 -83q0 -43 -18 -82.5t-51 -63.5l-247 -177h-2q-13 -10 -27 -18t-34 -8q-16 0 -29.5 7t-23 19.5 t-14.5 27.5q-6 15 -6 32zM609 432q0 28 17 53q18 24 43 41l249 169l-249 169q-25 17 -42.5 41.5t-17.5 51.5q0 17 6 32.5t16 28t22.5 19.5t30 7t33 -8.5t28.5 -17.5l247 -179q33 -22 51 -61t18 -83q0 -43 -17 -82.5t-52 -63.5l-247 -177h-1h1q-13 -10 -28 -18q-13 -8 -33 -8 q-16 0 -29.5 7t-23.5 19.5t-16 27.5t-6 32z" />
<glyph unicode="&#xbc;" horiz-adv-x="2086" d="M166 1460q1 -30 24 -48t52 -16q65 4 117.5 16t95.5 38v-699q0 -35 22 -55.5t54 -20.5q31 0 53 20.5t22 55.5v928q0 14 -5.5 27t-16.5 23.5t-23.5 16.5t-27.5 6q-25 0 -44 -14.5t-26 -37.5q-13 -45 -35 -74.5t-52 -47.5t-67 -27t-79 -12q-16 -2 -28 -9t-20.5 -17.5 t-13 -24.5t-2.5 -28zM584.5 50q-1.5 14 3 29t10.5 27l841 1590q17 31 45.5 47.5t62.5 2.5q20 -9 29.5 -22.5t11.5 -29t-1.5 -32t-12.5 -32.5l-839 -1587q-19 -34 -51.5 -47t-67.5 5q-15 9 -22.5 22t-9 27zM1168 323q0 -41 27.5 -69t68.5 -28h383v-176q0 -34 23 -55.5 t54.5 -21.5t53.5 21.5t22 55.5v176h86q32 0 52 21.5t20 49.5q0 29 -20 50.5t-52 21.5h-86v623q0 33 -22.5 56.5t-57.5 23.5q-20 0 -36.5 -8.5t-27.5 -23.5l-471 -662q-17 -26 -17 -55zM1340 369l307 415v-415h-307z" />
<glyph unicode="&#xbd;" horiz-adv-x="2086" d="M166 1460q1 -30 24 -48t52 -16q65 4 117.5 16t95.5 38v-699q0 -35 22 -55.5t54 -20.5q31 0 53 20.5t22 55.5v928q0 14 -5.5 27t-16.5 23.5t-23.5 16.5t-27.5 6q-25 0 -44 -14.5t-26 -37.5q-13 -45 -35 -74.5t-52 -47.5t-67 -27t-79 -12q-16 -2 -28 -9t-20.5 -17.5 t-13 -24.5t-2.5 -28zM549.5 50q-1.5 14 2.5 29t10 27l841 1590q17 31 45.5 47.5t63.5 2.5q20 -9 29 -22.5t12 -29t-1.5 -32t-12.5 -32.5l-840 -1587q-18 -34 -51 -47t-67 5q-16 9 -23 22t-8.5 27zM1308.5 72.5q4.5 -21.5 15 -37t28.5 -25.5t41 -10h548q14 0 27 5.5t22 15 t15 21.5t6 27q0 14 -6 27t-15 22t-22 15.5t-27 6.5h-460q9 33 35.5 64.5t63.5 62t81.5 60t89 56.5t90 61t83 76.5t61 98.5t23.5 130.5t-26.5 133t-73 98.5t-108 60.5t-131.5 20.5q-77 0 -140 -24t-109 -67t-72.5 -102.5t-30.5 -129.5q-1 -15 4.5 -29.5t15 -26t22 -19.5 t30.5 -8q32 -1 56.5 19.5t27.5 50.5q4 39 18.5 75t38 63t56.5 43.5t76 16.5q37 0 70.5 -12.5t58 -34.5t38.5 -54t14 -72q0 -49 -15 -84.5t-46.5 -69.5t-78.5 -68t-113 -77q-41 -29 -84 -61t-80 -73t-68 -91t-48 -111q-6 -22 -1.5 -43.5z" />
<glyph unicode="&#xbe;" horiz-adv-x="2086" d="M186 961q8 -70 37.5 -123.5t75.5 -89.5t106.5 -55t135.5 -19q72 0 139.5 18.5t118 57t81.5 100t31 147.5q0 94 -40 162q-42 68 -125 95q55 34 88.5 86.5t33.5 119.5q0 76 -25 131.5t-68.5 93t-104.5 56t-132.5 18.5t-128.5 -22t-98.5 -61.5t-67.5 -93t-33 -119.5 q-1 -16 4 -30t14 -25.5t22 -19t29 -8.5q34 -3 57.5 18t26.5 52q5 34 18.5 65t35.5 54.5t52 38t69 14.5q37 0 68.5 -10t54.5 -31t35 -51q13 -31 13 -69t-14 -67.5t-39 -49.5t-59 -30t-69 -10h-15q-30 0 -47 -18t-17 -45t17 -46.5t47 -19.5h32q44 0 81.5 -10.5t65 -32.5 t43.5 -56.5t16 -80.5q0 -44 -15 -79t-43 -59.5t-66.5 -37t-85.5 -12.5q-42 0 -75.5 12.5t-59.5 34t-41.5 53t-22.5 67.5q-5 30 -28.5 51.5t-54.5 19.5q-17 -1 -31.5 -9t-24.5 -19.5t-14.5 -26.5t-2.5 -29zM710.5 50q-1.5 14 2 29t11.5 27l840 1590q18 31 46.5 47.5t61.5 2.5 q20 -9 30 -22.5t12 -29t-2.5 -32t-11.5 -32.5l-841 -1587q-18 -34 -51 -47t-66 5q-16 9 -23 22t-8.5 27zM1248 323q0 -41 27.5 -69t70.5 -28h381v-176q0 -34 23 -55.5t54.5 -21.5t53.5 21.5t22 55.5v176h86q32 0 52 21.5t20 49.5q0 29 -19.5 50.5t-52.5 21.5h-86v623 q0 33 -22.5 56.5t-57.5 23.5q-20 0 -36.5 -8.5t-27.5 -23.5l-470 -662q-18 -26 -18 -55zM1420 369l307 415v-415h-307z" />
<glyph unicode="&#xd7;" horiz-adv-x="1281" d="M77 1137.5q0 19.5 7.5 37.5t21.5 32t32 21.5t36 7.5t35.5 -7.5t32.5 -21.5l400 -400l403 403q15 14 32.5 21t36.5 7t36.5 -6t32.5 -21q14 -14 20.5 -32t6.5 -36.5t-6.5 -36.5t-20.5 -32l-404 -403l402 -402q14 -14 21.5 -32t7.5 -36.5t-7.5 -36.5t-21.5 -32 q-14 -15 -32 -22t-36.5 -7t-35.5 7t-32 22l-403 400l-397 -398q-15 -14 -33 -21t-36.5 -7t-36 7t-32.5 21q-14 15 -21 32.5t-7 36.5t7 36.5t21 32.5l399 399l-400 399q-14 14 -21.5 31t-7.5 36.5z" />
<glyph unicode="&#xf7;" horiz-adv-x="1488" d="M102 671q0 20 7 37.5t20 31.5t30.5 21.5t37.5 7.5h1091q20 0 38 -7.5t31 -21.5t21 -31.5t8 -37.5t-8 -37.5t-21 -31t-31 -20.5t-38 -7h-1091q-20 0 -37.5 7t-30.5 20.5t-20 31t-7 37.5zM578 157q0 35 13.5 66.5t36.5 55t52 37.5t62 14q34 0 65 -14t54.5 -37.5t37 -55 t13.5 -66.5q0 -30 -13.5 -58.5t-36.5 -50t-52 -35t-64 -13.5q-32 0 -62 12t-54 33.5t-38 50t-14 61.5zM578 1183q0 34 13.5 64.5t36.5 53.5t52 36t62 13q34 0 65 -13t54.5 -36t37 -53.5t13.5 -64.5q0 -33 -13.5 -63t-36.5 -52.5t-52 -36t-64 -13.5q-32 0 -62 13.5t-54 36 t-38 52.5t-14 63z" />
<glyph unicode="&#xe01;" horiz-adv-x="1537" d="M64 1102q-1 16 10 43q30 75 82.5 145.5t131 124.5t187 86t250.5 32q127 0 226 -23.5t173 -66.5t125 -101.5t82.5 -128t45 -147.5t13.5 -158v-805q0 -27 -9.5 -50t-26 -38.5t-39 -23.5t-47.5 -8t-47.5 8t-39 23.5t-26.5 37.5t-10 51v835q0 70 -20.5 138.5t-70 124 t-130 89.5t-199.5 36q-70 1 -127 -12.5t-103 -35t-80.5 -48.5t-58.5 -57t-37 -58t-16 -50q26 -15 46.5 -40t35 -59t21.5 -74t7 -83v-706q0 -27 -9 -50t-25.5 -38.5t-39 -23.5t-46.5 -8q-26 0 -47 8t-37.5 23.5t-26 37.5t-9.5 51v709q0 49 -10.5 98.5t-40.5 90.5 q-19 26 -32.5 41t-20 29t-5.5 31z" />
<glyph unicode="&#xe02;" horiz-adv-x="1298" d="M16 1410q0 19 7 35t19 28.5t28.5 19.5t35.5 7h257q37 0 60 -26.5t32 -63.5l256 -1178l257 1187q13 55 51.5 81t88.5 17q25 -4 45.5 -16t34 -31t19.5 -42.5t-2 -50.5l-283 -1230q-8 -37 -28 -67t-48.5 -52t-64.5 -34.5t-75 -12.5q-38 0 -72.5 12.5t-63 35t-48.5 53.5 t-27 67l-272 1169h-117q-19 0 -35.5 7.5t-28.5 19.5t-19 28.5t-7 36.5z" />
<glyph unicode="&#xe03;" horiz-adv-x="1382" d="M75 1416q2 23 13 42t27.5 34t40.5 22q23 8 45 6.5t41.5 -11.5t34.5 -28t22 -42q13 -40 43.5 -66t77.5 -26q46 0 78.5 24.5t47.5 64.5q13 37 45 60t74 23q26 0 49.5 -10t40 -27.5t26.5 -40t10 -48.5v-185q0 -51 -16.5 -89.5t-44.5 -73.5t-64.5 -69t-76.5 -75 q-37 -39 -63.5 -71.5t-43 -66.5t-25.5 -70q-11 -35 -11 -81v-100q0 -80 21 -141t57.5 -103t88 -63.5t112.5 -21.5q57 0 106.5 16.5t86.5 52t57 95t20 143.5v909q0 27 9.5 49.5t26 38t38.5 24t48 8.5t47 -8.5t37.5 -24.5t26.5 -38q9 -21 9 -49v-934q0 -129 -42 -224 t-112.5 -156.5t-163 -91.5t-194.5 -30q-104 0 -199.5 32t-168 95.5t-116.5 157.5t-44 217v73q0 60 3 107t11 84t21 67.5t34 58t50 55.5t69 60q23 17 55 40.5t61.5 57t47 77t12.5 101.5q-9 -18 -28.5 -33.5t-45 -28.5t-55.5 -20t-59 -7q-30 0 -72 7t-85.5 30t-81 65 t-55.5 111q-6 23 -4 46z" />
<glyph unicode="&#xe04;" horiz-adv-x="1551" d="M146 103v795q0 80 12 158t40 149t75 131t116.5 104t165.5 69q94 24 220 24q124 0 219.5 -24.5t166 -68.5t117 -104t75 -131t41 -149t12.5 -158v-795q0 -27 -10 -50t-26.5 -38.5t-39.5 -23.5t-47 -8q-26 0 -48 8t-38.5 23.5t-26.5 37.5t-10 51v827q0 45 -8 92.5t-26.5 91 t-48 83t-72.5 68t-99.5 45t-130.5 16.5q-73 0 -130 -16.5t-100 -45t-73 -68t-48.5 -83t-27 -91t-8.5 -92.5v-337q64 126 161 199t235 89q23 3 42 -3.5t34 -18.5t24.5 -31t10.5 -40q2 -22 -4 -41t-19 -33.5t-30.5 -24.5t-39.5 -11q-111 -12 -189 -52.5t-128 -108.5 t-73.5 -160t-23.5 -207v-47q0 -27 -9.5 -50t-26 -38.5t-38.5 -23.5t-47 -8t-46.5 8t-38 23.5t-26.5 37.5t-10 51z" />
<glyph unicode="&#xe05;" horiz-adv-x="1565" d="M146 103v814q0 91 14 181t51.5 167.5t100.5 137.5t161 94q13 5 31.5 10t41 5t45 -8t42.5 -30l151 -156l140 158q17 20 40 28t45.5 8t43.5 -5t34 -10q100 -34 164.5 -92.5t101.5 -135t52 -166t15 -186.5v-814q0 -27 -10 -50t-26.5 -38.5t-39.5 -23.5t-47 -8q-26 0 -48 8 t-38.5 23.5t-26 37.5t-9.5 51v835q0 46 -7 100.5t-25.5 103.5t-49.5 88.5t-79 55.5l-202 -211q-5 -5 -11 -9.5t-17.5 -4.5t-19.5 5q-8 4 -13 9l-206 211q-46 -18 -75.5 -58t-48 -88.5t-26 -102t-7.5 -99.5v-345q64 126 161 199t235 89q23 3 42 -3.5t34 -18.5t24.5 -31 t10.5 -40q2 -22 -4 -41t-19 -33.5t-30.5 -24.5t-39.5 -11q-111 -12 -189 -52.5t-128 -108.5t-73.5 -160t-23.5 -207v-47q0 -27 -9.5 -50t-26 -38.5t-38.5 -23.5t-47 -8t-46.5 8t-38 23.5t-26.5 37.5t-10 51z" />
<glyph unicode="&#xe06;" horiz-adv-x="1548" d="M75 1416q2 23 13 42t27.5 34t40.5 22q23 8 45 6.5t41.5 -11.5t34.5 -28t22 -42q13 -40 43.5 -66t77.5 -26q46 0 78.5 24.5t47.5 64.5q13 37 45 60t74 23q26 0 49.5 -10t40 -27.5t26.5 -40t10 -48.5v-185q0 -65 -22.5 -115.5t-53.5 -89.5t-66.5 -69t-63.5 -56 q-40 -36 -66.5 -63t-42.5 -58.5t-23 -73t-7 -105.5q0 -75 32.5 -146.5t90 -126.5t137 -88.5t176.5 -33.5q66 0 117 22t86.5 61.5t53.5 95.5t18 126v911q0 27 10 49.5t26.5 38t39.5 24t47 8.5q26 0 48 -8.5t38.5 -24.5t26.5 -38q10 -21 10 -49v-896q0 -105 -28 -202.5 t-88.5 -172.5t-156.5 -120q-95 -45 -232 -45q-160 0 -273.5 68.5t-189.5 210.5v-140q0 -25 -9.5 -47t-25 -38t-38 -25t-46.5 -9t-45.5 9t-38 25t-26 38t-9.5 47v426q0 55 1 99.5t6 79.5t15.5 65t30 58.5t48.5 57.5t72 64q46 39 80.5 65.5t58 56t35 68.5t8.5 104 q-9 -18 -26.5 -33.5t-42 -28.5t-53 -20t-57.5 -7q-30 0 -72 7t-85.5 30t-81 65t-55.5 111q-6 23 -4 46z" />
<glyph unicode="&#xe07;" horiz-adv-x="1138" d="M101 786.5q2 22.5 12 42.5t26 37q17 15 41 23q23 9 46 8.5t43 -10t35.5 -27.5t25.5 -42l201 -569q15 -40 43.5 -58t63.5 -18q53 0 83 31t30 73v1027h-130q-20 0 -37.5 7t-30 20t-21.5 31t-9 41q0 21 8 39t21.5 31t31 20t37.5 7h278q20 0 36.5 -7t29.5 -20t20 -29.5 t7 -36.5v-1081q0 -97 -27.5 -165t-75.5 -112.5t-114 -65t-141.5 -20.5t-131.5 19t-97.5 55.5t-71.5 88t-51 116.5l-175 499q-8 23 -6 45.5z" />
<glyph unicode="&#xe08;" horiz-adv-x="1405" d="M128.5 1186.5q1.5 26.5 14.5 49.5q34 67 89 121t126.5 93t161 59.5t194.5 20.5q65 0 134 -10t131.5 -33t118 -61.5t96 -95.5t63.5 -135t21 -181q-1 -89 -25.5 -191t-61.5 -212.5t-85 -225.5t-99 -226q-17 -40 -38.5 -72.5t-50.5 -56t-64 -36.5q-36 -13 -79 -13t-78.5 14 t-65 37.5t-51 56.5t-34.5 71l-183 532h-120q-40 0 -66.5 26.5t-26.5 66.5q0 20 7 36.5t19.5 29.5t29.5 20t37 7h242q31 0 54.5 -17t33.5 -44l199 -601q23 54 50 118.5t53.5 133t52.5 139.5t45 139t31.5 130t13.5 116q3 166 -80.5 250t-252.5 84q-117 0 -194.5 -51 t-114.5 -148q-10 -26 -29.5 -44.5t-43.5 -27t-52 -7t-54 12.5q-24 11 -40.5 31.5t-23 44t-5 50z" />
<glyph unicode="&#xe09;" horiz-adv-x="1537" d="M142.5 1179.5q-0.5 24.5 10.5 48.5q27 66 77 121t123 96.5t171.5 64.5t226 23t225.5 -23.5t169 -66.5t118 -101.5t75.5 -128t40 -147.5t11.5 -158v-806q0 -25 -9.5 -47t-25 -38t-37.5 -25t-47 -9q-24 0 -45.5 9t-38 25t-25.5 38t-9 47v140q-75 -142 -197 -210.5 t-294 -68.5q-149 0 -248 40.5t-158.5 113.5t-84.5 175.5t-25 223.5v222q0 24 10 45.5t26.5 38t38.5 26t46 9.5q25 0 46.5 -9.5t38.5 -26t26.5 -38.5t9.5 -45v-250q0 -156 73.5 -230.5t217.5 -74.5q113 0 200.5 36t146 98.5t89 149t30.5 188.5v283q0 70 -17.5 138.5 t-63.5 124.5t-121.5 90.5t-191.5 34.5q-87 0 -150 -16.5t-107 -43t-70 -61t-41 -71.5q-10 -24 -27 -41.5t-39 -26.5t-47 -9t-50 10q-24 10 -41 28t-26.5 39t-10 45.5z" />
<glyph unicode="&#xe0a;" horiz-adv-x="1368" d="M52.5 1401.5q1.5 17.5 9 32.5t20 27t30.5 18q30 11 61 19.5t60.5 14.5t53 8t39.5 2q77 0 141 -18.5t106.5 -56.5t62.5 -96.5t12 -135.5q-7 -53 -24.5 -95.5t-43 -82.5t-57 -83t-65.5 -94q-26 -39 -39 -69.5t-18.5 -60.5t-7 -64.5t-1.5 -77.5v-77q0 -80 23.5 -141 t64.5 -103t96 -63.5t116 -21.5q59 0 111 16.5t90.5 52t61.5 95t23 143.5v99q0 86 -16.5 138t-45 81.5t-70 40t-92.5 13.5q-22 0 -40.5 7.5t-32 21t-21.5 32t-8 41.5q0 43 27 70t75 33q120 13 178.5 100t69.5 240q3 27 15.5 49.5t31 36.5t41.5 20.5t48.5 3.5t45.5 -15t35 -29 t23 -41q8 -22 5 -48q-7 -74 -27 -142.5t-60 -124.5t-104 -94.5t-157 -52.5q73 -9 125.5 -31t88 -53.5t56.5 -69.5t32.5 -78t14 -78.5t2.5 -70.5v-124q0 -129 -43.5 -224t-117 -156.5t-168.5 -91.5t-197 -30q-104 0 -202 32t-173 95.5t-121 157.5t-46 217v124q0 59 3 102.5 t10 77t18 60t26.5 52.5t37 53t48.5 61q23 30 41.5 56t32 49.5t23 46.5t13.5 46q12 67 -21 105t-97 38q-36 0 -66 -9.5t-56 -18.5q-17 -5 -33.5 -3t-31 10.5t-25 21.5t-16.5 30t-4.5 34.5z" />
<glyph unicode="&#xe0b;" horiz-adv-x="1405" d="M46.5 1416q2.5 23 13 42t27 34t40.5 22q23 8 45 6.5t41.5 -11.5t34.5 -28t22 -42q13 -40 44 -66t78 -26q46 0 78 24.5t48 64.5q13 37 45 60t73 23q26 0 49 -10t40 -27.5t26.5 -40t9.5 -48.5v-185q0 -51 -16.5 -89.5t-43.5 -73.5t-64.5 -69t-75.5 -75q-38 -39 -60.5 -86 t-35.5 -98.5t-17.5 -103.5t-4.5 -101q0 -80 23.5 -141t64 -103t94 -63.5t114.5 -21.5q59 0 111 16.5t91.5 52t61.5 95t22 143.5v99q0 80 -11.5 131.5t-35 81.5t-60 43.5t-87.5 16.5q-22 0 -39.5 7.5t-32 21t-22.5 32t-8 41.5q0 43 27.5 70t74.5 33q60 5 100 32.5t65.5 71 t38.5 103t19 133.5q3 27 15 49.5t30 36.5t41 20.5t48.5 3.5t46.5 -15t36 -29t22 -41q8 -22 5 -48q-7 -74 -24 -142.5t-53.5 -124.5t-98 -94.5t-154.5 -52.5q73 -9 124 -31t84.5 -53.5t52 -69.5t28.5 -78t11.5 -78.5t1.5 -70.5v-124q0 -86 -21 -157t-56.5 -126.5t-85.5 -96.5 t-109.5 -68t-125 -40.5t-133.5 -13.5q-104 0 -201.5 32t-173 95.5t-121.5 157.5t-46 217q0 91 3 162.5t17.5 132.5t47 111t94.5 99q14 11 33.5 25.5t39.5 32t40 40t34.5 49.5t21.5 58.5t3 70.5q-9 -18 -27.5 -33.5t-44.5 -28.5t-56 -20t-58 -7q-30 0 -72.5 7t-86 30 t-80.5 65t-56 111q-6 23 -3.5 46z" />
<glyph unicode="&#xe0c;" horiz-adv-x="2323" d="M64 1101q-1 17 10 44q30 75 81 145.5t127.5 124.5t178 86t233.5 32q123 0 216.5 -23.5t164 -66.5t119.5 -101.5t79 -128t42.5 -147.5t12.5 -158v-253q0 -102 24.5 -188.5t71 -149t115 -98.5t156.5 -36q54 0 98.5 15.5t75.5 51.5t47.5 94t16.5 144v911q0 27 10 49.5 t26.5 38t39 24t47.5 8.5q26 0 47.5 -8.5t38 -24.5t26.5 -38q10 -21 10 -49v-883q0 -131 -22 -234t-74.5 -174t-139 -108t-215.5 -37q-71 0 -132.5 23t-112.5 61.5t-91.5 88.5t-69.5 106v-140q0 -26 -9 -47.5t-25 -37.5t-38 -25t-46 -9q-26 0 -47.5 9t-37 25t-25 37.5 t-9.5 47.5v836q0 70 -19.5 138.5t-65 124t-120 89.5t-184.5 36q-93 1 -164 -23.5t-118.5 -62t-75.5 -84.5q-28 -46 -34 -91q26 -15 46.5 -40t35 -59t21.5 -74t7 -83v-622h95q20 0 36.5 -7.5t29 -20.5t20.5 -29.5t8 -36.5t-8 -36.5t-20.5 -29.5t-29 -20t-36.5 -7h-242 q-20 0 -36.5 7t-29.5 20t-20 29.5t-7 36.5v719q0 49 -10.5 98.5t-40.5 90.5q-18 23 -31.5 38.5t-20.5 30t-6 31.5z" />
<glyph unicode="&#xe0d;" horiz-adv-x="2323" d="M64 1101q-1 17 10 44q30 75 81 145.5t127.5 124.5t178 86t233.5 32q123 0 216.5 -23.5t164 -66.5t119.5 -101.5t79 -128t42.5 -147.5t12.5 -158v-293q0 -84 16.5 -143t48 -94.5t75.5 -50.5t99 -15q88 0 155.5 35.5t115 100t71.5 150.5t24 186v615q0 27 10 49.5t26.5 38 t39 24t47.5 8.5q26 0 47.5 -8.5t38 -24.5t26.5 -38q10 -21 10 -49v-1087q0 -105 -10 -184t-26.5 -138.5t-38.5 -102.5t-45 -74q-43 -63 -97.5 -106.5t-116.5 -71t-131.5 -40.5t-142.5 -13q-83 0 -161.5 17.5t-144.5 53t-117.5 89.5t-78.5 126q-8 22 -7.5 44t10.5 41.5 t26.5 34.5t37.5 23q45 16 85 -0.5t58 -64.5q18 -43 48.5 -76t70.5 -55t83.5 -33.5t86.5 -11.5q72 0 127 16.5t96.5 45.5t70 68.5t46.5 84.5t26 93t8 95v197q-29 -55 -70 -104.5t-91.5 -87.5t-113 -61t-133.5 -23q-129 0 -215.5 37.5t-138.5 107.5t-73.5 172t-21.5 234v293 q0 70 -19.5 138.5t-65 124t-120 89.5t-184.5 36q-93 1 -164 -22.5t-119.5 -61.5t-75.5 -84.5t-33 -92.5q26 -15 46.5 -40t35 -59t21.5 -74t7 -83v-622h95q20 0 36.5 -7.5t29 -20.5t20.5 -29.5t8 -36.5t-8 -36.5t-20.5 -29.5t-29 -20t-36.5 -7h-242q-20 0 -36.5 7t-29.5 20 t-20 29.5t-7 36.5v719q0 49 -10.5 98.5t-40.5 90.5q-18 23 -31.5 38.5t-20.5 30t-6 31.5z" />
<glyph unicode="&#xe0e;" horiz-adv-x="1598" d="M60 93q0 20 7 36.5t21 29.5t30 20.5t36 7.5h81v625q0 49 -10.5 98.5t-40.5 90.5q-18 26 -31.5 41t-20 29t-6 30.5t10.5 43.5q30 75 81.5 145.5t131 124.5t188 86t250.5 32q127 0 226 -23.5t172.5 -66.5t124 -101.5t83 -128t46 -147.5t13.5 -158v-1257q0 -31 -12 -60 t-33.5 -50t-50.5 -33.5t-60 -12.5q-34 0 -63.5 15t-52.5 38q-76 73 -158.5 105t-183.5 32q-48 0 -91.5 -15t-82.5 -38.5t-74 -53.5t-66 -61q-13 -13 -30 -18t-35 -4.5t-36 8.5t-29 22q-26 32 -21.5 64.5t29.5 64.5q35 43 83.5 82t105.5 70t120 49t127 18q112 0 200.5 -30 t168.5 -85v1180q0 70 -20.5 138.5t-70 124t-130 89.5t-199.5 36q-70 1 -128 -12.5t-103 -35t-80 -48.5t-58.5 -57t-36.5 -58t-16 -50q26 -15 46 -40t34 -59t21.5 -74t7.5 -83v-716q0 -20 -7.5 -36.5t-20 -29.5t-29 -20t-36.5 -7h-228q-20 0 -36 7t-30 20t-21 29.5t-7 36.5z " />
<glyph unicode="&#xe0f;" horiz-adv-x="1598" d="M60 93q0 20 7 36.5t21 29.5t30 20.5t36 7.5h81v625q0 49 -10.5 98.5t-40.5 90.5q-18 26 -31.5 41t-20 29t-6 30.5t10.5 43.5q30 75 81.5 145.5t131 124.5t188 86t250.5 32q127 0 226 -23.5t172.5 -66.5t124 -101.5t83 -128t46 -147.5t13.5 -158v-1274q0 -29 -11 -54 t-30 -44t-44 -30t-55 -11q-42 0 -75 21.5t-50 55.5q-11 22 -26 41t-35 34.5t-46.5 25.5t-59.5 10t-59.5 -10t-47 -25.5t-35.5 -36t-22 -41.5q-13 -33 -42 -54t-66 -21t-66 21.5t-41 55.5q-7 20 -18.5 40t-31 36.5t-45 26.5t-59.5 10q-32 0 -55.5 -8.5t-40.5 -24t-28.5 -35.5 t-19 -43t-21.5 -39.5t-32.5 -26.5t-41 -13t-45.5 5q-21 5 -38 20t-27 33.5t-13 41t4 45.5q17 60 48 104t74 73.5t94.5 44t109.5 14.5q97 0 169.5 -42.5t109.5 -122.5q20 40 51 68.5t64.5 47.5t68.5 28t66 9q46 0 82 -10.5t63 -26.5t46 -34.5t32 -34.5v1180q0 70 -20.5 138.5 t-70 124t-130 89.5t-199.5 36q-70 1 -128 -12.5t-103 -35t-80 -48.5t-58.5 -57t-36.5 -58t-16 -50q26 -15 46 -40t34 -59t21.5 -74t7.5 -83v-716q0 -20 -7.5 -36.5t-20 -29.5t-29 -20t-36.5 -7h-228q-20 0 -36 7t-30 20t-21 29.5t-7 36.5z" />
<glyph unicode="&#xe10;" horiz-adv-x="1398" d="M128.5 1186.5q1.5 26.5 14.5 49.5q34 67 89 121t126.5 93t161 59.5t194.5 20.5q61 0 124 -8.5t123 -28.5q61 4 95.5 34t48.5 69q12 26 32 45t45 28.5t53.5 6.5t58.5 -23q22 -14 34.5 -35.5t15.5 -45t-2.5 -48t-21.5 -45.5q-26 -36 -66 -63t-96 -43q56 -60 89 -147.5 t31 -211.5q-1 -89 -25.5 -191t-61.5 -212.5t-85 -225.5t-99 -226q-17 -40 -38.5 -72.5t-50.5 -56t-64 -36.5q-36 -13 -79 -13t-78.5 14t-65 37.5t-51 56.5t-34.5 71l-183 532h-120q-40 0 -66.5 26.5t-26.5 66.5q0 20 7 36.5t19.5 29.5t29.5 20t37 7h242q31 0 54.5 -17 t33.5 -44l199 -601q23 54 50 118.5t53.5 133t52.5 139.5t45 139t31.5 130t13.5 116q3 166 -80.5 250t-252.5 84q-117 0 -194.5 -51t-114.5 -148q-10 -26 -29.5 -44.5t-43.5 -27t-52 -7t-54 12.5q-24 11 -40.5 31.5t-23 44t-5 50zM140 -408q12 65 39.5 107t62.5 68t72.5 36 t65.5 10q35 0 63.5 -7.5t52 -20t42 -29t31.5 -33.5q19 27 40.5 45t41.5 28t40.5 13.5t37.5 3.5q27 0 53 -6t48 -16t39.5 -23t28.5 -24v26q0 26 9.5 48t26 39t38.5 26.5t47.5 9.5t48 -9.5t39.5 -26.5t26.5 -39t9.5 -48v-146q0 -29 -11.5 -54.5t-30 -44t-44.5 -30t-55 -11.5 q-40 0 -72 21q-32 20 -51 55q-32 70 -110 70q-51 0 -80.5 -25t-39.5 -67q-5 -23 -24 -38.5t-44 -15.5q-26 0 -44.5 15.5t-24.5 38.5q-9 40 -34.5 66t-74.5 26q-37 0 -60 -22.5t-31 -55.5q-9 -35 -40.5 -54.5t-68.5 -10.5q-34 8 -52 39q-17 31 -11 66z" />
<glyph unicode="&#xe11;" horiz-adv-x="1548" d="M75 1416q2 23 13 42t27.5 34t40.5 22q23 8 45 6.5t41.5 -11.5t34.5 -28t22 -42q13 -40 43.5 -66t77.5 -26q46 0 78.5 24.5t47.5 64.5q13 37 45 60t74 23q26 0 49.5 -10t40 -27.5t26.5 -40t10 -48.5v-37q61 51 120 85.5t111 56t96.5 30.5t78.5 9q64 0 104 -22t62.5 -63.5 t31 -99.5t8.5 -129v-1120q0 -27 -10 -50t-27.5 -38.5t-39.5 -23.5t-48 -8q-25 0 -46.5 8t-39 23.5t-26.5 37.5t-9 51v1025q0 35 -1 65.5t-7 54t-18.5 38t-35.5 14.5q-30 0 -75 -23.5t-99 -68t-116.5 -106.5t-126.5 -140q-47 -58 -83 -99.5t-62.5 -74.5t-43.5 -61.5t-27 -61 t-14.5 -71t-4.5 -89.5v-402q0 -27 -10 -50t-26.5 -38.5t-38.5 -23.5t-48 -8q-25 0 -46.5 8t-39 23.5t-27.5 37.5t-10 51v372q0 56 1.5 99.5t7.5 78.5t16 64t27 59.5t42.5 64t63.5 74.5q41 46 80.5 85.5t68 76.5t43 77.5t5.5 91.5q-9 -18 -26.5 -33.5t-42 -28.5t-53 -20 t-57.5 -7q-30 0 -72 7t-85.5 30t-81 65t-55.5 111q-6 23 -4 46z" />
<glyph unicode="&#xe12;" horiz-adv-x="2386" d="M146 134v783q0 91 12 181t46.5 167.5t95 137.5t158.5 94q12 5 31.5 10t41 5t44.5 -8t43 -30l151 -156l140 158q18 20 40 28t45 8t43.5 -5t33.5 -10q100 -34 162.5 -92.5t97.5 -135t47 -166t12 -186.5v-262q0 -102 24.5 -188.5t71.5 -149t115.5 -98.5t155.5 -36 q56 0 100.5 15.5t74.5 51.5t46.5 94t16.5 144v911q0 27 10 49.5t26.5 38t39.5 24t47 8.5q26 0 48 -8.5t38.5 -24.5t26.5 -38q10 -21 10 -49v-883q0 -131 -22.5 -234t-74.5 -174t-138.5 -108t-215.5 -37q-71 0 -132.5 23t-113 61.5t-91.5 88.5t-69 106v-140q0 -25 -10 -47 t-25.5 -38t-38 -25t-46.5 -9t-45.5 9t-38 25t-26 38t-9.5 47v860q0 46 -5 95.5t-19 95t-42.5 81.5t-76.5 52l-204 -211q-3 -5 -10 -9.5t-18.5 -4.5t-20.5 5q-8 4 -14 9l-204 211q-46 -18 -73.5 -54.5t-43 -80.5t-21 -93.5t-5.5 -95.5v-665l316 405h-73q-40 0 -66.5 27 t-26.5 66q0 20 7 37t20 29.5t30 20t36 7.5h228q23 0 44 -9t36.5 -24t24.5 -36q8 -22 8 -45q0 -41 -27 -73l-527 -665q-22 -26 -52 -41t-66 -15q-31 0 -59 10t-49.5 29.5t-33.5 48t-12 65.5z" />
<glyph unicode="&#xe13;" horiz-adv-x="2323" d="M64 1101q-1 17 10 44q30 75 81 145.5t127.5 124.5t178 86t233.5 32q123 0 216.5 -23.5t164 -66.5t119.5 -101.5t79 -128t42.5 -147.5t12.5 -158v-420q0 -85 16.5 -143.5t48 -94.5t75.5 -51.5t99 -15.5q88 0 155.5 36t115 98.5t71.5 149t24 188.5v744q0 27 10 49.5 t26.5 38t39 24t47.5 8.5q26 0 47.5 -8.5t38 -24.5t26.5 -38q10 -21 10 -49v-1297q0 -25 -9.5 -47t-25 -38t-37.5 -25t-47 -9q-24 0 -46 9t-38 25t-25 38t-9 47v140q-29 -56 -70 -106t-91.5 -88.5t-113 -61.5t-133.5 -23q-129 0 -215.5 37t-138.5 108t-73.5 174t-21.5 234 v422q0 70 -19.5 138.5t-65 124t-120 89.5t-184.5 36q-93 1 -164 -22.5t-119.5 -61.5t-75.5 -84.5t-33 -92.5q26 -15 46.5 -40t35 -59t21.5 -74t7 -83v-622h95q20 0 36.5 -7.5t29 -20.5t20.5 -29.5t8 -36.5t-8 -36.5t-20.5 -29.5t-29 -20t-36.5 -7h-242q-20 0 -36.5 7 t-29.5 20t-20 29.5t-7 36.5v719q0 49 -10.5 98.5t-40.5 90.5q-18 23 -31.5 38.5t-20.5 30t-6 31.5z" />
<glyph unicode="&#xe14;" horiz-adv-x="1565" d="M146 134v767q0 80 12 158.5t40.5 148.5t76 130.5t118 103t167 67t224.5 24.5q125 0 221 -24.5t167 -67t118.5 -103t76.5 -130.5t41 -148.5t12 -158.5v-798q0 -27 -10 -50t-26.5 -38.5t-39.5 -23.5t-47 -8q-26 0 -48 8t-38.5 23.5t-26 37.5t-9.5 51v829q0 46 -7 93 t-23.5 91t-45.5 82t-72 66.5t-103 45t-140 16.5t-141 -16.5t-105.5 -45t-73 -66.5t-45.5 -82t-24 -91t-7 -93v-635l340 405h-73q-40 0 -66.5 27t-26.5 66q0 20 7 37t20 29.5t29.5 20t36.5 7.5h229q23 0 43 -9t35.5 -24t24.5 -36q10 -22 10 -45q0 -41 -27 -73l-552 -665 q-22 -26 -52 -41t-66 -15q-31 0 -59 9.5t-49.5 29t-33.5 48.5t-12 66z" />
<glyph unicode="&#xe15;" horiz-adv-x="1577" d="M146 134v783q0 91 15.5 181t54.5 167.5t103 137.5t161 94q13 5 32 10t41 5t45 -8t43 -30l150 -156l140 158q17 20 40 28t46 8t43.5 -5t33.5 -10q100 -34 165 -94t103.5 -137.5t53.5 -166.5t15 -182v-814q0 -27 -9 -50t-25.5 -38.5t-38.5 -23.5t-48 -8t-47.5 8t-38 23.5 t-25.5 37.5t-9 51v844q0 45 -9.5 99.5t-28.5 104t-51.5 88.5t-79.5 55l-200 -209q-6 -5 -14 -9.5t-16 -4.5q-12 0 -19.5 4.5t-13.5 9.5l-206 209q-46 -17 -76.5 -56.5t-50 -88.5t-28.5 -103t-9 -99v-650l340 405h-73q-40 0 -66.5 27t-26.5 66q0 20 7 37t20 29.5t29.5 20 t36.5 7.5h229q23 0 43 -9t35.5 -24t24.5 -36q10 -22 10 -45q0 -41 -27 -73l-552 -665q-22 -26 -52 -41t-66 -15q-31 0 -59 9.5t-49.5 29t-33.5 48.5t-12 66z" />
<glyph unicode="&#xe16;" horiz-adv-x="1508" d="M64 1102q-1 16 10 43q30 75 79.5 145.5t126 124.5t183 86t248.5 32q127 0 224 -23.5t170 -66.5t122 -101.5t79 -128t42.5 -147.5t12.5 -158v-805q0 -27 -9 -50t-25.5 -38.5t-38.5 -23.5q-21 -8 -47 -8q-25 0 -47.5 8t-39 23.5t-25.5 37.5t-9 51v835q0 70 -19.5 138.5 t-66 124t-126 89.5t-197.5 36q-73 1 -131.5 -12.5t-103 -35t-76 -50t-53 -58t-31.5 -57.5t-13 -48q26 -15 46.5 -40t35 -59t21.5 -74t7 -83v-622h95q20 0 36.5 -7.5t29 -20.5t20.5 -29.5t8 -36.5t-8 -36.5t-20.5 -29.5t-29 -20t-36.5 -7h-242q-20 0 -36.5 7t-29.5 20 t-20 29.5t-7 36.5v719q0 49 -10.5 98.5t-40.5 90.5q-19 26 -32.5 41t-20 29t-5.5 31z" />
<glyph unicode="&#xe17;" horiz-adv-x="1537" d="M146 103v1300q0 24 9 45.5t25 36.5t36.5 24.5t45.5 9.5q24 0 44.5 -9.5t36.5 -24.5t25.5 -36.5t9.5 -45.5v-140q77 138 200.5 206t292.5 68q151 0 250.5 -40.5t159.5 -113t84.5 -173t24.5 -222.5v-885q0 -27 -9.5 -50t-26 -38.5t-39 -23.5t-47.5 -8t-47.5 8t-39 23.5 t-26.5 37.5t-10 51v911q0 70 -21 126.5t-60.5 96t-97 60.5t-128.5 21q-113 0 -196.5 -35.5t-139.5 -98.5t-83 -148.5t-27 -186.5v-746q0 -27 -10 -50t-26.5 -38.5t-38.5 -23.5t-48 -8t-48 8t-38.5 23.5t-26.5 37.5t-10 51z" />
<glyph unicode="&#xe18;" horiz-adv-x="1455" d="M146 428v213q0 25 10 46.5t26.5 38t38 26t46.5 9.5q26 0 47.5 -9.5t38 -26t25.5 -38.5q10 -21 10 -46v-213q0 -72 31 -120t80 -77t109.5 -42t119.5 -13q54 0 114 10.5t111.5 38t85 76.5t33.5 127q0 41 -4 74.5t-20 60t-44.5 48.5t-75.5 43.5t-116.5 44t-166.5 49.5 q-63 17 -125 35.5t-118 42t-103 53.5t-81.5 69.5t-53.5 90.5q-21 51 -18 116q1 66 25.5 119.5t64 95t91.5 71.5t110.5 50.5t119.5 29.5t121 9q107 0 201.5 -17t170 -55.5t128.5 -99.5q55 -60 78 -144q7 -26 3.5 -51t-16 -45.5t-32.5 -36.5t-44 -21q-26 -8 -50 -4t-45.5 16 t-37.5 31q-16 18 -22 44q-12 48 -41 82t-69.5 54.5t-91.5 30.5t-111 12q-61 1 -117.5 -8.5t-99.5 -28.5t-68.5 -49t-25.5 -70q0 -52 36 -85.5t95 -58t131 -42t142 -36.5q135 -36 234 -75t165 -97t98 -141.5t32 -206.5q0 -83 -22.5 -148.5t-63 -116t-95.5 -87t-121.5 -60 t-140 -35t-150.5 -11.5t-151 11.5t-138 35t-118 60.5t-93 88t-60.5 116t-21.5 147z" />
<glyph unicode="&#xe19;" horiz-adv-x="1537" d="M149 516v883q0 27 10 49.5t26.5 38t38.5 24t48 8.5q25 0 47.5 -8.5t39 -24.5t26.5 -38q10 -21 10 -49v-911q0 -69 15.5 -125.5t49 -96t86.5 -61.5t129 -22q113 0 200 36t148 98.5t91.5 149t30.5 188.5v744q0 27 10 49.5t26.5 38t39 24t47.5 8.5q26 0 48 -8.5t38.5 -24.5 t26.5 -38q9 -21 9 -49v-1297q0 -28 -9.5 -50t-25 -37.5t-37.5 -23.5t-47 -8q-24 0 -45.5 8.5t-38 24t-25.5 37t-9 49.5v140q-75 -142 -197 -210.5t-294 -68.5q-149 0 -247.5 40.5t-158 113.5t-83.5 175.5t-24 223.5z" />
<glyph unicode="&#xe1a;" horiz-adv-x="1537" d="M146 603v796q0 27 10 49.5t26.5 38t39.5 24t47 8.5q26 0 48 -8.5t38.5 -24.5t26.5 -38q10 -21 10 -49v-824q0 -46 7 -94.5t25 -92t46.5 -83t70.5 -68t98 -45t130 -16.5q73 0 129.5 16.5t98 45t70 68t46.5 83t25 91.5t7 95v824q0 27 10 49.5t26.5 38t39 24t47.5 8.5 q26 0 48 -8.5t38.5 -24.5t26.5 -38q9 -21 9 -49v-796q0 -80 -11.5 -158.5t-38.5 -149t-73.5 -131t-115 -104.5t-164 -68.5t-218.5 -24.5q-125 0 -219.5 24.5t-164 68.5t-116 104.5t-73.5 131t-38.5 149t-11.5 158.5z" />
<glyph unicode="&#xe1b;" horiz-adv-x="1537" d="M146 603v796q0 27 10 49.5t26.5 38t39.5 24t47 8.5q26 0 48 -8.5t38.5 -24.5t26.5 -38q10 -21 10 -49v-824q0 -46 7 -94.5t25 -92t46.5 -83t70.5 -68t98 -45t130 -16.5q73 0 129.5 16.5t98 45t70 68t46.5 83t25 91.5t7 95v1478q0 28 10 51.5t26.5 38.5t39 23.5t47.5 8.5 q26 0 48 -8.5t38.5 -24.5t26 -38t9.5 -51v-1450q0 -80 -11.5 -158.5t-38.5 -149t-73.5 -131t-115 -104.5t-164 -68.5t-218.5 -24.5q-125 0 -219.5 24.5t-164 68.5t-116 104.5t-73.5 131t-38.5 149t-11.5 158.5z" />
<glyph unicode="&#xe1c;" horiz-adv-x="1650" d="M146 413v994q0 20 7 36.5t20 29.5t30 20t37 7h278q20 0 37.5 -7t30.5 -20t21 -31t8 -39q0 -23 -8 -41t-21.5 -31t-30.5 -20t-37 -7h-126v-829q0 -156 38.5 -227.5t114.5 -71.5q58 0 91 28t47.5 77t17.5 115.5t3 141.5v114q0 27 10 50t26 38t38.5 23.5t48.5 8.5 q25 0 46.5 -8.5t38 -24t26.5 -38t10 -49.5v-114q0 -75 3.5 -141.5t20 -115.5t50 -77t95.5 -28q74 0 109 71q34 70 34 228v924q0 27 9 49.5t26.5 38t39.5 24t46 8.5q26 0 48 -8.5t38.5 -24.5t26.5 -38q10 -21 10 -49v-986q0 -114 -25 -197t-71.5 -138t-110.5 -81.5 t-144 -26.5q-119 0 -205.5 58t-126.5 166q-35 -108 -112.5 -166t-199.5 -58q-83 0 -149.5 26.5t-113.5 81.5t-73.5 138t-26.5 197z" />
<glyph unicode="&#xe1d;" horiz-adv-x="1650" d="M146 413v994q0 20 7 36.5t20 29.5t30 20t37 7h278q20 0 37.5 -7t30.5 -20t21 -31t8 -39q0 -23 -8 -41t-21.5 -31t-30.5 -20t-37 -7h-126v-829q0 -156 38.5 -227.5t114.5 -71.5q58 0 91 28t47.5 77t17.5 115.5t3 141.5v114q0 27 10 50t26 38t38.5 23.5t48.5 8.5 q25 0 46.5 -8.5t38 -24t26.5 -38t10 -49.5v-114q0 -75 3.5 -141.5t20 -115.5t50 -77t95.5 -28q74 0 109 71q34 70 34 228v1578q0 28 9 51.5t26.5 38.5t39.5 23.5t46 8.5q26 0 48 -8.5t38.5 -24.5t26.5 -38t10 -51v-1640q0 -114 -25 -197t-71.5 -138t-110.5 -81.5t-144 -26.5 q-119 0 -205.5 58t-126.5 166q-35 -108 -112.5 -166t-199.5 -58q-83 0 -149.5 26.5t-113.5 81.5t-73.5 138t-26.5 197z" />
<glyph unicode="&#xe1e;" horiz-adv-x="1943" d="M87.5 1414q4.5 25 16.5 46t32 35.5t46 20.5q25 6 51 3t47.5 -15.5t36.5 -34.5t22 -52l236 -1135l239 1108q5 27 20 50.5t35 41t46.5 27.5t55.5 10t55 -10t47 -27.5t36 -40.5q15 -25 21 -51l240 -1108l234 1135q6 32 22.5 53t38 33.5t46.5 15.5t51 -3t46.5 -21t32.5 -35.5 t15.5 -45.5t-1.5 -51l-319 -1253q-16 -60 -58 -93.5t-99 -33.5q-29 0 -55.5 8t-48 24t-36.5 40.5t-22 54.5l-245 1114l-246 -1114q-7 -30 -22 -54.5t-36.5 -40.5t-47 -24t-54.5 -8q-57 0 -100 33.5t-58 93.5l-319 1253q-6 26 -1.5 51z" />
<glyph unicode="&#xe1f;" horiz-adv-x="1943" d="M87.5 1414q4.5 25 16.5 46t32 35.5t46 20.5q25 6 51 3t47.5 -15.5t36.5 -34.5t22 -52l236 -1135l239 1108q5 27 20 50.5t35 41t46.5 27.5t55.5 10t55 -10t47 -27.5t36 -40.5q15 -25 21 -51l240 -1108l345 1790q5 32 21 54t37.5 34t47 14t51.5 -2q26 -6 46 -21t32 -35.5 t16.5 -45.5t-3.5 -51l-427 -1909q-16 -60 -58 -93.5t-99 -33.5q-29 0 -55.5 8t-48 24t-36.5 40.5t-22 54.5l-245 1114l-246 -1114q-7 -30 -22 -54.5t-36.5 -40.5t-47 -24t-54.5 -8q-57 0 -100 33.5t-58 93.5l-319 1253q-6 26 -1.5 51z" />
<glyph unicode="&#xe20;" horiz-adv-x="1598" d="M60 93q0 20 7 36.5t21 29.5t30 20.5t36 7.5h81v625q0 49 -10.5 98.5t-40.5 90.5q-18 26 -31.5 41t-20 29t-6 30.5t10.5 43.5q30 75 81.5 145.5t131 124.5t188 86t250.5 32q127 0 226 -23.5t172.5 -66.5t124 -101.5t83 -128t46 -147.5t13.5 -158v-805q0 -27 -10 -50 t-26.5 -38.5t-38.5 -23.5t-47 -8t-47.5 8t-39 23.5t-26.5 37.5t-10 51v835q0 70 -20.5 138.5t-70 124t-130 89.5t-199.5 36q-70 1 -128 -12.5t-103 -35t-80 -48.5t-58.5 -57t-36.5 -58t-16 -50q26 -15 46 -40t34 -59t21.5 -74t7.5 -83v-716q0 -20 -7.5 -36.5t-20 -29.5 t-29 -20t-36.5 -7h-228q-20 0 -36 7t-30 20t-21 29.5t-7 36.5z" />
<glyph unicode="&#xe21;" horiz-adv-x="1537" d="M149 102v1297q0 27 10 49t26.5 38t38.5 24.5t48 8.5q25 0 47.5 -8.5t39 -24t26.5 -37.5t10 -50v-744q0 -102 30.5 -188.5t91.5 -149t148 -98.5t200 -36q75 0 128.5 22t87 61.5t49 95.5t15.5 126v911q0 27 10 49t26.5 38t39 24.5t47.5 8.5q26 0 48 -8.5t38.5 -24 t26.5 -37.5q9 -22 9 -50v-883q0 -123 -23.5 -224.5t-83 -174.5t-158 -113.5t-247.5 -40.5q-172 0 -295 68.5t-195 210.5v-140q0 -26 -9.5 -48.5t-26 -38t-38.5 -24t-45 -8.5q-24 0 -46.5 8t-38 23.5t-25.5 37.5t-10 50z" />
<glyph unicode="&#xe22;" horiz-adv-x="1495" d="M120 460q0 63 11 119t34.5 101.5t63.5 80t97 56.5q-66 25 -106 63t-61.5 82.5t-28 92.5t-6.5 90q0 71 18 125t48 93.5t70 66t84.5 42t91 22t87.5 6.5h122q21 0 40 -8t33 -22t22 -32.5t8 -38.5q0 -22 -8 -40.5t-22 -32t-33 -22t-40 -8.5h-60q-23 0 -58 -3t-68.5 -18 t-57 -48t-23.5 -92q0 -65 17 -106.5t47.5 -64.5t72.5 -33q40 -10 88 -13h42q21 0 40 -8t33 -21.5t22 -31.5t8 -39t-8 -40t-22 -32.5t-33 -20.5t-40 -7h-42q-51 -3 -92.5 -11.5t-71 -33.5t-45.5 -72.5t-16 -128.5q0 -74 30 -130.5t80.5 -94.5t116.5 -56t137 -18 q80 0 146.5 20.5t115 68t75 123t26.5 186.5v828q0 27 10 49t26.5 38t39 24.5t47.5 8.5q26 0 48 -8.5t38.5 -24t26.5 -37.5q9 -22 9 -50v-878q0 -136 -48 -240.5t-131 -175.5t-193 -106.5t-236 -35.5q-77 0 -153.5 13.5t-145 40.5t-128 68t-102.5 96t-68 125q-25 69 -25 154z " />
<glyph unicode="&#xe23;" horiz-adv-x="1288" d="M87 374v12q0 26 9.5 49t25 39t38 26.5t47.5 10.5q46 0 79 -29.5t44 -72.5q16 -60 47.5 -101.5t76 -68t95 -38.5t103.5 -12q49 0 102.5 10t98 35t73.5 68.5t29 109.5q0 61 -26.5 104t-71.5 73t-106.5 51t-129.5 38q-58 14 -117 32t-114 43t-104 58.5t-84.5 77t-56.5 98.5 t-21 127q0 73 20 131.5t55.5 105t83 80t103.5 56.5t115.5 34t119.5 11q94 0 180.5 -20.5t156.5 -63t119.5 -110t69.5 -161.5q3 -13 3 -24q0 -26 -8.5 -49t-23.5 -39.5t-36.5 -26.5t-46.5 -10q-44 0 -75 29q-32 30 -45 70q-16 48 -43.5 83.5t-64 59t-80 34t-91.5 10.5 q-55 0 -104 -10.5t-86 -33.5t-57.5 -61t-20.5 -92q0 -56 26 -94t72 -64.5t106 -44t126 -33.5q119 -30 212.5 -63.5t157 -83t97 -119t33.5 -169.5q0 -91 -22.5 -162.5t-62 -124.5t-93 -89.5t-116 -58.5t-131 -31.5t-135.5 -9.5q-99 0 -190.5 22t-164.5 69.5t-123.5 121.5 t-70.5 179q-2 6 -2 12z" />
<glyph unicode="&#xe24;" horiz-adv-x="1508" d="M64 1102q-1 16 10 43q30 75 79.5 145.5t126 124.5t183 86t248.5 32q127 0 224 -23.5t170 -66.5t122 -101.5t79 -128t42.5 -147.5t12.5 -158v-1293q0 -27 -9 -49t-25.5 -38t-38.5 -24q-21 -9 -47 -9q-25 0 -47.5 8.5t-39 23.5t-25.5 37.5t-9 50.5v1323q0 70 -19.5 138.5 t-66 124t-126 89.5t-197.5 36q-73 1 -131.5 -12.5t-103 -35t-76 -50t-53 -58t-31.5 -57.5t-13 -48q26 -15 46.5 -40t35 -59t21.5 -74t7 -83v-622h95q20 0 36.5 -7.5t29 -20.5t20.5 -29.5t8 -36.5t-8 -36.5t-20.5 -29.5t-29 -20t-36.5 -7h-242q-20 0 -36.5 7t-29.5 20 t-20 29.5t-7 36.5v719q0 49 -10.5 98.5t-40.5 90.5q-19 26 -32.5 41t-20 29t-5.5 31z" />
<glyph unicode="&#xe25;" horiz-adv-x="1500" d="M103 385q0 111 37 193.5t99.5 141t145.5 95.5t173.5 58.5t184.5 29.5q94 9 178 9q54 0 102 -2q49 -2 90 -3v135q0 89 -30.5 145t-78 86.5t-107 41.5t-118.5 11q-68 0 -127.5 -11t-106 -36.5t-78.5 -66.5t-47 -102q-5 -20 -16 -38t-27.5 -31t-35.5 -20t-42 -7 q-26 0 -49 10t-39.5 26.5t-26.5 39.5t-10 48q0 17 5 32q27 100 85.5 168.5t141 111.5t183 61.5t209.5 18.5q60 0 125 -8t127.5 -28t117.5 -55t96.5 -88.5t65.5 -128t24 -172.5v-948q0 -28 -9 -50t-25.5 -37.5t-39.5 -23.5t-47 -8q-26 0 -47.5 8t-38 23.5t-25.5 37t-9 50.5 v600q-20 4 -74 7t-127 0q-57 -3 -120.5 -8.5t-126 -20t-119.5 -36t-100.5 -55t-68.5 -80t-25 -106.5q0 -70 26.5 -115.5t70 -72t97 -36.5t109.5 -10q27 0 51 1q39 6 69 -17t34 -66q2 -20 -3 -38t-16 -32t-26 -24t-33 -13q-32 -6 -64 -9.5t-69 -3.5q-100 0 -190.5 22 t-157.5 72.5t-107 129.5t-40 194z" />
<glyph unicode="&#xe26;" horiz-adv-x="1598" d="M60 93q0 20 7 36.5t21 29.5t30 20.5t36 7.5h81v625q0 49 -10.5 98.5t-40.5 90.5q-18 26 -31.5 41t-20 29t-6 30.5t10.5 43.5q30 75 81.5 145.5t131 124.5t188 86t250.5 32q127 0 226 -23.5t172.5 -66.5t124 -101.5t83 -128t46 -147.5t13.5 -158v-1293q0 -27 -10 -49 t-26.5 -38t-38.5 -24.5t-47 -8.5t-47.5 8.5t-39 23.5t-26.5 37.5t-10 50.5v1323q0 70 -20.5 138.5t-70 124t-130 89.5t-199.5 36q-70 1 -128 -12.5t-103 -35t-80 -48.5t-58.5 -57t-36.5 -58t-16 -50q26 -15 46 -40t34 -59t21.5 -74t7.5 -83v-716q0 -20 -7.5 -36.5t-20 -29.5 t-29 -20t-36.5 -7h-228q-20 0 -36 7t-30 20t-21 29.5t-7 36.5z" />
<glyph unicode="&#xe27;" horiz-adv-x="1355" d="M114.5 1081q-2.5 24 4.5 50q24 90 72 165t117.5 129t158 83t192.5 29q156 0 269 -56.5t187.5 -160t111 -248t36.5 -321.5q0 -178 -36.5 -322t-111 -247t-188 -159t-268.5 -56q-104 0 -194 29.5t-160 82.5t-118 128t-70 166q-5 27 -1.5 51.5t15 44.5t29.5 35q17 15 43 22 t51 4.5t46.5 -14t36.5 -31t21 -46.5q12 -66 40 -116t66.5 -83.5t88 -50t106.5 -16.5q82 0 146 33.5t108.5 105t69 180.5t24.5 259q0 148 -24.5 257.5t-69 182t-108.5 107.5t-146 35q-56 0 -105 -16.5t-88.5 -50t-67.5 -83.5t-40 -116q-5 -26 -20 -45.5t-36.5 -31.5 t-46.5 -15.5t-51 3.5q-25 6 -43.5 21.5t-31 36.5t-15 45z" />
<glyph unicode="&#xe28;" horiz-adv-x="1551" d="M146 103v795q0 80 12 158t40 149t75 131t116.5 104t165.5 69q94 24 220 24q89 0 162 -10t133 -30q31 1 57 10t44.5 23t30.5 32t19 38q12 26 32 45t45.5 28.5t54 6.5t57.5 -23q21 -14 34 -35.5t16 -45t-3 -48t-21 -45.5q-26 -36 -67.5 -65.5t-101.5 -43.5q39 -42 65 -94 t42.5 -112t24.5 -127q7 -65 7 -139v-795q0 -27 -10 -50t-26.5 -38.5t-39.5 -23.5t-47 -8q-26 0 -48 8t-38.5 23.5t-26.5 37.5t-10 51v827q0 45 -8 92.5t-26.5 91t-48 83t-72.5 68t-99.5 45t-130.5 16.5q-73 0 -130 -16.5t-100 -45t-73 -68t-48.5 -83t-27 -91t-8.5 -92.5 v-337q64 126 161 199t235 89q23 3 42 -3.5t34 -18.5t24.5 -31t10.5 -40q2 -22 -4 -41t-19 -33.5t-30.5 -24.5t-39.5 -11q-111 -12 -189 -52.5t-128 -108.5t-73.5 -160t-23.5 -207v-47q0 -27 -9.5 -50t-26 -38.5t-38.5 -23.5t-47 -8t-46.5 8t-38 23.5t-26.5 37.5t-10 51z" />
<glyph unicode="&#xe29;" horiz-adv-x="1537" d="M146 603v796q0 27 10 49.5t26.5 38t39.5 24t47 8.5q26 0 48 -8.5t38.5 -24.5t26.5 -38q10 -21 10 -49v-824q0 -46 7 -94.5t25 -92t46.5 -83t70.5 -68t98 -45t130 -16.5q73 0 129.5 16.5t98 45t70 68t46.5 83t25 91.5t7 95v153h-314q-26 0 -47.5 9t-38 26.5t-25.5 39 t-9 46.5v95q0 26 9 46.5t25.5 36t39 24.5t46.5 9q26 0 47 -9t37.5 -24.5t26.5 -36t10 -46.5v-26h193v481q0 27 10 49.5t26.5 38t39 24t47.5 8.5q26 0 48 -8.5t38.5 -24.5t26.5 -38q9 -21 9 -49v-481h61q40 0 66.5 -27t26.5 -67t-26.5 -68t-66.5 -28h-61v-125 q0 -80 -11.5 -158.5t-38.5 -149t-73.5 -131t-115 -104.5t-164 -68.5t-218.5 -24.5q-125 0 -219.5 24.5t-164 68.5t-116 104.5t-73.5 131t-38.5 149t-11.5 158.5z" />
<glyph unicode="&#xe2a;" horiz-adv-x="1500" d="M103 385q0 111 37 193.5t99.5 141t145.5 95.5t173.5 58.5t184.5 29.5q94 9 178 9q54 0 102 -2q49 -2 90 -3v163q0 84 -30.5 135t-78 78t-107 35t-118.5 8q-68 0 -127.5 -11.5t-106 -36.5t-78.5 -67.5t-47 -103.5q-7 -26 -22 -45.5t-36.5 -31.5t-45.5 -15t-49 3 t-44.5 22.5t-31 37t-15 45t3.5 48.5q27 99 86.5 167.5t141 111.5t181.5 61.5t209 18.5q69 0 136.5 -8.5t132.5 -30.5v2q31 1 57 10t45 23t31.5 32t19.5 38q11 26 31 45t45 28.5t54 6.5t59 -23q21 -14 34 -35.5t15.5 -45t-3 -48t-21.5 -45.5q-25 -36 -67.5 -65.5 t-102.5 -43.5l-1 -1q43 -49 67 -116.5t24 -157.5v-993q0 -28 -9 -50t-25.5 -37.5t-39.5 -23.5t-47 -8q-26 0 -47.5 8t-38 23.5t-25.5 37t-9 50.5v600q-20 4 -74 7t-127 0q-57 -3 -120.5 -8.5t-126 -20t-119.5 -36t-100.5 -55t-68.5 -80t-25 -106.5q0 -70 26.5 -115.5t70 -72 t97 -36.5t109.5 -10q27 0 51 1q39 6 69 -17t34 -66q2 -20 -3 -38t-16 -32t-26 -24t-33 -13q-32 -6 -64 -9.5t-69 -3.5q-100 0 -190.5 22t-157.5 72.5t-107 129.5t-40 194z" />
<glyph unicode="&#xe2b;" horiz-adv-x="1502" d="M146 103v1296q0 27 10 49.5t26.5 38t39.5 24t47 8.5q26 0 48 -8.5t38.5 -24.5t26.5 -38q10 -21 10 -49v-484l801 581q18 14 41 19t46 2t43.5 -15t34.5 -31q15 -20 19 -40.5t0.5 -41t-16.5 -39.5t-31 -33l-196 -140q67 -32 110.5 -79.5t68.5 -110.5t35 -139.5t10 -162.5 v-582q0 -27 -10 -50t-26 -38.5t-38.5 -23.5t-47.5 -8q-26 0 -47.5 8t-38.5 23.5t-26.5 37.5t-9.5 51v611q0 64 -10 117t-32 93t-56.5 66.5t-84.5 40.5l-539 -390v-538q0 -27 -10 -50t-26.5 -38.5t-38.5 -23.5t-48 -8t-48 8t-38.5 23.5t-26.5 37.5t-10 51z" />
<glyph unicode="&#xe2c;" horiz-adv-x="1917" d="M87.5 1414q4.5 25 16.5 46t32 35.5t46 20.5q25 6 51 3t47.5 -15.5t36.5 -34.5t22 -52l192 -1135l255 836q9 27 25 53t38 44t48.5 29.5t56.5 11.5t57 -11.5t49.5 -29.5t38 -43t24.5 -54l247 -836l149 710q15 73 21 134t-3.5 106.5t-37.5 74.5t-78 39q-34 7 -57 27t-23 54 t24 55.5t56 26.5q92 13 155 51.5t94 109.5q13 32 36.5 54t51.5 30.5t59 2t58 -29.5q20 -17 31.5 -39.5t12.5 -48t-6.5 -49.5t-24.5 -44q-49 -56 -115.5 -86t-138.5 -40q46 -13 82 -44.5t55 -80t20.5 -113t-18.5 -142.5l-237 -930q-16 -60 -58 -93.5t-99 -33.5q-59 0 -101 34 t-60 93l-263 875l-274 -875q-17 -59 -59.5 -93t-100.5 -34t-101.5 33t-56.5 94l-274 1253q-6 26 -1.5 51z" />
<glyph unicode="&#xe2d;" horiz-adv-x="1478" d="M94 738q0 20 7.5 36.5t20 29.5t30 20t37.5 7h477q20 0 37.5 -7t29.5 -20t20 -30.5t8 -35.5q0 -20 -8 -37t-20 -29.5t-29.5 -19.5t-37.5 -7h-319q0 -106 29 -193t81 -149.5t125 -96t160 -33.5q95 0 169 38t126.5 111.5t80 180t27.5 243.5q0 141 -25 249t-76.5 181.5 t-127 111.5t-177.5 38q-65 0 -124 -15t-107 -44t-82 -69.5t-53 -90.5q-20 -55 -60.5 -77.5t-95.5 -9.5q-27 5 -45.5 21t-29 36.5t-12 45t8.5 48.5q33 85 87 152t128.5 115t170.5 73.5t214 25.5q180 0 305.5 -60.5t203.5 -167t113 -251.5q35 -146 35 -312q0 -104 -16 -202 t-49 -184.5t-85 -158.5t-124 -124.5t-166.5 -81t-213.5 -28.5t-213 28.5t-165.5 80t-123 123t-83 157.5t-47.5 183t-16 199z" />
<glyph unicode="&#xe2e;" horiz-adv-x="1478" d="M94 738q0 20 7.5 36.5t20 29.5t30 20t37.5 7h477q20 0 37.5 -7t29.5 -20t20 -30.5t8 -35.5q0 -20 -8 -37t-20 -29.5t-29.5 -19.5t-37.5 -7h-319q0 -106 29 -193t81 -149.5t125 -96t160 -33.5q95 0 169 38t126.5 111.5t80 180t27.5 243.5q0 141 -25 249t-76.5 181.5 t-127 111.5t-177.5 38q-65 0 -124 -15t-107 -44t-82 -69.5t-53 -90.5q-20 -55 -60.5 -77.5t-95.5 -9.5q-27 5 -45.5 21t-29 36.5t-12 45t8.5 48.5q33 85 87 152t128.5 115t170.5 73.5t214 25.5q76 0 142 -11.5t121 -32.5q29 3 51 12t39.5 23.5t29 31.5t18.5 36 q11 26 30.5 45t45 28.5t54 6.5t58.5 -23q22 -14 34 -35.5t15.5 -45t-2 -48t-21.5 -45.5q-26 -35 -65 -63.5t-96 -44.5q54 -54 92.5 -121t62 -147.5t36 -169.5t12.5 -187q0 -104 -16 -202t-49 -184.5t-85 -158.5t-124 -124.5t-166.5 -81t-213.5 -28.5t-213 28.5t-165.5 80 t-123 123t-83 157.5t-47.5 183t-16 199z" />
<glyph unicode="&#xe2f;" horiz-adv-x="1508" d="M113 1084q0 79 20.5 140.5t55 108t81.5 78.5t100 52t109 28.5t110 8.5h127q22 0 40.5 -8t33 -22t22 -32.5t7.5 -38.5q0 -22 -7.5 -40.5t-22 -32t-33 -22t-40.5 -8.5h-127q-116 0 -169.5 -53t-53.5 -163q0 -52 15 -101t52 -88.5t101 -64t161 -24.5q206 0 314 79.5 t108 253.5v264q0 27 10 49.5t26.5 38t38.5 24t48 8.5t48 -8.5t38.5 -24.5t25.5 -38q9 -21 9 -49v-1296q0 -27 -9 -50t-25.5 -38.5t-39.5 -23.5t-47 -8q-26 0 -48 8t-38.5 23.5t-26.5 37.5t-10 51v666q-32 -40 -77 -71.5t-98.5 -53t-115.5 -32.5t-128 -11q-147 0 -256.5 34 t-182.5 97t-110 152q-36 91 -36 200z" />
<glyph unicode="&#xe30;" horiz-adv-x="859" d="M146 373v93q0 24 10 45.5t25.5 37.5t37 25t44.5 9q24 0 45.5 -9t37.5 -25t25 -37.5t9 -45.5v-20h281q20 0 37.5 -7t30.5 -20t20 -31t7 -36q0 -20 -7 -37.5t-20 -30t-30.5 -20.5t-37.5 -8h-398q-24 0 -45 9.5t-36.5 25t-25.5 37t-10 45.5zM146 1117v93q0 24 10 45 t25.5 36.5t37 25.5t44.5 10q24 0 45.5 -10t37.5 -25.5t25 -37t9 -44.5v-20h281q20 0 37.5 -8t30.5 -21t20 -30t7 -37t-7 -37t-20 -30t-30.5 -20t-37.5 -7h-398q-24 0 -45 9t-36.5 25t-25.5 37.5t-10 45.5z" />
<glyph unicode="&#xe31;" d="M-901 1870v112q0 24 9.5 45t25 36.5t37 25.5t45.5 10q25 0 46.5 -10t37 -25.5t25 -37t9.5 -44.5v-39h652q20 0 37 -7t30 -20t21 -30.5t8 -37.5t-8 -37.5t-21 -29.5t-30 -20t-37 -8h-770q-24 0 -45.5 9.5t-37 25t-25 37t-9.5 45.5z" />
<glyph unicode="&#xe32;" horiz-adv-x="1205" d="M37 1158q-3 25 4 49q26 80 77.5 141t119 101t147.5 60.5t163 20.5q110 0 203.5 -30t163 -91t108 -154.5t38.5 -219.5v-932q0 -27 -10 -50t-26.5 -38.5t-38.5 -23.5t-48 -8t-47.5 8t-38.5 23.5t-26 37.5t-9 51v882q0 178 -68 259.5t-201 81.5q-100 0 -167.5 -46.5 t-91.5 -138.5q-7 -26 -23 -46t-37.5 -31.5t-46.5 -15t-50 3.5q-26 8 -46 23t-33 36.5t-16 46.5z" />
<glyph unicode="&#xe33;" horiz-adv-x="1205" d="M-552 1988q0 51 19.5 97.5t53.5 81t80 54.5t99 20q51 0 97 -20t80 -54.5t55 -81t21 -97.5q0 -53 -21 -99t-55 -80t-80 -53.5t-97 -19.5q-53 0 -99 19.5t-80 53.5t-53.5 80t-19.5 99zM-403 1988q0 -20 8.5 -39.5t22 -33t33 -22t39.5 -8.5t39 8.5t33 22t22.5 33t8.5 39.5 t-8.5 39t-22.5 33t-33 22.5t-39 8.5t-39.5 -8.5t-33 -22.5t-22 -33t-8.5 -39zM37 1158q-3 25 4 49q26 80 77.5 141t119 101t147.5 60.5t163 20.5q110 0 203.5 -30t163 -91t108 -154.5t38.5 -219.5v-932q0 -27 -10 -50t-26.5 -38.5t-38.5 -23.5t-48 -8t-47.5 8t-38.5 23.5 t-26 37.5t-9 51v882q0 178 -68 259.5t-201 81.5q-100 0 -167.5 -46.5t-91.5 -138.5q-7 -26 -23 -46t-37.5 -31.5t-46.5 -15t-50 3.5q-26 8 -46 23t-33 36.5t-16 46.5z" />
<glyph unicode="&#xe34;" d="M-1409 1846q0 20 8 37t21 30t30 20.5t37 7.5h1088q21 0 38 -7.5t30 -20.5t20.5 -30t7.5 -37q0 -40 -27.5 -66.5t-68.5 -26.5h-1088q-40 0 -68 26.5t-28 66.5z" />
<glyph unicode="&#xe35;" d="M-1409 1846q0 20 8 37t21 30t30 20.5t37 7.5h933v131q0 24 9 45.5t25 37.5t37.5 25t45.5 9t45 -9t36.5 -25t25.5 -37.5t10 -45.5v-226q0 -40 -28 -66.5t-68 -26.5h-1071q-40 0 -68 26.5t-28 66.5z" />
<glyph unicode="&#xe36;" d="M-1409 1846q0 20 8 37t21 30t30 20.5t37 7.5h731q-3 12 -3 26v24q0 48 18 92.5t50 76t75.5 50.5t94.5 19q48 0 91.5 -19t76 -50.5t50.5 -75.5q19 -45 19 -93q0 -49 -18.5 -92t-51 -76t-76 -51.5t-91.5 -18.5h-966q-40 0 -68 26.5t-28 66.5zM-443 1991q0 -19 7.5 -35.5 t20.5 -28.5t31 -19.5t37 -7.5q18 0 35 7.5t30 19.5t21 29q8 15 8 35t-8 37.5t-21 30.5t-30 20t-35 7q-19 0 -37 -7t-31 -20t-20.5 -30.5t-7.5 -37.5z" />
<glyph unicode="&#xe37;" d="M-1409 1846q0 20 8 37t21 30t30 20.5t37 7.5h544v131q0 24 9 45.5t25 37.5t36.5 25t44.5 9q25 0 45.5 -9t36.5 -25t25 -37.5t9 -45.5v-131h160v131q0 24 9.5 45.5t25.5 37.5t36.5 25t44.5 9q25 0 45.5 -9t36.5 -25t25 -37.5t9 -45.5v-226q0 -40 -28 -66.5t-68 -26.5 h-1071q-40 0 -68 26.5t-28 66.5z" />
<glyph unicode="&#xe38;" d="M-535 -287q0 18 7 34.5t19.5 28.5t29 19.5t34.5 7.5h208q18 0 34.5 -7.5t29.5 -19.5t20 -28.5t7 -34.5v-348q0 -26 -9 -47.5t-25 -36.5t-36.5 -23.5t-45.5 -8.5q-24 0 -44.5 8.5t-36.5 23.5t-25.5 36.5t-9.5 47.5v257h-67q-18 0 -34.5 7.5t-29 20.5t-19.5 28.5t-7 34.5z " />
<glyph unicode="&#xe39;" d="M-1070 -287q0 18 7.5 34.5t19.5 28.5t28.5 19.5t34.5 7.5h212q19 0 35.5 -7.5t28.5 -19.5t19 -28.5t7 -34.5v-91q0 -85 36.5 -128t113.5 -43q150 0 150 171v83q0 25 9.5 45.5t25.5 36.5t36.5 24.5t44.5 8.5q25 0 45.5 -8.5t36.5 -24.5t25 -36.5t9 -45.5v-83 q0 -72 -20 -136.5t-65 -112.5t-118 -76.5t-179 -28.5q-104 0 -177 25.5t-118.5 72t-67 112.5t-21.5 144h-68q-18 0 -34.5 7.5t-28.5 20.5t-19.5 28.5t-7.5 34.5z" />
<glyph unicode="&#xe3a;" d="M-450 -312q0 37 14 70t38.5 57.5t56.5 38.5t71 14q35 0 66.5 -14t56 -38.5t39 -57.5t14.5 -70q0 -35 -14.5 -67.5t-39 -56t-56 -38t-66.5 -14.5q-37 0 -70 14.5t-57.5 38t-38.5 56t-14 67.5z" />
<glyph unicode="&#xe3e;" />
<glyph unicode="&#xe3f;" horiz-adv-x="1701" d="M194 123v1501q0 26 9.5 48.5t26 38.5t39.5 26t48 10h435v173q0 32 22.5 54t53.5 22t52.5 -22t21.5 -54v-174q73 -3 144 -13.5t134 -32t116.5 -56t93 -84.5t62 -118t22.5 -158q0 -58 -16.5 -114t-50 -106t-81.5 -89q-48 -38 -113 -61q98 -26 166 -65.5t111 -93t62.5 -119 t19.5 -141.5q0 -99 -31 -188.5t-101 -157t-184.5 -108.5t-283.5 -41h-70v-183q0 -31 -21.5 -52.5t-52.5 -21.5t-54 22q-22 21 -22 52v183h-435q-25 0 -48 10t-39.5 26.5t-26 38.5t-9.5 48zM443 209h309v573h-309v-573zM443 985h309v551h-309v-551zM902 209h48 q87 0 155.5 16.5t116.5 52t73.5 89t25.5 128.5q0 141 -107 212t-312 75v-573zM902 987q100 5 163 34t99.5 70.5t50 92t13.5 100.5q0 66 -20 111.5t-60 76t-101.5 45.5t-144.5 17v-547z" />
<glyph unicode="&#xe40;" horiz-adv-x="610" d="M183 103v1296q0 27 10 49.5t26.5 38t38.5 24t48 8.5t47.5 -8.5t38.5 -24.5t26 -38q10 -21 10 -49v-1296q0 -27 -9.5 -50t-26.5 -38.5t-39.5 -23.5t-46.5 -8q-26 0 -48 8t-38.5 23.5t-26.5 37.5t-10 51z" />
<glyph unicode="&#xe41;" horiz-adv-x="1042" d="M146 103v1296q0 27 10 49.5t26.5 38t39.5 24t47 8.5q26 0 48 -8.5t38.5 -24.5t26.5 -38q10 -21 10 -49v-1296q0 -27 -10 -50t-26.5 -38.5t-38.5 -23.5t-48 -8t-48 8t-38.5 23.5t-26.5 37.5t-10 51zM652 103v1296q0 27 10 49.5t26.5 38t38.5 24t48 8.5t48 -8.5t38.5 -24.5 t26.5 -38q10 -21 10 -49v-1296q0 -27 -10 -50t-26.5 -38.5t-39.5 -23.5t-47 -8q-26 0 -48 8t-38.5 23.5t-26.5 37.5t-10 51z" />
<glyph unicode="&#xe42;" horiz-adv-x="716" d="M9 2065q0 21 8.5 40.5t22.5 34t33 23t41 8.5h617q20 0 37 -7.5t30.5 -21t21.5 -31t8 -38t-8 -38t-21.5 -30.5t-31.5 -21t-36 -8h-365q23 -17 41.5 -43.5t31.5 -57t19.5 -64.5t6.5 -65v-1559h81q20 0 36.5 -7.5t29.5 -20.5t21 -29.5t8 -36.5t-8 -36.5t-21 -29.5t-29.5 -20 t-36.5 -7h-229q-20 0 -37 7t-30 20t-20 29.5t-7 36.5v1646q0 46 -10.5 83t-30 65t-46.5 47t-59 31q-30 11 -49 38.5t-19 61.5z" />
<glyph unicode="&#xe43;" horiz-adv-x="716" d="M-64.5 1910q-4.5 22 1.5 45q16 73 54 126.5t89.5 88.5t113.5 53t128 18q70 0 135 -16t114.5 -50t79.5 -88.5t30 -131.5q0 -40 -11 -69.5t-31.5 -57.5t-50 -58t-65.5 -71q-23 -26 -34 -59t-17 -67t-6.5 -68t-0.5 -62v-1256h81q20 0 36.5 -7.5t29.5 -20.5t21 -29.5t8 -36.5 t-8 -36.5t-21 -29.5t-29.5 -20t-36.5 -7h-229q-20 0 -37 7t-30 20t-20 29.5t-7 36.5v1350q0 60 4.5 105t18 84.5t38.5 75t68 78.5l36 36t37 41.5t28.5 43t11.5 44.5q0 20 -6.5 38.5t-23 34t-44.5 25t-69 9.5q-70 0 -111 -41t-52 -114q-3 -23 -16.5 -41.5t-32 -29t-41.5 -15 t-46 1.5t-41.5 18.5t-30 31.5t-16 41z" />
<glyph unicode="&#xe44;" horiz-adv-x="716" d="M-140 2073.5q0 20.5 8 38t21.5 31t30.5 21t39 7.5h614q23 0 42.5 -8.5t34 -23t23 -34t8.5 -40.5q0 -34 -20 -61.5t-50 -38.5q-32 -12 -58.5 -31t-46.5 -47t-30.5 -65t-10.5 -83v-1552h81q20 0 36.5 -7.5t29.5 -20.5t21 -29.5t8 -36.5t-8 -36.5t-21 -29.5t-29.5 -20 t-36.5 -7h-229q-20 0 -37 7t-30 20t-20 29.5t-7 36.5v1653q0 31 7 65t19.5 64.5t31 57t41.5 43.5h-363q-20 0 -38 8t-31.5 21t-21.5 30.5t-8 38z" />
<glyph unicode="&#xe45;" horiz-adv-x="1205" d="M37 1158q-3 25 4 49q26 80 77.5 141t119 101t147.5 60.5t163 20.5q110 0 203.5 -30t163 -91t108 -154.5t38.5 -219.5v-1420q0 -27 -10 -49t-26.5 -38t-38.5 -24.5t-48 -8.5t-47.5 8.5t-38.5 23.5t-26 37.5t-9 50.5v1370q0 178 -68 259.5t-201 81.5q-100 0 -167.5 -46.5 t-91.5 -138.5q-7 -26 -23 -46t-37.5 -31.5t-46.5 -15t-50 3.5q-26 8 -46 23t-33 36.5t-16 46.5z" />
<glyph unicode="&#xe46;" horiz-adv-x="1419" d="M99 984q0 94 13.5 175.5t50 149t100 117.5t165.5 78q11 3 27.5 6.5t36 2.5t39.5 -9q21 -8 38 -27l123 -129l113 131q17 20 40 28.5t45 8.5t42 -4.5t35 -8.5q101 -29 159.5 -85.5t90 -132t41 -164.5t9.5 -183v-1323q0 -27 -10 -49t-26.5 -38t-38.5 -24.5t-48 -8.5t-48 8.5 t-38.5 23.5t-26.5 37.5t-10 50.5v1353q0 46 -2 100.5t-14.5 102t-38.5 82t-74 41.5l-171 -180q-13 -13 -30 -13.5t-32 13.5l-176 180q-45 -17 -74 -48.5t-45.5 -71.5t-21.5 -88t-2 -99q2 -35 8.5 -70t21.5 -62.5t41.5 -46.5t68.5 -19q52 -1 75.5 -32.5t20.5 -75.5 q-1 -27 -12.5 -47.5t-28.5 -32.5t-38.5 -18.5t-41.5 -6.5q-70 -1 -135 25.5t-114 78.5t-78 129q-29 78 -29 175z" />
<glyph unicode="&#xe47;" d="M-1193 2061q0 84 31.5 144t84 97t121 53.5t139.5 16.5h634q40 0 63 -25t23 -60q0 -36 -23.5 -61t-62.5 -25h-608q-61 0 -97 -14.5t-54 -36t-23 -45t-5 -44.5q0 -13 4 -31.5t15 -35t32.5 -28t57.5 -11.5q46 0 74 24t36 64q6 31 29.5 50t55.5 19q31 0 54.5 -20t29.5 -49 q9 -40 35 -64t72 -24q89 0 95 74q2 40 31 63t72 19q42 -3 63.5 -33t19.5 -75q-2 -60 -23.5 -103.5t-56.5 -72t-79.5 -42t-89.5 -13.5q-46 0 -84.5 15.5t-66.5 39t-45 53t-23 56.5q-3 -27 -23.5 -56.5t-53 -53t-73.5 -38.5q-43 -16 -86 -16q-83 0 -139.5 28.5t-91.5 71.5 t-49.5 94.5t-14.5 94.5z" />
<glyph unicode="&#xe48;" d="M-380 2438v197q0 26 9 47.5t25 37.5t37.5 24.5t45.5 8.5t45 -8.5t36.5 -24.5t25.5 -37.5t10 -47.5v-197q0 -26 -10 -47t-25.5 -37t-37 -24.5t-44.5 -8.5q-24 0 -45.5 8.5t-37.5 24.5t-25 37t-9 47z" />
<glyph unicode="&#xe49;" d="M-809 2656q0 18 7 34.5t20 28.5t28.5 19.5t35.5 7.5h170q19 0 34.5 -7.5t28.5 -19.5t20 -28.5t7 -34.5v-133q141 0 226 44t119 127q9 20 24 36t33.5 24.5t39.5 8.5q20 3 42 -6q20 -9 35 -23t23 -32.5t9 -39.5t-7 -42q-23 -59 -69 -109t-114.5 -88t-160 -59.5 t-207.5 -21.5h-107q-19 0 -35 7.5t-28.5 19t-19.5 28.5t-7 35v133h-56q-18 0 -34.5 7.5t-29.5 19.5t-20 28.5t-7 35.5z" />
<glyph unicode="&#xe4a;" d="M-845 2432q0 63 20.5 111t51.5 81t71 50t80 17q56 0 101 -27q43 -27 66 -73q23 42 69.5 71t108.5 29q34 0 64.5 -12t56.5 -35.5t44 -56.5t25 -76q14 12 27.5 30.5t26.5 41t23 50t16 54.5q4 21 16 36t28.5 24.5t36.5 11.5q19 4 39 -2t35 -18t24 -29t12 -36.5t-1 -39.5 q-13 -54 -39.5 -103t-62 -89t-78.5 -67t-89 -36h-96q-30 0 -52 18t-28 47q-3 17 -8.5 33.5t-12.5 29.5t-19.5 21.5t-27.5 8.5q-23 0 -37 -15t-15 -51q-1 -17 -7.5 -32t-18 -26.5t-26 -18t-31.5 -6.5t-32 6.5t-26 18t-18 26.5t-7 32q-1 11 -4 22.5t-10 21.5t-17 16t-25 6 q-27 0 -43.5 -24.5t-16.5 -68.5q0 -22 -10 -39t-25.5 -27t-35.5 -14.5t-40 -1.5q-40 6 -61.5 37t-21.5 73z" />
<glyph unicode="&#xe4b;" d="M-623 2620q0 37 25 62.5t65 25.5h153v98q0 25 9 46.5t25 37.5t37.5 24.5t45.5 8.5t45 -8.5t36.5 -24.5t25.5 -37.5t10 -46.5v-98h152q20 0 36.5 -7t28.5 -18.5t19 -28.5t7 -36q0 -37 -25.5 -62.5t-65.5 -25.5h-152v-98q0 -25 -10 -46.5t-25.5 -37.5t-37 -24.5t-44.5 -8.5 q-24 0 -45.5 8.5t-37.5 24.5t-25 37.5t-9 46.5v98h-153q-20 0 -36.5 7t-29 19t-18.5 28.5t-6 35.5z" />
<glyph unicode="&#xe4c;" d="M-563.5 2266.5q-2.5 22.5 2.5 48.5q13 60 49.5 108.5t89.5 84.5t120 56.5t146 22.5q42 1 69.5 -20.5t32.5 -61.5q1 -20 -4.5 -37.5t-17 -31.5t-27.5 -22.5t-34 -8.5q-88 -4 -141.5 -40.5t-66.5 -106.5q-2 -23 -16 -40t-32.5 -27t-41.5 -13t-45.5 1.5t-40.5 16.5t-29 30 t-13.5 40.5z" />
<glyph unicode="&#xe4d;" d="M-552 1988q0 51 19.5 97.5t53.5 81t80 54.5t99 20q51 0 97 -20t80 -54.5t55 -81t21 -97.5q0 -53 -21 -99t-55 -80t-80 -53.5t-97 -19.5q-53 0 -99 19.5t-80 53.5t-53.5 80t-19.5 99zM-403 1988q0 -20 8.5 -39.5t22 -33t33 -22t39.5 -8.5t39 8.5t33 22t22.5 33t8.5 39.5 t-8.5 39t-22.5 33t-33 22.5t-39 8.5t-39.5 -8.5t-33 -22.5t-22 -33t-8.5 -39z" />
<glyph unicode="&#xe4e;" d="M-635 1870q4 45 23.5 84t51.5 71.5t76 55.5t101 34q8 46 31 86.5t60 72t88.5 50t116.5 20.5q43 1 70.5 -19t33.5 -60q3 -20 -2 -38.5t-15.5 -32t-26.5 -23t-34 -10.5q-43 -3 -69 -14t-40 -31t-18.5 -50.5t-4.5 -70.5q0 -17 -11.5 -28.5t-40.5 -11.5q-44 0 -74 -8.5 t-50.5 -25t-32 -41t-14.5 -55.5q-3 -23 -16 -41.5t-31.5 -30t-40.5 -16t-45 -0.5q-52 12 -72 46q-20 36 -14 87z" />
<glyph unicode="&#xe4f;" horiz-adv-x="1811" d="M110 746q0 109 28 210t80 188t124.5 159.5t161 123t190 78.5t210 28t209 -28t187 -78.5t158 -123t123 -159.5t79.5 -187q27 -102 27 -211q0 -108 -27.5 -208t-79 -188t-123 -160.5t-158 -123t-187 -78.5t-208.5 -28q-110 0 -211 28t-189.5 78.5t-161 123t-124.5 160.5 t-80 188t-28 208zM315 755q0 -80 20.5 -156t58.5 -141.5t92.5 -119t119.5 -92.5t140 -60q75 -22 158 -22q80 0 154.5 21.5t138.5 60.5t118 92.5t91.5 119t58.5 140.5q21 77 21 157t-21 154.5t-58.5 139t-91.5 117t-118 91.5t-138.5 59t-154.5 20q-83 0 -158 -20t-140 -59 t-119.5 -91.5t-92.5 -117t-58.5 -139t-20.5 -154.5zM483 755q0 84 34 158.5t91 132t133.5 90t162.5 32.5q84 0 158.5 -32.5t130 -90t88.5 -132.5t33 -158q0 -87 -33 -163t-88.5 -133t-130.5 -89q-75 -33 -158 -33q-87 0 -163 32.5t-133 89.5t-91 133t-34 163zM662 755 q0 -51 18.5 -95.5t51 -77.5t76.5 -51.5t96 -18.5q48 0 90.5 18.5t74 51.5t49 77.5t17.5 95.5q0 49 -17.5 91t-49 73.5t-74 50t-90.5 18.5q-53 0 -96.5 -18.5t-76 -50t-51 -73.5t-18.5 -91z" />
<glyph unicode="&#xe50;" horiz-adv-x="1584" d="M113 692q0 142 47 257.5t135 198.5t214 128t286 45q159 0 284 -45t212.5 -128t133.5 -198.5t46 -257.5q0 -136 -23.5 -242.5t-67.5 -186.5t-105.5 -135t-137.5 -89.5t-162.5 -49.5t-179.5 -15t-180 16t-163 50t-138 89t-106.5 135.5t-69.5 186t-25 241.5zM347 641 q0 -102 32.5 -187t92 -147t141.5 -96.5t182 -34.5t181.5 34.5t139.5 96.5t89.5 147t31.5 187q0 130 -36 221.5t-96.5 148.5t-140.5 83t-169 26t-170.5 -26t-143 -83t-98 -148.5t-36.5 -221.5z" />
<glyph unicode="&#xe51;" horiz-adv-x="1573" d="M86 214.5q3 22.5 16 41.5q12 20 30 34.5t39.5 20t45 1t46.5 -21.5q49 -37 99.5 -60.5t104.5 -38.5t111.5 -21t120.5 -6q113 0 206 34.5t159.5 102t103 165t36.5 226.5q0 99 -24.5 180.5t-76.5 140t-133 90.5t-191 32q-90 0 -163.5 -23.5t-124.5 -62.5t-78.5 -89.5 t-27.5 -102.5q0 -45 14 -86.5t47.5 -72t90 -48.5t139.5 -14q45 2 72 -23t31 -65q3 -40 -21 -69t-67 -34q-70 -10 -140.5 -4.5t-133 27t-116.5 56.5t-93 81.5t-61.5 104.5t-22.5 125q0 87 26 158t71.5 125.5t107 93.5t134 64t151 37.5t158.5 12.5q145 0 270.5 -34.5 t219.5 -111t148 -196t54 -289.5q0 -160 -52 -292.5t-150 -226.5t-238 -146.5t-318 -52.5q-68 0 -139 2t-143 13.5t-143.5 36t-140.5 70.5q-20 13 -33 31.5t-18.5 40t-2.5 44z" />
<glyph unicode="&#xe52;" horiz-adv-x="1786" d="M3.5 1383q-0.5 20 6.5 40q7 21 21.5 37t33 26t40.5 12t45 -2q105 -25 162.5 -117.5t57.5 -250.5v-565q0 -78 35 -146t105.5 -118t174.5 -79.5t245 -29.5q132 0 226 27.5t152.5 72.5t85 104t26.5 122v382q0 49 -13 85.5t-35 62t-52 41.5t-64 23l-191 -172l-190 160 q-23 0 -48.5 -11.5t-46.5 -35t-34.5 -59t-13.5 -84.5v-113q-1 -44 -0.5 -86.5t12.5 -76t38 -54t75 -20.5h14q43 0 69.5 -28t26.5 -68t-26 -68t-70 -28h-40q-80 0 -136 21.5t-94 56.5t-59 79.5t-32 91t-14.5 92t-5.5 81.5v97q0 73 24 139.5t68 121.5t107 96q62 39 139 62 q10 3 25 6t33 1.5t38 -10t40 -25.5l101 -91l96 92q22 20 44 28.5t42 9.5t38 -3t29 -6q75 -18 138.5 -53.5t109 -85t70.5 -110.5q25 -59 25 -130v-366q0 -102 -23.5 -183.5t-67 -146t-103.5 -111.5t-133 -78t-156.5 -45t-171.5 -14h-127q-177 0 -316 43t-234 122t-144 191.5 t-49 249.5v491q0 91 -13 142t-55 68q-20 8 -33.5 22.5t-20 32.5t-7 38z" />
<glyph unicode="&#xe53;" horiz-adv-x="1613" d="M124 589v106q0 134 25 235.5t74.5 175.5t119.5 121t162 73q13 3 34.5 5.5t47.5 0t55 -15.5t57 -40l106 -97l117 98q22 19 44 33t48.5 21.5t56.5 6t70 -11.5q89 -24 154.5 -70.5t108.5 -109.5t64.5 -137.5t21.5 -154.5v-725q0 -27 -9.5 -49.5t-25.5 -38t-39 -24.5 q-20 -8 -46 -8t-48 8.5t-38.5 24t-26 38t-9.5 49.5v725q0 54 -17.5 102t-48.5 85t-69.5 58t-80.5 18q-25 -23 -54.5 -47t-59 -49t-58.5 -49.5t-55 -44.5l-212 190q-34 -3 -74 -22t-73.5 -63.5t-56.5 -119t-23 -187.5v-106q0 -45 2 -92.5t8 -91t18 -83t32 -68t50 -45 t73 -16.5q13 0 32.5 1.5t43.5 3.5q21 1 41 -4.5t35 -18.5t25 -31.5t12 -40.5q1 -21 -4.5 -40.5t-18.5 -35t-31 -25t-39 -12.5q-114 -14 -198 2.5t-142 56.5t-93.5 99.5t-55 130t-26 149.5t-6.5 157z" />
<glyph unicode="&#xe54;" horiz-adv-x="1613" d="M113 568v150q0 149 48.5 257.5t138 180t216 106t282.5 34.5h253q46 0 79 9t55 25.5t35 40t18 53.5q6 27 20.5 46.5t35 31.5t45.5 16t50 -4q25 -5 44.5 -19.5t31 -34t15.5 -45t-1 -52.5q-12 -56 -39 -106t-77 -87t-124.5 -59.5t-177.5 -22.5h-289q-96 0 -173 -22 t-131.5 -64t-83.5 -103t-29 -141v-180q0 -80 22 -148t67.5 -118t116.5 -79t171 -29h63q-20 18 -40.5 43.5t-35.5 57.5t-24.5 70t-9.5 83q0 17 2 45t12 58t29.5 61.5t51.5 57.5t80.5 44t116.5 25q41 3 74 -21t39 -69q5 -43 -20 -75t-70 -39q-35 -6 -52 -19.5t-24 -30.5 t-8 -35t-1 -28q0 -30 11.5 -58.5t30 -53.5t41.5 -46.5t47.5 -36.5t46 -24t36.5 -9h281q22 0 41.5 -7.5t32.5 -22t21 -33t8 -39.5q0 -22 -8 -40t-21 -32t-32.5 -22t-41.5 -8h-710q-116 0 -204.5 25t-154 67t-108.5 99.5t-69.5 120.5t-38 128.5t-11.5 127.5z" />
<glyph unicode="&#xe55;" horiz-adv-x="1613" d="M113 568v150q0 130 35 226t97 163t148.5 108t191.5 63q-6 12 -10 31t-4 38q0 52 19 98t52.5 80.5t78 54.5t96.5 20q54 0 100.5 -20t80 -54.5t53 -80.5t19.5 -98q0 -9 -1.5 -18t-3.5 -16q-1 -9 -4 -17q84 1 125.5 35.5t51.5 92.5q6 27 20.5 46.5t35 31.5t45.5 16t50 -4 q25 -5 44.5 -19.5t31 -34t15.5 -45t-1 -52.5q-12 -56 -39 -106t-77 -87t-124.5 -59.5t-177.5 -22.5h-273q-97 0 -176.5 -18.5t-136.5 -58t-88.5 -102t-31.5 -151.5v-180q0 -80 22 -148t67.5 -118t116.5 -79t171 -29h63q-20 18 -40.5 43.5t-35.5 57.5t-24.5 70t-9.5 83 q0 17 2 45t12 58t29.5 61.5t51.5 57.5t80.5 44t116.5 25q41 3 74 -21t39 -69q5 -43 -20 -75t-70 -39q-35 -6 -52 -19.5t-24 -30.5t-8 -35t-1 -28q0 -30 11.5 -58.5t30 -53.5t41.5 -46.5t47.5 -36.5t46 -24t36.5 -9h281q22 0 41.5 -7.5t32.5 -22t21 -33t8 -39.5q0 -22 -8 -40 t-21 -32t-32.5 -22t-41.5 -8h-710q-116 0 -204.5 25t-154 67t-108.5 99.5t-69.5 120.5t-38 128.5t-11.5 127.5zM725 1356q0 -42 24.5 -69t62.5 -27q45 0 70.5 26.5t25.5 69.5q0 44 -25.5 69t-70.5 25q-38 0 -62.5 -25t-24.5 -69z" />
<glyph unicode="&#xe56;" horiz-adv-x="1621" d="M96.5 1288.5q-3.5 21.5 1 41.5t16.5 38q13 19 32 31q20 11 41.5 14.5t41.5 -1.5t38 -18q19 -13 30 -33l102 -168q43 23 91 43.5t106 38.5t128.5 29.5t157.5 13.5q126 3 224 -18.5t171 -64t122.5 -101.5t80 -129t44 -149.5t13.5 -160.5v-94q0 -126 -43.5 -241t-131.5 -201 t-219 -134t-305 -42q-127 3 -233 35t-182 88.5t-118 135t-42 176.5q0 90 31 155.5t86 108t133.5 63t174.5 20.5h18q20 0 37.5 -8t31 -20.5t20.5 -30.5q7 -17 7 -37t-7 -38t-20.5 -30.5t-31 -20t-37.5 -7.5h-7q-58 0 -96 -12t-60 -33.5t-30 -52t-8 -69.5q0 -46 25 -85 t70.5 -68.5t110 -47.5t141.5 -18q85 -1 165 24.5t140.5 77t98 129t37.5 180.5v90q0 110 -27.5 190t-79.5 131.5t-125.5 76t-168.5 24.5q-126 -2 -244.5 -36t-241.5 -107q-11 -7 -27.5 -16t-35 -11t-39.5 9.5t-41 45.5l-151 252q-12 20 -15.5 41.5z" />
<glyph unicode="&#xe57;" horiz-adv-x="1903" d="M146 589v96q0 253 98.5 403t281.5 203q13 3 33 7.5t44.5 1t52.5 -18t55 -44.5l77 -84l83 85q28 29 54.5 42t49 16.5t40.5 0.5q17 -4 30 -7q105 -29 173.5 -84.5t109.5 -133t58 -173t17 -204.5v-106q-2 -43 -4.5 -96t-10 -104.5t-19.5 -96.5t-33 -72q54 16 93.5 58 t64.5 99.5t36.5 125.5t11.5 135v500q0 158 57 250.5t161 115.5q23 6 45.5 3t41 -12t32.5 -25t21 -37q6 -20 6 -40t-6.5 -38t-20 -32.5t-33.5 -22.5q-41 -17 -54 -68t-13 -142v-428q0 -137 -32 -254.5t-101.5 -206.5t-175.5 -145t-253 -69q-32 -3 -59.5 7t-47.5 30t-30 46.5 t-10 56.5q0 45 23 80q28 45 44 88.5t23.5 90t9 95t1.5 101.5v113q0 94 -15.5 163.5t-43 116.5t-63 72t-75.5 33l-186 -191l-180 195q-35 -1 -73.5 -23.5t-71.5 -70.5t-54 -122t-21 -180v-95q0 -45 1 -93t7.5 -92.5t18 -83.5t31.5 -68t51 -44.5t74 -14.5q5 0 9.5 1t9.5 1 t11.5 1.5t19.5 1.5q21 1 41 -4.5t35 -18.5t25 -31.5t12 -40.5q1 -21 -4.5 -41t-18.5 -35t-31.5 -24.5t-38.5 -12.5q-106 -11 -184 6t-132.5 57t-89.5 98.5t-55 129t-27 148.5t-7 156z" />
<glyph unicode="&#xe58;" horiz-adv-x="1610" d="M143 475v246q0 134 40 241.5t118 182.5t195 115q119 40 273 40h326q46 0 79 8t56 23.5t35.5 39t18.5 53.5q6 27 19.5 46.5t35 31.5t45.5 16q23 4 49 -4q26 -5 45 -19.5t31.5 -34t16 -45t-1.5 -52.5q-11 -56 -39 -106t-78 -89.5t-123.5 -61.5t-176.5 -22h-365 q-94 0 -162 -28t-111 -72t-63.5 -102t-20.5 -121v-286q0 -53 19 -99.5t50 -83t68 -58.5q39 -22 76 -25q51 46 109.5 96t109.5 97l234 -193q42 1 77 14t60.5 42.5t41.5 78t16 121.5q0 31 -4 64.5t-16.5 61t-38.5 45.5t-70.5 18t-70 27.5t-25.5 67.5q0 20 8 37.5t20 30 t30 20.5t38 8q80 3 138.5 -12t99.5 -43.5t66 -66.5t39 -81t18.5 -88.5t4.5 -88.5q0 -196 -76 -315.5t-242 -153.5q-17 -3 -42.5 -6t-55 0t-60 13t-57.5 31l-133 112l-125 -112q-23 -20 -46 -29t-44 -12.5t-40 -1.5t-30 5q-96 21 -169 67t-122 109t-73.5 140t-24.5 163z" />
<glyph unicode="&#xe59;" horiz-adv-x="1580" d="M120 589v99q0 156 24.5 273t78.5 197t144.5 120t221.5 40q26 0 54.5 -0.5t58 -2.5t56.5 -7t47 -15q39 -20 68 -48.5t57 -73.5l125 125q6 5 18 13.5t30 8.5h55q50 0 85 5t59 17.5t36.5 33t18.5 50.5q6 27 19.5 46.5t33 31t43.5 15t50 -2.5q27 -5 46.5 -19t30 -34 t13.5 -45.5t-3 -52.5q-13 -56 -38 -102.5t-72 -80t-118.5 -52t-174.5 -18.5q-26 0 -37.5 -7.5t-21.5 -18.5l-86 -89l404 -853q23 -49 6.5 -90t-62.5 -58t-88 -5t-64 55l-400 857q-50 101 -109.5 155t-143.5 54q-49 0 -89 -19.5t-69 -66.5t-46.5 -126.5t-17.5 -198.5v-106 q0 -45 2.5 -93t10 -92.5t20.5 -83.5t34.5 -68t53 -44.5t75.5 -14.5q6 0 10 1t8.5 1t11 1.5t19.5 1.5q44 2 75 -24t33 -71q2 -21 -4 -41t-18.5 -35t-30.5 -24.5t-40 -12.5q-105 -11 -184 6t-134.5 57t-91.5 98.5t-56 129t-28.5 148.5t-8.5 156z" />
<glyph unicode="&#xe5a;" horiz-adv-x="2016" d="M113 1084q0 79 20.5 140.5t55 108t81.5 78.5t100 52t109 28.5t110 8.5h127q22 0 40.5 -8t33 -22t22 -32.5t7.5 -38.5q0 -22 -7.5 -40.5t-22 -32t-33 -22t-40.5 -8.5h-127q-116 0 -169.5 -53t-53.5 -163q0 -52 15 -101t52 -88.5t101 -64t161 -24.5q206 0 314 79.5 t108 253.5v264q0 27 10 49.5t26.5 38t38.5 24t48 8.5t48 -8.5t38.5 -24.5t25.5 -38q9 -21 9 -49v-1296q0 -27 -9 -50t-25.5 -38.5t-39.5 -23.5t-47 -8q-26 0 -48 8t-38.5 23.5t-26.5 37.5t-10 51v666q-32 -40 -77 -71.5t-98.5 -53t-115.5 -32.5t-128 -11q-147 0 -256.5 34 t-182.5 97t-110 152q-36 91 -36 200zM1626 103v1296q0 27 10 49.5t26.5 38t38.5 23.5q21 9 46 9q26 0 48.5 -8.5t38.5 -24.5t26 -38q10 -21 10 -49v-1296q0 -27 -10 -50t-26 -38.5t-38.5 -23.5t-48.5 -8q-25 0 -46.5 8t-38 23.5t-26.5 37.5t-10 51z" />
<glyph unicode="&#xe5b;" horiz-adv-x="3173" d="M132 775q0 83 19 168t56.5 164.5t91.5 149.5t125 121.5t158 81.5t190 30q126 0 222 -38t163 -101t105 -145t48 -172q3 -23 -3.5 -45t-19.5 -39.5t-32 -29t-42 -13.5q-23 -3 -45.5 2.5t-40 19t-29 33t-14.5 42.5q-17 120 -90 182t-192 70q-100 0 -178.5 -39.5t-132 -107 t-82.5 -158t-29 -193.5q0 -99 36.5 -190.5t102.5 -161t158 -111.5t205 -42q105 0 188 31t147 86t110 130.5t76 166.5t45.5 192.5t18.5 210.5q0 27 10 50t27.5 40t41 27.5t50.5 10.5q30 0 54.5 -12.5t42.5 -32.5q33 -40 63 -81.5t58 -81.5t50 -77.5t39 -67.5 q29 46 65.5 102.5t77.5 116.5q15 21 35.5 33.5t42.5 13t44.5 -10t39.5 -33.5q40 -60 73.5 -119t57.5 -103l136 183h501q24 0 45.5 -9t38 -25t26 -38t9.5 -47q0 -24 -9.5 -45.5t-26 -38t-38 -25.5t-45.5 -9h-432q-34 -52 -69 -103.5t-70 -108.5q-11 -23 -29 -35t-37.5 -12 t-38 12t-31.5 38q-34 66 -69 126t-69 109q-39 -51 -79.5 -121.5t-83.5 -164.5q-13 -23 -31 -34.5t-36.5 -10t-36.5 13.5t-28 32q-43 97 -87 171.5t-87 134.5q-7 -117 -38.5 -224.5t-83 -199.5t-122.5 -166.5t-157 -126.5t-183.5 -81t-206.5 -29q-119 0 -220.5 31 t-183.5 84.5t-144.5 127t-105.5 159t-64 178.5t-21 184z" />
<glyph unicode="&#x2000;" horiz-adv-x="1461" />
<glyph unicode="&#x2001;" horiz-adv-x="2923" />
<glyph unicode="&#x2002;" horiz-adv-x="1461" />
<glyph unicode="&#x2003;" horiz-adv-x="2923" />
<glyph unicode="&#x2004;" horiz-adv-x="974" />
<glyph unicode="&#x2005;" horiz-adv-x="730" />
<glyph unicode="&#x2006;" horiz-adv-x="487" />
<glyph unicode="&#x2007;" horiz-adv-x="487" />
<glyph unicode="&#x2008;" horiz-adv-x="365" />
<glyph unicode="&#x2009;" horiz-adv-x="584" />
<glyph unicode="&#x200a;" horiz-adv-x="162" />
<glyph unicode="&#x200b;" />
<glyph unicode="&#x2010;" horiz-adv-x="1148" d="M102 671q0 20 7 37.5t20 31.5t30.5 21.5t37.5 7.5h757q20 0 38 -7.5t30.5 -21.5t20 -31.5t7.5 -37.5t-7.5 -37.5t-20 -31t-30.5 -20.5t-38 -7h-757q-20 0 -37.5 7t-30.5 20.5t-20 31t-7 37.5z" />
<glyph unicode="&#x2011;" horiz-adv-x="1148" d="M102 671q0 20 7 37.5t20 31.5t30.5 21.5t37.5 7.5h757q20 0 38 -7.5t30.5 -21.5t20 -31.5t7.5 -37.5t-7.5 -37.5t-20 -31t-30.5 -20.5t-38 -7h-757q-20 0 -37.5 7t-30.5 20.5t-20 31t-7 37.5z" />
<glyph unicode="&#x2012;" horiz-adv-x="1148" d="M102 671q0 20 7 37.5t20 31.5t30.5 21.5t37.5 7.5h757q20 0 38 -7.5t30.5 -21.5t20 -31.5t7.5 -37.5t-7.5 -37.5t-20 -31t-30.5 -20.5t-38 -7h-757q-20 0 -37.5 7t-30.5 20.5t-20 31t-7 37.5z" />
<glyph unicode="&#x2013;" horiz-adv-x="1255" d="M9 696q0 20 8.5 39t21 32.5t30.5 21.5t40 8h1038q20 0 38 -8t31.5 -21.5t21.5 -32.5t8 -39t-8 -37.5t-21.5 -31.5t-31.5 -21.5t-38 -7.5h-1038q-20 0 -39 7.5t-31.5 21.5t-21 31t-8.5 38z" />
<glyph unicode="&#x2014;" horiz-adv-x="2481" d="M17 696q0 20 8.5 39t21.5 32.5t31.5 21.5t38.5 8h2248q20 0 38 -8t31.5 -21.5t21.5 -32.5t8 -39t-8 -37.5t-21.5 -31.5t-31.5 -21.5t-38 -7.5h-2248q-20 0 -38.5 7.5t-31.5 21.5t-21.5 31t-8.5 38z" />
<glyph unicode="&#x2018;" horiz-adv-x="687" d="M166 1376q0 91 23 168.5t80 145.5q18 23 42 43t49 36t50 24.5t48 8.5q25 0 37.5 -13t15.5 -30q4 -23 -13.5 -41t-45.5 -36q-26 -16 -51.5 -36t-46.5 -50t-34 -72.5t-14 -99.5q20 13 40 15t34 2q33 0 59 -12t43.5 -32.5t27 -48t9.5 -57.5q0 -33 -12 -62t-34.5 -51.5 t-51.5 -34.5t-62 -12q-49 0 -85.5 18t-60.5 51t-35.5 78t-11.5 98z" />
<glyph unicode="&#x2019;" horiz-adv-x="687" d="M169 1642q0 33 12.5 62t34 50.5t51.5 34.5t63 13q49 0 85.5 -18.5t60 -51.5t35.5 -77.5t12 -97.5q0 -91 -23.5 -169t-80.5 -147q-19 -23 -41.5 -43t-48.5 -35t-51 -23.5t-48 -8.5q-26 0 -38 13t-15 30q-4 23 13 41t47 35q26 16 51 36.5t46 50.5t33.5 71.5t15.5 98.5 q-20 -13 -40.5 -15t-33.5 -2q-33 0 -59.5 13t-44.5 33.5t-27 48t-9 57.5z" />
<glyph unicode="&#x201c;" horiz-adv-x="1058" d="M124 1376q0 91 23 168.5t80 145.5q19 23 42.5 43t48.5 36t51 24.5t47 8.5q26 0 38 -13t15 -30q4 -23 -12.5 -41t-46.5 -36q-25 -16 -51 -36t-46.5 -50t-33.5 -72.5t-14 -99.5q20 13 40.5 15t33.5 2q33 0 58.5 -12t43.5 -32.5t27.5 -48t9.5 -57.5q0 -33 -12.5 -62 t-34.5 -51.5t-51.5 -34.5t-62.5 -12q-48 0 -84.5 18t-61 51t-36 78t-11.5 98zM571 1376q0 91 22.5 168.5t80.5 145.5q18 23 41.5 43t48.5 36t51 24.5t47 8.5q26 0 38 -13t15 -30q4 -23 -13 -41t-45 -36q-26 -16 -52 -36t-46.5 -50t-33.5 -72.5t-14 -99.5q20 13 40 15t34 2 q33 0 58.5 -12t43.5 -32.5t27.5 -48t9.5 -57.5q0 -33 -12.5 -62t-34.5 -51.5t-51 -34.5t-62 -12q-49 0 -85.5 18t-61 51t-35.5 78t-11 98z" />
<glyph unicode="&#x201d;" horiz-adv-x="1058" d="M134 1642q0 33 12.5 62t34.5 50.5t51.5 34.5t62.5 13q48 0 84.5 -18.5t61 -51.5t36 -77.5t11.5 -97.5q0 -91 -23 -169t-80 -147q-19 -23 -42.5 -43t-48.5 -35t-51 -23.5t-47 -8.5q-26 0 -38 13t-15 30q-4 23 13 41t46 35q25 16 51 36.5t46.5 50.5t33.5 71.5t14 98.5 q-20 -13 -40 -15t-34 -2q-33 0 -58.5 13t-43.5 33.5t-27.5 48t-9.5 57.5zM581 1642q0 33 12 62t34 50.5t51.5 34.5t62.5 13q48 0 84.5 -18.5t61 -51.5t36 -77.5t11.5 -97.5q0 -91 -23 -169t-80 -147q-19 -23 -42.5 -43t-48.5 -35t-50.5 -23.5t-47.5 -8.5q-26 0 -38 13 t-15 30q-4 23 12.5 41t46.5 35q26 16 51.5 36.5t46 50.5t33.5 71.5t15 98.5q-20 -13 -41 -15t-34 -2q-33 0 -58.5 13t-43.5 33.5t-27 48t-9 57.5z" />
<glyph unicode="&#x2022;" horiz-adv-x="900" d="M66 769q0 72 30 137t82 115t121.5 80t146.5 30q80 0 151 -30t124 -80t83.5 -115t30.5 -137q0 -77 -30.5 -145t-83.5 -118t-124 -78.5t-151 -28.5q-78 0 -147 28.5t-121 78.5t-82 118t-30 145z" />
<glyph unicode="&#x202f;" horiz-adv-x="584" />
<glyph unicode="&#x205f;" horiz-adv-x="730" />
<glyph unicode="&#x20ac;" horiz-adv-x="1920" d="M49 735q0 23 16.5 40t41.5 17h145q-2 17 -2.5 36t-0.5 39q0 58 6 115h-148q-27 0 -42.5 18t-15.5 41q0 26 16.5 41.5t41.5 15.5h163q29 150 95.5 277.5t169.5 219t241 143.5t312 52q123 0 229.5 -28.5t194 -83.5t151.5 -136.5t102 -188.5q8 -23 6 -46.5t-13 -44.5 t-29.5 -36.5t-42.5 -22.5q-24 -9 -48.5 -7t-45 12t-37 29t-23.5 41q-49 153 -163.5 228.5t-284.5 75.5q-122 0 -216 -38t-164.5 -103t-116 -154t-66.5 -189h554q25 0 42.5 -15.5t17.5 -41.5q0 -24 -17 -41.5t-43 -17.5h-573q-3 -24 -3.5 -48.5t-0.5 -48.5q0 -23 0.5 -46.5 t3.5 -46.5h573q28 0 44 -18t16 -39t-16 -39q-18 -18 -44 -18h-559q20 -110 65 -203t116 -161t167.5 -106.5t223.5 -38.5q103 0 183 30.5t139 86.5t95.5 133t51.5 169q5 24 19 44t33.5 32t43.5 17t49 0q25 -6 44.5 -19t32.5 -31.5t18 -42t1 -47.5q-29 -139 -88.5 -246.5 t-149.5 -181t-213 -111.5t-277 -38q-181 0 -321 53t-240 148t-162 226t-84 287h-156q-27 0 -42.5 17t-15.5 40z" />
<glyph unicode="&#x2122;" horiz-adv-x="2280" d="M230 1682q0 11 4.5 22t13 21t21.5 16t30 6h512q18 0 31 -6t21 -15.5t12 -21.5t4 -22q0 -12 -4 -24t-12 -21.5t-21 -16t-31 -6.5h-166v-657q0 -30 -11 -49.5t-24.5 -30t-28.5 -15t-25 -4.5t-25.5 4.5t-30 15t-24.5 30t-10 49.5v657h-167q-17 0 -30 6.5t-21.5 16.5 t-13 21.5t-4.5 23.5zM1015 957v653q0 45 13.5 74t34.5 45.5t45.5 23.5t45.5 7q67 0 117 -33.5t75 -103.5l168 -492l171 493q22 69 72.5 102.5t117.5 33.5q21 0 44.5 -7t45 -23.5t35 -45.5t13.5 -74v-653q0 -30 -10 -49.5t-23.5 -30t-29 -15t-28.5 -4.5t-28 4.5t-28.5 15 t-23 30t-9.5 49.5v622l-38 -112l-188 -522q-15 -40 -39.5 -63.5t-53 -23.5t-53 23t-40.5 64l-187 522l-39 112v-622q0 -30 -10 -49.5t-23.5 -30t-29 -15t-27.5 -4.5t-28 4.5t-29.5 15t-23 30t-9.5 49.5z" />
<glyph unicode="&#x25cc;" horiz-adv-x="1668" d="M388 721l143 70q-6 -33 -7 -68t7 -71zM509 406l59 143q20 -30 42 -55t52 -44zM535 1035l146 -50q-39 -20 -66 -42t-44 -51zM761 1021l74 143l66 -139q-37 9 -74.5 7t-65.5 -11zM769 406q33 -8 61 -7.5t68 11.5l-63 -140zM1000 988l160 47l-62 -146q-20 30 -45.5 55.5 t-52.5 43.5zM1002 446q30 19 53 42t43 50l40 -135zM1143 655q11 30 11 63t-9 70l136 -70z" />
<glyph unicode="&#x25fc;" horiz-adv-x="1317" d="M0 0v1318h1318v-1318h-1318z" />
<glyph unicode="&#xf700;" horiz-adv-x="1398" d="M128.5 1186.5q1.5 26.5 14.5 49.5q34 67 89 121t126.5 93t161 59.5t194.5 20.5q61 0 124 -8.5t123 -28.5q61 4 95.5 34t48.5 69q12 26 32 45t45 28.5t53.5 6.5t58.5 -23q22 -14 34.5 -35.5t15.5 -45t-2.5 -48t-21.5 -45.5q-26 -36 -66 -63t-96 -43q56 -60 89 -147.5 t31 -211.5q-1 -89 -25.5 -191t-61.5 -212.5t-85 -225.5t-99 -226q-17 -40 -38.5 -72.5t-50.5 -56t-64 -36.5q-36 -13 -79 -13t-78.5 14t-65 37.5t-51 56.5t-34.5 71l-183 532h-120q-40 0 -66.5 26.5t-26.5 66.5q0 20 7 36.5t19.5 29.5t29.5 20t37 7h242q31 0 54.5 -17 t33.5 -44l199 -601q23 54 50 118.5t53.5 133t52.5 139.5t45 139t31.5 130t13.5 116q3 166 -80.5 250t-252.5 84q-117 0 -194.5 -51t-114.5 -148q-10 -26 -29.5 -44.5t-43.5 -27t-52 -7t-54 12.5q-24 11 -40.5 31.5t-23 44t-5 50z" />
<glyph unicode="&#xf701;" d="M-1563 1846q0 20 8 37t20.5 30t30 20.5t37.5 7.5h789q20 0 37.5 -7.5t30 -20.5t20 -30t7.5 -37q0 -40 -27.5 -66.5t-67.5 -26.5h-789q-40 0 -68 26.5t-28 66.5z" />
<glyph unicode="&#xf702;" d="M-1563 1846q0 20 8 37t20.5 30t30 20.5t37.5 7.5h632v131q0 24 9 45.5t25 37.5t37.5 25t45.5 9t45.5 -9t37.5 -25t25 -37.5t9 -45.5v-226q0 -40 -27.5 -66.5t-67.5 -26.5h-771q-40 0 -68 26.5t-28 66.5z" />
<glyph unicode="&#xf703;" d="M-1563 1846q0 20 8 37t20.5 30t30 20.5t37.5 7.5h420q-3 12 -3 26q-1 12 -1 24q0 48 18.5 92.5t50.5 76t76 50.5t94 19q48 0 91 -19t74.5 -50.5t50.5 -75.5q18 -45 18 -93q0 -49 -18.5 -92t-50 -76t-74.5 -51.5t-91 -18.5h-655q-40 0 -68 26.5t-28 66.5zM-908 1991 q0 -39 26.5 -65t69.5 -26q38 0 64.5 26.5t26.5 64.5q0 41 -26.5 68t-64.5 27q-42 0 -69 -27t-27 -68z" />
<glyph unicode="&#xf704;" d="M-1563 1846q0 20 8 37t20.5 30t30 20.5t37.5 7.5h244v131q0 24 9.5 45.5t24.5 37.5t36.5 25t45.5 9t45 -9t36.5 -25t24.5 -37.5t9 -45.5v-131h161v131q0 24 8.5 45.5t24.5 37.5t36.5 25t45.5 9q24 0 45.5 -9t37 -25t24 -37.5t8.5 -45.5v-226q0 -40 -27.5 -66.5 t-67.5 -26.5h-771q-40 0 -68 26.5t-28 66.5z" />
<glyph unicode="&#xf705;" d="M-835 1849v280q0 27 9 48.5t25 36.5t37.5 24t45.5 9t45.5 -9t37.5 -24t25 -36.5t9 -48.5v-280q0 -27 -9 -48.5t-25 -36.5t-37.5 -23.5t-45.5 -8.5t-45.5 8.5t-37.5 23.5t-25 36.5t-9 48.5z" />
<glyph unicode="&#xf706;" d="M-1380 2066q0 19 7 35.5t19.5 28.5t29 19t34.5 7h172q18 0 34 -7t29 -19t20 -28.5t7 -35.5v-133q140 0 225 44.5t119 127.5q9 20 23.5 35.5t33 24.5t40 9.5t42.5 -6.5q20 -9 35 -23t23 -32.5t8.5 -39.5t-6.5 -42q-23 -59 -68.5 -109t-115 -88t-161 -59.5t-205.5 -21.5 h-108q-18 0 -34.5 7t-28.5 18.5t-19.5 29t-7.5 35.5v133h-57q-18 0 -34.5 7.5t-29 19.5t-19.5 28.5t-7 34.5z" />
<glyph unicode="&#xf707;" d="M-1434 1849q0 61 19 109t49 81t69 49.5t77 16.5q27 0 51.5 -7t46 -21t38 -31.5t27.5 -40.5q12 20 28.5 38.5t38.5 32t47.5 21.5t55.5 8q33 0 63 -11.5t54.5 -35t42.5 -56.5q18 -31 25 -74q27 23 52 70t37 103q2 21 14.5 37t28 24.5t35 11t37.5 -2.5q20 -6 34.5 -18 t24 -28.5t12 -36.5t-1.5 -40q-13 -53 -38 -102.5t-60 -88.5t-77 -66.5t-85 -35.5h-92q-28 0 -50.5 17.5t-27.5 46.5q-3 17 -7.5 33.5t-11.5 29.5t-18 20.5t-26 7.5q-23 0 -38 -17t-17 -41q-3 -34 -24 -58t-56 -24q-31 0 -52.5 24t-24.5 58q-1 26 -14 42t-40 16 q-23 0 -41 -23.5t-18 -68.5q0 -22 -10 -38.5t-25.5 -26.5t-34.5 -14t-37 -2q-40 6 -60 36t-20 76z" />
<glyph unicode="&#xf708;" d="M-1257 2033q0 38 25 63.5t65 25.5h153v97q0 26 9.5 47.5t25 37t37 24.5t44.5 9q24 0 45.5 -9t37.5 -24.5t25 -37t9 -47.5v-97h153q20 0 36.5 -7t28.5 -18.5t18.5 -28.5t6.5 -36q0 -37 -25 -63t-65 -26h-153v-97q0 -26 -9 -47.5t-25 -37t-37 -24.5q-23 -8 -46 -8 q-24 0 -45 8.5t-36.5 24t-25 37t-9.5 47.5v97h-153q-20 0 -36.5 7.5t-28.5 19.5t-18.5 28.5t-6.5 34.5z" />
<glyph unicode="&#xf709;" d="M-1091 1826q-3 23 3 49q13 60 49.5 109t89 85t120.5 56t145 23q42 1 70 -21t32 -61q1 -20 -4.5 -37.5t-16 -31.5t-27 -22.5t-35.5 -9.5q-87 -4 -140.5 -40.5t-65.5 -106.5q-3 -23 -17 -39.5t-33 -26.5t-41.5 -13.5t-44.5 0.5q-23 4 -41.5 16t-29 30t-13.5 41z" />
<glyph unicode="&#xf70a;" d="M-380 1849v280q0 27 9 48.5t25 36.5t37.5 24t45.5 9t45 -9t36.5 -24t25.5 -36.5t10 -48.5v-280q0 -27 -10 -48.5t-25.5 -36.5t-37 -23.5t-44.5 -8.5q-24 0 -45.5 8.5t-37.5 23.5t-25 36.5t-9 48.5z" />
<glyph unicode="&#xf70b;" d="M-971 2071q0 18 7 34.5t20 28.5t29 19.5t34 7.5h172q18 0 34 -7.5t29 -19.5t20 -28q7 -15 7 -35v-135q140 0 225 44.5t119 127.5q9 20 23.5 36.5t33.5 24t40 9t42 -6.5q20 -9 35 -23t23 -32t8.5 -39t-6.5 -44q-23 -58 -68.5 -108t-114 -87.5t-161 -59t-206.5 -21.5h-108 q-18 0 -34.5 6.5t-28.5 19t-19.5 29t-7.5 34.5v135h-57q-18 0 -34 6t-29 18.5t-20 29t-7 36.5z" />
<glyph unicode="&#xf70c;" d="M-1104 1849q0 61 19.5 109t50 81t68.5 49.5t77 16.5q27 0 51 -7t45.5 -21t38 -31.5t28.5 -40.5q11 20 27.5 38.5t38.5 32t48.5 21.5t55.5 8q33 0 63 -11.5t55 -35t42 -56.5q17 -31 24 -74q27 23 52 70t37 103q3 21 15 37t28.5 24.5t35 11t37.5 -2.5q20 -6 35 -18 t23.5 -28.5t11.5 -36.5t-2 -40q-13 -53 -38 -102.5t-60 -88.5t-77 -66.5t-85 -35.5h-91q-29 0 -51 17.5t-27 46.5q-3 17 -8 33.5t-12 29.5t-17 20.5t-27 7.5q-23 0 -38 -17t-16 -41q-3 -34 -24.5 -58t-55.5 -24q-32 0 -53.5 24t-24.5 58q-1 26 -14 42t-40 16 q-23 0 -41 -23.5t-18 -68.5q0 -22 -9 -38.5t-25 -26.5t-34.5 -14t-38.5 -2q-40 6 -60 36t-20 76z" />
<glyph unicode="&#xf70d;" d="M-623 2031q0 37 25 62.5t65 25.5h153v97q0 26 9 47.5t25 37.5t37.5 24.5t45.5 8.5t45 -8.5t36.5 -24.5t25.5 -37.5t10 -47.5v-97h152q20 0 36.5 -7t28.5 -18.5t19 -28.5t7 -36q0 -37 -25.5 -62.5t-65.5 -25.5h-152v-98q0 -25 -10 -46.5t-25.5 -37.5t-37 -24t-44.5 -8 q-24 0 -45.5 8t-37.5 24t-25 37.5t-9 46.5v98h-153q-20 0 -36.5 7t-29 19t-18.5 28.5t-6 35.5z" />
<glyph unicode="&#xf70e;" d="M-563.5 1826q-2.5 23 2.5 49q13 60 49 109t89 85t120.5 56t145.5 23q41 1 69 -21t32 -61q2 -20 -4 -37.5t-16.5 -31.5t-27 -22.5t-35.5 -9.5q-87 -4 -140.5 -40.5t-65.5 -106.5q-2 -23 -16 -39.5t-33 -26.5t-42 -13.5t-44 0.5q-23 4 -42 16t-29 30t-12.5 41z" />
<glyph unicode="&#xf70f;" horiz-adv-x="2323" d="M64 1101q-1 17 10 44q30 75 81 145.5t127.5 124.5t178 86t233.5 32q123 0 216.5 -23.5t164 -66.5t119.5 -101.5t79 -128t42.5 -147.5t12.5 -158v-418q0 -80 26 -140.5t68 -102t98 -62.5t116 -21q59 0 113 19.5t95 59.5t65 101.5t24 145.5v909q0 27 10 49.5t26.5 38t39 24 t47.5 8.5q26 0 47.5 -8.5t38 -24.5t26.5 -38q10 -21 10 -49v-934q0 -129 -46 -224t-121 -156.5t-172 -91.5t-203 -30q-109 0 -208.5 32t-176.5 95.5t-122 157.5t-45 217v473q0 70 -19.5 138.5t-65 124t-120 89.5t-184.5 36q-93 1 -164 -22.5t-119.5 -61.5t-75.5 -84.5 t-33 -92.5q26 -15 46.5 -40t35 -59t21.5 -74t7 -83v-622h95q20 0 36.5 -7.5t29 -20.5t20.5 -29.5t8 -36.5t-8 -36.5t-20.5 -29.5t-29 -20t-36.5 -7h-242q-20 0 -36.5 7t-29.5 20t-20 29.5t-7 36.5v719q0 49 -10.5 98.5t-40.5 90.5q-18 23 -31.5 38.5t-20.5 30t-6 31.5z" />
<glyph unicode="&#xf710;" d="M-1058 1870v112q0 24 9 45t25 36.5t37.5 25.5t45.5 10t45.5 -10t37.5 -25.5t25 -37t9 -44.5v-39h893q20 0 37 -7t30 -20t20.5 -30.5t7.5 -37.5t-7.5 -37.5t-20.5 -29.5t-30 -20t-37 -8h-1010q-24 0 -45.5 9.5t-37.5 25t-25 37t-9 45.5z" />
<glyph unicode="&#xf711;" d="M-1088 1988q0 51 20.5 97.5t54 81t79.5 54.5t99 20q51 0 97 -20t80.5 -54.5t55 -81t20.5 -97.5q0 -53 -20.5 -99t-55 -80t-80.5 -53.5t-97 -19.5q-53 0 -99 19.5t-79.5 53.5t-54 80t-20.5 99zM-938 1988q0 -20 8.5 -39.5t23 -33t33 -22t38.5 -8.5t39.5 8.5t33 22t22 33 t8.5 39.5t-8.5 39t-22 33t-32.5 22.5t-40 8.5q-20 0 -38.5 -8.5t-33 -22.5t-23 -33t-8.5 -39z" />
<glyph unicode="&#xf712;" d="M-1480 2061q0 84 31.5 144t83.5 97t121 53.5t141 16.5h633q40 0 62.5 -25t22.5 -60q0 -36 -23.5 -61t-61.5 -25h-608q-62 0 -97.5 -14.5t-53.5 -36t-23 -45t-5 -44.5q0 -13 3.5 -31.5t15 -35t33 -28t58.5 -11.5q46 0 73 24t36 64q6 31 29.5 50t54.5 19q32 0 55.5 -20 t29.5 -49q8 -40 35 -64t72 -24q88 0 94 74q3 40 32.5 63t72.5 19q42 -3 63 -33t20 -75q-2 -60 -24 -103.5t-56.5 -72t-79 -42t-91.5 -13.5q-45 0 -83 15.5t-66.5 39t-46 53t-23.5 56.5q-2 -27 -22 -56.5t-52.5 -53t-74.5 -39t-85 -15.5q-83 0 -140 28.5t-91.5 71.5 t-49.5 94.5t-15 94.5z" />
<glyph unicode="&#xf713;" d="M-835 2438v197q0 26 9 47.5t25 37.5t37.5 24.5t45.5 8.5t45.5 -8.5t37.5 -24.5t25 -37.5t9 -47.5v-197q0 -26 -9 -47t-25 -37t-37.5 -24.5t-45.5 -8.5t-45.5 8.5t-37.5 24.5t-25 37t-9 47z" />
<glyph unicode="&#xf714;" d="M-1241 2656q0 18 7 34.5t19 28.5t28.5 19.5t35.5 7.5h170q19 0 35 -7.5t29 -19.5t20.5 -28.5t7.5 -34.5v-133q140 0 225 44t119 127q9 20 23 36t33 24.5t40 8.5q21 3 43 -6q20 -9 35 -23t23 -32.5t8 -39.5q3 -21 -6 -42q-23 -59 -68.5 -109t-115 -88t-161.5 -59 q-93 -22 -207 -22h-106q-18 0 -34.5 7.5t-29.5 19t-20 28.5t-7 35v133h-56q-19 0 -35.5 7.5t-28.5 19.5t-19 28.5t-7 35.5z" />
<glyph unicode="&#xf715;" d="M-1268 2432q0 63 20 111t51.5 81t71.5 50t80 17q55 0 100.5 -27t66.5 -73q23 42 69.5 71t106.5 29q34 0 65.5 -12t56.5 -35.5t43.5 -56.5t24.5 -76q14 12 28.5 30.5t26.5 41t23 50t16 54.5q5 21 17 36t28.5 24.5t35.5 11.5q20 4 40 -2t35 -18t24 -29t12 -36.5t-1 -39.5 q-13 -54 -39.5 -103t-63 -89t-79.5 -67t-89 -36h-94q-30 0 -52 18t-30 47q-2 17 -7 33.5t-13 29.5t-19.5 21.5t-27.5 8.5q-23 0 -36.5 -15t-14.5 -51q-2 -17 -8.5 -32t-17.5 -26.5t-26 -18.5q-14 -6 -31 -6t-32 6.5t-26.5 18t-18 26.5t-8.5 32q-1 11 -4 22.5t-9.5 21.5 t-16.5 16t-24 6q-27 0 -43.5 -24.5t-16.5 -68.5q0 -22 -10 -39t-26.5 -27t-36.5 -14.5t-38 -1.5q-41 6 -62 37t-21 73z" />
<glyph unicode="&#xf716;" d="M-1078 2620q0 37 25 62.5t65 25.5h153v98q0 25 9 46.5t25 37.5t37.5 24.5t45.5 8.5t45.5 -8.5t37.5 -24.5t25 -37.5t9 -46.5v-98h153q20 0 36.5 -7t29 -18.5t18.5 -28.5t6 -36q0 -37 -25 -62.5t-65 -25.5h-153v-98q0 -25 -9 -46.5t-25 -37.5t-37.5 -24.5t-45.5 -8.5 t-45.5 8.5t-37.5 24.5t-25 37.5t-9 46.5v98h-153q-20 0 -36.5 7t-28 19t-18.5 28.5t-7 35.5z" />
<glyph unicode="&#xf717;" d="M-782 2266.5q-3 22.5 3 48.5q13 60 48.5 108.5t89 84.5t120.5 57q69 20 146 22q42 1 70 -20.5t32 -61.5q1 -20 -4.5 -37.5t-17 -31.5t-27 -22.5t-34.5 -8.5q-87 -4 -141.5 -40.5t-65.5 -106.5q-3 -23 -16.5 -40t-32.5 -27t-41.5 -13t-45.5 1.5t-41 16.5t-28.5 30 t-13.5 40.5z" />
<glyph unicode="&#xf718;" d="M-535 -701q0 19 7 35.5t19.5 28t29 18.5t34.5 7h208q18 0 34.5 -7t29.5 -18.5t20 -28t7 -35.5v-349q0 -25 -9 -46t-25 -36t-36.5 -23.5t-45.5 -8.5q-24 0 -44.5 8.5t-36.5 23.5t-25.5 36t-9.5 46v259h-67q-18 0 -34.5 7.5t-29 19.5t-19.5 28.5t-7 34.5z" />
<glyph unicode="&#xf719;" d="M-1070 -701q0 19 7.5 35.5t19.5 28t28.5 18.5t34.5 7h212q19 0 35.5 -7t28.5 -18.5t19 -28t7 -35.5v-90q0 -86 36.5 -128.5t113.5 -42.5q150 0 150 171v82q0 24 9.5 45.5t25.5 36.5t36.5 24.5t44.5 9.5q25 0 45.5 -9.5t36.5 -24.5t25 -36.5t9 -45.5v-82q0 -73 -20 -137 t-65 -113t-118 -76.5t-179 -27.5q-104 0 -177 25t-118.5 72t-67 112t-21.5 145h-68q-18 0 -34.5 7.5t-28.5 19.5t-19.5 28.5t-7.5 34.5z" />
<glyph unicode="&#xf71a;" d="M-450 -765q0 37 14 69t38.5 56t56.5 37.5t71 13.5q35 0 66.5 -13.5t56 -37.5t39 -56t14.5 -69t-14.5 -69.5t-39 -56t-56 -37t-66.5 -13.5q-37 0 -70 13.5t-57.5 37t-38.5 56t-14 69.5z" />
<glyph unicode="&#xf71d;" horiz-adv-x="1917" d="M87.5 1414q4.5 25 16.5 46t32 35.5t46 20.5q25 6 51 3t47.5 -15.5t36.5 -34.5t22 -52l192 -1135l255 836q9 27 25 53t38 44t48.5 29.5t56.5 11.5t57 -11.5t49.5 -29.5t38 -43t24.5 -54l247 -836l149 710q15 73 21 134t-3.5 106.5t-37.5 74.5t-78 39q-34 7 -57 27t-23 54 t24 55.5t56 26.5q92 13 155 51.5t94 109.5q13 32 36.5 54t51.5 30.5t59 2t58 -29.5q20 -17 31.5 -39.5t12.5 -48t-6.5 -49.5t-24.5 -44q-49 -56 -115.5 -86t-138.5 -40q46 -13 82 -44.5t55 -80t20.5 -113t-18.5 -142.5l-237 -930q-16 -60 -58 -93.5t-99 -33.5q-59 0 -101 34 t-60 93l-263 875l-274 -875q-17 -59 -59.5 -93t-100.5 -34t-101.5 33t-56.5 94l-274 1253q-6 26 -1.5 51z" />
<glyph d="M-1094 1870q4 45 23.5 84t51.5 71.5t76.5 55.5t100.5 34q8 46 31 86.5t61 72t88.5 50t115.5 20.5q43 1 71.5 -19t32.5 -60q3 -20 -2 -38.5t-15.5 -32t-26.5 -23t-35 -10.5q-42 -3 -68 -14t-39.5 -31t-18.5 -50.5t-5 -70.5q0 -17 -11 -28.5t-39 -11.5q-44 0 -75 -8.5 t-51.5 -25t-32 -41t-14.5 -55.5q-3 -23 -16 -41.5t-31.5 -30t-40.5 -16t-44 -0.5q-51 12 -72 46q-21 36 -15 87z" />
<glyph horiz-adv-x="1205" d="M-1088 1988q0 51 20.5 97.5t54 81t79.5 54.5t99 20q51 0 97 -20t80.5 -54.5t55 -81t20.5 -97.5q0 -53 -20.5 -99t-55 -80t-80.5 -53.5t-97 -19.5q-53 0 -99 19.5t-79.5 53.5t-54 80t-20.5 99zM-938 1988q0 -20 8.5 -39.5t23 -33t33 -22t38.5 -8.5t39.5 8.5t33 22t22 33 t8.5 39.5t-8.5 39t-22 33t-32.5 22.5t-40 8.5q-20 0 -38.5 -8.5t-33 -22.5t-23 -33t-8.5 -39zM37 1158q-3 25 4 49q26 80 77.5 141t119 101t147.5 60.5t163 20.5q110 0 203.5 -30t163 -91t108 -154.5t38.5 -219.5v-932q0 -27 -10 -50t-26.5 -38.5t-38.5 -23.5t-48 -8 t-47.5 8t-38.5 23.5t-26 37.5t-9 51v882q0 178 -68 259.5t-201 81.5q-100 0 -167.5 -46.5t-91.5 -138.5q-7 -26 -23 -46t-37.5 -31.5t-46.5 -15t-50 3.5q-26 8 -46 23t-33 36.5t-16 46.5z" />
<glyph horiz-adv-x="1205" d="M-1088 1988q0 51 20.5 97.5t54 81t79.5 54.5t99 20q51 0 97 -20t80.5 -54.5t55 -81t20.5 -97.5q0 -53 -20.5 -99t-55 -80t-80.5 -53.5t-97 -19.5q-53 0 -99 19.5t-79.5 53.5t-54 80t-20.5 99zM-938 1988q0 -20 8.5 -39.5t23 -33t33 -22t38.5 -8.5t39.5 8.5t33 22t22 33 t8.5 39.5t-8.5 39t-22 33t-32.5 22.5t-40 8.5q-20 0 -38.5 -8.5t-33 -22.5t-23 -33t-8.5 -39zM37 1158q-3 25 4 49q26 80 77.5 141t119 101t147.5 60.5t163 20.5q110 0 203.5 -30t163 -91t108 -154.5t38.5 -219.5v-932q0 -27 -10 -50t-26.5 -38.5t-38.5 -23.5t-48 -8 t-47.5 8t-38.5 23.5t-26 37.5t-9 51v882q0 178 -68 259.5t-201 81.5q-100 0 -167.5 -46.5t-91.5 -138.5q-7 -26 -23 -46t-37.5 -31.5t-46.5 -15t-50 3.5q-26 8 -46 23t-33 36.5t-16 46.5z" />
<glyph d="M-1165 1846q0 20 7.5 37t20.5 30t30 20.5t37 7.5h845q21 0 38 -7.5t30 -20.5t20.5 -30t7.5 -37q0 -40 -27.5 -66.5t-68.5 -26.5h-845q-40 0 -67.5 26.5t-27.5 66.5z" />
<glyph d="M-1165 1846q0 20 7.5 37t20.5 30t30 20.5t37 7.5h690v131q0 24 9 45.5t25 37.5t37.5 25t45.5 9t45 -9t36.5 -25t25.5 -37.5t10 -45.5v-226q0 -40 -28 -66.5t-68 -26.5h-828q-40 0 -67.5 26.5t-27.5 66.5z" />
<glyph d="M-1165 1846q0 20 7.5 37t20.5 30t30 20.5t37 7.5h488q-3 12 -3 26v24q0 48 18 92.5t50 76t75.5 50.5t94.5 19q48 0 91.5 -19t76 -50.5t50.5 -75.5q19 -45 19 -93q0 -49 -18.5 -92t-51 -76t-76 -51.5t-91.5 -18.5h-723q-40 0 -67.5 26.5t-27.5 66.5zM-443 1991 q0 -19 7.5 -35.5t20.5 -28.5t31 -19.5t37 -7.5q18 0 35 7.5t30 19.5t21 29q8 15 8 35t-8 37.5t-21 30.5t-30 20t-35 7q-19 0 -37 -7t-31 -20t-20.5 -30.5t-7.5 -37.5z" />
<glyph d="M-1165 1846q0 20 7.5 37t20.5 30t30 20.5t37 7.5h301v131q0 24 9 45.5t25 37.5t36.5 25t44.5 9q25 0 45.5 -9t36.5 -25t25 -37.5t9 -45.5v-131h160v131q0 24 9.5 45.5t25.5 37.5t36.5 25t44.5 9q25 0 45.5 -9t36.5 -25t25 -37.5t9 -45.5v-226q0 -40 -28 -66.5t-68 -26.5 h-828q-40 0 -67.5 26.5t-27.5 66.5z" />
<glyph d="M-1859 1846q0 20 8 37t20.5 30t30 20.5t37.5 7.5h1160q20 0 37 -7.5t30 -20.5t20 -30t7 -37q0 -40 -27 -66.5t-67 -26.5h-1160q-40 0 -68 26.5t-28 66.5z" />
<glyph d="M-1859 1846q0 20 8 37t20.5 30t30 20.5t37.5 7.5h1002v131q0 24 9.5 45.5t25 37.5t37 25t45.5 9q25 0 46.5 -9t37 -25t25 -37.5t9.5 -45.5v-226q0 -40 -28 -66.5t-68 -26.5h-1141q-40 0 -68 26.5t-28 66.5z" />
<glyph d="M-1859 1846q0 20 8 37t20.5 30t30 20.5t37.5 7.5h825q-3 12 -3 26v24q0 48 18.5 92.5t51 76t76 50.5t93.5 19q48 0 91 -19t74.5 -50.5t49.5 -75.5q18 -45 18 -93q0 -49 -18 -92t-49.5 -76t-74.5 -51.5t-91 -18.5h-1061q-40 0 -68 26.5t-28 66.5zM-798 1991 q0 -39 26.5 -65t69.5 -26q38 0 64 26.5t26 64.5q0 41 -26 68t-64 27q-42 0 -69 -27t-27 -68z" />
<glyph d="M-1859 1846q0 20 8 37t20.5 30t30 20.5t37.5 7.5h613v131q0 24 9.5 45.5t25 37.5t36.5 25t45 9t45 -9t36.5 -25t25 -37.5t9.5 -45.5v-131h160v131q0 24 8.5 45.5t24.5 37.5t37.5 25t45.5 9t45 -9t36.5 -25t24 -37.5t8.5 -45.5v-226q0 -40 -27.5 -66.5t-67.5 -26.5h-1140 q-40 0 -68 26.5t-28 66.5z" />
<glyph d="M-761 2438v197q0 26 9.5 47.5t24.5 37.5t36.5 24.5t45.5 8.5t45.5 -8.5t37.5 -24.5t25 -37.5t9 -47.5v-197q0 -26 -9 -47t-25 -37t-37.5 -24.5t-45.5 -8.5t-45.5 8.5t-36.5 24.5t-24.5 37t-9.5 47z" />
<glyph d="M-1131 2656q0 18 7 34.5t20 28.5t29 19q14 8 34 8h172q18 0 34.5 -7.5t28.5 -19.5t19.5 -28.5t7.5 -34.5v-133q140 0 225 44t119 127q9 20 23 36t33.5 24.5t40.5 8.5q21 3 42 -6q20 -9 35 -23t23 -32.5t9.5 -39.5t-7.5 -42q-23 -59 -68.5 -109t-114.5 -88t-160.5 -59.5 t-206.5 -21.5h-108q-18 0 -34.5 7.5t-29 19t-19.5 28.5t-7 35v133h-57q-19 0 -34.5 7.5t-28.5 19.5t-20 28.5t-7 35.5z" />
<glyph d="M-1270 2432q0 63 21 111t51.5 81t70.5 50t80 17q56 0 101 -27t68 -73q23 42 68.5 71t107.5 29q34 0 65 -12t56.5 -35.5t43.5 -56.5t25 -76q14 12 28 30.5t26.5 41t22.5 50t16 54.5q4 21 16.5 36t28.5 24.5t37 11.5q20 4 38 -2q20 -6 35 -18t24.5 -29t12 -36.5t-1.5 -39.5 q-13 -54 -39.5 -103t-62 -89t-78.5 -67t-89 -36h-94q-30 0 -53 18t-29 47q-2 17 -8 33.5t-13 29.5t-19 21.5t-28 8.5q-23 0 -36.5 -15t-15.5 -51q-1 -17 -7.5 -32t-18 -26.5t-25.5 -18t-32 -6.5q-17 0 -32 6.5t-25.5 18t-18 26.5t-7.5 32q-1 11 -4 22.5t-10 21.5t-17 16 t-24 6q-27 0 -43.5 -24.5t-16.5 -68.5q0 -22 -10 -39t-26 -27t-36 -14.5t-40 -1.5q-40 6 -61.5 37t-21.5 73z" />
<glyph d="M-1004 2620q0 37 24.5 62.5t65.5 25.5h153v98q0 25 9.5 46.5t24.5 37.5t36.5 24.5t45.5 8.5t45.5 -8.5t37.5 -24.5t25 -37.5t9 -46.5v-98h153q20 0 36.5 -7t29 -18.5t18.5 -28.5t6 -36q0 -37 -25 -62.5t-65 -25.5h-153v-98q0 -25 -9 -46.5t-25 -37.5t-37.5 -24.5 t-45.5 -8.5t-45.5 8.5t-36.5 24.5t-24.5 37.5t-9.5 46.5v98h-153q-20 0 -36.5 7t-28.5 19t-18.5 28.5t-6.5 35.5z" />
<glyph d="M-1833 1846q0 20 7 37t20 30t31 20.5t36 7.5h1514q21 0 38 -7.5t30 -20.5t20.5 -30t7.5 -37q0 -40 -27.5 -66.5t-68.5 -26.5h-1514q-40 0 -67 26.5t-27 66.5z" />
<glyph d="M-1833 1846q0 20 7 37t20 30t31 20.5t36 7.5h1359v131q0 24 9 45.5t25 37.5t37.5 25t45.5 9t45 -9t36.5 -25t25.5 -37.5t10 -45.5v-226q0 -40 -28 -66.5t-68 -26.5h-1497q-40 0 -67 26.5t-27 66.5z" />
<glyph d="M-1833 1846q0 20 7 37t20 30t31 20.5t36 7.5h1157q-3 12 -3 26v24q0 48 18 92.5t50 76t75.5 50.5t94.5 19q48 0 91.5 -19t76 -50.5t50.5 -75.5q19 -45 19 -93q0 -49 -18.5 -92t-51 -76t-76 -51.5t-91.5 -18.5h-1392q-40 0 -67 26.5t-27 66.5zM-443 1991q0 -19 7.5 -35.5 t20.5 -28.5t31 -19.5t37 -7.5q18 0 35 7.5t30 19.5t21 29q8 15 8 35t-8 37.5t-21 30.5t-30 20t-35 7q-19 0 -37 -7t-31 -20t-20.5 -30.5t-7.5 -37.5z" />
<glyph d="M-1833 1846q0 20 7 37t20 30t31 20.5t36 7.5h970v131q0 24 9 45.5t25 37.5t36.5 25t44.5 9q25 0 45.5 -9t36.5 -25t25 -37.5t9 -45.5v-131h160v131q0 24 9.5 45.5t25.5 37.5t36.5 25t44.5 9q25 0 45.5 -9t36.5 -25t25 -37.5t9 -45.5v-226q0 -40 -28 -66.5t-68 -26.5 h-1497q-40 0 -67 26.5t-27 66.5z" />
<glyph d="M-380 2292v198q0 25 9 46.5t25 37.5t37.5 24.5t45.5 8.5t45 -8.5t36.5 -24.5t25.5 -37.5t10 -46.5v-198q0 -25 -10 -46.5t-25.5 -37.5t-37 -24.5t-44.5 -8.5q-24 0 -45.5 8.5t-37.5 24.5t-25 37.5t-9 46.5z" />
<glyph d="M-809 2510q0 18 7 34.5t20 28.5t28.5 19.5t35.5 7.5h170q19 0 34.5 -7.5t28.5 -19.5t20 -28.5t7 -34.5v-133q141 0 226 44t119 127q9 20 24 36t33.5 24.5t39 9t42.5 -6.5q20 -8 35 -22.5t23 -33t9 -39.5t-7 -42q-23 -59 -69 -109t-114.5 -88t-160 -59.5t-207.5 -21.5 h-107q-19 0 -35 7.5t-28.5 19t-19.5 28.5t-7 36v133h-56q-18 0 -34.5 7t-29.5 19t-20 28.5t-7 35.5z" />
<glyph d="M-955 2287q0 62 20.5 111t51.5 81t71 49t80 17q56 0 101 -27t68 -71q22 41 68 69.5t107 28.5q35 0 65.5 -12t56.5 -35t44 -56.5t25 -76.5q14 12 27.5 30.5t26.5 42t23 50t16 53.5q4 22 16 37t28.5 24t36.5 11t39 -2q20 -6 35 -18t24 -29t12 -36.5t-1 -39.5 q-13 -54 -39.5 -102.5t-62 -88.5t-78.5 -67.5t-89 -35.5h-94q-30 0 -53 17.5t-29 46.5q-3 17 -8.5 33.5t-13 29.5t-19.5 21.5t-28 8.5q-22 0 -36 -15t-15 -51q-1 -17 -7.5 -32t-18 -26.5t-26 -18t-31.5 -6.5t-32 6.5t-26 18t-18 26.5t-7 32q-1 12 -4 23t-10 21t-17 16t-25 6 q-27 0 -43.5 -24.5t-16.5 -68.5q0 -21 -10 -37.5t-25.5 -27.5t-35.5 -15t-40 -2q-40 6 -61.5 37t-21.5 74z" />
<glyph d="M-623 2472q0 38 25 64.5t65 26.5h153v95q0 26 9 48t25 37t37.5 24t45.5 9t45 -9t36.5 -24t25.5 -36t10 -49v-95h152q20 0 36.5 -7.5t28.5 -19.5t19 -28.5t7 -35.5q0 -37 -25.5 -63.5t-65.5 -26.5h-152v-95q0 -26 -10 -47.5t-25.5 -37.5t-37 -24.5t-44.5 -8.5 q-24 0 -45.5 8.5t-37.5 24.5t-25 37.5t-9 47.5v95h-153q-20 0 -36.5 7.5t-29 19.5t-18.5 28.5t-6 34.5z" />
<glyph d="M-835 2292v198q0 25 9 46.5t25 37.5t37.5 24.5t45.5 8.5t45.5 -8.5t37.5 -24.5t25 -37.5t9 -46.5v-198q0 -25 -9 -46.5t-25 -37.5t-37.5 -24.5t-45.5 -8.5t-45.5 8.5t-37.5 24.5t-25 37.5t-9 46.5z" />
<glyph d="M-1204 2505q0 19 7 36t20 29.5t28.5 19.5t34.5 7h172q18 0 34 -7t28.5 -19.5t20 -29t7.5 -36.5v-133q140 0 225 44.5t119 127.5q9 20 23.5 36.5t33.5 25t40 9t42 -7.5q20 -9 35 -22.5t23 -32t8.5 -40t-6.5 -41.5q-23 -59 -68.5 -109.5t-114.5 -87.5t-161 -58.5 t-206 -21.5h-108q-18 0 -34.5 6t-28.5 18.5t-19.5 29t-7.5 34.5v135h-57q-19 0 -34.5 6.5t-28.5 18.5t-20 28q-7 15 -7 35z" />
<glyph d="M-1343 2287q0 62 20 111t51.5 81t71.5 49t80 17q56 0 101 -27t67 -71q22 41 69 70q48 28 108 28q34 0 65 -12t56.5 -35t43.5 -56.5t25 -76.5q14 12 28 30.5t26.5 42t22.5 50t16 53.5q4 22 16.5 37t29 24t35.5 11t39 -2q20 -6 35 -18t24.5 -29t12.5 -36.5t-2 -39.5 q-13 -54 -39.5 -102.5t-62.5 -88.5t-79 -67.5t-88 -35.5h-95q-30 0 -52.5 17.5t-27.5 46.5q-3 17 -9 33.5t-13 29.5t-19 21.5t-28 8.5q-23 0 -36.5 -15t-15.5 -51q-1 -17 -7.5 -32t-18 -26.5t-25.5 -18t-32 -6.5q-17 0 -32 6.5t-25.5 18t-17.5 26.5t-7 32q-2 12 -5.5 23 t-10 21t-16.5 16t-24 6q-27 0 -43.5 -24.5t-16.5 -68.5q0 -21 -10 -37.5t-26 -27.5t-36.5 -15t-39.5 -2q-40 6 -61.5 37t-21.5 74z" />
<glyph d="M-1078 2472q0 38 25 64.5t65 26.5h153v95q0 26 9 48t25 37t37.5 24t45.5 9t45.5 -9t37.5 -24t25 -36t9 -49v-95h153q20 0 36.5 -7.5t29 -19.5t18.5 -28.5t6 -35.5q0 -37 -25 -63.5t-65 -26.5h-153v-95q0 -26 -9 -47.5t-25 -37.5t-37.5 -24.5t-45.5 -8.5t-45.5 8.5 t-37.5 24.5t-25 37.5t-9 47.5v95h-153q-20 0 -36.5 7.5t-28 19.5t-18.5 28.5t-7 34.5z" />
<glyph d="M-781 -287q0 18 7.5 34.5t20 28.5t28.5 19.5t36 7.5h207q19 0 35.5 -7.5t28.5 -19.5t19 -28.5t7 -34.5v-348q0 -26 -8.5 -47.5t-24 -36.5t-37 -23.5t-44.5 -8.5q-25 0 -46 8.5t-36 23.5t-24.5 36.5t-9.5 47.5v257h-67q-19 0 -35.5 7.5t-29 20.5t-20 28.5t-7.5 34.5z" />
<glyph d="M-1121 -287q0 18 7 34.5t20 28.5t28.5 19.5t34.5 7.5h213q19 0 34.5 -7.5t28.5 -19.5t20 -28.5t7 -34.5v-91q0 -85 36 -128t114 -43q150 0 150 171v83q0 25 9 45.5t24.5 36.5t36.5 24.5t45 8.5t45.5 -8.5t36.5 -24.5t24.5 -36.5t9.5 -45.5v-83q0 -72 -20 -136.5 t-65 -112.5t-118 -76.5t-177.5 -28.5t-177.5 25.5t-119.5 72t-67 112.5t-20.5 144h-69q-19 0 -34.5 7.5t-28.5 20.5t-20 28.5t-7 34.5z" />
<glyph d="M-751 -312q0 37 14.5 70t38.5 57.5t56.5 38.5t70.5 14q36 0 68.5 -14t56 -38.5t37.5 -57.5t14 -70q0 -35 -14 -67.5t-37.5 -56t-56 -38t-68.5 -14.5q-37 0 -70 14.5t-57 38t-38.5 56t-14.5 67.5z" />
<glyph d="M-755 -287q0 18 7 34.5t19.5 28.5t28.5 19.5t35 7.5h209q18 0 34 -7.5t29 -19.5t20 -28.5t7 -34.5v-348q0 -26 -9.5 -47.5t-25 -36.5t-36.5 -23.5t-45 -8.5t-45 8.5t-36.5 23.5t-25 36.5t-9.5 47.5v257h-67q-19 0 -35 7.5t-28.5 20.5t-19.5 28.5t-7 34.5z" />
<glyph d="M-1327 -287q0 18 7 34.5t20 28.5t28.5 19.5t35.5 7.5h212q19 0 34.5 -7.5t28.5 -19.5t20 -28.5t7 -34.5v-91q0 -85 36.5 -128t113.5 -43q151 0 151 171v83q0 25 8.5 45.5t24 36.5t37.5 24q22 9 45 9q25 0 45.5 -8.5t36.5 -24.5t24.5 -36.5t8.5 -45.5v-83 q0 -72 -19.5 -136.5t-64.5 -112.5t-118 -76.5t-179 -28.5q-104 0 -177 25.5t-119.5 72t-67 112.5t-20.5 144h-68q-18 0 -34.5 7.5t-29.5 20.5t-20 28.5t-7 34.5z" />
<glyph d="M-735 -312q0 37 14.5 70t38 57.5t56.5 38.5t70 14q35 0 67.5 -14t56 -38.5t38 -57.5t14.5 -70q0 -35 -14.5 -67.5t-38 -56t-56 -38t-67.5 -14.5q-37 0 -70 14.5t-56.5 38t-38 56t-14.5 67.5z" />
<glyph d="M-1095 1870v112q0 24 10 45t25 36.5t36.5 25.5t45.5 10t45.5 -10t37.5 -25.5t25 -37t9 -44.5v-39h1077q20 0 37 -7t30 -20t21 -30.5t8 -37.5t-8 -37.5t-21 -29.5t-30.5 -20t-36.5 -8h-1194q-24 0 -45.5 9.5t-36.5 25t-25 37t-10 45.5z" />
<glyph d="M-798 2440v197q0 26 9.5 47.5t25 37t37 24t45.5 8.5q25 0 46.5 -8.5t36.5 -24t25 -37t10 -47.5v-197q0 -26 -10 -47.5t-25 -37.5t-36.5 -24.5t-46.5 -8.5q-24 0 -45.5 8.5t-37 24.5t-25 37.5t-9.5 47.5z" />
<glyph d="M-1157 2656q0 18 7 34.5t20 28.5t29 19.5t34 7.5h172q18 0 34 -7.5t29 -19.5t20 -28.5t7 -34.5v-133q140 0 225 44t120 127q8 20 22.5 36t33.5 24.5t40 8.5q21 3 42 -6q20 -9 35 -23t23 -32.5t8.5 -39.5t-6.5 -42q-23 -59 -68.5 -109t-114 -88t-161 -59.5t-206.5 -21.5 h-107q-19 0 -35.5 7.5t-28.5 19t-19.5 28.5t-7.5 35v133h-57q-18 0 -34 7.5t-29 19.5t-20 28.5t-7 35.5z" />
<glyph d="M-1160 2432q0 63 21 111t51.5 81t70.5 50t80 17q56 0 101 -27q44 -27 67 -73q23 42 69 71t108 29q34 0 65 -12t56.5 -35.5t43.5 -56.5t25 -76q14 12 28 30.5t26.5 41t22.5 50t16 54.5q4 21 16.5 36t29 24.5t35.5 11.5q19 4 39 -2t35 -18t24.5 -29t12.5 -36.5t-2 -39.5 q-13 -54 -39 -103t-62 -89t-79 -67t-89 -36h-95q-30 0 -52.5 18t-27.5 47q-3 17 -9 33.5t-13 29.5t-19 21.5t-28 8.5q-23 0 -36.5 -15t-15.5 -51q-1 -17 -7.5 -32t-18 -26.5t-25.5 -18t-31 -6.5q-18 0 -33 6.5t-25.5 18t-17.5 26.5t-7 32q-2 11 -5 22.5t-10 21.5t-17 16 t-24 6q-27 0 -43.5 -24.5t-16.5 -68.5q0 -22 -10 -39t-26 -27t-36 -14.5t-40 -1.5q-40 6 -61.5 37t-21.5 73z" />
<glyph d="M-1041 2620q0 37 25 62.5t65 25.5h153v98q0 25 9.5 46.5t25 37.5t37 24.5t45.5 8.5q25 0 46.5 -8.5t36.5 -24.5t25 -37.5t10 -46.5v-98h151q20 0 36.5 -7t28.5 -18.5t19.5 -28.5t7.5 -36q0 -37 -25 -63q-27 -25 -67 -25h-151v-98q0 -25 -10 -46.5t-25 -37.5t-36.5 -24.5 t-46.5 -8.5q-24 0 -45.5 8.5t-37 24.5t-25 37.5t-9.5 46.5v98h-153q-20 0 -36.5 7t-28.5 19t-18.5 28.5t-6.5 35.5z" />
<glyph d="M-1058 1870v112q0 24 9 45t25 36.5t37.5 25.5t45.5 10t45.5 -10t37.5 -25.5t25 -37t9 -44.5v-39h893q20 0 37 -7t30 -20t20.5 -30.5t7.5 -37.5t-7.5 -37.5t-20.5 -29.5t-30 -20t-37 -8h-1010q-24 0 -45.5 9.5t-37.5 25t-25 37t-9 45.5z" />
<glyph d="M-1051 2637q0 19 7 36t19.5 29t28.5 19t35 7h172q18 0 34 -7t28.5 -19t20 -28.5t7.5 -36.5v-133q140 0 225 44.5t119 127.5q9 20 23.5 36t33 24t40 9.5t42.5 -7.5q20 -8 35 -22.5t23 -32t8.5 -39t-6.5 -43.5q-23 -58 -68.5 -108.5t-115 -87.5t-161 -58.5t-205.5 -21.5 h-108q-18 0 -34.5 6.5t-28.5 18.5t-19.5 28.5t-7.5 35.5v134h-57q-19 0 -35 6.5t-28.5 18.5t-19.5 28.5t-7 35.5z" />
<glyph d="M-991 2415q0 63 20 111t51.5 81t71 49.5t79.5 16.5q55 0 100.5 -27.5t67.5 -71.5q23 41 69.5 70t106.5 29q35 0 66.5 -12.5t56.5 -35t42.5 -55.5t24.5 -76q15 11 29 30t26.5 41.5t22.5 49t15 53.5q5 22 17 37t28.5 25t36.5 12t40 -4q20 -5 35 -17.5t24.5 -28.5t12 -36.5 t-2.5 -40.5q-13 -54 -40.5 -106t-65 -94.5t-82 -68t-91.5 -25.5h-85q-30 0 -52 18.5t-29 47.5q-3 17 -8 33.5t-13 29t-19.5 20.5t-26.5 8q-23 0 -36.5 -15t-16.5 -49q-2 -17 -8.5 -33t-17 -26.5t-25.5 -18t-32 -7.5t-31.5 7.5t-26 18t-18 26.5t-7.5 33q-2 11 -4.5 22.5 t-9 21t-17.5 15t-25 5.5q-27 0 -43.5 -24t-16.5 -69q0 -21 -9.5 -37.5t-25.5 -27.5t-36 -15t-40 -1q-41 5 -61.5 36t-20.5 75z" />
<glyph d="M-1318 1846q0 20 7 37t20 30t30.5 20.5t36.5 7.5h999q21 0 38 -7.5t30 -20.5t20.5 -30t7.5 -37q0 -40 -27.5 -66.5t-68.5 -26.5h-999q-40 0 -67 26.5t-27 66.5z" />
<glyph d="M-1318 1846q0 20 7 37t20 30t30.5 20.5t36.5 7.5h844v131q0 24 9 45.5t25 37.5t37.5 25t45.5 9t45 -9t36.5 -25t25.5 -37.5t10 -45.5v-226q0 -40 -28 -66.5t-68 -26.5h-982q-40 0 -67 26.5t-27 66.5z" />
<glyph d="M-1318 1846q0 20 7 37t20 30t30.5 20.5t36.5 7.5h642q-3 12 -3 26v24q0 48 18 92.5t50 76t75.5 50.5t94.5 19q48 0 91.5 -19t76 -50.5t50.5 -75.5q19 -45 19 -93q0 -49 -18.5 -92t-51 -76t-76 -51.5t-91.5 -18.5h-877q-40 0 -67 26.5t-27 66.5zM-443 1991 q0 -19 7.5 -35.5t20.5 -28.5t31 -19.5t37 -7.5q18 0 35 7.5t30 19.5t21 29q8 15 8 35t-8 37.5t-21 30.5t-30 20t-35 7q-19 0 -37 -7t-31 -20t-20.5 -30.5t-7.5 -37.5z" />
<glyph d="M-1318 1846q0 20 7 37t20 30t30.5 20.5t36.5 7.5h455v131q0 24 9 45.5t25 37.5t36.5 25t44.5 9q25 0 45.5 -9t36.5 -25t25 -37.5t9 -45.5v-131h160v131q0 24 9.5 45.5t25.5 37.5t36.5 25t44.5 9q25 0 45.5 -9t36.5 -25t25 -37.5t9 -45.5v-226q0 -40 -28 -66.5t-68 -26.5 h-982q-40 0 -67 26.5t-27 66.5z" />
<glyph d="M-924 2438v197q0 26 9.5 47.5t25 37.5t37 24.5t45.5 8.5q25 0 45.5 -8.5t36.5 -24.5t26 -37.5t10 -47.5v-197q0 -26 -10 -47t-26 -37t-37.5 -24.5t-44.5 -8.5q-24 0 -45.5 8.5t-37 24.5t-25 37t-9.5 47z" />
<glyph d="M-1167 2620q0 37 25 62.5t65 25.5h153v98q0 25 9.5 46.5t25 37.5t37 24.5t45.5 8.5q25 0 45.5 -8.5t36.5 -24.5t26 -37.5t10 -46.5v-98h151q20 0 36.5 -7t29 -18.5t19.5 -28.5t7 -36q0 -37 -26 -62.5t-66 -25.5h-151v-98q0 -25 -10 -46.5t-26 -37.5t-37.5 -24.5 t-44.5 -8.5q-24 0 -45.5 8.5t-37 24.5t-25 37.5t-9.5 46.5v98h-153q-20 0 -36.5 7t-28.5 19t-18.5 28.5t-6.5 35.5z" />
<glyph d="M-776 -287q0 18 7 34.5t19 28.5t28.5 19.5t35.5 7.5h208q19 0 34.5 -7.5t28.5 -19.5t20 -28.5t7 -34.5v-348q0 -26 -9 -47.5t-25 -36.5t-36.5 -23.5t-44.5 -8.5q-25 0 -45.5 8.5t-36.5 23.5t-24.5 36.5t-8.5 47.5v257h-68q-19 0 -35.5 7.5t-28.5 20.5t-19 28.5t-7 34.5z " />
<glyph d="M-1160 -287q0 18 7.5 34.5t20 28.5t28.5 20q14 7 34 7h213q19 0 34.5 -7.5t28.5 -19.5t20.5 -28.5t7.5 -34.5v-91q0 -85 35.5 -128t114.5 -43q150 0 150 171v83q0 25 8.5 45.5t24 36.5t37 24.5t44.5 8.5q25 0 46 -8.5t36 -24.5t24.5 -36.5t9.5 -45.5v-83 q0 -72 -19.5 -136.5t-65 -112.5t-118.5 -76.5t-177.5 -28.5t-177.5 25.5t-119.5 72t-67 112.5t-20.5 144h-69q-18 0 -34 7.5t-28.5 20.5t-20 28.5t-7.5 34.5z" />
<glyph d="M-755 -312q0 37 14.5 70t38.5 57.5t57 38.5t70 14q36 0 68 -14t55.5 -38.5t38 -57.5t14.5 -70q0 -35 -14.5 -67.5t-38 -56t-55.5 -38t-68 -14.5q-37 0 -70 14.5t-57 38t-38.5 56t-14.5 67.5z" />
</font>
</defs>
</svg>
