<?xml version="1.0" standalone="no"?>
<!DOCTYPE svg PUBLIC "-//W3C//DTD SVG 1.1//EN" "http://www.w3.org/Graphics/SVG/1.1/DTD/svg11.dtd" >
<svg xmlns="http://www.w3.org/2000/svg" xmlns:xlink="http://www.w3.org/1999/xlink" version="1.1">
<metadata></metadata>
<defs>
<font id="mn_lannabold_italic" horiz-adv-x="0" >
<font-face units-per-em="2560" ascent="2048" descent="-512" />
<missing-glyph horiz-adv-x="892" />
<glyph unicode="&#x2b;&#x2d;" horiz-adv-x="1358" d="M59 0l67 315h1235l-65 -315h-1237zM247 889l68 315h464l99 462h307l-98 -462h465l-68 -315h-464l-99 -461h-308l99 461h-465z" />
<glyph unicode="&#x2e;&#x2e;&#x2e;" horiz-adv-x="2471" d="M242 0l71 337h341l-72 -337h-340zM1070 0l71 337h336l-71 -337h-336zM1889 0l72 337h340l-72 -337h-340z" />
<glyph unicode="&#x3c;&#x3d;" horiz-adv-x="1564" d="M147 0l66 315h1248l-65 -315h-1249zM345 930l63 297l1359 523l-74 -344l-949 -322l809 -338l-72 -340z" />
<glyph unicode="&#x3e;&#x3d;" horiz-adv-x="1564" d="M170 0l66 315h1248l-67 -315h-1247zM256 406l73 345l952 333l-812 326l73 340l1135 -523l-63 -295z" />
<glyph unicode="&#xe4f;&#x22;" horiz-adv-x="1530" d="M273 598q27 130 93.5 236.5t178 198t229.5 137.5t250 46q127 0 225 -46t170 -138q71 -91 94.5 -199t-3.5 -235q-54 -258 -277 -441q-218 -180 -474 -180q-259 0 -400.5 180t-85.5 441zM433.5 420q15.5 -80 65.5 -150q110 -130 296 -130q192 0 350 135q82 70 131.5 149 t69.5 174q41 188 -65 320q-103 132 -293 133q-94 0 -181 -33q-86 -34 -169 -100q-159 -129 -200 -320q-20 -98 -4.5 -178zM526.5 454.5q-14.5 66.5 1.5 143.5q15 74 58 140t103 115t133 78t148 29q74 0 134 -29t98.5 -78t52 -115t-1.5 -140q-16 -76 -58 -143t-102.5 -116.5 t-132.5 -79t-146 -29.5q-75 0 -135.5 29.5t-99 79t-53 116zM674.5 512.5q9.5 -39.5 31.5 -69.5t57.5 -46.5t81.5 -16.5t89 16.5t78 46.5t60 69.5t35 85.5q8 44 0.5 82.5t-30 68t-58 46.5t-81.5 17t-88.5 -17t-78.5 -46.5t-61.5 -68.5t-34.5 -82q-10 -46 -0.5 -85.5z M842 1413l89 590h183l-162 -590h-110zM1171 1413l89 590h183l-162 -590h-110z" />
<glyph unicode="&#xe0e;&#xe3a;" horiz-adv-x="1738" d="M113 -392q16 70 57.5 121.5t98 84.5t120 48.5t122.5 14.5q60 -1 102 -14q45 -12 56 -20q16 40 26 84h252q-6 -39 -18 -74t-25 -62q20 -16 45.5 -36t54 -41t59 -41t55.5 -36q19 -12 34 -4.5t25 22.5t16.5 32t9.5 28l287 1355q9 43 4 79t-31.5 62.5t-79 42.5t-139.5 16 t-149.5 -11t-104.5 -32.5t-65.5 -53.5t-32.5 -75l-4 -18h245l-35 -168q-46 -1 -83 -22t-65.5 -52t-48 -70.5t-27.5 -79.5l-80 -376q-16 -75 -52 -136.5t-87.5 -105t-118.5 -67t-146 -23.5q-67 0 -118.5 22t-84.5 61.5t-45 94t2 117.5q13 65 47.5 118t82.5 91.5t106 58.5 t118 20h28q17 0 29 -2l23 110q8 44 26 80.5t43 67t58 55.5t73 48h-212l43 202q16 79 69.5 143t139.5 109t201.5 70t258.5 25q288 0 421.5 -80.5t99.5 -247.5l-323 -1521q-27 -130 -108.5 -195t-200.5 -65q-54 0 -108 16.5t-97 53.5l-177 156q-37 -58 -88.5 -100.5 t-108.5 -69t-114.5 -39t-105.5 -12.5q-56 0 -107.5 15t-89 45.5t-54.5 75.5t-4 105zM321 275q-6 -30 1.5 -56.5t29 -44t61.5 -17.5t70 17.5t49 44t25 56.5t-1.5 55.5t-30 43.5t-62.5 18t-69 -18t-48 -43.5t-25 -55.5zM363 -375q-5 -27 8 -44q15 -17 55 -17q30 0 58 10.5 t50 26.5t38 34t23 32q-17 11 -45.5 22t-74.5 9q-19 -1 -37 -5.5t-33.5 -13.5t-27 -22t-14.5 -32zM952.5 -927.5q11.5 53.5 43.5 98.5t84.5 76t122.5 31q68 0 107.5 -31t52.5 -76t1.5 -98.5t-44 -98.5t-85 -76t-121.5 -31t-108 31t-52 76t-1.5 98.5z" />
<glyph unicode="&#xe0f;&#xe3a;" horiz-adv-x="1738" d="M-4 -432q13 63 48.5 112.5t84 83t105 50.5t111.5 17q68 0 111 -12.5t66 -20.5q4 9 10 22t11 28t9 30t7 28h253q-5 -28 -21.5 -75t-44.5 -98q25 -18 46.5 -35.5t49.5 -44.5l208 167l143 -157l298 1407q9 43 4 79t-31.5 62.5t-79.5 42.5t-138 16q-88 0 -150 -11t-104 -32.5 t-66 -53.5t-32 -75l-5 -18h245l-36 -168q-46 -1 -83 -22t-65.5 -52t-47 -70.5t-27.5 -79.5l-76 -356q-17 -82 -51 -147t-85.5 -110.5t-119.5 -70t-151 -24.5q-67 0 -119.5 23t-84.5 61.5t-44 93t2 118.5q14 66 48.5 119t81.5 90.5t104.5 57.5t117.5 20q30 0 57 -4l24 112 q10 45 27 81.5t42.5 66.5t58 55t72.5 48h-213l43 202q16 79 69.5 143t139.5 109t203 70t260 25q288 0 421 -80.5t97 -247.5l-342 -1608q-6 -25 -15 -54t-27 -56t-48 -49t-76 -38q-45 -16 -79 -14t-59.5 13.5t-45 29.5t-36.5 35l-83 96l-186 -157q-18 17 -44 40t-51.5 45 t-49.5 40.5t-39 28.5q-30 -47 -73 -81.5t-91.5 -56.5t-100 -33.5t-98.5 -11.5q-63 0 -116 16t-89.5 48.5t-51.5 80.5t-2 111zM206 -435q-6 -23 10 -39q16 -15 54 -15q25 0 48.5 8t44 22t38 33.5t27.5 40.5q0 2 -8 7t-22.5 10t-33.5 9t-39 4q-19 0 -39 -5.5t-36.5 -16.5 t-28.5 -26t-15 -32zM321.5 275q-5.5 -30 1.5 -56.5t29.5 -44t62.5 -17.5t70 17.5t48.5 44t25 56.5t-1.5 55.5t-31 43.5t-61 18q-40 0 -69.5 -18t-49 -43.5t-25 -55.5zM952.5 -927.5q11.5 53.5 43.5 98.5t84.5 76t122.5 31q68 0 107.5 -31t52.5 -76t1.5 -98.5t-44 -98.5 t-85 -76t-121.5 -31t-108 31t-52 76t-1.5 98.5z" />
<glyph unicode="&#xe0e;&#xe38;" horiz-adv-x="1738" d="M113 -392q16 70 57.5 121.5t98 84.5t120 48.5t122.5 14.5q60 -1 102 -14q45 -12 56 -20q16 40 26 84h252q-6 -39 -18 -74t-25 -62q20 -16 45.5 -36t54 -41t59 -41t55.5 -36q19 -12 34 -4.5t25 22.5t16.5 32t9.5 28l287 1355q9 43 4 79t-31.5 62.5t-79 42.5t-139.5 16 t-149.5 -11t-104.5 -32.5t-65.5 -53.5t-32.5 -75l-4 -18h245l-35 -168q-46 -1 -83 -22t-65.5 -52t-48 -70.5t-27.5 -79.5l-80 -376q-16 -75 -52 -136.5t-87.5 -105t-118.5 -67t-146 -23.5q-67 0 -118.5 22t-84.5 61.5t-45 94t2 117.5q13 65 47.5 118t82.5 91.5t106 58.5 t118 20h28q17 0 29 -2l23 110q8 44 26 80.5t43 67t58 55.5t73 48h-212l43 202q16 79 69.5 143t139.5 109t201.5 70t258.5 25q288 0 421.5 -80.5t99.5 -247.5l-323 -1521q-27 -130 -108.5 -195t-200.5 -65q-54 0 -108 16.5t-97 53.5l-177 156q-37 -58 -88.5 -100.5 t-108.5 -69t-114.5 -39t-105.5 -12.5q-56 0 -107.5 15t-89 45.5t-54.5 75.5t-4 105zM321 275q-6 -30 1.5 -56.5t29 -44t61.5 -17.5t70 17.5t49 44t25 56.5t-1.5 55.5t-30 43.5t-62.5 18t-69 -18t-48 -43.5t-25 -55.5zM363 -375q-5 -27 8 -44q15 -17 55 -17q30 0 58 10.5 t50 26.5t38 34t23 32q-17 11 -45.5 22t-74.5 9q-19 -1 -37 -5.5t-33.5 -13.5t-27 -22t-14.5 -32zM760 -1090.5q-14 49.5 0.5 112.5t47.5 110t77.5 79.5t98.5 48t111 15.5q72 0 124 -24.5t82 -68t38 -103.5t-6 -130l-73 -345h-290l37 178q-63 -12 -114 1t-85 45t-48 81.5z M898 -1017.5q3 -20.5 14.5 -37t32 -26.5t52.5 -10q28 0 51.5 9.5t42.5 25t30.5 36t16.5 42.5q6 23 4 44.5t-13.5 38.5t-31.5 27.5t-50 10.5t-54.5 -10.5t-43 -27t-30.5 -37t-18 -42.5q-6 -23 -3 -43.5z" />
<glyph unicode="&#xe0f;&#xe38;" horiz-adv-x="1738" d="M-4 -432q13 63 48.5 112.5t84 83t105 50.5t111.5 17q68 0 111 -12.5t66 -20.5q4 9 10 22t11 28t9 30t7 28h253q-5 -28 -21.5 -75t-44.5 -98q25 -18 46.5 -35.5t49.5 -44.5l208 167l143 -157l298 1407q9 43 4 79t-31.5 62.5t-79.5 42.5t-138 16q-88 0 -150 -11t-104 -32.5 t-66 -53.5t-32 -75l-5 -18h245l-36 -168q-46 -1 -83 -22t-65.5 -52t-47 -70.5t-27.5 -79.5l-76 -356q-17 -82 -51 -147t-85.5 -110.5t-119.5 -70t-151 -24.5q-67 0 -119.5 23t-84.5 61.5t-44 93t2 118.5q14 66 48.5 119t81.5 90.5t104.5 57.5t117.5 20q30 0 57 -4l24 112 q10 45 27 81.5t42.5 66.5t58 55t72.5 48h-213l43 202q16 79 69.5 143t139.5 109t203 70t260 25q288 0 421 -80.5t97 -247.5l-342 -1608q-6 -25 -15 -54t-27 -56t-48 -49t-76 -38q-45 -16 -79 -14t-59.5 13.5t-45 29.5t-36.5 35l-83 96l-186 -157q-18 17 -44 40t-51.5 45 t-49.5 40.5t-39 28.5q-30 -47 -73 -81.5t-91.5 -56.5t-100 -33.5t-98.5 -11.5q-63 0 -116 16t-89.5 48.5t-51.5 80.5t-2 111zM206 -435q-6 -23 10 -39q16 -15 54 -15q25 0 48.5 8t44 22t38 33.5t27.5 40.5q0 2 -8 7t-22.5 10t-33.5 9t-39 4q-19 0 -39 -5.5t-36.5 -16.5 t-28.5 -26t-15 -32zM321.5 275q-5.5 -30 1.5 -56.5t29.5 -44t62.5 -17.5t70 17.5t48.5 44t25 56.5t-1.5 55.5t-31 43.5t-61 18q-40 0 -69.5 -18t-49 -43.5t-25 -55.5zM760 -1090.5q-14 49.5 0.5 112.5t47.5 110t77.5 79.5t98.5 48t111 15.5q72 0 124 -24.5t82 -68t38 -103.5 t-6 -130l-73 -345h-290l37 178q-63 -12 -114 1t-85 45t-48 81.5zM898 -1017.5q3 -20.5 14.5 -37t32 -26.5t52.5 -10q28 0 51.5 9.5t42.5 25t30.5 36t16.5 42.5q6 23 4 44.5t-13.5 38.5t-31.5 27.5t-50 10.5t-54.5 -10.5t-43 -27t-30.5 -37t-18 -42.5q-6 -23 -3 -43.5z" />
<glyph unicode="&#xe0e;&#xe39;" horiz-adv-x="1738" d="M113 -392q16 70 57.5 121.5t98 84.5t120 48.5t122.5 14.5q60 -1 102 -14q45 -12 56 -20q16 40 26 84h252q-6 -39 -18 -74t-25 -62q20 -16 45.5 -36t54 -41t59 -41t55.5 -36q19 -12 34 -4.5t25 22.5t16.5 32t9.5 28l287 1355q9 43 4 79t-31.5 62.5t-79 42.5t-139.5 16 t-149.5 -11t-104.5 -32.5t-65.5 -53.5t-32.5 -75l-4 -18h245l-35 -168q-46 -1 -83 -22t-65.5 -52t-48 -70.5t-27.5 -79.5l-80 -376q-16 -75 -52 -136.5t-87.5 -105t-118.5 -67t-146 -23.5q-67 0 -118.5 22t-84.5 61.5t-45 94t2 117.5q13 65 47.5 118t82.5 91.5t106 58.5 t118 20h28q17 0 29 -2l23 110q8 44 26 80.5t43 67t58 55.5t73 48h-212l43 202q16 79 69.5 143t139.5 109t201.5 70t258.5 25q288 0 421.5 -80.5t99.5 -247.5l-323 -1521q-27 -130 -108.5 -195t-200.5 -65q-54 0 -108 16.5t-97 53.5l-177 156q-37 -58 -88.5 -100.5 t-108.5 -69t-114.5 -39t-105.5 -12.5q-56 0 -107.5 15t-89 45.5t-54.5 75.5t-4 105zM247 -1100q-4 42 8 96q12 59 42 108t74.5 85t100.5 56t117 20q87 0 141 -28.5t81 -74.5t30 -106t-10 -126l-22 -101h205l90 425h293l-130 -615h-784l20 98q-34 -4 -68.5 -2t-66 12 t-57.5 30t-42.5 50t-21.5 73zM321 275q-6 -30 1.5 -56.5t29 -44t61.5 -17.5t70 17.5t49 44t25 56.5t-1.5 55.5t-30 43.5t-62.5 18t-69 -18t-48 -43.5t-25 -55.5zM363 -375q-5 -27 8 -44q15 -17 55 -17q30 0 58 10.5t50 26.5t38 34t23 32q-17 11 -45.5 22t-74.5 9 q-19 -1 -37 -5.5t-33.5 -13.5t-27 -22t-14.5 -32zM414.5 -1006q-5.5 -29 1.5 -54t28.5 -42.5t58.5 -17.5q38 0 66.5 17.5t46 42.5t24 54t-0.5 54t-28.5 42.5t-58.5 17.5t-66.5 -17.5t-47.5 -42.5t-23.5 -54z" />
<glyph unicode="&#xe0f;&#xe39;" horiz-adv-x="1738" d="M-4 -432q13 63 48.5 112.5t84 83t105 50.5t111.5 17q68 0 111 -12.5t66 -20.5q4 9 10 22t11 28t9 30t7 28h253q-5 -28 -21.5 -75t-44.5 -98q25 -18 46.5 -35.5t49.5 -44.5l208 167l143 -157l298 1407q9 43 4 79t-31.5 62.5t-79.5 42.5t-138 16q-88 0 -150 -11t-104 -32.5 t-66 -53.5t-32 -75l-5 -18h245l-36 -168q-46 -1 -83 -22t-65.5 -52t-47 -70.5t-27.5 -79.5l-76 -356q-17 -82 -51 -147t-85.5 -110.5t-119.5 -70t-151 -24.5q-67 0 -119.5 23t-84.5 61.5t-44 93t2 118.5q14 66 48.5 119t81.5 90.5t104.5 57.5t117.5 20q30 0 57 -4l24 112 q10 45 27 81.5t42.5 66.5t58 55t72.5 48h-213l43 202q16 79 69.5 143t139.5 109t203 70t260 25q288 0 421 -80.5t97 -247.5l-342 -1608q-6 -25 -15 -54t-27 -56t-48 -49t-76 -38q-45 -16 -79 -14t-59.5 13.5t-45 29.5t-36.5 35l-83 96l-186 -157q-18 17 -44 40t-51.5 45 t-49.5 40.5t-39 28.5q-30 -47 -73 -81.5t-91.5 -56.5t-100 -33.5t-98.5 -11.5q-63 0 -116 16t-89.5 48.5t-51.5 80.5t-2 111zM206 -435q-6 -23 10 -39q16 -15 54 -15q25 0 48.5 8t44 22t38 33.5t27.5 40.5q0 2 -8 7t-22.5 10t-33.5 9t-39 4q-19 0 -39 -5.5t-36.5 -16.5 t-28.5 -26t-15 -32zM247 -1100q-4 42 8 96q12 59 42 108t74.5 85t100.5 56t117 20q87 0 141 -28.5t81 -74.5t30 -106t-10 -126l-22 -101h205l90 425h293l-130 -615h-784l20 98q-34 -4 -68.5 -2t-66 12t-57.5 30t-42.5 50t-21.5 73zM321.5 275q-5.5 -30 1.5 -56.5t29.5 -44 t62.5 -17.5t70 17.5t48.5 44t25 56.5t-1.5 55.5t-31 43.5t-61 18q-40 0 -69.5 -18t-49 -43.5t-25 -55.5zM414.5 -1006q-5.5 -29 1.5 -54t28.5 -42.5t58.5 -17.5q38 0 66.5 17.5t46 42.5t24 54t-0.5 54t-28.5 42.5t-58.5 17.5t-66.5 -17.5t-47.5 -42.5t-23.5 -54z" />
<glyph unicode="&#xd;" horiz-adv-x="1035" />
<glyph unicode=" "  horiz-adv-x="892" />
<glyph unicode="&#x09;" horiz-adv-x="892" />
<glyph unicode="&#xa0;" horiz-adv-x="892" />
<glyph unicode="!" horiz-adv-x="940" d="M337 120.5q-5 36.5 3 73.5q9 39 29 75.5t51.5 65t73 46t91.5 17.5q51 0 85 -17.5t53 -46t24 -65t-3 -75.5q-9 -37 -29 -73.5t-51.5 -65t-72 -45.5t-92.5 -17q-50 0 -84.5 17t-53.5 45.5t-24 65zM528 545l71 698l105 493h327l-104 -493l-226 -698h-173z" />
<glyph unicode="&#x22;" horiz-adv-x="1308" d="M488 1294l304 611h279l-406 -611h-177zM945 1294l305 611h280l-406 -611h-179z" />
<glyph unicode="#" horiz-adv-x="1947" d="M303 488l85 201h303l154 356h-307l83 201h309l205 489h198l-208 -489h362l206 489h196l-206 -489h328l-83 -201h-329l-149 -356h327l-84 -201h-327l-206 -488h-196l200 488h-355l-207 -488h-196l200 488h-303zM891 689h357l155 356h-362z" />
<glyph unicode="$" horiz-adv-x="1889" d="M327 356q0 39 4 68t9 46l5 18h320q1 0 -3 -17.5t-5.5 -45t3 -61.5t24.5 -66.5t52 -47.5t63.5 -19.5t53.5 -4.5h22l122 569q-47 6 -92.5 15t-87.5 22q-79 25 -146.5 55.5t-111 78.5t-60 117.5t6.5 169.5q17 80 56 146.5t91.5 118.5t117 90t134.5 61.5t143 34.5t145 8 l34 160h202l-33 -160q58 0 119 -8t117.5 -24.5t104.5 -43t82 -64.5q36 -43 55 -84.5t27.5 -79.5t7.5 -70t-5.5 -56t-9.5 -37.5t-6 -13.5h-298q-1 0 2.5 12.5t4 33t-6 50t-28.5 66.5q-13 23 -34 38.5t-44.5 27t-47 18t-43 10t-31.5 5.5t-14 4l-101 -481q1 2 28.5 -4.5 t70.5 -18.5t95 -31.5t102 -45.5t93 -58t67 -72q43 -71 53.5 -148.5t-7.5 -154.5q-17 -80 -59.5 -154.5t-103.5 -137.5q-46 -47 -104.5 -80t-120 -54.5t-121 -33.5t-106 -17.5t-75 -7t-29.5 -1.5l-46 -216h-203l46 216q-53 -3 -112.5 2.5t-116.5 20.5t-106 40t-80 60 q-33 34 -51 75.5t-26 82t-8 79.5zM824 1236q-6 -41 8.5 -68.5t40.5 -47.5t57 -32.5t59 -18t46 -7.5l19 -1l91 435q-58 -6 -114 -24t-99.5 -50t-72 -78.5t-35.5 -107.5zM1078 220q0 -1 19.5 -1t50 5.5t69.5 20t75 43t67.5 73t49.5 111.5q11 46 8 83t-15.5 65.5t-33.5 50 t-44 37.5q-54 36 -131 51z" />
<glyph unicode="%" horiz-adv-x="2029" d="M213 0l1676 1710h295l-1675 -1710h-296zM383 1107.5q-3 45.5 4 95.5q5 50 16 101q10 46 25 94t37.5 94.5t51.5 87t69 71.5t91 49.5t114 18.5q66 0 111 -17t73.5 -46.5t41.5 -69.5t15 -86.5t-4.5 -96.5t-16.5 -99q-10 -46 -25 -95t-37 -95t-52 -86.5t-71 -70.5t-92.5 -46 t-117.5 -13q-63 0 -106.5 16t-70.5 43.5t-40 66t-16 84zM583 1164q5 -31 25 -52t61 -25q32 0 56 20t42 50.5t30 68t21 74.5q9 41 14 80t0.5 69t-21 47.5t-50.5 20.5q-42 0 -69.5 -19t-46.5 -49t-29.5 -68t-19.5 -77q-8 -34 -13 -71.5t0 -68.5zM1357 194q-3 45 4 95 q6 48 16 100q10 44 25 93t36.5 95t51.5 87t70 71.5t91 49.5t114 19q67 0 112 -17.5t73 -46.5t40.5 -69t15 -86.5t-3.5 -96.5t-17 -99q-10 -46 -24.5 -94.5t-37.5 -94.5t-53 -86.5t-70 -70.5t-92 -46t-118 -13q-63 0 -106 16t-70.5 44t-40.5 66.5t-16 83.5zM1557.5 249.5 q4.5 -30.5 24.5 -51.5t62 -25q32 0 56.5 19.5t42 50t29.5 68.5q10 38 18 74q9 41 15.5 79.5t2 68.5t-21 49t-50.5 20q-41 0 -69 -18.5t-47.5 -49.5t-30 -68.5t-19.5 -76.5q-7 -36 -12 -72.5t-0.5 -67z" />
<glyph unicode="&#x26;" horiz-adv-x="1934" d="M322 412q7 76 31.5 141t58 119t74 98t83 79t81.5 59t70.5 40.5t51.5 24.5t23 8q-1 0 -13.5 11.5t-26.5 34.5t-28.5 56.5t-22.5 76.5t-6 95q0 52 20 112q27 89 83 156t131 112t165.5 67.5t189.5 19.5q103 -2 178 -26t123 -65.5t69.5 -96.5t18.5 -120q-4 -63 -26.5 -118 t-56 -100.5t-74 -84.5t-83.5 -69q-99 -71 -220 -121l24 -43l56 -99q17 -28 32 -53t32 -45l30 -43q0 1 6.5 7.5t17 19.5t23.5 33.5t27 50.5q16 23 22.5 42.5t12.5 35.5q5 10 7.5 17t3.5 17l269 -43q-3 -13 -8 -26.5t-11 -29.5l-73 -153q-25 -50 -49 -85.5t-43 -58.5t-32 -36 q-13 -11 -16 -17q-1 -2 10.5 -22.5t28.5 -48.5t37.5 -60t36.5 -58q36 -51 66 -92t51.5 -69.5t32 -44.5t10.5 -17h-399q-2 0 -19.5 28t-45.5 66l-38 65l-8 21q-27 -23 -55 -45t-62 -45q-59 -36 -139 -64.5t-183 -38.5q-145 -11 -251.5 15.5t-175.5 83t-100 140t-22 186.5z M681 505q-16 -116 44 -175.5t177 -54.5q62 0 105.5 18.5t73.5 39.5q19 13 33 29t27 33q-11 10 -21 22.5t-19 27.5q-17 25 -40 57.5t-44 70.5q-23 38 -43 73t-35 63.5t-23.5 46.5t-8.5 19q-26 -10 -51 -25t-48 -35q-44 -34 -79 -85t-48 -125zM1023 1239q9 -41 27 -69 q10 -16 22 -32.5t28 -32.5q31 13 62.5 29t58.5 36q25 17 48.5 37t43.5 41.5t35.5 45.5t27.5 52q8 30 6.5 57t-17 47.5t-44 33t-74.5 12.5q-49 1 -87.5 -12.5t-66.5 -36.5t-45 -54.5t-24 -64.5q-10 -48 -1 -89z" />
<glyph unicode="'" horiz-adv-x="936" d="M562 1297l307 616h284l-411 -616h-180z" />
<glyph unicode="(" horiz-adv-x="1164" d="M344.5 319.5q4.5 192.5 55.5 412.5q46 218 123.5 402t191 346.5t266 307.5t347.5 284l85 -87q-107 -99 -196 -193.5t-162.5 -190t-133 -193.5t-106.5 -205.5t-83.5 -224t-63.5 -246.5q-29 -134 -43 -253t-13.5 -227t15.5 -208.5t47 -198.5t80 -195.5t114 -198.5 l-117 -103q-142 139 -233.5 289.5t-134.5 320t-38.5 362z" />
<glyph unicode=")" horiz-adv-x="1164" d="M66 -549q108 101 197.5 198.5t162.5 195.5t131.5 198.5t105 208.5t83 227.5t65.5 252.5q27 130 40 246.5t11.5 223t-18.5 205.5t-51 194.5t-82 190.5q-47 96 -113 193l120 87q137 -139 228.5 -284t136 -307.5t43 -346.5t-47.5 -402q-43 -220 -119.5 -412.5t-191.5 -362 t-271 -320t-356 -289.5z" />
<glyph unicode="*" horiz-adv-x="1195" d="M400 1300l49 227l336 -70v3l-179 293l231 115l48 -352h12l198 352l182 -115l-307 -293l-2 -3l375 70l-49 -227l-346 66l-6 -10l191 -281l-235 -120l-53 355h-7l-203 -355l-173 120l307 286v5z" />
<glyph unicode="+" horiz-adv-x="1555" d="M255 522l48 237h509l107 508h256l-108 -508h507l-50 -237h-507l-108 -508h-255l107 508h-506z" />
<glyph unicode="," horiz-adv-x="892" d="M216 -359l29 132q2 0 20 0.5t42.5 7.5t52.5 24.5t52 48.5q20 27 31.5 51.5t15.5 44.5t4 33t2 17q-2 1 -14.5 1t-30.5 4t-39.5 12.5t-38 25t-26.5 43.5q-10 28 -6 68q3 38 21.5 76.5t49.5 69t73 50.5t95 20q47 0 78.5 -16.5t48 -42.5t23 -60.5t5 -69.5t-8 -69.5 t-14.5 -60.5q-68 -198 -184.5 -302.5t-280.5 -107.5z" />
<glyph unicode="-" horiz-adv-x="1467" d="M272 522l50 237h1145l-50 -237h-1145z" />
<glyph unicode="." horiz-adv-x="892" d="M297 191q10 49 40.5 91.5t78 70t110.5 27.5t99.5 -27.5t48.5 -70t2 -91.5t-40.5 -92t-78.5 -71t-111 -28t-98.5 28t-48 71t-2.5 92z" />
<glyph unicode="/" horiz-adv-x="1281" d="M-59 0l1483 1464h263l-1483 -1464h-263z" />
<glyph unicode="0" horiz-adv-x="1338" d="M214.5 433q-2.5 96 11 202.5t36.5 213.5q20 98 50.5 199.5t74 197t103 180t138 149t179 101.5t224.5 37q92 2 161 -18t120.5 -57.5t85 -89.5t53.5 -114.5t27.5 -134t4.5 -145.5t-13 -150.5t-27 -149.5q-22 -102 -53.5 -205.5t-77 -200t-106.5 -180.5t-139.5 -146 t-178.5 -97.5t-224.5 -35.5t-209 33.5t-136.5 92.5t-76.5 140.5t-27 177.5zM550.5 461.5q4.5 -59.5 23.5 -105.5t56.5 -73t97.5 -27q56 0 102.5 25t84 68t67.5 101t54 123.5t42.5 135.5t32.5 138q13 65 24.5 134t15 134.5t-2 123t-24.5 101t-54 68.5t-89 25 q-59 0 -106 -23.5t-85 -66t-68 -99t-53.5 -121.5t-42 -135t-33.5 -139q-12 -60 -24.5 -127.5t-17.5 -134t-0.5 -126z" />
<glyph unicode="1" horiz-adv-x="1338" d="M472 1274q-2 17 17.5 35t55.5 44q109 77 205.5 156.5t187.5 163.5q19 16 32.5 26t19.5 10h360l-363 -1709h-346l290 1369q-40 -41 -83 -75t-86.5 -67.5t-87 -64.5t-85.5 -64z" />
<glyph unicode="2" horiz-adv-x="1338" d="M129 0q1 14 4.5 31.5t6.5 34.5t6 33.5t6 30.5q27 132 83.5 235.5t135 186.5t177 152.5t213.5 130.5q56 32 121.5 69t124 82.5t103.5 102t60 127.5q13 61 6.5 104.5t-31 70t-63.5 38.5q-41 12 -92 12q-78 0 -133 -24t-93 -68.5t-62 -104.5t-40 -130q-8 -37 -11 -70.5 t-10 -66.5h-339q4 25 8.5 49t9.5 46q6 31 16 71t26 91q38 126 109 217.5t163 151t198 87t218 27.5q123 0 222 -32t163.5 -97.5t89 -162.5t-2.5 -225q-13 -62 -39 -120.5t-61.5 -110t-80.5 -95t-98 -75.5q-73 -41 -140.5 -81t-133 -80t-130.5 -81t-134 -84q-30 -20 -52 -43.5 t-40 -47t-29 -45t-18 -35.5h727l-65 -302h-1099z" />
<glyph unicode="3" horiz-adv-x="1338" d="M172 268q-22 91 4 211q4 21 10 40t8 36h305q-6 -26 -12.5 -55.5t-6.5 -58.5t10 -57t36.5 -50t73 -35t118.5 -13q58 0 107 12t85.5 38.5t63 68t40.5 101.5q13 59 8 101t-22.5 72t-45 48t-59 28.5t-66 14.5t-63.5 4q-17 0 -37 -2.5t-35 -3.5l-38 -6l58 270h41q37 0 79.5 3 t84 11.5t80 23.5t71.5 41t56 63q24 36 34 87q8 39 0.5 72.5t-30.5 57t-61 37.5q-39 13 -94 13q-41 0 -85.5 -10t-82.5 -31t-67 -55.5t-41 -84.5q-1 -10 -3 -28t-4 -38h-310l7 34q9 78 38 144.5t75.5 120.5t105 96.5t126.5 71t142 43.5t148 15q63 0 125 -11t117 -33 t101 -55.5t75 -81.5t38.5 -108t-6.5 -136q-13 -63 -41.5 -119.5t-68.5 -103t-89 -83.5q-49 -36 -104 -61q60 -22 101 -60.5t61.5 -90t22.5 -115t-13 -135.5q-29 -134 -95.5 -234t-161 -166t-210 -98t-241.5 -32q-123 0 -220.5 30t-159 90.5t-83.5 151.5z" />
<glyph unicode="4" horiz-adv-x="1338" d="M130 408l57 267l906 1034h391l-218 -1030h198l-58 -271h-199l-86 -408h-336l86 408h-741zM516 679h414l134 637z" />
<glyph unicode="5" horiz-adv-x="1338" d="M197 363q0 43 6 84q6 39 10 71h310q-17 -85 0 -130q8 -22 20.5 -41.5t36 -34.5t59.5 -24t87 -9q78 0 134.5 25t95.5 68.5t64 101.5t40 125q67 316 -208 316q-60 0 -118.5 -17t-112.5 -56q-19 -13 -38.5 -30.5t-36.5 -36.5h-269l289 934h977l-64 -306h-705 q-25 -73 -49 -144t-47 -142q20 14 48.5 28.5t63 25t74.5 17.5t83 7q115 0 210.5 -34t156 -105t83.5 -176.5t-4 -248.5q-30 -141 -83.5 -260t-140 -205t-207.5 -134.5t-286 -48.5q-103 0 -178.5 15.5t-129 43.5t-87.5 65t-52.5 80t-25 88t-6.5 88z" />
<glyph unicode="6" horiz-adv-x="1338" d="M208 480.5q5 102.5 26 212t46 215.5q23 92 56.5 187.5t81.5 185.5t111 169t142.5 138t177.5 94t218 35q101 0 173.5 -20t121.5 -51.5t78.5 -72t45.5 -83.5t20 -83.5t2.5 -73t-4.5 -52.5l-4 -20h-305q0 2 1.5 13.5t-0.5 29t-10 39t-28 39t-53 28.5t-84 11q-39 0 -76 -6 t-73.5 -25t-71 -51t-68.5 -82q-20 -31 -35.5 -66.5t-29 -69t-24 -64t-15.5 -55.5q86 70 177.5 100.5t182.5 30.5q119 0 204.5 -37.5t136 -108t62.5 -174.5t-17 -237q-26 -120 -78.5 -227t-138.5 -188t-206 -129t-280 -48q-143 0 -234.5 39.5t-144 106.5t-71 157.5t-13.5 193 zM542.5 452q3.5 -56 26.5 -95.5t65 -60.5t105 -21q70 0 122.5 22t89.5 60.5t60.5 90.5t36.5 114q13 60 11 115t-22 96t-61 64.5t-102 23.5q-63 1 -116 -19.5t-94 -58.5t-68 -91t-41 -116q-16 -68 -12.5 -124z" />
<glyph unicode="7" horiz-adv-x="1338" d="M267 0q16 54 44.5 142t76 200.5t116.5 243t170 271.5q60 84 123.5 163.5t128 150t126.5 130.5t119 110h-755l63 298h1105l-55 -262q-75 -60 -161.5 -148.5t-175.5 -197.5t-175 -232t-158 -251q-54 -96 -90.5 -174t-63 -151t-44.5 -143q-17 -70 -35 -150h-359z" />
<glyph unicode="8" horiz-adv-x="1338" d="M185.5 286.5q-11.5 93.5 13.5 208.5q17 81 49 152t78.5 129.5t107.5 101.5t137 70q-32 13 -64 37.5t-54.5 64.5t-31 98.5t10.5 138.5q23 110 75 191t129.5 134.5t178 80t220.5 27.5q118 2 205.5 -21t143 -71.5t75.5 -125.5q20 -78 2 -186q-15 -88 -47.5 -150t-73 -105.5 t-83.5 -71t-80 -41.5q61 -29 102 -73t61.5 -100t23.5 -123q3 -66 -14 -140q-24 -116 -76.5 -213t-137 -166.5t-201.5 -109t-269 -39.5q-158 0 -260.5 37.5t-155.5 104.5t-64.5 160.5zM520.5 407q5.5 -42 30 -72t68 -46.5t107.5 -16.5q65 0 115 17t86.5 48.5t58.5 72.5 q21 42 32 92q14 69 8.5 119t-30 82t-66.5 47.5t-98 15.5q-127 0 -203 -71.5t-103 -196.5q-11 -49 -5.5 -91zM744 1207.5q5 -36.5 25 -61.5t54 -38t79 -13q106 0 162.5 49.5t73.5 146.5q9 46 -0.5 77.5t-31.5 51t-55.5 28.5t-72.5 9q-34 0 -68.5 -8t-65 -27t-55 -51.5 t-37.5 -80.5q-13 -46 -8 -82.5z" />
<glyph unicode="9" horiz-adv-x="1338" d="M186.5 368q0.5 32 4.5 52l3 20h305q0 -1 -0.5 -12.5t1.5 -29.5t10 -39.5t28 -38.5t52.5 -28.5t84.5 -11.5q39 0 76 6.5t72.5 25t71 51t67.5 82.5q20 31 37.5 66t30 68.5t22 64.5t18.5 55q-88 -70 -179.5 -100t-181.5 -30q-120 0 -205.5 37.5t-136 108t-62.5 174t17 236.5 q25 121 79 228t139.5 188t206 128.5t278.5 47.5q108 0 185.5 -22.5t131.5 -62.5t86 -95.5t46.5 -122.5t14.5 -143t-10 -155t-27.5 -160.5t-37.5 -161.5q-23 -92 -55.5 -187.5t-80.5 -186t-111 -169t-142.5 -138t-178 -94.5t-217.5 -35q-101 0 -172.5 19.5t-121.5 51.5 t-79.5 73t-45.5 84t-20 83.5t-3.5 72.5zM637 1025q2 -55 23 -96t60 -64.5t104 -23.5q63 -2 115 19t92.5 59t68.5 90t43 116q14 69 10.5 125t-26.5 95t-65 60.5t-105 21.5q-70 0 -122.5 -22t-89.5 -60.5t-60.5 -91t-36.5 -113.5q-13 -60 -11 -115z" />
<glyph unicode=":" horiz-adv-x="892" d="M297 191q10 49 40.5 91.5t78 70t110.5 27.5t99.5 -27.5t48.5 -70t2 -91.5t-40.5 -92t-78.5 -71t-111 -28t-98.5 28t-48 71t-2.5 92zM527 1273.5q11 49.5 41 91.5t78 70.5t110 28.5q63 0 99.5 -28.5t49 -70.5t1.5 -91.5t-41 -91.5t-78.5 -70t-111.5 -28t-98.5 28t-48 70 t-1.5 91.5z" />
<glyph unicode=";" horiz-adv-x="892" d="M216 -359l29 132q2 0 20 0.5t42.5 7.5t52.5 24.5t52 48.5q20 27 31.5 51.5t15.5 44.5t4 33t2 17q-2 1 -14.5 1t-30.5 4t-39.5 12.5t-38 25t-26.5 43.5q-10 28 -6 68q3 38 21.5 76.5t49.5 69t73 50.5t95 20q47 0 78.5 -16.5t48 -42.5t23 -60.5t5 -69.5t-8 -69.5 t-14.5 -60.5q-68 -198 -184.5 -302.5t-280.5 -107.5zM550 1273.5q11 49.5 41 91.5t77.5 70.5t110.5 28.5t99.5 -28.5t49 -70.5t1.5 -91.5t-41 -91.5t-78.5 -70t-111.5 -28t-99 28t-48 70t-1 91.5z" />
<glyph unicode="&#x3c;" horiz-adv-x="1470" d="M232 528l63 296l1324 523l-73 -343l-915 -323l775 -336l-73 -341z" />
<glyph unicode="=" horiz-adv-x="1522" d="M220 283l56 259h1213l-56 -259h-1213zM317 741l56 259h1211l-54 -259h-1213z" />
<glyph unicode="&#x3e;" horiz-adv-x="1470" d="M140 4l72 341l916 336l-776 323l73 343l1099 -523l-63 -296z" />
<glyph unicode="?" horiz-adv-x="1610" d="M462.5 1263.5q-3.5 46.5 12.5 107.5q24 96 81 169t137.5 123t180.5 74.5t209 24.5q141 0 239 -31t154 -86.5t72 -132t-5 -168.5q-9 -41 -35.5 -90.5t-72.5 -106t-114 -119.5q-68 -61 -160 -130q-46 -36 -80 -73t-57.5 -78t-40 -85t-28.5 -94l-18 -89h-291l35 159 q11 48 27 87t34.5 69t37.5 52.5t34 38.5q65 69 120.5 114.5t105.5 83.5q38 30 71 56t58.5 55.5t44.5 65.5t29 81q7 32 5.5 65t-21 60t-60 46.5t-110.5 23.5q-9 1 -16 0.5t-16 -0.5q-44 0 -84 -8.5t-73.5 -26.5t-58.5 -46.5t-38 -68.5q-5 -13 -7 -23q-9 -36 0.5 -59t24.5 -37 h-1q13 -11 36 -21t68 -20l-218 -172l-9 -2q-9 -1 -13 0q-11 3 -33.5 11t-47.5 23t-48.5 38t-40 58t-20 81.5zM534 120.5q-5 36.5 4 73.5q8 39 27.5 75.5t51 65t73 46t91.5 17.5q51 0 84.5 -17.5t53 -46t24.5 -64.5q7 -37 -2 -76q-9 -37 -29 -73.5t-51.5 -65t-73 -45.5 t-92.5 -17q-50 0 -83.5 17t-53 45.5t-24.5 65z" />
<glyph unicode="@" horiz-adv-x="2378" d="M509 497q-26 162 14 348q26 123 82 234.5t134 208t175.5 174.5t207 133t228.5 85t239 30q181 0 325 -48t236 -139.5t126.5 -224.5t-1.5 -303q-26 -117 -74.5 -212t-113 -171t-138 -131t-146.5 -90.5t-141 -54.5t-119 -19q-64 0 -98 36.5t-21 111.5h-7 q-31 -27 -67.5 -53.5t-76.5 -47.5t-81.5 -34t-84.5 -13q-77 0 -135 30.5t-93 81t-46 118.5t5 145q17 80 51.5 159t83 151t109.5 133.5t130 107t146.5 71.5t158.5 26q43 0 79.5 -10t66.5 -32t52 -57.5t35 -83.5l79 146h157q-40 -83 -82 -167l-82 -164t-76 -151.5 t-64.5 -129.5t-46.5 -97t-21 -56q-12 -66 35 -66q40 0 85 20t89.5 55.5t86.5 83.5t77 104.5t61.5 118t40.5 124.5q20 92 11.5 168.5t-38.5 136.5t-81.5 105t-118 75t-146 45t-166.5 15q-99 0 -192.5 -24.5t-177 -68.5t-156 -106.5t-131 -139.5t-99.5 -167q-42 -89 -62 -186 q-31 -146 -12.5 -274.5t86.5 -224t183 -150.5t279 -55q83 0 162.5 12.5t159.5 40t160 73.5t165 113h213q-50 -63 -116 -118t-141.5 -100.5t-158 -81t-165.5 -59.5t-163 -37.5t-153 -13.5q-214 0 -366.5 69t-241 189.5t-114.5 282.5zM1031.5 622.5q6.5 -41.5 26 -71.5 t52.5 -46.5t75 -16.5q49 0 98.5 21.5t96.5 57.5t88.5 84t75 99.5t57 105t33.5 99.5q9 43 2 81.5t-26.5 68.5t-50 48t-69.5 18q-53 0 -103.5 -20t-98 -55t-88 -80.5t-74 -96.5t-56.5 -104t-33 -101q-12 -50 -5.5 -91.5z" />
<glyph unicode="A" horiz-adv-x="1698" d="M44 0l973 1685h410l229 -1685h-368l-42 337h-645l-195 -337h-362zM778 625h446l-87 653z" />
<glyph unicode="B" horiz-adv-x="1726" d="M212 0l369 1685h717q112 0 194 -16.5t141 -43t96.5 -61.5t60.5 -73t32.5 -76.5t11.5 -72.5t-1 -59q-3 -26 -5 -40q-9 -39 -27 -83.5t-46.5 -91t-70 -91.5t-98.5 -82q31 -27 60.5 -69t46.5 -96t21 -119q1 -12 0 -25q0 -54 -12 -113q-7 -34 -23 -75.5t-45.5 -88 t-76.5 -96.5t-116 -100q-52 -37 -113 -58.5t-121 -33.5t-115 -16.5t-97 -4.5h-783zM632 287h418q40 0 88.5 6t95 29t84.5 70.5t56 133.5q10 46 6.5 79t-15.5 54.5t-31.5 33.5t-41 18.5t-43 8t-38.5 1.5h-483zM792 1012h403q118 0 189.5 44t94.5 148q6 29 6 53q-1 21 -5 37 q-10 36 -33.5 59t-62.5 33q-37 10 -86 10h-423z" />
<glyph unicode="C" horiz-adv-x="1751" d="M275 604q5 110 30 223t66.5 222t103 208t142.5 182t182.5 143.5t224.5 95t269 34.5q45 0 99 -4.5t110.5 -18t114.5 -39.5t112 -70q51 -44 85 -89t53 -90t27 -88t9 -80.5t-3.5 -68.5t-9.5 -51h-340q3 24 1.5 57.5t-13 70t-35 71.5t-65 61.5t-104.5 40.5q-41 9 -95 8 q-28 0 -58 -2q-111 -9 -198.5 -61t-152 -130t-107 -174.5t-67.5 -195.5q-20 -85 -28 -173q-3 -34 -4 -67q0 -52 8 -101q14 -80 56.5 -144.5t120.5 -100.5q28 -13 60 -20t73 -7q36 0 73 2t82 15q91 27 149 68.5t95.5 86.5t57.5 88q20 40 34 69h340q-48 -146 -129.5 -262 t-194 -197.5t-252.5 -125t-305 -43.5q-138 0 -242 33.5t-177.5 93.5t-118.5 142q-44 83 -64 181q-16 78 -16 163q0 22 1 44z" />
<glyph unicode="D" horiz-adv-x="1751" d="M202 0l367 1685h805q85 0 158.5 -28t133.5 -77.5t103.5 -119.5t67 -155t25.5 -184v-12q0 -93 -22 -192q-24 -112 -58.5 -205.5t-73 -171t-81.5 -138t-84 -107.5q-59 -69 -128 -123.5t-143 -92.5t-147.5 -58.5t-140.5 -20.5h-782zM622 287h286q80 0 149.5 22.5t126.5 62.5 t103 94.5t81.5 119.5t60 138.5t40.5 149.5q21 99 21 189v8q-1 94 -33.5 166.5t-98 115.5t-174.5 43h-319z" />
<glyph unicode="E" horiz-adv-x="1624" d="M204 0l369 1685h1259l-62 -289h-901l-84 -384h831l-64 -291h-831l-95 -434h941l-63 -287h-1300z" />
<glyph unicode="F" horiz-adv-x="1488" d="M194 0l368 1685h1220l-63 -289h-861l-84 -384h758l-65 -291h-758l-157 -721h-358z" />
<glyph unicode="G" horiz-adv-x="1887" d="M276 522q-3 40 -3 81q0 66 9 135q14 111 51 222t96.5 215.5t140.5 195t181.5 163t220.5 118.5q59 23 145.5 41.5t200.5 18.5q62 0 133.5 -6t142.5 -25t136 -56q65 -35 116 -98q39 -48 62.5 -92.5t35.5 -83t15.5 -72t3 -60t-2 -45.5t0.5 -27h-327q-7 76 -38.5 128.5 t-80 85.5t-111.5 48t-133 15q-44 0 -85 -5t-80 -16.5t-78.5 -29t-82.5 -45.5q-66 -41 -118 -104t-91.5 -136t-65 -151.5t-38.5 -152.5q-12 -70 -12 -132v-10q1 -66 15 -113q14 -51 40.5 -102.5t66.5 -93t96 -70t130 -36.5q16 -1 33 -1q31 0 65 4q55 7 111.5 26t113 50 t106.5 77q46 42 73 77.5t42 65t21.5 52.5t9.5 40h-395l63 284h695l-199 -909h-211l1 209q-40 -38 -95 -85t-131 -87t-175 -65q-76 -20 -171 -20q-26 0 -54 2q-116 6 -194 30t-129.5 55t-82.5 65q-30 35 -53 62q-59 73 -93 166t-43 197z" />
<glyph unicode="H" horiz-adv-x="1751" d="M174 0l369 1685h359l-138 -634h689l137 634h356l-369 -1685h-354l166 761h-688l-166 -761h-361z" />
<glyph unicode="I" horiz-adv-x="697" d="M169 0l367 1685h355l-368 -1685h-354z" />
<glyph unicode="J" horiz-adv-x="1357" d="M158 312q1 60 12 118l43 191h355l-37 -171q-3 -15 -8 -38t-6 -47.5t5.5 -49.5t25 -43.5t51.5 -28.5q24 -7 57 -7q14 0 29 1q54 3 93.5 22.5t66 46t42 58t22.5 62.5l275 1259h359l-282 -1283q-20 -77 -63 -150t-121 -146q-46 -42 -97.5 -69.5t-106 -47t-109.5 -29 t-109 -13.5q-31 -2 -61 -2q-22 0 -44 1q-52 3 -96.5 11.5t-80.5 21t-61 28.5q-57 33 -91 81.5t-49 105.5q-14 54 -14 111v7z" />
<glyph unicode="K" horiz-adv-x="1751" d="M194 0l368 1685h359l-162 -740l840 740h423l-848 -733l551 -952h-434l-396 732l-226 -197l-117 -535h-358z" />
<glyph unicode="L" horiz-adv-x="1488" d="M209 0l367 1685h355l-305 -1398h831l-63 -287h-1185z" />
<glyph unicode="M" horiz-adv-x="2016" d="M164 0l368 1685h520l43 -1295l605 1295h519l-367 -1685h-355l298 1360l-610 -1360h-354l-14 1360l-298 -1360h-355z" />
<glyph unicode="N" horiz-adv-x="1751" d="M170 0l368 1685h351l449 -1159l255 1159h358l-368 -1685h-355l-443 1171l-256 -1171h-359z" />
<glyph unicode="O" horiz-adv-x="1887" d="M266 638q4 93 24 189q22 97 60 190t90 179.5t116.5 163t138.5 139.5q67 54 142 94t154.5 66.5t162.5 39.5q82 13 164 13q85 0 162 -13t146 -39.5t126 -66.5t100 -94q46 -63 78 -139q30 -78 44 -164q11 -71 12 -145q0 -17 -1 -34q-3 -93 -24 -190q-20 -96 -59 -189 t-90.5 -179t-115.5 -163t-139 -140q-67 -54 -141.5 -93.5t-153.5 -65.5t-162 -38q-85 -12 -168 -12t-159.5 12t-145 38t-126.5 65.5t-101 93.5q-45 63 -76.5 140t-45.5 163q-12 69 -12 143q-1 18 0 36zM616 692q-1 -16 -1 -33q0 -47 7 -93q9 -60 29 -113t54 -91 q56 -62 132.5 -87.5t162.5 -25.5q85 0 173 25.5t170 87.5q51 38 94.5 90.5t79 113t60.5 127.5q25 66 42 134q13 70 17 137q1 20 2 39q0 46 -6 89q-8 61 -29 113t-56 91q-27 30 -60 51.5t-71.5 34t-79 18.5t-83.5 6q-85 0 -173.5 -24.5t-170.5 -85.5q-51 -39 -94 -91 t-78 -113t-60.5 -128t-41.5 -137q-16 -69 -19 -135z" />
<glyph unicode="P" horiz-adv-x="1624" d="M197 0l369 1685h772q32 0 72.5 -1.5t86 -10t90.5 -25t84 -46.5t70 -77.5t45 -114.5q10 -42 10 -92q0 -17 -2 -35q-4 -70 -20.5 -141t-43.5 -134.5t-58 -109.5q-62 -84 -129 -143.5t-137 -95.5t-144 -50q-56 -11 -115 -11q-17 0 -34 1h-425l-132 -599h-359zM749 888h401 q43 0 78.5 12t64 31.5t50 41.5t36.5 42q14 20 27.5 51.5t23 66t13 69t-2.5 62.5q-9 42 -31.5 67.5t-52 40t-64.5 19.5t-68 5h-363z" />
<glyph unicode="Q" horiz-adv-x="1887" d="M278 638q2 93 24 189q21 97 58.5 190t89.5 179.5t116 162.5q63 77 138 140q67 54 142 94t155 66.5t163 39.5t166 13t161 -13t146 -39.5t125 -66.5t100 -94q46 -63 77.5 -139.5t44.5 -163.5q11 -68 11 -141q0 -19 -1 -38q-3 -93 -23 -190q-18 -81 -48.5 -161.5 t-71.5 -156.5t-90 -145t-106 -129l148 -171l-224 -188l-158 184q-115 -61 -235.5 -87t-241.5 -26q-83 0 -160.5 12t-146 38t-126.5 65.5t-101 93.5q-45 63 -76.5 140t-45.5 163q-11 73 -11 150q0 14 1 29zM626 692q-1 -16 -1 -33q0 -48 7 -93q9 -61 29 -113.5t54 -90.5 q56 -62 132.5 -87.5t162.5 -25.5q51 0 104 9t106 34l-145 163l225 187l156 -176q63 75 105.5 168.5t68.5 192.5q13 70 16 137q2 20 2 39q0 46 -6 89q-9 61 -30.5 113t-54.5 91q-27 30 -61.5 51.5t-71.5 34t-77.5 18.5t-83.5 6q-85 0 -173 -24.5t-171 -85.5q-51 -39 -94 -91 t-78 -113t-60.5 -128t-41.5 -137q-16 -69 -19 -135z" />
<glyph unicode="R" horiz-adv-x="1751" d="M209 0l367 1685h963h5q98 0 169 -36q73 -37 115 -101t54 -150q4 -31 4 -64q0 -57 -13 -120q-14 -66 -45.5 -128t-76 -115.5t-101 -95t-118.5 -66.5q25 -12 51.5 -28.5t48.5 -42.5q20 -26 32 -66q8 -26 8 -60q0 -18 -2 -37q-1 -26 -9 -74.5t-17.5 -104.5t-19.5 -108.5 t-17 -85.5q-8 -36 -8 -59t5 -37t15 -23.5t23 -18.5l-13 -64h-385q-13 34 -15 73q-1 13 -1 27q0 27 3 56q6 31 14 72t17 84.5t20 90.5q11 49 22 95q4 22 4 40q0 56 -35 86q-47 40 -145 40h-420l-145 -664h-354zM771 952h490q30 0 71 16t80 47.5t72 78.5t46 110q7 33 7 60 q0 12 -1 22q-4 36 -25 60.5t-59.5 37t-98.5 12.5h-484z" />
<glyph unicode="S" horiz-adv-x="1624" d="M197 378q-1 15 -1 30q0 45 7 90h348q-3 -16 -5 -37t2 -43t13.5 -45.5t26.5 -45.5q23 -30 55 -50t72.5 -31t85 -15t90.5 -4q44 0 87.5 6.5t82.5 16.5t70.5 24.5t51.5 30.5q34 25 59 61t35.5 75t5.5 78t-30 70q-25 30 -66.5 50t-95 35t-115.5 26t-125 21.5t-124.5 24 t-114.5 32.5q-66 26 -119 62.5t-84 91.5q-31 56 -35 132q-1 9 -1 18q0 70 30 161q32 101 94 187t155.5 149t219.5 98t285 35q23 0 63 -1.5t88.5 -8t103.5 -21t107.5 -38.5t98 -60t78.5 -89q26 -44 36 -92t12 -92v-17q0 -33 -5 -63q-6 -36 -14 -59h-338q7 29 7 56q0 22 -4 43 q-10 47 -44.5 83.5t-97.5 58.5t-158 22h-20q-54 0 -104 -9q-58 -11 -105 -33.5t-80 -59.5q-35 -36 -49 -89q-14 -45 -7.5 -74t21.5 -49t32 -31t26 -17q11 -7 41 -17t71 -20.5t87.5 -20.5t88.5 -19.5t76 -16.5q35 -6 50 -8l70 -14t98 -28t104.5 -51t88.5 -83.5t52 -123.5 q6 -28 6 -61q0 -50 -14 -111q-30 -139 -103.5 -242.5t-178.5 -171.5t-234.5 -102.5t-272.5 -34.5q-78 0 -148 6t-130.5 19.5t-113 35.5t-93.5 56q-50 42 -82 92.5t-49.5 106t-20.5 115.5z" />
<glyph unicode="T" horiz-adv-x="1488" d="M356 1396l63 289h1391l-63 -289h-509l-306 -1396h-354l306 1396h-528z" />
<glyph unicode="U" horiz-adv-x="1751" d="M287 389.5q0 69.5 15 132.5l254 1163h358l-255 -1167q-5 -28 -8 -58t3.5 -60t23.5 -57t48.5 -48.5t81.5 -33.5t123 -12q106 0 176.5 27t115 68t67.5 87.5t31 86.5l255 1167h356l-255 -1163q-11 -54 -36 -122t-73.5 -137t-127.5 -133t-199 -113q-90 -36 -181.5 -53 t-188.5 -17q-92 0 -173 12q-82 10 -149 44q-100 50 -156 114.5t-81 133.5t-25 138.5z" />
<glyph unicode="V" horiz-adv-x="1534" d="M395 1685h359l101 -1273l659 1273h362l-957 -1685h-307z" />
<glyph unicode="W" horiz-adv-x="2193" d="M370 1685h382l-10 -1266l532 1266h382l-20 -1280l543 1280h381l-855 -1685h-322l-6 1283l-565 -1283h-323z" />
<glyph unicode="X" horiz-adv-x="1534" d="M17 0l735 849l-340 836h420l185 -544l437 544h421l-718 -826l362 -859h-421l-206 571l-454 -571h-421z" />
<glyph unicode="Y" horiz-adv-x="1534" d="M396 1685h395l193 -725l492 725h399l-785 -1064l-136 -621h-355l136 621z" />
<glyph unicode="Z" horiz-adv-x="1488" d="M87 0l63 287l1128 1109h-885l63 289h1306l-62 -289l-1132 -1109h889l-63 -287h-1307z" />
<glyph unicode="[" horiz-adv-x="790" d="M54 -480l472 2216h574l-50 -239h-264l-368 -1732h264l-53 -245h-575z" />
<glyph unicode="\" horiz-adv-x="772" d="M360 1703h239l170 -1736h-238z" />
<glyph unicode="]" horiz-adv-x="790" d="M-59 -480l53 245h263l369 1732h-264l50 239h575l-471 -2216h-575z" />
<glyph unicode="^" horiz-adv-x="1389" d="M283 645l609 1010h298l189 -1010h-268l-131 711l-429 -711h-268z" />
<glyph unicode="_" horiz-adv-x="1441" d="M-89 -435l45 205h1427l-45 -205h-1427z" />
<glyph unicode="`" horiz-adv-x="790" d="M430 1786h377l92 -359h-211z" />
<glyph unicode="a" horiz-adv-x="1374" d="M159 228q-2 17 -2 36q0 38 9 81q16 71 46 139t83.5 124t134.5 94q82 39 196 49q46 3 94 9t93.5 14t86 16.5t71.5 18.5q24 10 42.5 21t31.5 26t21 36q6 22 9 53q5 20 -1 42.5t-26.5 40t-59 30t-97.5 12.5q-73 0 -119 -19.5t-74.5 -50t-44 -67t-27.5 -72.5h-310 q21 101 64 175t97.5 124t118 80t126 45t119.5 20t101 5q98 0 174.5 -13.5t119.5 -33.5q44 -20 79 -51t57 -74q22 -44 28 -102q2 -16 2 -33q0 -46 -12 -102l-150 -704q-4 -18 -4 -35q0 -24 8 -48q13 -40 40 -70l-8 -44h-357q-14 23 -14.5 58.5t9.5 68.5q-55 -43 -104 -73 t-102 -49t-113 -28.5t-132 -9.5q-37 0 -77 10t-78 31.5t-69.5 52.5t-52 73t-27.5 94zM499 330q1 -28 11.5 -53t33 -41t60.5 -21q12 -2 26 -2q29 0 65 7q74 12 127 42t88 73t55 94t32 106l15 73q-41 -23 -84.5 -34.5t-86 -18t-81.5 -9.5t-75 -8q-39 -7 -73 -26t-60 -46.5 t-40 -62t-13 -73.5z" />
<glyph unicode="b" horiz-adv-x="1505" d="M166 0l369 1736h332l-132 -623h7q19 32 56 67.5t88.5 64t117.5 47t143 18.5q30 0 65 -3t72 -13t73.5 -29t69 -50t58 -75.5t39.5 -107.5q18 -72 18 -164.5t-19.5 -192t-57.5 -198.5t-95 -188q-54 -82 -117 -141t-132 -99t-143 -60t-153 -22q-40 2 -82 9t-81 24t-72.5 48 t-56.5 79h-7l-27 -127h-333zM619.5 477q1.5 -32 6.5 -59.5t9 -47.5q13 -40 34.5 -67.5t47 -44t54 -24t57.5 -7.5t61 7.5t64 24t64.5 44t60.5 67.5q13 20 29.5 47.5t32 59.5t29.5 69q12 37 21 76q8 43 11 81t1.5 70t-5.5 58t-10 44q-13 40 -33 68t-45 45t-53.5 25t-57.5 8 q-28 0 -61 -8t-65.5 -25t-65 -45t-62.5 -68q-13 -17 -29.5 -43.5t-32.5 -58.5t-29.5 -70t-21.5 -81q-9 -40 -11 -76.5t-0.5 -68.5z" />
<glyph unicode="c" horiz-adv-x="1374" d="M218 358q-5 38 -5 80q1 95 25 207q34 160 102 287.5t165 215.5t219.5 134t265.5 46q115 0 203 -26t147 -85.5t86 -154.5q22 -78 22 -185q0 -24 -1 -49h-323v9q0 55 -12 95q-12 43 -36.5 70.5t-59.5 40t-81 12.5q-60 0 -114.5 -21.5t-100 -67t-80.5 -118.5 q-34 -73 -57 -177q-22 -107 -23 -184q0 -6 1 -13q2 -81 27 -131.5t71 -74t107 -23.5q96 0 171 57t113 170l317 -3q-49 -132 -114.5 -227.5t-150 -157t-186.5 -91.5t-224 -30q-139 0 -239.5 47t-160 134.5t-74.5 213.5z" />
<glyph unicode="d" horiz-adv-x="1517" d="M232 476q5 100 28 199.5t62.5 192t87.5 164.5q39 58 83.5 100.5t91 74t93 51.5t88.5 31.5t77.5 16t61.5 4.5q77 0 133.5 -11t96 -31.5t65.5 -49.5q27 -30 41 -68v3l123 583h335l-369 -1736h-333l27 127h-7q-43 -48 -90.5 -79t-94 -48t-91.5 -24t-85 -9q-78 2 -144 22 t-118 60t-88.5 100t-56.5 140q-18 71 -18 150q0 18 1 37zM557 477q1 -32 6 -59.5t10 -47.5q13 -40 33 -67.5t45 -44t54 -24t57 -7.5q29 0 61 7.5t65 24t65 44t64 67.5q14 20 29.5 47.5t31 59.5t29 69t21.5 76q13 66 13 121q0 17 -1 31q-5 66 -16 101q-13 40 -34.5 68t-47 45 t-54 25t-57.5 8t-60.5 -8t-64 -25t-64 -45t-61.5 -68q-13 -17 -29.5 -43.5t-31.5 -58.5t-28.5 -70t-22.5 -81q-8 -40 -10.5 -76.5t-1.5 -68.5z" />
<glyph unicode="e" horiz-adv-x="1374" d="M209 633q34 161 105 289t169 216.5t221 135.5t258 47q133 0 233.5 -47t158 -144.5t68.5 -242.5q2 -28 3 -58q0 -125 -38 -284h-854q-9 -47 -9 -87q0 -24 3 -47q9 -59 38.5 -100t76 -62.5t106.5 -21.5q80 0 146.5 36t116.5 115l327 -5q-117 -209 -277 -306t-372 -97 q-168 0 -281 55q-111 55 -168 165q-53 106 -53 247q0 91 22 196zM586 758h509q10 47 10 86q1 22 -3 42q-8 56 -34 94t-66.5 58t-92.5 20q-115 0 -203 -80q-47 -41 -77.5 -96t-42.5 -124z" />
<glyph unicode="f" horiz-adv-x="843" d="M240 0l220 1042h-178l45 221h181l33 150q15 73 45 132t78 101.5t112.5 66t145.5 23.5h209l-53 -250h-117q-72 0 -92 -87l-28 -136h197l-47 -221h-197l-222 -1042h-332z" />
<glyph unicode="g" horiz-adv-x="1505" d="M97 -150h348q-6 -27 4 -53.5t35 -47.5t66.5 -33.5t97.5 -12.5q54 0 110.5 18.5t103.5 51.5t81.5 78.5t46.5 101.5l38 179q-30 -35 -68.5 -68.5t-86.5 -60t-105 -42t-123 -15.5q-70 0 -121 7t-89.5 24t-70.5 44.5t-62 65.5q-50 67 -74 153q-23 84 -23 176v8q1 97 24.5 199 t68 198.5t108 183t145 153t179 106.5t208.5 46q77 0 128 -15t84.5 -39.5t55 -56t40.5 -64.5l28 153h315l-285 -1335q-16 -76 -52 -142.5t-88.5 -121.5t-117.5 -98t-138.5 -72.5t-153 -45t-158.5 -15.5q-131 0 -232 32t-165.5 86.5t-90.5 125.5q-16 45 -16 92q0 28 5 56z M526 520q-1 -11 -1 -23q0 -35 5 -68q8 -44 24.5 -83.5t42.5 -69t65 -46.5t90 -17q75 0 139 36t114 93t84 128q34 73 49 142q9 43 10 88q1 9 1 18q0 36 -5 72q-7 45 -23.5 85t-43.5 70t-65 47.5t-90 17.5q-78 0 -141 -36t-111 -93t-81 -128.5t-51 -140.5q-10 -44 -12 -92z " />
<glyph unicode="h" horiz-adv-x="1505" d="M180 0l369 1736h333l-131 -619q18 37 54.5 70t84.5 59.5t104 43t116 20.5q23 1 44 1q86 0 156 -19q86 -24 140 -79t72 -141q7 -35 7 -76q0 -60 -16 -132l-183 -864h-333l161 765q6 29 10.5 58t3 57.5t-11.5 54t-33 44t-61 29t-95 10.5q-74 0 -125.5 -19t-84.5 -50.5 t-51 -71t-26 -79.5l-171 -798h-333z" />
<glyph unicode="i" horiz-adv-x="715" d="M187 0l273 1288h335l-274 -1288h-334zM493 1439l63 297h333l-62 -297h-334z" />
<glyph unicode="j" horiz-adv-x="715" d="M-73 -521l57 272q22 0 48.5 -1.5t51.5 6t45 26.5t28 61l308 1445h333l-325 -1530q-10 -45 -32.5 -88t-55.5 -77.5t-74.5 -59.5t-87.5 -35q-71 -14 -146.5 -16.5t-149.5 -2.5zM498 1439l61 297h333l-61 -297h-333z" />
<glyph unicode="k" horiz-adv-x="1337" d="M166 0l369 1736h332l-201 -948h8l519 500h381l-540 -490l296 -798h-388l-187 552l-172 -149l-84 -403h-333z" />
<glyph unicode="l" horiz-adv-x="715" d="M187 0l369 1736h333l-368 -1736h-334z" />
<glyph unicode="m" horiz-adv-x="2167" d="M177 0l273 1288h334l-36 -168h4q24 28 55 62t75.5 62.5t105 47t145.5 18.5q72 0 121.5 -19.5t84 -48t56.5 -60.5q21 -32 38 -58q26 27 61.5 60t85 61.5t116 48.5t150.5 20q99 0 170.5 -38t113 -105.5t50.5 -163.5q2 -26 2 -54q0 -74 -17 -158l-169 -795h-333l169 795 q10 44 10 77q0 20 -4 36q-10 44 -32.5 69t-56 34.5t-67.5 9.5q-68 0 -114 -23.5t-77 -58.5t-47.5 -75t-22.5 -73l-168 -791h-334l169 791q8 37 8 69q0 16 -2 30q-6 42 -26.5 72t-53.5 44.5t-76 14.5q-44 0 -85 -13.5t-76 -42t-60.5 -72.5t-38.5 -102l-167 -791h-334z" />
<glyph unicode="n" horiz-adv-x="1505" d="M180 0l275 1288h333l-42 -193h3q69 102 174 158.5t257 56.5q81 0 152.5 -24.5t121 -77.5t67.5 -138q7 -35 8 -76q0 -59 -16 -130l-183 -864h-333l161 765q6 29 10.5 58t3 57.5t-11.5 54t-33 44t-61 29t-95 10.5q-46 0 -84.5 -15t-70.5 -39t-58 -56.5t-44.5 -65.5 t-30.5 -65t-17 -59l-153 -718h-333z" />
<glyph unicode="o" horiz-adv-x="1505" d="M222 474q5 76 23 157q17 77 44 152t65 142t86.5 126t105.5 102q52 40 109 70t118 48.5t124.5 28.5t124.5 10q65 0 125 -10t113 -28.5t98 -48.5t78 -70q38 -45 62 -103t33 -125q6 -46 6 -97q0 -22 -1 -45q-4 -75 -22 -152q-17 -82 -44 -157.5t-65.5 -143.5t-86.5 -126 t-105 -101q-103 -80 -227 -118.5t-254 -38.5q-61 0 -120 10t-112.5 28.5t-98.5 48.5t-78 70q-38 44 -62 101.5t-34 125.5q-7 45 -7 94q0 25 2 50zM566 479q3 -33 9 -58.5t11 -42.5q15 -43 37 -72t49 -45t58 -23.5t62 -7.5q32 0 66 7.5t68.5 23.5t69 45t65.5 72 q13 17 30 42.5t33.5 58.5t31 71t22.5 81q9 40 10.5 76.5t-1 68.5t-8 58.5t-11.5 43.5q-14 43 -36 71.5t-49.5 45t-59 23.5t-62.5 7t-65 -7t-68 -23.5t-68.5 -45t-67.5 -71.5q-13 -17 -29.5 -43.5t-33 -58.5t-30.5 -69.5t-21 -75.5q-9 -43 -12 -81t0 -71z" />
<glyph unicode="p" horiz-adv-x="1505" d="M56 -521l386 1817h332l-43 -201q31 43 69 82t84.5 68t103.5 47t129 18q71 0 125 -15t93 -38t66 -50q26 -27 46 -50q47 -63 71.5 -149.5t25.5 -183.5q1 -7 1 -14q0 -91 -20 -188q-21 -103 -60 -201t-97 -183.5t-134 -150.5q-49 -40 -96.5 -66.5t-96.5 -43.5t-100.5 -24 t-105.5 -7q-134 0 -208.5 49t-100.5 137l-138 -653h-332zM617 472.5q1 -32.5 5 -58.5t10 -48q13 -40 33.5 -68t46.5 -45t54.5 -25t57.5 -8q28 0 60.5 8t65 25t65 45t63.5 68q27 42 60 107q32 65 49 145q13 63 13 117v29q-5 65 -15 107q-12 40 -33 68t-46.5 45.5t-54.5 25.5 t-57 8q-29 0 -61 -8t-65 -25.5t-66 -45t-63 -68.5q-28 -42 -60 -107q-33 -66 -48 -146q-9 -40 -12 -76.5t-2 -69z" />
<glyph unicode="q" horiz-adv-x="1505" d="M198 424q2 99 26.5 203t67.5 201t103 182t134 147q30 23 68 50t85 50t106.5 38t135.5 15q77 0 128 -17t83 -46.5t50.5 -69t28.5 -82.5h7l42 193h333l-383 -1809h-335l139 653q-29 -38 -68.5 -71.5t-88 -59t-106.5 -40.5t-123 -15q-59 0 -108.5 7t-91.5 24t-78 44.5 t-67 65.5q-47 65 -68 152q-20 80 -20 169v16zM544 454q2 -65 14 -107q27 -80 79 -112.5t117 -32.5q27 0 58.5 7.5t64 25t65.5 45.5q30 27 62 67q13 21 29.5 48t32 59t29 69.5t22.5 79.5q13 68 13 124v29q-5 68 -16 105q-13 43 -33.5 71.5t-45.5 45.5t-53 24.5t-55 7.5 q-32 0 -65.5 -7.5t-65.5 -24.5t-65 -45.5t-65 -71.5q-12 -17 -27.5 -44.5t-30.5 -60t-28.5 -71.5t-21.5 -82q-15 -74 -15 -133q0 -8 1 -16z" />
<glyph unicode="r" horiz-adv-x="979" d="M177 0l273 1288h334l-53 -248h4q16 28 32.5 53t36.5 49.5t47 49t66 49.5q24 16 49 28t56.5 21.5t71 14.5t90.5 5l-73 -340q-17 3 -37 3q-20 1 -44 -3q-46 -8 -94 -27t-96 -51.5t-88 -74t-69 -92t-41 -107.5l-131 -618h-334z" />
<glyph unicode="s" horiz-adv-x="1374" d="M174 234q-5 28 -5 60q0 39 7 84h329q4 -56 20 -92.5t44.5 -56.5t71.5 -27.5t101 -7.5q56 0 100.5 15.5t74.5 39.5t46.5 52.5t17.5 56t-12 50.5q-14 24 -44 32l-387 121q-83 25 -129.5 61t-67.5 77.5t-21 85.5t10 90q12 65 35.5 117t54 93.5t66.5 73t73 54.5q32 20 72 37 t86.5 30t98 20.5t103.5 9.5h21l83 -3q52 -4 101.5 -15t94 -30t81.5 -46q57 -46 85.5 -92t38.5 -89q6 -29 6 -57q0 -12 -2 -26q-4 -40 -11 -77h-322q6 30 0.5 63.5t-27 61.5t-63 46.5t-107.5 18.5q-19 0 -52.5 -5.5t-67.5 -19t-62 -38t-35 -61.5q-9 -42 3 -67t61 -43 q23 -7 60 -18.5t80 -25t90 -28t89.5 -28t77.5 -25.5q36 -11 56 -18q42 -17 74 -45t53 -66q21 -37 27 -87q2 -15 1 -31q0 -37 -9 -79q-24 -115 -89 -196t-154 -131t-195.5 -73.5t-214.5 -23.5q-80 0 -154 9t-134.5 28.5t-108.5 51.5t-79 79.5t-41 109.5z" />
<glyph unicode="t" horiz-adv-x="843" d="M266 202l180 840h-164l45 221h165l74 351h333l-72 -351h185l-45 -221h-188l-156 -727q-4 -23 -5.5 -43t1 -35t11.5 -24t25 -9l124 -2l-47 -225q-77 -27 -164 -31q-40 -3 -77.5 2t-77.5 15q-34 11 -62.5 30.5t-48.5 49t-30 68.5q-7 30 -7 67q0 12 1 24z" />
<glyph unicode="u" horiz-adv-x="1505" d="M250 223q-2 20 -2 43q0 56 15 126l192 896h333l-179 -838q-6 -32 -6 -62q1 -9 1 -18q2 -38 23 -66.5t63 -45t112 -16.5q49 0 89 14t72 37.5t57 54t42.5 60.5t27.5 57q8 27 14 47l166 776h333l-273 -1288h-333l34 160h-7q-79 -96 -187 -146q-108 -51 -254 -51q-27 0 -67 5 t-82 19t-82 42t-67 76t-35 118z" />
<glyph unicode="v" horiz-adv-x="1348" d="M327 1288h352l70 -943l468 943h352l-720 -1288h-347z" />
<glyph unicode="w" horiz-adv-x="1906" d="M320 1288h344l10 -903l378 903h348l-4 -903l393 903h343l-632 -1288h-345l-8 908l-398 -908h-343z" />
<glyph unicode="x" horiz-adv-x="1285" d="M19 0l556 641l-269 647h400l125 -390l300 390h391l-558 -647l292 -641h-399l-136 380l-303 -380h-399z" />
<glyph unicode="y" horiz-adv-x="1348" d="M113 -521l57 272q32 -4 61 -4q28 0 53 3q51 8 99 34q59 30 89 86q25 44 25 100q0 15 -2 30l-178 1288h371l78 -936l467 936h344l-879 -1555q-7 -16 -19.5 -35.5t-29 -41.5t-37 -45t-44.5 -43q-23 -18 -58 -32t-78 -24t-89 -15.5t-88.5 -10t-80 -6t-61.5 -1.5z" />
<glyph unicode="z" horiz-adv-x="1242" d="M77 0l59 275l795 743h-594l58 270h1001l-58 -270l-789 -743h649l-58 -275h-1063z" />
<glyph unicode="{" horiz-adv-x="925" d="M199 528l47 223q11 0 31 -1t41.5 1.5t44.5 8t44 17.5t36 33.5t22 53.5l116 546q11 56 35.5 102.5t55 83t65 63t68 43.5t63.5 25.5t53 8.5h202l-51 -236h-88q-40 0 -63.5 -10.5t-38 -28t-20.5 -39.5q-7 -23 -13 -46l-108 -508q-10 -46 -29.5 -80t-44.5 -59t-52 -41.5 t-55 -26.5t-52.5 -15t-42.5 -8q15 -3 38 -7.5t46.5 -13.5t45 -25.5t35.5 -43.5t16.5 -67.5t-8.5 -95.5l-107 -505q-6 -23 -8 -46.5t4 -42t26 -29.5t59 -11h89l-49 -231h-203q-33 0 -75 19t-76.5 59t-50.5 102q-17 60 2 146l116 546q8 37 1.5 61.5t-20.5 40t-34 22.5 t-41.5 9.5t-40 2.5h-31.5z" />
<glyph unicode="|" horiz-adv-x="664" d="M134 -480l472 2216h191l-471 -2216h-192z" />
<glyph unicode="}" horiz-adv-x="925" d="M70 -480l49 231h87q40 0 65 11t39.5 29.5t21.5 41.5t13 47l107 505q17 84 53.5 133.5t78 76t82 35t66.5 11.5q-17 1 -39 4.5t-46 11.5t-45 23t-35.5 39.5t-19 61t7.5 87.5l107 508q6 23 8 46.5t-4.5 41t-26.5 29t-60 11.5h-87l49 232h201q22 0 48.5 -8.5t52.5 -25.5 t49 -43.5t38 -63t18.5 -83t-7.5 -102.5l-117 -546q-7 -32 0 -53.5t22 -33.5t36.5 -17.5t43 -8t40.5 -1.5q21 1 32 1l-48 -223h-31.5t-41.5 -2.5t-46 -9.5t-45 -22.5t-37.5 -40t-24.5 -61.5l-116 -546q-13 -58 -36 -103.5t-53.5 -81.5t-64.5 -62.5t-67.5 -44t-63.5 -26 t-53 -8.5h-200z" />
<glyph unicode="~" horiz-adv-x="1389" d="M209 413q11 37 24 80t32.5 86t46.5 81.5t66 67.5q27 23 64 40.5t79 25.5t86.5 3t90.5 -28l257 -136q66 -32 114.5 -35t81.5 13.5t50 45.5t20 61l172 -33q-9 -53 -48 -119.5t-99 -130.5q-23 -22 -58 -45.5t-81.5 -35.5t-105.5 -5.5t-127 43.5l-263 124q-45 22 -77 28.5 t-53.5 1.5t-35 -19.5t-23 -34t-15 -40t-12.5 -39.5h-186z" />
<glyph unicode="&#xa2;" horiz-adv-x="1317" d="M245 -232l228 445q-71 36 -120.5 94.5t-74.5 136t-27 171t19 200.5q32 152 99 270.5t162 201t214 125t256 42.5q26 0 53 -2t56 -5l221 436l135 -41l-220 -429q100 -40 155 -128q55 -90 65 -224l-333 -57q2 84 -30 131l-359 -695q12 -2 24.5 -5t25.5 -3q91 0 163.5 54.5 t122.5 181.5l309 -53q-98 -223 -263.5 -334.5t-401.5 -111.5q-29 0 -57.5 2t-55.5 9l-233 -450zM609 832q-48 -227 19 -326l353 692h-31q-59 0 -112 -20.5t-96.5 -63.5t-77 -113t-55.5 -169z" />
<glyph unicode="&#xa3;" horiz-adv-x="1317" d="M67 253q77 47 135 98t98 101.5t64.5 102t34.5 100.5q3 16 6 31.5t4 34.5h-243l54 253h183q-15 140 13 277q12 66 42.5 127t77.5 115t106 98.5t126 76t140 46.5t147 12q231 0 341 -113q108 -113 94 -335l-323 -41q3 61 -8.5 105.5t-33.5 72.5t-56 41.5t-75 13.5 q-47 0 -91 -17t-79.5 -46.5t-60 -69t-34.5 -86.5q-5 -25 -8 -59t-3 -71t3 -75.5t5 -71.5h367l-55 -253h-309q0 -13 -2 -26.5t-6 -26.5q-10 -46 -26 -86t-45 -83t-74 -91.5t-113 -112.5q70 31 168 32q18 0 36 -0.5t37 -3.5l91 -21q69 -17 114 -26t68 -9q45 0 108 16t142 47 l67 -274q-37 -20 -79 -35t-86 -25t-87.5 -16t-84.5 -6q-55 0 -121.5 11.5t-149.5 35.5q-83 23 -143 36t-100 13q-73 0 -148 -23.5t-161 -75.5z" />
<glyph unicode="&#xa5;" horiz-adv-x="1317" d="M134 352l48 221h427l40 183h-429l47 222h302l-206 731h358l127 -492q13 -46 19.5 -86.5t10.5 -78.5q17 41 41.5 80t51.5 85l345 492h354l-520 -731h309l-46 -222h-438l-38 -183h436l-47 -221h-437l-74 -352h-327l74 352h-428z" />
<glyph unicode="&#xa9;" horiz-adv-x="1818" d="M152 643q-9 116 22 235q28 124 83 239.5t142 225.5q86 111 191.5 197.5t223 144.5t241 89t243.5 31q119 0 226 -30q109 -30 203 -90q98 -59 166 -147t105.5 -194t44 -224.5t-19.5 -241.5q-20 -120 -77 -236t-142 -221t-191 -192t-224 -150t-241.5 -95.5t-242.5 -27.5 q-123 -6 -233.5 27t-202 96t-160.5 150t-109 192t-48 222zM370.5 695.5q5.5 -89.5 36.5 -169.5t84.5 -147t123.5 -115t155 -74q85 -24 180 -21q91 -3 186 22t186 73t172.5 115t146.5 147t110 170t61 182q24 96 18.5 187.5t-37 172t-84.5 148t-123 114.5t-154.5 72t-178.5 21 q-93 4 -188 -21t-186 -72t-173.5 -114.5t-147.5 -148t-110 -172t-60 -187.5q-23 -93 -17.5 -182.5zM635 657.5q-14 94.5 11 213.5q26 123 80.5 220t129.5 163.5t168.5 101t199.5 34.5q146 0 232.5 -68.5t109.5 -223.5l-208 -43q-14 89 -58 126t-119 37q-56 0 -105 -20 t-91.5 -61.5t-74.5 -105.5t-51 -153q-18 -87 -14 -152t27 -107.5t61 -63t88 -20.5q76 0 146.5 49t125.5 158l183 -64q-77 -153 -199 -234t-275 -81q-103 0 -180.5 34.5t-125 100t-61.5 160z" />
<glyph unicode="&#xab;" horiz-adv-x="1372" d="M253 641l496 544h268l-431 -544l196 -557h-267zM725 641l496 544h265l-428 -544l192 -557h-263z" />
<glyph unicode="&#xad;" horiz-adv-x="1467" d="M272 522l50 237h1145l-50 -237h-1145z" />
<glyph unicode="&#xae;" horiz-adv-x="1969" d="M236 610.5q-9 117.5 19 246.5q27 130 85.5 247t140.5 217t183.5 181.5t216 139t237.5 88t248 30.5q121 0 229 -30.5t197.5 -88t156 -139t105 -181.5t47 -218t-18.5 -246.5t-85.5 -246t-140 -216.5t-183 -180.5t-214.5 -139t-234 -88t-243 -30.5q-124 0 -234 30.5t-200 88 t-157.5 139t-106.5 180.5t-48 216.5zM461 661.5q5 -92.5 32.5 -171t76 -142t117 -109t153 -69.5t182.5 -24q96 0 190 24t179.5 69.5t161.5 109t137.5 142t105.5 171.5t66 195q33 154 7 284t-99 224.5t-187 148t-259 53.5q-98 0 -193.5 -24t-182 -69t-163 -109t-137 -142.5 t-105 -170.5t-65.5 -195q-22 -103 -17 -195.5zM662 347l222 1043h579q40 -1 75.5 -11t64.5 -31t46.5 -51.5t19.5 -73.5q3 -16 4.5 -37.5t-1.5 -48t-11 -58t-25 -65.5q-19 -34 -38 -58t-40.5 -42.5t-46 -33.5t-54.5 -31q13 -10 29.5 -20.5t29.5 -25.5t20 -39q8 -23 6 -58 q-2 -17 -5.5 -47t-9 -64t-11.5 -67t-10 -56q-4 -22 -4 -35.5t2.5 -23.5t8.5 -15.5t11 -12.5l-8 -38h-228q-10 23 -12 47q-3 24 0 49q7 45 17.5 97t27.5 115q9 53 -17 78t-88 25h-254l-87 -411h-213zM1000 938h293q20 0 47 10t52 30t43.5 49.5t23.5 67.5q5 29 3 50.5 t-15.5 36.5t-37 23t-61.5 8h-288z" />
<glyph unicode="&#xbb;" horiz-adv-x="1372" d="M144 84l432 547l-196 554h266l263 -554l-497 -547h-268zM618 84l430 547l-196 554h268l261 -554l-496 -547h-267z" />
<glyph unicode="&#xbc;" horiz-adv-x="2227" d="M396 -66l1440 1856h195l-1442 -1856h-193zM403 1380l39 183q61 17 118.5 43.5t113.5 63.5q38 26 68 55.5t52 64.5h183l-193 -912h-228l132 615q-66 -39 -136 -66t-149 -47zM1296 174l37 172l582 568h186l-119 -564h127l-37 -176h-129l-37 -175h-216l37 175h-431z M1546 350h219l57 271z" />
<glyph unicode="&#xbd;" horiz-adv-x="2192" d="M396 -66l1440 1856h195l-1442 -1856h-193zM403 1380l39 183q61 17 118.5 43.5t113.5 63.5q38 26 68 55.5t52 64.5h183l-193 -912h-228l132 615q-66 -39 -136 -66t-149 -47zM1276 1q38 102 104 182q37 42 106.5 97.5t175.5 129.5q80 53 128.5 87.5t65.5 51.5q26 26 39 49 t18 47q10 44 -16.5 70t-83.5 26q-31 0 -56 -7.5t-44.5 -23t-32.5 -41.5q-14 -28 -24 -66l-226 20q23 69 57.5 120.5t76.5 84.5q118 89 294 89q83 0 142 -21t95.5 -56.5t49.5 -83t1 -100.5q-7 -33 -19.5 -63.5t-33.5 -60.5t-50 -60q-30 -30 -67 -62q-17 -15 -64 -49 q-47 -35 -124 -86q-42 -28 -71.5 -49.5t-44.5 -33.5h376l-40 -191h-732z" />
<glyph unicode="&#xbe;" horiz-adv-x="2290" d="M352 1143l229 25q-8 -68 21.5 -100.5t85.5 -32.5q58 0 102.5 34.5t57.5 98.5q6 26 1.5 47.5t-18 37t-35 24.5t-48.5 9q-19 0 -46.5 -5t-66.5 -14l63 176q48 0 82 8t56.5 21.5t35 31.5t16.5 38q7 34 -13.5 54.5t-73.5 20.5t-86.5 -26.5t-55.5 -90.5l-210 30 q56 127 126 176q56 41 122.5 62.5t147.5 21.5q74 0 130 -20t90.5 -54t47 -78.5t2.5 -91.5q-5 -26 -15 -46t-25 -40q-25 -27 -51.5 -48.5t-58.5 -38.5q70 -30 100 -86t15 -134q-13 -56 -50.5 -108.5t-94 -92.5t-129 -64t-154.5 -24q-77 0 -135 19t-96 55t-56 88t-13 117z M488 -66l1441 1856h190l-1441 -1856h-190zM1358 176l38 173l577 568h188l-120 -565h131l-38 -176h-131l-37 -175h-213l37 175h-432zM1607 352h221l58 271z" />
<glyph unicode="&#xd7;" horiz-adv-x="1720" d="M386 277l435 361l-282 359l217 180l285 -359l435 359l131 -167l-434 -361l283 -359l-219 -180l-283 359l-436 -359z" />
<glyph unicode="&#xf7;" horiz-adv-x="1458" d="M240 518l52 247h1199l-51 -247h-1200zM594 200q9 46 38 85.5t73 66t103 26.5t93 -26.5t45 -66t1.5 -85.5t-38 -86t-73.5 -65.5t-104 -25.5q-58 0 -91 25.5t-44.5 65.5t-2.5 86zM783 1085.5q9 45.5 37.5 85t73 66t103.5 26.5q58 0 92 -26.5t45 -66t1 -85t-37.5 -85 t-72.5 -66t-104 -26.5t-92.5 26.5t-44 66t-1.5 85z" />
<glyph unicode="&#xe01;" horiz-adv-x="1564" d="M226 0l142 671q10 45 27 81.5t42 66.5t58 55t73 48h-183l41 195q17 78 68 142.5t134.5 111t198 73t257.5 27.5q144 2 253 -18t179 -61t98 -103t10 -146l-243 -1143h-291l227 1070q9 43 2.5 79t-36.5 64t-86 43t-145 14q-87 0 -147 -11t-100.5 -32.5t-62 -53.5t-30.5 -75 l-6 -18h216l-35 -168q-46 -1 -83.5 -22t-66 -52t-47 -70.5t-26.5 -79.5l-146 -688h-292z" />
<glyph unicode="&#xe02;" horiz-adv-x="1537" d="M254.5 990q-11.5 52 1.5 115q16 76 48.5 133.5t78 98t100.5 67t112 41.5t115.5 20.5t110.5 5.5q87 0 162 -25.5t127.5 -73.5t76.5 -115t10 -152q-14 -84 -53 -156t-88 -135t-105 -117.5t-104 -103t-82 -91.5t-43 -84l-8 -38q-9 -37 -10.5 -65t9.5 -47t36 -28.5t72 -9.5 h164q42 0 70.5 17.5t47 43.5t29.5 59t18 63l223 1051h293l-240 -1131q-13 -63 -46 -123.5t-78.5 -107t-103.5 -74.5t-126 -28h-441q-78 0 -128.5 23t-77 64.5t-30 99.5t10.5 128l26 120q8 40 23 73t36.5 60.5t49 53.5t60.5 52q63 51 118 97t99 95t75.5 107t47.5 132 q9 45 -0.5 79t-31 57t-51 33t-60.5 4q24 -40 29 -82t-3 -86q-13 -62 -44 -115t-73.5 -90.5t-98.5 -59t-119 -21.5t-112.5 20t-80 57t-42 89zM442 1107.5q-6 -26.5 0.5 -50t26.5 -39.5t54.5 -16t60 16t42 39.5t22.5 50t-0.5 50t-25.5 39.5t-53 16t-61.5 -16t-43.5 -39.5 t-22 -50z" />
<glyph unicode="&#xe03;" horiz-adv-x="1584" d="M315 993q-12 52 1 120q16 75 54.5 142.5t93 116.5t123 78t144.5 29q68 0 110.5 -14.5t66 -31.5t32 -31.5t12.5 -14.5q5 0 19 15t40 33t62.5 30t84.5 6q47 -5 73 -40t34 -88t0.5 -116t-24.5 -124q-25 -85 -64 -149.5t-83 -113t-89 -87t-84.5 -73t-67.5 -69.5t-36 -76 l-32 -140q-9 -42 -9.5 -72.5t10.5 -50.5t36 -31t67 -11h143q42 0 70.5 17.5t48 43.5t29.5 59t17 63l223 1051h293l-240 -1131q-13 -63 -45 -123.5t-78.5 -107t-104.5 -74.5t-125 -28h-421q-81 0 -131 24.5t-74.5 68.5t-26.5 105t13 132l32 150q9 41 16.5 75t20.5 67 t33.5 62.5t55.5 57.5q47 40 83.5 68t65 49.5t51.5 39.5t44.5 38t44.5 45t48 60q23 32 34.5 66.5t13 62t-6.5 45t-22 17.5q-12 0 -24.5 -6.5t-25 -16.5t-22.5 -22.5t-17 -23.5q-3 31 -19.5 49t-35 26.5t-35 11t-18.5 2.5q1 -2 9 -14.5t16.5 -36.5t12 -59t-6.5 -79 q-13 -56 -43.5 -99.5t-72 -72t-91 -43t-100.5 -14.5q-49 0 -92 18t-72.5 53t-41.5 87zM480 1042q5 -25 23 -41t50.5 -16t57.5 16t41.5 41t22.5 53.5t0 53t-24.5 40t-51.5 15.5q-31 0 -56 -15.5t-41 -40t-21.5 -53t-0.5 -53.5z" />
<glyph unicode="&#xe04;" horiz-adv-x="1684" d="M183 0l233 1098q17 83 75 151.5t151 118t221.5 76.5t287.5 27q160 2 279 -21.5t193 -70t103.5 -113t12.5 -149.5l-237 -1117h-294l228 1070q8 43 -2 79t-46.5 62.5t-103 42.5t-169.5 16q-98 0 -171 -16t-123 -43t-78 -65.5t-38 -84.5l-63 -292l-69 -201l108 190 q8 17 25.5 47t42.5 63.5t57.5 69.5t73.5 65t89 48.5t105 20.5q59 2 106 -12.5t78.5 -43.5t45 -73.5t6.5 -104.5q-10 -77 -39.5 -134.5t-73 -95t-98 -57t-115.5 -20.5q-42 -3 -81 9t-71 38q-3 -5 -14 -19t-32 -45t-51.5 -82.5t-69.5 -128.5q-40 -77 -65 -131.5t-42 -94.5 l-30 -77h-345zM932.5 798q-5.5 -27 1 -49.5t25.5 -38t53 -15.5q35 0 60 15.5t40.5 38t22 49.5t0 50t-25.5 38t-54 15q-34 0 -59.5 -15t-41.5 -38t-21.5 -50z" />
<glyph unicode="&#xe05;" horiz-adv-x="1684" d="M183 0l229 1072q17 85 67 158t118.5 126.5t149.5 84t160 30.5l217 -138l283 138q83 -2 150 -34.5t111.5 -86.5t61 -125.5t-0.5 -154.5l-227 -1070h-294l213 1002q9 39 10.5 76t-8.5 66.5t-34.5 46.5t-67.5 17l-249 -120l-193 120q-48 0 -81 -20.5t-53.5 -51.5t-33 -66.5 t-19.5 -67.5l-64 -307l-62 -179l103 169q12 17 28.5 46.5t40.5 63.5t56.5 69t71.5 65.5t87.5 49.5t107.5 21q60 1 106.5 -13.5t78 -43.5t45 -74t6.5 -104q-10 -77 -39.5 -134.5t-72 -95t-98 -57t-116.5 -20.5q-20 -2 -42 0t-42 8t-37.5 15t-28.5 24q-6 -5 -22.5 -23.5 t-40 -48.5t-50.5 -68t-52 -80q-38 -63 -60.5 -112.5t-40.5 -92.5q-10 -23 -17 -41.5t-15 -38.5h-340zM919.5 725q-5.5 -27 1 -50t25.5 -38t54 -15q34 0 59 15t41.5 38t22 50t-1 50t-25.5 38t-54 15q-34 0 -59.5 -15t-41.5 -38t-21.5 -50z" />
<glyph unicode="&#xe06;" horiz-adv-x="1808" d="M292 322q15 83 41.5 144.5t61.5 105.5t74.5 74t79 49t75 28t64 12.5t46.5 3.5h20q2 12 6 29.5t19 40.5q18 26 46.5 52t58.5 53.5t60 60t50 67.5q17 33 27 67.5t12 61.5t-4.5 44.5t-18.5 17.5q-20 0 -44 -21t-42 -48q1 27 -8 44.5t-25 27.5t-36.5 13.5t-40.5 3.5l9 -15 q9 -14 17.5 -39.5t12.5 -62t-8 -79.5q-14 -56 -45 -98t-71.5 -69.5t-90 -41t-99.5 -13.5q-49 0 -92.5 18t-72.5 53.5t-40.5 88.5t3.5 123q16 75 54 141.5t92.5 115t122.5 76.5t143 28q69 0 110.5 -14.5t65 -31.5t33 -31.5t13.5 -14.5q3 0 18 15t40.5 32t62 30t85.5 7 q46 -4 77.5 -32.5t45.5 -72t13.5 -98.5t-17.5 -115q-26 -88 -56 -144.5t-60 -95.5t-58 -64t-48 -47q-12 -13 -19.5 -27t-9.5 -24q-4 -19 -1 -23q0 -2 21.5 -6t55.5 -15t75 -28q40 -18 80 -46q45 -32 75 -66.5t46.5 -61.5t23 -43t8.5 -12l214 1014h293l-310 -1464h-305 q0 1 1.5 32t-6.5 80.5t-31.5 112t-71.5 127.5q-28 37 -65.5 65.5t-71.5 48.5t-56.5 30t-22.5 9l-60 -278q-12 -51 -38.5 -93t-66.5 -73t-92 -50.5t-114 -24.5q-78 -7 -147 5.5t-116.5 52t-68.5 107.5t-2 171zM497.5 1042q5.5 -25 24.5 -41t50 -16q33 0 58 16t41.5 41 t22 53.5t0 53t-24 40t-51.5 15.5q-32 0 -57 -15.5t-40.5 -40t-22 -53t-1 -53.5zM512.5 283q0.5 -23 7 -39.5t21 -27t37.5 -12.5q23 0 36.5 6.5t22.5 17.5t14 24.5t8 29.5l47 220q-40 4 -71.5 -9t-54 -37t-38.5 -57t-24 -67q-6 -26 -5.5 -49z" />
<glyph unicode="&#xe07;" horiz-adv-x="1269" d="M252 795l236 197l168 -670q6 -22 12.5 -39t18 -28.5t28 -18t40.5 -6.5q43 0 71.5 27.5t37.5 72.5l120 562q-16 -3 -31 -3h-29q-65 0 -112.5 24.5t-77.5 66t-40 94.5t2 111q15 68 51.5 120.5t86.5 90t110 57.5t121 20q79 0 136 -24.5t91 -70t43 -107t-7 -137.5l-180 -845 q-14 -67 -40.5 -121.5t-73 -92.5t-116 -61t-170.5 -25q-80 -3 -136.5 7.5t-97.5 35t-65 63.5t-39 95zM871.5 1179q-6.5 -31 1.5 -56.5t30 -43.5t61 -18q40 0 70 18t48.5 43.5t25 56.5t-0.5 56.5t-30 43t-63 17.5t-69.5 -17.5t-48 -43t-25 -56.5z" />
<glyph unicode="&#xe08;" horiz-adv-x="1455" d="M319.5 619.5q-7.5 51.5 6.5 111.5q14 63 48.5 114.5t81 88t103 56.5t115.5 20q145 0 208 -74.5t55 -214.5l-23 -414q-2 -25 1.5 -40t10 -23.5t16.5 -11t22 -2.5q24 0 39 11.5t26 28.5t16.5 38.5t9.5 43.5l153 718q9 43 5.5 79t-29.5 62.5t-77.5 42.5t-136.5 16 q-88 0 -146.5 -11t-96.5 -32.5t-58 -53.5t-28 -75l-6 -23h-290l11 49q16 79 66 143t131.5 109t194.5 70t256 25q580 0 512 -328l-163 -770q-19 -88 -50.5 -159.5t-80.5 -122t-121.5 -76.5t-173.5 -28q-56 -1 -107 10.5t-89.5 36.5t-60 65t-18.5 98l14 272q-34 -13 -64.5 -18 t-59.5 -5q-63 2 -110 23t-76 60t-36.5 90.5zM495.5 721.5q-6.5 -30.5 1.5 -56.5t30 -44t62 -18t69.5 18t48.5 44t25 56.5t-1 56.5t-29.5 43t-62.5 17t-69 -17t-48.5 -43t-26 -56.5z" />
<glyph unicode="&#xe09;" horiz-adv-x="1621" d="M238 546q-9 50 2 108q15 67 50 122t85 95t110.5 62t125.5 24q78 1 134.5 -23.5t90 -68t43.5 -104.5q9 -60 -8 -135l-54 -263q0 -1 18.5 16t55 46.5t88.5 66.5q53 37 119 76q45 25 78.5 46t58.5 44.5t40.5 51.5t24.5 65l61 295q9 43 -1 79t-43 62.5t-91.5 42.5t-147.5 16 q-87 0 -150 -11t-106.5 -32.5t-68 -53.5t-32.5 -75l-7 -28h-289l11 54q16 79 70.5 143t142 109t205 70t260.5 25q144 0 255.5 -20t184.5 -60.5t103 -102t13 -145.5l-70 -331q-6 -26 -15 -59.5t-25.5 -66t-43.5 -59t-69 -38.5q34 -4 65 -23q25 -15 51 -46.5t40 -87.5 q6 -24 5 -55.5t-6.5 -67.5t-20 -73t-36 -73.5t-51.5 -69t-70 -56.5q-57 -36 -117.5 -48t-114.5 -3.5t-98 37t-67 71.5q-13 23 -19.5 47.5t-8 48t0.5 45.5t7 42q-32 -20 -55.5 -37t-41.5 -32.5t-32 -30.5q-14 -17 -27 -31q-30 -34 -55 -72q-24 -37 -41 -74h-309l80 378 q-15 -3 -30.5 -4t-29.5 -1q-61 0 -109 22.5t-78 61t-41 89.5zM414 662q-6 -30 1.5 -55.5t30 -43.5t60.5 -18q40 0 70 18t49 43.5t25 55.5t-1.5 56.5t-30 43.5t-62.5 17t-69 -17t-48 -43.5t-25 -56.5zM1192.5 231q5.5 -28 25.5 -47.5t57.5 -19.5t66.5 19.5t48 47.5t26 61.5 t0.5 62t-27 47t-58 18.5t-66 -18.5t-47 -47t-25 -62t-1 -61.5z" />
<glyph unicode="&#xe0a;" horiz-adv-x="1645" d="M326.5 993q-10.5 52 3.5 117q16 73 49 128t76.5 95.5t96.5 67t108 43t109.5 22t101.5 5.5q94 0 173.5 -25.5t134.5 -73.5t80 -115t11 -152q-14 -84 -53 -156t-89 -135t-104 -117.5t-102 -103t-83 -91.5t-44 -84l-6 -23q-8 -42 -9.5 -72.5t8.5 -51.5t35 -31t71 -10h201 q43 0 71.5 19.5t47.5 48t29.5 60t16.5 55.5l110 519q3 12 6 30t4 37t-1.5 39t-10.5 36t-24 26t-40 10v193q46 1 89.5 15.5t80 40t62.5 63t36 82.5l17 78h284l-17 -82q-8 -43 -29.5 -88.5t-56 -86.5t-81.5 -72q-47 -29 -110 -40q43 -12 65 -40t30 -63.5t4.5 -73.5t-9.5 -69 l-135 -634q-14 -66 -42 -122.5t-79 -107.5q-23 -23 -51.5 -42.5t-58.5 -33t-61 -20.5t-59 -7h-481q-26 0 -55 4.5t-57 14.5t-53 27t-42 46q-16 25 -21.5 53.5t-5.5 59t4 61.5t11 64l23 105q9 40 24 73t35.5 60.5t48 53.5t60.5 52q62 51 117.5 97t99.5 95t75.5 107t47.5 132 q8 45 0.5 79t-29 56.5t-51.5 32.5t-63 5q26 -32 30 -76.5t-6 -93.5q-13 -63 -42 -115t-73 -89t-99 -58.5t-118 -21.5q-64 0 -114 20.5t-81 58.5t-41.5 90zM515 1107.5q-6 -26.5 0.5 -50t26.5 -39.5q21 -16 55.5 -16t60.5 16t42 39.5t21 50t-1 50t-25 39.5t-53 16t-60.5 -16 t-43.5 -39.5t-23 -50z" />
<glyph unicode="&#xe0b;" horiz-adv-x="1624" d="M258 993q-12 52 1 121q16 76 54.5 143t92.5 115.5t123 77.5t145 29q57 0 96 -11.5t65.5 -30t43 -40t28.5 -40.5q18 17 44.5 38.5t57.5 38t64.5 28t67.5 11.5q54 0 82 -35t37.5 -88.5t2.5 -119.5t-26 -127q-26 -85 -64 -149.5t-82 -113t-90 -87t-84.5 -73t-67 -69.5 t-37.5 -76l-30 -140q-8 -42 -9.5 -72.5t9 -50.5t35.5 -31t70 -11h187q41 0 69 17.5t47.5 43.5t29.5 59t17 63l110 519q3 12 6 30t5 37t0 39t-10 36t-24.5 26t-42.5 10l32 190q10 0 25.5 3.5t35.5 11.5t43 20t44 31q19 15 32.5 29.5t24.5 31t18.5 36.5t13.5 46l16 73h286 l-16 -73q-3 -18 -10 -43t-20 -55.5t-35 -63.5t-56 -66q-26 -23 -54 -36.5t-50 -20.5t-38 -9l-16 -2q30 -8 48.5 -24t30 -37t16.5 -45t5 -49.5t-3.5 -49t-6.5 -41.5l-134 -634q-13 -63 -45 -123t-78.5 -107t-104.5 -75t-125 -28h-465q-83 0 -133 24.5t-74.5 68t-26 104 t14.5 133.5l33 150q9 41 16 75t20.5 67t33.5 62q19 30 53 58q70 60 121 98.5t88 69.5t68 60.5t63 71.5q25 32 37 65.5t13.5 60.5t-5.5 45t-22 18q-13 0 -30.5 -9t-35 -23.5t-33 -29t-25.5 -25.5q-12 49 -47 79.5t-85 29.5q25 -26 37 -68t-1 -104q-13 -59 -42 -104.5t-70 -77 t-91.5 -48t-105.5 -16.5q-48 0 -92 18t-74 53t-42 87zM423 1042q5 -25 22.5 -41t50.5 -16t58 16t41.5 41t22 53.5t0 53t-24 40t-51.5 15.5q-31 0 -56.5 -15.5t-41 -40t-21 -53t-0.5 -53.5z" />
<glyph unicode="&#xe0c;" horiz-adv-x="2173" d="M286 184q-9 59 6 133l76 354q10 45 27 81.5t42 66.5t58 55t73 48h-183l43 202q15 79 65 143t132.5 109t195.5 70q111 25 254 25q582 0 514 -328l-80 -374q-7 -33 -4.5 -58.5t15 -45.5t33 -39.5t49.5 -40.5q51 -37 85.5 -71.5t54.5 -61t29 -43t9 -14.5l228 1069h293 l-310 -1464h-301q-1 61 -26 132.5t-67 137.5q-15 -66 -49.5 -119.5t-83 -93.5t-107.5 -61.5t-124 -19.5q-68 1 -115 27t-75 69.5t-35.5 100.5t4.5 119q9 48 34.5 97t62 88t83 67t98.5 38q-36 20 -54 42t-23.5 48.5t-2 58t12.5 71.5l57 268q8 43 4.5 79t-28.5 62.5 t-76.5 42.5t-138.5 16t-145.5 -11t-96.5 -32.5t-58 -53.5t-29 -75l-6 -18h218l-36 -168q-46 -1 -83 -22t-65.5 -52t-48 -70.5t-27.5 -79.5l-26 -125q14 3 28.5 5.5t31.5 2.5q60 0 108.5 -21.5t79.5 -59t41.5 -89t-0.5 -111.5q-15 -67 -51.5 -122.5t-87 -96t-111.5 -62.5 t-125 -22q-79 0 -135.5 24.5t-89 68t-41.5 104.5zM514.5 282q-6.5 -30 1 -56.5t30 -44t62.5 -17.5t69 17.5t48.5 44t25 56.5t-1.5 55.5t-30 43.5t-63 18t-69 -18t-47.5 -43.5t-25 -55.5zM1194 224q6 -28 27.5 -47.5t58.5 -19.5t65.5 19.5t46.5 47.5t25 61.5t1.5 61.5 t-26.5 47t-58 19t-66.5 -19t-48 -47t-25 -61.5t-0.5 -61.5z" />
<glyph unicode="&#xe0d;" horiz-adv-x="2167" d="M285 184q-9 59 7 133l76 354q10 45 27 81.5t42 66.5t58 55t73 48h-183l43 202q15 79 65 143t131.5 109t194.5 70t256 25q581 0 512 -328l-153 -723q-10 -44 -11.5 -79t8.5 -60t34.5 -38t67.5 -13h84q42 0 70.5 19.5t47 46.5t29.5 59.5t16 57.5l223 1051h294l-241 -1131 q-13 -63 -45 -123t-77.5 -107t-104.5 -75t-124 -28h-364q-80 0 -130.5 24.5t-75 68.5t-26.5 104t12 133l157 740q9 43 6 79t-28.5 62.5t-77 42.5t-137.5 16q-87 0 -146.5 -11t-97.5 -32.5t-58 -53.5t-28 -75l-5 -18h216l-35 -168q-46 -1 -83.5 -22t-66 -52t-47.5 -70.5 t-26 -79.5l-26 -120q16 3 29.5 3h30.5q60 0 108.5 -21.5t79.5 -59t41.5 -89t-0.5 -109.5q-15 -67 -51.5 -123t-86.5 -97t-111.5 -63t-125.5 -22q-79 0 -135.5 24.5t-89 68t-42.5 104.5zM514.5 282q-6.5 -30 1 -56.5t30 -44t62.5 -17.5t69 17.5t48 44t25 56.5t-1 55.5 t-30 43.5t-63 18t-69 -18t-47.5 -43.5t-25 -55.5zM912 -465q-5 42 4 92.5t37 98.5t75 88t117 59q71 15 126 5t91.5 -40.5t51.5 -78.5t3 -106q-7 -33 -15.5 -55.5t-16.5 -36t-13 -19t-5 -7.5q13 -3 28 -2t31 2q58 9 99 32t66.5 55.5t40.5 70.5t24 77l17 84h263l-18 -84 q-9 -42 -22 -86t-35 -85.5t-56.5 -80.5t-86 -70t-123.5 -53.5t-169 -32.5q-476 -48 -514 173zM1069.5 -360.5q-5.5 -25.5 0 -47t24.5 -36t51.5 -14.5t57.5 14.5t41 36t21.5 47t0 47t-25 36t-50.5 14.5q-33 0 -58 -14.5t-41 -36t-21.5 -47z" />
<glyph unicode="&#xe0e;" horiz-adv-x="1738" d="M113 -392q16 70 57.5 121.5t98 84.5t120 48.5t122.5 14.5q60 -1 102 -14q45 -12 56 -20q16 40 26 84h252q-6 -39 -18 -74t-25 -62q20 -16 45.5 -36t54 -41t59 -41t55.5 -36q19 -12 34 -4.5t25 22.5t16.5 32t9.5 28l287 1355q9 43 4 79t-31.5 62.5t-79 42.5t-139.5 16 t-149.5 -11t-104.5 -32.5t-65.5 -53.5t-32.5 -75l-4 -18h245l-35 -168q-46 -1 -83 -22t-65.5 -52t-48 -70.5t-27.5 -79.5l-80 -376q-16 -75 -52 -136.5t-87.5 -105t-118.5 -67t-146 -23.5q-67 0 -118.5 22t-84.5 61.5t-45 94t2 117.5q13 65 47.5 118t82.5 91.5t106 58.5 t118 20h28q17 0 29 -2l23 110q8 44 26 80.5t43 67t58 55.5t73 48h-212l43 202q16 79 69.5 143t139.5 109t201.5 70t258.5 25q288 0 421.5 -80.5t99.5 -247.5l-323 -1521q-27 -130 -108.5 -195t-200.5 -65q-54 0 -108 16.5t-97 53.5l-177 156q-37 -58 -88.5 -100.5 t-108.5 -69t-114.5 -39t-105.5 -12.5q-56 0 -107.5 15t-89 45.5t-54.5 75.5t-4 105zM321 275q-6 -30 1.5 -56.5t29 -44t61.5 -17.5t70 17.5t49 44t25 56.5t-1.5 55.5t-30 43.5t-62.5 18t-69 -18t-48 -43.5t-25 -55.5zM363 -375q-5 -27 8 -44q15 -17 55 -17q30 0 58 10.5 t50 26.5t38 34t23 32q-17 11 -45.5 22t-74.5 9q-19 -1 -37 -5.5t-33.5 -13.5t-27 -22t-14.5 -32z" />
<glyph unicode="&#xe0f;" horiz-adv-x="1738" d="M-4 -432q13 63 48.5 112.5t84 83t105 50.5t111.5 17q68 0 111 -12.5t66 -20.5q4 9 10 22t11 28t9 30t7 28h253q-5 -28 -21.5 -75t-44.5 -98q25 -18 46.5 -35.5t49.5 -44.5l208 167l143 -157l298 1407q9 43 4 79t-31.5 62.5t-79.5 42.5t-138 16q-88 0 -150 -11t-104 -32.5 t-66 -53.5t-32 -75l-5 -18h245l-36 -168q-46 -1 -83 -22t-65.5 -52t-47 -70.5t-27.5 -79.5l-76 -356q-17 -82 -51 -147t-85.5 -110.5t-119.5 -70t-151 -24.5q-67 0 -119.5 23t-84.5 61.5t-44 93t2 118.5q14 66 48.5 119t81.5 90.5t104.5 57.5t117.5 20q30 0 57 -4l24 112 q10 45 27 81.5t42.5 66.5t58 55t72.5 48h-213l43 202q16 79 69.5 143t139.5 109t203 70t260 25q288 0 421 -80.5t97 -247.5l-342 -1608q-10 -47 -31.5 -85.5t-52 -66.5t-70.5 -43t-86 -15q-27 0 -48.5 7t-38.5 18t-32 25q-14 13 -27 27l-83 96l-186 -157q-18 17 -44 40 t-51.5 45t-49.5 40.5t-39 28.5q-30 -47 -73 -81.5t-91.5 -56.5t-100 -33.5t-98.5 -11.5q-63 0 -116 16t-89.5 48.5t-51.5 80.5t-2 111zM206 -435q-6 -23 10 -39q16 -15 54 -15q25 0 48.5 8t44 22t38 33.5t27.5 40.5q0 2 -8 7t-22.5 10t-33.5 9t-39 4q-19 0 -39 -5.5 t-36.5 -16.5t-28.5 -26t-15 -32zM321.5 275q-5.5 -30 1.5 -56.5t29.5 -44t62.5 -17.5t70 17.5t48.5 44t25 56.5t-1.5 55.5t-31 43.5t-61 18q-40 0 -69.5 -18t-49 -43.5t-25 -55.5z" />
<glyph unicode="&#xe10;" horiz-adv-x="1430" d="M-260 -559q13 60 45 105t75 76t96 46t107 15q40 0 66.5 -4.5t27.5 -4.5q23 69 33 113t12 44h213q-5 -28 -12 -59.5t-16 -62.5t-20 -60t-21 -52l10 -92l126 125q14 -40 34 -79.5t48 -72.5t66 -53t88 -23q37 -1 64 13t45 31.5t26 33t9 18.5q-4 0 -19.5 -3t-40 -3.5t-53 4.5 t-57.5 21q-46 25 -63.5 70t-6.5 98q11 58 44 99.5t77.5 67t95 37.5t99.5 12q70 -1 121 -23t79.5 -60t35.5 -93t-6 -124q-18 -87 -51.5 -158.5t-84.5 -123t-119 -81.5t-157 -36q-48 -4 -99.5 2.5t-98 25t-85 52t-63.5 85.5l-118 -158h-33l-67 146q-52 -69 -117.5 -98 t-144.5 -29q-46 0 -85 15t-66.5 42t-38 66.5t-0.5 89.5zM-99 -548q-4 -23 10.5 -42t45.5 -19q44 0 75 30t47 74q-10 6 -31 16.5t-54 10.5q-11 0 -25.5 -4t-28 -12.5t-25 -22.5t-14.5 -31zM299.5 476q-10.5 47 0.5 102q12 57 44 105.5t77 84.5t98.5 56t108.5 20 q68 0 115.5 -16t78 -49t44 -80t13.5 -110l-2 -252q0 -25 0.5 -45t5.5 -33.5t17 -21t35 -7.5q30 0 53.5 20t35.5 72l83 392q11 48 1 86.5t-47 66t-105 44.5t-172 27q-63 6 -122 6.5t-109 0.5t-91.5 1t-70.5 6t-45 16q-17 12 -14 32q5 62 38 132.5t88 134t131.5 113.5 t169.5 73q66 16 123.5 19.5t108.5 -1t97.5 -15t92 -21.5t89.5 -21t90 -11q31 -3 75 11.5t104 52.5l54 -204q-61 -32 -122 -49t-125 -17q-59 0 -110.5 10t-102 21.5t-107 21.5t-128.5 10q-46 0 -89 -9.5t-76.5 -26.5t-57 -42t-30.5 -58q-1 -10 35 -11.5t101.5 -3.5t155.5 -10 q90 -6 194 -29q73 -16 132.5 -36t98.5 -49.5t55 -71.5t4 -101l-123 -577q-12 -62 -50 -109t-91 -78.5t-118 -47.5t-135 -16q-59 0 -114.5 7.5t-99.5 30t-69.5 62t-24.5 103.5l-1 146q-50 -16 -93 -16q-52 0 -94 21t-70 56t-38.5 82zM457 539.5q2 -18.5 12.5 -34.5 t28.5 -24.5t45 -8.5q28 0 49 8.5t37.5 23.5t27.5 34.5t15 39.5t2 39t-12 34t-28.5 24.5t-45.5 9.5t-48.5 -9.5t-38 -24.5t-27.5 -34t-15 -39t-2 -38.5zM780 -307.5q-5 -22.5 2 -43.5t27 -34.5t55 -13.5q40 0 68 13.5t43.5 34.5t20 43.5t-5 43.5t-31 34.5t-57.5 13.5 q-34 0 -59.5 -13.5t-41.5 -34.5t-21 -43.5z" />
<glyph unicode="&#xe11;" horiz-adv-x="1931" d="M307 1025q-5 63 22 146q23 72 64.5 129t94.5 96.5t114.5 61t125.5 21.5q69 0 110 -14.5t65 -31.5t33 -31.5t14 -14.5q2 0 17 15t40 31.5t62.5 29.5t85.5 8q86 -8 112.5 -73t5.5 -182q-9 -59 -31 -109t-48.5 -91.5t-53 -75t-42.5 -58.5q-67 -111 -81 -183l-52 -239 q2 3 17 33t41.5 77.5t62 109t77.5 128.5t89 138q46 72 94 138q55 77 111 147t113 124t118.5 85t130.5 31q74 0 115.5 -27t60 -70t17.5 -94.5t-11 -96.5l-251 -1183h-293l215 1014q3 11 6.5 31t3.5 38t-6.5 31.5t-23.5 13.5q-16 0 -54 -42t-88 -110t-107 -153t-109 -171 q-37 -63 -78.5 -135t-82 -143.5t-78.5 -139t-66.5 -119.5t-45 -83t-16.5 -32h-352l149 699q7 33 18.5 61t31.5 52q23 27 49 53.5t52.5 55.5t51.5 59t45 62q18 32 28 66.5t12.5 62t-3 45t-19.5 17.5q-12 0 -26 -9.5t-28 -21t-24 -23t-10 -15.5q-3 29 -15.5 46.5t-29 27 t-35 12.5t-30.5 3q26 -23 37.5 -65.5t-1.5 -100.5q-14 -66 -45.5 -114t-74 -78.5t-92.5 -45t-100 -14.5q-57 0 -103.5 21.5t-73.5 63.5t-32 105zM476 1042q6 -25 24 -41t49 -16q33 0 58 16t42 41t23 53.5t0 53t-24.5 40t-51.5 15.5q-31 0 -56 -15.5t-41 -40t-22.5 -53 t-0.5 -53.5z" />
<glyph unicode="&#xe12;" horiz-adv-x="2328" d="M183 0l229 1072q17 85 67 158t118.5 126.5t149.5 84t160 30.5l217 -138l283 138q23 2 56.5 -1.5t71.5 -15t75 -31.5q37 -19 69 -53q27 -32 42 -66t20 -71.5t1 -77.5q-5 -40 -13 -85l-67 -315q-7 -33 -4.5 -58.5t15 -46.5t32.5 -39.5t48 -39.5q52 -38 87 -70t56.5 -56.5 t30.5 -38t9 -11.5l228 1069h293l-311 -1464h-300q-1 30 -4 53t-6.5 41t-8.5 33t-11 30q-6 12 -13 27t-15.5 29t-18 26.5t-19.5 16.5q-10 -42 -31.5 -89t-66.5 -94q-42 -44 -97.5 -71.5t-114.5 -35t-114.5 3.5t-97.5 44q-43 36 -58.5 89t-12.5 110t20 109.5t41 87.5 q40 56 79 87.5t72 47.5q37 17 72 23q-34 15 -51 38t-23 51t-3 61.5t12 69.5l45 214q9 39 10.5 76t-8.5 66.5t-34.5 46.5t-67.5 17l-249 -120l-193 120q-42 6 -73.5 -11t-54 -46.5t-36 -66t-20.5 -67.5l-164 -780q8 3 54 30.5t114 79.5q27 21 53.5 41.5t47.5 37t34 27 t15 16.5q-2 0 -17 4.5t-36 15t-42.5 31.5t-33.5 52t-13 75t19 104q19 54 52.5 99t77 76.5t96 46.5t110.5 12q76 -4 122 -29t69 -63.5t25.5 -85t-7.5 -93.5q-15 -73 -43 -129t-71 -105.5t-98 -96.5t-125 -101q-75 -59 -145 -107.5t-131 -90.5l-130 -84h-345zM895 710 q-6 -26 0.5 -49t26 -38t52.5 -15q34 0 60 15t42.5 38t22 49t-1.5 49t-26 38t-53 15t-60 -15t-41.5 -38t-21.5 -49zM1346.5 208.5q6.5 -28.5 28 -47t58.5 -18.5t65.5 18.5t46 47t24.5 61.5t1 61.5t-26.5 48t-57.5 19.5t-66.5 -19.5t-47.5 -48t-25 -61.5t-0.5 -61.5z" />
<glyph unicode="&#xe13;" horiz-adv-x="2167" d="M285 184q-9 59 7 133l76 354q17 84 69 148.5t131 102.5h-183l43 202q15 79 65 143t132.5 109t195.5 70t256 25q580 0 512 -328l-166 -780q31 36 73 73q36 32 86.5 71t117.5 78q37 23 64.5 43t46 42t29.5 47q10 24 18 58l147 689h293l-140 -655q-3 -15 -11 -46 t-25.5 -64.5t-46.5 -64.5t-73 -45q51 -6 85 -33.5t51.5 -68.5t21.5 -89.5t-5 -95.5q-13 -67 -46.5 -126t-81.5 -102.5t-108 -67.5q-60 -23 -126 -23q-64 1 -113.5 24t-79.5 63t-41 94q-12 53 3 113q-32 -34 -60 -62t-53 -58q-16 -17 -31 -36t-28 -40t-23 -41t-14 -40h-301 l228 1070q8 43 4.5 79t-28.5 62.5t-76.5 42.5t-138.5 16t-145.5 -11t-96.5 -32.5t-58 -53.5t-29 -75l-6 -18h218l-36 -168q-7 0 -23 -2t-36 -10t-44 -23.5t-50 -41.5q-20 -21 -33 -42.5t-20 -40t-11.5 -35t-6.5 -29.5l-26 -123q16 3 29.5 4.5t30.5 1.5q60 0 108.5 -21.5 t79.5 -59t41.5 -89t-0.5 -109.5q-15 -67 -51.5 -123t-86.5 -97t-111.5 -63t-125.5 -22q-79 0 -135.5 24.5t-89 68t-42.5 104.5zM514.5 282q-6.5 -30 1 -56.5t30 -44t62.5 -17.5t69 17.5t48 44t25 56.5t-1 55.5t-30 43.5t-63 18t-69 -18t-47.5 -43.5t-25 -55.5zM1747.5 231 q5.5 -28 26.5 -47.5t58 -19.5t66.5 19.5t48 47.5t25 61.5t0 62t-27.5 47t-58 18.5t-65.5 -18.5t-46.5 -47t-25 -62t-1.5 -61.5z" />
<glyph unicode="&#xe14;" horiz-adv-x="1683" d="M183 0l235 1103q17 81 73.5 148t149.5 116.5t221 76.5t289 27q160 0 279.5 -23.5t194 -68.5t103.5 -110t11 -149l-237 -1120h-294l228 1070q8 43 -2 79t-46.5 64t-103 43t-169.5 14q-94 -2 -165.5 -17t-123 -42t-81 -62.5t-39.5 -78.5l-167 -793q3 2 18.5 14t40 33 t56 46.5t65.5 54.5q27 23 54.5 46.5t49 42t35 32t16.5 17.5q-3 0 -18 5t-36 16t-42.5 31t-33.5 51.5t-12.5 75t19.5 103.5q18 54 51 99.5t76.5 76.5t96.5 47t110 12q76 -5 122.5 -30t69.5 -63.5t26 -85t-7 -92.5q-16 -74 -49 -133.5t-80 -113t-105 -105.5t-124 -110 q-40 -37 -81.5 -72t-90 -75.5t-106.5 -89.5t-132 -110h-345zM919 805q-5 -27 1.5 -50t25.5 -38t54 -15q34 0 59 15t41.5 38t21.5 50t-1.5 50t-25 38t-53.5 15q-34 0 -59.5 -15t-42 -38t-21.5 -50z" />
<glyph unicode="&#xe15;" horiz-adv-x="1687" d="M183 0l229 1072q34 169 191 289q45 35 88.5 56.5t82 33.5t73 16t60.5 4l217 -138l283 138q26 0 59 -5t67 -17t68.5 -32.5t63.5 -55.5q55 -63 70 -134.5t-3 -156.5l-228 -1070h-296l216 1017q9 38 9.5 73t-9.5 61.5t-35 41.5t-68 15l-249 -120l-193 120q-42 6 -73.5 -12 t-54.5 -48.5t-36.5 -67t-19.5 -68.5l-164 -775q8 3 54 30.5t114 79.5q27 21 53.5 41.5t47.5 37t34 27t15 16.5q-2 0 -17 4.5t-36 15t-42.5 31.5t-33.5 52t-13 75t19 104q19 54 52.5 99t77 76.5t96 46.5t110.5 12q75 -4 121.5 -29t70 -63.5t28 -85t-5.5 -93.5 q-16 -72 -46 -127.5t-73 -106t-99 -98t-124 -100.5q-37 -30 -76.5 -59.5t-86.5 -62.5t-106.5 -72t-136.5 -88h-345zM895 710q-6 -26 0.5 -49t26 -38t52.5 -15q34 0 60 15t42.5 38t22 49t-1.5 49t-26 38t-53 15t-60 -15t-41.5 -38t-21.5 -49z" />
<glyph unicode="&#xe16;" horiz-adv-x="1573" d="M285 184q-9 59 7 133l76 354q10 45 27 81.5t42 66.5t58 55t73 48h-183l41 195q17 78 68 141t135.5 109.5t201 73t260.5 30.5q145 3 254 -17.5t178.5 -64t96.5 -108.5t10 -150l-240 -1131h-293l227 1070q9 43 1 79t-38.5 62.5t-87 42.5t-144 16t-148 -11t-101.5 -32.5 t-63 -53.5t-31 -75l-6 -18h216l-35 -168q-46 -1 -83.5 -22t-66 -52t-47 -70.5t-26.5 -79.5l-26 -120q16 3 29.5 3h30.5q60 0 108.5 -21.5t79.5 -59t41.5 -89t-0.5 -109.5q-15 -67 -51.5 -123t-86.5 -97t-111.5 -63t-125.5 -22q-79 0 -135.5 24.5t-89 68t-42.5 104.5z M514.5 282q-6.5 -30 1 -56.5t30 -44t62.5 -17.5t69 17.5t48 44t25 56.5t-1 55.5t-30 43.5t-63 18t-69 -18t-47.5 -43.5t-25 -55.5z" />
<glyph unicode="&#xe17;" horiz-adv-x="1756" d="M339 1162q10 74 59 145q31 49 72.5 81.5t87 52t93 27.5t92.5 5t85.5 -16.5t70.5 -32.5q38 -25 58.5 -54.5t28.5 -64t5 -75t-13 -87.5l-59 -275l-50 -140q0 1 11.5 20.5t31 49.5t46 68t55 78.5t59.5 80.5t59 73q50 63 105 129.5t114.5 121t124 88.5t129.5 34 q81 0 128.5 -28.5t71.5 -71.5t26.5 -93.5t-5.5 -94.5l-251 -1183h-293l216 1014q3 11 6.5 28.5t2 35t-11.5 32t-35 18.5q-19 3 -45.5 -15t-58.5 -50t-67 -77t-72.5 -96.5t-73 -106.5t-70.5 -109q-40 -63 -78.5 -137t-74 -148t-67 -144.5t-54 -124t-35 -86.5t-12.5 -34h-308 l189 892q-16 -3 -30 -3h-29q-84 0 -140.5 39t-80 99.5t-13.5 134.5zM519.5 1179q-6.5 -31 1.5 -56.5t30 -43.5t62 -18q41 0 70 18t47.5 43.5t25 56.5t-1.5 56.5t-29 43t-61 17.5q-41 0 -71 -17.5t-48.5 -43t-25 -56.5z" />
<glyph unicode="&#xe18;" horiz-adv-x="1507" d="M303 204.5q0 30.5 4.5 61.5t11.5 64l104 491h293l-85 -401q-9 -35 -12.5 -63t3.5 -64q6 -37 36 -50t71 -13h231q32 0 61.5 16.5t52.5 38.5q16 17 24.5 34.5t12 35.5t5 33t4.5 25l64 305q11 54 -10 89t-68.5 56t-118 31t-156.5 18q-95 12 -180 12t-148.5 0.5t-100.5 8.5 t-36 34q-1 15 2.5 44.5t15.5 69t34 86.5t58 96q46 64 100.5 104t108 63.5t103.5 33t93 12.5q60 7 112 5t98 -8t88 -16t85 -19t87.5 -15t94.5 -6q48 0 81 9.5t53 20t29 19.5q7 10 10 10l56 -228q-10 -11 -23 -20q-13 -7 -29 -15q-26 -15 -60 -26.5t-77 -11.5q-83 0 -162.5 16 t-154 33t-143.5 30t-134 6q-70 -7 -110 -27t-60 -41.5t-25.5 -39.5t-5.5 -21l168 -11q36 -5 75.5 -9t78.5 -8.5t78.5 -10t75.5 -12.5q83 -20 148.5 -48t108.5 -66.5t59 -92.5q16 -55 1 -127l-88 -413q-15 -66 -41.5 -122.5t-77.5 -107.5q-23 -23 -51 -42.5t-58 -33 t-61.5 -20.5t-59.5 -7h-509q-26 0 -54.5 4.5t-57 14.5t-54 27t-42.5 46q-15 25 -21 53.5t-6 59z" />
<glyph unicode="&#xe19;" horiz-adv-x="1713" d="M345 1071q-10 53 1 109q14 66 50 120t86 92t110 59.5t123 21.5q80 1 137 -22.5t91.5 -67t44.5 -105t-7 -135.5l-163 -770q0 -1 8.5 10.5t28.5 29t53 40.5t78.5 48t106.5 48.5t138 43.5q45 12 72.5 30t45 41.5t26.5 51.5t15 59l147 689h293l-140 -655q-8 -37 -16.5 -68.5 t-23 -58.5t-34.5 -51.5t-50 -48.5q31 -4 56 -20t42.5 -39.5t28 -53t15.5 -60.5t3.5 -64t-8.5 -62q-14 -67 -47.5 -123.5t-81.5 -97.5t-107.5 -63t-125.5 -22q-74 0 -127 29.5t-82 78t-33.5 111.5t21.5 130q-59 -21 -112.5 -51t-99.5 -71t-83 -92q-39 -51 -64 -112h-315 l190 895q-14 -3 -29.5 -4.5t-30.5 -1.5q-65 0 -114 24.5t-78 64.5t-39 93zM524.5 1179q-6.5 -31 0.5 -56.5t30 -43.5t61 -18q40 0 70 18t49 43.5t25 56.5t-1.5 56.5t-30 43t-62.5 17.5t-69 -17.5t-47.5 -43t-25 -56.5zM1296.5 224q6.5 -28 26.5 -47.5t57 -19.5t66.5 19.5 t48 47.5t25.5 61.5t0.5 61.5t-28 47t-58.5 19t-65 -19t-46.5 -47t-25.5 -61.5t-0.5 -61.5z" />
<glyph unicode="&#xe1a;" horiz-adv-x="1756" d="M340 1071q-10 53 3 109q15 66 50.5 120t85 92t110 59.5t123.5 21.5q80 1 137.5 -22.5t91 -67t43.5 -105t-6 -135.5l-153 -723q-10 -44 -11.5 -79t8.5 -60t34.5 -38t67.5 -13h280q42 0 71 19.5t47.5 46.5t30 59.5t17.5 57.5l223 1051h292l-241 -1131q-12 -63 -44.5 -123 t-78 -107t-103.5 -75t-125 -28h-561q-81 0 -131 24.5t-74.5 68.5t-26.5 105t13 132l119 565q-14 -3 -29 -4.5t-30 -1.5q-65 0 -114.5 24.5t-79 64.5t-39.5 93zM519.5 1179q-6.5 -31 1.5 -56.5t30 -43.5t62 -18q41 0 70 18t47.5 43.5t25 56.5t-1.5 56.5t-29 43t-61 17.5 q-41 0 -71 -17.5t-48.5 -43t-25 -56.5z" />
<glyph unicode="&#xe1b;" horiz-adv-x="1756" d="M340 1071q-10 53 3 109q15 66 50.5 120t85 92t110 59.5t123.5 21.5q80 1 137.5 -22.5t91 -67t43.5 -105t-6 -135.5l-153 -723q-10 -44 -11.5 -79t8.5 -60t34.5 -38t67.5 -13h280q42 0 71 19.5t47.5 46.5t30 59.5t17.5 57.5l363 1718h293l-382 -1798q-12 -63 -44.5 -123 t-78 -107t-103.5 -75t-125 -28h-561q-81 0 -131 24.5t-74.5 68.5t-26.5 105t13 132l119 565q-14 -3 -29 -4.5t-30 -1.5q-65 0 -114.5 24.5t-79 64.5t-39.5 93zM519.5 1179q-6.5 -31 1.5 -56.5t30 -43.5t62 -18q41 0 70 18t47.5 43.5t25 56.5t-1.5 56.5t-29 43t-61 17.5 q-41 0 -71 -17.5t-48.5 -43t-25 -56.5z" />
<glyph unicode="&#xe1c;" horiz-adv-x="1603" d="M209 0l241 1143q12 48 25.5 88t36.5 74.5t56.5 64t80.5 54.5q40 20 85 33t91.5 16t91 -5t81.5 -27.5t64.5 -52t38.5 -81.5q12 -56 1 -114t-40.5 -111.5t-75 -97t-104.5 -69.5q-40 -17 -74 -21.5t-59 -4.5h-31t-27 3l-120 -566l303 340h164l159 -340l242 1138h293 l-312 -1464h-355l-174 373l-328 -373h-354zM688.5 1179q-6.5 -31 1.5 -56.5t30 -43.5t62 -18t69.5 18t48 43.5t25 56.5t-0.5 56.5t-29.5 43t-62.5 17.5t-70 -17.5t-48.5 -43t-25 -56.5z" />
<glyph unicode="&#xe1d;" horiz-adv-x="1603" d="M209 0l241 1143q12 48 25.5 88t36.5 74.5t56.5 64t80.5 54.5q40 20 85 33t91.5 16t91 -5t81.5 -27.5t64.5 -52t38.5 -81.5q12 -56 2 -115t-39.5 -112t-75.5 -97.5t-106 -67.5q-40 -20 -74 -23t-59 -3h-31t-27 3l-120 -566l303 340h164l159 -340l383 1805h292l-452 -2131 h-355l-174 373l-328 -373h-354zM688.5 1179q-6.5 -31 1.5 -56.5t30 -43.5t62 -18t69.5 18t48 43.5t25 56.5t-0.5 56.5t-29.5 43t-62.5 17.5t-70 -17.5t-48.5 -43t-25 -56.5z" />
<glyph unicode="&#xe1e;" horiz-adv-x="1896" d="M338.5 1079.5q-6.5 54.5 7.5 114t52 113.5q31 49 72.5 81.5t87 52t93 27.5t92.5 5t85.5 -16.5t70.5 -32.5q38 -25 58.5 -54.5t28.5 -64t5 -75t-13 -87.5l-104 -495l419 816h186l78 -816l175 816h293l-312 -1464h-340l-105 908l-484 -908h-341l189 892q-16 -3 -30 -3h-29 q-30 0 -60.5 3t-62.5 23q-50 23 -77.5 66.5t-34 98zM519.5 1179q-6.5 -31 1.5 -56.5t30 -43.5t62 -18q41 0 70 18t47.5 43.5t25 56.5t-1.5 56.5t-29 43t-61 17.5q-41 0 -71 -17.5t-48.5 -43t-25 -56.5z" />
<glyph unicode="&#xe1f;" horiz-adv-x="1896" d="M338.5 1079.5q-6.5 54.5 7.5 114t52 113.5q31 49 72.5 81.5t87 52t93 27.5t92.5 5t85.5 -16.5t70.5 -32.5q38 -25 58.5 -54.5t28.5 -64t5 -75t-13 -87.5l-104 -495l419 816h186l78 -816l315 1483h293l-452 -2131h-340l-105 908l-484 -908h-341l189 892q-16 -3 -30 -3h-29 q-30 0 -60.5 3t-62.5 23q-50 23 -77.5 66.5t-34 98zM519.5 1179q-6.5 -31 1.5 -56.5t30 -43.5t62 -18q41 0 70 18t47.5 43.5t25 56.5t-1.5 56.5t-29 43t-61 17.5q-41 0 -71 -17.5t-48.5 -43t-25 -56.5z" />
<glyph unicode="&#xe20;" horiz-adv-x="1760" d="M163 260q10 60 39.5 114.5t76.5 98t106 65.5q37 14 70 20q31 5 63 5h29.5t28.5 -2l23 110q3 17 8.5 37t15 40.5t22.5 41.5t33 41q28 30 51 48t37 29l33 14h-211l43 202q15 79 69 143t139.5 109t202 70t259.5 25q288 0 421.5 -80.5t96.5 -247.5l-242 -1143h-291l227 1070 q9 43 4 79t-32.5 62.5t-79.5 42.5t-139 16q-88 0 -149.5 -11t-103.5 -32.5t-65.5 -53.5t-33.5 -75l-5 -18h246l-37 -168q-7 0 -20.5 -2.5t-34.5 -10.5t-45 -23t-50 -41q-20 -23 -32 -43.5t-20.5 -40t-12.5 -35t-6 -28.5l-80 -376q-10 -49 -24.5 -89t-37.5 -74.5t-56 -63.5 t-81 -55q-40 -20 -85 -33t-91.5 -16.5t-91 4.5t-81.5 27t-65 53q-27 32 -38 81q-13 54 -3 114zM342.5 275q-6.5 -30 1.5 -56.5t30 -44t62 -17.5t69.5 17.5t48.5 44t25 56.5t-1 55.5t-29.5 43.5t-62.5 18t-70 -18t-48.5 -43.5t-25 -55.5z" />
<glyph unicode="&#xe21;" horiz-adv-x="1734" d="M217 156.5q-20 70.5 3 179.5q17 80 46.5 140t64.5 103t75 71t78.5 46t73.5 26.5t62.5 12t44 3.5t16.5 1l33 156q-15 -3 -30.5 -4.5t-29.5 -1.5q-66 0 -115.5 24.5t-79 64.5t-38.5 93t2 109q15 66 50.5 120t85.5 92t110 59.5t123 21.5q80 1 137.5 -22.5t91.5 -67 t43.5 -105t-6.5 -135.5l-87 -415q0 -2 21.5 -6t55 -15t75 -28.5t80.5 -45.5q45 -32 74.5 -66.5t46.5 -61.5t24 -43q8 -16 8 -12l214 1014h293l-310 -1464h-305q0 1 1.5 32t-6 80.5t-31.5 112t-72 127.5q-27 37 -65 65.5t-71.5 48.5t-56.5 30t-23 9l-55 -256 q-25 -120 -108 -186t-208 -77q-78 -7 -148 6.5t-119 53.5t-69 110.5zM440 284.5q0 -24.5 7.5 -41.5t20.5 -28q12 -11 35 -11t38 9.5t24.5 22.5t15.5 29q5 18 8 32l44 205q-40 6 -71 -8t-55 -38t-39 -55.5t-22 -64.5q-6 -27 -6 -51.5zM600.5 1179q-5.5 -31 1.5 -56.5 t30 -43.5t62 -18q40 0 69 18t48.5 43.5t25 56.5t-1.5 56.5t-29 43t-62 17.5t-69.5 -17.5t-49 -43t-25 -56.5z" />
<glyph unicode="&#xe22;" horiz-adv-x="1562" d="M305 198q-2 61 14 132l21 98q3 17 9.5 41t18.5 50.5t30 53t44 49.5q30 26 58.5 42.5t52 25.5t38.5 12.5t17 3.5q-47 3 -85 16q-37 13 -68 36q-25 17 -44 43.5t-30 63.5t-10 86.5t14 115.5q20 96 69 171.5t118 129t154.5 82.5t180.5 29q70 -2 124 -22t89 -58.5t48 -92.5 q12 -53 -3 -122q-12 -63 -49.5 -114.5t-87.5 -87t-108 -53.5t-113 -17q-46 2 -77 14t-48.5 28t-26.5 28.5t-11 17.5q-2 -5 -5.5 -22t-3.5 -40.5t8.5 -48.5t32.5 -47q19 -15 44.5 -23t53 -10t54 -1t46.5 1h187l-40 -187h-176q-31 0 -63.5 -8t-61 -24.5t-48.5 -41.5t-27 -58 l-14 -70q-10 -44 -11.5 -79t8.5 -60t35 -38t66 -13h282q41 0 70 19.5t47.5 46.5t30 59.5t16.5 57.5l224 1051h291l-240 -1131q-13 -63 -44.5 -123t-78 -107t-104.5 -75t-125 -28h-560q-82 0 -132 24.5t-74.5 68.5t-26.5 105zM757.5 1193.5q-6.5 -30.5 1 -56.5t30 -44 t60.5 -18q40 0 70.5 18t49 44t25 56.5t-1.5 56.5t-30 43t-63 17q-40 0 -69 -17t-47.5 -43t-25 -56.5z" />
<glyph unicode="&#xe23;" horiz-adv-x="1372" d="M307 981q-4 6 2.5 35t25 72t49.5 94t74.5 100t101.5 90.5t129 66.5q75 25 135.5 33.5t112 7.5t96.5 -10.5t92.5 -20t99 -20.5t115.5 -12q46 -1 78 7.5t52 20t31 21.5t12 10l53 -220q-30 -20 -56 -32.5t-48.5 -19t-43.5 -9.5q-22 -2 -42 -2q-78 0 -145 15t-128.5 31.5 t-120 26.5t-120.5 1q-67 -10 -106.5 -29.5t-60.5 -41t-28.5 -37.5t-7.5 -21q106 -8 205.5 -22.5t195.5 -35.5q84 -19 144 -48.5t94.5 -71.5t44.5 -99t-5 -129l-91 -420q-20 -98 -68 -168t-129 -114q-39 -20 -84 -33.5t-91.5 -16.5t-91.5 4t-82 27t-65 54q-27 32 -38 81 q-13 54 -3 114t39.5 114.5t75.5 98t107 65.5q48 18 98 24.5t93 -1.5l33 153q9 42 2.5 76t-35 60.5t-82.5 46.5t-140 33q-94 15 -179 23t-151 13t-106 8t-43 7zM775 275q-6 -30 1.5 -56.5t29.5 -44t62 -17.5t69.5 17.5t48 44t25 56.5t-1 55.5t-30 43.5t-61.5 18 q-40 0 -70 -18t-48.5 -43.5t-24.5 -55.5z" />
<glyph unicode="&#xe24;" horiz-adv-x="1565" d="M280 230q3 39 12 87l76 354q2 17 8 37t14.5 40.5t22 41.5t32.5 41q14 16 27.5 28t28 22t30 20.5t37.5 20.5h-183l41 195q17 78 68 143.5t134.5 112t198 72.5t257.5 26q144 0 253.5 -20t179 -60.5t98 -102t9.5 -145.5l-368 -1744h-295l356 1671q9 43 1 79t-39 64t-87.5 43 t-143.5 13.5t-147 -12t-98.5 -32t-60 -53t-30.5 -74.5l-6 -18h218l-36 -168q-7 0 -22 -2.5t-35 -10.5t-44.5 -23t-51.5 -41q-20 -23 -32 -43.5t-20 -40t-12.5 -35t-6.5 -28.5l-26 -120q14 3 28.5 3h31.5q57 0 100.5 -17.5t73.5 -47.5t45 -70t14.5 -86.5t-17 -96.5t-49.5 -99 q-48 -72 -114 -111.5t-135.5 -50.5t-133.5 1.5t-110 43.5q-37 26 -58 55.5t-29 63t-5 74.5zM514.5 282q-6.5 -30 1 -56.5t30 -44t62.5 -17.5t69 17.5t48.5 44t25 56.5t-1.5 55.5t-30 43.5t-63 18t-69 -18t-47.5 -43.5t-25 -55.5z" />
<glyph unicode="&#xe25;" horiz-adv-x="1570" d="M285 230q2 39 12 87l50 235q16 77 44.5 150t74.5 134.5t114.5 106.5t164.5 67q97 22 173 11.5t132.5 -40t95 -71t62 -79t33.5 -64t10 -28.5l70 331q9 43 3 79t-34.5 64t-81.5 43t-140 14q-87 0 -147 -11t-98.5 -32.5t-60 -53.5t-31.5 -75l-5 -23h-290l10 49q16 79 66 143 t132 110.5t197.5 71t262.5 22.5q144 0 250.5 -20t174 -60.5t93 -102t7.5 -145.5l-242 -1143h-292l32 150q10 46 14 86.5t-1 88t-21 106t-47 140.5q-20 45 -41 90t-50 81.5t-67.5 59t-91.5 22.5q-41 0 -69 -17.5t-46 -41t-27 -45.5t-11 -32l-25 -120q14 3 28 3h30q26 0 58 -6 t67 -20q48 -26 76 -69.5t33 -96t-11 -110.5q-16 -57 -54 -115q-49 -72 -115.5 -111.5t-135 -50.5t-133 1.5t-109.5 43.5q-38 26 -58.5 55.5t-28.5 63t-6 74.5zM519.5 282q-6.5 -30 1 -56.5t30 -44t62.5 -17.5q41 0 70 17.5t47.5 44t25 56.5t-1.5 55.5t-30 43.5t-62 18 t-69.5 -18t-48 -43.5t-25 -55.5z" />
<glyph unicode="&#xe26;" horiz-adv-x="1748" d="M152 260q10 60 39 114.5t76.5 98t105.5 65.5q37 14 71 19.5t64 5.5h29t29 -2l23 110q3 17 8.5 37t14.5 40.5t21.5 41.5t32.5 41q15 16 28.5 28t27.5 22t30.5 20.5t36.5 20.5h-213l43 202q16 79 69.5 143t139.5 109t202.5 70t259.5 25q287 0 421 -80.5t98 -247.5 l-370 -1744h-294l355 1671q9 43 4.5 79t-31.5 62.5t-79.5 42.5t-137.5 16q-88 0 -150 -11t-104 -32.5t-66 -53.5t-32 -75l-5 -18h245l-36 -168q-7 0 -22 -2t-35 -10t-45 -23.5t-49 -41.5q-20 -21 -33 -42.5t-21 -40t-11.5 -35t-6.5 -29.5l-81 -376q-20 -96 -66 -166 t-132 -116q-40 -21 -84 -34t-90.5 -16.5t-91 4t-82.5 27.5t-65 54q-27 32 -39 81q-12 54 -2 114zM331.5 275q-5.5 -30 1.5 -56.5t29.5 -44t62.5 -17.5t69 17.5t48 44t25 56.5t-1 55.5t-30 43.5t-61 18q-40 0 -70 -18t-49 -43.5t-24.5 -55.5z" />
<glyph unicode="&#xe27;" horiz-adv-x="1361" d="M306 1028l20 92q17 78 60.5 142.5t119 110.5t181 71.5t248.5 26.5q288 3 405 -79t81 -249l-177 -831q-10 -49 -24.5 -89t-37 -74.5t-55.5 -63.5t-82 -55q-40 -20 -84 -33t-90.5 -16.5t-91 4.5t-81.5 27t-65 53q-27 32 -38 81q-13 54 -3 114t39.5 114.5t76 98t104.5 65.5 q37 14 71 20q32 5 64 5h29t28 -2l109 509q8 44 9 80.5t-20 63.5t-68 41.5t-135 14.5q-82 0 -134.5 -14.5t-85.5 -39.5t-48.5 -58.5t-24.5 -73.5l-11 -56h-289zM771.5 275q-6.5 -30 1.5 -56.5t29.5 -44t61.5 -17.5t70 17.5t48.5 44t25 56.5t-1.5 55.5t-30 43.5t-62 18 t-69.5 -18t-48 -43.5t-25 -55.5z" />
<glyph unicode="&#xe28;" horiz-adv-x="1684" d="M183 0l230 1084q17 81 68 150t139.5 120.5t218 82t305.5 34.5q74 0 136.5 -3.5t108.5 -10.5l97 -11q3 0 13 0.5t23.5 5.5t29 14.5t32.5 26.5q12 14 22 30t17 33q9 17 6 33h344q-8 -42 -35.5 -94t-84.5 -108q-23 -21 -45 -37.5t-41 -23.5q-11 -9 -21.5 -12.5t-22.5 -6.5 q2 -9 9.5 -30t10.5 -47q2 -26 2 -43t-1.5 -33t-4.5 -31.5t-9 -38.5l-230 -1084h-293l227 1070q9 43 -1 79t-46.5 64t-102.5 43t-169 14q-94 -2 -166 -17t-123 -42t-81 -62.5t-39 -78.5l-64 -301l-69 -201l108 190q8 17 25.5 46.5t42.5 63.5t57 69t72.5 64.5t89.5 49 t106 21.5q59 2 106 -12.5t78.5 -44.5t45 -73.5t4.5 -103.5q-10 -77 -38.5 -134.5t-72 -95t-98 -57t-115.5 -20.5q-43 -3 -71 5.5t-46 15.5q-10 6 -19 12.5t-16 13.5q-3 -5 -14 -19t-32.5 -45t-51.5 -82.5t-69 -128.5q-40 -77 -65 -131.5t-42 -94.5l-30 -77h-345z M932.5 748.5q5.5 -22.5 25 -38t53.5 -15.5t60 15.5t41.5 38t22 49.5t-0.5 50t-25.5 38t-53.5 15q-34 0 -59.5 -15t-41.5 -38t-21.5 -50t0 -49.5z" />
<glyph unicode="&#xe29;" horiz-adv-x="1816" d="M341 1079.5q-6 54.5 9.5 114t51.5 113.5q48 73 115.5 111.5t137.5 49.5t136 -1.5t111 -42.5q38 -25 58.5 -54.5t29 -64t5.5 -75t-14 -87.5l-153 -723q-9 -35 -12.5 -63t3.5 -64q6 -37 36 -50t72 -13h319q34 0 62 16.5t52 38.5q16 17 24.5 34.5t13.5 35.5t7 33t5 25l16 77 q-2 0 -32 -4t-75 -7t-99.5 -1t-104.5 16.5t-90 43.5q-38 28 -55 77q-13 33 -14.5 69.5t7.5 72t27 69t43 62.5t56 50.5t65 31.5q60 20 113.5 19t93.5 -20t63 -54.5t22 -83.5q-2 -32 -4 -50.5t-5.5 -29t-5.5 -15.5t-4 -11h49l157 739h292l-146 -685l33 16l71 40q29 20 49.5 40 t32.5 40q8 9 14 19.5t10 20.5l50 -281l-43 -33q-23 -15 -51.5 -33.5t-62.5 -32.5q-29 -13 -56 -21t-48.5 -12t-35 -5.5t-15.5 -1.5l-42 -202q-15 -66 -43 -122q-29 -57 -80 -108q-23 -23 -50.5 -42.5t-58 -33t-61.5 -20.5t-59 -7h-598q-26 0 -54.5 4.5t-57 14.5t-53.5 27 t-42 46q-16 25 -22 53.5t-6 59t4.5 61.5t11.5 64l120 562q-15 -3 -30 -3h-30q-30 0 -60 3t-61 23q-50 23 -79 66.5t-35 98zM524.5 1179q-6.5 -31 0.5 -56.5t30 -43.5t61 -18q40 0 70 18t49 43.5t25 56.5t-1.5 56.5t-30 43t-62.5 17.5t-69 -17.5t-47.5 -43t-25 -56.5z M1112 754.5q-5 -23.5 0.5 -44.5t23 -34.5t48.5 -13.5q30 0 53 13.5t37 34.5t20 44.5t0 43.5t-23.5 33.5t-47.5 13.5t-53 -13.5t-38 -33.5t-20 -43.5z" />
<glyph unicode="&#xe2a;" horiz-adv-x="1574" d="M283 223q3 40 13 89l50 233q16 77 44 150.5t75 133.5t114 106t165 67q74 19 136 17.5t112 -16.5t89.5 -40t68.5 -55q68 -69 106 -169l70 331q8 43 0 79t-38 64t-85.5 43t-141.5 14q-89 -2 -150.5 -13t-101.5 -33.5t-62.5 -55.5t-31.5 -77l-3 -16h-290l10 49 q16 71 63.5 134t130 111t199.5 75t272 27q66 0 115 -3.5t89 -10.5l78 -14q4 0 14 1.5t23.5 6.5t30 15t32.5 27q11 14 21 30t17 33q9 17 6 33h345q-9 -42 -37 -94t-84 -108q-22 -21 -45 -37.5t-40 -23.5q-10 -9 -21.5 -12.5t-23.5 -6.5q2 -9 9.5 -30t10.5 -47q2 -20 2 -36 t-1.5 -27.5t-3.5 -22.5t-5 -24l-238 -1120h-293l32 150q8 39 10.5 87.5t-3.5 103t-19.5 110t-34.5 110.5q-23 45 -47.5 91.5t-54.5 82.5t-68.5 59t-91.5 23q-40 0 -67.5 -16.5t-46 -39t-27.5 -45t-12 -35.5l-26 -120q14 2 28.5 2h31.5q24 0 57 -5.5t65 -19.5q48 -26 76 -69 t34 -96t-10.5 -111.5t-54.5 -115.5q-48 -73 -114 -111t-135 -49.5t-133.5 1t-110.5 43.5q-37 26 -58 55t-29.5 63.5t-5.5 74.5zM518.5 275q-6.5 -30 1.5 -56.5t30 -44t62 -17.5t70 17.5t48 44t24.5 56.5t-1 55.5t-30 43.5t-62.5 18t-69.5 -18t-48 -43.5t-25 -55.5z" />
<glyph unicode="&#xe2b;" horiz-adv-x="1780" d="M345.5 1079.5q-6.5 54.5 8.5 114t51 113.5q48 73 115.5 111.5t137.5 49.5t136.5 -1.5t112.5 -42.5q37 -25 57.5 -54.5t28.5 -64t5 -75t-13 -87.5l-110 -517q-1 -4 10.5 8t35 38t60.5 61.5t89 78.5q64 52 113.5 79.5t85 41.5t54.5 17q18 2 24 2q-27 20 -46.5 41.5t-31 49 t-12.5 61t9 79.5q12 58 43.5 111t79.5 94t111.5 64.5t141.5 23.5q77 0 130 -23.5t83 -63t37.5 -91.5t-3.5 -113q-11 -55 -32 -95t-44 -69t-47 -47.5t-43.5 -29t-32.5 -14.5l-14 -3q3 0 12 -4t19 -11.5t20 -21t18 -33.5q5 -20 8.5 -36.5t4.5 -31t-2 -31t-7 -37.5l-153 -721 h-293l131 618q20 88 -48 100q-43 6 -91.5 -15.5t-100 -61t-102.5 -89.5t-100 -102q-44 -48 -83.5 -101t-71.5 -105t-52.5 -100t-29.5 -85l-13 -59h-292l191 892q-16 -3 -31 -3h-29q-30 0 -61 3t-62 23q-50 23 -78 66.5t-34.5 98zM527 1179q-6 -31 1.5 -56.5t30 -43.5 t62.5 -18t69 18t47.5 43.5t25 56.5t-0.5 56.5t-29 43t-62 17.5t-70 -17.5t-49 -43t-25 -56.5zM1457.5 1179q-6.5 -31 1.5 -56.5t30.5 -43.5t60.5 -18q40 0 70 18t48.5 43.5t25 56.5t-1 56.5t-30 43t-62.5 17.5t-69 -17.5t-48 -43t-25.5 -56.5z" />
<glyph unicode="&#xe2c;" horiz-adv-x="1913" d="M341 1079.5q-6 54.5 9.5 114t51.5 113.5q48 73 115.5 111.5t137.5 49.5t136 -1.5t111 -42.5q38 -25 58.5 -54.5t29 -64t5.5 -75t-14 -87.5l-156 -737l339 436h186l163 -436l137 649q-16 -5 -32 -11t-36 -9q-35 -8 -78 -12.5t-94 -4.5q-59 0 -115.5 15t-98.5 46 t-63.5 76.5t-8.5 107.5q16 73 51.5 124.5t86.5 84t114 48.5t133 17q103 0 170.5 -15t110 -33.5t60.5 -34t22 -15.5l18 32q13 19 21 40.5t15 41.5q9 20 15.5 42t10.5 41.5t6.5 32.5t2.5 16h290q-3 -26 -8.5 -53.5t-14.5 -54.5q-13 -45 -33 -98t-51 -106q-29 -46 -49 -76 t-40 -51.5t-42 -41.5t-51 -47l-245 -1157h-341l-188 512l-400 -512h-342l190 892q-15 -3 -30 -3h-30q-30 0 -60 3t-61 23q-50 23 -79 66.5t-35 98zM524.5 1179q-6.5 -31 0.5 -56.5t30 -43.5t61 -18q40 0 70 18t49 43.5t25 56.5t-1.5 56.5t-30 43t-62.5 17.5t-69 -17.5 t-47.5 -43t-25 -56.5zM1348.5 1247q7.5 -17 33 -28t71.5 -11q64 0 103.5 9.5t65.5 23.5q15 9 26 17t21 16q1 3 -0.5 11.5t-7 20t-17.5 23t-33.5 20.5t-54 14.5t-77.5 2.5q-32 -3 -60 -15.5t-45.5 -30t-25 -37t0 -36.5z" />
<glyph unicode="&#xe2d;" horiz-adv-x="1515" d="M258 198q-2 61 14 132l68 318q10 48 26.5 92.5t42.5 83t63 72.5t87 59q33 17 74.5 28.5t86 15t87 -2.5t80.5 -23.5t66 -49t39 -78.5q13 -59 4 -117.5t-37.5 -110.5t-74.5 -93t-106 -64q-46 -17 -81.5 -21t-59.5 -2.5t-36.5 4t-12.5 -0.5l-16 -74q-9 -40 -7.5 -65.5 t14.5 -41.5t38 -22.5t65 -6.5h282q41 0 69.5 19.5t47.5 46.5t30.5 59.5t16.5 57.5l139 657q11 54 5.5 92t-35 63t-84.5 35.5t-143 9.5q-88 0 -147 -11t-98.5 -32.5t-61 -53.5t-29.5 -75l-6 -23h-290l11 49q16 79 65 143t132 110.5t197.5 71t261.5 22.5q145 0 252 -20 t175 -60.5t94.5 -102t7.5 -145.5l-171 -810q-13 -63 -44.5 -123t-78 -107t-104.5 -75t-125 -28h-561q-81 0 -131 24.5t-74.5 68.5t-26.5 105zM583.5 718q-5.5 -30 1.5 -56.5t30 -43.5t61 -17q40 0 69.5 17t49 43.5t26 56.5t-1.5 55.5t-30.5 43.5t-62.5 18t-69 -18 t-48.5 -43.5t-25 -55.5z" />
<glyph unicode="&#xe2e;" horiz-adv-x="1515" d="M258 198q-2 61 14 132l44 208q11 48 27.5 92.5t42.5 83t62.5 72t86.5 59.5q33 17 75 28.5t85.5 15t87.5 -2t81.5 -23.5t65.5 -49q28 -32 40 -79q12 -59 3 -117.5t-37.5 -110.5t-74.5 -93t-106 -62q-49 -19 -83 -24.5t-59 -5.5q-14 0 -26 2.5t-24 5.5q-12 -34 -4.5 -54 t26 -30t45 -13t52.5 -3h282q41 0 69.5 19.5t47.5 46.5t30.5 59.5t16.5 57.5l139 657q1 5 -19 -9t-66.5 -33.5t-124 -38t-193.5 -22.5q-59 -3 -117.5 0t-113.5 12t-101.5 25t-79 41t-46.5 57.5t-6 75.5q13 65 55.5 117t119.5 90t191.5 60t271.5 26q92 -1 177 -11t158 -43 q8 12 22 30.5t26 42.5t23.5 50t16.5 49h315q-4 -23 -25.5 -81t-67.5 -135q-17 -30 -41.5 -60t-65.5 -67q3 -12 2 -34t-3.5 -45.5t-6.5 -46.5t-6 -36l-159 -751q-13 -63 -44.5 -123t-78 -107t-104.5 -75t-125 -28h-561q-81 0 -131 24.5t-74.5 68.5t-26.5 105zM560.5 608 q-5.5 -30 1.5 -56t29 -44t63 -18q40 0 69 18t47.5 44t25 56t-0.5 55.5t-29 43.5t-62 18t-70.5 -18t-49 -43.5t-24 -55.5zM723 1204.5q-8 -23.5 23.5 -42.5t102.5 -19q105 0 173 14t108 32t55 33.5t16 18.5q-1 0 -22.5 9.5t-61 18t-95 14t-127.5 -1.5q-77 -7 -120.5 -30 t-51.5 -46.5z" />
<glyph unicode="&#xe2f;" horiz-adv-x="1537" d="M418 1143q2 58 26.5 114.5t67.5 101.5t105 74.5t142 33.5q70 0 116 -23t68 -60t20 -86.5t-28 -100.5q-27 -54 -67.5 -85t-80 -45.5t-69.5 -16.5q-29 -3 -34 -3q8 -12 20 -20.5t27 -16.5q13 -8 29 -13t37 -7.5t46.5 -2t58.5 7.5q65 13 112 32.5t83.5 46t66 58.5t57.5 68 q30 37 52.5 81.5t38 83t22.5 66.5t9 33q23 3 45 1t42 -5q57 -11 89.5 -35t46 -59t10.5 -80.5t-14 -102.5l-158 -740q-13 -61 -28 -117.5t-41.5 -106t-68.5 -91.5t-109 -77q-54 -28 -105.5 -42.5t-92.5 -19.5t-65.5 -4t-25.5 1l-84 204q1 2 29 1t68 5t86.5 22.5t84.5 51.5 q19 16 30.5 41.5t18.5 53.5t12 55q4 29 8 49l105 493q0 -1 -25.5 -24t-75.5 -51t-125.5 -51.5t-175.5 -26.5q-88 0 -165.5 20t-133 61t-84.5 104t-23 149zM633.5 1263q-5.5 -25 1 -47t25 -37t52.5 -15q33 0 58 15t41 37t21.5 47t-1.5 47.5t-26 36.5t-51 14q-33 0 -58 -14 t-41 -36.5t-21.5 -47.5z" />
<glyph unicode="&#xe30;" horiz-adv-x="1368" d="M204 258q-5 45 3.5 91.5t30 91.5t53 83.5t72 68t86.5 45.5q69 21 136 18.5t118.5 -31.5t78.5 -83t17 -136q-8 -56 -24.5 -92.5t-34.5 -57.5t-31.5 -32t-16.5 -11q3 0 23.5 -0.5t54.5 5t81 22.5t104 53q33 19 59 50.5t45 68.5t33.5 74t23 68t12 52.5t5.5 24.5h248 q-18 -89 -46 -167t-73.5 -143.5t-113 -118.5t-163.5 -92q-63 -27 -136.5 -44t-149.5 -24.5t-148.5 -4t-135.5 20t-111 46t-74 72.5q-21 37 -26 82zM365 1019.5q-5 44.5 4 91t30 91.5t52.5 84.5t72.5 68.5q42 29 88 44q69 21 135.5 18t118 -31.5t79 -83t16.5 -134.5 q-9 -55 -25.5 -91.5t-34 -59t-31.5 -32.5q-12 -10 -15 -11q3 0 23.5 -1t54.5 5.5t81 24t103 52.5q33 19 59.5 50.5t45.5 68t32.5 74.5t22.5 68.5t12 51.5q4 19 5 22h249q-19 -87 -46.5 -165t-73.5 -143t-113 -119q-69 -54 -163 -92q-63 -27 -136.5 -44.5t-149.5 -23.5 t-149 -2.5t-136 20t-110.5 45.5t-73.5 72q-22 37 -27 81.5zM385.5 373q-6.5 -30 1.5 -55.5t30.5 -43.5t61.5 -18q40 0 69.5 18t48 43.5t25 55.5t-1 56.5t-30 43.5t-62.5 17t-69.5 -17t-48 -43.5t-25 -56.5zM548 1134.5q-7 -30.5 0.5 -56.5t30.5 -43t62 -17q40 0 70 17 t47.5 43t24 56.5t-0.5 56.5t-30 44t-63 18t-69 -18t-47 -44t-25 -56.5z" />
<glyph unicode="&#xe31;" d="M-618 1958q-11 47 0 111q13 65 43 116.5t74.5 87t99.5 54.5q55 18 115 21q64 1 113 -18t79 -55.5t40 -86t-5 -106.5q-7 -27 -21 -55t-36 -46q3 0 32.5 -5t76.5 -4.5t108 15.5t128 56q53 32 86.5 72.5t53.5 78.5t29.5 69t11.5 42h292q-30 -114 -100 -214 q-73 -103 -166.5 -167.5t-197.5 -101t-212 -48.5t-208 -12q-54 0 -110.5 5.5t-110 18.5t-98 35t-75 55.5t-42.5 81.5zM-446 2087q-6 -28 2 -51.5t28.5 -39t57.5 -15.5q36 0 63.5 15.5t43.5 39t22 51.5t-1 51.5t-28 39.5t-58 16q-36 0 -63 -16t-44 -39.5t-23 -51.5z" />
<glyph unicode="&#xe32;" horiz-adv-x="1265" d="M262 1028l20 92q17 78 57.5 143t111.5 111.5t174 71.5t244 25q146 0 242.5 -20.5t149.5 -62t67.5 -103t-2.5 -142.5l-242 -1143h-293l227 1070q9 44 11.5 80.5t-13.5 63.5t-59 41.5t-123 14.5q-75 0 -124 -14.5t-78.5 -39.5t-45 -58.5t-23.5 -73.5l-11 -56h-290z" />
<glyph unicode="&#xe33;" horiz-adv-x="1265" d="M-218 1907.5q-8 58.5 5 118.5t46 119t83 104.5t117 73.5t149 28q81 0 135.5 -28t85 -73.5t38.5 -104.5t-5 -119t-45.5 -118.5t-83 -104.5t-117 -73t-147.5 -27q-82 0 -136 27t-85.5 73t-39.5 104.5zM-13 2030q-7 -32 1 -60t32 -47.5t65.5 -19.5t72.5 19.5t51 47.5t27 60 t-1 60.5t-30.5 47t-64 18.5t-74.5 -18.5t-52.5 -47t-26.5 -60.5zM262 1028l20 92q17 78 57.5 143t111.5 111.5t174 71.5t244 25q146 0 242.5 -20.5t149.5 -62t67.5 -103t-2.5 -142.5l-242 -1143h-293l227 1070q9 44 11.5 80.5t-13.5 63.5t-59 41.5t-123 14.5 q-75 0 -124 -14.5t-78.5 -39.5t-45 -58.5t-23.5 -73.5l-11 -56h-290z" />
<glyph unicode="&#xe34;" d="M-1055 1703l35 165q20 94 81 161t150.5 110t201.5 63t234 20q156 0 270 -30t184.5 -81.5t97 -121.5t8.5 -150l-30 -136h-1232zM-728 1868h659l5 21q1 9 -2 24t-14.5 31.5t-32.5 32.5t-55.5 29t-84 21.5t-116.5 8.5q-54 0 -113 -5t-109 -20t-85.5 -43.5t-45.5 -74.5z" />
<glyph unicode="&#xe35;" d="M-1055 1703l35 165q20 94 81 161t150.5 110t201.5 63t234 20q104 0 188.5 -13t150.5 -37l44 215h293l-146 -684h-1232zM-728 1868h659l5 21q1 9 -2 24t-14.5 31.5t-32.5 32.5t-55.5 29t-84 21.5t-116.5 8.5q-54 0 -113 -5t-109 -20t-85.5 -43.5t-45.5 -74.5z" />
<glyph unicode="&#xe36;" d="M-1055 1703l35 165q20 94 81 161t150.5 110t201.5 63t234 20q46 0 86 -2q41 -1 80 -6q13 41 43 78t71.5 65t89 44.5t99.5 16.5q63 0 112 -18t82 -52t46 -82t0 -108q-13 -63 -51.5 -119.5t-95.5 -92.5q11 -51 -2 -107l-30 -136h-1232zM-728 1868h659l5 21q1 9 -2 24 t-14.5 31.5t-32.5 32.5t-55.5 29t-84 21.5t-116.5 8.5q-54 0 -113 -5t-109 -20t-85.5 -43.5t-45.5 -74.5zM-33.5 2154q-6.5 -28 0.5 -51.5t28.5 -40t58.5 -16.5q36 0 63 16.5t43.5 40t22.5 51.5t-1.5 51.5t-28 40t-57.5 16.5q-36 0 -63 -16.5t-43.5 -40t-23 -51.5z" />
<glyph unicode="&#xe37;" d="M-1055 1703l35 165q20 94 81 161t150.5 110t201.5 63t234 20h20h20l36 165h223l-40 -191q41 -10 76 -23.5t67 -28.5l51 243h223l-146 -684h-1232zM-728 1868h659l5 21q1 9 -2 24t-14.5 31.5t-32.5 32.5t-55.5 29t-84 21.5t-116.5 8.5q-54 0 -113 -5t-109 -20t-85.5 -43.5 t-45.5 -74.5z" />
<glyph unicode="&#xe38;" d="M-867 -452q15 63 48 111t78 79.5t99 48t111 16.5q78 0 130 -24.5t80.5 -68t35 -103.5t-9.5 -130l-88 -418h-289l53 249q-63 -12 -114.5 2t-85 46t-47 81.5t-1.5 110.5zM-729 -490.5q3 -21.5 15 -38t32.5 -25.5t50.5 -9q29 0 53.5 9t42 25t30 36t17.5 41q6 23 3 45 t-13.5 38.5t-31.5 27.5t-51 11t-54 -10t-42.5 -26.5t-31 -38t-17.5 -41.5q-6 -23 -3 -44.5z" />
<glyph unicode="&#xe39;" d="M-1378.5 -565.5q-4.5 42.5 7.5 96.5q13 59 43 107.5t74 84t100 55.5t119 20q87 0 140 -27.5t80 -73.5t30.5 -106.5t-10.5 -125.5l-44 -211h206l112 533h294l-155 -725h-782l43 210q-34 -4 -68.5 -2t-66.5 12t-58.5 29.5t-43 50t-21 73zM-1210.5 -472q-6.5 -30 0.5 -55 t28.5 -41.5t60.5 -16.5q37 0 65.5 16.5t46.5 41.5t24.5 55t-0.5 55t-29.5 41.5t-59.5 16.5t-65.5 -16.5t-46.5 -41.5t-24.5 -55z" />
<glyph unicode="&#xe3a;" d="M-681.5 -417.5q10.5 52.5 43.5 98.5t85 76q53 30 121 30q69 0 108 -30t52 -76t1.5 -98.5t-43.5 -98t-84 -76t-121 -30.5t-108 30.5t-52 76t-2.5 98z" />
<glyph unicode="&#xe3e;" />
<glyph unicode="&#xe3f;" horiz-adv-x="1573" d="M282 0l310 1464h455l43 206h147l-44 -206q65 0 123 -10.5t105 -29.5q42 -15 81.5 -41t68 -64t41 -88.5t4.5 -117.5q-14 -101 -58 -171.5t-106 -115.5t-137 -66t-152 -21q73 0 134 -20.5t103.5 -61.5t61 -103t5.5 -144q-14 -81 -47 -141t-76.5 -103t-94.5 -71.5 t-102.5 -46.5t-99 -26.5t-84 -12t-58 -5t-23.5 -4.5l-41 -197h-147l41 197h-453zM591 183h183l100 469h-185zM726 821h183l102 475h-183zM919 180q0 -1 16.5 -2t42.5 5.5t57.5 21.5t62 42.5t55.5 71t38 106.5q12 48 2.5 83t-28 60t-44.5 40t-48 24t-38 11l-17 2zM1057 828 q-2 -1 15.5 -0.5t44.5 7.5t60.5 23t66 44t57.5 70q26 40 40 103q10 43 7.5 75.5t-14 55t-28.5 38.5q-18 17 -38 26q-45 23 -111 23z" />
<glyph unicode="&#xe40;" horiz-adv-x="918" d="M267 230q3 39 13 87l243 1147h294l-192 -896q16 3 29.5 3h30.5q26 0 58 -6t64 -20q50 -23 77.5 -66.5t33.5 -97.5t-8.5 -113t-50.5 -114q-48 -72 -115.5 -111.5t-137.5 -50.5t-136.5 1.5t-110.5 43.5q-37 26 -58 55.5t-29.5 63t-4.5 74.5zM502 282q-7 -30 1 -56.5t30 -44 t62 -17.5t70 17.5t48 44t25 56.5t-1 55.5t-30.5 43.5t-61.5 18q-40 0 -70 -18t-48 -43.5t-25 -55.5z" />
<glyph unicode="&#xe41;" horiz-adv-x="1698" d="M292 230q3 39 13 87l244 1147h293l-191 -896q14 3 28.5 3h29.5q26 0 59 -6t64 -20q50 -23 78 -66.5t34 -97.5t-9.5 -113t-49.5 -114q-48 -72 -115.5 -111.5t-137.5 -50.5t-136 1.5t-111 43.5q-38 26 -58.5 55.5t-29 63t-5.5 74.5zM527 282q-6 -30 1 -56.5t30 -44 t63 -17.5t69 17.5t47.5 44t25 56.5t-0.5 55.5t-30 43.5t-63 18t-69 -18t-48 -43.5t-25 -55.5zM1061 230q3 39 13 87l243 1147h293l-191 -896q15 3 28.5 3h31.5q24 0 57.5 -6t65.5 -20q50 -23 77.5 -66.5t33.5 -97.5t-9 -113t-49 -114q-49 -72 -116.5 -111.5t-137.5 -50.5 t-136.5 1.5t-111.5 43.5q-38 26 -58.5 55.5t-28.5 63t-5 74.5zM1296.5 282q-6.5 -30 0.5 -56.5t30 -44t63 -17.5t69.5 17.5t48 44t25 56.5t-1 55.5t-30 43.5t-62.5 18t-69.5 -18t-48 -43.5t-25 -55.5z" />
<glyph unicode="&#xe42;" horiz-adv-x="1065" d="M370 1981q26 108 84.5 195.5t140 149t179.5 95t201 33.5q66 0 124.5 -13.5t117.5 -31.5t124.5 -34.5t147.5 -20.5q48 -5 81.5 6.5t56.5 28t36 31.5t19 18l45 -197q-25 -23 -60 -42q-30 -15 -74 -28t-103 -15q-41 -2 -83.5 6.5t-84.5 21t-85 29t-86.5 31t-88 24.5 t-88.5 10q-30 0 -61.5 -6.5t-61.5 -19.5t-57.5 -32t-47.5 -45q-11 -13 -19.5 -29.5t-17.5 -29.5q2 0 19.5 -2.5t47 -12t69 -24.5t83.5 -38t67 -47t31 -49t5 -53t-9 -60l-268 -1262q14 3 28.5 3h29.5q26 0 58 -6t65 -20q49 -23 77.5 -66.5t34 -97.5t-9.5 -113t-49 -114 q-48 -72 -115.5 -111.5t-138 -50.5t-136.5 1.5t-110 43.5q-38 26 -58.5 55.5t-29 63t-5.5 74.5q3 39 13 87l317 1492q6 31 -0.5 54t-23 39.5t-42.5 28t-57 20.5q-40 11 -80 17.5t-72 8.5t-54.5 3t-25.5 1zM629.5 282q-6.5 -30 1 -56.5t30.5 -44t63 -17.5t69 17.5t47.5 44 t25 56.5t-1 55.5t-30 43.5t-62.5 18t-69 -18t-48 -43.5t-25.5 -55.5z" />
<glyph unicode="&#xe43;" horiz-adv-x="1178" d="M329 1910q8 131 59.5 237.5t135.5 181.5t195.5 116.5t241.5 41.5q107 0 191.5 -30t139 -87.5t74.5 -139.5t-2 -187q-17 -77 -51.5 -145t-74.5 -122q-31 -43 -53 -76.5t-38 -65t-26.5 -65t-19.5 -76.5l-197 -925q14 3 28.5 3h29.5q26 0 58 -6t65 -20q50 -23 77.5 -66.5 t34 -97.5t-8.5 -113t-50 -114q-48 -72 -115.5 -111.5t-138 -50.5t-135.5 1.5t-111 43.5q-37 26 -58 55.5t-29.5 63t-5.5 74.5q3 39 13 87l249 1169q10 46 21 83.5t27 72t36.5 66t49.5 64.5q49 58 83 127.5t48 136.5q12 55 8.5 103.5t-26 85.5t-65 58.5t-108.5 21.5 q-56 0 -99.5 -13t-77 -33.5t-56.5 -45t-38 -45t-22 -35.5t-7 -17q4 0 20.5 5t43 6.5t60.5 -5t73 -28.5q27 -15 42 -42t20 -60.5t-2 -71.5t-23 -74.5t-40 -68t-57 -52.5q-54 -35 -105.5 -47.5t-97 -7.5t-81.5 25.5t-62 52t-37.5 73.5t-5.5 89zM506 1854.5q6 -21.5 24.5 -35.5 t50.5 -14q31 0 56 14t40 35.5t21 47.5t-0.5 47.5t-25 35.5t-50.5 14q-31 0 -55.5 -14t-39.5 -35.5t-21 -47.5t0 -47.5zM780 282q-6 -30 1 -56.5t30 -44t63 -17.5t69 17.5t48 44t25 56.5t-1.5 55.5t-30.5 43.5t-62 18q-40 0 -69 -18t-48 -43.5t-25 -55.5z" />
<glyph unicode="&#xe44;" horiz-adv-x="1141" d="M342 2178l124 312q3 0 20 0.5t40 -5t47.5 -21.5t42.5 -47q12 -25 17.5 -54t8.5 -58.5t5 -58t6.5 -52t12.5 -38.5t22 -18q17 -2 37.5 12t43 38t47.5 55t54 62.5t61.5 60.5t71 50t80.5 29.5t91 -0.5q203 -37 136 -277q-17 -60 -38.5 -110t-45 -97.5t-48.5 -94.5t-50 -101 q-14 -33 -22 -56t-13 -41.5t-8.5 -38t-9.5 -47.5l-216 -1014q16 3 30 3h29q26 0 59 -6t64 -20q50 -23 78 -66.5t33.5 -97.5t-9.5 -113t-49 -114q-32 -48 -73 -81t-87 -53t-93 -28t-92 -4.5t-85.5 16.5t-71.5 33q-37 26 -58 55.5t-28.5 63t-5.5 74.5q3 39 13 87l271 1269 q8 38 19 69t26.5 61t35 61t43.5 69l41 61.5t38 63.5t29 61.5t18 54t2 42t-18 25.5q-24 11 -45 1.5t-43 -31.5t-47.5 -55.5t-60.5 -72.5q-25 -30 -56 -68.5t-63 -70.5t-64.5 -53.5t-62.5 -17.5q-25 3 -40 17.5t-24.5 38.5t-15.5 56t-13 71.5t-18.5 84t-31.5 91.5 q-7 17 -20.5 25t-28 10t-26.5 0t-16 -2zM735.5 282q-6.5 -30 1.5 -56.5t30 -44t62 -17.5t69.5 17.5t48 44t25 56.5t-0.5 55.5t-30 43.5t-63 18t-69.5 -18t-48 -43.5t-25 -55.5z" />
<glyph unicode="&#xe45;" horiz-adv-x="1324" d="M269 1028l20 92q17 78 61.5 142.5t118.5 110.5t180.5 71.5t248.5 26.5q287 3 404.5 -79t81.5 -249l-370 -1744h-293l354 1671q9 44 9.5 80.5t-19.5 63.5t-67.5 41.5t-133.5 14.5q-83 0 -136 -14.5t-85 -39.5t-48.5 -58.5t-23.5 -73.5l-12 -56h-290z" />
<glyph unicode="&#xe46;" horiz-adv-x="2156" d="M874.5 918q-0.5 60 14.5 123t42 123q59 130 164 209.5t239 97.5l183 -131l256 131q7 0 32 -1t59.5 -9t72.5 -25t71 -46q48 -44 68 -90t22.5 -89.5t-5.5 -80.5q-8 -35 -14 -60l-183 -861q-20 -95 -39 -181.5t-48.5 -165t-74.5 -150t-118 -132.5q-67 -56 -127 -89 t-106 -49.5t-73 -20.5t-29 -3l-140 202q3 0 35 7t74.5 21.5t89 35.5t79.5 49q38 31 61.5 62t39.5 62t25 67t18 79l226 1058q10 44 11.5 80.5t-14.5 66.5q-11 20 -22 34t-20 21.5t-15.5 11t-8.5 3.5l-246 -140l-176 129q-1 0 -13 -5.5t-28 -16.5t-33 -27.5t-29 -39.5 q-22 -41 -26 -72.5t-2 -44.5q3 0 15.5 3.5t30.5 5.5t40.5 1.5t46.5 -7.5t47 -24.5t42 -47.5q15 -27 18 -61t-7 -70.5t-31 -73t-51.5 -66t-70.5 -49.5t-87 -24q-76 -7 -130.5 11.5t-88.5 56.5t-50 90t-16.5 112zM1093 867.5q-5 -23.5 1 -44.5t22.5 -34.5t47.5 -13.5 q30 0 53 13.5t38 34.5t19 44.5t-1.5 44t-22.5 34.5t-47 14t-53 -14t-37.5 -34.5t-19.5 -44z" />
<glyph unicode="&#xe47;" d="M-938 1746l46 220q11 49 24 95.5t31 88t39 77.5q22 35 49 64q55 57 129 90t159 47t177 17t187 3q87 -1 150.5 9.5t109.5 26.5t76 33.5t47 33.5t24 26.5t9 10.5l79 -146q-2 2 -15 -14t-39.5 -38t-68.5 -46q-43 -25 -101 -39t-115.5 -17t-114.5 -1.5t-113 3.5t-109.5 -1.5 t-104 -17t-97.5 -42.5q-38 -21 -64.5 -57t-42.5 -78t-25.5 -86.5t-13.5 -82.5l221 161q2 -8 21 -33t65 -62q22 -20 35.5 -31t24 -16.5t20.5 -9.5t26 -9q-4 23 -4 43.5t5.5 40.5t16.5 41t26 44q32 48 79 74.5t98 34.5t98.5 -1.5t82.5 -33.5q40 -32 53 -82t-1 -104t-49 -105.5 t-90 -86.5q-49 -31 -107 -43t-113 -11t-103.5 12.5t-77.5 27.5q-24 12 -47.5 28t-44.5 34t-34.5 33t-16.5 22l-186 -147h-310zM-88.5 1988q-5.5 -27 0.5 -50t25.5 -38t53.5 -15q35 0 60 15t41.5 38t22 50t-1.5 50t-25.5 38t-53.5 15q-34 0 -59.5 -15t-41.5 -38t-21.5 -50z " />
<glyph unicode="&#xe48;" d="M74 2508l109 508h290l-108 -508h-291z" />
<glyph unicode="&#xe49;" d="M-46 2468l29 117q26 -1 45 0.5t39 8.5t41 20.5t48 36.5q-14 -3 -30.5 -5t-31.5 1q-77 11 -110 63.5t-20 126.5q9 52 34.5 94.5t63.5 74t86 49t101 17.5q51 0 92 -17.5t66 -47.5t35 -71.5t0 -91.5q-13 -64 -49.5 -121t-85.5 -102h21t51.5 4.5t72.5 17.5t84 37 q53 28 88 69.5t56.5 86t32.5 86t13 68.5h221q-2 -4 -10.5 -37t-28.5 -81.5t-53 -106t-83 -111.5q-81 -86 -191.5 -130t-243.5 -56q-112 -10 -204.5 -10t-178.5 10zM108 2853.5q-5 -23.5 1.5 -43.5t23.5 -33.5t47 -13.5t53.5 13.5t38 33.5t19 43.5t-1.5 43t-24 33t-48 13.5 t-52.5 -13.5t-37 -33t-19.5 -43z" />
<glyph unicode="&#xe4a;" d="M-311 2628q-4 49 7.5 104.5t39 108.5t67.5 94.5t90 67.5t107 26q31 0 55.5 -7.5t41 -18t27 -22t18.5 -19.5q25 27 63 47.5t87 20.5q51 0 82 -20t46.5 -53.5t17 -75t-7.5 -84.5q-15 -67 -40 -113.5t-44 -73.5q34 17 63 47t51.5 66.5t37 75t21.5 72.5q6 23 11 49.5t12 59.5 q11 49 23.5 81t24.5 52t20 28.5t8 10.5h183q-40 -40 -58.5 -71.5t-26.5 -57.5q-15 -56 -28.5 -104.5t-29.5 -95.5t-38 -95t-58 -99.5t-89 -84.5t-110.5 -49.5t-115.5 -19.5t-105 3q48 67 73 136t41 137q6 29 8 55.5t-1.5 46.5t-14.5 31.5t-32 11.5q-14 0 -29 -5t-29 -13 t-24.5 -16t-16.5 -13q-20 25 -50 33.5t-57 8.5q-16 0 -31.5 -4t-29 -14t-23.5 -23t-15 -30q23 7 42.5 10t27.5 3q35 0 63 -14.5t45 -38.5t23 -57q8 -32 0 -66q-9 -42 -32 -76t-54.5 -59t-70 -38.5t-77.5 -13.5q-60 0 -100.5 20t-62 55t-26.5 83zM-158.5 2656 q-4.5 -21 0.5 -38t20 -29t42 -12q26 0 46 12t33 29t17 38t-1 38t-20.5 28.5t-41.5 11.5q-27 0 -47 -11.5t-32 -28.5t-16.5 -38z" />
<glyph unicode="&#xe4b;" d="M-167 2673l38 178h263l39 183h292l-39 -183h263l-37 -178h-264l-39 -183h-293l40 183h-263z" />
<glyph unicode="&#xe4c;" d="M-154 2520q8 57 37 113q30 57 68 92t83 55t95.5 28.5t105 14.5t111.5 11.5t114 21.5q46 11 77.5 34.5t50.5 45.5q11 13 19.5 27t17.5 27l76 -139q-3 -4 -11.5 -17.5t-26.5 -30.5t-46 -34.5t-68 -25.5q-33 -7 -72 -14.5t-73 -11.5t-56 -7t-22 -2q1 -1 10.5 -11t18 -32 t11.5 -56.5t-10 -83.5q-16 -55 -46 -97.5t-71.5 -72.5t-94 -43.5t-113.5 -9.5q-70 5 -113.5 36.5t-60.5 77.5t-11 104zM10 2493q6 -22 25 -36.5t52 -14.5q35 0 60 14.5t40.5 36.5t22 48.5t0 49.5t-25 37.5t-51.5 14.5q-34 0 -59 -14.5t-41.5 -37.5t-22.5 -49.5t0 -48.5z" />
<glyph unicode="&#xe4d;" d="M-221.5 1907.5q-8.5 58.5 5 118.5t45.5 119t83 104.5t118 73.5t147 28q82 0 137 -28t85.5 -73.5t38 -104.5t-5.5 -119t-45 -118.5t-82 -104.5t-116.5 -73t-148.5 -27q-81 0 -136.5 27t-86 73t-39 104.5zM-17 2030q-7 -32 0.5 -60t32 -47.5t67.5 -19.5q41 0 72 19.5 t51 47.5t27 60t-1.5 60.5t-31.5 47t-64.5 18.5t-73.5 -18.5t-52 -47t-27 -60.5z" />
<glyph unicode="&#xe4e;" d="M-419 1848q0 48 18 89.5t48 73.5t68 56.5t78 42.5t80 31t74 20q-64 8 -96 37q-34 29 -34 76q0 34 21.5 66t60 61.5t90 54.5t111.5 43t125 28t131 10q42 0 110.5 -8t151.5 -32l-30 -125q-6 3 -31 9t-56 12.5t-61.5 10.5t-49.5 4q-31 0 -71 -5t-76.5 -16.5t-63.5 -30.5 t-33 -45q-4 -17 5 -33.5t27.5 -28.5t42.5 -19.5t49 -7.5l-25 -124l-89 -4q-60 -5 -113.5 -13.5t-96.5 -28t-71.5 -48.5t-38.5 -75q-9 -41 14 -66q21 -24 67 -33q30 -5 62 3.5t56 25.5t34.5 39t-0.5 45l95 38q22 -36 22.5 -71t-15 -66t-43.5 -58t-64.5 -48t-77 -34.5 t-80.5 -16.5q-63 -4 -112.5 2t-86 18.5t-61.5 30.5t-40 37.5t-20.5 38.5t-4.5 34z" />
<glyph unicode="&#xe4f;" horiz-adv-x="1939" d="M376 515.5q-7 105.5 16.5 216t75 216.5t130 199.5t181.5 163.5t229 111.5t273 41.5q146 0 254.5 -41.5t181.5 -111.5t112 -163.5t46 -199.5t-16.5 -216.5t-75 -216t-130.5 -199t-181.5 -163.5t-229.5 -111.5t-272 -41.5q-146 0 -255 41.5t-182 111.5t-111.5 163.5 t-45.5 199zM560.5 569.5q5.5 -79.5 35 -149.5t84.5 -122.5t136.5 -83.5t191.5 -31q112 0 206 31t171.5 83.5t137 122.5t98.5 149.5t56.5 163.5t12.5 162.5t-34.5 148.5t-84.5 123t-136.5 83.5t-193.5 30.5q-110 0 -205 -30.5t-172.5 -83.5t-136 -123t-97.5 -148.5 t-57 -162.5t-12.5 -163.5zM731 580.5q-15 71.5 3 151.5q17 82 62 152.5t109.5 123t141.5 82.5t157 30q82 0 146 -30t105.5 -82.5t56.5 -123t-2 -152.5q-17 -80 -63 -151.5t-109.5 -125t-141.5 -84.5t-158 -31t-145 31t-106 84.5t-56 125zM888.5 641.5q9.5 -42.5 34 -73 t63 -48.5t86.5 -18q49 0 95.5 18t83.5 48.5t63.5 73t38.5 90.5q10 49 1.5 90.5t-33 73t-64 49t-87.5 17.5q-49 0 -95.5 -17.5t-83.5 -49t-63.5 -73t-36.5 -90.5q-12 -48 -2.5 -90.5z" />
<glyph unicode="&#xe50;" horiz-adv-x="1645" d="M284 295.5q-21 99.5 5 225.5q27 124 90.5 223.5t161.5 169.5t229 107t290 37q156 0 268.5 -37t182 -107t93 -169.5t-3.5 -223.5q-27 -126 -90.5 -227t-162.5 -172t-229 -108.5t-289 -36.5q-160 2 -274.5 40.5t-182 108.5t-88.5 169.5zM560 376q9 -64 45 -111.5t100 -74 t157 -26.5q99 0 177 26t135 73t93.5 112t53.5 141q16 77 8 141.5t-43.5 112t-101.5 73t-166 25.5q-99 0 -175.5 -25.5t-132 -73t-92 -112t-52.5 -141.5q-15 -76 -6 -140z" />
<glyph unicode="&#xe51;" horiz-adv-x="1603" d="M224 290q-11 93 19 215q29 116 90.5 214.5t158 170.5t228 112t300.5 40q117 0 207 -19t155 -53.5t108 -83t65 -109.5t25.5 -130t-10.5 -145q-20 -113 -68.5 -214t-116 -184.5t-146 -145t-155.5 -94.5l-132 122q2 0 23.5 6.5t53.5 25.5t70.5 55t76 93t69 139.5t48.5 196.5 q11 70 3 137t-43 119.5t-100 84.5t-169 32q-95 0 -172.5 -27t-138.5 -77t-104.5 -119t-66.5 -150q-12 -36 -16 -76.5t-1 -80.5t13.5 -76.5t32 -64t53.5 -42.5q31 -15 77 -12q23 2 36.5 4.5t22.5 7t18.5 11.5t26.5 17q-37 6 -63.5 24t-43.5 44.5t-22 60t3 69.5q9 45 33 85 t59 69t81.5 44t101.5 12q63 -5 101.5 -30.5t55.5 -65t15 -88.5q-2 -48 -22 -102q-19 -59 -61.5 -118.5t-107 -106.5t-147 -74t-179.5 -20q-97 6 -171.5 41t-118.5 99t-55 157zM764 383q-5 -25 1 -47.5t24 -36.5t50 -14t57 14t40 36.5t20.5 47.5t-0.5 47t-25 36t-50 14 q-32 0 -56 -14t-40 -36t-21 -47z" />
<glyph unicode="&#xe52;" horiz-adv-x="1851" d="M275 1293l201 211q40 -1 73.5 -9.5t64.5 -23t58 -34.5q27 -21 54 -47q40 -39 60.5 -81.5t26 -92t0 -104.5t-20.5 -117l-121 -570q-5 -23 -10.5 -44t-10 -40t-3.5 -37.5t9 -40.5q30 -73 116 -73h451q23 0 43 1t38.5 6t37.5 14t44 26q17 13 29 26.5t20 28.5t13 32.5t9 38.5 l77 365q5 23 9 47t2 45t-11.5 34.5t-30.5 13.5q-26 1 -46 -7.5t-33.5 -22.5t-20.5 -33.5t-7 -39.5h-132q6 20 3 39.5t-13 33t-26.5 20.5t-37.5 6q-23 -2 -38 -9.5t-26.5 -20t-19.5 -29t-16 -33.5q-9 -23 -14 -43t-7 -35.5t-3 -24t-1 -10.5q52 20 97 12.5t85 -38.5 q19 -15 28 -39.5t9 -55t-8.5 -63.5t-27 -62.5t-46 -53.5t-61.5 -37q-76 -29 -141.5 -17t-108 61.5t-53.5 133t20 195.5q43 163 126.5 249.5t210.5 95.5q59 2 95.5 -15.5t55 -40.5t24.5 -42.5t4 -19.5q-3 -3 11.5 17.5t46.5 44t83 41.5q49 19 118 15q59 -5 101.5 -29t68 -64 t31 -93t-7.5 -115l-81 -384q-8 -33 -17 -66t-22.5 -64t-33.5 -61t-50 -58q-32 -29 -62.5 -49t-61.5 -33t-64 -18q-35 -6 -73 -6h-716q-77 0 -133 20t-102 72q-45 51 -51.5 116t10.5 151l134 633q6 26 11 54.5t6 57.5t-7 56q-7 30 -25 53q-26 33 -62 49t-68 22.5t-56.5 7.5 t-26.5 1zM1014 487.5q-4 -21.5 1 -40.5t21 -31.5t45 -12.5t50.5 12.5t34 31.5t17.5 40.5t-0.5 40t-21.5 31t-44 12.5q-29 0 -50.5 -12.5t-35 -31t-17.5 -40z" />
<glyph unicode="&#xe53;" horiz-adv-x="1675" d="M257.5 309.5q-2.5 93.5 18.5 202.5q21 117 67.5 216t114.5 169t154 107.5t185 37.5q70 0 112 -15t67.5 -42.5t39.5 -65t26 -81.5q30 49 64 87.5t74.5 65t92 39t117.5 12.5q97 0 153 -33.5t80 -87.5t24 -124.5t-15 -144.5l-139 -652h-285l139 659q6 26 8.5 56t-3.5 55 t-23.5 41.5t-51.5 16.5q-37 -1 -64.5 -20.5t-46.5 -48t-30.5 -63.5t-17.5 -65l-30 -141h-246l30 141q9 37 7.5 72.5t-12 64.5t-34.5 46t-59 17q-38 -2 -69 -22t-55 -52.5t-41 -75.5t-26 -92q-11 -56 -12.5 -88t0.5 -49t4.5 -21.5t0.5 -5.5l43 10q20 3 49.5 3t62.5 -10 q35 -10 61 -29.5t40.5 -47.5t17 -63.5t-7.5 -74.5q-11 -49 -36 -92.5t-63.5 -74t-90 -48t-117.5 -12.5q-92 3 -152 45.5t-91.5 113.5t-34 164.5zM512 212q-6 -25 1.5 -47t26 -37t51.5 -15q32 0 57.5 15t41 37t21 47t-0.5 47.5t-25.5 37.5t-52.5 15t-58 -15t-40.5 -37.5 t-21.5 -47.5z" />
<glyph unicode="&#xe54;" horiz-adv-x="1650" d="M211.5 287.5q-7.5 71.5 8.5 170.5q20 115 66.5 211t109.5 168t139.5 119.5t156.5 64.5q74 17 143 22t132.5 2t121.5 -8.5t114.5 -10t108.5 -3.5t105 12q73 17 124.5 61t87.5 102.5t60 127t43 138.5l200 -124q-13 -64 -41.5 -130.5t-71 -127.5t-97.5 -111t-123 -82 q-73 -32 -144.5 -43t-145 -10t-151.5 8.5t-164 12.5q-116 4 -202 -24t-145 -78.5t-94 -121.5t-48 -153q-6 -41 -6.5 -86t8 -85t29 -73.5t56.5 -52.5t89.5 -21t129.5 21q37 11 60.5 17t38 9t20 3.5t8.5 0.5q-3 0 -21 6.5t-41.5 19.5t-50 34.5t-46.5 51.5t-30 70q-11 40 -3 93 q3 31 21 73t52.5 81.5t87.5 66t127 26.5q49 0 84.5 -16.5t57 -44.5t28 -63.5t-2.5 -75.5q-13 -59 -38.5 -93t-51.5 -54q-34 -22 -61 -33q0 -5 2.5 -16.5t12 -26.5t28 -30t50.5 -26q25 -11 46 -16t42.5 -8t45.5 -6t57 -10q37 -10 61.5 -23.5t38 -26t19.5 -21.5t7 -9 l-146 -150q-10 8 -21.5 14t-26.5 14q-28 12 -63.5 21t-89.5 12q-56 0 -117.5 -9t-124.5 -20.5t-126.5 -22.5t-125 -13t-119.5 8t-110 40q-45 21 -84 53.5t-63 82.5t-31.5 121.5zM896 531q-5 -22 0.5 -42t22 -33t46.5 -13t52.5 13t36 33t18.5 42t-1 41.5t-22.5 32.5t-46.5 13 t-52 -13t-35.5 -32.5t-18.5 -41.5z" />
<glyph unicode="&#xe55;" horiz-adv-x="1713" d="M208 288q-8 72 9 172q39 221 147 354t272 186q60 20 111.5 30.5t90.5 13.5t63 3h31q-13 14 -23.5 28.5t-19.5 34.5q-5 15 -8 34t-1.5 42.5t9.5 50.5t23 59q26 51 62 86t78.5 57t90 31.5t97.5 8.5q101 -3 155 -46t62 -123q3 -46 -5 -79t-21 -56l-31 -47q3 0 16.5 -2t35 -2 t48.5 2t56.5 10.5t59.5 26t57 45.5q40 42 63 86t40 86q9 26 16 50t11 49l210 -118q0 -3 -11 -32t-33.5 -72t-56 -89.5t-79.5 -83.5q-68 -57 -139 -88.5t-137 -45t-123.5 -14.5t-101.5 4t-70 12.5t-29 7.5q-12 -12 -25 -20.5t-27 -17.5q-27 -13 -73.5 -27t-116.5 -17 q-124 -4 -210.5 -35t-143 -84t-88 -123t-44.5 -153q-6 -43 -6.5 -88.5t7 -87t28.5 -76t56.5 -53.5t88 -21.5t126.5 19.5q37 11 60.5 18.5t38.5 11t21.5 5.5t8.5 2q-3 0 -20 6.5t-41.5 19.5t-50 34.5t-46.5 51.5t-31 70t-1 93q2 31 19.5 73t51.5 81.5t88 66t128 26.5 q49 0 84 -16.5t56.5 -44.5t27 -63.5t-1.5 -75.5q-13 -59 -38.5 -93t-51.5 -54q-17 -12 -32 -20t-30 -13q2 -5 4.5 -16.5t12 -26.5t27.5 -30t49 -26q26 -11 46.5 -16t42 -8t46.5 -6t58 -10q38 -10 61.5 -23.5t37 -26t19 -21.5t7.5 -9l-146 -150q-12 8 -27 14t-32 14 q-27 12 -64 22.5t-79 10.5q-57 0 -117 -9t-121.5 -20.5t-123.5 -22.5t-124.5 -13.5t-122 6t-114.5 35.5q-46 23 -84 56.5t-62.5 85t-30.5 123.5zM893 531q-5 -22 0.5 -42t22 -33t45.5 -13q30 0 52 13t36.5 33t19.5 42t-1.5 41.5t-22 32.5t-45.5 13t-52.5 -13t-36 -32.5 t-18.5 -41.5zM1047.5 1222.5q-6.5 -31.5 0.5 -58t31 -44t64 -17.5t70 17.5t49 44t26.5 58t-0.5 58t-31.5 44.5t-63.5 18t-70 -18t-49.5 -44.5t-26 -58z" />
<glyph unicode="&#xe56;" horiz-adv-x="1720" d="M323 1370l269 157q3 0 22 -15.5t45 -47t54.5 -80t47.5 -114.5q18 -67 22.5 -126t3 -102.5t-6.5 -69.5l-5 -27q3 3 17.5 13t41.5 23.5t68.5 27t98 25t130 16.5t165.5 1q103 -6 176.5 -32.5t123.5 -68t78.5 -95t39.5 -112t8 -120t-16.5 -119.5t-35 -108.5t-46.5 -88.5 q-61 -97 -129 -158.5t-148 -96.5t-173.5 -49t-206.5 -14q-115 0 -203.5 19t-148 60t-86.5 105t-16 157q6 49 28 97.5t61 87t93 62.5t123 24q56 0 94 -19t57 -51t22.5 -74t-6.5 -91q-14 -53 -33.5 -84.5t-42.5 -51.5q-11 -11 -25.5 -19.5t-29.5 -16.5q3 0 18.5 -6t40.5 -14 t60 -13t76.5 -3t88.5 15t98 43q54 33 94 84.5t67 110.5t38.5 120t7.5 114q-4 49 -22 95t-56 82t-101 56t-156 14q-61 -4 -117 -14.5t-107.5 -30.5t-98.5 -51t-90 -75h-143q6 41 11 83q6 41 6 81q2 34 1 70.5t-4.5 72.5t-11.5 68t-19 61q-19 37 -37.5 65.5t-36.5 50t-35 37.5 t-33 26q-31 28 -70 34zM662.5 384.5q-6.5 -25.5 1 -47.5t26 -37t51.5 -15t58 15t40.5 37t21.5 47.5t-0.5 48t-25 36.5t-51.5 14t-59 -14t-41 -36.5t-21.5 -48z" />
<glyph unicode="&#xe57;" horiz-adv-x="1931" d="M224 297.5q-11 101.5 9 218.5q13 93 53 185.5t101.5 166t143.5 120.5q84 47 181 52q56 2 96 -8.5t68 -27.5t43.5 -38.5t25 -41.5t11.5 -34.5t1 -18.5q13 23 28 42t33 39q32 30 79.5 56.5t116.5 33.5q92 5 154 -21.5t98 -74.5t48 -112.5t3 -134.5q-7 -64 -19 -117.5 t-26.5 -96.5t-31 -77.5t-30.5 -60.5q-20 -30 -39.5 -54t-39.5 -44q3 3 16 5.5t34.5 10.5t48.5 23t58 43.5t63.5 73.5t65.5 111q46 92 74 170.5t48.5 156.5t39.5 160t47 182q20 71 45 124.5t51.5 92.5t52.5 65.5t46.5 43t33.5 24.5t13 11l189 -140q-16 -9 -32 -20.5 t-33 -27.5q-14 -15 -30 -34.5t-31 -43.5t-29 -55.5t-27 -71.5q-24 -78 -42 -148.5t-36 -136.5t-38 -129t-45 -123.5t-60 -122t-82 -123.5q-89 -117 -182.5 -191.5t-195 -115t-212 -55.5t-228.5 -15q1 1 23.5 24t58 76t82.5 139q46 85 96 214q12 32 24 77.5t19 93t9 94.5 t-7 83.5t-30.5 58t-58.5 18.5q-33 -2 -59.5 -23t-48.5 -53.5t-38.5 -69.5t-27.5 -68t-16 -52.5t-5 -22.5h-167q0 1 4.5 22.5t8 54t3.5 69.5t-8.5 69t-29 53t-55.5 21q-39 0 -72 -21t-60 -54.5t-47 -75.5t-33 -82q-20 -72 -27 -122t-6.5 -81.5t3.5 -45.5t3 -16q1 0 22.5 11.5 t55 20t76 8t85.5 -24.5q33 -18 50 -51.5t19 -75t-12 -85.5t-44 -82t-75.5 -66t-106.5 -35q-102 -16 -174 20.5t-112.5 109.5t-51.5 174.5zM485 205q-5 -25 1 -45.5t24.5 -35t50.5 -14.5q31 0 56 14.5t40 35t21 45.5t-0.5 46t-25.5 35t-50 14t-56 -14t-40.5 -35t-20.5 -46z " />
<glyph unicode="&#xe58;" horiz-adv-x="1668" d="M208.5 308.5q-4.5 71.5 9.5 152.5t46.5 164.5t84 157.5t124 131.5t165.5 87.5q70 23 131.5 31t117 8t110 -5.5t111 -9.5t118 -3t132.5 12q56 9 103.5 35.5t86 63.5t68.5 81.5t51 88.5q53 106 83 233l208 -161q-20 -59 -46 -112t-54 -100q-28 -43 -61.5 -84.5t-75 -80 t-92 -69.5t-110.5 -52q-69 -23 -135.5 -28.5t-131 -4t-128 6.5t-123 8.5t-116.5 -1t-110 -21.5q-54 -17 -96.5 -50.5t-75 -80t-55 -103t-36.5 -121.5q-9 -43 -13 -75.5t-3.5 -57.5t4 -44.5t12.5 -35.5q9 -30 33 -47q0 2 6.5 19.5t19 42.5t31.5 54.5t45.5 54.5t58.5 43 t72 20.5t68 -9.5t49.5 -34t41.5 -51.5t43.5 -61.5t56.5 -65.5t80 -62.5q40 -23 70.5 -20t52 17t34 30t16.5 16q-2 0 -17 2t-35.5 8.5t-42.5 20t-38.5 36t-24 55t2.5 80.5q13 60 46 110.5t81.5 83t109.5 41.5t130 -12q48 -16 74.5 -46t36.5 -70t5 -86.5t-21.5 -94 t-41.5 -91.5t-55 -80q-46 -56 -99.5 -95t-111.5 -60.5t-119 -25.5q-63 -3 -123 15q-46 14 -79 35.5t-58 45.5t-44 46.5t-38 40t-38 27.5t-44 7q-17 -2 -31 -11t-24 -23.5t-17.5 -33t-11.5 -38.5q-7 -23 -10 -48t-4 -55q-2 0 -25.5 -4.5t-60 -5.5t-82 4.5t-90.5 26t-86.5 60 t-70.5 106.5q-20 50 -24.5 121.5zM1268.5 435.5q-5.5 -26.5 1 -49.5t25.5 -38t53 -15q35 0 60 15t41.5 38t21.5 49.5t-1 49.5t-25 38t-54 15q-34 0 -59.5 -15t-41.5 -38t-21.5 -49.5z" />
<glyph unicode="&#xe59;" horiz-adv-x="1844" d="M220 323q-10 100 20 226q26 103 77.5 189t120 150t149.5 104t165 50q83 12 148 6t114.5 -21.5t85 -39t61.5 -49.5q56 -66 79 -150q0 3 1.5 19.5t7 41.5t15.5 53.5t27 55t43 48t62 29.5q33 10 63 8.5t58.5 -9t55 -18.5t53 -19.5t52 -12t51.5 3.5q31 12 52.5 42.5 t37.5 73.5t26.5 91t20.5 93q13 59 20 105.5t10.5 78.5t3.5 51t2 23l227 -100q-13 -75 -28.5 -145t-37.5 -133q-18 -55 -42.5 -109.5t-55 -102.5t-69 -86t-87.5 -58q-46 -20 -83 -22t-69.5 5t-60 18t-52.5 19.5t-49 9t-46 -13.5q-29 -17 -49.5 -57t-32 -89t-13 -102.5 t9.5 -99.5q25 -94 54 -152.5t56.5 -92t47.5 -46.5t24 -13l-179 -183q-23 11 -41.5 27.5t-39.5 42.5q-16 20 -33 48.5t-33.5 66.5t-31 88t-24.5 114q-9 60 -21 123t-29 120.5t-42 106t-59.5 84t-81 55t-106.5 16.5q-70 -4 -123 -35t-90 -76.5t-60.5 -98t-38.5 -100.5 q-18 -67 -27.5 -126.5t-7.5 -108t16.5 -86.5t43.5 -64q27 -26 49 -31t38.5 -1t26.5 11t14 7q-55 41 -62.5 104t19.5 138q31 80 92 122t147 42q63 0 99.5 -28.5t49.5 -73.5t6 -100t-30 -110q-25 -64 -63.5 -117t-90.5 -89.5t-116.5 -55.5t-140.5 -15q-103 3 -180 43.5 t-121.5 113.5t-54.5 173zM722 317.5q4 -22.5 19 -38.5t47 -16q30 0 52 16t36.5 38.5t20 48.5t0.5 49t-20.5 38.5t-45.5 15.5q-27 0 -48.5 -15.5t-36.5 -38.5t-21.5 -49t-2.5 -48.5z" />
<glyph unicode="&#xe5a;" horiz-adv-x="1753" d="M323 1143q3 58 26.5 114.5t67 101.5t105 74.5t142.5 33.5q70 0 115.5 -23t67.5 -60t20 -86.5t-28 -100.5q-27 -54 -67.5 -85t-79 -45.5t-69 -17t-35.5 -2.5q8 -12 20.5 -20.5t26.5 -16.5q13 -8 29.5 -13t38 -7.5t47 -2t58.5 7.5q64 13 111.5 32.5t84 46t65.5 58.5t58 68 q30 37 51.5 81.5t37 83t23.5 66.5t9 33q23 3 44.5 1t43.5 -5q20 -4 38.5 -9t36.5 -13.5t33.5 -23t26.5 -34.5q13 -22 16 -44.5t1 -47t-8.5 -51t-12.5 -54.5l-157 -740q-13 -61 -28 -117.5t-41.5 -106t-68.5 -91.5t-111 -77q-54 -28 -105.5 -42.5t-91.5 -19.5t-65 -4t-27 1 l-84 204q1 2 14.5 1t34.5 0.5t48 5t57 12t59.5 23t56.5 38.5q19 16 30.5 41.5t17.5 53.5t11 55q4 29 8 49l105 493q0 -1 -25 -24t-75 -51t-125.5 -51.5t-176.5 -26.5q-89 0 -165.5 20t-132 61t-85 104t-22.5 149zM538.5 1263q-6.5 -25 0.5 -47t25.5 -37t51.5 -15t58 15 t41 37t21.5 47t-1 47.5t-25 36.5t-51.5 14t-58.5 -14t-40.5 -36.5t-21.5 -47.5zM1350 0l313 1471h239l-313 -1471h-239z" />
<glyph unicode="&#xe5b;" horiz-adv-x="2748" d="M254.5 563q1.5 75 15.5 148q53 253 219 424q86 92 178 138q91 45 194 45t171.5 -37t105.5 -100t44.5 -146t-11.5 -174q-10 -46 -28.5 -99t-45.5 -103.5t-63.5 -96.5t-81.5 -81.5t-99 -56.5t-116.5 -21t-107 27.5t-74.5 81.5q-26 53 -31.5 102.5t4.5 96.5q11 54 35.5 94 t55 66t65.5 38t69.5 11t64 -14.5t48.5 -40t26 -65.5t-3 -89q-5 -30 -16.5 -60t-37.5 -62q33 23 61 55t48 69.5t33.5 76t20.5 71.5q13 60 11 111.5t-23 89.5t-61 59.5t-101 21.5q-46 0 -100 -28q-55 -28 -121 -94q-60 -63 -100 -141.5t-60 -173.5q-20 -97 -10.5 -177.5 t47.5 -143.5q83 -125 212 -125q59 0 112.5 19.5t100.5 54t88 80.5t75 102q30 45 61 102t63 121.5t63 133t61 133.5t58 124q27 57 53 103h95l8 -475l163 420h97l3 -439l208 392l42 -362l148 278q1 -12 10.5 -42.5t21.5 -69t27 -80t32 -76.5t33 -57.5t30 -22.5q26 0 46.5 -0.5 t38 -2t33 -2t31.5 0.5h232h120h3l-73 -143q-20 0 -51.5 -1.5t-78.5 -1.5q-32 -1 -54 -2t-37 -1.5t-23.5 -0.5h-14.5h-19h-11q-13 -2 -26 -2.5t-31 -0.5h-41.5h-56.5q-28 0 -52.5 2t-45 9.5t-39.5 20.5q-19 15 -34 38l-3 3q1 6 10 11q-9 0 -15.5 3t-6.5 12l-221 -421l-32 388 l-217 -404l-44 397l-171 -437h-97l-1 564q-39 -74 -79.5 -151.5t-87 -149t-101 -134.5t-120.5 -109.5t-146 -73t-174 -26.5q-84 0 -150.5 26t-114.5 71t-78 106.5t-44.5 131t-13 144.5zM657 670q-1 -21 3.5 -36t13 -24t24.5 -9q13 0 21.5 9t15 24t10.5 35t10 42 q9 41 1.5 67.5t-25.5 26.5q-20 0 -40 -26.5t-29 -67.5q-4 -20 -5 -41z" />
<glyph unicode="&#xe64;" />
<glyph unicode="&#x2000;" horiz-adv-x="1576" />
<glyph unicode="&#x2001;" horiz-adv-x="3152" />
<glyph unicode="&#x2002;" horiz-adv-x="1576" />
<glyph unicode="&#x2003;" horiz-adv-x="3152" />
<glyph unicode="&#x2004;" horiz-adv-x="1050" />
<glyph unicode="&#x2005;" horiz-adv-x="788" />
<glyph unicode="&#x2006;" horiz-adv-x="525" />
<glyph unicode="&#x2007;" horiz-adv-x="525" />
<glyph unicode="&#x2008;" horiz-adv-x="394" />
<glyph unicode="&#x2009;" horiz-adv-x="630" />
<glyph unicode="&#x200a;" horiz-adv-x="175" />
<glyph unicode="&#x200b;" />
<glyph unicode="&#x2010;" horiz-adv-x="1467" d="M272 522l50 237h1145l-50 -237h-1145z" />
<glyph unicode="&#x2011;" horiz-adv-x="1467" d="M272 522l50 237h1145l-50 -237h-1145z" />
<glyph unicode="&#x2012;" horiz-adv-x="1467" d="M272 522l50 237h1145l-50 -237h-1145z" />
<glyph unicode="&#x2013;" horiz-adv-x="1508" d="M170 512l56 257h1373l-56 -257h-1373z" />
<glyph unicode="&#x2014;" horiz-adv-x="2584" d="M167 512l55 257h2469l-54 -257h-2470z" />
<glyph unicode="&#x2018;" horiz-adv-x="673" d="M420 1363.5q2 35.5 10 69.5t19 60q67 199 183.5 302.5t281.5 112.5l-29 -136h-22t-43 -7.5t-53 -23.5t-53 -51q-22 -28 -31 -52.5t-13 -44t-4 -32t-1 -15.5q1 1 12.5 0.5t29 -4t37.5 -12t36.5 -25t26.5 -44t10 -65.5q-3 -38 -22.5 -77t-51 -70.5t-74.5 -52.5t-94 -21 q-49 0 -79.5 16t-48.5 42.5t-23.5 60.5t-3.5 69.5z" />
<glyph unicode="&#x2019;" horiz-adv-x="687" d="M388 1070l30 138q2 0 20 2.5t43 10t51.5 23.5t48.5 44q20 28 31 53.5t15.5 45t5 31.5t0.5 13h-12.5t-28.5 4t-37 12.5t-36.5 25t-28 43t-11.5 66.5q3 38 22.5 76.5t51.5 70t75 53t93 26.5q48 -3 80.5 -20.5t50 -44t22.5 -59t2.5 -67t-11.5 -67.5q-10 -33 -18 -60 q-62 -199 -178 -306q-117 -106 -281 -114z" />
<glyph unicode="&#x201c;" horiz-adv-x="1232" d="M408.5 1237q3.5 34 12 66.5t18.5 57.5q63 202 181 310t282 115l-28 -136q-7 0 -26.5 -2t-44 -10.5t-50 -25t-47.5 -45.5q-20 -25 -30.5 -51t-15 -45.5t-4.5 -31.5t-1 -12q-1 -1 10 -2t28.5 -5t37.5 -12t36.5 -24.5t28 -41.5t9.5 -64q-3 -40 -20 -79t-48 -71.5 t-73.5 -54.5t-97.5 -26q-51 3 -84 20t-50 43.5t-22 59.5t-1.5 67zM955 1238.5q3 34.5 11.5 67t18.5 60.5q62 198 179 307t282 117l-32 -143q0 2 -17.5 0.5t-43.5 -10t-54.5 -25t-51.5 -45.5q-20 -30 -28.5 -55t-14.5 -45q-3 -11 -4.5 -21t0.5 -19q0 -1 12 -2t30 -4.5 t38.5 -12t38 -25t28.5 -43.5t10 -66q-7 -38 -27 -77t-52 -71t-74.5 -53.5t-92.5 -25.5q-50 3 -81.5 20t-48.5 44t-23 60t-3 67.5z" />
<glyph unicode="&#x201d;" horiz-adv-x="1232" d="M388 1070l30 138q2 0 20 2.5t43 10t51.5 23.5t48.5 44q20 28 31 53.5t15.5 45t5 31.5t0.5 13h-12.5t-28.5 4t-37 12.5t-36.5 25t-28 43t-11.5 66.5q3 38 22.5 76.5t51.5 70t75 53t93 26.5q48 -3 80.5 -20.5t50 -44t22.5 -59t2.5 -67t-11.5 -67.5q-10 -33 -18 -60 q-62 -199 -178 -306q-117 -106 -281 -114zM934 1070l30 138q3 0 20.5 2.5t42 10t51 23.5t49.5 44q20 28 30.5 53.5t15.5 45t5 31.5v13h-12.5t-28.5 4t-37 12.5t-36.5 25t-28 43t-11.5 66.5q3 38 23 76.5t52 70t75 53t93 26.5q49 -3 80.5 -20.5t49 -44t22.5 -59t2.5 -67 t-10.5 -67.5t-18 -60q-62 -199 -178 -306q-117 -106 -281 -114z" />
<glyph unicode="&#x2022;" horiz-adv-x="1309" d="M401 548q-11 75 5.5 152.5t59 152.5t106.5 133.5t149.5 94.5t189.5 36q103 0 173.5 -36t109.5 -94.5t49 -133.5t-6.5 -152.5t-59 -152.5t-106 -133.5t-149 -94t-188.5 -35.5t-174 35.5t-109.5 94t-49.5 133.5z" />
<glyph unicode="&#x202f;" horiz-adv-x="630" />
<glyph unicode="&#x205f;" horiz-adv-x="788" />
<glyph unicode="&#x20ac;" horiz-adv-x="1374" d="M173 592l80 189h117l12 53q4 23 9 43.5t12 43.5h-153q9 21 18 46t19 51t20 50q10 25 19 46h140q102 223 273 372q132 114 283.5 173.5t327.5 59.5q91 0 171.5 -16.5t144.5 -49.5q-32 -73 -62.5 -144.5t-61.5 -144.5q-40 43 -106.5 65t-157.5 22q-77 0 -150 -27 t-136.5 -73.5t-114 -107t-82.5 -129.5h634l-81 -193h-616q-13 -34 -20.5 -69t-9.5 -71h588l-73 -189h-529q0 -64 12 -114t34 -83q47 -72 118.5 -110.5t164.5 -38.5q106 0 195 30.5t171 93.5l-69 -321q-78 -32 -165.5 -49t-181.5 -17q-170 0 -294.5 55.5t-209.5 173.5 q-55 74 -83 169t-31 211h-176z" />
<glyph unicode="&#x2122;" horiz-adv-x="2471" d="M599 1596l36 171h802l-37 -171h-296l-173 -817h-199l175 817h-308zM1347 779l210 988h312l39 -679l324 679h311l-211 -988h-190l169 791l-382 -791h-179l-44 791l-167 -791h-192z" />
<glyph unicode="&#x25cc;" horiz-adv-x="2452" d="M819 1051l183 80q-7 -23 -14 -44.5t-13 -44.5q-4 -18 -5.5 -36.5t-2.5 -38.5zM899 601l99 171q17 -36 39.5 -63.5t49.5 -53.5zM1117 1497l151 -58q-40 -23 -74 -50.5t-66 -60.5zM1270 571q18 -3 39.5 -5.5t40.5 -2.5q20 0 36.5 2.5t33.5 5.5l-106 -153zM1463 1513 l119 163l47 -160q-17 3 -37 3h-39q-23 0 -45 -1.5t-45 -4.5zM1642 648q35 23 67.5 48t60.5 55l12 -150zM1806 1439l193 58l-100 -171q-17 32 -39 59.5t-54 53.5zM1909 974q6 16 12.5 33t10.5 35q4 20 6.5 41.5t3.5 40.5l136 -82z" />
<glyph unicode="&#x25fc;" horiz-adv-x="1287" d="M0 0v1287h1287v-1287h-1287z" />
<glyph unicode="&#xf700;" horiz-adv-x="1474" d="M338 521q1 52 21 106t59 98q42 49 88 74.5t92 35.5t90 8t86 -12q45 -12 74 -34t45 -53.5t23.5 -71.5t7.5 -83l-3 -252q-2 -25 -1 -46t8 -33.5t20.5 -20t36.5 -7.5q20 0 33.5 5t22.5 15t14.5 28t11.5 44l83 392q11 48 1 86t-47 65t-104.5 45t-171.5 28q-94 6 -178 5 t-146 1.5t-96.5 14t-31.5 41.5q3 62 35 133t88.5 134.5t133 113.5t169.5 72q66 17 124 21.5t108.5 -0.5t98 -16t92.5 -22.5t88.5 -21.5t89.5 -11q31 -3 63.5 7.5t57.5 25.5l58 31l55 -204q-15 -9 -31.5 -17t-38.5 -16q-33 -13 -78.5 -24.5t-99.5 -8.5q-59 0 -110 10 t-101.5 21.5t-108 21.5t-128.5 10q-46 0 -88 -9.5t-76.5 -26.5t-57.5 -42t-30 -58q-1 -10 34.5 -11.5t100.5 -3.5t156 -10q90 -6 195 -29q73 -16 132.5 -36t99 -49.5t55 -71.5t2.5 -101l-128 -603q-5 -22 -18.5 -47.5t-37 -51.5t-58 -51t-81.5 -45q-24 -11 -59 -19t-75 -10 t-83 -1.5t-82.5 7t-71.5 16t-54 23.5q-22 16 -37 34.5t-24 38.5t-11.5 41.5t-2.5 42.5l-3 146q-16 -6 -32.5 -9.5t-33.5 -6.5q-31 -2 -66.5 5.5t-82.5 32.5q-44 25 -65 69.5t-20 96.5zM503 578.5q-5 -27.5 1.5 -51.5t27 -39.5t56.5 -15.5q35 0 62.5 15.5t44.5 39.5t22 51.5 t-1.5 51.5t-27 39.5t-56.5 15.5t-63 -15.5t-44 -39.5t-22 -51.5z" />
<glyph unicode="&#xf701;" d="M-1429 1703l40 182q20 94 78 162t142.5 111t189 63t218.5 20q146 0 252.5 -30t171 -82.5t88 -122.5t7.5 -150l-33 -153h-1154zM-1103 1868h582l8 40q1 8 0.5 23t-10 31t-26.5 32.5t-48 29t-75 21t-106 8.5q-51 0 -102.5 -5t-96 -20t-76 -42.5t-41.5 -75.5z" />
<glyph unicode="&#xf702;" d="M-1429 1703l40 182q20 94 78 162t142.5 111t189 63t218.5 20q89 0 145 -12q55 -11 90 -21l60 -33l44 212h292l-145 -684h-1154zM-1103 1868h582l8 40q1 8 0.5 23t-10 31t-26.5 32.5t-48 29t-75 21t-106 8.5q-51 0 -102.5 -5t-96 -20t-76 -42.5t-41.5 -75.5z" />
<glyph unicode="&#xf703;" d="M-1450 1703l39 182q12 64 46 117.5t83 93.5t110.5 69.5t133.5 45.5q70 16 136.5 21t118.5 3.5t84.5 -6t33.5 -4.5q0 2 4.5 11t12 23.5t22 33t34.5 39.5q29 30 66.5 49t80.5 28t86.5 9t83.5 -9t73 -28.5t53 -48.5q32 -44 36 -110t-33 -143q-20 -43 -45 -70t-48 -45 t-41.5 -26.5t-24.5 -12.5q2 -5 5 -10.5t8 -17t9 -29.5t6 -45q0 -17 -3 -37t-6 -37t-6 -30q-5 -13 -5 -16h-1153zM-1125 1868h582q-20 45 -56 84q-16 16 -34.5 32.5t-43.5 30t-55 23.5t-66 13q-54 5 -106.5 1.5t-96.5 -20t-75 -46.5t-41 -76zM-508 2154q-5 -28 2 -51.5 t27.5 -40t58.5 -16.5q35 0 61.5 16.5t44 40t22.5 51.5t-2.5 51.5t-28 40t-57.5 16.5q-36 0 -62.5 -16.5t-43.5 -40t-22 -51.5z" />
<glyph unicode="&#xf704;" d="M-1429 1703l40 182q20 94 78 162t142.5 111t189 63t218.5 20q10 0 19.5 -1t17.5 -1l32 148h209l-38 -173q79 -20 135 -53l49 226h207l-145 -684h-1154zM-1103 1868h582l8 40q1 8 0.5 23t-10 31t-26.5 32.5t-48 29t-75 21t-106 8.5q-51 0 -102.5 -5t-96 -20t-76 -42.5 t-41.5 -75.5z" />
<glyph unicode="&#xf705;" d="M-618 1687l135 641h290l-136 -641h-289z" />
<glyph unicode="&#xf706;" d="M-1098 1687l31 132h16.5t30 1.5t35.5 4.5q20 3 35 8q12 3 25 13t27 22l31 25q-1 0 -11 -1.5t-25.5 -2t-36.5 2.5t-43 11.5t-44.5 23.5t-40.5 39q-13 20 -19 59.5t3 86t36 96.5q27 51 80 91q54 45 116.5 59t120 7t102 -31.5t61.5 -59.5q17 -40 22 -78t-0.5 -74 t-18.5 -69.5t-30 -61.5q-40 -66 -103 -128q2 0 22 1t52.5 6.5t76.5 20t94 42.5q44 25 77 62t56 78.5t38 83.5t23.5 76.5t12 56.5t3.5 24h244q-1 -5 -6.5 -37.5t-25.5 -84t-58 -118t-103 -138.5q-88 -100 -213.5 -160.5t-295.5 -80.5q-87 -9 -159 -9.5t-125 -0.5h-60t-53 2z M-921 2121.5q-6 -26.5 0.5 -48.5t26.5 -37q19 -15 53 -15t60 15t41.5 37t21.5 48.5t-0.5 48.5t-26 37t-53.5 15t-60 -15t-41.5 -37t-21.5 -48.5z" />
<glyph unicode="&#xf707;" d="M-1202.5 1938.5q4.5 52.5 22 108t47.5 106.5t73 92q45 42 99 66q47 20 85 23.5t68 -1.5t52 -18t37 -25.5t24 -22t11 -9.5q2 4 15 17.5t36.5 28t56.5 25t71 10.5q56 -4 90.5 -28t51.5 -61.5t17.5 -84.5t-9.5 -97q-10 -46 -25 -84t-30 -66t-25.5 -44t-10.5 -18q6 3 19.5 11 t30.5 20t35.5 31.5t35.5 47.5q26 46 40.5 82t23.5 71t17 72q7 38 18 90q13 54 28.5 90.5t29.5 58.5t23 32t9 13h208q-11 -5 -18.5 -13t-17.5 -17q-17 -20 -32 -48.5t-28 -64.5q-20 -65 -34.5 -123t-31.5 -112.5t-41.5 -108t-65.5 -110.5q-30 -43 -66.5 -72.5t-76.5 -49 t-81 -30.5t-79 -16q-46 -8 -92 -9t-92 5q0 1 9 12t22.5 32.5t30 53.5t30.5 78q9 31 19.5 65t18.5 66.5t11.5 62.5t0.5 54t-14 38q-10 14 -33 17q-16 1 -36.5 -6.5t-40 -19t-33.5 -21.5l-13 -10l-33 33q-41 27 -97 21q-26 -6 -47.5 -16.5t-35.5 -27.5q-7 -9 -12 -17.5 t-11 -19.5l41 7q20 3 41 1q19 -1 39 -4q42 -11 70.5 -42t37 -74t-6.5 -95t-59 -108q-27 -34 -60 -54t-70 -29.5t-75 -8t-71.5 11.5t-61.5 26.5t-45 39.5q-22 27 -30.5 70.5t-4 96zM-1032 1907.5q-5 -22.5 1 -43.5t23 -34.5t47 -13.5t53 13.5t38 34.5t20 43.5t-1 43.5 t-23 34.5t-47 13.5t-53.5 -13.5t-38 -34.5t-19.5 -43.5z" />
<glyph unicode="&#xf708;" d="M-1045 1933l45 215h308l50 234h293l-50 -234h303l-46 -215h-303l-50 -234h-293l50 234h-307z" />
<glyph unicode="&#xf709;" d="M-767 1946.5q8 64.5 39 125.5q34 64 77 102t94 59.5t107.5 30t118 15t125.5 15t129 27.5q27 6 48.5 16.5t38 22.5t30 26t26.5 26q13 15 23 30.5t15 32.5l92 -157q-2 -6 -12.5 -22.5t-32 -35t-53.5 -37.5t-79 -29q-35 -8 -78 -15t-79 -12t-62.5 -8t-29.5 -3 q-2 -2 9.5 -13.5t22.5 -35t14.5 -61.5t-12.5 -95q-17 -62 -50.5 -110t-80 -80t-105 -47t-129.5 -11q-81 3 -129 38t-66.5 88t-10.5 117.5zM-582.5 1915.5q6.5 -25.5 27 -42.5t58 -17t66 17t46 42.5t24 54.5t0 54t-27 42.5t-57.5 17.5t-66 -17.5t-46.5 -42.5t-24 -54t0 -54.5 z" />
<glyph unicode="&#xf70a;" d="M-134 1687l134 641h289l-135 -641h-288z" />
<glyph unicode="&#xf70b;" d="M-618 1687l32 132q33 0 57 3t46.5 10.5t43.5 22t51 38.5q-58 -8 -103 4.5t-73.5 43t-38.5 75.5t0 99q11 57 43 103.5t76 80t95.5 51.5t101.5 18q61 -1 108 -20t76 -54t37.5 -84t-4.5 -109q-14 -69 -55 -127.5t-92 -110.5h22.5t56.5 6t80 19.5t95 40.5q62 33 103.5 80 t66.5 96t36 95q12 45 14 77h245q-2 -2 -4.5 -19t-11 -45.5t-23 -66t-36 -79t-51.5 -84t-67 -83.5q-83 -84 -183 -130.5t-206.5 -67t-211 -23.5t-196.5 1zM-440.5 2121.5q-5.5 -26.5 1 -48.5t25.5 -37t54 -15q34 0 59.5 15t42 37t21.5 48.5t-1.5 48.5t-25.5 37t-53 15 q-35 0 -60.5 -15t-41.5 -37t-21.5 -48.5z" />
<glyph unicode="&#xf70c;" d="M-712.5 1938.5q3.5 52.5 21 108t48 106.5t73 92.5t97.5 65.5q47 20 85.5 23.5t68.5 -1.5t52 -18t37.5 -25.5t24 -22t11.5 -9.5q1 4 14.5 17.5t36.5 28t56 25t71 10.5q55 -4 89 -28t51.5 -61.5t18.5 -84.5t-10 -97q-10 -46 -25 -84t-30 -66t-26 -44t-11 -18q6 3 19.5 11 t31 20t36 31.5t35.5 47.5q26 46 40 82t24 71t18 72.5t18 89.5q13 54 28 90.5t28.5 58.5t23 32t9.5 13h209q-10 -5 -18 -13t-18 -17q-17 -20 -32 -48.5t-28 -64.5q-22 -65 -36 -123t-30.5 -112.5t-41.5 -108t-65 -110.5q-30 -43 -67.5 -72.5t-76.5 -49t-80 -30.5 q-42 -11 -79 -16q-46 -8 -92 -9t-91 5q0 1 8.5 12t22 32.5t30 53.5t30.5 78q9 31 19.5 65t17.5 66.5t11.5 62.5t1.5 54t-13.5 38t-33.5 17q-16 1 -36.5 -6.5t-39 -19t-33.5 -21.5l-14 -10l-33 33q-44 27 -99 21q-25 -6 -46 -16.5t-35 -27.5q-7 -9 -12 -17.5t-11 -19.5l43 7 q20 3 40 1.5t39 -4.5q41 -11 69.5 -42t38 -74t-5.5 -95t-60 -108q-40 -51 -95 -72t-110.5 -19t-103.5 23t-74 54q-21 27 -29.5 70.5t-5 96zM-543 1907.5q-5 -22.5 1 -43.5t23 -34.5t47 -13.5t53 13.5t38 34.5t20 43.5t-1.5 43.5t-23 34.5t-46.5 13.5t-53.5 -13.5t-38 -34.5 t-19.5 -43.5z" />
<glyph unicode="&#xf70d;" d="M-365 1933l46 215h308l48 234h293l-50 -234h303l-45 -215h-303l-51 -234h-290l49 234h-308z" />
<glyph unicode="&#xf70e;" d="M-360.5 1946.5q8.5 64.5 40.5 125.5q34 64 76 102t93 59.5t107.5 30t117 15t125 15t130.5 27.5q27 6 48.5 16.5t38 22.5t30 26t26.5 26l22 30q12 16 18 33l90 -157q-1 -6 -11 -22.5t-31.5 -35t-54.5 -37.5t-79 -29q-36 -8 -78.5 -15t-80 -12t-63 -8t-28.5 -3 q-2 -2 9.5 -13.5t22.5 -35t14.5 -61.5t-12.5 -95q-17 -62 -50.5 -110t-81 -80t-106 -47t-126.5 -11q-82 3 -129 38t-66.5 88t-11 117.5zM-177 1915.5q7 -25.5 27.5 -42.5t58 -17t65 17t46.5 42.5t25 54.5t-1 54t-27 42.5t-57 17.5t-65.5 -17.5t-46.5 -42.5t-25 -54t0 -54.5z " />
<glyph unicode="&#xf70f;" horiz-adv-x="2167" d="M280 230q3 39 12 87l76 354q2 17 8 37t14.5 40.5t22 41.5t32.5 41q28 30 51 48t39 29l33 14h-183l43 202q15 79 65 143t131.5 109t194.5 70t256 25q581 0 512 -328l-153 -723q-8 -35 -11.5 -63t3.5 -64q5 -37 35 -50t72 -13h84q33 0 61.5 16.5t53.5 38.5q15 17 24 34.5 t14 35.5t6 33t4 25l223 1051h294l-241 -1131q-14 -66 -42 -122q-29 -57 -81 -108q-23 -23 -50 -42.5t-57.5 -33t-61.5 -20.5t-59 -7h-364q-25 0 -54.5 4.5t-57.5 14.5t-53 27q-26 17 -43 46q-16 25 -21 53.5t-5 59t4 61.5t12 64l157 740q8 43 4.5 79t-29 62.5t-77 42.5 t-137.5 16q-87 0 -145.5 -11t-96.5 -32.5t-58 -53.5t-29 -75l-6 -18h216l-35 -168q-8 0 -22 -2.5t-34 -10.5t-45 -23t-51 -41q-20 -23 -32 -43.5t-20 -40t-12.5 -35t-6.5 -28.5l-26 -120q14 3 28.5 3h31.5q26 0 58 -6t65 -20q48 -26 76 -69.5t33 -96t-11 -110.5 q-15 -57 -54 -115q-48 -72 -114 -111.5t-135.5 -50.5t-133.5 1.5t-110 43.5q-37 26 -58 55.5t-29 63t-5 74.5zM514.5 282q-6.5 -30 1 -56.5t30 -44t62.5 -17.5t69 17.5t48 44t25 56.5t-1 55.5t-30 43.5t-63 18t-69 -18t-47.5 -43.5t-25 -55.5z" />
<glyph unicode="&#xf710;" d="M-934.5 1957.5q-12.5 47.5 0.5 112t44 116t75 87t99 54.5q54 18 114 21q64 1 113 -18t79 -55.5t40 -86t-5 -106.5q-7 -27 -21 -55t-34 -46q2 0 31 -5t76.5 -4.5t108.5 15.5t128 56q53 32 86.5 72.5t53.5 78.5t29 69t11 42h294q-30 -114 -101 -214q-48 -69 -106 -120.5 t-123 -88t-134.5 -60t-141 -37t-142.5 -18.5q-72 -5 -138 -5q-54 0 -111 5.5t-109.5 18.5t-97.5 35t-75.5 55.5t-43 81zM-760.5 2087q-5.5 -28 1.5 -51.5t28.5 -39t57 -15.5t63 15.5t44.5 39t22.5 51.5t-2 51.5t-28.5 39.5t-58 16q-36 0 -63 -16t-43.5 -39.5t-22 -51.5z" />
<glyph unicode="&#xf711;" d="M-760 1907.5q-8 58.5 5 118.5t46.5 119t83.5 104.5t116.5 73.5t148.5 28q81 0 135.5 -28t85 -73.5t39 -104.5t-4 -119t-45.5 -118.5t-84 -104.5t-117.5 -73t-147.5 -27q-82 0 -137 27t-85.5 73t-38.5 104.5zM-555 2030q-7 -32 1 -60t32 -47.5t65.5 -19.5t73 19.5 t51.5 47.5t27.5 60t-0.5 60.5t-31.5 47t-65 18.5t-74.5 -18.5t-52.5 -47t-26.5 -60.5z" />
<glyph unicode="&#xf712;" d="M-1271 1746l45 220q12 49 25 95.5t30.5 88t39.5 77.5q21 35 47 64q56 56 120.5 87.5t134.5 46.5t145 16t152 1q93 -1 161 9t113.5 27t74.5 38t44.5 38t21 29t7.5 12l76 -161q-2 0 -15.5 -16.5t-40.5 -38.5t-69.5 -45t-99.5 -35q-51 -11 -101 -14.5t-99.5 -3t-96.5 2 t-92.5 -2.5t-86.5 -15.5t-79 -36.5q-37 -23 -63.5 -59t-43.5 -78.5t-26.5 -86t-12.5 -80.5l211 161q-2 -5 13 -22.5t34.5 -39t38.5 -42t28 -27.5l22 -19q-2 56 19 105.5t57.5 86t85.5 57.5t105 23q49 1 89.5 -14.5t67.5 -45t38 -68.5t2 -87q-11 -57 -48.5 -112t-97.5 -95 q-45 -29 -96 -41t-101 -10t-96.5 16t-82.5 35q-35 17 -66 46.5t-48 63.5l-176 -150h-310zM-483.5 1988q-5.5 -27 1 -50t25.5 -38t54 -15q34 0 59 15t41 38t22 50t0 50t-25.5 38t-53.5 15q-35 0 -60.5 -15t-41.5 -38t-21.5 -50z" />
<glyph unicode="&#xf713;" d="M-408 2508l109 508h289l-107 -508h-291z" />
<glyph unicode="&#xf714;" d="M-496 2468l28 117q26 -1 46 0.5t40 8.5t41.5 20.5t48.5 36.5q-14 -3 -31 -5t-32 1q-77 11 -110 63.5t-20 126.5q9 52 34.5 94.5t63.5 74t86 49t102 17.5q52 0 91 -17.5t65.5 -47.5t36 -71.5t-0.5 -91.5q-13 -64 -49.5 -121t-85.5 -102h21t51.5 4.5t72.5 17.5t84 37 q53 28 88 69.5t56.5 86t32.5 86t13 68.5h221q-2 -3 -6 -18.5t-12 -41.5t-21 -58.5t-32 -69t-45 -74.5t-59 -74q-81 -87 -192 -130.5t-243 -55.5q-113 -10 -205 -10t-179 10zM-340 2853.5q-5 -23.5 1 -43.5t23 -34q16 -13 47 -13q30 0 53.5 13.5t38 33.5t19 43.5t-1.5 43 t-23 33t-47 13.5t-53 -13.5t-37.5 -33t-19.5 -43z" />
<glyph unicode="&#xf715;" d="M-543.5 2628.5q-4.5 48.5 7 104t39.5 108.5t68 94.5t90 67.5t107 26q32 0 56 -7.5t40.5 -18t27.5 -22t19 -19.5q26 27 63 47.5t85 20.5q51 0 82.5 -20t46.5 -53.5t16.5 -75t-7.5 -84.5q-15 -67 -40 -113.5t-44 -73.5q34 17 63.5 47t51.5 66.5t37 75t22 72.5 q6 23 10.5 49.5t11.5 59.5q11 49 24 81t24.5 52t20 28.5t8.5 10.5h183q-40 -40 -59.5 -71.5t-26.5 -57.5q-15 -56 -28 -104.5t-29.5 -95.5t-38.5 -95t-57 -100q-35 -51 -88 -84t-111 -49.5t-116 -19.5t-104 3q49 67 73.5 136t38.5 137q6 29 8.5 55.5t-1 46.5t-14 31.5 t-32.5 11.5q-14 0 -29 -5t-28.5 -12.5t-24.5 -16t-15 -13.5q-20 25 -50.5 33.5t-58.5 8.5q-31 0 -60.5 -18.5t-37.5 -52.5q23 7 41.5 10t26.5 3q36 0 64 -14.5t45 -38.5t23.5 -56.5t-0.5 -66.5q-9 -42 -31.5 -76t-54 -59t-70.5 -38.5t-79 -13.5q-60 0 -100 20t-62 55 t-26.5 83.5zM-392 2656q-4 -21 1.5 -38t20.5 -29t43 -12q27 0 47 12t32 29t16.5 38t-0.5 38t-20 28.5t-43 11.5q-27 0 -47 -11.5t-33 -28.5t-17 -38z" />
<glyph unicode="&#xf716;" d="M-641 2673l39 178h265l38 183h293l-38 -183h261l-37 -178h-263l-40 -183h-293l40 183h-265z" />
<glyph unicode="&#xf717;" d="M-519.5 2519.5q6.5 57.5 36.5 113.5q30 57 67.5 92t83 55t97 28.5t105.5 14.5t110.5 11.5t113.5 21.5q46 11 77.5 34.5t48.5 45.5q12 13 20.5 27t18.5 27l76 -139q-3 -4 -11.5 -17.5t-27.5 -30.5t-46 -34.5t-66 -25.5q-34 -7 -72.5 -14.5t-72 -11.5t-56 -7t-22.5 -2 q2 -1 11 -11t17 -32t11 -56.5t-9 -83.5q-15 -55 -45 -97.5t-72.5 -72.5t-94.5 -43.5t-114 -9.5q-70 5 -112.5 36.5t-60.5 77.5t-11.5 103.5zM-354.5 2493q5.5 -22 24 -36.5t51.5 -14.5q34 0 60 14.5t42.5 36.5t22 48.5t-1 49.5t-25 37.5t-51.5 14.5q-34 0 -59.5 -14.5 t-41.5 -37.5t-21.5 -49.5t0 -48.5z" />
<glyph unicode="&#xf718;" d="M-978.5 -1090.5q-13.5 49.5 0.5 112.5t47 110t77.5 79.5t98.5 48t113 15.5q71 0 122.5 -24.5t81.5 -68t39 -103.5t-7 -130l-73 -345h-290l38 178q-63 -12 -114.5 1t-85.5 45t-47.5 81.5zM-841 -1017.5q3 -20.5 15 -37t32 -26.5t52 -10q28 0 52 9.5t42.5 25t30.5 36 t18 42.5q6 23 3 44.5t-14 38.5t-31.5 27.5t-50.5 10.5t-54.5 -10.5t-43 -27t-30.5 -37t-18 -42.5q-6 -23 -3 -43.5z" />
<glyph unicode="&#xf719;" d="M-1491.5 -1100.5q-4.5 42.5 7.5 96.5q13 59 43 108t74 85t100 56t117 20q88 0 141.5 -28.5t80.5 -74.5t30 -106t-10 -126l-22 -101h206l91 425h291l-130 -615h-784l22 98q-34 -4 -69 -2t-66.5 12t-58 30t-43 50t-21 72.5zM-1323.5 -1006q-6.5 -29 0.5 -54t28.5 -42.5 t58.5 -17.5q38 0 66.5 17.5t47 42.5t24 54t-1.5 54t-28.5 42.5t-58.5 17.5t-65.5 -17.5t-46.5 -42.5t-24.5 -54z" />
<glyph unicode="&#xf71a;" d="M-784.5 -900.5q10.5 53.5 43.5 99t85.5 76t120.5 30.5q69 0 108 -30.5t52 -76t1.5 -99t-43.5 -99t-84 -75.5t-121 -30t-108 30t-52 75.5t-2.5 99z" />
<glyph unicode="&#xf71d;" horiz-adv-x="1931" d="M341 1079.5q-6 54.5 9.5 114t51.5 113.5q48 73 115.5 111.5t137.5 49.5t136 -1.5t111 -42.5q38 -25 58.5 -54.5t29 -64t5.5 -75t-14 -87.5l-156 -737l339 436h186l163 -436l124 586q-14 -5 -31 -10t-37 -8q-35 -9 -77.5 -14t-95.5 -5q-59 0 -114.5 15t-98 46t-64 76.5 t-8.5 107.5q16 73 51.5 124.5t86.5 85t114 49t133 17.5q103 0 171 -16t109.5 -34.5t60 -34t22.5 -15.5l17 34q13 20 21 40t16.5 40t14 43t10 42t7.5 32t3 15h289q-3 -26 -8 -52.5t-14 -53.5q-13 -47 -33.5 -100t-50.5 -106q-27 -46 -48.5 -75.5t-41 -51.5t-41 -41t-51.5 -47 l-232 -1095h-341l-188 512l-400 -512h-342l190 892q-15 -3 -30 -3h-30q-30 0 -60 3t-61 23q-50 23 -79 66.5t-35 98zM524.5 1179q-6.5 -31 0.5 -56.5t30 -43.5t61 -18q40 0 70 18t49 43.5t25 56.5t-1.5 56.5t-30 43t-62.5 17.5t-69 -17.5t-47.5 -43t-25 -56.5zM1334 1220.5 q-7 -19.5 1 -36.5t33 -28t72 -11q64 0 103.5 9.5t65.5 23.5q15 9 26 17q11 9 21 18q1 3 -3 19t-22.5 33.5t-57.5 29t-107 8.5q-32 -3 -59.5 -15t-46.5 -30t-26 -37.5z" />
<glyph d="M-839 1848q0 48 18.5 89.5t47.5 73.5t67 56.5t78 42.5t81 31t74 20q-65 8 -97 37t-32 76q0 34 21.5 66t59.5 61.5t90 54.5t112 43t125 28t131 10q42 0 109.5 -8t150.5 -32l-28 -125q-6 3 -31 9t-56 12.5t-61.5 10.5t-49.5 4q-31 0 -71 -5t-76.5 -16.5t-63.5 -30.5 t-33 -45q-4 -17 5 -33.5t27 -28.5t42.5 -19.5t49.5 -7.5l-25 -124l-89 -4q-60 -5 -114.5 -13.5t-97.5 -28t-71.5 -48.5t-38.5 -75q-8 -41 14.5 -65.5t68.5 -33.5q30 -5 61.5 3.5t56 25.5t34.5 39t0 45l95 38q32 -55 19 -105t-54.5 -90t-102 -66.5t-122.5 -32.5 q-63 -4 -111.5 2t-85.5 18.5t-62 30.5t-40 37.5t-21 38.5t-4 34z" />
<glyph horiz-adv-x="1274" d="M-789.5 1907.5q-8.5 58.5 4.5 118.5t45 119t83 104.5t117.5 73.5t147.5 28q80 0 135 -28t86 -73.5t39 -104.5t-5 -119t-46 -118.5t-83 -104.5t-116.5 -73t-148.5 -27q-80 0 -134 27t-85 73t-39.5 104.5zM-588 2030q-7 -32 1.5 -60t33 -47.5t66 -19.5t73 19.5t50.5 47.5 t26.5 60t-0.5 60.5t-31 47t-64.5 18.5t-74.5 -18.5t-53 -47t-27 -60.5zM269 1028l20 92q17 78 58 143t111.5 111.5t173.5 71.5t245 25q145 0 242.5 -20.5t150.5 -62t66.5 -103t-3.5 -142.5l-242 -1143h-293l227 1070q9 44 12.5 80.5t-13.5 63.5t-59.5 41.5t-123.5 14.5 q-75 0 -123.5 -14.5t-78.5 -39.5t-45.5 -58.5t-22.5 -73.5l-12 -56h-290z" />
<glyph horiz-adv-x="1274" d="M-789.5 1907.5q-8.5 58.5 4.5 118.5t45 119t83 104.5t117.5 73.5t147.5 28q80 0 135 -28t86 -73.5t39 -104.5t-5 -119t-46 -118.5t-83 -104.5t-116.5 -73t-148.5 -27q-80 0 -134 27t-85 73t-39.5 104.5zM-588 2030q-7 -32 1.5 -60t33 -47.5t66 -19.5t73 19.5t50.5 47.5 t26.5 60t-0.5 60.5t-31 47t-64.5 18.5t-74.5 -18.5t-53 -47t-27 -60.5zM269 1028l20 92q17 78 58 143t111.5 111.5t173.5 71.5t245 25q145 0 242.5 -20.5t150.5 -62t66.5 -103t-3.5 -142.5l-242 -1143h-293l227 1070q9 44 12.5 80.5t-13.5 63.5t-59.5 41.5t-123.5 14.5 q-75 0 -123.5 -14.5t-78.5 -39.5t-45.5 -58.5t-22.5 -73.5l-12 -56h-290z" />
<glyph d="M63 2454l109 509h288l-107 -509h-290z" />
<glyph d="M-326 2458l29 117q25 -1 46 1t40 9.5t40.5 21t48.5 36.5q-14 -3 -30.5 -5.5t-31.5 -0.5q-78 11 -110.5 64t-20.5 128q9 51 34.5 94t64.5 74.5t86 48.5t101 17q52 0 92 -17t65.5 -47t35 -71.5t-0.5 -91.5q-13 -65 -49.5 -122t-84.5 -101h20.5t51 4t71.5 17q41 14 85 37 q53 29 88 70.5t56.5 85.5t32.5 85.5t14 69.5h220q-2 -3 -5.5 -19t-12 -41.5t-21.5 -58.5t-32 -69.5t-45 -74.5t-59 -73q-81 -86 -191 -130.5t-243 -57.5q-113 -10 -206 -9t-179 9zM-169 2844.5q-5 -24.5 0.5 -44t23.5 -33t48 -13.5t53 13.5t37 33t19 44t-0.5 43.5 t-23.5 32.5t-48 13.5t-53 -13.5t-37 -32.5t-19 -43.5z" />
<glyph d="M-407 2602q-5 46 8 104q11 55 39 109t67.5 95.5t90 66.5t108.5 25q31 0 54.5 -7.5t40 -18t28 -22t18.5 -20.5q26 28 64 49t86 21q52 0 82.5 -20.5t45.5 -54t16.5 -75t-6.5 -84.5q-8 -34 -18.5 -62t-22 -51.5t-23 -41.5t-19.5 -32q34 17 62.5 47.5t51 66.5t37.5 74.5 t22 72.5q5 23 10 49.5t11 59.5q10 49 23.5 81t25 52t20 28.5t8.5 11.5h183q-40 -40 -59 -71.5t-26 -57.5q-16 -55 -29 -104.5t-29.5 -97t-38.5 -95t-58 -99t-88 -84t-110 -49.5t-116 -20t-105 3q47 67 73 136t40 139q6 28 9 54t-1 46t-14.5 31.5t-31.5 11.5q-15 0 -30 -5 t-29 -13t-24 -16t-16 -14q-20 26 -49.5 35.5t-57.5 9.5q-32 0 -61 -18.5t-38 -53.5q23 7 41.5 9.5t28.5 2.5q36 0 63 -14.5t44 -39t23 -55.5t-1 -67q-9 -42 -31 -76t-54.5 -58.5t-70 -39t-77.5 -14.5q-60 0 -100.5 20t-62.5 56t-27 84zM-254 2591q5 -17 21 -28.5t41 -11.5 q28 0 48 11.5t32.5 28.5t17 38t-0.5 39t-20 29t-42 11t-47.5 -11t-32.5 -29t-17 -39t0 -38z" />
<glyph d="M-179 2618l39 181h263l39 183h293l-40 -183h263l-37 -181h-265l-39 -183h-291l38 183h-263z" />
<glyph d="M-419 2454l107 509h291l-109 -509h-289z" />
<glyph d="M-625 2450l29 117q25 -2 45 0.5t40.5 9.5t41.5 20t49 36q-15 -3 -32 -4.5t-31 -0.5q-78 12 -111.5 64t-18.5 128q8 51 34 94t63.5 74t85.5 48.5t103 17.5q51 0 91 -17t66 -47.5t35 -72t-1 -90.5q-14 -64 -50 -122t-84 -101h20.5t51.5 4.5t72 16.5t85 36q52 29 87.5 71 t56.5 86.5t31 86t13 68.5h221q-2 -3 -5.5 -19.5t-12 -41.5t-21.5 -58.5t-32.5 -69.5t-44.5 -73.5t-58 -73.5q-81 -86 -191 -131t-243 -56q-113 -10 -206 -9.5t-179 9.5zM-468 2835q-5 -24 0.5 -43t22.5 -32.5t47 -13.5t54 13.5t38 32.5t18.5 43t-1.5 44t-23 33.5t-47 13.5 t-53 -13.5t-37 -33.5t-19 -44z" />
<glyph d="M-731 2602q-4 46 9 104q11 55 39 109t67.5 95.5t90 66.5t107.5 25q32 0 55.5 -7.5t40.5 -18t28 -22t19 -20.5q26 28 63.5 49t85.5 21q52 0 82.5 -20.5t45.5 -54t16.5 -75t-7.5 -84.5q-7 -34 -17.5 -62t-22 -51.5t-23 -41.5t-20.5 -32q35 17 63.5 47.5t50 66.5t37 74.5 t23.5 72.5q5 23 9.5 49.5t11.5 59.5q10 49 23.5 81t25 52t20 28.5t8.5 11.5h183q-40 -40 -60 -71.5t-26 -57.5q-15 -55 -28 -104.5t-29.5 -97t-38.5 -95t-58 -99t-88 -84t-110 -49.5t-116 -20t-104 3q48 67 73 136t40 139q6 28 8 54t-1.5 46t-14 31.5t-32.5 11.5 q-14 0 -29 -5t-28.5 -13t-24.5 -16t-15 -14q-20 26 -50.5 35.5t-58.5 9.5q-31 0 -60.5 -18.5t-37.5 -53.5q23 7 41.5 9.5t26.5 2.5q36 0 64 -14.5t45 -39t23.5 -55.5t-0.5 -67q-9 -42 -31.5 -76t-55 -58.5t-71 -39t-77.5 -14.5q-60 0 -100 20t-62.5 56t-27.5 84z M-577.5 2629q-4.5 -21 0.5 -38t20 -28.5t42 -11.5t47 11.5t32.5 28.5t17.5 38t0 39t-20 29t-42 11q-28 0 -48 -11t-32.5 -29t-17 -39z" />
<glyph d="M-652 2618l39 181h264l39 183h293l-39 -183h262l-37 -181h-263l-39 -183h-293l38 183h-264z" />
</font>
</defs>
</svg>
