<?xml version="1.0" standalone="no"?>
<!DOCTYPE svg PUBLIC "-//W3C//DTD SVG 1.1//EN" "http://www.w3.org/Graphics/SVG/1.1/DTD/svg11.dtd" >
<svg xmlns="http://www.w3.org/2000/svg" xmlns:xlink="http://www.w3.org/1999/xlink" version="1.1">
<metadata></metadata>
<defs>
<font id="mn_lannalight_italic" horiz-adv-x="0" >
<font-face units-per-em="2560" ascent="2048" descent="-512" />
<missing-glyph horiz-adv-x="878" />
<glyph unicode="&#x2b;&#x2d;" horiz-adv-x="1720" d="M317 17l29 137h1078l-28 -137h-1079zM480 784l32 147h469l97 465h145l-99 -465h465l-32 -147h-464l-99 -467h-145l101 467h-470z" />
<glyph unicode="&#x2e;&#x2e;&#x2e;" horiz-adv-x="2342" d="M289 0l44 213h206l-44 -213h-206zM1070 0l44 213h204l-44 -213h-204zM1848 0l45 213h206l-46 -213h-205z" />
<glyph unicode="&#x3c;&#x3d;" horiz-adv-x="1537" d="M132 20l28 139h1271l-28 -139h-1271zM320 909l26 122l1396 582l-35 -157q-155 -59 -303 -120.5t-295 -123.5t-295 -123t-302 -119l988 -488l-31 -155z" />
<glyph unicode="&#x3e;&#x3d;" horiz-adv-x="1537" d="M142 20l30 139h1271l-30 -139h-1271zM209 327l31 155l1197 488q-131 58 -253 119t-242 123t-241.5 123t-252.5 121l32 157l1149 -582l-26 -122z" />
<glyph unicode="&#xe4f;&#x22;" horiz-adv-x="1657" d="M256 465q-1 98 29.5 192.5t84 177.5t127.5 153t159.5 121t178.5 79t189 28q110 0 201.5 -39t156.5 -106t102.5 -158t37.5 -195q1 -100 -30 -194t-85 -176t-127 -150t-157.5 -117.5t-177.5 -76.5t-186 -27q-114 0 -206.5 37t-158 101.5t-102 154t-36.5 195.5zM380 489 q0 -84 29.5 -156.5t82.5 -125.5t126.5 -83t162.5 -30q68 0 136 18t132 51.5t119.5 81t100.5 103t76.5 119.5t45.5 132q12 50 12 102q0 85 -30 157.5t-83.5 125.5t-128 83t-163.5 30q-68 0 -135.5 -18t-130.5 -49.5t-118 -77t-100 -100t-76.5 -119t-45.5 -134.5 q-6 -27 -9.5 -55t-2.5 -55zM521 521q0 57 17.5 112t48.5 103.5t73 89.5t92 71t105 46.5t113 16.5q65 0 119 -21.5t91.5 -59.5t59 -91t20.5 -114q-2 -59 -19 -115t-47.5 -104.5t-73 -90t-91 -71.5t-104.5 -46.5t-111 -16.5q-66 0 -119.5 22.5t-91.5 61t-59.5 92t-22.5 115.5z M641 543q1 -41 15.5 -76t41 -59.5t62 -38.5t81.5 -14q56 0 105 20.5t88.5 54t66 78t36.5 91.5q6 24 6 50q-2 40 -17 75t-40.5 61t-62 41t-81.5 15q-53 0 -101.5 -20t-87.5 -53.5t-67 -78t-40 -94.5q-2 -13 -3.5 -26t-1.5 -26zM812 1374l12 448q13 57 46.5 83.5t74.5 26.5 q27 0 44.5 -8.5t26.5 -23.5t11.5 -36t-3.5 -44l-177 -446h-35zM1263 1374l13 448q12 57 46.5 83.5t76.5 26.5q25 0 42.5 -8.5t26.5 -23.5t11 -34.5t-3 -42.5q-2 -5 -12 -33t-25.5 -69.5t-35 -91.5t-39.5 -98t-37 -89.5t-29 -67.5h-35z" />
<glyph unicode="&#xe0e;&#xe3a;" horiz-adv-x="1663" d="M136.5 129.5q-7.5 40.5 2.5 86.5q11 51 39 92.5t66 71t83 46t91 16.5q62 0 114 -32l77 361q7 33 21.5 70t45.5 73q30 34 61 55t62 35h-183l33 156q17 84 71.5 143.5t132.5 97.5t175 54t202 16q117 0 211.5 -14t156 -50t85.5 -96.5t6 -155.5l-316 -1487q-9 -40 -28 -80.5 t-48.5 -73t-68 -52.5t-87.5 -20q-23 0 -57 9.5t-70 43.5q-29 27 -59.5 54.5t-60.5 52.5t-60 45.5t-58 33.5q-74 -124 -165 -182q-90 -57 -191 -60q-48 -1 -89.5 12.5t-68.5 38.5t-40 61t-3 80q11 57 44 98.5t77.5 69t96 40t102.5 12.5q37 0 69.5 -4t59 -10t43.5 -11.5 t23 -8.5q15 29 25 59t19 60h114q-7 -32 -22 -75t-35 -78q34 -13 67 -33t63 -42.5t57.5 -45t48.5 -44.5q17 -16 40.5 -33t49.5 -17q19 0 35.5 10t28 26t18.5 34q10 19 13 36l308 1460q15 69 0 114t-60 72.5t-118 39t-175 11.5q-91 0 -167.5 -12t-134 -37t-93 -65t-47.5 -97 l-15 -72h224l-17 -76q-27 -7 -68 -28.5t-86 -66.5q-25 -25 -39 -48.5t-23.5 -46.5t-14.5 -42t-8 -32l-109 -512q-12 -56 -40 -101t-68 -77t-89.5 -49.5t-102.5 -17.5q-48 0 -86 18t-60.5 49t-30 71.5zM250.5 217q-5.5 -30 1.5 -56.5t29 -44t62 -17.5t70 17.5t48.5 44 t25 56.5t-1 56.5t-30.5 44t-62 17.5q-40 0 -69 -17.5t-48.5 -44t-25 -56.5zM335 -363q-6 -26 2.5 -44t24.5 -30t37 -17.5t44 -5.5q40 0 76 17t66.5 42.5t54.5 56.5t38 58q-47 17 -88 25.5t-75 8.5q-26 0 -55.5 -7t-55 -20.5t-45 -34.5t-24.5 -49zM1032.5 -815 q-2.5 20 1.5 41q4 22 15.5 42.5t30 37t43 26.5t53 10t48 -10t30 -26.5t14 -37t-0.5 -42.5q-4 -21 -16.5 -41t-30 -36.5t-41.5 -26.5t-52 -10q-30 0 -50 10t-31 26.5t-13.5 36.5z" />
<glyph unicode="&#xe0f;&#xe3a;" horiz-adv-x="1663" d="M127 -392q12 56 44.5 96.5t77 68.5t94.5 41t97 13q28 0 50.5 -1.5t43.5 -5t41 -8t41 -9.5q6 14 11.5 33.5t11.5 40t11.5 41.5t8.5 36h122q-3 -11 -9 -32.5t-14.5 -48.5t-18.5 -56t-21 -52q11 -8 27 -23t33 -35t34 -43t29 -46l224 256l171 -292l328 1552q15 69 0 114 t-60 72.5t-118 39t-175 11.5q-91 0 -167.5 -12t-134 -37t-93 -65t-47.5 -97l-15 -72h224l-17 -76q-27 -7 -68 -28.5t-86 -66.5q-25 -25 -39 -48.5t-23.5 -46.5t-14.5 -42t-8 -32l-109 -512q-12 -56 -40 -101t-68 -77t-89.5 -49.5t-102.5 -17.5q-48 0 -86 18t-60.5 49 t-30 71.5t2.5 86.5q11 51 39 92.5t66 71t83 46t91 16.5q62 0 114 -32l77 361q7 33 21.5 70t45.5 73q30 34 61 55t62 35h-183l33 156q17 84 71.5 143.5t132.5 97.5t175 54t202 16q117 0 211.5 -14t156 -50t85.5 -96.5t6 -155.5l-342 -1605q-4 -23 -15.5 -45.5t-27.5 -40 t-36.5 -28.5t-44.5 -9q-23 1 -39 18q-14 17 -29 43l-117 219l-226 -255q-10 26 -25.5 54.5t-35 58t-41 55t-39.5 43.5q-27 -63 -67.5 -109.5t-85.5 -78t-95 -47.5q-48 -16 -97 -16t-89.5 13.5t-67.5 39.5t-39.5 61.5t-2.5 81.5zM239 -390q-3 -20 1.5 -38t17 -32.5t35 -22 t52.5 -7.5q41 0 76 15.5t65 42.5t53.5 63.5t38.5 76.5q-17 9 -38 14t-41.5 8.5t-39.5 4t-33 0.5q-27 0 -58 -6t-58 -21t-46 -39.5t-25 -58.5zM250.5 217q-5.5 -30 1.5 -56.5t29 -44t62 -17.5t70 17.5t48.5 44t25 56.5t-1 56.5t-30.5 44t-62 17.5q-40 0 -69 -17.5t-48.5 -44 t-25 -56.5zM1032.5 -815q-2.5 20 1.5 41q4 22 15.5 42.5t30 37t43 26.5t53 10t48 -10t30 -26.5t14 -37t-0.5 -42.5q-4 -21 -16.5 -41t-30 -36.5t-41.5 -26.5t-52 -10q-30 0 -50 10t-31 26.5t-13.5 36.5z" />
<glyph unicode="&#xe0e;&#xe38;" horiz-adv-x="1663" d="M136.5 129.5q-7.5 40.5 2.5 86.5q11 51 39 92.5t66 71t83 46t91 16.5q62 0 114 -32l77 361q7 33 21.5 70t45.5 73q30 34 61 55t62 35h-183l33 156q17 84 71.5 143.5t132.5 97.5t175 54t202 16q117 0 211.5 -14t156 -50t85.5 -96.5t6 -155.5l-316 -1487q-9 -40 -28 -80.5 t-48.5 -73t-68 -52.5t-87.5 -20q-23 0 -57 9.5t-70 43.5q-29 27 -59.5 54.5t-60.5 52.5t-60 45.5t-58 33.5q-74 -124 -165 -182q-90 -57 -191 -60q-48 -1 -89.5 12.5t-68.5 38.5t-40 61t-3 80q11 57 44 98.5t77.5 69t96 40t102.5 12.5q37 0 69.5 -4t59 -10t43.5 -11.5 t23 -8.5q15 29 25 59t19 60h114q-7 -32 -22 -75t-35 -78q34 -13 67 -33t63 -42.5t57.5 -45t48.5 -44.5q17 -16 40.5 -33t49.5 -17q19 0 35.5 10t28 26t18.5 34q10 19 13 36l308 1460q15 69 0 114t-60 72.5t-118 39t-175 11.5q-91 0 -167.5 -12t-134 -37t-93 -65t-47.5 -97 l-15 -72h224l-17 -76q-27 -7 -68 -28.5t-86 -66.5q-25 -25 -39 -48.5t-23.5 -46.5t-14.5 -42t-8 -32l-109 -512q-12 -56 -40 -101t-68 -77t-89.5 -49.5t-102.5 -17.5q-48 0 -86 18t-60.5 49t-30 71.5zM250.5 217q-5.5 -30 1.5 -56.5t29 -44t62 -17.5t70 17.5t48.5 44 t25 56.5t-1 56.5t-30.5 44t-62 17.5q-40 0 -69 -17.5t-48.5 -44t-25 -56.5zM335 -363q-6 -26 2.5 -44t24.5 -30t37 -17.5t44 -5.5q40 0 76 17t66.5 42.5t54.5 56.5t38 58q-47 17 -88 25.5t-75 8.5q-26 0 -55.5 -7t-55 -20.5t-45 -34.5t-24.5 -49zM801.5 -966.5 q-9.5 38.5 0.5 85.5q12 49 37.5 89t62 68.5t81 44t91.5 15.5q56 0 96 -17t65 -47.5t32 -74.5t-4 -95l-85 -399h-123l49 230q-29 -13 -59 -20t-57 -7q-50 0 -88.5 16.5t-63.5 44.5t-34.5 66.5zM905.5 -923q3.5 -22 14.5 -40t31.5 -28t50.5 -10t55.5 10t44 28t31 39.5 t17.5 45.5q4 23 1 44.5t-14.5 38.5t-31.5 28t-50 11t-55.5 -11t-44 -28t-31 -39.5t-16.5 -43.5q-6 -23 -2.5 -45z" />
<glyph unicode="&#xe0f;&#xe38;" horiz-adv-x="1663" d="M127 -392q12 56 44.5 96.5t77 68.5t94.5 41t97 13q28 0 50.5 -1.5t43.5 -5t41 -8t41 -9.5q6 14 11.5 33.5t11.5 40t11.5 41.5t8.5 36h122q-3 -11 -9 -32.5t-14.5 -48.5t-18.5 -56t-21 -52q11 -8 27 -23t33 -35t34 -43t29 -46l224 256l171 -292l328 1552q15 69 0 114 t-60 72.5t-118 39t-175 11.5q-91 0 -167.5 -12t-134 -37t-93 -65t-47.5 -97l-15 -72h224l-17 -76q-27 -7 -68 -28.5t-86 -66.5q-25 -25 -39 -48.5t-23.5 -46.5t-14.5 -42t-8 -32l-109 -512q-12 -56 -40 -101t-68 -77t-89.5 -49.5t-102.5 -17.5q-48 0 -86 18t-60.5 49 t-30 71.5t2.5 86.5q11 51 39 92.5t66 71t83 46t91 16.5q62 0 114 -32l77 361q7 33 21.5 70t45.5 73q30 34 61 55t62 35h-183l33 156q17 84 71.5 143.5t132.5 97.5t175 54t202 16q117 0 211.5 -14t156 -50t85.5 -96.5t6 -155.5l-342 -1605q-4 -23 -15.5 -45.5t-27.5 -40 t-36.5 -28.5t-44.5 -9q-23 1 -39 18q-14 17 -29 43l-117 219l-226 -255q-10 26 -25.5 54.5t-35 58t-41 55t-39.5 43.5q-27 -63 -67.5 -109.5t-85.5 -78t-95 -47.5q-48 -16 -97 -16t-89.5 13.5t-67.5 39.5t-39.5 61.5t-2.5 81.5zM239 -390q-3 -20 1.5 -38t17 -32.5t35 -22 t52.5 -7.5q41 0 76 15.5t65 42.5t53.5 63.5t38.5 76.5q-17 9 -38 14t-41.5 8.5t-39.5 4t-33 0.5q-27 0 -58 -6t-58 -21t-46 -39.5t-25 -58.5zM250.5 217q-5.5 -30 1.5 -56.5t29 -44t62 -17.5t70 17.5t48.5 44t25 56.5t-1 56.5t-30.5 44t-62 17.5q-40 0 -69 -17.5t-48.5 -44 t-25 -56.5zM801.5 -966.5q-9.5 38.5 0.5 85.5q12 49 37.5 89t62 68.5t81 44t91.5 15.5q56 0 96 -17t65 -47.5t32 -74.5t-4 -95l-85 -399h-123l49 230q-29 -13 -59 -20t-57 -7q-50 0 -88.5 16.5t-63.5 44.5t-34.5 66.5zM905.5 -923q3.5 -22 14.5 -40t31.5 -28t50.5 -10 t55.5 10t44 28t31 39.5t17.5 45.5q4 23 1 44.5t-14.5 38.5t-31.5 28t-50 11t-55.5 -11t-44 -28t-31 -39.5t-16.5 -43.5q-6 -23 -2.5 -45z" />
<glyph unicode="&#xe0e;&#xe39;" horiz-adv-x="1663" d="M136.5 129.5q-7.5 40.5 2.5 86.5q11 51 39 92.5t66 71t83 46t91 16.5q62 0 114 -32l77 361q7 33 21.5 70t45.5 73q30 34 61 55t62 35h-183l33 156q17 84 71.5 143.5t132.5 97.5t175 54t202 16q117 0 211.5 -14t156 -50t85.5 -96.5t6 -155.5l-316 -1487q-9 -40 -28 -80.5 t-48.5 -73t-68 -52.5t-87.5 -20q-23 0 -57 9.5t-70 43.5q-29 27 -59.5 54.5t-60.5 52.5t-60 45.5t-58 33.5q-74 -124 -165 -182q-90 -57 -191 -60q-48 -1 -89.5 12.5t-68.5 38.5t-40 61t-3 80q11 57 44 98.5t77.5 69t96 40t102.5 12.5q37 0 69.5 -4t59 -10t43.5 -11.5 t23 -8.5q15 29 25 59t19 60h114q-7 -32 -22 -75t-35 -78q34 -13 67 -33t63 -42.5t57.5 -45t48.5 -44.5q17 -16 40.5 -33t49.5 -17q19 0 35.5 10t28 26t18.5 34q10 19 13 36l308 1460q15 69 0 114t-60 72.5t-118 39t-175 11.5q-91 0 -167.5 -12t-134 -37t-93 -65t-47.5 -97 l-15 -72h224l-17 -76q-27 -7 -68 -28.5t-86 -66.5q-25 -25 -39 -48.5t-23.5 -46.5t-14.5 -42t-8 -32l-109 -512q-12 -56 -40 -101t-68 -77t-89.5 -49.5t-102.5 -17.5q-48 0 -86 18t-60.5 49t-30 71.5zM250.5 217q-5.5 -30 1.5 -56.5t29 -44t62 -17.5t70 17.5t48.5 44 t25 56.5t-1 56.5t-30.5 44t-62 17.5q-40 0 -69 -17.5t-48.5 -44t-25 -56.5zM335 -363q-6 -26 2.5 -44t24.5 -30t37 -17.5t44 -5.5q40 0 76 17t66.5 42.5t54.5 56.5t38 58q-47 17 -88 25.5t-75 8.5q-26 0 -55.5 -7t-55 -20.5t-45 -34.5t-24.5 -49zM385 -895q8 51 34 92.5 t62.5 71t82 45t92.5 15.5q55 0 95.5 -16.5t65 -47.5t31.5 -75.5t-4 -96.5l-52 -241h283l102 472h123l-122 -572h-529l37 177q-31 -14 -57 -19t-60 -5q-43 0 -81 12.5t-63.5 38.5t-37.5 64t-2 85zM489 -927.5q3 -22.5 15 -39.5t32 -27t50 -10t55 10t44 27t31 40q10 22 16 45 q4 23 2 44t-13.5 38.5t-32 28t-50.5 10.5t-54.5 -10.5t-43.5 -28t-30.5 -38.5t-17.5 -44t-3 -45.5z" />
<glyph unicode="&#xe0f;&#xe39;" horiz-adv-x="1663" d="M127 -392q12 56 44.5 96.5t77 68.5t94.5 41t97 13q28 0 50.5 -1.5t43.5 -5t41 -8t41 -9.5q6 14 11.5 33.5t11.5 40t11.5 41.5t8.5 36h122q-3 -11 -9 -32.5t-14.5 -48.5t-18.5 -56t-21 -52q11 -8 27 -23t33 -35t34 -43t29 -46l224 256l171 -292l328 1552q15 69 0 114 t-60 72.5t-118 39t-175 11.5q-91 0 -167.5 -12t-134 -37t-93 -65t-47.5 -97l-15 -72h224l-17 -76q-27 -7 -68 -28.5t-86 -66.5q-25 -25 -39 -48.5t-23.5 -46.5t-14.5 -42t-8 -32l-109 -512q-12 -56 -40 -101t-68 -77t-89.5 -49.5t-102.5 -17.5q-48 0 -86 18t-60.5 49 t-30 71.5t2.5 86.5q11 51 39 92.5t66 71t83 46t91 16.5q62 0 114 -32l77 361q7 33 21.5 70t45.5 73q30 34 61 55t62 35h-183l33 156q17 84 71.5 143.5t132.5 97.5t175 54t202 16q117 0 211.5 -14t156 -50t85.5 -96.5t6 -155.5l-342 -1605q-4 -23 -15.5 -45.5t-27.5 -40 t-36.5 -28.5t-44.5 -9q-23 1 -39 18q-14 17 -29 43l-117 219l-226 -255q-10 26 -25.5 54.5t-35 58t-41 55t-39.5 43.5q-27 -63 -67.5 -109.5t-85.5 -78t-95 -47.5q-48 -16 -97 -16t-89.5 13.5t-67.5 39.5t-39.5 61.5t-2.5 81.5zM239 -390q-3 -20 1.5 -38t17 -32.5t35 -22 t52.5 -7.5q41 0 76 15.5t65 42.5t53.5 63.5t38.5 76.5q-17 9 -38 14t-41.5 8.5t-39.5 4t-33 0.5q-27 0 -58 -6t-58 -21t-46 -39.5t-25 -58.5zM250.5 217q-5.5 -30 1.5 -56.5t29 -44t62 -17.5t70 17.5t48.5 44t25 56.5t-1 56.5t-30.5 44t-62 17.5q-40 0 -69 -17.5t-48.5 -44 t-25 -56.5zM385 -895q8 51 34 92.5t62.5 71t82 45t92.5 15.5q55 0 95.5 -16.5t65 -47.5t31.5 -75.5t-4 -96.5l-52 -241h283l102 472h123l-122 -572h-529l37 177q-31 -14 -57 -19t-60 -5q-43 0 -81 12.5t-63.5 38.5t-37.5 64t-2 85zM489 -927.5q3 -22.5 15 -39.5t32 -27 t50 -10t55 10t44 27t31 40q10 22 16 45q4 23 2 44t-13.5 38.5t-32 28t-50.5 10.5t-54.5 -10.5t-43.5 -28t-30.5 -38.5t-17.5 -44t-3 -45.5z" />
<glyph unicode="&#xd;" horiz-adv-x="1035" />
<glyph unicode=" "  horiz-adv-x="878" />
<glyph unicode="&#x09;" horiz-adv-x="878" />
<glyph unicode="&#xa0;" horiz-adv-x="878" />
<glyph unicode="!" horiz-adv-x="650" d="M226 62.5q-3 21.5 1 46.5q6 23 18 44t31 38.5t44 28t55 10.5t50 -10.5t32 -28t14 -39.5q4 -22 -2 -43q-4 -23 -16.5 -45.5t-31.5 -39.5t-43.5 -27t-54.5 -10t-50.5 10t-32 27t-14.5 38.5zM378 412l101 728l-1 -2l117 547h179l-116 -545l-215 -728h-65z" />
<glyph unicode="&#x22;" horiz-adv-x="790" d="M422 1101l124 584h132l-123 -584h-133zM741 1101l123 584h133l-125 -584h-131z" />
<glyph unicode="#" horiz-adv-x="1302" d="M187 503l45 125h243l123 360h-242q13 33 23 60t21 59h242q20 60 42 124.5t46 130t46.5 130.5t42.5 125h131l-181 -510h319q20 60 43 124.5t46 130t46 130.5t44 125h130l-179 -510h243q-12 -33 -22 -61t-22 -58h-242l-128 -360h243q-13 -35 -23 -62.5t-23 -62.5h-242 q-20 -60 -42 -123t-44 -128t-44.5 -128.5t-43.5 -123.5h-126l173 503h-319q-20 -60 -42 -123t-45 -128t-45 -128.5t-42 -123.5h-130l177 503h-242zM602 628h319l124 360h-317z" />
<glyph unicode="$" horiz-adv-x="1562" d="M228 376q2 49 12 100h135q-16 -98 11 -172.5t81 -125.5t127.5 -80t150.5 -39l150 712l-174 47q-23 3 -55.5 13.5t-67.5 28.5t-67.5 46t-55.5 68.5t-31.5 94.5t6.5 124q18 84 67 165t128 145t188 104t250 43l22 110h106l-24 -113q106 -11 180 -39.5t123 -68.5t76 -87.5 t39 -96t10.5 -95.5t-6.5 -87h-133q11 80 -9 143t-63.5 109t-105.5 75t-134 39l-142 -668l192 -50q69 -17 129 -46t101.5 -76t58 -114t-3.5 -157q-18 -85 -56.5 -153t-90.5 -120t-115 -88.5t-131 -61t-139.5 -36.5t-138.5 -13l-29 -133h-105l27 128q-98 2 -165 17.5 t-112.5 38.5t-73.5 48t-47 48q-37 44 -57.5 88t-30 90t-7.5 95zM588 1197q-13 -59 1 -104t44.5 -76.5t68 -50.5t72.5 -28l148 -40l138 645q-69 -3 -144 -23t-141.5 -61.5t-116.5 -106t-70 -155.5zM849 59q49 4 102.5 15.5t106.5 30.5t102.5 47t89.5 64.5t68.5 82.5t41.5 103 q16 71 6.5 122t-49 89.5t-110 67t-177.5 57.5l-35 7z" />
<glyph unicode="%" horiz-adv-x="2046" d="M340 0l1588 1719h164l-1590 -1719h-162zM456 1108.5q-3 44.5 2 88.5t13.5 84t23 85t35.5 89t50 84t67.5 71.5t88 49t111.5 17.5q60 0 101.5 -17.5t67.5 -49t38.5 -71.5t16 -84t-1.5 -89t-12 -85q-9 -40 -24 -84t-36.5 -88.5t-50.5 -84t-68.5 -70t-89 -48.5t-109.5 -18 q-61 0 -102.5 18t-67.5 48.5t-38 70t-15 84zM595 1167.5q-3 -52.5 7.5 -89.5t35 -57t66.5 -20q40 0 71.5 20t56.5 56.5t44 90t33 120.5q13 65 17 116.5t-5.5 87t-33 55t-63.5 19.5q-83 0 -134 -72.5t-79 -207.5q-13 -66 -16 -118.5zM1341 213.5q-3 43.5 2 88t14 84.5t23 85 t35.5 88.5t51 84.5t68 71.5t88 49.5t110.5 19q60 0 101.5 -19t68 -49.5t38.5 -71.5t16 -84.5t-1 -88.5t-14 -85t-23 -84.5t-35.5 -88t-51.5 -83.5t-68.5 -70t-89 -48t-110.5 -18q-61 0 -102 18t-66.5 48t-38.5 70t-16 83.5zM1480 272.5q-3 -52.5 8 -89.5t35 -57t66 -20 q41 0 72.5 19t56.5 56.5t44.5 91t33.5 122.5q13 64 16.5 115t-5.5 86.5t-33 55t-65 19.5q-83 0 -134 -72.5t-79 -209.5q-13 -64 -16 -116.5z" />
<glyph unicode="&#x26;" horiz-adv-x="1562" d="M184.5 317.5q1.5 44.5 8.5 75.5q11 56 29 104.5t45.5 92t65 84.5t92 82.5t125.5 83t162 88.5q-37 63 -64 113t-43.5 96t-20 91t7.5 99q14 70 55 135t101.5 116t139.5 81.5t172 30.5q94 0 156 -30.5t96.5 -78.5t43 -108t-4.5 -120q-13 -57 -39 -106.5t-62.5 -91.5t-81 -78 t-90.5 -67.5t-89.5 -57t-81.5 -48.5l287 -459q47 71 89.5 147.5t79.5 169.5h131q-30 -84 -87 -192t-147 -225l214 -345h-173l-134 227q-59 -54 -122.5 -102.5t-135 -84.5t-153 -56.5t-173.5 -20.5q-103 0 -173 23t-115.5 60.5t-70 84t-33 94.5t-7 92.5zM331 301 q8 -46 30 -82t53.5 -60.5t68 -40t73 -22.5t65.5 -7q64 0 128.5 19t127.5 51.5t120.5 76.5t107.5 94l-327 521q-99 -56 -174 -101.5t-128.5 -93.5t-87 -107t-52.5 -141q-13 -61 -5 -107zM726 1334q-10 -46 1 -93.5t31.5 -92.5t46.5 -83t47 -65q30 17 66 36t73 43t74.5 50 t68 57t53.5 66.5t31 75.5q13 65 2.5 111.5t-38 76.5t-67.5 44t-84 14q-76 0 -131 -25.5t-90.5 -62.5t-56.5 -78t-27 -74z" />
<glyph unicode="'" horiz-adv-x="519" d="M422 1101l124 584h132l-123 -584h-133z" />
<glyph unicode="(" horiz-adv-x="779" d="M295 339.5q2 133.5 35 286.5q35 163 90 307.5t131.5 280.5t175 266t220.5 263h100q-69 -90 -129.5 -171.5t-113 -162.5t-97.5 -164.5t-83.5 -177t-72 -203t-61.5 -239.5q-31 -155 -36 -288.5t10.5 -259.5t48 -249.5t72.5 -257.5h-95q-61 134 -106 258.5t-68 251t-21 260z " />
<glyph unicode=")" horiz-adv-x="779" d="M11 -430q98 134 182 257.5t153.5 249.5t122 259.5t84.5 288.5q28 130 41.5 239.5t15 203t-8.5 177t-28 164.5t-44 162.5t-56 171.5h100q65 -134 108 -263.5t63 -265.5t13.5 -280.5t-41.5 -307.5q-32 -153 -87.5 -286.5t-132.5 -260t-175 -251t-217 -258.5h-93z" />
<glyph unicode="*" horiz-adv-x="910" d="M399 1399l67 111l229 -90l56 265h121l-55 -265l271 90l15 -111l-275 -82l114 -214l-113 -72l-108 225l-200 -224l-88 71l206 214z" />
<glyph unicode="+" horiz-adv-x="1458" d="M235 575l28 136h551l116 545h135l-115 -545h546l-29 -136h-546l-117 -546h-135l116 546h-550z" />
<glyph unicode="," horiz-adv-x="650" d="M134 -330l22 95q8 2 24.5 7t35.5 15.5t38 25.5t35 37q27 37 45 78.5t25 72.5q-17 -2 -28.5 -3t-20.5 -1q-48 0 -77 30t-16 90q6 26 20.5 51t35 44.5t47.5 31.5t60 12q46 0 70.5 -19.5t36 -48.5t10 -64t-8.5 -67q-16 -70 -47.5 -135t-71.5 -116q-43 -55 -104 -91.5 t-131 -44.5z" />
<glyph unicode="-" horiz-adv-x="1368" d="M316 573l29 138h981l-29 -138h-981z" />
<glyph unicode="." horiz-adv-x="650" d="M216.5 81.5q-3.5 24.5 2.5 50t19.5 50t34 44t48.5 30.5t62 11q33 0 55 -11t36 -30.5t16.5 -44.5t-2.5 -49q-6 -26 -19.5 -50.5t-34.5 -43.5t-48.5 -30.5t-60.5 -11.5q-35 0 -57.5 11.5t-35 30.5t-16 43.5z" />
<glyph unicode="/" horiz-adv-x="1053" d="M-24 1q167 218 333 434t331 431t331.5 431t332.5 433h179q-169 -217 -335.5 -433t-332.5 -431t-332.5 -430.5t-333.5 -434.5h-173z" />
<glyph unicode="0" horiz-adv-x="1338" d="M252 449.5q-3 93.5 9 189.5t29 182q17 84 46.5 180t72.5 189.5t101.5 180t133 152.5t169.5 104.5t211 38.5t193 -38.5t124.5 -104.5t68.5 -152.5t25 -180t-8.5 -189.5t-29.5 -180q-17 -85 -47 -181.5t-73 -190t-101 -180t-133 -152.5t-169.5 -104.5t-210 -38.5 t-193.5 38.5t-125.5 104.5t-68.5 152.5t-24 180zM392.5 520q-3.5 -135 27 -229.5t96.5 -146t169 -51.5q107 0 198 52t162.5 147.5t125 230.5t89.5 301t39.5 299.5t-27.5 228t-99 145t-175 50.5t-196.5 -51.5t-159.5 -145.5t-123 -228.5t-87 -300.5q-36 -166 -39.5 -301z" />
<glyph unicode="1" horiz-adv-x="1338" d="M593 1253l16 71q69 4 124 10.5t101.5 18t85 33t73.5 55t67.5 83.5t66.5 122h87l-349 -1645h-141l266 1252h-397z" />
<glyph unicode="2" horiz-adv-x="1338" d="M110 1q32 118 83.5 213.5t117 172t145 135.5t167.5 104l284 143q75 39 142.5 77t121 85t90.5 107t56 142q13 58 5 119t-43.5 111.5t-103 83t-173.5 32.5q-80 0 -143.5 -21t-113 -55t-86.5 -78.5t-63.5 -93t-43.5 -96.5t-27 -88h-142q30 123 79.5 211.5t109.5 150 t126.5 99t129.5 58t118.5 27t94.5 6.5q112 0 199.5 -33t144 -95t78 -151t-2.5 -200q-23 -106 -76 -183t-127 -138t-167 -111.5t-196 -102.5l-195 -97q-107 -55 -180 -115t-118 -116.5t-68.5 -104t-35.5 -76.5h941l-25 -122h-1103z" />
<glyph unicode="3" horiz-adv-x="1338" d="M207 274.5q-20 94.5 7 211.5h142q-7 -44 -5.5 -89t13 -89.5t33.5 -83t58.5 -68t88.5 -46.5t122 -17q99 0 184 24.5t153 71t114 115.5t64 159q16 78 5 135t-40 97t-72.5 64.5t-91.5 38.5t-95.5 18.5t-85.5 4.5h-24.5t-24.5 -2q-6 0 -11.5 -0.5t-9.5 -0.5l21 100 q16 -1 24.5 -1h17h18h25.5q64 0 136 19t136 59t112.5 102.5t66.5 149.5q6 29 6 61.5t-9 66.5t-30.5 64.5t-56 55t-86 38.5t-122.5 14q-76 0 -137 -18.5t-108 -50t-82 -70.5t-60 -81.5t-41.5 -84.5t-25.5 -77h-140q16 86 61.5 175t122 161.5t187.5 118.5t257 46 q117 0 203 -31.5t137.5 -87.5t68.5 -132.5t-3 -167.5q-16 -77 -48 -136.5t-75.5 -104t-96.5 -75.5q-52 -32 -112 -53q66 -20 116 -54.5t80 -85t38.5 -117t-8.5 -152.5q-20 -94 -70.5 -183t-134.5 -158t-202.5 -111.5t-275.5 -42.5q-116 0 -207 36t-149 103t-78 161.5z" />
<glyph unicode="4" horiz-adv-x="1338" d="M173 412l37 171l995 1063h131l-236 -1111h247l-26 -123h-249l-87 -411h-140l86 411h-758zM329 535h629l186 875z" />
<glyph unicode="5" horiz-adv-x="1338" d="M187 385h143q-4 -75 20.5 -129t71 -91.5t111.5 -55t139 -17.5q97 0 182.5 34t151.5 92.5t110.5 136t64.5 163.5q22 103 2 183.5t-69 135t-121 81.5t-155 24q-52 -1 -102.5 -14t-98.5 -36t-89.5 -56.5t-77.5 -76.5l-138 7q77 218 153 431t151 429h825l-24 -120h-719 l-212 -589q45 34 90.5 59t93.5 41.5t100 24.5t111 8q97 0 185.5 -33t150 -99.5t87.5 -166t-3 -233.5q-8 -40 -28 -96t-56 -116.5t-90 -121t-129.5 -107.5t-174 -77t-225.5 -30q-52 0 -105 8t-103 26.5t-92 49t-73 76.5t-46.5 109t-11.5 146z" />
<glyph unicode="6" horiz-adv-x="1338" d="M242.5 471q0.5 72 11.5 150q12 80 29 163q20 91 51.5 191t78.5 197.5t110 185.5t144 154.5t182 105.5t222 39q44 0 91.5 -7.5t91.5 -26.5t83 -48t65.5 -73.5t40 -105t7.5 -138.5h-129q3 63 -12 115.5t-50 90.5t-89.5 59t-131.5 21q-91 0 -167 -33.5t-138 -88.5t-111 -125 t-84.5 -144.5t-59 -146t-36.5 -128.5q-2 -10 -6 -30.5t-6 -38.5q42 55 95 98.5t116 75t135 49.5t152 18q56 0 114 -13t109.5 -40t94 -68t69 -98t34 -131t-12.5 -164q-26 -123 -82.5 -226t-140 -177t-192.5 -116.5t-237 -42.5q-56 0 -114 11t-111 37.5t-98 71.5t-74 113 q-24 59 -34.5 125.5t-10 138.5zM388 419q2 -50 16 -97t40 -88.5t65 -73t90.5 -49.5t116.5 -18q89 0 167 31.5t140 89.5t106 138t64 177q10 44 12 92t-7.5 92.5t-31 84.5t-59 70.5t-92.5 48.5q-54 17 -131 17q-92 0 -172.5 -33t-144.5 -90t-107.5 -133t-61.5 -160 q-12 -49 -10 -99z" />
<glyph unicode="7" horiz-adv-x="1338" d="M390 1q42 116 103.5 244t136.5 260.5t163 266t184.5 261t199.5 244.5t207 216h-951l27 133h1119l-32 -147q-54 -49 -130.5 -125.5t-166.5 -179t-187.5 -229.5t-192.5 -275t-183 -316t-159 -353h-138z" />
<glyph unicode="8" horiz-adv-x="1338" d="M209.5 278q-17.5 91 3.5 192q16 73 55 140.5t95 121t124 92t141 54.5q-56 23 -96 60t-63 85t-29 105q-5 56 8 119q8 44 29.5 92t56 94t81 87.5t106.5 73.5t133 50t158 18q135 0 220.5 -38t131.5 -99t56.5 -134t-3.5 -141q-16 -70 -43.5 -126.5t-68.5 -102.5t-92.5 -81 t-109.5 -62q82 -37 127.5 -87t64 -104.5t17.5 -109t-9 -97.5q-22 -101 -79 -194.5t-141.5 -164t-194 -112.5t-236.5 -42t-221 41t-149 110t-72.5 160zM345 384q0 -44 12 -85.5t37 -78.5t64.5 -65t95 -43.5t128.5 -15.5q70 0 146 22t142.5 68.5t117 119t72.5 172.5 q17 84 -3 147.5t-67.5 106.5t-114.5 65t-143 22q-97 0 -178.5 -29t-143.5 -77.5t-102 -112.5t-55 -131q-8 -41 -8 -85zM589 1253q-14 -69 3 -125.5t55.5 -97t96 -62t123.5 -21.5q73 0 140.5 22.5t122.5 63.5t94 96t53 121q11 51 5 102t-37.5 93t-94 68.5t-163.5 26.5 q-96 0 -165.5 -25.5t-117.5 -67t-76.5 -93t-38.5 -101.5z" />
<glyph unicode="9" horiz-adv-x="1338" d="M227 373h129q-3 -63 12 -115t50 -90t89.5 -59.5t131.5 -21.5q90 0 166.5 33.5t139 88t111 124.5t84 144.5t59.5 146.5t37 130q1 10 5 30q3 21 6 37q-42 -55 -94.5 -97.5t-115.5 -75t-135.5 -49.5t-152.5 -17q-55 0 -113 13t-109.5 39.5t-94.5 68t-69.5 98.5t-33.5 130 t13 164q26 123 82 226t139 177.5t192 116.5t240 42q55 0 112.5 -10.5t110.5 -37.5t98 -72.5t74 -112.5q24 -58 35 -124.5t9.5 -139t-11.5 -151t-27 -161.5q-20 -92 -52.5 -192t-79.5 -197t-110 -185t-143.5 -154.5t-181.5 -106t-223 -39.5q-44 0 -91 7.5t-91 26t-83 48.5 t-65.5 74t-40 104.5t-8.5 138.5zM472.5 1010q-2.5 -48 7 -92t31 -85t59.5 -71t93 -47t132 -17q92 0 172 33t143.5 90t107 132t62.5 161q10 49 8.5 98t-15 97t-40 89.5t-65 73t-90 49.5t-117.5 18q-90 0 -167.5 -32.5t-139.5 -89.5t-105.5 -138t-63.5 -176q-10 -45 -12.5 -93 z" />
<glyph unicode=":" horiz-adv-x="650" d="M214.5 73q-2.5 24 3 50t18.5 50t34.5 43t48.5 31t61 12q33 0 56 -12t36 -31t16.5 -44t-2.5 -49q-6 -26 -19.5 -50t-34 -43.5t-48.5 -31t-61 -11.5q-34 0 -57 11.5t-36 31t-15.5 43.5zM415 1011q-3 24 1 50q6 26 19.5 50t34 43.5t48.5 31t63 11.5q32 0 55 -11.5t36 -31 t16 -44.5t-3 -49q-6 -26 -19.5 -50t-33.5 -43.5t-48.5 -31t-61.5 -11.5q-34 0 -57 11.5t-35 31t-15 43.5z" />
<glyph unicode=";" horiz-adv-x="650" d="M134 -330l22 95q8 2 24.5 7t35.5 15.5t38 25.5t35 37q27 37 45 78.5t25 72.5q-17 -2 -28.5 -3t-20.5 -1q-48 0 -77 30t-16 90q6 26 20.5 51t35 44.5t47.5 31.5t60 12q46 0 70.5 -19.5t36 -48.5t10 -64t-8.5 -67q-16 -70 -47.5 -135t-71.5 -116q-43 -55 -104 -91.5 t-131 -44.5zM415 1011q-3 24 1 50q6 26 19.5 50t34 43.5t48.5 31t63 11.5q32 0 55 -11.5t36 -31t16 -44.5t-3 -49q-6 -26 -19.5 -50t-33.5 -43.5t-48.5 -31t-61.5 -11.5q-34 0 -57 11.5t-35 31t-15 43.5z" />
<glyph unicode="&#x3c;" horiz-adv-x="1368" d="M242 523l30 139l1207 471l-32 -148l-1027 -392l860 -391l-32 -149z" />
<glyph unicode="=" horiz-adv-x="1401" d="M196 340l29 133h1149l-28 -133h-1150zM297 812l29 138h1150l-29 -138h-1150z" />
<glyph unicode="&#x3e;" horiz-adv-x="1368" d="M142 53l31 149l1024 391l-857 392l32 148l1007 -471l-31 -139z" />
<glyph unicode="?" horiz-adv-x="1302" d="M396 1195q2 6 2 7v1.5v2t1 7.5q11 51 32 104t53 102.5t75.5 95t101.5 84.5q80 54 170.5 79t185.5 25q97 0 178 -28t136 -81.5t77 -132t1 -180.5q-13 -65 -37.5 -114.5t-61 -95.5t-88.5 -93t-124 -106q-47 -40 -85.5 -73t-68.5 -64t-53.5 -63.5t-43 -71t-35.5 -84.5 q-14 -47 -28 -107h-142q20 89 46 155.5t63.5 121.5t89 105.5t126.5 113.5q73 62 124.5 107t86.5 85.5t56.5 82t32.5 97.5q6 29 6 64t-8.5 70t-28.5 67t-53 58t-82 41t-116 15q-80 0 -142 -21t-110.5 -54.5t-84 -75.5t-60.5 -86.5t-39 -86t-21 -73.5h-132zM528 53.5 q-3 22.5 2.5 45.5t17 45t30 39t43.5 27t55 10t50 -10t31.5 -27t14.5 -39t-1 -45q-6 -23 -18 -45.5t-30.5 -39.5t-43 -27t-54.5 -10t-51 10t-32 27t-14 39.5z" />
<glyph unicode="@" horiz-adv-x="2378" d="M519 611q-7 113 19 234q25 120 79.5 231.5t132 208t174 175.5t204.5 136t225.5 88t236.5 31q107 0 203 -24.5t174.5 -69.5t138 -109.5t95.5 -144.5t45 -173.5t-14 -198t-65.5 -194t-99 -163t-124 -131t-136 -96.5t-136.5 -59t-125 -20q-59 0 -84.5 39t-2.5 112 q-89 -77 -178.5 -114t-170.5 -37q-75 0 -130 28.5t-89 77t-45 114.5t6 140q16 77 49.5 154.5t81 148t106.5 131.5t128 105.5t144 70t153 25.5q40 0 79 -11.5t70.5 -35t53.5 -62t29 -93.5l89 165h131q-48 -99 -94.5 -194t-94.5 -187q-34 -68 -65.5 -129.5t-55.5 -111.5 t-40 -86q-14 -36 -17 -49q-9 -40 -0.5 -57t47.5 -17q37 0 83 20t91.5 57t90.5 86.5t83 107.5t66.5 121t41.5 127q20 94 13 176.5t-37 151t-80 122t-116.5 91t-146.5 56.5t-171 19q-105 0 -206 -27t-192 -76.5t-170 -119.5t-142 -155t-107.5 -182t-67.5 -203t-16.5 -202 t36 -178t83 -149t126 -114.5t162.5 -73t194 -25.5q83 0 169 17t169 49t158.5 80t139.5 110h149q-77 -89 -173.5 -159t-204 -118t-219 -73t-218.5 -25q-124 0 -230.5 30.5t-193 87t-149.5 136t-99 177t-43 210.5zM1018 617q6 -44 27.5 -76t55.5 -50t83 -18q50 0 101 22.5 t99.5 60t91.5 87t78 103t59 107.5q23 54 34 102q9 46 2 87.5t-28.5 73t-54 50.5t-73.5 19q-54 0 -107 -21t-101.5 -57t-91.5 -83t-77.5 -99.5t-58 -106.5t-33.5 -104q-12 -53 -6 -97z" />
<glyph unicode="A" horiz-adv-x="1605" d="M80 0l994 1685h173l280 -1685h-143l-81 506h-785l-292 -506h-146zM586 621h697l-148 943z" />
<glyph unicode="B" horiz-adv-x="1598" d="M214 0l358 1685h728q113 0 192.5 -34.5t125.5 -90.5q46 -58 60 -132q6 -33 7 -67q0 -43 -10 -88q-9 -42 -25.5 -95t-53.5 -106.5t-101 -102t-167 -80.5q62 -11 117 -43t92 -84t52 -124q7 -32 7 -69q0 -43 -10 -91q-22 -99 -70.5 -187t-125.5 -152.5t-186.5 -101.5 t-251.5 -37h-738zM383 127h594q98 0 178.5 26.5t139 73t96.5 110t55 138.5q8 39 8 73q0 21 -3 40q-8 50 -30 87t-58 63t-81 43t-96 24t-101 7h-557zM555 940h516q92 0 168.5 20.5t135 62t99 104.5t58.5 147q6 27 6 54q0 24 -5 48q-10 50 -46.5 90.5t-101 65.5t-161.5 25 h-538z" />
<glyph unicode="C" horiz-adv-x="1726" d="M272 559v17q0 122 33 273q41 196 129.5 358t214 277.5t285 180t340.5 64.5q153 0 262.5 -43.5t179 -115t99.5 -164.5q28 -79 28 -162q0 -15 -1 -30h-142q-3 82 -25 142.5t-57 104t-80 72.5t-95 46t-102.5 24t-99.5 7q-83 0 -167 -21.5t-163 -63t-151 -105t-133 -147 t-106.5 -188.5t-72.5 -231q-29 -135 -29 -254q0 -30 2 -58q9 -144 67 -248.5t165.5 -164t267.5 -59.5q43 0 96 8.5t110.5 30t118.5 58t121 93.5t115 136.5t102 186.5h142q-44 -113 -100 -199.5t-117.5 -151.5t-126.5 -111.5t-128.5 -77t-123.5 -48.5t-110 -27t-90.5 -11.5 t-61.5 -2.5q-94 0 -182 21.5t-162.5 67.5t-130.5 116.5t-87.5 170.5t-33.5 229z" />
<glyph unicode="D" horiz-adv-x="1726" d="M214 0l358 1685h674q163 0 280 -61t183.5 -169t82.5 -259q5 -45 5 -92q0 -112 -27 -239q-20 -94 -55.5 -195t-88 -197.5t-124 -182.5t-164 -150t-206.5 -102t-251 -38h-667zM382 127h537q121 0 233 48t205 142.5t164 231t108 313.5q26 124 26 226q0 38 -3 72 q-13 128 -68 215.5t-148 132.5t-218 45h-533z" />
<glyph unicode="E" horiz-adv-x="1598" d="M214 0l358 1685h1207l-27 -132h-1067l-133 -625h988l-27 -127h-987l-143 -674h1081l-25 -127h-1225z" />
<glyph unicode="F" horiz-adv-x="1467" d="M214 0l358 1685h1145l-28 -132h-1004l-133 -625h887l-26 -127h-887l-170 -801h-142z" />
<glyph unicode="G" horiz-adv-x="1859" d="M280 654q6 102 26 195q23 108 66.5 215t106.5 205t146 182.5t183.5 146t219.5 96.5t256 35q132 0 240 -31t185 -93.5t120.5 -160.5t46.5 -230h-147q-4 83 -26.5 145t-57.5 106.5t-81.5 73t-98 45t-105 23t-106.5 6.5q-89 0 -176.5 -23t-169 -67t-154 -110t-132.5 -152 t-105 -189.5t-71 -226.5q-20 -94 -23 -188v-29q0 -78 13 -150q17 -86 53.5 -160.5t94.5 -129.5t139.5 -86.5t187.5 -31.5q83 0 166 24.5t161 68t148.5 105.5t128 138.5t99.5 164.5t62 185h-569l26 119h706l-186 -875h-89l-5 270q-70 -80 -150.5 -139t-166 -98.5t-175 -59 t-178.5 -19.5q-145 0 -251 41t-177.5 109.5t-111.5 158.5t-57 189q-13 76 -13 152q0 25 1 50z" />
<glyph unicode="H" horiz-adv-x="1726" d="M214 0l358 1685h140l-156 -734h1018l155 734h141l-357 -1685h-142l175 824h-1017l-174 -824h-141z" />
<glyph unicode="I" horiz-adv-x="657" d="M259 0l357 1685h140l-357 -1685h-140z" />
<glyph unicode="J" horiz-adv-x="1206" d="M125 282q2 45 9 86l30 137h141l-26 -120q-10 -50 -10 -90q0 -27 5 -51q11 -57 45 -93.5t87.5 -52t119.5 -15.5q87 0 158 25t122.5 69.5t85 104.5t48.5 127l270 1276h140l-263 -1243q-20 -97 -56 -170t-81 -127.5t-98.5 -91t-110.5 -58t-116 -30.5t-114 -9 q-95 0 -161.5 19t-111.5 52t-70 75t-35 88q-8 38 -8 76v16z" />
<glyph unicode="K" horiz-adv-x="1598" d="M214 0l358 1685h142l-196 -916l1161 916h191l-853 -678l529 -1007h-176l-459 925l-431 -333l-124 -592h-142z" />
<glyph unicode="L" horiz-adv-x="1338" d="M214 0l358 1685h140l-332 -1568h916l-25 -117h-1057z" />
<glyph unicode="M" horiz-adv-x="1986" d="M214 0l358 1685h225l227 -1548l878 1548h227l-357 -1685h-140l247 1163q20 94 44.5 185.5t44.5 183.5h-15l-870 -1532h-174l-227 1532h-13q-20 -101 -34 -191t-33 -178l-247 -1163h-141z" />
<glyph unicode="N" horiz-adv-x="1726" d="M214 0l358 1685h225l602 -1562l330 1562h141l-357 -1685h-217l-610 1564l-331 -1564h-141z" />
<glyph unicode="O" horiz-adv-x="1859" d="M268 550q-2 33 -2 66q0 42 4 84q6 74 20 142q19 92 58.5 192.5t100 199.5t143 189t187.5 157t234.5 108t283.5 41q153 0 264 -41t187.5 -108t120.5 -157t63 -189q16 -82 16 -165q0 -17 -1 -35q-4 -102 -22 -192q-20 -91 -58.5 -192t-98 -199.5t-141 -188t-187.5 -158 t-235.5 -109.5t-285.5 -41q-117 0 -210 23.5t-163.5 64.5t-121.5 97.5t-84 122t-50 139t-22 149.5zM414 538q16 -140 80.5 -243t177.5 -162t273 -59q106 0 203.5 27.5t183 77.5t158 120t131 155t100 183t64.5 205q23 106 23 204.5t-22.5 184.5t-65.5 155.5t-108 119.5 t-150 77t-191 27t-203 -27t-183 -76.5t-158.5 -119t-130.5 -155t-99.5 -184t-64.5 -206.5q-23 -112 -23 -213q0 -47 5 -91z" />
<glyph unicode="P" horiz-adv-x="1598" d="M214 0l358 1685h748q113 0 198.5 -36t138.5 -98q53 -63 71 -147q8 -39 8 -81q0 -49 -11 -102q-13 -57 -38 -115.5t-63 -111.5t-88 -99.5t-114 -80t-140.5 -53.5t-164.5 -20h-605l-157 -741h-141zM539 868h585q84 0 158.5 22t133 66t100.5 109q40 66 60 156q9 46 9 85 q-1 34 -7 62q-14 62 -55.5 103.5t-104.5 61.5q-65 20 -142 20h-591z" />
<glyph unicode="Q" horiz-adv-x="1859" d="M268 550q-2 33 -2 66q0 42 4 84q6 74 20 142q19 92 58.5 192.5t100 199.5t143 189t187.5 157t234.5 108t283.5 41q153 0 264 -41t187.5 -108t120.5 -157t63 -189q16 -82 16 -165q0 -18 -1 -35q-4 -102 -22 -192q-17 -83 -50 -173.5t-84.5 -180.5t-119.5 -175.5 t-157 -153.5l198 -185l-102 -86l-206 195q-101 -59 -220.5 -94t-264.5 -35q-117 0 -210 23.5t-163.5 64.5t-121.5 97.5t-84 122t-50 139.5t-22 149zM414 538q15 -140 80 -243t178 -162t273 -59q102 0 193 25q92 24 175 70l-196 183l100 87l207 -196q67 53 125 119t104 142.5 t79 161.5t53 176q23 106 23 204.5t-22.5 184.5t-65.5 155.5t-108 119.5t-150 77t-191 27t-203 -27t-183 -76.5t-158.5 -119t-130.5 -155t-99.5 -184t-64.5 -206.5q-23 -112 -23 -213q0 -47 5 -91z" />
<glyph unicode="R" horiz-adv-x="1726" d="M214 0l358 1685h841q56 0 111.5 -9t106.5 -29.5t91 -55t65.5 -85t31.5 -120.5q1 -16 1 -34q0 -56 -14 -125q-17 -83 -51.5 -148t-81 -115t-105 -86t-124.5 -59q45 -12 82 -36.5t61.5 -64.5t32.5 -100q3 -22 2 -46q0 -43 -8 -96q-10 -60 -24 -136.5t-24 -156.5 q-4 -31 -5.5 -57.5t2 -48t13.5 -41t30 -36.5h-192q-1 27 2 64.5t8 78t10.5 80.5t11 76.5t10.5 64.5t8 44q10 44 14 87q2 18 2 36q0 24 -3 46q-6 39 -23.5 73t-52 58t-87.5 37.5t-129 13.5h-669l-161 -759h-141zM543 888h647q70 0 145 14.5t141.5 51t116.5 101.5t72 166 q11 55 11 98q0 14 -1 28q-5 53 -25.5 90t-51.5 59.5t-66.5 35t-73 17t-68.5 4.5h-705z" />
<glyph unicode="S" horiz-adv-x="1598" d="M245 503h143q-3 -33 -4 -63q0 -75 22 -133q30 -81 90 -132.5t146 -74.5q87 -23 185 -23q54 0 114.5 7.5t121.5 24.5t119 44t105 65.5t81.5 90t48.5 117.5q9 43 9 79q0 26 -4 48q-12 53 -54 92.5t-117 68.5q-73 30 -181 58l-324 83q-24 6 -57.5 18t-70 33t-71 50t-58 71.5 t-31.5 98.5q-3 18 -3 38q0 41 11 90q17 84 68.5 169.5t139 153t209.5 110t282 42.5q131 0 220 -24.5t148 -65t91 -93.5q30 -52 44 -107q12 -50 12 -99v-11q-2 -55 -5 -101h-142q3 31 3 58q0 64 -17 114q-25 72 -79 118t-131.5 68.5t-170.5 22.5q-45 0 -98 -6.5t-107.5 -22.5 t-106.5 -42t-96 -65.5t-76 -93.5q-32 -52 -48 -123q-6 -30 -6 -56q0 -30 8 -54q14 -46 45 -77t71 -50t80 -29l457 -121q70 -18 132.5 -51t105.5 -86t60 -128q7 -33 7 -71q0 -49 -12 -107q-20 -91 -63.5 -161.5t-103 -123t-131.5 -88.5t-148.5 -57.5t-155 -31.5t-150.5 -10 q-169 0 -281.5 41.5t-178.5 115t-88 174.5q-14 63 -14 133q0 42 5 85z" />
<glyph unicode="T" horiz-adv-x="1467" d="M389 1557l27 128h1351l-27 -128h-606l-330 -1557h-140l330 1557h-605z" />
<glyph unicode="U" horiz-adv-x="1726" d="M312 399.5q0 73.5 15 152.5l242 1133h140l-234 -1104q-17 -79 -17 -143q0 -17 1 -33q6 -75 31 -130.5t66.5 -93t91.5 -58.5t105.5 -30.5t108.5 -9.5q59 0 123.5 10t128.5 33t124 61.5t111.5 93t90.5 128.5t59 169l234 1107h142l-235 -1104q-27 -126 -91.5 -240 t-166 -199.5t-238 -135.5t-307.5 -50q-112 0 -198 22t-148 63t-101.5 96t-58.5 122t-19 140.5z" />
<glyph unicode="V" horiz-adv-x="1598" d="M440 1685h149l232 -1571l904 1571h150l-980 -1685h-191z" />
<glyph unicode="W" horiz-adv-x="2246" d="M416 1685h156l73 -1532h10l734 1532h194l76 -1532h17l714 1532h157l-811 -1685h-203l-87 1493h-2l-730 -1493h-202z" />
<glyph unicode="X" horiz-adv-x="1598" d="M94 -3l797 864l-412 824h177l346 -710l648 710h182l-762 -824l434 -861h-180l-367 755l-688 -755z" />
<glyph unicode="Y" horiz-adv-x="1598" d="M440 1685h163l372 -848l734 848h164l-853 -973l-151 -712h-141l151 712z" />
<glyph unicode="Z" horiz-adv-x="1467" d="M80 0l32 144l1454 1422h-1074l24 119h1227l-30 -145l-1454 -1423h1152l-25 -117h-1306z" />
<glyph unicode="[" horiz-adv-x="650" d="M67 -458l456 2148h404l-28 -128h-253l-401 -1891h253l-28 -129h-403z" />
<glyph unicode="\" horiz-adv-x="650" d="M335 1727h135l204 -1771h-141z" />
<glyph unicode="]" horiz-adv-x="650" d="M-13 -458l26 129h253l402 1891h-252l27 128h404l-458 -2148h-402z" />
<glyph unicode="^" horiz-adv-x="1171" d="M183 676l676 948h143l274 -948h-131l-240 833l-589 -833h-133z" />
<glyph unicode="_" horiz-adv-x="1302" d="M-59 -275l29 129h1301l-27 -129h-1303z" />
<glyph unicode="`" horiz-adv-x="779" d="M430 1725h219l106 -329h-122z" />
<glyph unicode="a" horiz-adv-x="1355" d="M188 164q-7 29 -7 62q0 37 9 80q6 26 17.5 60t33 71.5t53.5 76t79 71.5t109.5 58t145.5 35l380 51q23 3 50 10t52 26t46.5 51.5t33.5 88.5q6 31 6 60q0 23 -4 44q-9 48 -44 83t-96.5 54t-152.5 19q-102 0 -173 -26t-119 -67t-73.5 -89.5t-37.5 -91.5h-116q26 96 76 166 t120 115t159.5 66.5t194.5 21.5q25 0 68 -3.5t90 -16t93.5 -34.5t80.5 -61.5t48 -96.5q6 -25 6 -55q0 -37 -9 -81l-157 -743q-12 -50 8 -68t70 -18q9 0 20 2q12 1 23 4l-21 -95q-22 -5 -44 -9t-46 -4q-46 0 -76 12.5t-45 34t-18 51.5t6 67l10 40q-46 -47 -106 -88.5 t-130 -71t-150 -46.5q-79 -17 -168 -17q-80 0 -141.5 24t-100.5 69.5t-53 107.5zM308 213q8 -44 37.5 -77t82 -51t130.5 -18q51 0 107.5 15t111.5 41t106.5 61t93 76.5t70 86.5t38.5 91l50 240q-25 -17 -64.5 -28.5t-93 -20t-121.5 -17.5t-154 -20q-56 -9 -117.5 -21.5 t-116.5 -42.5t-97 -81.5t-59 -136.5q-7 -32 -8 -60q1 -19 4 -37z" />
<glyph unicode="b" horiz-adv-x="1355" d="M197 0l358 1685h131l-137 -650q60 70 121 113t118 68t110.5 33.5t101.5 8.5q120 0 204 -47.5t132 -132.5q48 -86 56 -202q2 -26 1 -53q0 -93 -22 -200q-14 -68 -40.5 -144t-66.5 -149t-94.5 -140t-123 -118t-153 -81t-184.5 -30q-73 0 -128.5 19.5t-97 52.5t-71 77 t-52.5 93l-43 -203h-120zM434 450q2 -74 19 -134t47.5 -105t66.5 -76t79 -46.5t85 -15.5q97 0 180.5 43t151.5 117t116.5 175t73.5 215q8 43 13 97q3 32 3 65q1 23 -1 47q-4 58 -20.5 115t-50 101.5t-88 71.5t-135.5 27q-75 0 -140 -23t-118.5 -62.5t-97 -92t-76.5 -111.5 t-56 -122.5t-36 -123.5q-17 -82 -17 -151q1 -5 1 -11z" />
<glyph unicode="c" horiz-adv-x="1224" d="M220 334q-3 33 -3 69q0 86 20 182q20 91 53 177.5t79.5 162t104.5 137.5t129.5 106.5t154.5 68t177 23.5q112 0 187.5 -36t118.5 -94t57 -132q9 -44 9 -88q0 -30 -4 -61h-119q2 19 2 36q0 49 -12 91q-16 56 -51.5 97t-91.5 62.5t-129 21.5q-108 0 -197 -45t-157.5 -123 t-115.5 -181.5t-73 -219.5q-13 -58 -16 -120q-1 -18 -1 -35q0 -43 6 -85q8 -58 29 -109.5t58.5 -90.5t93.5 -61.5t135 -22.5q60 0 122 21t118.5 62.5t103 103.5t75.5 145h124q-17 -47 -43 -98t-61.5 -98.5t-81.5 -90.5t-104 -76t-127 -51.5t-152 -18.5q-126 0 -214.5 46.5 t-140 128.5t-63.5 196z" />
<glyph unicode="d" horiz-adv-x="1355" d="M230 480q5 76 19 143q28 138 87 253.5t142 201t188 133t225 47.5q46 0 96.5 -8.5t98 -33.5t89.5 -68q41 -44 72 -113l139 650h131l-357 -1685h-122l43 203q-43 -50 -91 -93.5t-103.5 -76.5t-120 -52.5t-137.5 -19.5q-100 0 -171.5 30t-118.5 81t-72 118t-33 140 q-5 46 -6 93q0 29 2 57zM350 408q6 -100 42 -174.5t102.5 -117.5t161.5 -43q42 0 90.5 15.5t99.5 46.5t100 76t91.5 105t76 134.5t51.5 161.5q13 60 17 124q1 20 1 39q1 42 -5 83q-8 59 -29 111.5t-58 92t-91.5 62.5t-130.5 23q-81 0 -147 -27t-118.5 -71.5t-93 -102 t-69 -115t-46 -112t-26.5 -96.5q-20 -94 -20 -178q0 -18 1 -37z" />
<glyph unicode="e" horiz-adv-x="1355" d="M244 328q-5 37 -4 77q0 79 19 168q30 143 92 268.5t151.5 218.5t205.5 146.5t252 53.5q125 0 213 -46.5t138 -131.5q49 -84 61 -202q3 -32 4 -66q0 -91 -23 -193q-3 -13 -5 -25.5t-7 -24.5h-961q-18 -83 -17 -154q1 -29 3 -57q10 -94 52 -158.5t113.5 -98t166.5 -33.5 q81 0 150 21.5t124.5 59.5t98.5 89q43 49 72 106h127q-34 -76 -93 -145t-135.5 -122t-169.5 -85q-94 -31 -197 -31q-127 0 -218 45.5t-145 126.5t-68 193zM408 678h835q8 60 9 120v10q0 55 -10 103q-12 53 -35.5 98.5t-62.5 78.5t-93 52.5t-127 19.5q-89 0 -171 -39.5 t-150 -105t-119.5 -153t-75.5 -184.5z" />
<glyph unicode="f" horiz-adv-x="704" d="M265 0l238 1128h-183l22 98h183l48 228q15 66 45.5 112.5t77 76.5t106.5 43.5t132 13.5h47l-20 -97h-59q-44 0 -79 -8.5t-61.5 -28t-43.5 -49.5t-26 -74l-47 -217h236l-22 -98h-234l-240 -1128h-120z" />
<glyph unicode="g" horiz-adv-x="1355" d="M120 -184h130q-1 -15 -1 -29q0 -33 8 -59q12 -35 35.5 -59.5t55.5 -39.5t66.5 -23t66.5 -10t55 -2q97 0 170 25.5t127 67t91 94.5t61.5 109t38.5 108.5t23 93.5l21 98q-60 -70 -120.5 -113t-118.5 -68t-111.5 -33.5t-101.5 -8.5q-120 0 -204.5 48t-130.5 132.5t-55 200.5 q-3 29 -3 59q0 92 22 195q14 69 41 144t67 148.5t93.5 141t122.5 118t153.5 80.5t184.5 30q70 0 126.5 -18.5t99 -51.5t73.5 -76.5t50 -93.5l42 202h121l-238 -1119q-10 -44 -25 -107t-45 -131t-78 -136.5t-120 -123t-174.5 -88t-239.5 -33.5q-33 0 -76 4.5t-85.5 16.5 t-84 34t-72.5 58.5t-48 88.5q-14 43 -14 99q0 13 1 27zM348 392q4 -59 20.5 -115.5t50 -100.5t88 -72t135.5 -28q74 0 139.5 23.5t119 63t97 91.5t76.5 112t56 123.5t35 123.5q19 90 19 166q0 35 -4 67q-13 101 -55 169.5t-106.5 104t-137.5 35.5q-95 0 -177.5 -42.5 t-150 -118.5t-116 -177t-72.5 -215q-9 -41 -15 -96q-3 -34 -3 -69q0 -23 1 -45z" />
<glyph unicode="h" horiz-adv-x="1355" d="M197 0l358 1685h121l-140 -661q95 111 209 172.5t257 61.5q46 0 93.5 -7t90 -25.5t79 -48.5t59.5 -76q22 -45 27 -109q1 -14 1 -29q0 -53 -14 -119l-178 -844h-122l179 844q11 48 11 90q0 20 -2 38q-8 58 -37 99.5t-83 63.5t-134 22q-44 0 -94.5 -15t-102 -43t-101 -69.5 t-91 -95t-73.5 -119.5t-48 -140l-143 -675h-122z" />
<glyph unicode="i" horiz-adv-x="543" d="M212 0l260 1226h120l-260 -1226h-120zM529 1496l40 189h120l-40 -189h-120z" />
<glyph unicode="j" horiz-adv-x="547" d="M-84 -483l21 104h14q56 0 92.5 4.5t60 23.5t40 55.5t29.5 101.5l302 1420h121l-304 -1436q-12 -49 -29 -98.5t-50.5 -88t-90 -62.5t-148.5 -24q-23 0 -35 -1q-13 -2 -23 1zM532 1496l41 189h121l-40 -189h-122z" />
<glyph unicode="k" horiz-adv-x="1224" d="M197 0l362 1702h122l-239 -1123l775 647h154l-539 -448l328 -778h-146l-279 699l-325 -269l-91 -430h-122z" />
<glyph unicode="l" horiz-adv-x="543" d="M212 0l357 1685h120l-357 -1685h-120z" />
<glyph unicode="m" horiz-adv-x="2003" d="M197 0l261 1226h121l-41 -199q84 106 194 164q109 59 243 59q89 0 144 -23t86 -58t42 -76.5t14 -78.5q52 67 105 112t108 73t111.5 39.5t113.5 11.5q38 0 80.5 -6t81.5 -21.5t71.5 -44t52.5 -74.5t24 -112q1 -11 0 -22q0 -58 -16 -132l-177 -838h-120l170 807 q16 69 18 131v12q0 54 -18 96q-20 46 -65.5 72.5t-127.5 26.5q-54 0 -105.5 -17.5t-99 -49t-89 -73t-73.5 -89t-55 -96.5q-23 -48 -33 -94l-154 -726h-120l180 849q6 29 10 62.5t2 67t-12 64.5t-31.5 54.5t-57 38t-88.5 14.5q-39 0 -84.5 -12.5t-94.5 -38t-96 -66.5 t-89 -97.5t-75 -130t-53 -164.5l-136 -641h-122z" />
<glyph unicode="n" horiz-adv-x="1355" d="M197 0l261 1226h121l-38 -185q94 103 211 161t265 58q45 0 91.5 -7t88 -25t76 -49t54.5 -77q21 -46 25 -110q1 -13 0 -26q0 -55 -14 -122l-178 -844h-122l176 829q12 59 12 108q0 83 -35 137q-56 86 -209 87q-34 0 -81 -10.5t-98.5 -35t-104 -62.5t-98 -90t-81.5 -120 t-53 -154l-147 -689h-122z" />
<glyph unicode="o" horiz-adv-x="1355" d="M237 456q2 78 19 159q16 77 47.5 155.5t77 150t103.5 134t129.5 107.5t155 71.5t178.5 26.5t168 -26.5t124.5 -71.5t84 -107.5t46.5 -134.5q12 -61 12 -126v-24q-2 -78 -21 -155q-17 -80 -47 -158.5t-75 -151t-103 -134t-129.5 -107t-154.5 -71.5t-178 -26t-168.5 26 t-125 71.5t-84.5 107.5t-47 134q-12 63 -12 131v19zM362 508q-1 -20 0 -40q0 -40 4 -80q7 -61 27 -118t59.5 -102t99 -71.5t143.5 -26.5t155 26.5t128 71.5t102 102t77.5 118t53 119.5t30.5 107.5t15 108q2 25 2 49q0 35 -4 70q-7 60 -26.5 117.5t-58 102.5t-98 71.5 t-144.5 26.5t-156.5 -26.5t-128.5 -71.5t-102 -102.5t-77.5 -117.5t-53.5 -119t-31 -108q-12 -49 -16 -107z" />
<glyph unicode="p" horiz-adv-x="1355" d="M99 -459l359 1685h120l-43 -205q43 50 91 94.5t103.5 77.5t120 52t137.5 19q100 0 171.5 -30t118.5 -80.5t72 -118t35 -141.5q5 -45 5 -91q0 -29 -2 -58q-6 -76 -20 -143q-30 -137 -88 -253.5t-141 -201t-187 -132.5t-225 -48q-47 0 -97 8.5t-98 33.5t-90 68t-72 113 l-139 -649h-131zM434 490q-1 -22 -1 -42q0 -42 5 -80q8 -59 29 -112t58 -92.5t91.5 -62t129.5 -22.5q82 0 148 27t118.5 71.5t92.5 101t69 115t46.5 113t26.5 95.5q20 94 20 178q0 19 -1 38q-6 100 -42 174.5t-102.5 117.5t-161.5 43q-42 0 -90.5 -16t-99.5 -46.5 t-100 -75.5t-91.5 -105.5t-76 -134.5t-52.5 -162q-12 -60 -16 -123z" />
<glyph unicode="q" horiz-adv-x="1355" d="M226 348q-3 29 -3 59q0 92 22 195q14 69 41 144t67 148.5t93.5 141t122.5 118t153.5 80.5t184.5 30q73 0 128.5 -19t97 -52t71 -77.5t52.5 -94.5l42 205h121l-358 -1685h-131l138 649q-60 -70 -120.5 -113t-118.5 -68t-111.5 -33.5t-101.5 -8.5q-120 0 -204.5 48 t-130.5 132.5t-55 200.5zM348 394q4 -59 20.5 -115.5t50 -101t88 -71.5t135.5 -27q74 0 139.5 22.5t119 62t97 92.5t76.5 111.5t56 122t35 123.5q18 82 18 151q0 6 -1 11q-1 74 -19 134.5t-48 105.5t-66.5 75.5t-79 46.5t-84.5 16q-97 0 -180.5 -43t-151 -117.5t-116 -175.5 t-72.5 -215q-9 -41 -15 -96q-3 -33 -3 -68q0 -22 1 -44z" />
<glyph unicode="r" horiz-adv-x="796" d="M202 0l258 1226h118l-49 -226q52 70 109.5 120t118.5 80.5t122.5 45t118.5 14.5h12.5t10.5 -2l-23 -107h-51q-56 0 -109.5 -20.5t-103.5 -56.5t-94 -82.5t-79 -98t-59 -105t-34 -103.5l-146 -685h-120z" />
<glyph unicode="s" horiz-adv-x="1224" d="M190 276q2 44 6 82h120q-3 -29 -3 -62t8.5 -66t27.5 -63t54.5 -53.5t90.5 -37t133.5 -13.5t149 19.5t126 54.5t92.5 84t50 109q8 36 8 66q-1 6 -1 14q-2 36 -28 66t-81.5 53.5t-150.5 45.5l-229 51q-61 13 -107 34.5t-73.5 55t-36.5 82.5q-3 18 -3 39q0 35 9 77 q18 88 69 153.5t121.5 108t156 63.5t173.5 21q95 0 160.5 -18.5t108.5 -49.5t66 -69t33 -76.5t11 -73.5t-3 -59h-120q3 24 3 51t-8.5 54.5t-26.5 53t-51.5 45t-84.5 31t-122 11.5q-40 0 -95 -11t-108.5 -38t-97.5 -74t-59 -119q-9 -41 -5.5 -72t27 -55.5t70 -43.5t125.5 -36 l196 -42q94 -20 155 -50.5t92 -72.5q32 -40 38 -94q2 -15 1 -32q0 -41 -10 -90q-17 -83 -67 -150t-123 -115.5t-165.5 -75t-192.5 -26.5q-108 0 -183.5 18.5t-124 50t-74 72t-37.5 84.5q-10 39 -10 78v10z" />
<glyph unicode="t" horiz-adv-x="704" d="M309 133.5q0 43.5 11 95.5l192 899h-192l22 98h190l71 341h122l-73 -341h215l-22 -98h-213l-192 -902q-10 -47 -1 -73.5t29 -38.5t46.5 -13.5t51.5 -1.5h60l-21 -102q-49 -6 -77 -6h-43q-66 0 -104 18t-55 49.5t-17 75z" />
<glyph unicode="u" horiz-adv-x="1355" d="M264 233q-1 13 0 28q0 54 13 121l181 844h120l-176 -830q-13 -60 -12 -110q0 -82 34 -136q56 -87 211 -87q34 0 81.5 11.5t99 35.5t103.5 62t97 90.5t81 120t54 152.5l147 691h121l-259 -1226h-122l39 187q-95 -103 -213 -162t-265 -59q-46 0 -92.5 7t-87.5 25 t-75.5 48.5t-55 76.5t-24.5 110z" />
<glyph unicode="v" horiz-adv-x="1224" d="M345 1224h135l162 -1108l622 1108h136l-698 -1223h-171z" />
<glyph unicode="w" horiz-adv-x="1744" d="M337 1226h133l63 -1109l517 1109h166l44 -1106l533 1106h136l-608 -1226h-174l-44 1085l-505 -1085h-175q-11 156 -22 308t-21.5 304.5t-21.5 305t-21 308.5z" />
<glyph unicode="x" horiz-adv-x="1224" d="M103 1l568 611l-308 612h140l261 -515l477 515h140l-567 -609l307 -614h-140l-259 512l-477 -512h-142z" />
<glyph unicode="y" horiz-adv-x="1224" d="M72 -492l22 106q26 -6 60.5 -9.5t66 -3.5t56.5 4.5t46.5 16.5t43 34t46.5 58.5t55 89t70 126.5l-212 1296h140l165 -1156l643 1156h140l-841 -1452q-37 -63 -68.5 -108t-60.5 -75.5t-58.5 -49.5t-64.5 -29t-76.5 -12.5t-92.5 -2.5q-26 0 -44.5 2.5t-35.5 8.5z" />
<glyph unicode="z" horiz-adv-x="1224" d="M117 1l27 129l1059 997h-791l20 97h914l-30 -137l-1047 -988h859l-20 -98h-991z" />
<glyph unicode="{" horiz-adv-x="783" d="M237 566l22 105q41 5 81 31t74.5 67.5t61.5 96.5t40 119l90 424q15 67 45 119t67.5 88.5t82 55t86.5 18.5h140l-26 -117h-84q-38 0 -65.5 -15.5t-48.5 -44.5t-36 -66.5t-23 -82.5l-86 -404q-12 -55 -33.5 -99t-48.5 -80t-57 -63t-59.5 -46.5t-54.5 -32.5t-42 -21 q15 -9 35 -22t40.5 -32t39 -45.5t30 -62.5t13.5 -82.5t-9 -103.5l-86 -402q-8 -44 -10.5 -82t6 -67t29.5 -45.5t58 -16.5h84l-24 -115h-139q-41 0 -77.5 19t-59.5 55.5t-30 88.5q-7 55 7 121l89 419q13 64 10 119.5t-20 98.5t-45.5 69.5t-66.5 33.5z" />
<glyph unicode="|" horiz-adv-x="607" d="M222 -44l376 1771h144l-376 -1771h-144z" />
<glyph unicode="}" horiz-adv-x="783" d="M20 -458l24 115h85q37 0 65 16.5t48.5 45.5t35 68t24.5 81l86 402q18 88 56.5 148t82.5 100.5t86 64.5q45 23 71 35q-15 7 -35 20.5t-40.5 33t-39 46.5t-30 63t-14.5 80t8 99l86 404q9 45 11 82.5t-6.5 66.5t-29.5 44.5t-58 15.5h-84l24 117h140q42 0 77 -18.5t58.5 -55 t30.5 -88.5t-7 -119l-90 -424q-13 -64 -10 -119t20 -96.5t46.5 -67.5t67.5 -31l-23 -105q-40 -7 -80 -33.5t-75 -69.5t-62 -98.5t-41 -119.5l-89 -419q-14 -68 -44 -120.5t-69 -89t-81.5 -55.5t-85.5 -19h-139z" />
<glyph unicode="~" horiz-adv-x="1368" d="M270 552q27 36 60 70t72.5 62t87.5 44.5t103 16.5q63 0 122.5 -21.5t119.5 -49.5q83 -43 137.5 -64.5t84.5 -21.5q37 0 70 13.5t62 35.5t57 51.5t55 60.5l49 -114q-34 -40 -71.5 -76t-78 -62.5t-85.5 -41.5q-43 -15 -88 -15q-32 0 -60.5 6t-55 16.5t-53 24t-53.5 29.5 q-24 15 -51.5 30t-59.5 26t-67 18.5t-75 7.5q-37 0 -70.5 -13.5t-63 -36t-54 -51t-45.5 -58.5z" />
<glyph unicode="&#xa2;" horiz-adv-x="1317" d="M330 -13l203 405q-54 30 -92.5 76.5t-59.5 111t-23 146t20 178.5q37 177 117 303q40 63 95 111t117 80t126 48q65 15 122 15q20 0 48 -2t65 -6l198 395q24 -8 39.5 -13.5t40.5 -12.5l-195 -395q44 -23 75.5 -51t51.5 -63t31 -77t15 -93q-43 -6 -80 -11t-80 -11 q-3 56 -22 99t-57 81l-409 -811q23 -11 43 -14q22 -3 36 -3q53 0 103 18t95 52.5t82 86t63 116.5l156 -15q-40 -89 -95.5 -159t-123 -118t-144.5 -73.5t-160 -25.5q-22 0 -49 2.5t-61 8.5l-208 -405zM527 677.5q18 -96.5 66 -152.5l419 813q-18 3 -35 5.5t-36 2.5 q-66 0 -129 -28t-115.5 -83t-94 -136t-64.5 -187q-29 -138 -11 -234.5z" />
<glyph unicode="&#xa3;" horiz-adv-x="1422" d="M134 124q63 33 122 81t107.5 108t84 131.5t52.5 153.5q16 73 9 177h-220l24 114h185q-8 75 -11.5 125.5t-3.5 87t3 64.5t12 60q23 105 83 189t142 141.5t178.5 88.5t192.5 31q97 0 172 -26.5t126 -77t77 -124.5q24 -74 21 -168q-21 -2 -39 -4t-34.5 -4t-33.5 -3.5 t-36 -4.5q1 69 -14.5 122.5t-50 90.5t-87 56.5t-128.5 19.5t-145.5 -24.5t-124.5 -67t-93.5 -102t-54.5 -129.5q-13 -59 -11.5 -141t17.5 -200h373l-24 -114h-343q7 -37 7 -78.5t-10 -84.5q-9 -37 -29 -91.5t-55.5 -116t-89.5 -124.5t-128 -117q70 20 121 24q49 3 84 3 q48 0 97.5 -10t105.5 -24q95 -26 159 -40t101 -14q43 0 99.5 12.5t123.5 44.5q3 -20 6 -36.5t5.5 -31t5.5 -28.5t6 -33q-49 -20 -87 -32t-68.5 -19.5t-57.5 -9.5t-55 -2q-27 0 -50.5 3t-48.5 8.5t-55.5 15t-73.5 22.5q-68 21 -108 32.5t-66.5 17.5t-42.5 6.5t-36 0.5 q-42 0 -87 -7t-91 -19.5t-91.5 -29.5t-87.5 -37z" />
<glyph unicode="&#xa5;" horiz-adv-x="2009" d="M463 445l25 107h592l34 160l-57 123h-511l25 109h437l-334 741h164l372 -848l733 848h165l-651 -741h413l-24 -109h-485l-107 -123l-34 -160h566l-23 -107h-566l-94 -445h-141l95 445h-594z" />
<glyph unicode="&#xa9;" horiz-adv-x="2006" d="M266 599q-9 116 18.5 243.5t85.5 242.5t138 213t179 178t211.5 135.5t232.5 85.5t242 30q120 0 227 -30t194.5 -85.5t153 -135.5t103.5 -178t46 -213t-18 -243q-27 -127 -84 -243t-137.5 -214.5t-179.5 -178t-210 -135t-231 -85.5t-240 -30q-122 0 -230 30t-196 85.5 t-153.5 135t-104 178t-47.5 214.5zM434 537q26 -139 105 -241t202.5 -159t282.5 -57q101 0 201.5 26t192.5 73.5t174.5 115.5t148 153t113.5 184.5t71 209.5q23 109 18 207.5t-36 183t-84 152.5t-124.5 115t-161.5 73.5t-191 26.5q-106 0 -207 -26.5t-194 -73.5t-174.5 -115 t-146.5 -152.5t-112 -183t-70 -207.5q-34 -166 -8 -305zM734 632q12 -89 56.5 -151.5t119 -96.5t173.5 -34q78 0 149 21.5t130 61t107 95t81 123.5l-117 41q-24 -48 -60 -89.5t-79.5 -71t-93.5 -46t-100 -16.5q-63 0 -111 23t-76 68t-35 113q-9 68 11 156q19 89 55.5 157.5 t86.5 114.5t111 70q62 24 128 24q43 0 78.5 -12.5t63.5 -36t47.5 -56.5t30.5 -72l132 37q-8 55 -32 101.5t-65 80t-98 52t-127 18.5q-103 0 -193 -30t-162.5 -90t-123 -150t-76.5 -208q-23 -108 -11 -197z" />
<glyph unicode="&#xab;" horiz-adv-x="1317" d="M312 603q108 122 214 238t215 237h123l-375 -473l173 -478h-124q-58 122 -113.5 238.5t-112.5 237.5zM784 603q108 122 214 238t216 237h122l-375 -473l174 -478h-124q-57 122 -113.5 238.5t-113.5 237.5z" />
<glyph unicode="&#xad;" horiz-adv-x="1368" d="M316 573l29 138h981l-29 -138h-981z" />
<glyph unicode="&#xae;" horiz-adv-x="2006" d="M266 599q-9 116 18.5 243.5t85.5 242.5t138 213t179 178t211.5 135.5t232.5 85.5t242 30q120 0 227 -30t194.5 -85.5t153 -135.5t103.5 -178t46 -213t-18 -243q-27 -127 -84 -243t-137.5 -214.5t-179.5 -178t-210 -135t-231 -85.5t-240 -30q-122 0 -230 30t-196 85.5 t-153.5 135t-104 178t-47.5 214.5zM434 537q26 -139 105 -241t202.5 -159t282.5 -57q101 0 201.5 26t192.5 73.5t174.5 115.5t148 153t113.5 184.5t71 209.5q23 109 18 207.5t-36 183t-84 152.5t-124.5 115t-161.5 73.5t-191 26.5q-106 0 -207 -26.5t-194 -73.5t-174.5 -115 t-146.5 -152.5t-112 -183t-70 -207.5q-34 -166 -8 -305zM742 339l215 1002h383q179 0 249.5 -65.5t39.5 -214.5q-15 -69 -45.5 -116.5t-73.5 -80.5t-96 -51.5t-111 -26.5q47 -108 95.5 -222.5t95.5 -224.5h-151l-176 442h-192l-93 -442h-140zM1000 895h193q51 0 98 3.5 t86.5 21t68 52.5t43.5 98q11 51 -2.5 82t-43 48t-70 22.5t-83.5 5.5h-219z" />
<glyph unicode="&#xbb;" horiz-adv-x="1317" d="M230 102l373 471l-171 479h123l227 -477l-429 -473h-123zM704 102l371 471l-171 479h124l228 -477l-429 -473h-123z" />
<glyph unicode="&#xbc;" horiz-adv-x="2129" d="M459 0l1560 1685h146l-1559 -1685h-147zM579 1367l14 66q55 16 94 32t70 41.5t57.5 64t52.5 96.5h87l-209 -983h-126l145 683h-185zM1337 229l24 120l597 635h111l-137 -648h114l-23 -107h-114l-49 -229h-118l47 229h-452zM1486 336h326l96 449z" />
<glyph unicode="&#xbd;" horiz-adv-x="2129" d="M388 0l1560 1685h146l-1561 -1685h-145zM579 1367l14 66q55 16 94 32t70 41.5t57.5 64t52.5 96.5h87l-209 -983h-126l145 683h-185zM1310 0q18 74 49 137t82.5 120.5t130 112.5t194.5 113q56 29 100 53.5t75 50t51 56.5t29 72q4 23 0.5 53t-23 57t-55 45.5t-93.5 18.5 q-68 0 -114.5 -24t-75 -60t-44.5 -76t-23 -70h-119q17 76 46.5 130.5t65.5 91.5t75 60.5t77.5 36t74 16.5t62.5 4q67 0 122.5 -20t93 -57t51.5 -90t2 -119q-16 -68 -53.5 -119t-86 -89t-104 -68t-107.5 -56q-86 -45 -140 -82.5t-85.5 -68t-46 -55.5t-21.5 -47h519l-27 -127 h-682z" />
<glyph unicode="&#xbe;" horiz-adv-x="2129" d="M378 815q-12 59 5 132h117q-8 -45 -3 -83.5t25 -67t57 -45t95 -16.5q45 0 89.5 13t81 38.5t61.5 62t35 82.5q11 54 -4.5 91.5t-47 59.5t-71.5 32t-76 10q-13 0 -25 -2t-22 -2l23 107q16 -1 28.5 -2t24.5 -1q40 0 79 10t73 31.5t58 55t34 80.5q6 25 1.5 52t-23 50.5 t-53.5 38.5t-92 15q-60 0 -102 -20.5t-71.5 -52t-46 -68t-25.5 -66.5h-111q8 51 35.5 106.5t74.5 100.5t115 74t161 29q73 0 125 -19t83.5 -53.5t41.5 -81t-1 -103.5q-10 -46 -28.5 -81.5t-43.5 -63.5t-54.5 -48t-60.5 -35q35 -12 63 -33.5t45 -51.5t22 -70t-6 -89 q-12 -54 -43 -107t-83.5 -96t-125.5 -69.5t-167 -26.5q-70 0 -126.5 21.5t-92.5 62t-48 99.5zM531 0l1560 1685h146l-1559 -1685h-147zM1337 229l24 120l597 635h111l-137 -648h114l-23 -107h-114l-49 -229h-118l47 229h-452zM1486 336h326l96 449z" />
<glyph unicode="&#xd7;" horiz-adv-x="1451" d="M296 255l470 387l-303 386l118 96l303 -385l469 386l76 -97l-469 -386l304 -386l-117 -96l-303 386l-472 -387z" />
<glyph unicode="&#xf7;" horiz-adv-x="1458" d="M275 573l28 138h1153l-29 -138h-1152zM629 204q6 31 24 57t41.5 45.5t51.5 30t56 10.5q30 0 53 -11t37.5 -30.5t20 -45t-0.5 -56.5q-5 -25 -21.5 -49.5t-39.5 -45t-51 -32t-58 -11.5q-28 0 -51 10.5t-39 30t-22.5 45t-0.5 52.5zM826.5 1078q-5.5 26 0.5 56q5 30 23 55 t41.5 44.5t51.5 30t57 10.5q30 0 52.5 -10.5t37 -30t20 -44.5t0.5 -55q-6 -29 -22.5 -54t-40 -45.5t-50.5 -32t-57 -11.5q-29 0 -52.5 11.5t-39.5 30.5t-21.5 45z" />
<glyph unicode="&#xe01;" horiz-adv-x="1481" d="M260 0l165 771q7 33 22 69.5t45 73.5q30 33 60.5 54.5t62.5 35.5h-183l33 156q17 84 72.5 143.5t135 97.5t176.5 54q95 16 198 16q113 0 206.5 -14t156.5 -50t90 -96.5t7 -153.5l-246 -1157h-120l242 1140q16 71 0 117t-61 71.5t-118 35.5q-74 10 -172 10 q-94 0 -170.5 -11.5t-134.5 -37t-93.5 -66.5t-48.5 -98l-16 -73h225l-16 -76q-27 -7 -68 -28.5t-87 -66.5q-22 -25 -38 -48.5t-25 -46.5t-14 -42t-8 -32l-158 -748h-120z" />
<glyph unicode="&#xe02;" horiz-adv-x="1319" d="M324.5 1097.5q-8.5 43.5 4.5 95.5q17 77 62 131.5t105 88.5t129.5 50t138.5 16q73 0 135.5 -21.5t105 -63t60.5 -101.5t2 -136q-16 -72 -41 -122.5t-63.5 -96.5t-91.5 -91t-125 -103q-41 -35 -74.5 -65t-60 -60.5t-44.5 -66.5t-26 -82l-46 -215q-10 -48 -8 -78t19 -46.5 t48 -22.5t78 -6h225q50 0 81.5 9t50 28.5t28.5 48.5t18 69l256 1207h119l-267 -1261q-10 -44 -27.5 -81.5t-44 -64.5t-61.5 -42t-79 -15h-442q-51 0 -80 17t-41.5 47t-11 70t9.5 83l54 253q15 63 37.5 110.5t55 86.5t74 75t92.5 75q47 35 91.5 71.5t81 76.5t63 87.5 t37.5 107.5q9 41 2.5 74.5t-23.5 58.5t-43 43t-56 27.5t-60.5 11t-59.5 -4.5q32 -16 50.5 -37.5t27 -45t9.5 -48.5q0 -26 -4 -49q-11 -49 -37 -91t-62.5 -73.5t-81.5 -50t-93 -18.5q-55 -2 -95.5 15.5t-66.5 49.5t-34.5 75.5zM435.5 1178.5q-6.5 -31.5 1.5 -58t31.5 -44.5 t64.5 -18q42 0 73.5 18t50 44.5t25.5 58t-0.5 58.5t-31.5 45t-65 18q-42 0 -73.5 -18t-50.5 -45t-25.5 -58.5z" />
<glyph unicode="&#xe03;" horiz-adv-x="1358" d="M331.5 1059q-8.5 41 0.5 94q11 65 42.5 122.5t79.5 101.5t108.5 69t132.5 25q49 0 84 -10.5t58.5 -27t39 -35.5t27.5 -37q3 6 20.5 24t42 38t52.5 34t53 10q28 -3 46.5 -21.5t27.5 -51.5t9 -78t-12 -98q-16 -74 -44 -135t-71.5 -116.5t-102 -110.5t-136.5 -117 q-40 -31 -74 -60.5t-61.5 -61t-46.5 -68t-29 -79.5l-47 -227q-10 -49 -7.5 -76.5t20 -42.5t48.5 -19.5t79 -4.5h224q46 0 76.5 10t50.5 30t31 48.5t19 66.5l258 1209h120l-262 -1232q-23 -110 -76.5 -171t-140.5 -61h-442q-49 0 -77.5 18.5t-41 51t-12 75t10.5 90.5l50 235 q14 63 37 109t55 83t73 71.5t92 75.5q56 45 107 90.5t92.5 95t70 104.5t42.5 118q10 49 6.5 81t-24.5 32q-13 0 -31.5 -11.5t-37.5 -28.5t-36.5 -37t-30.5 -36q-20 41 -48 71t-63 49t-76 23t-85 -7q30 -6 58 -20.5t48 -38.5t28.5 -61.5t-1.5 -88.5q-11 -50 -35.5 -89.5 t-56.5 -66.5t-71.5 -40.5t-79.5 -13.5q-42 0 -74.5 14t-55 42t-31 69zM436 1092q6 -25 24 -42q20 -18 52 -18q33 0 58 17.5t41.5 42.5t23 54t0.5 55t-24.5 42.5t-51.5 16.5q-34 0 -60 -16.5t-41.5 -42.5t-21.5 -55t0 -54z" />
<glyph unicode="&#xe04;" horiz-adv-x="1535" d="M217 0l245 1155q13 61 43.5 108t75 81.5t101 59.5t121 40t134.5 21t141 6q76 0 145.5 -5.5t128 -19t105 -37t75 -59.5t38 -84.5t-5.5 -112.5l-244 -1153h-120l243 1140q14 68 -7.5 112t-72 69.5t-128.5 35.5t-178 10q-113 0 -197 -14.5t-142.5 -43t-92 -70.5t-44.5 -99 l-111 -509l-54 -256q22 41 44.5 82t44 78t41 69t35.5 57q24 40 49 81.5t53 81.5t59.5 75.5t68 63t78.5 43.5t91 16q54 0 94 -16t64.5 -45.5t32 -70.5t-2.5 -91q-13 -61 -42 -106t-67 -74.5t-82.5 -43.5t-87.5 -14q-27 0 -52 6t-48 18.5t-41.5 32.5t-29.5 47q-30 -42 -55 -79 t-52.5 -80t-58.5 -99.5t-74 -136.5q-36 -66 -67 -135t-55 -135h-139zM812 748.5q3 -20.5 14.5 -37t31.5 -27t50 -10.5t54.5 10.5t43 27t30 38t16.5 42.5q5 23 2 44t-14.5 38t-31.5 27.5t-50 10.5t-54.5 -10.5t-43 -27.5t-30.5 -38t-16 -44q-5 -23 -2 -43.5z" />
<glyph unicode="&#xe05;" horiz-adv-x="1535" d="M217 0l243 1151q3 16 12.5 41.5t26.5 56.5t45.5 64.5t71.5 67.5q36 28 74 45t72.5 26t60.5 13.5t41 4.5h4l170 -166l256 167q79 0 136 -27t91.5 -73.5t44.5 -105t-3 -121.5l-243 -1144h-120l243 1140q10 45 4 86t-26 70.5t-52.5 45.5t-78.5 16l-278 -178l-193 170 q-45 1 -86 -17.5t-72.5 -49t-53 -70t-29.5 -78.5l-162 -760q22 41 44.5 82t44 78t41 69t35.5 57q24 40 49 81.5t53 81.5t59.5 75.5t68 63t78.5 43.5t91 16q54 0 94 -16t64.5 -45.5t32 -70.5t-2.5 -91q-13 -61 -42 -106t-67 -74.5t-82.5 -43.5t-87.5 -14q-27 0 -52 6 t-48 18.5t-41.5 32.5t-29.5 47q-30 -42 -55 -79t-52.5 -80t-58.5 -99.5t-74 -136.5q-36 -66 -67 -135t-55 -135h-139zM812 748.5q3 -20.5 14.5 -37t31.5 -27t50 -10.5t54.5 10.5t43 27t30 38t16.5 42.5q5 23 2 44t-14.5 38t-31.5 27.5t-50 10.5t-54.5 -10.5t-43 -27.5 t-30.5 -38t-16 -44q-5 -23 -2 -43.5z" />
<glyph unicode="&#xe06;" horiz-adv-x="1638" d="M269.5 159.5q-9.5 62.5 9.5 145.5q16 74 43 130.5t60.5 96.5t69.5 66.5t70 43.5q37 19 84.5 29.5t107.5 13.5l21 104q11 53 40.5 93t71.5 82q28 28 59.5 62.5t58.5 69.5t47 69.5t26 61.5q10 49 1.5 76t-29.5 27q-13 0 -31.5 -11.5t-37.5 -28.5t-36.5 -37t-30.5 -36 q-20 41 -48 71t-63 49t-76 23t-85 -7q30 -6 58 -20.5t48 -38.5t28.5 -61.5t-1.5 -88.5q-11 -50 -35.5 -89.5t-56.5 -66.5t-71.5 -40.5t-79.5 -13.5q-42 0 -74.5 14t-55 42t-31 69t0.5 94q11 65 42.5 122.5t79.5 101.5t108.5 69t132.5 25q49 0 84 -10.5t58.5 -27t39 -35.5 t27.5 -37q3 6 20.5 24t42 38t52.5 34t53 10q28 -3 48.5 -19.5t32 -46.5t13.5 -71.5t-9 -95.5q-9 -37 -26.5 -72t-40.5 -68.5t-50.5 -66t-52.5 -62.5q-23 -25 -45.5 -50.5t-40 -48t-31 -45.5t-18.5 -47l-20 -90q12 -2 39.5 -5.5t65 -13t81 -27t85.5 -46.5q54 -37 94.5 -81.5 t70.5 -90t51.5 -88.5t34.5 -79l258 1211h118l-311 -1464h-125q-1 31 -9.5 82t-30 112t-60.5 126.5t-101 129.5q-49 49 -98.5 75t-90 37t-66.5 12t-29 1l-77 -369q-10 -43 -29 -81.5t-48.5 -68.5t-69.5 -48.5t-90 -23.5q-60 -4 -109 14.5t-78 58.5t-38.5 102.5zM382.5 221 q0.5 -41 13 -71t35 -48t57.5 -18q31 0 53 11.5t36.5 30t23 41.5t12.5 46l76 360q-67 2 -117.5 -21.5t-88 -62.5t-59.5 -87.5t-32 -94t-9.5 -86.5zM436 1092q6 -25 24 -42q20 -18 52 -18q33 0 58 17.5t41.5 42.5t23 54t0.5 55t-24.5 42.5t-51.5 16.5q-34 0 -60 -16.5 t-41.5 -42.5t-21.5 -55t0 -54z" />
<glyph unicode="&#xe07;" horiz-adv-x="1141" d="M309 869l109 75l185 -754q13 -50 39.5 -73t61.5 -23q22 0 44.5 4.5t41 17.5t33 35t22.5 58l176 832q-19 -9 -34 -14t-28.5 -7.5t-25.5 -4t-26 -3.5q-49 -1 -90 14t-68.5 43.5t-38.5 69.5t-1 89q12 52 39 96.5t66.5 75.5t86 49t94.5 18q55 0 94 -18t63.5 -50t32.5 -75.5 t-4 -95.5l-217 -1025q-23 -111 -92.5 -162t-175.5 -52q-44 -2 -79 9t-60.5 31t-42 48.5t-25.5 64.5zM828.5 1237.5q-6.5 -30.5 1.5 -56.5t30 -43t61 -17q40 0 70 17t48.5 43t25 56.5t-1.5 56.5t-30 44t-62 18t-69.5 -18t-48 -44t-25 -56.5z" />
<glyph unicode="&#xe08;" horiz-adv-x="1338" d="M349.5 661q-9.5 40 0.5 85q10 49 37.5 90.5t66 71.5t85.5 46.5t96 15.5q54 -2 92 -18.5t62.5 -45.5t33.5 -70t6 -92l-37 -538q-3 -33 4.5 -54.5t22.5 -33.5t35 -16.5t44 -4.5q63 0 97.5 25t46.5 84l194 915q15 70 3 117.5t-53 75t-112.5 39t-174.5 14.5q-85 2 -157.5 -11 t-126.5 -39t-88.5 -64.5t-46.5 -89.5l-8 -43h-120l8 40q18 84 69 143.5t126.5 97.5t169.5 54t199 16q113 0 203 -15.5t148.5 -53.5t82 -100t3.5 -157l-201 -945q-13 -60 -41 -100.5t-65 -63.5t-82 -33t-94 -12q-103 -1 -156 48.5t-48 140.5l24 408q-26 -20 -50.5 -31.5 t-47 -18t-42 -8.5t-35.5 -2q-45 0 -81.5 17t-59.5 46.5t-32.5 69.5zM464 751q-6 -30 1.5 -56t30 -44t60.5 -18q40 0 70 18t49 44t25 56t-1.5 55.5t-30 43.5t-62.5 18t-69 -18t-48 -43.5t-25 -55.5z" />
<glyph unicode="&#xe09;" horiz-adv-x="1531" d="M252 590q-10 41 0 88q11 54 39.5 97t67.5 74.5t84.5 48t94.5 16.5q54 0 93.5 -18.5t63.5 -51t31.5 -76.5t-2.5 -97l-106 -491q61 59 125 101t126.5 74.5t122.5 57.5t116 50q70 32 114.5 70t69.5 73t36.5 64t14.5 48l90 422q16 74 -9 118.5t-81 68t-135.5 30.5t-170.5 7 q-95 0 -175 -10t-140.5 -33t-98.5 -60t-50 -91l-12 -57h-123l10 47q18 86 72.5 145t135 96.5t183.5 53.5t221 16q75 0 145.5 -5t130.5 -19t107 -37.5t77 -59.5t40 -84.5t-4 -114.5l-93 -437q-16 -72 -63 -143.5t-126 -121.5q56 -1 94.5 -20t61.5 -50.5t28.5 -72t-2.5 -84.5 q-12 -56 -39 -99.5t-63.5 -74.5t-83 -47.5t-95.5 -14.5q-50 1 -87 18t-60 46.5t-30.5 69.5t2.5 89q4 20 15.5 52t44.5 75q-72 -26 -142.5 -62.5t-132 -80.5t-111 -93t-81.5 -100h-133l105 492q-37 -22 -68.5 -29t-54.5 -7q-49 0 -89 16.5t-65.5 46.5t-35.5 71zM366 639.5 q3 -21.5 13.5 -38t30.5 -26t50 -9.5t54 9.5t42.5 26t30.5 38t16 44.5q5 21 2 41.5t-13.5 37t-30.5 26.5t-50 10q-31 0 -55 -10t-42 -26.5t-30 -37.5t-16 -41q-5 -23 -2 -44.5zM1118.5 158.5q5.5 -28.5 25.5 -47.5t57 -19t66.5 19t48 47.5t25 62.5t1 61.5t-27 47t-59 19.5 t-66 -19.5t-46.5 -47t-24 -61.5t-0.5 -62.5z" />
<glyph unicode="&#xe0a;" horiz-adv-x="1381" d="M324.5 1097.5q-8.5 43.5 4.5 95.5q17 77 62 131.5t105 88.5t129.5 50t138.5 16q73 0 135.5 -21.5t105 -63t61 -101.5t1.5 -136q-16 -72 -41 -122.5t-63.5 -95t-91.5 -89.5q-53 -46 -123 -104q-42 -34 -75.5 -62t-59 -57t-43.5 -65t-29 -89l-48 -221q-8 -43 -6 -70.5 t17 -43.5t42 -22.5t67 -6.5h306q49 0 80 10t49.5 28.5t29 45.5t17.5 63l153 719q5 23 7 55t-5 63.5t-27 56.5t-60 35q2 26 3.5 42t4.5 36q56 13 103 41.5t84.5 69t62.5 90.5t38 106l17 85h116l-18 -82q-27 -127 -98.5 -216t-189.5 -134q41 -25 61 -57t26.5 -65.5t3.5 -65.5 q-3 -34 -8 -60l-158 -736q-24 -116 -85.5 -177.5t-175.5 -61.5h-412q-65 0 -102.5 18t-55.5 51t-19 78t12 100l47 226q13 60 36.5 107.5t57.5 88t76 77t94 75.5q47 36 90.5 71.5t79 75t61.5 86t37 106.5q9 41 2.5 74.5t-23.5 58.5t-43 43t-56 27.5t-60.5 11t-59.5 -4.5 q32 -16 50.5 -37.5t27 -45t9.5 -48.5q0 -26 -4 -49q-11 -49 -37 -91t-62.5 -73.5t-81.5 -50t-93 -18.5q-55 -2 -95.5 15.5t-66.5 49.5t-34.5 75.5zM435.5 1178.5q-6.5 -31.5 1.5 -58t31.5 -44.5t64.5 -18q42 0 73.5 18t50 44.5t25.5 58t-0.5 58.5t-31.5 45t-65 18 q-42 0 -73.5 -18t-50.5 -45t-25.5 -58.5z" />
<glyph unicode="&#xe0b;" horiz-adv-x="1419" d="M331.5 1059q-8.5 41 0.5 94q11 65 42.5 122.5t79.5 101.5t108.5 69t132.5 25q49 0 84 -10.5t58.5 -27t39 -35.5t27.5 -37q3 6 20.5 24t42 38t52.5 34t53 10q28 -3 46.5 -21.5t27.5 -51.5t9 -78t-12 -98q-16 -74 -44 -135t-71 -117.5t-102 -110.5t-137 -116 q-40 -31 -74 -60.5t-61.5 -61.5t-46.5 -68t-28 -79l-47 -218q-9 -43 -6 -70.5t18 -43.5t42 -22.5t66 -6.5h308q48 0 79 10t49.5 28.5t28.5 45.5t17 63l154 719q5 23 7 55t-6 63.5t-28 56.5t-58 35q2 26 3 42t4 36q56 13 103 41.5t84 69t63 90.5q27 50 39 106l17 85h116 l-18 -82q-27 -127 -98.5 -216t-189.5 -134q41 -25 61 -57t26 -65.5t3 -65.5q-3 -34 -9 -60l-157 -736q-24 -116 -85 -177.5t-175 -61.5h-414q-64 0 -102 18t-55 51t-18 78t11 100l47 223q14 63 37 109t55 83t73 71.5t92 75.5q56 45 107 90.5t92.5 95t70 104.5t42.5 118 q10 49 6.5 81t-24.5 32q-13 0 -31.5 -11.5t-37.5 -28.5t-36.5 -37t-30.5 -36q-20 41 -48 71t-63 49t-76 23t-85 -7q30 -6 58 -20.5t48 -38.5t28.5 -61.5t-1.5 -88.5q-11 -50 -35.5 -89.5t-56.5 -66.5t-71.5 -40.5t-79.5 -13.5q-42 0 -74.5 14t-55 42t-31 69zM436 1092 q6 -25 24 -42q20 -18 52 -18q33 0 58 17.5t41.5 42.5t23 54t0.5 55t-24.5 42.5t-51.5 16.5q-34 0 -60 -16.5t-41.5 -42.5t-21.5 -55t0 -54z" />
<glyph unicode="&#xe0c;" horiz-adv-x="1989" d="M287.5 142.5q-7.5 46.5 4.5 99.5l111 529q7 33 23 69.5t46 73.5q30 33 60.5 54.5t62.5 35.5h-183l33 156q17 84 67.5 143.5t125 97.5t166 54t193.5 16q113 0 200 -16t141.5 -54t75 -99.5t2.5 -151.5l-103 -486q-9 -39 -2.5 -70t21.5 -56t38 -45t49.5 -37.5t51.5 -32.5 t48 -31q20 -14 44 -29.5t48.5 -33t48 -39t42.5 -45.5l259 1219h120l-311 -1464h-123q2 41 -5 74q-9 32 -23 66q-12 24 -34.5 48.5t-52.5 49t-66 48.5t-75 47q9 -17 12.5 -36.5t3 -35.5t-3 -30.5t-3.5 -21.5q-11 -50 -37 -91t-63 -70t-81.5 -45t-93.5 -16q-55 0 -94 19.5 t-61 51t-28.5 72t3.5 83.5q12 52 35.5 95.5t60 77t83.5 55.5t103 31q-20 23 -29.5 50t-11.5 53.5t1 50t6 40.5l101 474q13 61 3.5 105.5t-46.5 73t-103.5 42t-165.5 13.5q-94 0 -167 -11.5t-124.5 -37t-83 -66.5t-44.5 -99l-14 -72h225l-18 -76q-27 -7 -67.5 -28.5 t-86.5 -66.5q-23 -25 -38 -48.5t-24 -46.5t-14 -42t-8 -32l-73 -346q33 20 68 28t60 8q49 0 87.5 -16t63 -46t33.5 -70.5t-1 -92.5q-11 -49 -38 -90t-66 -72t-84 -48t-92 -17q-54 0 -94 20t-63.5 55t-31 81.5zM408.5 214.5q-6.5 -30.5 0.5 -56.5t30 -43.5t63 -17.5 t69.5 17.5t48 43.5t25 56.5t-1.5 56.5t-31 43.5t-61 17.5q-40 0 -69.5 -17.5t-48 -43.5t-25 -56.5zM1064.5 161q6.5 -28 27.5 -47.5t58 -19.5t65.5 19.5t47 47.5t25 61.5t1 62t-26.5 48t-58 19.5t-65.5 -19.5t-48 -48t-26 -62t0 -61.5z" />
<glyph unicode="&#xe0d;" horiz-adv-x="2019" d="M287.5 142.5q-7.5 46.5 4.5 99.5l111 529q7 33 22 70t47 73q30 34 60.5 55t62.5 35h-183l33 156q17 84 69 143.5t126.5 97.5t167.5 54t194 16q113 0 200.5 -16t144 -54t78 -99.5t2.5 -151.5l-187 -883q-10 -44 -10 -75.5t11.5 -51.5t37 -30t68.5 -10h209q48 0 79.5 13 t51 35t31 53t18.5 66l255 1197h120l-256 -1201q-12 -49 -29.5 -96t-48.5 -84t-76 -60t-109 -23h-315q-66 0 -102.5 23t-52 60t-15 83.5t10.5 92.5l188 881q12 61 1.5 105.5t-49 73t-107 42t-170.5 13.5q-92 0 -164 -12t-124 -37t-84.5 -66t-45.5 -99l-14 -72h225l-18 -76 q-27 -7 -68.5 -28.5t-85.5 -66.5q-24 -25 -38.5 -48.5t-23.5 -46.5t-14 -42t-8 -32l-73 -346q33 20 68 28t60 8q49 0 87.5 -16t63 -46t33.5 -70.5t-1 -92.5q-11 -49 -38 -90t-66 -72t-84 -48t-92 -17q-54 0 -94 20t-63.5 55t-31 81.5zM408.5 214.5q-6.5 -30.5 0.5 -56.5 t30 -43.5t63 -17.5t69.5 17.5t48 43.5t25 56.5t-1.5 56.5t-31 43.5t-61 17.5q-40 0 -69.5 -17.5t-48 -43.5t-25 -56.5zM928 -332q10 46 33.5 83t57 63.5t74 40t82.5 13.5q45 0 78 -14t53.5 -40t26 -61t-2.5 -78q-6 -30 -20 -55.5t-34 -45.5t-45.5 -34.5t-52.5 -22.5 q52 -12 93.5 -10.5t64.5 5.5q77 12 131.5 40t93 68t60.5 90q23 50 35 106l6 32h105l-11 -50q-17 -84 -60.5 -155t-108 -122.5t-149 -79t-184.5 -27.5q-69 0 -134 12.5t-112.5 43t-71.5 79t-8 119.5zM1035.5 -324q-5.5 -25 0.5 -46.5t24 -35.5t50 -14q33 0 58 14t40.5 35.5 t21.5 46.5t0 46.5t-24.5 36t-50.5 14.5t-57.5 -14.5t-41 -36t-21 -46.5z" />
<glyph unicode="&#xe0e;" horiz-adv-x="1663" d="M136.5 129.5q-7.5 40.5 2.5 86.5q11 51 39 92.5t66 71t83 46t91 16.5q62 0 114 -32l77 361q7 33 21.5 70t45.5 73q30 34 61 55t62 35h-183l33 156q17 84 71.5 143.5t132.5 97.5t175 54t202 16q117 0 211.5 -14t156 -50t85.5 -96.5t6 -155.5l-326 -1531q-9 -40 -28 -81 t-48.5 -73t-68 -52t-87.5 -20q-23 0 -56.5 9.5t-70.5 43.5q-29 27 -59 54t-60 52t-60 45t-59 35q-74 -125 -164.5 -182.5t-191.5 -60.5q-48 -2 -89 11.5t-68.5 39.5t-40.5 61.5t-3 80.5q11 57 44 98.5t77.5 68.5t96.5 40t104 13q37 0 69 -4.5t58 -10t43 -12t23 -7.5 q15 28 25 58l20 60h115q-7 -31 -23 -74t-36 -79q34 -13 68 -33.5t64 -42t57 -45t47 -43.5q17 -16 40.5 -33t51.5 -17q18 0 34 10t28 25t19 34t12 37l318 1504q15 69 0 114t-60 72.5t-118 39t-175 11.5q-91 0 -167.5 -12t-134 -37t-93 -65t-47.5 -97l-15 -72h224l-17 -76 q-27 -7 -68 -28.5t-86 -66.5q-25 -25 -39 -48.5t-23.5 -46.5t-14.5 -42t-8 -32l-109 -512q-12 -56 -40 -101t-68 -77t-89.5 -49.5t-102.5 -17.5q-48 0 -86 18t-60.5 49t-30 71.5zM250.5 217q-5.5 -30 1.5 -56.5t29 -44t62 -17.5t70 17.5t48.5 44t25 56.5t-1 56.5t-30.5 44 t-62 17.5q-40 0 -69 -17.5t-48.5 -44t-25 -56.5zM326 -409q-4 -26 3.5 -43t23.5 -29t37.5 -18t42.5 -6q40 0 76.5 17.5t66.5 43t54.5 56t38.5 58.5q-93 33 -164 33q-26 0 -55.5 -6.5t-55 -20t-44 -35t-24.5 -50.5z" />
<glyph unicode="&#xe0f;" horiz-adv-x="1663" d="M123 -409q11 56 45 96.5t77.5 68t93.5 41t99 13.5q27 0 49 -2t43 -5t40 -7.5t42 -11.5q6 14 12.5 33.5t12 41t10.5 41.5t8 37h120q-1 -11 -7 -32.5t-14 -49t-18 -56t-22 -52.5q11 -9 26.5 -24t33 -34t34 -42t27.5 -46l226 255l170 -292l333 1570q15 69 0 114t-60 72.5 t-118 39t-175 11.5q-91 0 -167.5 -12t-134 -37t-93 -65t-47.5 -97l-15 -72h224l-17 -76q-27 -7 -68 -28.5t-86 -66.5q-25 -25 -39 -48.5t-23.5 -46.5t-14.5 -42t-8 -32l-109 -512q-12 -56 -40 -101t-68 -77t-89.5 -49.5t-102.5 -17.5q-48 0 -86 18t-60.5 49t-30 71.5 t2.5 86.5q11 51 39 92.5t66 71t83 46t91 16.5q62 0 114 -32l77 361q7 33 21.5 70t45.5 73q30 34 61 55t62 35h-183l33 156q17 84 71.5 143.5t132.5 97.5t175 54t202 16q117 0 211.5 -14t156 -50t85.5 -96.5t6 -155.5l-346 -1624q-5 -23 -15.5 -45t-27 -39.5t-37.5 -27.5 q-22 -11 -45 -11q-23 1 -39 18.5t-29 42.5l-116 219l-225 -254q-10 25 -25.5 54t-35.5 58t-41 55t-41 44q-27 -63 -66 -110t-85 -77.5t-95.5 -46.5t-97.5 -16q-49 0 -89.5 13.5t-68 38.5t-39.5 61.5t-2 82.5zM235 -409q-3 -20 1 -38t17.5 -31.5t36 -22t50.5 -8.5 q42 0 77.5 16.5t65.5 43t53 63t39 76.5q-17 8 -38.5 14t-42.5 8.5t-40 3.5t-34 1q-27 0 -57.5 -6.5t-57 -21.5t-46 -39.5t-24.5 -58.5zM250.5 217q-5.5 -30 1.5 -56.5t29 -44t62 -17.5t70 17.5t48.5 44t25 56.5t-1 56.5t-30.5 44t-62 17.5q-40 0 -69 -17.5t-48.5 -44 t-25 -56.5z" />
<glyph unicode="&#xe10;" horiz-adv-x="1355" d="M-116 -445q-10 -44 1.5 -77.5t35 -56.5t56 -35t64.5 -12q28 0 60 6.5t64 23.5t63 48.5t55 82.5l79 -167h18q30 39 61 77.5t61 76.5q36 -88 94.5 -127.5t141.5 -39.5q64 0 121.5 31t104 79.5t77.5 110t44 122.5q9 40 6 78t-20 67.5t-50 47t-86 17.5q-37 0 -74 -15 t-68 -40.5t-53 -60t-29 -74.5q-7 -37 1.5 -67.5t29 -54.5t51.5 -37.5t68 -13.5q14 0 29 2.5t31 7.5q-23 -28 -44.5 -47.5t-42 -31t-40.5 -16.5t-38 -5q-51 0 -86 23.5t-60 61t-41 81t-28 83.5q-35 -44 -71.5 -90t-71.5 -92l-61 122q23 51 41 102t31 100h-97 q-7 -32 -21 -73.5t-26 -74.5q-28 27 -63 40t-68 15q-48 1 -89.5 -14.5t-74.5 -43t-55 -63t-31 -77.5zM-27.5 -481q-3.5 18 0.5 36q11 55 49 84t91 29q21 0 40.5 -7t34 -17t24.5 -21.5t11 -17.5q-7 -27 -21.5 -53.5t-35 -47t-47.5 -33.5t-60 -13q-25 0 -42.5 8t-29 21.5 t-15 31.5zM394 575q-9 40 1 84q11 49 36 89.5t62.5 70.5t82.5 47.5t95 17.5q57 0 97.5 -17.5t65 -47.5t33.5 -73q10 -45 5 -100l-25 -430q-3 -33 1 -56t14 -37t28.5 -20.5t47.5 -6.5q54 0 81.5 25.5t38.5 77.5l135 629q8 41 5 72t-17 54.5t-41 40.5t-69 30q-63 20 -132.5 30 t-143.5 14.5t-149 3.5t-147 -1q-29 0 -50 4.5t-34 15.5t-16.5 28.5t1.5 46.5q16 69 64 125t116 96.5t150 61.5t165 21q55 0 103.5 -11t97.5 -25t99.5 -25t104.5 -11q11 0 28.5 2.5t37.5 9t41.5 16.5t42.5 23q6 -16 9.5 -26.5t7 -20.5t7 -19.5t7.5 -23.5q-42 -26 -91.5 -41 t-95.5 -15q-73 0 -126.5 11.5t-100 24.5t-91.5 24.5t-101 11.5q-67 0 -127 -15t-106.5 -39t-76 -55t-34.5 -63q-6 -26 12.5 -31.5t49.5 -5.5q75 0 141.5 -1.5t129.5 -6t124.5 -13t125.5 -23.5q69 -16 113 -39.5t67 -59.5t27 -83q6 -47 -8 -110l-136 -637 q-13 -55 -39.5 -94.5t-63.5 -63t-80.5 -34.5t-89.5 -11q-53 0 -87.5 16.5t-55 44t-28.5 64t-5 76.5l17 306q-26 -18 -50 -29t-46.5 -17.5t-42.5 -9t-35 -2.5q-46 0 -83.5 17.5t-61 47.5t-32.5 70zM509 620q3 -21 13.5 -37.5t30.5 -27t50 -10.5t54 10.5t42.5 27t30.5 37.5 t16 44q5 22 2 43t-13.5 37.5t-30.5 26.5t-50 10q-31 0 -55 -10t-42 -26.5t-30 -38t-16 -42.5q-5 -23 -2 -44zM809 -277q3 17 13 33.5t25 29t33.5 20.5t41.5 8q16 0 31 -6.5t26 -18.5t16 -28.5t-1 -37.5q-4 -18 -14 -34t-24.5 -30t-33 -21t-40.5 -7q-18 0 -34 7t-25 19.5 t-13.5 29t-0.5 36.5z" />
<glyph unicode="&#xe11;" horiz-adv-x="1733" d="M331.5 1059q-8.5 41 0.5 94q11 65 42.5 122.5t79.5 101.5t108.5 69t132.5 25q49 0 84 -10.5t58.5 -27t39 -35.5t27.5 -37q3 6 20.5 24t41.5 37t51.5 34t52.5 15q31 0 53 -16t33 -46t12.5 -71t-8.5 -90q-10 -44 -28 -81t-41.5 -70t-49.5 -62q-26 -31 -51 -60 q-23 -25 -47 -49.5t-44.5 -49t-35.5 -49.5t-21 -53l-90 -429q45 80 88.5 158t94 158.5t109.5 170t131 193.5q66 95 130.5 175t125 139.5t117 93t108.5 34.5q41 2 69 -14.5t44 -44t18.5 -64.5t-5.5 -74l-269 -1270h-120l269 1266q7 34 -1 58t-37 24q-25 0 -61.5 -25.5 t-79.5 -70.5t-91.5 -106t-99.5 -130t-101.5 -145t-97.5 -150q-86 -135 -154 -248.5t-118 -205t-83.5 -159t-52.5 -108.5h-126l165 776q5 31 18 57t29.5 48.5t36 42.5t39.5 40q30 30 62.5 65t60.5 72t48 73.5t27 71.5q3 18 6.5 37.5t3 33.5t-6.5 22.5t-16 8.5q-11 0 -31 -15 t-43 -35.5t-44.5 -43.5t-35.5 -38q-20 41 -48.5 71.5t-63.5 49.5t-77.5 23t-86.5 -7q30 -6 58 -20.5t48 -38.5t28.5 -61.5t-1.5 -88.5q-11 -50 -35.5 -89.5t-56.5 -66.5t-71.5 -40.5t-79.5 -13.5q-42 0 -74.5 14t-55 42t-31 69zM436 1092q6 -25 24 -42q20 -18 52 -18 q33 0 58 17.5t41.5 42.5t23 54t0.5 55t-24.5 42.5t-51.5 16.5q-34 0 -60 -16.5t-41.5 -42.5t-21.5 -55t0 -54z" />
<glyph unicode="&#xe12;" horiz-adv-x="2140" d="M220 0l245 1151q15 70 54.5 128.5t94 101t120 66t133.5 23.5h4l171 -159l255 160q89 0 147.5 -30t89 -77t38.5 -104q7 -59 -5 -113l-103 -483q-8 -39 -1.5 -70t22 -56t38.5 -45t48.5 -37.5t51.5 -32.5t49 -31q20 -14 43.5 -29.5t48.5 -33t48 -39t41 -45.5l261 1219h118 l-310 -1464h-123q1 41 -6 73.5t-21 66.5q-12 24 -34.5 48.5t-53.5 49t-66.5 48.5t-74.5 47q9 -17 12.5 -36.5t2.5 -35.5t-3 -30.5t-3 -21.5q-12 -50 -37.5 -91t-63 -70t-81.5 -45t-93 -16q-56 0 -94.5 19.5t-60.5 51t-28 72t3 83.5q11 52 35.5 95.5t60 77t83.5 55.5t103 31 q-21 23 -30 50t-11 53.5t0.5 50t7.5 40.5l98 467q9 41 5.5 82.5t-21.5 73.5t-49.5 52t-78.5 22l-283 -182l-203 180q-46 0 -84 -17.5t-68 -47t-50 -69t-29 -82.5l-221 -1036q70 54 140 107.5t140 110t141.5 115t147.5 121.5q-49 -5 -94 5.5t-77 35.5t-47 66t-2 96 q8 45 31.5 84t58 69.5t79.5 47.5t98 17q44 0 82 -13.5t63 -42.5t34.5 -71t-2.5 -99q-8 -37 -21 -72t-34.5 -70t-52 -69.5t-73.5 -70.5l-205 -170q-25 -20 -58 -47t-69.5 -56t-73.5 -58t-73 -55.5t-66 -50t-51 -39.5h-158zM824.5 770.5q-6.5 -28.5 0.5 -53.5t28 -40.5 t58 -15.5t64 15.5t45 40.5t24 53.5t-1.5 53t-28 41t-57.5 16.5q-38 0 -65 -16.5t-44 -41t-23.5 -53zM1216.5 161q6.5 -28 27 -47.5t59.5 -19.5q37 0 65 19.5t46.5 47.5t25 61.5t0.5 62t-26 48t-57 19.5t-66.5 -19.5t-48 -48t-25.5 -62t-0.5 -61.5z" />
<glyph unicode="&#xe13;" horiz-adv-x="2040" d="M287.5 142.5q-7.5 46.5 4.5 99.5l111 529q7 33 22 70t47 73q30 34 60.5 55t62.5 35h-183l33 156q17 84 71.5 143.5t133 97.5t173.5 54t197 16q113 0 203.5 -16t150 -54t83.5 -99.5t6 -151.5l-196 -920q31 32 65 55.5t66.5 42.5t63.5 34.5t57 29.5q28 16 61 31t66 32.5 t64.5 37.5t58 45t45.5 56.5t28 69.5l170 800h120l-170 -798q-3 -17 -11 -40.5t-20.5 -50t-33.5 -53.5t-51 -50q52 -9 89 -31t59 -55.5t28 -78t-4 -94.5q-9 -41 -33 -82.5t-60 -73t-82.5 -51t-102.5 -19.5q-48 0 -86 16t-62.5 45t-33 70t1.5 91q2 8 6 22t10.5 30t17 35.5 t28.5 36.5q-49 -23 -95.5 -47t-87 -48.5t-75 -49t-56.5 -48.5q-30 -34 -50.5 -66.5t-36.5 -73.5h-121l241 1140q13 61 -0.5 105.5t-55.5 73t-113.5 42t-173.5 13.5q-91 0 -166.5 -12t-130.5 -37t-90 -66t-48 -99l-14 -72h225l-18 -76q-27 -7 -68.5 -28.5t-85.5 -66.5 q-24 -25 -38.5 -48.5t-23.5 -46.5t-14 -42t-8 -32l-73 -346q33 20 68 28t60 8q49 0 87.5 -16t63 -46t33.5 -70.5t-1 -92.5q-11 -49 -38 -90t-66 -72t-84 -48t-92 -17q-54 0 -94 20t-63.5 55t-31 81.5zM408.5 214.5q-6.5 -30.5 0.5 -56.5t30 -43.5t63 -17.5t69.5 17.5 t48 43.5t25 56.5t-1.5 56.5t-31 43.5t-61 17.5q-40 0 -69.5 -17.5t-48 -43.5t-25 -56.5zM1678.5 161q6.5 -28 26.5 -47.5t57 -19.5t66.5 19.5t48 47.5t25 61.5t0.5 62t-27.5 48t-58.5 19.5t-65.5 -19.5t-46.5 -48t-25 -62t-0.5 -61.5z" />
<glyph unicode="&#xe14;" horiz-adv-x="1535" d="M217 0l242 1143q13 62 44.5 111.5t76.5 86t101.5 61.5t121 41t134.5 22t141 6q76 0 145.5 -5.5t128 -20t104.5 -38.5t74.5 -60.5t37 -88t-5.5 -118.5l-242 -1140h-120l240 1127q16 74 -4 121.5t-71 73t-129 34.5q-78 8 -181 8q-211 0 -330 -55.5t-142 -168.5l-220 -1031 q109 91 190.5 159.5t146 126t117.5 108.5q55 52 110 109q-35 -6 -76.5 4t-73.5 36t-48.5 67.5t-3.5 101.5q11 53 37.5 93.5t63 68t80.5 41.5t88 14q51 0 90 -15t62.5 -42t31 -67t-2.5 -90q-8 -42 -32.5 -87t-62.5 -93.5t-88 -101.5t-108 -109q-106 -100 -234.5 -208 t-271.5 -225h-161zM833 779q2 -20 13.5 -35.5t31 -25t47.5 -9.5q27 0 51 9.5t41.5 25t29 35.5t15.5 42q5 23 2 43.5t-13 36.5t-29.5 26t-47.5 10q-29 0 -52.5 -10t-42 -26.5t-29.5 -37.5t-15 -42q-4 -22 -2 -42z" />
<glyph unicode="&#xe15;" horiz-adv-x="1535" d="M217 0l243 1151q16 70 55.5 128.5t94 101t120 66t134.5 23.5h4l172 -159l253 160q88 0 147 -30t89.5 -77t37.5 -104q7 -59 -4 -113l-243 -1147h-120l241 1133q9 41 4.5 82.5t-21.5 73.5t-49 52t-78 22l-285 -182l-203 180q-45 0 -83 -17.5t-68 -47t-50 -69t-29 -82.5 l-220 -1036q70 54 140 107.5t140 110t141.5 115t146.5 121.5q-49 -5 -94 5.5t-77 35.5t-46.5 66t-3.5 96q9 45 32.5 84t58.5 69.5t79.5 47.5t97.5 17q44 0 82 -13.5t63.5 -42.5t35 -71t-1.5 -99q-9 -37 -22.5 -72t-35 -70t-52.5 -69.5t-73 -70.5l-205 -170q-26 -20 -58 -47 t-68.5 -56t-74.5 -58t-73 -55.5t-65 -50t-51 -39.5h-158zM821 770.5q-6 -28.5 1 -53.5t28 -40.5t57 -15.5q37 0 65 15.5t45 40.5t23.5 53.5t-1 53t-28 41t-57.5 16.5t-65 -16.5t-45 -41t-23 -53z" />
<glyph unicode="&#xe16;" horiz-adv-x="1460" d="M287.5 142.5q-7.5 46.5 4.5 99.5l111 529q7 33 22 70t47 73q30 34 60.5 55t62.5 35h-183l33 156q17 84 72.5 143.5t134.5 97.5t176 54t199 16q113 0 206.5 -14t156.5 -50t89.5 -96.5t6.5 -153.5l-245 -1157h-121l241 1140q16 71 0.5 117t-60.5 71.5t-119.5 35.5 t-174.5 10q-92 0 -168.5 -11.5t-133 -37t-93 -66.5t-49.5 -98l-15 -73h226l-18 -76q-27 -7 -68.5 -28.5t-85.5 -66.5q-24 -25 -38.5 -48.5t-23.5 -46.5t-14 -42t-8 -32l-73 -346q33 20 68 28t60 8q49 0 87.5 -16t63 -46t33.5 -70.5t-1 -92.5q-11 -49 -38 -90t-66 -72 t-84 -48t-92 -17q-54 0 -94 20t-63.5 55t-31 81.5zM408.5 214.5q-6.5 -30.5 0.5 -56.5t30 -43.5t63 -17.5t69.5 17.5t48 43.5t25 56.5t-1.5 56.5t-31 43.5t-61 17.5q-40 0 -69.5 -17.5t-48 -43.5t-25 -56.5z" />
<glyph unicode="&#xe17;" horiz-adv-x="1615" d="M328.5 1142q-11.5 42 0 92t39 93t66 73.5t85 48.5t94.5 18q55 0 94 -18t63.5 -50t32.5 -75.5t-4 -95.5l-154 -726q94 177 188 330t185 279q52 72 106 137t110 113.5t112.5 78t112.5 27.5q64 -1 105.5 -27t63 -68t25 -96.5t-9.5 -108.5l-247 -1167h-119l247 1163 q8 34 8.5 70.5t-9 65t-31 47t-58.5 18.5q-31 0 -82.5 -37t-118 -110t-146.5 -183t-170 -259q-78 -126 -138 -234t-104 -202t-76.5 -178t-53.5 -161h-126l222 1044q-28 -14 -58 -22t-57 -10q-48 -1 -89.5 14t-69 44.5t-39 71.5zM446.5 1240q-6.5 -30 1.5 -56.5t30 -43.5 t63 -17q40 0 69 17t47.5 43.5t25 56.5t-1 55.5t-30 43.5t-62.5 18t-69.5 -18t-48 -43.5t-25 -55.5z" />
<glyph unicode="&#xe18;" horiz-adv-x="1425" d="M298.5 179q1.5 50 13.5 100l110 523h119l-111 -519q-8 -41 -9.5 -73.5t12 -55t45 -34t87.5 -11.5h396q47 0 78.5 12t52.5 35t33.5 55t19.5 72l103 483q9 38 10.5 66.5t-6.5 54t-26 47t-48 41.5t-71.5 33.5t-87 21.5t-93.5 10t-92 2q-35 0 -75.5 -1t-82 -6t-81 -13 t-70.5 -18h-126l34 157q12 52 39 94.5t68 78t90 61t104 43.5t113 26.5t114 8.5q54 0 105 -6.5t99 -15t95 -18.5t96 -19q37 -5 73.5 6t79.5 43q13 -30 19 -59.5t18 -53.5q-23 -13 -50 -22q-23 -8 -52.5 -15t-60.5 -7q-66 0 -118 10.5t-102 22t-104.5 22t-123.5 10.5 q-84 0 -150.5 -17.5t-114 -46.5t-76 -66.5t-38.5 -77.5l-10 -50q89 15 167.5 24.5t155.5 9.5q45 0 93 -4.5t96.5 -13t95 -22.5t89.5 -33q54 -24 84 -57t42 -72.5t11 -85t-13 -97.5l-103 -483q-13 -56 -32 -106.5t-53 -89.5t-81 -61t-113 -22h-512q-67 0 -105 24.5 t-54.5 64.5t-15 90z" />
<glyph unicode="&#xe19;" horiz-adv-x="1558" d="M328.5 1142q-11.5 42 0 92t39 93t66 73.5t85 48.5t94.5 18q55 0 94 -18t63.5 -50t32.5 -75.5t-4 -95.5l-226 -1062q75 69 150.5 119t148 88.5t139.5 67.5t127 55q75 33 120 69.5t69 69.5t33.5 61t13.5 43l155 725h120l-160 -755q-8 -31 -27 -65.5t-45.5 -66t-56.5 -58.5 t-60 -44q63 -7 103 -31t61.5 -56.5t25.5 -73.5t-4 -84q-12 -56 -39.5 -101t-65 -77t-83 -50t-95.5 -16.5t-89 20t-62.5 50t-32 73t1.5 88.5q3 13 7 31t13.5 38.5t24.5 43.5t39 46q-70 -27 -151.5 -68.5t-158.5 -91.5t-141.5 -105t-101.5 -111h-133l222 1044q-28 -14 -58 -22 t-57 -10q-48 -1 -89.5 14t-69 44.5t-39 71.5zM446.5 1240q-6.5 -30 1.5 -56.5t30 -43.5t63 -17q40 0 69 17t47.5 43.5t25 56.5t-1 55.5t-30 43.5t-62.5 18t-69.5 -18t-48 -43.5t-25 -55.5zM1138 182.5q3 -23.5 13 -43t29.5 -31t47.5 -11.5q29 0 53.5 11.5t43 29.5t30.5 41.5 t18 49.5t3.5 49.5t-14 42.5t-30.5 30.5t-49 11.5q-29 0 -52.5 -11.5t-41.5 -30t-30 -42t-18 -47.5q-6 -26 -3 -49.5z" />
<glyph unicode="&#xe1a;" horiz-adv-x="1615" d="M327 1144.5q-10 40.5 2 89.5q11 52 38.5 94.5t66 73.5t85 48t94.5 17q55 0 94 -18t63.5 -50t32.5 -75.5t-4 -95.5l-200 -942q-10 -46 -5 -79.5t23 -55t46 -32t65 -10.5h430q70 0 116 48.5t64 128.5l251 1178h118l-250 -1175q-13 -57 -35.5 -109.5t-60 -92.5t-88 -63.5 t-116.5 -23.5h-496q-66 0 -107 23.5t-61 63.5t-22.5 92.5t9.5 109.5l161 756q-12 -5 -27 -11t-33 -11t-35 -8t-31 -3q-50 0 -88.5 16.5t-64 46t-35.5 70zM446 1237.5q-6 -30.5 1.5 -56.5t29.5 -43t62 -17t69.5 17t48 43t25 56.5t-0.5 56.5t-29.5 44t-62.5 18t-70 -18 t-48.5 -44t-24.5 -56.5z" />
<glyph unicode="&#xe1b;" horiz-adv-x="1615" d="M327 1144.5q-10 40.5 2 89.5q11 52 38.5 94.5t66 73.5t85 48t94.5 17q55 0 94 -18t63.5 -50t32.5 -75.5t-4 -95.5l-200 -942q-10 -46 -5 -79.5t23 -55t46 -32t65 -10.5h430q70 0 116 48.5t64 128.5l391 1845h119l-391 -1842q-13 -57 -35.5 -109.5t-60 -92.5t-88 -63.5 t-116.5 -23.5h-496q-66 0 -107 23.5t-61 63.5t-22.5 92.5t9.5 109.5l161 756q-12 -5 -27 -11t-33 -11t-35 -8t-31 -3q-50 0 -88.5 16.5t-64 46t-35.5 70zM446 1237.5q-6 -30.5 1.5 -56.5t29.5 -43t62 -17t69.5 17t48 43t25 56.5t-0.5 56.5t-29.5 44t-62.5 18t-70 -18 t-48.5 -44t-24.5 -56.5z" />
<glyph unicode="&#xe1c;" horiz-adv-x="1455" d="M220 0l262 1228q11 52 37.5 95.5t64.5 75.5t86 50t102 18q52 0 91 -17t63.5 -48t32.5 -72.5t-2 -91.5q-12 -51 -39 -93t-65.5 -72.5t-84.5 -46t-94 -14.5q-29 2 -59 8q-32 7 -54 22l-196 -920l446 513h103l227 -513l286 1342h119l-310 -1464h-169l-230 516l-449 -516 h-168zM603.5 1237.5q-5.5 -30.5 1.5 -56.5t29 -43t62 -17t69.5 17t48 43t25 56.5t-0.5 56.5t-29.5 44t-62.5 18t-70 -18t-48.5 -44t-24 -56.5z" />
<glyph unicode="&#xe1d;" horiz-adv-x="1455" d="M220 0l262 1228q11 52 37.5 95.5t64.5 75.5t86 50t102 18q52 0 91 -17t63.5 -48t32.5 -72.5t-2 -91.5q-12 -51 -39 -93t-65.5 -72.5t-84.5 -46t-94 -14.5q-29 2 -59 8q-32 7 -54 22l-196 -920l446 513h103l227 -513l426 2009h120l-451 -2131h-169l-230 516l-449 -516 h-168zM603.5 1237.5q-5.5 -30.5 1.5 -56.5t29 -43t62 -17t69.5 17t48 43t25 56.5t-0.5 56.5t-29.5 44t-62.5 18t-70 -18t-48.5 -44t-24 -56.5z" />
<glyph unicode="&#xe1e;" horiz-adv-x="1704" d="M328.5 1142q-11.5 42 0 92t39 93t66 73.5t85 48.5t94.5 18q55 0 94 -18t63.5 -50t32.5 -75.5t-4 -95.5l-147 -697l-83 -354l631 1287h100l106 -1288l73 355l197 933h120l-312 -1464h-164l-113 1253q-73 -149 -151.5 -307t-158 -319t-159 -319.5t-150.5 -307.5h-169 l222 1044q-28 -14 -58 -22t-57 -10q-48 -1 -89.5 14t-69 44.5t-39 71.5zM446.5 1240q-6.5 -30 1.5 -56.5t30 -43.5t63 -17q40 0 69 17t47.5 43.5t25 56.5t-1 55.5t-30 43.5t-62.5 18t-69.5 -18t-48 -43.5t-25 -55.5z" />
<glyph unicode="&#xe1f;" horiz-adv-x="1704" d="M328.5 1142q-11.5 42 0 92t39 93t66 73.5t85 48.5t94.5 18q55 0 94 -18t63.5 -50t32.5 -75.5t-4 -95.5l-147 -697l-83 -354l631 1287h100l106 -1288l73 355l339 1600h118l-452 -2131h-164l-113 1253q-73 -149 -151.5 -307t-158 -319t-159 -319.5t-150.5 -307.5h-169 l222 1044q-28 -14 -58 -22t-57 -10q-48 -1 -89.5 14t-69 44.5t-39 71.5zM446.5 1240q-6.5 -30 1.5 -56.5t30 -43.5t63 -17q40 0 69 17t47.5 43.5t25 56.5t-1 55.5t-30 43.5t-62.5 18t-69.5 -18t-48 -43.5t-25 -55.5z" />
<glyph unicode="&#xe20;" horiz-adv-x="1663" d="M136.5 129.5q-7.5 40.5 2.5 86.5q11 51 39 92.5t66 71t83 46t91 16.5q62 0 114 -32l77 361q7 33 21.5 70t45.5 73q30 34 61 55t62 35h-183l33 156q17 84 71.5 143.5t132.5 97.5t175 54t202 16q117 0 211.5 -14t156 -50t85.5 -96.5t6 -155.5l-246 -1155h-119l240 1134 q15 69 0 114t-60 72.5t-118 39t-175 11.5q-91 0 -167.5 -12t-134 -37t-93 -65t-47.5 -97l-15 -72h224l-17 -76q-27 -7 -68 -28.5t-86 -66.5q-25 -25 -39 -48.5t-23.5 -46.5t-14.5 -42t-8 -32l-109 -512q-12 -56 -40 -101t-68 -77t-89.5 -49.5t-102.5 -17.5q-48 0 -86 18 t-60.5 49t-30 71.5zM250.5 217q-5.5 -30 1.5 -56.5t29 -44t62 -17.5t70 17.5t48.5 44t25 56.5t-1 56.5t-30.5 44t-62 17.5q-40 0 -69 -17.5t-48.5 -44t-25 -56.5z" />
<glyph unicode="&#xe21;" horiz-adv-x="1594" d="M228 159.5q-8 62.5 9 145.5q18 80 55 150t92.5 123t128 86.5t159.5 39.5l73 341q-11 -5 -27 -11t-33 -11t-35 -8t-32 -3q-50 0 -89.5 16.5t-64 46t-34.5 70t2 89.5q11 52 38.5 94.5t66 73.5t85 48t94.5 17q55 0 94 -18t63.5 -50t32.5 -75.5t-4 -95.5l-111 -526 q103 -8 189.5 -47.5t150.5 -101.5q67 -63 110 -137q42 -73 69 -147l254 1195h121l-311 -1464h-126q-1 33 -8 87.5t-28 118.5t-59 132t-101 130q-48 45 -98 71.5t-91 38t-67.5 14.5t-27.5 3l-83 -389q-10 -43 -28.5 -81.5t-48 -68.5t-69.5 -48.5t-90 -23.5 q-61 -4 -108.5 14.5t-76 58.5t-36.5 102.5zM338 220q1 -40 12.5 -70.5t35 -48.5t59.5 -18q33 0 55 11.5t35.5 30t20.5 41.5t12 46l80 377q-70 0 -121.5 -27t-88 -69.5t-59.5 -93t-33 -96.5q-9 -43 -8 -83zM548.5 1237.5q-6.5 -30.5 1.5 -56.5t30 -43t62 -17t69.5 17t48 43 t25 56.5t-1.5 56.5t-29.5 44t-61.5 18t-70 -18t-48.5 -44t-25 -56.5z" />
<glyph unicode="&#xe22;" horiz-adv-x="1448" d="M301 192q2 53 12 105l39 176q6 26 19.5 63t39 76t68 75.5t103.5 60.5q-61 20 -99 54.5t-56 78.5t-19 94q-2 49 8 100q17 79 57 150.5t97.5 125t130.5 85t156 31.5q58 0 99.5 -17t64.5 -46.5t29.5 -71.5t-3.5 -89q-12 -55 -39 -97t-64 -70t-82 -43t-93 -15q-47 0 -82 14.5 t-58 40t-33 60.5t-7 77q-11 -16 -20.5 -34.5t-16.5 -37t-12 -34.5t-7 -26q-15 -68 -5 -118.5t40.5 -84t80.5 -49t117 -15.5h218l-22 -105h-217q-50 0 -96 -16t-81.5 -45.5t-60 -69.5t-34.5 -87l-40 -186q-10 -45 -10 -80t14.5 -60t44.5 -39t81 -14h418q49 0 81.5 15.5 t54 41.5t34.5 61t20 75l248 1162h120l-249 -1167q-13 -55 -33.5 -109t-55 -95.5t-84.5 -67t-119 -25.5h-513q-73 0 -113 27t-56.5 69.5t-14.5 95.5zM701.5 1244q-6.5 -30 0.5 -56.5t30 -43.5t63 -17t69.5 17t48 43.5t25 56.5t-1.5 56.5t-30 43.5t-62 17t-69.5 -17t-48 -43.5 t-25 -56.5z" />
<glyph unicode="&#xe23;" horiz-adv-x="1249" d="M332 1037v7q1 8 5.5 24t9.5 33t11.5 34.5t11.5 31.5q32 73 80 129.5t107 95t126.5 59t140.5 23.5q60 2 110.5 -7.5t98.5 -21t95 -21.5t103 -10q46 0 80.5 13t57.5 26l24 -112q-35 -23 -67 -32t-62 -9q-70 0 -128.5 10.5t-113 24t-108 24.5t-112.5 11q-46 -1 -92 -15 t-88.5 -41.5t-78.5 -70.5q-35 -42 -58 -102q87 -1 163.5 -4.5t150.5 -16.5q56 -9 110.5 -21t102.5 -30.5t85.5 -44.5t62 -62.5t32.5 -84.5t-7 -111l-111 -530q-12 -53 -39.5 -98t-67 -78t-87.5 -51t-99 -18q-50 0 -88 18t-62.5 50.5t-33 73.5t1.5 87q12 52 39 92.5t65 69 t83.5 44.5t91.5 16q31 0 57 -7t56 -22l70 335q13 60 3 105t-46.5 76.5t-98.5 53t-153 34.5q-105 15 -204 18q-99 0 -196 -3h-21t-10.5 1t-2.5 4zM711 218q-7 -31 0.5 -56.5t30 -42.5t62.5 -17t70 17t48.5 42.5t25 56.5t-1.5 56.5t-31 43t-61 17.5q-40 0 -69.5 -17.5t-48 -43 t-25.5 -56.5z" />
<glyph unicode="&#xe24;" horiz-adv-x="1460" d="M287.5 142.5q-7.5 46.5 4.5 99.5l111 529q7 33 22 70t47 73q30 34 60.5 55t62.5 35h-183l33 156q17 84 72.5 143.5t134.5 97.5t176 54t199 16q113 0 206.5 -14t156.5 -50t89.5 -96.5t6.5 -153.5l-373 -1758h-121l369 1741q16 71 0.5 117t-60.5 72.5t-119.5 35.5t-174.5 9 q-92 0 -168.5 -11.5t-133 -37t-93 -66.5t-49.5 -98l-15 -73h226l-18 -76q-27 -7 -68.5 -28.5t-85.5 -66.5q-24 -25 -38.5 -48.5t-23.5 -46.5t-14 -42t-8 -32l-73 -346q33 20 68 28t60 8q49 0 87.5 -16t63 -46t33.5 -70.5t-1 -92.5q-11 -49 -38 -90t-66 -72t-84 -48t-92 -17 q-54 0 -94 20t-63.5 55t-31 81.5zM408.5 214.5q-6.5 -30.5 0.5 -56.5t30 -43.5t63 -17.5t69.5 17.5t48 43.5t25 56.5t-1.5 56.5t-31 43.5t-61 17.5q-40 0 -69.5 -17.5t-48 -43.5t-25 -56.5z" />
<glyph unicode="&#xe25;" horiz-adv-x="1451" d="M278.5 142.5q-6.5 46.5 4.5 99.5l87 417q18 85 63 153.5t107 117t137 75t154 26.5q101 0 173.5 -38.5t126.5 -111.5q37 -49 65 -112.5t50 -139.5l108 511q13 65 -3.5 109t-62 71t-120 38.5t-176.5 11.5q-91 0 -167 -12t-131 -37t-90 -62.5t-45 -88.5l-11 -50h-120l12 58 q16 78 69.5 133.5t132.5 91.5t175.5 52t196.5 16q113 0 207.5 -14t158 -50t89.5 -97q27 -60 7 -155l-245 -1155h-118l31 154q11 55 17 115.5t1.5 130t-22 148t-53.5 166.5q-17 44 -43 82.5t-59.5 67t-77 46t-99.5 17.5q-59 0 -111 -20t-94 -55t-71 -84.5t-42 -108.5 l-54 -257q33 20 68 28t59 8q49 0 87.5 -16t63.5 -46t34.5 -70.5t-2.5 -92.5q-11 -49 -37.5 -90t-65 -72t-84.5 -48t-91 -17q-55 0 -95 20t-64 55t-30.5 81.5zM399 214.5q-7 -30.5 1 -56.5t30 -43.5t62 -17.5t70 17.5t48 43.5t25 56.5t-1 56.5t-30.5 43.5t-61.5 17.5 q-40 0 -70 -17.5t-48 -43.5t-25 -56.5z" />
<glyph unicode="&#xe26;" horiz-adv-x="1663" d="M136.5 129.5q-7.5 40.5 2.5 86.5q11 51 39 92.5t66 71t83 46t91 16.5q62 0 114 -32l77 361q7 33 21.5 70t45.5 73q30 34 61 55t62 35h-183l33 156q17 84 71.5 143.5t132.5 97.5t175 54t202 16q117 0 211.5 -14t156 -50t85.5 -96.5t6 -155.5l-373 -1756h-119l367 1735 q15 69 0 114t-60 72.5t-118 39t-175 11.5q-91 0 -167.5 -12t-134 -37t-93 -65t-47.5 -97l-15 -72h224l-17 -76q-27 -7 -68 -28.5t-86 -66.5q-25 -25 -39 -48.5t-23.5 -46.5t-14.5 -42t-8 -32l-109 -512q-12 -56 -40 -101t-68 -77t-89.5 -49.5t-102.5 -17.5q-48 0 -86 18 t-60.5 49t-30 71.5zM250.5 217q-5.5 -30 1.5 -56.5t29 -44t62 -17.5t70 17.5t48.5 44t25 56.5t-1 56.5t-30.5 44t-62 17.5q-40 0 -69 -17.5t-48.5 -44t-25 -56.5z" />
<glyph unicode="&#xe27;" horiz-adv-x="1242" d="M337 1100l12 60q17 84 63.5 143.5t113.5 97.5t155 54t190 16q227 0 328 -79t68 -239l-195 -917q-11 -53 -39 -98t-67 -78t-87 -51t-100 -18q-50 0 -87.5 18t-62 50.5t-33 73.5t1.5 87q11 52 38.5 92.5t66 69t83.5 44.5t91 16q31 0 57 -7q24 -7 56 -22l153 718 q12 59 5 104t-40 75.5t-95.5 45.5t-163.5 15q-94 0 -162.5 -15t-115 -42.5t-74 -69t-38.5 -94.5l-10 -50h-112zM710 218q-6 -31 1 -56.5t30 -42.5t63 -17t69 17t48 42.5t25 56.5t-1 56.5t-30 43t-63 17.5t-69 -17.5t-48 -43t-25 -56.5z" />
<glyph unicode="&#xe28;" horiz-adv-x="1535" d="M217 0l245 1155q13 61 43.5 108t75 81.5t101 59.5t121 40t134.5 21t141 6q57 0 111.5 -2.5t103 -10.5t90 -20t76.5 -31q31 17 61 46.5t56 62.5t45 68t29 66h126q-13 -41 -35 -83.5t-53 -83t-70 -76.5t-85 -61q27 -35 35.5 -82.5t-4.5 -110.5l-244 -1153h-120l243 1140 q14 68 -7.5 112t-72 69.5t-128.5 35.5t-178 10q-113 0 -197 -14.5t-142.5 -43t-92 -70.5t-44.5 -99l-165 -765q22 41 44.5 82t44 78t41 69t35.5 57q24 40 49 81.5t53 81.5t59.5 75.5t68 63t78.5 43.5t91 16q54 0 94 -16t64.5 -45.5t32 -70.5t-2.5 -91q-13 -61 -42 -106 t-67 -74.5t-82.5 -43.5t-87.5 -14q-27 0 -52 6t-48 18.5t-41.5 32.5t-29.5 47q-30 -42 -55 -79t-52.5 -80t-58.5 -99.5t-74 -136.5q-36 -66 -67 -135t-55 -135h-139zM812 748.5q3 -20.5 14.5 -37t31.5 -27t50 -10.5t54.5 10.5t43 27t30 38t16.5 42.5q5 23 2 44t-14.5 38 t-31.5 27.5t-50 10.5t-54.5 -10.5t-43 -27.5t-30.5 -38t-16 -44q-5 -23 -2 -43.5z" />
<glyph unicode="&#xe29;" horiz-adv-x="1674" d="M327 1144.5q-10 40.5 2 89.5q11 52 38.5 94.5t66 73.5t85 48t94.5 17q55 0 94 -18t63.5 -50t32.5 -75.5t-4 -95.5l-197 -931q-20 -93 0.5 -140.5t93.5 -47.5h489q35 0 60 14t43.5 39t30.5 59t21 74l46 221q-38 -3 -70 -5t-55 -2q-41 0 -89 4.5t-94.5 14.5t-88 27.5 t-71 45t-41.5 65.5q-13 38 -2 89q10 46 33.5 81t56.5 58.5t71 36.5t75 13q46 0 79.5 -14.5t53.5 -40t27 -60.5q7 -34 -1 -74q-3 -13 -11 -33t-23 -40.5t-37 -40t-54 -32.5q68 -6 133 -6.5t129 10.5l182 851h118l-175 -829q54 20 96 50t72 65.5t49.5 75t29.5 79.5h117 q-13 -63 -47 -123t-85 -110t-116 -86.5t-139 -52.5l-50 -236q-13 -57 -32.5 -110t-50 -94.5t-75.5 -66.5t-108 -26h-567q-65 1 -100.5 27.5t-49 69.5t-10 95.5t15.5 104.5l159 748q-12 -5 -27 -11t-33 -11t-35 -8t-31 -3q-50 0 -88.5 16.5t-64 46t-35.5 70zM446 1237.5 q-6 -30.5 1.5 -56.5t29.5 -43t62 -17t69.5 17t48 43t25 56.5t-0.5 56.5t-29.5 44t-62.5 18t-70 -18t-48.5 -44t-24.5 -56.5zM980 722.5q2 -16.5 11 -29t24.5 -20t36.5 -7.5q23 0 42 8t33 20t23.5 29.5t12.5 32.5q2 18 0 34.5t-10.5 29t-23.5 20.5t-38 8t-41.5 -8t-33 -20.5 t-23 -29t-12.5 -34.5q-3 -17 -1 -33.5z" />
<glyph unicode="&#xe2a;" horiz-adv-x="1451" d="M278.5 142.5q-6.5 46.5 4.5 99.5l87 417q18 85 63 153.5t107 117t137 75t154 26.5q101 0 173.5 -38.5t126.5 -111.5q37 -49 65 -112.5t50 -139.5l108 511q13 65 -3.5 109t-62 71t-120 38.5t-176.5 11.5q-91 0 -167 -12t-131 -37t-90 -62.5t-45 -88.5l-11 -50h-120l12 58 q16 78 69.5 133.5t132.5 91.5t175.5 52t196.5 16q113 0 206 -13.5t156 -48.5q31 17 60.5 45.5t53.5 61.5t42 68t28 66h126q-13 -40 -34.5 -83t-51.5 -83t-68 -75q-39 -36 -85 -62q26 -36 34 -83q9 -46 -5 -109l-245 -1155h-118l31 154q11 55 17 115.5t1.5 130t-22 148 t-53.5 166.5q-17 44 -43 82.5t-59.5 67t-77 46t-99.5 17.5q-59 0 -111 -20t-94 -55t-71 -84.5t-42 -108.5l-54 -257q33 20 68 28t59 8q49 0 87.5 -16t63.5 -46t34.5 -70.5t-2.5 -92.5q-11 -49 -37.5 -90t-65 -72t-84.5 -48t-91 -17q-55 0 -95 20t-64 55t-30.5 81.5z M399 214.5q-7 -30.5 1 -56.5t30 -43.5t62 -17.5t70 17.5t48 43.5t25 56.5t-1 56.5t-30.5 43.5t-61.5 17.5q-40 0 -70 -17.5t-48 -43.5t-25 -56.5z" />
<glyph unicode="&#xe2b;" horiz-adv-x="1645" d="M327 1144.5q-10 40.5 2 89.5q11 52 38.5 94.5t66 73.5t85 48t94.5 17q55 0 94 -18t63.5 -50t32.5 -75.5t-4 -95.5l-150 -710q65 95 131.5 179.5t140.5 155.5t157 126.5t179 94.5q-16 11 -30 27t-23 37.5t-11.5 48.5t5.5 63q12 51 39 92.5t65.5 71t84.5 46t94 16.5 q55 0 94 -16.5t64.5 -46t32.5 -71.5q10 -42 -2 -91q-5 -28 -19 -59t-37.5 -59t-57 -50.5t-82.5 -37.5q40 -8 64.5 -27.5t38 -45t18.5 -54.5t4.5 -58t-5.5 -57t-10 -51l-158 -752h-119l167 789q9 42 5.5 77.5t-20 62t-45 41.5t-73.5 15q-48 0 -107.5 -26.5t-124.5 -74 t-132.5 -114t-128.5 -147.5q-116 -148 -190.5 -277.5t-98.5 -246.5l-21 -99h-119l222 1045q-12 -5 -27 -11t-33 -11t-35 -8t-31 -3q-50 0 -88.5 16.5t-64 46t-35.5 70zM446 1237.5q-6 -30.5 1.5 -56.5t29.5 -43t62 -17t69.5 17t48 43t25 56.5t-0.5 56.5t-29.5 44t-62.5 18 t-70 -18t-48.5 -44t-24.5 -56.5zM1311 1204.5q3 -21.5 14.5 -39t32.5 -27.5t52 -10q30 0 55 10t43.5 27.5t31.5 39t17 43.5q6 23 2.5 45.5t-15 39.5t-32.5 27.5t-51 10.5t-55.5 -10.5t-44 -27.5t-31.5 -40q-12 -22 -17 -45q-5 -22 -2 -43.5z" />
<glyph unicode="&#xe2c;" horiz-adv-x="1704" d="M327 1144.5q-10 40.5 2 89.5q11 52 38.5 94.5t66 73.5t85 48t94.5 17q55 0 94 -18t63.5 -50t32.5 -75.5t-4 -95.5l-221 -1044l512 781h105l204 -781l223 1047q-35 -15 -66.5 -26.5t-61.5 -19t-62 -10.5q-33 -4 -71 -4q-28 0 -61 6t-65 16t-61 25t-50 34t-30.5 42.5 t-3.5 52.5q8 37 39 72t76.5 61.5t104.5 42.5t121 16q68 0 118 -11.5t84 -29t55.5 -38t33.5 -39.5q45 23 79.5 56t58 70t38.5 75t21 71h129q-13 -59 -38 -116.5t-61.5 -108.5t-83.5 -94t-105 -73l-276 -1301h-160l-211 812l-538 -812h-156l222 1045q-12 -5 -27 -11t-33 -11 t-35 -8t-31 -3q-50 0 -88.5 16.5t-64 46t-35.5 70zM446 1237.5q-6 -30.5 1.5 -56.5t29.5 -43t62 -17t69.5 17t48 43t25 56.5t-0.5 56.5t-29.5 44t-62.5 18t-70 -18t-48.5 -44t-24.5 -56.5zM1218 1354q-2 -13 11.5 -25.5t37 -22.5t55 -17.5t64.5 -8.5q27 -2 57 1t60.5 10 t60 20t55.5 30q-6 12 -21 28.5t-40.5 30.5t-62 23.5t-85.5 9.5q-31 0 -63.5 -6.5t-59.5 -17t-46.5 -25t-22.5 -30.5z" />
<glyph unicode="&#xe2d;" horiz-adv-x="1444" d="M272.5 191q2.5 54 13.5 106l96 451q11 56 39 102.5t67.5 78.5t88.5 50t102 18q52 0 90.5 -18t63 -49t33 -71.5t-1.5 -87.5q-13 -59 -42.5 -102t-69.5 -70.5t-88 -41.5t-99 -12q-29 1 -53 7.5t-49 18.5l-57 -269q-10 -47 -10 -83t14.5 -60.5t44.5 -37t81 -12.5h408 q61 0 100.5 12.5t63 37.5t36.5 61t23 82l176 825q14 70 -1 116.5t-59.5 74.5t-116.5 40t-171 12q-94 0 -172 -12t-135 -38.5t-94.5 -68t-48.5 -98.5l-7 -33h-119l9 40q17 84 72.5 143.5t134.5 97.5t176 54t199 16q113 0 206.5 -14t155.5 -51t89 -102q26 -63 5 -163 l-180 -844q-13 -55 -33 -109t-53 -95.5t-79 -67t-107 -25.5h-559q-72 0 -112 26.5t-56.5 68.5t-14 96zM512.5 768.5q-6.5 -30.5 1.5 -56.5t30 -43t62 -17t69.5 17t48 43t25 56.5t-0.5 56.5t-29.5 43t-62.5 17t-70 -17t-48.5 -43t-25 -56.5z" />
<glyph unicode="&#xe2e;" horiz-adv-x="1444" d="M272.5 191q2.5 54 13.5 106l80 379q12 56 40.5 102.5t67 78.5t87 50t103.5 18q51 0 89.5 -18t63 -48.5t33 -71.5t-1.5 -88q-13 -58 -40 -101t-65.5 -71t-86 -41.5t-97.5 -12.5q-28 2 -57.5 8.5t-52.5 17.5l-43 -197q-10 -47 -10 -83t14.5 -60.5t44.5 -37t81 -12.5h408 q61 0 100.5 12.5t63 37.5t36.5 61t23 82l186 873q-33 -18 -74 -39t-97.5 -38t-133 -28.5t-180.5 -11.5q-47 0 -99.5 3t-101.5 10t-92 20t-74 34.5t-45 52t-4 72.5q11 56 61 98t121.5 70t157.5 40.5t169 12.5q106 0 177.5 -7t121.5 -20.5t84.5 -31.5t65.5 -38 q41 67 65.5 131.5t34.5 111.5h117q-10 -41 -25 -87t-35.5 -91.5t-47 -89t-58.5 -81.5q9 -17 10.5 -37.5t0 -42t-5 -40t-6.5 -31.5l-174 -820q-13 -55 -33 -109t-53 -95.5t-79 -67t-107 -25.5h-559q-72 0 -112 26.5t-56.5 68.5t-14 96zM497.5 697q-5.5 -31 1.5 -56.5 t30 -42.5t62 -17q40 0 69 17t48.5 42.5t26 56.5t-1.5 56.5t-30 43t-62 17.5t-69.5 -17.5t-49 -43t-25 -56.5zM578 1251q-3 -17 9 -30.5t36.5 -23.5t57.5 -16.5t68.5 -10t72.5 -5t70 -1.5q109 0 185.5 14.5t128 33.5t81.5 38.5t44 27.5q-54 52 -153.5 72t-239.5 20 q-66 0 -128 -8.5t-112 -24.5t-82.5 -37.5t-37.5 -48.5z" />
<glyph unicode="&#xe2f;" horiz-adv-x="1477" d="M463 1241q12 56 40 99.5t66.5 72t85 43.5t94.5 15q52 0 91 -16t63.5 -46t31.5 -71.5t-4 -94.5q-13 -62 -51.5 -111t-104.5 -81q90 0 186 24.5t189 88.5q51 36 91 79t68.5 85.5t46.5 78.5q20 36 28 57q20 0 46 -3.5t41 -17.5q16 -16 22 -40t3.5 -55.5t-9 -67.5t-14.5 -72 l-197 -929q-8 -33 -17 -66.5t-25.5 -65t-41 -59.5t-61.5 -51q-17 -11 -37 -21t-41 -18.5t-41 -14.5t-35 -9l-52 95q47 11 85 25.5t66.5 38t48.5 58.5t30 84l202 946q-60 -66 -128.5 -115t-141.5 -82.5t-149 -50t-150 -16.5q-73 0 -139 15.5t-113 50t-68.5 88t-4.5 130.5z M584.5 1249q-6.5 -29 0.5 -54t28.5 -42.5t60.5 -17.5q37 0 65.5 17.5t46.5 42.5t24.5 54t-1 54t-29.5 42.5t-59 17.5t-66 -17.5t-46.5 -42.5t-24 -54z" />
<glyph unicode="&#xe30;" horiz-adv-x="1195" d="M213 309q12 49 38 89t63.5 67.5t80.5 42.5t85 15q49 0 85.5 -17t58.5 -45.5t30 -67t-2 -84.5q-11 -52 -46 -95.5t-90 -69.5q16 -1 32.5 -3t29.5 -2q27 0 60.5 3.5t69.5 12.5t73 24t73 37q37 23 69 56t56.5 70.5t41.5 77.5t26 78h111q-13 -59 -39 -116t-65.5 -108 t-90.5 -92.5t-116 -71.5q-73 -34 -156 -50t-162 -16q-63 0 -126 14.5t-110 46.5t-71.5 82t-8.5 122zM316.5 313q-6.5 -30 1.5 -56.5t30 -43.5t61 -17q40 0 70 17t48.5 43.5t25 56.5t-1.5 56t-30 43.5t-62 17.5t-69.5 -17.5t-48 -43.5t-25 -56zM395 1091q-6 39 3 86 q11 49 37.5 89t63 67.5t80 42.5t86.5 15q49 0 85 -16.5t59 -45.5t30.5 -67.5t-1.5 -83.5q-11 -51 -46.5 -94.5t-92.5 -71.5q16 -1 33 -3t30 -2q27 0 61 4t69.5 12.5t73.5 23.5t72 37q37 23 69.5 56.5t56.5 71.5t41.5 78t25.5 76h112q-13 -59 -39.5 -116t-65 -107t-91 -92.5 t-116.5 -72.5q-73 -34 -156 -50t-161 -16q-42 0 -84 6.5t-81.5 20t-71.5 35t-53.5 50t-28.5 67.5zM501.5 1182q-6.5 -31 0.5 -56.5t30 -43.5t63 -18t69.5 18t48 43.5t25 56.5t-1.5 56.5t-30 42.5t-62 17q-41 0 -70 -17t-47.5 -42.5t-25 -56.5z" />
<glyph unicode="&#xe31;" d="M-629 1966q-10 43 1 99q9 44 33 80t58 61.5t74 39t83 13.5q41 0 74 -15t54.5 -40t30 -60.5t-1.5 -75.5q-6 -25 -18 -51t-32 -48.5t-48 -40.5t-62 -25q24 -8 50.5 -13t53.5 -8t51.5 -4.5t44.5 -1.5q56 0 115 10t117 28.5t113 48t101.5 69t83 89.5t56.5 110l118 3 q-32 -89 -81.5 -157.5t-109.5 -119.5t-128.5 -85t-139.5 -55.5t-140 -31t-132 -9.5q-59 0 -116 6t-107 19.5t-91 35.5t-68 54t-37 75zM-522 2069.5q-6 -26.5 1.5 -47.5t26.5 -36t52 -15q32 0 55.5 15t39 36t21.5 47.5t0 48t-24.5 36.5t-49.5 15q-35 0 -60 -15t-40.5 -36.5 t-21.5 -48z" />
<glyph unicode="&#xe32;" horiz-adv-x="1242" d="M339 1107l10 53q17 84 63.5 143.5t113.5 97.5t155 54t190 16q226 0 327.5 -79t68.5 -238l-245 -1154h-118l241 1140q12 54 5 96t-41.5 71.5t-97.5 45.5t-163 16q-94 0 -162 -14t-114.5 -41.5t-74 -69t-38.5 -99.5l-9 -38h-111z" />
<glyph unicode="&#xe33;" horiz-adv-x="1242" d="M-140.5 1903q-6.5 45 3.5 93q10 47 35 92.5t64 81t91.5 57t116.5 21.5q63 0 105 -21.5t66.5 -57t31 -81t-3.5 -92.5t-35 -92.5t-64.5 -81.5t-91.5 -57.5t-115 -21.5t-106.5 21.5t-67 57.5t-30 81zM-35 1938.5q4 -26.5 18 -47.5t38.5 -33.5t62.5 -12.5t68 12.5t52.5 33.5 t37 47.5t21.5 54.5q6 28 2.5 55.5t-18 48.5t-39 34t-61.5 13t-67.5 -13t-53.5 -34t-38 -48t-21 -55.5t-2 -55zM339 1107l10 53q17 84 63.5 143.5t113.5 97.5t155 54t190 16q226 0 327.5 -79t68.5 -238l-245 -1154h-118l241 1140q12 54 5 96t-41.5 71.5t-97.5 45.5t-163 16 q-94 0 -162 -14t-114.5 -41.5t-74 -69t-38.5 -99.5l-9 -38h-111z" />
<glyph unicode="&#xe34;" d="M-914 1739l25 116q17 78 67.5 139.5t127 103t175.5 64t210 22.5q143 0 241.5 -24t156.5 -68t77.5 -106.5t2.5 -140.5l-23 -106h-1060zM-776 1839h829l7 39q9 37 -5 74t-59 66.5t-123.5 48.5t-201.5 19q-74 0 -148 -11.5t-134.5 -36.5t-102.5 -65q-44 -40 -55 -97z" />
<glyph unicode="&#xe35;" d="M-914 1739l25 116q17 78 67.5 139.5t127 103t175.5 64t210 22.5q155 0 256.5 -27.5t156.5 -77.5l53 250h115l-126 -590h-1060zM-776 1839h829l7 39q9 37 -5 74t-59 66.5t-123.5 48.5t-201.5 19q-74 0 -148 -11.5t-134.5 -36.5t-102.5 -65q-44 -40 -55 -97z" />
<glyph unicode="&#xe36;" d="M-914 1739l25 116q17 78 67.5 139.5t127 103t175.5 64t210 22.5q97 0 176 -12q1 6 1 12.5t2 11.5q10 46 37 87.5t64.5 71.5t83 47.5t94.5 17.5q48 0 86 -17.5t63 -47.5t34 -71q8 -42 0 -88q-16 -68 -62.5 -122.5t-110.5 -82.5q14 -36 15 -79q0 -42 -8 -84l-20 -89h-1060z M-776 1839h829l4 21q9 38 -5.5 77t-57.5 72.5t-121.5 55t-201.5 21.5q-74 0 -148 -11.5t-134.5 -36.5t-102.5 -65q-44 -40 -55 -97zM-19.5 2151.5q3.5 -22.5 15 -39t32.5 -27t51 -10.5t54 10.5t42.5 27t30 38t17.5 43.5t2.5 44.5t-15 39t-33 27t-51.5 10.5t-54.5 -10.5 t-42.5 -27t-30 -38t-16 -43.5q-6 -22 -2.5 -44.5z" />
<glyph unicode="&#xe37;" d="M-914 1739l25 116q17 78 67.5 139.5t127 103t175.5 64t210 22.5q46 0 85.5 -3t74.5 -7l33 155h113l-37 -177q46 -13 82.5 -30.5t61.5 -42.5l53 250h115l-126 -590h-1060zM-776 1839h829l7 39q9 37 -5 74t-59 66.5t-123.5 48.5t-201.5 19q-74 0 -148 -11.5t-134.5 -36.5 t-102.5 -65q-44 -40 -55 -97z" />
<glyph unicode="&#xe38;" d="M-767 -439q-9 39 1 84q11 49 36.5 89t62 69.5t81 45t90.5 15.5q56 0 96.5 -17t65 -48t31.5 -74.5t-3 -94.5l-86 -399h-121l48 230q-60 -27 -116 -27q-50 0 -88.5 15.5t-63.5 44t-34 67.5zM-663.5 -396.5q2.5 -21.5 14 -39t32.5 -27.5t51 -10t55 10t43.5 27.5t30.5 39 t18 44.5q4 23 1.5 45t-14 38.5t-31.5 27.5t-50 11t-56 -11t-44.5 -27.5t-30.5 -38.5q-11 -22 -16.5 -45t-3 -44.5z" />
<glyph unicode="&#xe39;" d="M-1171 -395q8 52 34 93.5t62.5 70.5t82 45t93.5 16q54 0 94.5 -16.5t64.5 -48t31 -76t-3 -95.5l-52 -242h284l101 472h123l-122 -572h-529l38 177q-32 -14 -57.5 -19t-60.5 -5q-43 0 -80.5 13t-63.5 38.5t-38 63.5t-2 85zM-1067 -427q3 -22 14.5 -39t32 -27t50.5 -10 t55.5 10t44 27t30.5 39t16.5 45t2 44.5t-14 38.5t-32 28t-50.5 11t-55 -11t-43.5 -28t-31 -38.5t-16.5 -44.5q-6 -23 -3 -45z" />
<glyph unicode="&#xe3a;" d="M-480.5 -368q-2.5 21 2.5 42t16.5 42t30 37.5t42 25.5t53.5 9q29 0 48 -9t30.5 -25.5t13.5 -37.5t-2 -42t-15.5 -42t-29.5 -36.5t-41.5 -25.5t-52.5 -10q-30 0 -50 10t-31.5 25.5t-14 36.5z" />
<glyph unicode="&#xe3e;" />
<glyph unicode="&#xe3f;" horiz-adv-x="1929" d="M370 0l358 1685h532l76 354h110l-76 -354h96q100 0 178 -29t128 -83t69 -130t-1 -170q-8 -40 -31.5 -96t-68 -111.5t-112.5 -104.5t-164 -74q40 -9 80 -24.5t76.5 -38t67.5 -54t49.5 -73t23.5 -93.5t-8 -118q-21 -98 -73.5 -187t-134 -155.5t-190.5 -105t-247 -38.5h-96 l-75 -356h-110l75 356h-532zM536 117h391l148 700h-390zM709 935h391l134 631h-390zM1038 117h103q99 0 178.5 28.5t138.5 78t97 114t54 137.5q14 67 7.5 118.5t-29.5 89.5t-58.5 63.5t-80 41.5t-95 22.5t-102.5 6.5h-66zM1211 937q6 0 16 -1t20.5 -1h20.5h16q73 0 139 20 t121 61t94 104.5t58 150.5q11 55 5.5 107.5t-34 94t-83.5 67.5q-54 26 -143 26h-95z" />
<glyph unicode="&#xe40;" horiz-adv-x="752" d="M292 137q-7 43 3 95l261 1232h120l-224 -1061q34 17 65.5 26t60.5 9q48 0 87.5 -17.5t64.5 -46.5t34.5 -70t-2 -89.5t-39 -90t-65 -73t-83.5 -48.5t-92 -17q-55 0 -96 19t-64.5 53t-30.5 79zM414 214q-6 -31 1.5 -56.5t29 -43t61.5 -17.5t70 17.5t49 43t25 56.5 t-1.5 56.5t-30 42.5t-62.5 17t-69 -17t-48 -42.5t-25 -56.5z" />
<glyph unicode="&#xe41;" horiz-adv-x="1385" d="M292 137q-7 43 3 95l261 1232h120l-224 -1061q34 17 65.5 26t60.5 9q48 0 87.5 -17.5t64.5 -46.5t34.5 -70t-2 -89.5t-39 -90t-65 -73t-83.5 -48.5t-92 -17q-55 0 -96 19t-64.5 53t-30.5 79zM414 214q-6 -31 1.5 -56.5t29 -43t61.5 -17.5t70 17.5t49 43t25 56.5 t-1.5 56.5t-30 42.5t-62.5 17t-69 -17t-48 -42.5t-25 -56.5zM925 137q-7 43 3 95l262 1232h120l-225 -1061q35 17 67 26t61 9q48 0 86.5 -17.5t64 -46.5t34.5 -70t-2.5 -89.5t-38.5 -90t-65 -73t-83.5 -48.5t-91.5 -17q-56 0 -96 19t-64.5 53t-31.5 79zM1047.5 214 q-6.5 -31 1.5 -56.5t30 -43t62 -17.5t69.5 17.5t48 43t25 56.5t-1.5 56.5t-30 42.5t-62 17t-69.5 -17t-48 -42.5t-25 -56.5z" />
<glyph unicode="&#xe42;" horiz-adv-x="930" d="M470 137q-7 43 3 95l341 1604q11 56 7 94.5t-22 63t-48 38t-66 20.5t-77.5 9t-84.5 7q6 23 15.5 50.5t24.5 57.5t35.5 61t50.5 60q32 31 70.5 54t79 37t81.5 20.5t78 6.5q60 0 110 -12.5t97.5 -29t98 -32.5t112.5 -22q54 -4 91 12.5t62 36.5l15 -99q-15 -12 -36 -23 t-44 -19.5t-47 -13.5t-46 -5q-50 0 -88.5 8t-72 19.5t-63.5 24t-61.5 25t-68 19.5t-82.5 7q-27 0 -65 -5t-76 -23t-72 -51t-53 -88q70 0 127.5 -15t94.5 -50.5t49 -92.5t-5 -140l-306 -1443q35 17 67 26t60 9q49 0 88.5 -17.5t64.5 -46.5t34 -70t-2 -89.5t-38.5 -90 t-65.5 -73t-83 -48.5q-48 -17 -93 -17q-56 0 -95.5 19t-63.5 53t-32 79zM592.5 214q-6.5 -31 1.5 -56.5t29.5 -43t61.5 -17.5t70 17.5t48.5 43t25 56.5t-1.5 56.5t-30 42.5t-62 17t-69.5 -17t-48 -42.5t-25 -56.5z" />
<glyph unicode="&#xe43;" horiz-adv-x="1052" d="M463.5 1912q-4.5 57 9.5 123q17 84 59.5 154t103 121t136 78t160.5 27q83 0 148 -25.5t104.5 -74t52.5 -119.5t-6 -160q-11 -48 -29 -90.5t-41 -79.5t-48 -71.5t-46.5 -69.5t-40 -73.5t-26.5 -81.5l-248 -1167q34 17 65.5 26t60.5 9q49 0 88 -17.5t64 -46.5t34.5 -70 t-2 -89.5t-38.5 -90t-65 -73t-84 -48.5t-91 -17q-56 0 -97 19t-64.5 53t-30.5 79q-7 43 3 95l283 1332q11 55 30.5 95.5t41.5 75.5t46.5 66t46.5 65t41.5 76.5t30.5 96.5q13 60 7.5 111.5t-30.5 89t-70 58t-110 20.5q-55 0 -111.5 -18.5t-104 -57t-80.5 -98t-44 -139.5 q21 34 45 57t46 36t44 17t42 4q36 0 66 -12.5t49.5 -38t26.5 -61.5t-4 -85q-10 -46 -32.5 -84t-53 -64.5t-68 -40.5t-75.5 -13q-62 2 -103.5 26t-64 66.5t-27 99.5zM602 1877q1 -19 10 -33.5t25.5 -23t40.5 -8.5q23 0 43 9t34 24t24 34.5t14.5 39.5t2.5 39.5t-11 34.5 t-24 25t-36 10q-24 0 -44 -10t-35 -26t-26 -36t-15 -41q-4 -19 -3 -38zM714.5 214q-6.5 -31 1.5 -56.5t29 -43t62 -17.5q40 0 70 17.5t48.5 43t25 56.5t-1.5 56.5t-30 42.5t-62 17t-69.5 -17t-48 -42.5t-25 -56.5z" />
<glyph unicode="&#xe44;" horiz-adv-x="1029" d="M503 2311l43 104q43 -13 68 -31.5t35 -47t8.5 -71.5t-9.5 -107q-6 -34 -11.5 -75t-8 -76.5t4 -60t26.5 -24.5q16 0 31.5 17t30.5 46.5t31.5 66.5t35.5 77q30 63 58.5 113t61.5 85t74.5 54.5t97.5 19.5q35 0 66 -12t51.5 -36.5t28 -61.5t-2.5 -87q-15 -69 -40 -124 t-53 -108q-32 -57 -56 -107t-43 -99.5t-33 -100.5t-27 -109l-245 -1153q35 17 66.5 26t59.5 9q49 0 88.5 -17.5t64.5 -46.5t33.5 -70t-1.5 -90q-12 -48 -39 -89.5t-65 -73t-83.5 -48.5t-93.5 -17q-55 0 -95 19t-64 53t-31 79q-7 43 3 95l280 1320q26 111 63.5 207.5 t88.5 191.5q17 31 33.5 63t31.5 63t26 59.5t15 52.5q11 52 -1 83.5t-56 31.5q-26 0 -48 -16t-43 -45t-41.5 -70t-43.5 -89q-27 -59 -51.5 -107t-51 -82.5t-58.5 -53.5t-75 -19q-46 0 -71.5 21.5t-34.5 65t-4.5 108.5t18.5 149q10 65 3 101.5t-46 43.5zM688.5 214 q-6.5 -31 1.5 -56.5t29.5 -43t61.5 -17.5t70 17.5t48.5 43t25 56.5t-1.5 56.5t-30 42.5t-62 17t-69.5 -17t-48 -42.5t-25 -56.5z" />
<glyph unicode="&#xe45;" horiz-adv-x="1242" d="M339 1107l10 53q17 84 63.5 143.5t113.5 97.5t155 54t190 16q226 0 327.5 -79t68.5 -238l-372 -1755h-120l370 1741q12 54 5 96t-41.5 71.5t-97.5 45.5t-163 16q-94 0 -162 -14t-114.5 -41.5t-74 -69t-38.5 -99.5l-9 -38h-111z" />
<glyph unicode="&#xe46;" horiz-adv-x="1653" d="M703.5 1130.5q-4.5 39.5 5.5 80.5q13 60 46.5 109t79.5 82.5t101 52t111 18.5q67 0 115 -20t80 -47t48.5 -55t20.5 -44q59 79 118 122q58 44 133 44q48 0 79.5 -16.5t48.5 -46t19.5 -71t-9.5 -92.5l-267 -1258q-30 -139 -119.5 -224t-225.5 -117l-50 107q46 3 91 22.5 t83 50t65 72t37 90.5l268 1254q27 122 -43 122q-23 0 -47.5 -14.5t-49.5 -37.5t-50 -52t-47 -58.5t-41.5 -56.5t-32.5 -47q-11 40 -29 84t-45 82t-63.5 63t-83.5 24q11 -9 22.5 -22t19.5 -31.5t10 -43.5t-4 -58q-10 -44 -33.5 -81t-56.5 -64.5t-72 -42.5t-82 -15 q-46 0 -77.5 18t-50 48t-23 69.5zM797 1154.5q2 -19.5 11.5 -34.5t26.5 -24t43 -9t46.5 9t35.5 24t26 34t15 37q3 19 2 38t-9.5 35t-25.5 26t-44 10t-48.5 -9.5t-36.5 -25t-25 -35t-14.5 -38t-2.5 -38z" />
<glyph unicode="&#xe47;" d="M-818 1749l44 207q18 87 48.5 158t83.5 124q54 54 115 85t129 46t141.5 18.5t152.5 3.5q101 0 174.5 14.5t125 35t83 42.5t48.5 41l61 -77q-72 -59 -148 -90.5t-151 -45.5t-147 -15.5t-136 -1.5q-88 0 -162 -11.5t-131.5 -44.5t-98 -93t-60.5 -159l-33 -153l276 219 q17 -23 43.5 -61t63.5 -73.5t84.5 -62t105.5 -27.5q-27 17 -41.5 38.5t-18.5 43.5t-3.5 41.5t3.5 30.5q9 40 31.5 74.5t54 60t69.5 39.5q40 13 80 13q45 0 79.5 -16.5t54.5 -43.5t26 -64t-3 -77q-6 -25 -16.5 -50.5t-27 -49t-37.5 -44.5t-46 -35q-49 -29 -97 -38t-98 -9 q-57 0 -109 12.5t-96.5 35.5t-79.5 54.5t-57 70.5q-22 -17 -48.5 -38t-54.5 -44t-55 -44.5t-50 -39.5h-172zM-69 1977q-5 -26 0.5 -49t25 -38t52.5 -15q34 0 59.5 15t42 38t22.5 49t-0.5 49t-26 38t-53.5 15t-59 -15t-41.5 -38t-21.5 -49z" />
<glyph unicode="&#xe48;" d="M192 2477l80 374h116l-81 -374h-115z" />
<glyph unicode="&#xe49;" d="M-73 2434l14 68q62 9 111.5 37t90.5 82q-34 -13 -54 -15t-30 -2q-35 0 -62 13t-44 36t-24.5 53.5t-0.5 66.5q9 41 30.5 74t51.5 57.5t66 37t70 14.5q46 1 79.5 -13t53.5 -40t26.5 -61.5t-2.5 -75.5q-17 -83 -60.5 -146t-93.5 -102q5 0 36 1t75.5 7.5t94.5 18.5t94 32 q51 26 86.5 60t60.5 71.5t40.5 77.5t25.5 77h96q-6 -29 -16 -60.5t-26.5 -66.5t-41.5 -71.5t-61 -73.5q-54 -56 -123.5 -87.5t-146 -48.5t-157 -21t-157.5 -4q-35 0 -58 1q-24 0 -44 3zM18 2744q2 -17 10.5 -30t25 -20.5t40.5 -7.5q25 0 44 7.5t34 20.5t24.5 30t12.5 34 q3 18 1.5 35t-11 30.5t-25 21.5t-40.5 8q-24 0 -44 -8t-34.5 -21.5t-23.5 -30t-13 -35.5q-3 -17 -1 -34z" />
<glyph unicode="&#xe4a;" d="M-209 2574q0 47 15 102q11 45 34 89t54.5 77.5t70.5 53.5t86 20q38 0 71 -16q35 -16 61 -50q10 9 22 21t29.5 21t37.5 16.5t44 7.5q40 0 63.5 -20t35 -51t12.5 -66.5t-7 -65.5q-11 -50 -29.5 -96t-41.5 -90q46 17 78.5 51.5t55 78.5t36.5 95.5t26 101.5q11 56 23.5 101 t42.5 71h97q-23 -19 -35 -42.5t-19 -50.5q-13 -47 -23 -95t-22.5 -94.5t-31 -92.5t-49.5 -86q-23 -30 -49.5 -52t-54.5 -37t-56 -24.5t-55 -14.5q-37 -9 -73 -9q-11 0 -20.5 1t-20.5 2q15 17 34.5 51.5t36.5 72.5t31 75t19 60q6 21 8 45.5t-1.5 45t-15.5 35t-36 14.5 q-19 0 -47 -18t-65 -51q-11 13 -24 26.5t-29 23.5t-33 16t-36 6q-41 0 -74.5 -33.5t-50.5 -91.5q30 18 56.5 23.5t43.5 5.5q41 0 69 -14.5t43 -36.5t19.5 -50.5t-3.5 -57.5q-7 -34 -25.5 -62.5t-45.5 -50t-60 -33.5t-69 -12q-51 -2 -84.5 17.5t-51 54.5t-17.5 82z M-108 2548.5q2 -15.5 10 -28t22.5 -19.5t35.5 -7q20 0 38 7t30 19.5t20.5 28t11.5 31.5q3 15 1.5 31t-9.5 28t-21.5 19.5t-33.5 7.5q-21 0 -39 -7.5t-31.5 -19.5t-21.5 -27t-12 -32q-3 -16 -1 -31.5z" />
<glyph unicode="&#xe4b;" d="M-17 2691l20 97h256l41 199h116l-43 -199h256l-20 -97h-256l-43 -200h-116l43 200h-254z" />
<glyph unicode="&#xe4c;" d="M-44 2494q-5 40 4 81q14 69 53.5 114t92.5 73.5t116.5 43t126.5 23.5q49 5 99 11.5t98 20.5q33 9 59 22.5t44.5 28t30.5 30t21 30.5q11 -16 16 -25.5t10 -17.5t10 -16.5t15 -22.5q-10 -16 -25 -31.5t-33.5 -29t-38 -24.5t-37.5 -15q-29 -9 -63 -17.5t-67 -15.5t-64 -11.5 t-51 -5.5q23 -16 35 -37.5t16.5 -44.5t2.5 -45.5t-7 -42.5q-11 -52 -36.5 -92t-63 -68t-83 -43t-97.5 -15q-58 0 -97.5 19.5t-60.5 51t-26 71.5zM57.5 2520.5q3.5 -23.5 16 -43t34.5 -30t55 -10.5t61 11.5t48.5 30t34 42.5t19.5 50t2.5 49.5t-16 43t-35 31t-54.5 11.5 q-34 0 -61.5 -11.5t-48 -31t-34 -44.5t-19.5 -49q-6 -26 -2.5 -49.5z" />
<glyph unicode="&#xe4d;" d="M-140 1903q-6 45 3 93q10 47 35.5 92.5t65 81t91 57t115.5 21.5q63 0 105 -21.5t66.5 -57t31 -81t-3.5 -92.5t-35 -92.5t-64.5 -81.5t-91.5 -57.5t-115 -21.5t-106 21.5t-67 57.5t-30 81zM-35 1938.5q4 -26.5 18 -47.5t38.5 -33.5t62.5 -12.5t68 12.5t52.5 33.5t37 47.5 t21.5 54.5q6 28 2.5 55.5t-18 48.5t-39 34t-61.5 13t-67.5 -13t-53.5 -34t-38 -48t-21 -55.5t-2 -55z" />
<glyph unicode="&#xe4e;" d="M-428 1893q13 59 53 107t95 83.5t117.5 60t118.5 35.5q-29 3 -56 14t-48 27.5t-31 40.5t-4 54q10 46 47 86.5t96.5 70t136.5 46.5t169 17q40 0 95 -5t134 -28l-20 -88q-12 6 -32.5 12t-50.5 12t-67.5 9.5t-79.5 3.5q-46 0 -95.5 -8.5t-91.5 -25t-71.5 -40t-35.5 -55.5 q-5 -27 10.5 -50.5t46.5 -40.5t69.5 -26t78.5 -9l-14 -64q-83 -4 -159.5 -22.5t-137.5 -48t-101 -69.5t-50 -87q-7 -32 2 -53.5t28.5 -34t46 -18.5t55.5 -6q27 0 54 6t50 18t39 28q14 17 20 37q7 28 -5 54l96 29q14 -24 15.5 -50.5t-3.5 -46.5q-10 -35 -37.5 -63.5 t-66.5 -50t-88 -33t-99 -11.5t-96.5 8.5t-79.5 30t-48 56.5t-5 88z" />
<glyph unicode="&#xe4f;" horiz-adv-x="1889" d="M390.5 550.5q-1.5 90.5 18.5 181.5q20 92 59.5 181t97 170.5t133.5 151t169 120.5t200 80t230 29q122 0 218 -29t166.5 -80t117 -120.5t70 -151t25 -170.5t-18.5 -180.5t-60 -182t-98 -172t-133.5 -150.5t-168 -120t-199.5 -79.5t-229 -28.5q-123 0 -218.5 28.5 t-166.5 79.5t-117.5 120t-70 150.5t-25 172zM511.5 578.5q0.5 -75.5 20.5 -142.5t59.5 -125.5t98.5 -100t139 -66t183 -24.5t193.5 24.5t167.5 66t140.5 100t112.5 125.5t82.5 143t48.5 152q16 77 15.5 151.5t-20.5 143t-59.5 127t-98 101.5t-139.5 67.5t-182 24.5 q-103 0 -193 -24.5t-168 -67.5t-142 -101.5t-112.5 -127t-82 -143.5t-49.5 -151q-15 -77 -14.5 -152.5zM706.5 554.5q17.5 -78.5 64 -136.5t117 -92t159.5 -34q88 0 174 34t156 92t121 136.5t69 167.5q19 89 2.5 167.5t-63 136.5t-118 92.5t-160.5 34.5q-58 0 -116 -16 t-111.5 -44t-101.5 -67t-86 -87t-65 -103t-40 -114q-19 -89 -1.5 -167.5zM827 602q-12 57 1 122q13 64 50 121t88.5 98.5t114 66.5t126.5 25t115.5 -25t85 -66.5t45 -98.5t-1.5 -121q-12 -65 -49.5 -122t-89 -99.5t-113 -66.5t-125.5 -24t-116.5 24t-85.5 66.5t-45 99.5z " />
<glyph unicode="&#xe50;" horiz-adv-x="1530" d="M255 326.5q-15 101.5 11 216.5q24 113 81.5 214.5t149 177t216.5 119.5t285 44q159 0 265.5 -44t166 -119.5t75 -177t-8.5 -214.5q-26 -115 -84 -216.5t-150 -177.5t-217 -120q-127 -45 -284 -45q-160 0 -266.5 44.5t-165.5 120.5t-74 177.5zM375 364q10 -84 56.5 -146 t133.5 -98t219 -36q128 0 229 36t175.5 98t121.5 146t67 179t9.5 177t-58 143.5t-134 97.5t-218 36t-233 -36t-175 -97.5t-119.5 -143.5t-64 -177q-20 -95 -10 -179z" />
<glyph unicode="&#xe51;" horiz-adv-x="1522" d="M242 296q-7 90 14 193q24 113 83 218t151.5 186t216.5 129.5t280 48.5q153 0 259.5 -40.5t168 -115t79.5 -179t-10 -228.5q-20 -95 -49 -172t-64 -140.5t-74.5 -114.5t-79.5 -90q-43 -44 -89.5 -79.5t-97.5 -61.5l-75 63q85 44 159 117q37 37 74.5 83.5t70 106t60.5 130 t45 155.5q22 101 9 186t-63 146.5t-136 95.5t-210 34q-115 0 -212 -35t-173.5 -98t-128 -149t-72.5 -187q-20 -95 -12.5 -170.5t42 -129.5t94 -82.5t144.5 -28.5q76 0 134 24.5t109 78.5q-41 -16 -66 -18t-35 -2q-49 0 -88 15t-65.5 44.5t-36.5 70t1 92.5q12 51 39.5 92.5 t66.5 71t84.5 45t91.5 15.5q47 0 88 -16.5t67 -49t36.5 -80t-2.5 -105.5q-16 -69 -50.5 -137t-91.5 -121.5t-135.5 -86.5t-180.5 -33q-120 0 -199.5 40t-121.5 108.5t-49 160.5zM700 342q4 -23 16 -41t35 -29.5t56 -11.5q32 0 58.5 11.5t46.5 29.5t34 41.5t18 46.5 q6 24 3 47.5t-16 42.5t-35 30.5t-55 11.5t-60 -11.5t-47 -30.5t-34 -42q-14 -25 -18 -48q-6 -24 -2 -47z" />
<glyph unicode="&#xe52;" horiz-adv-x="1580" d="M313.5 188q-3.5 61 12.5 138l197 927q12 54 10.5 100t-19.5 80t-56 55q-38 22 -99 25q16 17 28 29t22.5 23t21.5 23t25 26q59 -8 102 -36t68.5 -71t32 -97t-6.5 -117l-207 -971q-10 -49 -6.5 -87t21.5 -65.5t50 -42.5t78 -15h579q36 0 70 15.5t64 43.5t52.5 67t32.5 85 l104 492q7 33 5.5 61t-12 49.5t-30.5 33.5t-50 12q-46 0 -79.5 -18.5t-57 -45t-37 -55t-19.5 -50.5h-103q3 26 3 54.5t-8.5 53.5t-27.5 42.5t-54 17.5q-32 0 -60 -18t-51.5 -46.5t-41.5 -65t-30.5 -73t-21 -71.5t-11.5 -61q34 31 72.5 47t84.5 16q51 0 88.5 -16.5t59 -44.5 t28 -66.5t-3.5 -84.5t-34 -84.5t-58 -67t-78.5 -45t-93.5 -16.5q-84 0 -129 31t-62 83.5t-12 120t22 140.5q8 37 21 82t34 91.5t48.5 90t64 77t83 54.5t102.5 21q27 0 52 -8.5t46 -25t33.5 -43.5t14.5 -66q50 80 110 111.5t126 31.5q67 0 108.5 -21.5t62 -56.5t23.5 -81.5 t-7 -96.5l-103 -483q-14 -66 -45.5 -125.5t-76 -104t-101 -70t-120.5 -25.5h-616q-78 0 -128.5 22t-76.5 63.5t-29.5 102.5zM787.5 440.5q3.5 -22.5 15.5 -40t33 -28t52 -10.5q30 0 56 10.5t45 28t31 40t18 45.5t3 46t-15 40t-33.5 28t-51.5 11q-32 0 -57 -11t-44 -28 t-32 -40t-19 -46q-5 -23 -1.5 -45.5z" />
<glyph unicode="&#xe53;" horiz-adv-x="1511" d="M258 290q1 63 10 131t24 134q23 106 63 199t98 162t131.5 108.5t161.5 39.5q56 0 97.5 -14.5t69.5 -40t44.5 -61.5t23.5 -77q24 40 54 75t66.5 60.5t81 41.5t93.5 16q72 0 123 -23.5t79.5 -66t35.5 -101.5q5 -59 -10 -132l-157 -741h-119l158 741q8 43 7.5 84.5t-15 73.5 t-43.5 51.5t-77 19.5q-47 0 -90.5 -27.5t-79.5 -70.5t-61.5 -96.5t-36.5 -104.5l-23 -112h-110l21 105q11 51 9 106t-18.5 99.5t-51.5 73t-89 28.5q-49 0 -89.5 -21.5t-73.5 -55t-57.5 -77t-43.5 -88.5t-31.5 -88t-19.5 -75q-15 -71 -21.5 -127t-8.5 -116q29 42 60.5 65.5 t63 36.5t59 16.5t49.5 3.5q46 0 83.5 -16t63.5 -44.5t35.5 -69t-0.5 -90.5q-11 -48 -35 -90.5t-61 -75t-88.5 -51.5t-114.5 -19q-70 0 -116.5 24t-74 64t-39 95t-10.5 118zM423 165.5q3 -23.5 16 -42.5t35 -29.5t55 -10.5q34 0 61.5 11.5t49 30.5t35 43t19 49.5t2 49 t-15.5 42t-35 30t-56 11.5q-34 0 -61.5 -11.5t-48.5 -30.5t-35 -43q-12 -25 -18 -51q-6 -25 -3 -48.5z" />
<glyph unicode="&#xe54;" horiz-adv-x="1605" d="M192.5 378q0.5 62 13.5 124q30 142 96 247.5t158.5 177t208 107.5t242.5 36q96 0 184.5 -6.5t178.5 -6.5q92 0 170.5 13t145.5 45.5t122 89t98 145.5q22 44 40 92t29 102q26 -15 49 -30t45 -31q-4 -19 -15.5 -56t-33 -83t-52 -97.5t-74 -99t-101 -88.5t-130.5 -65 q-71 -26 -138.5 -34t-132.5 -8q-108 0 -206 6.5t-196 6.5q-109 0 -202.5 -29t-166.5 -88t-124.5 -145.5t-74.5 -200.5q-17 -80 -9 -155t38 -132.5t82 -91.5t124 -34q31 0 72 7t82 18.5t78.5 24.5t61.5 27q-16 7 -41 22.5t-52 40t-52.5 56t-44.5 69.5t-26 81.5t3 92.5 q12 48 37.5 92t63.5 75t85 50t101.5 19t94.5 -19.5t63 -51t30.5 -71.5t-0.5 -83q-10 -44 -33.5 -85.5t-58.5 -73t-82.5 -50t-105.5 -18.5q28 -42 66 -64t92 -36q37 -10 73 -17.5t69.5 -14.5t66.5 -16.5t63 -23.5q26 -13 42.5 -31.5t23.5 -28.5l-83 -79q-12 12 -29 28.5 t-45.5 32t-69.5 26.5t-96 11q-32 0 -65 -7.5t-64.5 -19t-63.5 -23.5t-65 -23q-31 -12 -62.5 -19t-61.5 -11.5t-56.5 -5.5t-48.5 -1q-68 0 -122 20.5t-93 57t-65.5 86.5t-38.5 106.5t-11.5 118.5zM748.5 484.5q3.5 -24.5 16.5 -43t36 -29t54 -10.5q33 0 60 11.5t48.5 30.5 t35 43.5t19.5 48.5q6 26 2.5 49.5t-16 42t-34.5 30t-53 11.5q-33 0 -61.5 -11.5t-50 -30t-35.5 -43.5t-19 -49q-6 -26 -2.5 -50.5z" />
<glyph unicode="&#xe55;" horiz-adv-x="1687" d="M192.5 378q0.5 62 13.5 124q27 130 86.5 231t142.5 171.5t186 110.5t217 50q-31 59 -16 130q10 49 38 90.5t66.5 73t86 50t95.5 18.5q49 0 88.5 -18.5t64.5 -50t35 -73.5t0 -90q-9 -40 -30.5 -75t-52.5 -63h61q92 0 170.5 13t145.5 45.5t122 89t98 145.5q22 44 40 92 t29 102l94 -61q-4 -19 -15.5 -56t-33 -83t-52 -97.5t-74 -99t-101 -88.5t-130.5 -65q-71 -26 -138.5 -34t-132.5 -8q-108 0 -206 6.5t-196 6.5q-109 0 -202.5 -29t-166.5 -88t-124.5 -145.5t-74.5 -200.5q-17 -80 -9 -155t38 -132.5t82 -91.5t124 -34q31 0 72 7t82 18.5 t78.5 24.5t61.5 27q-16 7 -41 22.5t-52 40t-52.5 56t-44.5 69.5t-26 81.5t3 92.5q12 48 37.5 92t63.5 75t85 50t101.5 19t94.5 -19.5t63 -51t30.5 -71.5t-0.5 -83q-10 -44 -33.5 -85.5t-58.5 -73t-82.5 -50t-105.5 -18.5q28 -42 66.5 -64t91.5 -36q37 -10 73 -17.5 t69.5 -14.5t66.5 -16.5t63 -23.5q26 -13 42.5 -31.5t23.5 -28.5l-83 -79q-12 12 -29 28.5t-45.5 32t-69.5 26.5t-96 11q-32 0 -65 -7.5t-64.5 -19t-63.5 -23.5t-65 -23q-31 -12 -62.5 -19t-61.5 -11.5t-56.5 -5.5t-48.5 -1q-68 0 -122 20.5t-93 57t-65.5 86.5t-38.5 106.5 t-11.5 118.5zM748.5 484.5q3.5 -24.5 16.5 -43t36 -29t54 -10.5q33 0 60 11.5t48.5 30.5t35 43.5t19.5 48.5q6 26 2.5 49.5t-16 42t-34.5 30t-53 11.5q-33 0 -61.5 -11.5t-50 -30t-35.5 -43.5t-19 -49q-6 -26 -2.5 -50.5zM922 1143q5 -25 20 -42.5t37.5 -28.5t51.5 -11 t56 11t49 28.5t38 42t23 52.5q6 28 0 52t-21 42t-37 28.5t-51 10.5q-28 0 -56 -10.5t-50 -28.5t-38 -42t-21.5 -51.5t-0.5 -52.5z" />
<glyph unicode="&#xe56;" horiz-adv-x="1591" d="M350 1510l98 80q8 -6 24.5 -23t35 -47t36 -72t29.5 -98q13 -66 16.5 -131t1.5 -130t-10 -128t-16 -122q60 66 128 111t138 72.5t138.5 39.5t128.5 12q128 0 230 -35t168.5 -102.5t92 -166.5t-2.5 -229q-29 -133 -94.5 -235.5t-160 -172.5t-213 -106t-251.5 -36 q-60 0 -122.5 9.5t-119 29t-104.5 49.5t-79.5 71.5t-43.5 96.5t2 122q12 51 37.5 92.5t63 72.5t83.5 48q48 17 100 17t91 -20t61.5 -50.5t30.5 -71.5t0 -84q-10 -48 -34.5 -87.5t-57.5 -67.5t-71 -44.5t-76 -19.5q13 -8 38.5 -17.5t60.5 -18.5t76.5 -15t84.5 -6 q99 0 192.5 27.5t171.5 82.5t134.5 138.5t80.5 195.5q20 95 5 174.5t-63.5 136.5t-131 88t-193.5 31q-152 0 -272 -62q-120 -60 -210 -168h-167q7 33 16 88.5t15.5 123t9 141t-6.5 142.5q-7 62 -20.5 108.5t-30 79.5t-34.5 54t-34 32zM498.5 322.5q3.5 -23.5 16.5 -43 t35.5 -30t54.5 -10.5q33 0 60 11.5t48.5 30.5t35 43.5t19.5 48.5q6 26 2 49.5t-16 43t-34 30t-54 10.5q-33 0 -61.5 -11.5t-50 -30t-35 -42.5t-19.5 -50q-5 -26 -1.5 -49.5z" />
<glyph unicode="&#xe57;" horiz-adv-x="1748" d="M249.5 290q-2.5 63 5.5 131t22 134q23 106 64.5 199t99 162t129.5 108.5t161 39.5q43 0 78.5 -13t60.5 -39.5t38 -65t13 -89.5q16 31 41 67.5t60 68t81.5 51.5t106.5 20q56 0 94.5 -23t61.5 -59.5t33.5 -84.5t12 -100t-5 -103.5t-16.5 -95.5q-26 -123 -61 -211 q-35 -87 -68 -147q-38 -68 -78 -117q83 27 146.5 78.5t112 116.5t83 140t58.5 150.5t40.5 146t29.5 126.5q13 60 27.5 125.5t33.5 131t45 129t60 120t78.5 103t103.5 80.5l55 -77q-53 -37 -90.5 -83.5t-66.5 -99.5t-47.5 -109t-32.5 -111t-24 -107t-20 -95 q-23 -93 -49 -186.5t-59.5 -181.5t-78.5 -167q-44 -78 -104 -143q-60 -63 -123 -103.5t-123 -64t-113 -32.5t-91 -9h-29.5t-26.5 2q47 60 91.5 123t81.5 135t68 154.5t52 179.5q15 69 20 134.5t-5 117t-34.5 83t-68.5 31.5q-36 0 -67.5 -16.5t-59.5 -43t-49.5 -60 t-38.5 -68.5t-28.5 -68t-15.5 -59l-12 -51h-110l10 51q3 16 9 45.5t8 63.5t-1 71.5t-16 66.5t-38.5 48.5t-67.5 19.5q-51 0 -97.5 -28.5t-86.5 -81.5t-72 -129t-51 -169q-4 -20 -10 -49t-10 -62t-7.5 -68t-3.5 -68q22 37 52 63t62.5 42.5t64.5 24t58 7.5q51 0 90.5 -17 t64.5 -47t33.5 -71t-1.5 -88q-11 -50 -37 -93t-64.5 -73.5t-88.5 -47.5t-107 -17q-67 0 -113.5 24t-75.5 64t-41.5 95t-15 118zM421.5 166q3.5 -24 15.5 -43t35 -29.5t56 -10.5t60 11.5t47.5 30.5t35.5 43q13 24 18 49q6 26 3 49.5t-15.5 42t-35 30t-53.5 11.5 q-33 0 -61 -11.5t-49.5 -30.5t-35.5 -43.5t-19 -48.5q-5 -26 -1.5 -50z" />
<glyph unicode="&#xe58;" horiz-adv-x="1638" d="M244 384.5q2 61.5 15 126.5q30 144 93 248.5t153.5 173t206.5 101.5t253 33q45 0 87 -2.5t83.5 -4.5t83.5 -3.5t87 -1.5q85 0 155.5 26.5t126 70t97.5 98t72.5 109t48 104t26.5 83.5l93 -65q-10 -45 -34.5 -102.5t-63 -116.5t-92 -115.5t-121.5 -100.5t-149.5 -70 t-177.5 -26q-49 0 -94.5 1t-88.5 3.5t-86.5 4.5t-89.5 2q-226 0 -363 -111.5t-185 -336.5q-17 -83 -13.5 -153.5t25 -123.5t59 -86.5t87.5 -40.5q-6 51 -4 95.5t9 75.5q9 45 27 80.5t40.5 60.5t52 38.5t61.5 13.5q40 0 73.5 -15.5t60.5 -40.5t50 -58t44 -67q23 -36 47.5 -71 t52.5 -63t58.5 -45t63.5 -17q39 0 75.5 16.5t67 48t56.5 75.5t43 101q-27 -20 -53 -31t-48 -17t-40.5 -7.5t-31.5 -1.5q-50 0 -89.5 16.5t-64.5 45t-33.5 69.5t2.5 91q12 51 40.5 93.5t67 71.5t85.5 45t93 16q69 0 112 -27t65 -73.5t24 -109t-12 -130.5t-44 -137t-77.5 -127 t-111.5 -94.5t-147 -36.5q-53 0 -97.5 21.5t-81.5 55t-66.5 73.5t-52.5 79q-16 27 -31.5 52.5t-32 46.5t-35 34t-38.5 13q-16 0 -26.5 -9.5t-18 -24t-12.5 -31.5t-7 -31q-8 -32 -10 -67.5t0 -70t9.5 -65t17.5 -53.5q-23 -10 -54.5 -16t-67.5 -6q-54 0 -107.5 19.5 t-96.5 60.5q-38 38 -61.5 87t-32.5 105.5t-7 118zM1157.5 451.5q3.5 -23.5 16.5 -43t36 -30t54 -10.5q33 0 61 11t48.5 30.5t34 44t19.5 48.5q6 26 3 49.5t-16 42.5t-35 30t-53 11q-33 0 -61.5 -11.5t-50 -30t-35.5 -43t-19 -50.5q-6 -25 -2.5 -48.5z" />
<glyph unicode="&#xe59;" horiz-adv-x="1756" d="M271 290.5q-11 98.5 18 231.5q23 111 73 210.5t123 174.5t167 119.5t209 44.5q93 0 154.5 -28t101.5 -71.5t62 -96.5t35 -104q12 61 34 115.5t54 94.5t72 63.5t86 23.5q31 0 52.5 -12t36.5 -30.5t26 -40t21 -39.5t21.5 -30t25.5 -12q30 0 61.5 30.5t61.5 80.5t58 113 t51 126.5t40 122.5t26 102q4 17 7.5 37t4.5 34l95 -76q-20 -88 -48.5 -174t-63.5 -169q-31 -76 -70.5 -138.5t-81 -108t-83.5 -70.5t-79 -25q-28 0 -47 14t-34 33t-26.5 41t-23.5 41.5t-24.5 32.5t-29.5 13t-32.5 -11.5t-29.5 -31t-24.5 -43.5t-19 -49t-14.5 -47.5 l-10 -37.5q-7 -35 -10.5 -68.5t-3.5 -64.5q1 -49 6 -104t16 -110t28.5 -106t45 -92.5t64.5 -68.5t89 -33l-78 -96q-51 8 -88.5 30.5t-65 56.5t-47.5 76t-33.5 87.5t-23 92t-16.5 88.5q-9 47 -17.5 96.5t-24.5 100.5q-24 80 -48.5 144t-58.5 107.5t-83 66.5t-121 23 q-86 0 -157 -40.5t-126 -104t-92 -144t-54 -163.5q-19 -86 -15.5 -163.5t28.5 -134.5t73 -90t119 -33q23 0 50.5 3.5t57.5 14.5t61.5 31t59.5 51q-23 -11 -45.5 -15.5t-44.5 -4.5q-47 0 -86.5 14.5t-65 42.5t-35.5 69.5t1 95.5q9 41 32 80.5t58 69.5t82 48.5t103 18.5 q60 0 100.5 -20t62 -52.5t26.5 -75t-5 -89.5q-17 -83 -56 -153t-95.5 -122.5t-129.5 -81.5t-158 -29q-87 0 -155 33t-108.5 99.5t-51.5 165zM659.5 346.5q4.5 -23.5 16.5 -42.5t35 -30t55.5 -11t60 11.5t48 31t35 43.5t18.5 49q6 25 3 48.5t-16 43t-35 30.5t-53 11 q-33 0 -61 -11.5t-49.5 -30.5t-36 -44t-19.5 -49q-6 -26 -1.5 -49.5z" />
<glyph unicode="&#xe5a;" horiz-adv-x="1741" d="M326 800q-10 52 4 115q16 70 50.5 122.5t78.5 86t93.5 50t92.5 16.5q16 0 32.5 -1.5t44.5 -5.5l-20 -95q-11 2 -22 2.5t-21 0.5q-40 0 -75 -12t-63.5 -34.5t-48.5 -55t-29 -74.5q-8 -37 -3 -68.5t21.5 -54.5t44 -35.5t66.5 -12.5q77 0 155 54t150.5 150.5t136.5 228 t114 287.5h326l-311 -1464h-119l289 1360h-116q-29 -84 -68 -170.5t-88 -167.5t-104.5 -152t-118.5 -123t-132.5 -83t-142.5 -31q-58 0 -104 20.5t-74.5 57.5t-38.5 89zM1409 0l310 1464h120l-310 -1464h-120z" />
<glyph unicode="&#xe5b;" horiz-adv-x="2551" d="M304 471.5q-12 111.5 13 234.5q19 88 53.5 163t80 136.5t100.5 109.5t115 80t123 49t126 17q95 0 157.5 -33t96.5 -88t40.5 -128.5t-11.5 -153.5q-17 -83 -55.5 -150t-90 -116.5t-112.5 -76t-122 -26.5q-40 0 -72 14.5t-53.5 40t-30 61.5t-0.5 79q9 42 32.5 78.5t55.5 64 t71.5 42.5t80.5 15q50 0 93 -21q42 -22 63 -74q23 79 25 145t-17 113.5t-62 73.5t-112 26q-70 0 -138.5 -31.5t-128 -88.5t-104.5 -140t-66 -185q-20 -94 -14.5 -181.5t40.5 -154.5t102.5 -106.5t170.5 -39.5q115 0 212.5 39.5t174.5 116t132 187.5t87 254q9 42 15 84.5 t11 89.5q184 -46 184 -389q23 42 39.5 87t28.5 93.5t20.5 98.5t17.5 100q34 -13 65 -38t57.5 -63t45.5 -92q19 -56 31 -127q13 40 24 73.5t20 65t16 63.5t13 72q73 -30 110.5 -104.5t52.5 -199.5q20 21 35 52.5t25.5 66t16.5 66.5t6 56q27 -27 67.5 -62.5t87 -69.5t96 -59 t98.5 -29q-61 -17 -106 -17q-120 0 -203 106q-26 -89 -63 -139t-83 -76q-7 3 -16.5 21t-19 43.5t-19.5 56.5t-19 61t-15 55t-8 39q-25 -87 -46.5 -147t-41.5 -98.5t-40.5 -55t-43.5 -16.5q-3 0 -7 14t-9 38t-11 54t-10 61q-5 27 -10 48.5t-10 41t-12 38.5t-17 42 q-103 -377 -219 -377q-2 0 -7 15t-12.5 40t-15.5 54t-15.5 58t-14 52.5t-10.5 34.5q-28 -130 -89.5 -240t-153.5 -191t-210.5 -126t-259.5 -45q-130 0 -220 48.5t-140 131.5t-62 194.5zM752 681q-10 -46 15 -72.5t71 -26.5q59 0 92.5 30t43.5 76q4 21 0 39.5t-15.5 33 t-30.5 22.5t-44 8q-49 0 -84.5 -28.5t-47.5 -81.5z" />
<glyph unicode="&#xe64;" />
<glyph unicode="&#x2000;" horiz-adv-x="1513" />
<glyph unicode="&#x2001;" horiz-adv-x="3026" />
<glyph unicode="&#x2002;" horiz-adv-x="1513" />
<glyph unicode="&#x2003;" horiz-adv-x="3026" />
<glyph unicode="&#x2004;" horiz-adv-x="1008" />
<glyph unicode="&#x2005;" horiz-adv-x="756" />
<glyph unicode="&#x2006;" horiz-adv-x="504" />
<glyph unicode="&#x2007;" horiz-adv-x="504" />
<glyph unicode="&#x2008;" horiz-adv-x="378" />
<glyph unicode="&#x2009;" horiz-adv-x="605" />
<glyph unicode="&#x200a;" horiz-adv-x="168" />
<glyph unicode="&#x200b;" />
<glyph unicode="&#x2010;" horiz-adv-x="1368" d="M316 573l29 138h981l-29 -138h-981z" />
<glyph unicode="&#x2011;" horiz-adv-x="1368" d="M316 573l29 138h981l-29 -138h-981z" />
<glyph unicode="&#x2012;" horiz-adv-x="1368" d="M316 573l29 138h981l-29 -138h-981z" />
<glyph unicode="&#x2013;" horiz-adv-x="1302" d="M123 582l29 132h1302l-27 -132h-1304z" />
<glyph unicode="&#x2014;" horiz-adv-x="2342" d="M123 582l29 132h2342l-29 -132h-2342z" />
<glyph unicode="&#x2018;" horiz-adv-x="662" d="M436.5 1356q-1.5 38 6.5 77q9 37 23 75t35.5 74.5t47.5 70.5t54 62q49 45 105 74t114 43l-13 -66q-43 -17 -77 -43.5t-60.5 -58t-48 -67t-38.5 -73.5q26 9 41 10.5t23 1.5q33 0 58 -12t41 -33t21 -49q6 -26 0 -58q-8 -40 -28 -70t-47.5 -50.5t-61 -30.5t-69.5 -10 q-45 0 -72.5 18.5t-40 47.5t-14 67z" />
<glyph unicode="&#x2019;" horiz-adv-x="614" d="M435 1208l14 66q43 17 76.5 43t60.5 58t48.5 68t39.5 73q-26 -9 -41 -10.5t-24 -1.5q-33 0 -58.5 12.5t-41.5 33t-21.5 47.5t1.5 59q9 40 29 70t47 50t60 31t70 11q46 0 73 -19t40 -49t13.5 -67t-7.5 -76q-9 -37 -23.5 -75.5t-35 -75t-46 -70t-55.5 -62.5 q-49 -46 -104 -73.5t-115 -42.5z" />
<glyph unicode="&#x201c;" horiz-adv-x="1284" d="M507.5 1356q-1.5 38 7.5 77q8 37 22.5 75t36 74.5t47 70.5t54.5 62q49 45 104.5 74t114.5 43l-13 -66q-43 -17 -77.5 -43.5t-61 -58t-47.5 -67t-39 -73.5q26 9 41 10.5t24 1.5q33 0 58 -12t40.5 -33t21.5 -49q6 -26 0 -58q-9 -40 -29 -70t-47 -50.5t-60.5 -30.5 t-69.5 -10q-46 0 -73 18.5t-40 47.5t-14.5 67zM1026 1356q-2 38 6 77q9 37 24 75t36 74.5t46.5 70.5t55.5 62q49 45 104 74t115 43l-14 -66q-43 -17 -77 -43.5t-61 -58t-48.5 -67t-38.5 -73.5q26 9 41 10.5t23 1.5q33 0 59 -12t41.5 -33t20.5 -49q5 -26 -1 -58 q-8 -40 -28 -70t-47 -50.5t-61 -30.5t-69 -10q-46 0 -73.5 18.5t-40 47.5t-13.5 67z" />
<glyph unicode="&#x201d;" horiz-adv-x="1284" d="M521 1223l14 65q43 18 76.5 43.5t60.5 57.5t48.5 68t38.5 73q-25 -8 -40 -9.5t-24 -1.5q-33 0 -58 12t-40.5 32.5t-21.5 48t0 58.5q8 40 28 70t47.5 50t60.5 31t70 11q46 0 73 -18.5t40 -48.5t13.5 -67.5t-8.5 -75.5q-8 -38 -22.5 -76.5t-35 -75t-46.5 -70t-56 -62.5 q-48 -45 -103 -73t-115 -42zM1040 1223l14 65q43 18 76.5 43.5t60.5 57.5t48 68t38 73q-26 -8 -40 -9.5t-23 -1.5q-33 0 -58.5 12t-41.5 32.5t-21.5 48t1.5 58.5q9 40 28 70t46 50t60 31t70 11q46 0 73.5 -18.5t41 -48.5t14 -67.5t-7.5 -75.5q-9 -38 -23.5 -76.5t-35 -75 t-46.5 -70t-57 -62.5q-49 -45 -103 -73t-114 -42z" />
<glyph unicode="&#x2022;" horiz-adv-x="1309" d="M419 554.5q-10 71.5 7 146.5q16 74 55.5 145.5t101.5 127.5t143.5 90t180.5 34q98 0 166 -34t105.5 -90t46.5 -127.5t-6.5 -146t-55.5 -146t-101.5 -128t-143 -90t-180.5 -33.5t-167 33.5t-105 90t-47 128z" />
<glyph unicode="&#x202f;" horiz-adv-x="605" />
<glyph unicode="&#x205f;" horiz-adv-x="756" />
<glyph unicode="&#x20ac;" horiz-adv-x="1352" d="M206 613l40 109h124l39 185h-142l42 108h136q55 146 145.5 260.5t202.5 193t241 119.5t262 41q91 0 162 -16q71 -17 128 -51q-6 -13 -9 -21t-6.5 -16t-7.5 -16.5t-10 -19.5l-20 -48q-54 43 -120.5 62.5t-144.5 19.5q-105 0 -208 -36.5t-192.5 -103t-162 -161 t-116.5 -207.5h751l-44 -108h-744l-40 -185h702l-43 -109h-656q-6 -118 22.5 -212.5t86 -161t139.5 -101.5t184 -35q88 0 162.5 15.5t140.5 54.5l-26 -127q-67 -26 -136.5 -37.5t-143.5 -11.5q-149 0 -257.5 43t-180 124t-106 194.5t-34.5 254.5h-160z" />
<glyph unicode="&#x2122;" horiz-adv-x="2471" d="M632 1606l22 99h689l-22 -99h-279l-161 -765h-122l162 765h-289zM1334 841l183 864h202l81 -707l376 707h201l-183 -864h-116l166 778h-10q-46 -97 -98 -194t-106 -194.5t-107 -195t-98 -194.5h-122l-79 778h-10l-164 -778h-116z" />
<glyph unicode="&#x25cc;" horiz-adv-x="2452" d="M819 1051l183 80q-7 -23 -14 -44.5t-13 -44.5q-4 -18 -5.5 -36.5t-2.5 -38.5zM899 601l99 171q17 -36 39.5 -63.5t49.5 -53.5zM1117 1497l151 -58q-40 -23 -74 -50.5t-66 -60.5zM1270 571q18 -3 39.5 -5.5t40.5 -2.5q20 0 36.5 2.5t33.5 5.5l-106 -153zM1463 1513 l119 163l47 -160q-17 3 -37 3h-39q-23 0 -45 -1.5t-45 -4.5zM1642 648q35 23 67.5 48t60.5 55l12 -150zM1806 1439l193 58l-100 -171q-17 32 -39 59.5t-54 53.5zM1909 974q6 16 12.5 33t10.5 35q4 20 6.5 41.5t3.5 40.5l136 -82z" />
<glyph unicode="&#x25fc;" horiz-adv-x="1224" d="M0 0v1224h1224v-1224h-1224z" />
<glyph unicode="&#xf700;" horiz-adv-x="1355" d="M394 575q-9 40 1 84q11 49 36 89.5t62.5 70.5t82.5 47.5t95 17.5q57 0 97.5 -17.5t65 -47.5t33.5 -73q10 -45 5 -100l-25 -430q-5 -66 18.5 -93t72.5 -27q54 0 81.5 25.5t38.5 77.5l135 629q8 41 5 72t-17 54.5t-41 40.5t-69 30q-63 20 -132.5 30t-143.5 14.5t-149 3.5 t-147 -1q-29 0 -50 4.5t-34 15.5t-16.5 28.5t1.5 46.5q16 69 64 125t116 96.5t150 61.5t165 21q55 0 103.5 -11t97.5 -25t99.5 -25t104.5 -11q11 0 28.5 2.5t37.5 9t41.5 16.5t42.5 23q6 -16 9.5 -26.5t7 -20.5t7 -19.5t7.5 -23.5q-42 -26 -91.5 -41t-95.5 -15 q-73 0 -126.5 11.5t-100 24.5t-91.5 24.5t-101 11.5q-67 0 -127 -15t-106.5 -39t-76 -55t-34.5 -63q-6 -26 12.5 -31.5t49.5 -5.5q75 0 141.5 -1.5t129.5 -6t124.5 -13t125.5 -23.5q69 -16 113 -39.5t67 -59.5t27 -83q6 -47 -8 -110l-136 -637q-13 -55 -39.5 -94.5 t-63.5 -63t-80.5 -34.5t-89.5 -11q-53 0 -87.5 16.5t-55 44t-28.5 64t-5 76.5l17 306q-26 -18 -50 -29t-46.5 -17.5t-42.5 -9t-35 -2.5q-46 0 -83.5 17.5t-61 47.5t-32.5 70zM509 620q3 -21 13.5 -37.5t30.5 -27t50 -10.5t54 10.5t42.5 27t30.5 37.5t16 44q5 22 2 43 t-13.5 37.5t-30.5 26.5t-50 10q-31 0 -55 -10t-42 -26.5t-30 -38t-16 -42.5q-5 -23 -2 -44z" />
<glyph unicode="&#xf701;" d="M-1138 1740l24 110q17 80 65 141.5t120 104.5t164.5 65.5t196.5 22.5q128 0 216.5 -29.5t140.5 -79.5t70 -118.5t1 -147.5l-16 -69h-982zM-998 1833h743l5 25q4 22 2 48t-15.5 51.5t-38 49.5t-64 42.5t-94.5 29.5q-55 10 -129 10q-73 0 -141 -13.5t-121 -40t-90 -67 t-49 -95.5z" />
<glyph unicode="&#xf702;" d="M-1138 1740l24 110q17 80 65 141.5t120 104.5t164.5 65.5t196.5 22.5q135 0 225.5 -32.5t142.5 -86.5l57 272h114l-127 -597h-982zM-998 1833h743l5 25q4 22 2 48t-15.5 51.5t-38 49.5t-64 42.5t-94.5 29.5q-55 10 -129 10q-73 0 -141 -13.5t-121 -40t-90 -67t-49 -95.5z " />
<glyph unicode="&#xf703;" d="M-1138 1740l24 110q17 80 65 141.5t120 104.5t164.5 65.5t196.5 22.5q45 0 83.5 -4t72.5 -11q2 6 2.5 11t0.5 11q9 41 33 77.5t57.5 64.5t74 43t81.5 15t75 -15t55.5 -43t30 -64.5t-0.5 -77.5q-6 -32 -21.5 -59.5t-35.5 -51.5t-46 -43t-54 -31q21 -43 26 -93t-6 -104 l-16 -69h-982zM-998 1833h743l5 25q4 22 2 48t-15.5 51.5t-38 49.5t-64 42.5t-94.5 29.5q-55 10 -129 10q-73 0 -141 -13.5t-121 -40t-90 -67t-49 -95.5zM-310 2151.5q3 -19.5 13 -33.5t27.5 -23.5t44.5 -9.5q26 0 47.5 9.5t38 23.5t26.5 32.5t14 38.5q5 20 2.5 39 t-12.5 34.5t-28.5 25t-45.5 9.5q-26 0 -47.5 -9.5t-37 -24.5t-26.5 -33.5t-15 -38.5t-1 -39.5z" />
<glyph unicode="&#xf704;" d="M-1138 1740l24 110q17 80 65 141.5t120 104.5t164.5 65.5t196.5 22.5q65 0 120 -9l33 162h113l-38 -186q45 -16 79.5 -38t60.5 -48l57 272h114l-127 -597h-982zM-998 1833h743l5 25q4 22 2 48t-15.5 51.5t-38 49.5t-64 42.5t-94.5 29.5q-55 10 -129 10q-73 0 -141 -13.5 t-121 -40t-90 -67t-49 -95.5z" />
<glyph unicode="&#xf705;" d="M-402 1750l103 487h120l-103 -487h-120z" />
<glyph unicode="&#xf706;" d="M-914 1757l17 81q62 8 106.5 31.5t82.5 72.5q-30 -10 -45.5 -11t-25.5 -1q-35 0 -62.5 13t-45 36t-24.5 54q-7 32 0 66q9 42 30.5 74.5t51.5 56.5t65.5 37.5t71.5 14.5q46 2 79.5 -13t53.5 -40t26.5 -61t-2.5 -76q-17 -83 -56.5 -144.5t-89.5 -102.5q3 0 21 0.5t45 3.5 t61.5 7t70 12t70.5 18t64 24q49 25 84 56.5t59 68t40 75t26 76.5h103q-6 -28 -16.5 -60t-28 -67.5t-42.5 -72.5q-25 -35 -62 -73q-54 -55 -128.5 -87.5t-159.5 -49t-171.5 -20.5t-165.5 -4q-34 0 -58.5 2t-44.5 3zM-819 2070.5q2 -17.5 11 -30t25.5 -21t40.5 -8.5t43.5 8.5 t34.5 21t24 29t12 35.5q3 17 1.5 34t-10.5 31t-25 21.5t-40 7.5t-44 -7.5t-34.5 -21.5t-24 -31t-13.5 -34q-3 -17 -1 -34.5z" />
<glyph unicode="&#xf707;" d="M-981.5 1910q-0.5 51 14.5 109q13 50 37.5 96.5t58.5 82.5t78 57.5t95 21.5q42 0 78.5 -16.5t66.5 -54.5q11 9 25.5 22t32 23.5t40 18t47.5 7.5q45 0 70.5 -21.5t38 -54.5t13.5 -71.5t-6 -71.5q-11 -55 -32 -104t-45 -96q52 18 87.5 55.5t59 85t38.5 102.5t28 110 q6 30 11.5 58t13.5 51.5t18.5 42.5t28.5 32h110q-23 -20 -37.5 -45.5t-22.5 -54.5q-15 -51 -25.5 -102t-25 -101.5t-35 -98.5t-53.5 -93q-24 -31 -53.5 -55.5t-60 -40t-62 -26.5t-60.5 -16q-20 -5 -40 -7t-39 -2h-22t-22 3q17 20 37 56t38.5 76.5t33.5 80t21 64.5q6 23 9 49 t-1 49t-15 37t-34 14q-27 0 -59.5 -22t-72.5 -56q-13 14 -27 28t-31.5 26.5t-36 20t-38.5 7.5q-46 0 -83 -35.5t-56 -97.5q35 21 63.5 26.5t48.5 5.5q46 0 76.5 -15t47 -39.5t21 -55t-1.5 -62.5q-9 -37 -29.5 -67.5t-50 -53t-66 -36t-76.5 -13.5q-57 -1 -93.5 20.5t-55 58.5 t-19 88zM-870.5 1882q1.5 -17 10 -29.5t25 -20t38.5 -7.5q23 0 42.5 7.5t34 20t23.5 29.5t12 34t1.5 33.5t-10 29.5t-24.5 21t-38 8q-23 0 -42.5 -8t-34 -21t-24.5 -29.5t-12.5 -33.5t-1 -34z" />
<glyph unicode="&#xf708;" d="M-842 2031l20 94h309l58 279h120l-60 -279h306l-21 -94h-305l-58 -281h-120l58 281h-307z" />
<glyph unicode="&#xf709;" d="M-687 1898.5q-5 40.5 3 80.5q15 69 54 114t93 73.5t117.5 43.5t126.5 22q48 6 97.5 12.5t99.5 20.5q33 9 61 25.5t48.5 35t36.5 37t23 31.5l53 -85q-23 -38 -64.5 -69.5t-87.5 -45.5q-28 -9 -62 -17.5t-67.5 -15.5t-63.5 -11.5t-50 -5.5q23 -16 35 -37.5t16.5 -44.5 t2.5 -46t-7 -43q-11 -51 -37 -91t-63 -68t-83.5 -43t-96.5 -15q-59 0 -98 20t-60.5 51t-26.5 71.5zM-579.5 1926q3.5 -23 15 -40.5t32.5 -29t52.5 -11.5t59 11.5t47.5 29t33 41.5t18 48q6 24 3 47.5t-15 41.5t-33.5 29.5t-53 11.5t-58.5 -11.5t-47 -30t-33 -42t-19 -48.5 q-5 -24 -1.5 -47z" />
<glyph unicode="&#xf70a;" d="M31 1750l103 487h121l-103 -487h-121z" />
<glyph unicode="&#xf70b;" d="M-503 1757l18 81q62 8 105.5 31.5t82.5 72.5q-30 -10 -46 -11q-17 -1 -26 -1q-34 0 -61.5 13t-45 36t-24.5 54q-6 32 1 66q9 42 30 74.5t51 56.5t66 37.5t72 14.5q45 2 78 -13t54 -40t27.5 -61t-2.5 -76q-17 -83 -56.5 -144.5t-90.5 -102.5q3 0 21.5 0.5t45.5 2.5t61.5 7 t70 12.5t70.5 18t64 24.5q49 25 84 56.5t60 68t40.5 75t25.5 76.5h100q-5 -28 -16 -60t-28 -67.5t-43 -72.5q-26 -35 -61 -73q-55 -55 -130 -87.5t-159.5 -49t-171 -20.5t-163.5 -4q-34 0 -59 2t-45 3zM-407.5 2070.5q1.5 -17.5 10.5 -30t25 -21t40 -8.5q25 0 44 8.5t34 21 t24.5 29t13.5 35.5q3 17 1 34t-11 31t-25 21.5t-41 7.5q-24 0 -43.5 -7.5t-34.5 -21.5t-24 -31t-12 -34t-1.5 -34.5z" />
<glyph unicode="&#xf70c;" d="M-676 1918q1 51 15 110q13 50 37.5 96.5t58.5 82t78 57t95 21.5q42 0 78.5 -15.5t66.5 -54.5q11 9 24.5 21.5t32 23.5t41 19t47.5 8q45 0 70.5 -22.5t37 -55.5t13 -70.5t-5.5 -70.5q-12 -55 -32.5 -104t-43.5 -96q52 18 87 54.5t58.5 85t39 103t27.5 108.5q5 30 11 58 t14.5 51.5t18.5 43t27 32.5h110q-23 -20 -36.5 -46t-23.5 -54q-14 -52 -24.5 -102.5t-25 -101.5t-34.5 -99t-54 -92q-26 -31 -54.5 -55.5t-59.5 -40t-61.5 -26.5t-58.5 -17q-20 -4 -40.5 -6t-40.5 -2h-22t-22 3q17 20 37.5 55.5t39 77t33.5 80.5q14 40 20 65q5 23 9 49t0 48 t-15 36.5t-34 14.5q-27 0 -59.5 -22.5t-72.5 -56.5q-13 14 -28 29t-31.5 26.5t-35 19.5t-38.5 8q-46 0 -83.5 -35.5t-56.5 -97.5q34 20 63.5 26t50.5 6q46 0 75.5 -15.5t46.5 -39.5t21.5 -55t-2.5 -62q-9 -37 -28.5 -67t-49.5 -53t-66.5 -36t-76.5 -14q-57 -2 -93.5 19.5 t-55 59t-19.5 87.5zM-564.5 1891.5q1.5 -16.5 10 -29.5t25 -21t39.5 -8q22 0 41 8t33 21t23.5 29.5t13.5 33.5q3 17 1 33.5t-11 29.5t-24.5 21.5t-38.5 8.5t-42 -8.5t-33.5 -21.5t-24 -29.5t-12 -33.5t-1 -33.5z" />
<glyph unicode="&#xf70d;" d="M-217 2031l20 94h309l58 279h119l-59 -279h305l-20 -94h-305l-58 -281h-121l59 281h-307z" />
<glyph unicode="&#xf70e;" d="M-350 1889q-5 41 5 82q15 68 53.5 113t92 73.5t116.5 43t127 21.5q49 6 98.5 13t99.5 22q33 8 60.5 24.5t49 35t36.5 37t24 31.5l51 -84q-23 -39 -63.5 -70.5t-87.5 -45.5q-29 -9 -62.5 -18t-67 -16t-63.5 -11.5t-50 -5.5q23 -16 35 -37t15.5 -43.5t1.5 -45.5t-5 -43 q-12 -52 -38.5 -92t-62.5 -68.5t-82 -43t-97 -14.5q-59 0 -98.5 19.5t-61 51t-26.5 71.5zM-243 1917q3 -24 15 -41.5t33.5 -28.5t53 -11t58.5 11t47 29.5t33 42t19 47.5q5 25 1.5 47.5t-15 41.5t-32.5 30t-52.5 11t-59 -11t-47.5 -30t-33 -42.5t-18 -47.5q-6 -24 -3 -48z " />
<glyph unicode="&#xf70f;" horiz-adv-x="2019" d="M287.5 142.5q-7.5 46.5 4.5 99.5l111 529q7 33 22 70t47 73q30 34 60.5 55t62.5 35h-183l33 156q17 84 69 143.5t126.5 97.5t167.5 54t194 16q113 0 200.5 -16t144 -54t78 -99.5t2.5 -151.5l-187 -883q-10 -44 -10 -75.5t11.5 -51.5t37 -30t68.5 -10h209q48 0 79.5 13 t51 35t31 53t18.5 66l255 1197h120l-256 -1201q-12 -49 -29.5 -96t-48.5 -84t-76 -60t-109 -23h-315q-66 0 -102.5 23t-52 60t-15 83.5t10.5 92.5l188 881q12 61 1.5 105.5t-49 73t-107 42t-170.5 13.5q-92 0 -164 -12t-124 -37t-84.5 -66t-45.5 -99l-14 -72h225l-18 -76 q-27 -7 -68.5 -28.5t-85.5 -66.5q-24 -25 -38.5 -48.5t-23.5 -46.5t-14 -42t-8 -32l-73 -346q33 20 68 28t60 8q49 0 87.5 -16t63 -46t33.5 -70.5t-1 -92.5q-11 -49 -38 -90t-66 -72t-84 -48t-92 -17q-54 0 -94 20t-63.5 55t-31 81.5zM408.5 214.5q-6.5 -30.5 0.5 -56.5 t30 -43.5t63 -17.5t69.5 17.5t48 43.5t25 56.5t-1.5 56.5t-31 43.5t-61 17.5q-40 0 -69.5 -17.5t-48 -43.5t-25 -56.5z" />
<glyph unicode="&#xf710;" d="M-656 1966q-10 43 1 99q9 44 33 80t57.5 61.5t74.5 40t84 14.5q41 0 74 -15t54.5 -41t29.5 -61.5t-1 -75.5q-6 -25 -18.5 -51t-32.5 -48.5t-47.5 -40.5t-61.5 -25q24 -8 50.5 -13t53 -8t51 -4.5t44.5 -1.5q83 0 173.5 22t172 66.5t146.5 111.5q64 66 96 158h117 q-32 -89 -82 -157.5t-110 -119.5t-128.5 -85t-139.5 -55.5t-140 -31t-132 -9.5q-59 0 -115.5 6t-106.5 19.5t-91.5 35.5t-68.5 54t-37 75zM-549 2069.5q-6 -26.5 1 -47.5t26.5 -36t52.5 -15q31 0 55.5 15t39.5 36t21 47.5t0 48t-24.5 36.5t-50.5 15q-34 0 -59 -15 t-40.5 -36.5t-21.5 -48z" />
<glyph unicode="&#xf711;" d="M-658 1913q-6 45 3 92q10 47 36.5 92t66 81t91.5 57.5t115 21.5t106 -21.5t67 -57.5t30 -81t-3 -92q-10 -47 -35.5 -92t-65 -81t-91.5 -57.5t-115 -21.5t-106 21.5t-68 57.5t-31 81zM-552 1947.5q3 -27.5 17 -48t40 -33.5t63 -13t67 13t53 33.5t38 48t21 55.5t2 55 t-17.5 48.5t-37.5 34.5t-61.5 13t-68 -13t-54 -34.5t-38.5 -48.5t-21 -55t-3 -55.5z" />
<glyph unicode="&#xf712;" d="M-1095 1749l45 207q18 87 48.5 158t82.5 124q54 54 112 85t122 46t135.5 18.5t150.5 3.5q102 0 175.5 14.5t125 35t83 42.5t48.5 41l59 -77q-72 -59 -147 -90.5t-150 -45.5t-147.5 -15.5t-136.5 -1.5q-87 0 -158 -11.5t-126 -44.5t-92 -93t-59 -159l-31 -143l267 220 q12 -15 27 -38t34 -48.5t42.5 -51t51.5 -46.5t61 -33.5t73 -13.5q-27 17 -41.5 37.5t-19.5 42t-4 40.5t4 30q8 40 31 74.5t53.5 60t69.5 39t80 13.5q46 0 80 -16.5t54 -43.5t27 -64q5 -37 -4 -77q-5 -25 -15 -50.5t-26.5 -49t-38 -44.5t-45.5 -35q-49 -29 -97.5 -38 t-98.5 -9q-58 0 -108.5 12.5t-93.5 35.5t-77 54q-33 32 -56 69q-21 -17 -46.5 -38.5t-51.5 -43l-52 -43t-49 -39.5h-171zM-364.5 1977q-5.5 -26 0.5 -49t25.5 -38t53.5 -15q35 0 60.5 15t41.5 38t21.5 49t-1 49t-25.5 38t-54 15q-34 0 -59 -15t-41.5 -38t-22 -49z" />
<glyph unicode="&#xf713;" d="M-113 2477l79 374h114l-79 -374h-114z" />
<glyph unicode="&#xf714;" d="M-456 2444l14 67q62 9 112 36.5t91 82.5q-34 -13 -54 -14.5t-30 -1.5q-35 0 -62 13t-44 36t-24 53.5t-2 64.5q9 42 31 75.5t52 57t66 36.5t71 14q46 2 79 -12.5t53 -40t26.5 -60.5t-2.5 -75q-8 -42 -24 -78.5t-36 -68.5t-44 -57q-24 -24 -49 -44q6 0 37 1t74.5 6.5 t93.5 17.5t93 34q51 26 87 59.5t61 70.5t40.5 77t25.5 79h95q-6 -29 -16 -61t-26.5 -67t-41.5 -71.5t-61 -73.5q-54 -56 -122.5 -87.5t-145 -48.5t-157 -21.5t-158.5 -4.5q-35 0 -58.5 2t-44.5 4zM-361.5 2753q1.5 -17 10.5 -30t25 -21t40 -8t43.5 8t34.5 21t24.5 30 t13.5 34q3 17 1.5 35t-11 31t-26 21.5t-40.5 8.5t-43.5 -8.5t-33.5 -21.5t-24.5 -30t-12.5 -36q-3 -17 -1.5 -34z" />
<glyph unicode="&#xf715;" d="M-512.5 2574q-0.5 47 13.5 102q11 45 34 89t54.5 77.5t71.5 53.5t87 20q38 0 71.5 -16t60.5 -50q10 9 23 21t29.5 21t36.5 16.5t42 7.5q40 0 64 -20t36 -51t12 -66.5t-6 -65.5q-11 -50 -29.5 -96t-41.5 -90q46 17 78 51.5t55 78.5t37 95.5t24 101.5q12 56 24.5 101 t41.5 71h100q-23 -19 -35 -42.5t-19 -50.5q-13 -47 -24 -95t-23 -94.5t-31 -92.5t-49 -86q-23 -30 -49.5 -52t-55 -37t-56.5 -24.5t-54 -14.5q-37 -9 -73 -9q-11 0 -21 1q-8 1 -19 2q16 17 34.5 51.5t35.5 72.5t30.5 75t18.5 60q5 21 8 45.5t0 45t-13 35t-31 14.5 q-26 0 -55 -20t-65 -53q-12 13 -25.5 26.5t-28.5 25t-32 18t-36 6.5q-43 0 -76.5 -33.5t-50.5 -91.5q30 18 56.5 23.5t45.5 5.5q41 0 69 -14.5t43 -36.5t19 -50.5t-3 -57.5q-7 -34 -25.5 -62.5t-45 -50t-60 -33.5t-70.5 -12q-52 -2 -85.5 17.5t-50 54.5t-17 82z M-412.5 2548.5q2.5 -15.5 10 -28t22 -19.5t35.5 -7q22 0 39 7t30 19.5t21.5 28t12.5 31.5q3 15 1.5 31t-10 28t-22 19.5t-34.5 7.5q-22 0 -39 -7.5t-30.5 -19.5t-22.5 -27q-10 -15 -13 -32q-3 -16 -0.5 -31.5z" />
<glyph unicode="&#xf716;" d="M-326 2683l23 97h254l43 199h115l-43 -199h256l-22 -97h-256l-41 -201h-115l42 201h-256z" />
<glyph unicode="&#xf717;" d="M-397 2468q-5 40 2 80q15 69 54 114t93 73.5t116.5 43.5t128.5 22q49 6 97 12.5t99 20.5q33 9 58 22.5t43.5 28.5t31.5 30q11 15 20 29q10 -15 16.5 -24.5t11 -17.5t9.5 -16.5t15 -22.5q-10 -16 -25 -31.5t-34 -29.5t-37.5 -24t-38.5 -15q-28 -9 -62.5 -17.5t-68 -15.5 t-63 -11.5t-49.5 -5.5q23 -16 34.5 -37.5t15.5 -44.5t2 -45.5t-6 -42.5q-12 -52 -37.5 -92t-62 -68t-82.5 -43t-97 -15q-59 0 -97.5 20t-60 51.5t-26.5 71.5zM-295.5 2493.5q3.5 -23.5 16 -42.5t34.5 -30t55 -11t60.5 11t48.5 30.5t34.5 43t19.5 49.5t2 50t-16 43t-35 30 t-54 11q-34 0 -61.5 -11t-48 -30.5t-34 -44t-19.5 -49.5q-6 -26 -2.5 -49.5z" />
<glyph unicode="&#xf718;" d="M-869.5 -922.5q-8.5 38.5 0.5 85.5q10 49 36 89t62.5 69.5t81 45t90.5 15.5q56 0 97.5 -17t65.5 -48.5t31 -75t-4 -95.5l-84 -399h-123l50 232q-60 -27 -118 -29q-50 0 -88.5 16.5t-63.5 44.5t-33.5 66.5zM-765 -879q3 -22 13.5 -39t31.5 -28q19 -11 51 -11q30 0 55 11 t43.5 28t31.5 39t17 45t1.5 44.5t-14 38.5t-31.5 28t-50 11t-56 -11t-44.5 -28t-30.5 -39t-17 -44q-4 -23 -1 -45z" />
<glyph unicode="&#xf719;" d="M-1274 -877q8 52 34 92.5t62.5 70t81.5 46t94 16.5q54 0 94 -17t64.5 -48.5t32 -75.5t-5.5 -96l-50 -242h284l100 472h123l-122 -572h-529l37 179q-30 -15 -56 -20q-25 -6 -60 -6q-43 0 -81.5 13.5t-64 39t-37 63t-1.5 85.5zM-1170 -909q3 -22 14.5 -39t31.5 -27t50 -10 t55 10t43.5 27t31 38.5t17.5 45.5q5 23 2 44.5t-14.5 38.5t-31.5 28t-50 11t-55 -11t-43.5 -28t-31 -39t-16.5 -44q-6 -23 -3 -45z" />
<glyph unicode="&#xf71a;" d="M-583.5 -815q-2.5 20 1.5 41q4 22 15.5 42.5t30 37t43 26.5t53 10t48 -10t30 -26.5t14 -37t-0.5 -42.5q-4 -21 -16.5 -41t-30 -36.5t-41 -26.5t-52.5 -10q-30 0 -50 10t-31 26.5t-13.5 36.5z" />
<glyph unicode="&#xf71d;" horiz-adv-x="1703" d="M327 1144.5q-10 40.5 2 89.5q11 52 38.5 94.5t66 73.5t85 48t94.5 17q55 0 94 -18t63.5 -50t32.5 -75.5t-4 -95.5l-223 -1048l509 758h105l209 -758l207 980q-34 -16 -65 -27.5t-61.5 -18.5t-63 -10.5t-69.5 -3.5q-29 0 -61.5 5.5t-65 15.5t-61.5 25t-50 34.5t-31 43 t-4 52.5q9 37 39.5 72t76.5 61.5t104.5 42t122.5 15.5q67 0 116.5 -11.5t84.5 -28.5t56.5 -37.5t32.5 -39.5q46 23 79.5 56t57.5 70t39 75t22 71h128q-12 -59 -37 -117t-62.5 -108.5t-84.5 -93.5t-104 -73l-261 -1230h-160l-217 785l-532 -785h-156l222 1045q-12 -5 -27 -11 t-33 -11t-35 -8t-31 -3q-50 0 -88.5 16.5t-64 46t-35.5 70zM446 1237.5q-6 -30.5 1.5 -56.5t29.5 -43t62 -17t69.5 17t48 43t25 56.5t-0.5 56.5t-29.5 44t-62.5 18t-70 -18t-48.5 -44t-24.5 -56.5zM1204 1283q-3 -13 10 -26t36.5 -23t55 -17t64.5 -9q27 -1 57 2t61 10t61 20 t55 30q-5 11 -21 27.5t-41 31t-62 23.5t-86 9q-31 0 -63.5 -6.5t-59.5 -17t-45.5 -25t-21.5 -29.5z" />
<glyph d="M-651 1893q13 59 53 107t95 83.5t117.5 60t118.5 35.5q-29 3 -57 14t-48 27.5t-30.5 40.5t-3.5 54q10 46 47 86.5t96.5 70t137.5 46.5t166 17q41 0 96.5 -5t132.5 -28l-18 -88q-12 6 -32.5 12t-50.5 12t-68 9.5t-81 3.5q-46 0 -94.5 -8.5t-90 -25t-71.5 -40t-37 -55.5 q-6 -27 11 -50.5t47.5 -40.5t69.5 -26t78 -9l-15 -64q-82 -4 -158.5 -22.5t-137.5 -48t-101 -69.5t-50 -87q-7 -32 2 -53.5t28.5 -34t46 -18.5t54.5 -6t55 6t50 18t38.5 28.5t19.5 36.5q8 28 -4 54l96 29q14 -24 15.5 -50.5t-4.5 -46.5q-10 -35 -37.5 -63.5t-66.5 -50 t-87.5 -33t-99.5 -11.5q-50 0 -96 8.5t-79 30t-48 56.5t-5 88z" />
<glyph horiz-adv-x="1242" d="M-658 1913q-6 45 3 92q10 47 36.5 92t66 81t91.5 57.5t115 21.5t106 -21.5t67 -57.5t30 -81t-3 -92q-10 -47 -35.5 -92t-65 -81t-91.5 -57.5t-115 -21.5t-106 21.5t-68 57.5t-31 81zM-552 1947.5q3 -27.5 17 -48t40 -33.5t63 -13t67 13t53 33.5t38 48t21 55.5t2 55 t-17.5 48.5t-37.5 34.5t-61.5 13t-68 -13t-54 -34.5t-38.5 -48.5t-21 -55t-3 -55.5zM339 1107l10 53q17 84 63.5 143.5t113.5 97.5t155 54t190 16q226 0 327.5 -79t68.5 -238l-245 -1154h-118l241 1140q12 54 5 96t-41.5 71.5t-97.5 45.5t-163 16q-94 0 -162 -14 t-114.5 -41.5t-74 -69t-38.5 -99.5l-9 -38h-111z" />
<glyph horiz-adv-x="1242" d="M-658 1913q-6 45 3 92q10 47 36.5 92t66 81t91.5 57.5t115 21.5t106 -21.5t67 -57.5t30 -81t-3 -92q-10 -47 -35.5 -92t-65 -81t-91.5 -57.5t-115 -21.5t-106 21.5t-68 57.5t-31 81zM-552 1947.5q3 -27.5 17 -48t40 -33.5t63 -13t67 13t53 33.5t38 48t21 55.5t2 55 t-17.5 48.5t-37.5 34.5t-61.5 13t-68 -13t-54 -34.5t-38.5 -48.5t-21 -55t-3 -55.5zM339 1107l10 53q17 84 63.5 143.5t113.5 97.5t155 54t190 16q226 0 327.5 -79t68.5 -238l-245 -1154h-118l241 1140q12 54 5 96t-41.5 71.5t-97.5 45.5t-163 16q-94 0 -162 -14 t-114.5 -41.5t-74 -69t-38.5 -99.5l-9 -38h-111z" />
<glyph d="M177 2405l79 375h116l-80 -375h-115z" />
<glyph d="M-196 2408l14 67q63 9 113 37t90 82q-34 -13 -53 -15t-29 -2q-35 0 -63 13.5t-45.5 35.5t-25 53.5t0.5 66.5q8 41 30 74.5t52 57t66 37.5q37 14 72 14q46 1 78.5 -13.5t52.5 -40t26.5 -60.5t-1.5 -75q-18 -83 -61 -147q-44 -65 -94 -102q6 0 36.5 1.5t75 7t94.5 18 t93 33.5q52 26 87.5 59.5t60.5 70.5t41 77q17 41 26 79h94q-6 -28 -16 -60.5t-26.5 -67.5t-40.5 -71.5t-62 -73.5q-54 -56 -122.5 -87.5t-145 -48.5t-157.5 -21.5t-157 -4.5q-34 0 -58 1.5t-46 4.5zM-103 2717q1 -17 10.5 -30t25.5 -21t40 -8t43.5 8t34.5 21t24 30t12 34 t1.5 35t-10.5 31t-25.5 21.5t-41.5 8.5q-24 0 -43 -8.5t-33.5 -21.5t-24 -30t-12.5 -36q-2 -17 -1 -34z" />
<glyph d="M-321 2547q-1 47 14 101q11 46 33 90.5t53.5 77.5t71.5 53t88 20q37 0 70.5 -16t60.5 -50q10 8 23 20.5t30 22.5t37 17t43 7q40 0 63.5 -20.5t35 -51.5t11.5 -66.5t-6 -65.5q-10 -51 -29 -96.5t-41 -89.5q46 17 78 51t54.5 79.5t36.5 96t26 100.5q11 56 24 101t42 71h97 q-23 -19 -35 -42.5t-19 -50.5q-13 -47 -23 -95t-22.5 -94.5t-31 -91.5t-49.5 -87q-23 -30 -49.5 -51.5t-54.5 -37t-56.5 -25t-52.5 -14.5q-40 -9 -75 -9q-11 0 -20.5 0.5t-20.5 2.5q16 17 35 51.5t36 72t31 75t19 60.5q5 21 7.5 45.5t-1 46t-15.5 35t-36 13.5q-19 0 -47 -18 q-28 -19 -64 -51q-11 13 -24.5 26.5t-29.5 23.5t-32 16t-35 6q-43 0 -77.5 -34t-51.5 -91q32 17 58.5 23t43.5 6q41 0 69 -13.5t43 -36.5t18.5 -51.5t-2.5 -57.5q-7 -34 -25.5 -62.5t-45 -49.5t-59.5 -33t-70 -14q-51 -1 -84.5 18.5t-50 54.5t-17.5 82zM-221.5 2521.5 q1.5 -16.5 10 -28t23 -18.5t34.5 -7q21 0 39 7t30.5 18.5t21.5 27.5t12 33q2 16 1 31t-10 27t-22.5 20t-34.5 8q-22 0 -39 -8t-30 -20t-21.5 -27t-12.5 -31q-3 -16 -1.5 -32.5z" />
<glyph d="M-46 2601l20 99h256l43 199h115l-43 -199h256l-20 -99h-256l-42 -199h-116l42 199h-255z" />
<glyph d="M-180 2405l80 375h114l-78 -375h-116z" />
<glyph d="M-542 2418l14 69q62 8 112 36t91 82q-34 -12 -54 -14.5t-30 -2.5q-34 0 -61.5 13t-44.5 36t-24 54q-7 32 -2 66q9 42 31 74.5t52 56t66 37.5t72 15q45 2 78 -13.5t53 -40.5t26.5 -60.5t-0.5 -75.5q-9 -42 -24.5 -78.5t-36.5 -67.5t-45 -57t-48 -45q5 0 36 1t74.5 6.5 t93.5 18t94 33.5q52 26 87 59.5t60 71.5t40.5 77.5t25.5 77.5h95q-6 -28 -16 -60.5t-26.5 -66.5t-41.5 -71.5t-61 -73.5q-54 -55 -122.5 -86.5t-145 -49t-156.5 -21.5t-159 -4q-34 0 -58 1.5t-45 2.5zM-450 2728.5q2 -17.5 11 -30t25 -21.5t41 -9q24 0 43.5 9t34.5 21.5 t24 29t14 35.5q2 17 0 34t-11 30.5t-25 21.5t-40 8q-25 0 -45 -8t-34 -21.5t-23.5 -30.5t-12.5 -34q-4 -17 -2 -34.5z" />
<glyph d="M-597 2556q-1 48 14 102q11 46 34 89.5t54.5 77.5t71.5 53t87 19q37 0 70.5 -15.5t61.5 -48.5q10 8 22.5 19.5t30 21.5t37.5 17.5t42 7.5q41 0 64.5 -21t35 -51t11.5 -66q-2 -35 -8 -67q-10 -50 -28.5 -95.5t-39.5 -90.5q46 17 78 51.5t54 79.5t36.5 96t24.5 101 q11 55 24 101t43 70h97q-23 -18 -35 -41t-19 -52q-13 -47 -23.5 -95t-23 -94.5t-30.5 -91.5q-17 -45 -49 -86q-23 -30 -49.5 -51.5t-54 -36.5t-56.5 -25t-53 -16q-39 -8 -73 -7h-21t-22 3q16 17 35.5 51.5t37 72t30.5 74t19 61.5q4 21 7 45.5t-0.5 45t-16 34t-36.5 13.5 q-19 0 -46.5 -17.5t-63.5 -49.5q-12 13 -25.5 26t-29 23.5t-32.5 16.5t-36 6q-43 0 -76.5 -34.5t-50.5 -91.5q31 17 57.5 22.5t43.5 5.5q42 0 69.5 -13.5t42.5 -35.5t19 -50.5t-2 -57.5q-7 -34 -25.5 -63.5t-46 -50t-60.5 -33t-70 -13.5q-51 -1 -84.5 19t-50 54t-17.5 82z M-496.5 2531q1.5 -16 9.5 -28t22.5 -19t35.5 -7t38.5 7t31 19t21.5 28t12 32q3 15 1 30t-10 27.5t-21.5 20t-35.5 7.5q-21 0 -39 -7.5t-31 -20t-21.5 -27.5t-11.5 -30q-3 -16 -1.5 -32z" />
<glyph d="M-412 2601l20 99h256l43 199h114l-41 -199h255l-22 -99h-254l-42 -199h-116l43 199h-256z" />
</font>
</defs>
</svg>
