<?xml version="1.0" standalone="no"?>
<!DOCTYPE svg PUBLIC "-//W3C//DTD SVG 1.1//EN" "http://www.w3.org/Graphics/SVG/1.1/DTD/svg11.dtd" >
<svg xmlns="http://www.w3.org/2000/svg" xmlns:xlink="http://www.w3.org/1999/xlink" version="1.1">
<metadata></metadata>
<defs>
<font id="mn_lannalight" horiz-adv-x="0" >
<font-face units-per-em="2560" ascent="2048" descent="-512" />
<missing-glyph horiz-adv-x="878" />
<glyph unicode="&#x2b;&#x2d;" horiz-adv-x="1720" d="M315 17v137h1076v-137h-1076zM315 784v147h469v465h143v-465h464v-147h-464v-467h-143v467h-469z" />
<glyph unicode="&#x2e;&#x2e;&#x2e;" horiz-adv-x="2342" d="M289 0v213h206v-213h-206zM1070 0v213h204v-213h-204zM1848 0v213h205v-213h-205z" />
<glyph unicode="&#x3c;&#x3d;" horiz-adv-x="1537" d="M127 20v139h1272v-139h-1272zM127 909v122l1272 582v-157q-145 -59 -279.5 -120.5t-268 -123.5t-268 -123t-277.5 -119l1093 -488v-155z" />
<glyph unicode="&#x3e;&#x3d;" horiz-adv-x="1537" d="M139 20v139h1271v-139h-1271zM139 327v155l1092 488q-144 58 -278.5 119t-267.5 123t-267.5 123t-278.5 121v157l1271 -582v-122z" />
<glyph unicode="&#xe4f;&#x22;" horiz-adv-x="1657" d="M145 657.5q11 94.5 46.5 177.5t95 153t134 121t162.5 79t182 28q110 0 209.5 -39t180.5 -106t136.5 -158t78.5 -195q21 -100 10.5 -194t-46.5 -176t-95 -150t-133.5 -117.5t-161.5 -76.5t-179 -27q-114 0 -214.5 37t-179.5 101.5t-135 154t-79 195.5q-23 98 -12 192.5z M265 599q0 -27 2.5 -55t8.5 -55q19 -84 63 -156.5t108.5 -125.5t144.5 -83t169 -30q68 0 132.5 18t120.5 51.5t102.5 81t79 103t50.5 119.5t18 132q2 50 -10 102q-18 85 -63.5 157.5t-109.5 125.5t-145 83t-171 30q-69 0 -132.5 -18t-118.5 -49.5t-101.5 -77t-79.5 -100 t-50.5 -119t-17.5 -134.5zM410 521q-17 87 4 165.5t71 139.5t123 97.5t157 36.5q66 0 124.5 -21.5t105 -59.5t78 -91t44.5 -114q17 -88 -3.5 -168t-69.5 -141.5t-122 -98t-157 -36.5q-66 0 -124 22.5t-104.5 61t-78.5 92t-48 115.5zM438 1822q1 58 29 84t68 26 q27 0 45.5 -8.5t32 -23.5t19.5 -36t6 -44l-82 -446h-35zM521 595q0 -13 1 -26t4 -26q10 -41 32.5 -76t53 -59.5t70 -38.5t83.5 -14q56 0 101 20.5t77 54t49.5 78t17.5 91.5q0 26 -6 50q-10 40 -32 75t-53 61t-70.5 41t-83.5 15q-53 0 -97.5 -20t-77 -53.5t-51 -78 t-18.5 -94.5zM888 1822q1 58 29 84t71 26q26 0 45 -8.5t31.5 -23.5t19 -34.5t6.5 -42.5q0 -5 -4.5 -33t-11.5 -69.5t-16.5 -91.5t-18 -98t-17 -89.5t-15.5 -67.5h-36z" />
<glyph unicode="&#xe0e;&#xe3a;" horiz-adv-x="1663" d="M93 216q0 51 19.5 92.5t50.5 71t72.5 46t87.5 16.5q63 0 122 -32v361q0 33 7 70q8 37 31 73q23 34 49 55t54 35h-183v156q0 84 41 143.5t111.5 97.5t163.5 54t198 16q117 0 214 -14t166.5 -50t107.5 -96.5t38 -155.5v-1487q0 -40 -11 -80.5t-32 -73t-56.5 -52.5 t-83.5 -20q-23 0 -59 9.5t-80 43.5q-34 27 -70 54.5t-71.5 52.5t-70 45.5t-64.5 33.5q-48 -124 -127 -182q-77 -57 -177 -60q-49 -1 -93.5 12.5t-77.5 38.5t-53 61t-20 80q0 57 24 98.5t62.5 69t88 40t99.5 12.5q37 0 70.5 -4t60.5 -10t45.5 -11.5t26.5 -8.5q8 29 11.5 59 t6.5 60h115q0 -32 -6.5 -75t-19.5 -78q37 -13 74 -33t73 -42.5t67.5 -45t57.5 -44.5q20 -16 47 -33t54 -17q19 0 32.5 10t22 26t12 34.5t3.5 35.5v1460q0 69 -25 114t-75.5 72.5t-126.5 39t-178 11.5q-91 0 -164.5 -12t-125 -37t-79 -65t-27.5 -97v-72h223v-76 q-25 -7 -62.5 -28.5t-71.5 -66.5q-19 -25 -29 -48.5t-14 -46.5t-5 -42t-1 -32v-512q0 -56 -18.5 -101t-51.5 -77t-78.5 -49.5t-98.5 -17.5q-49 0 -90.5 18t-70.5 49t-45.5 71.5t-16.5 86.5zM204 217q0 -30 13 -56.5t39.5 -44t66.5 -17.5t66 17.5t39.5 44t13.5 56.5 t-13.5 56.5t-40 44t-65.5 17.5q-40 0 -66.5 -17.5t-39.5 -44t-13 -56.5zM413 -363q0 -26 12.5 -44t30 -30t40.5 -17.5t46 -5.5q40 0 72 17t57 42.5t43 56.5t27 58q-52 17 -95 25.5t-77 8.5q-26 0 -53.5 -7t-50.5 -20.5t-37.5 -34.5t-14.5 -49zM1198 -774q0 22 7.5 42.5 t22.5 37t37 26.5t52 10q29 0 50.5 -10t35.5 -26.5t21 -37t7 -42.5q0 -21 -7 -41t-21 -36.5t-35.5 -26.5t-50.5 -10q-30 0 -52 10t-37 26.5t-22.5 36.5t-7.5 41z" />
<glyph unicode="&#xe0f;&#xe3a;" horiz-adv-x="1663" d="M93 216q0 51 19.5 92.5t50.5 71t72.5 46t87.5 16.5q63 0 122 -32v361q0 33 7 70q8 37 31 73q23 34 49 55t54 35h-183v156q0 84 41 143.5t111.5 97.5t163.5 54t198 16q117 0 214 -14t166.5 -50t107.5 -96.5t38 -155.5v-1605q0 -23 -6 -45.5t-18.5 -40t-30.5 -28.5t-42 -9 q-23 1 -43 18t-39 43l-164 219l-170 -255q-16 26 -37.5 54.5t-47.5 58t-52.5 55t-50.5 43.5q-14 -63 -43.5 -109.5t-68 -78t-85 -47.5t-95.5 -16q-48 0 -91 13.5t-76 39.5t-52 61.5t-19 81.5q0 56 23.5 96.5t62 68.5t85.5 41t95 13q27 0 50.5 -1.5t45 -5t41.5 -8t43 -9.5 q3 14 5 33.5t3.5 40t2 41.5t0.5 36h120q0 -11 -0.5 -32.5t-2.5 -48.5t-6.5 -56t-10.5 -52q13 -8 31.5 -23t40 -35t42.5 -43t38 -46l172 256l231 -292v1552q0 69 -25 114t-75.5 72.5t-126.5 39t-178 11.5q-91 0 -164.5 -12t-125 -37t-79 -65t-27.5 -97v-72h223v-76 q-25 -7 -62.5 -28.5t-71.5 -66.5q-19 -25 -29 -48.5t-14 -46.5t-5 -42t-1 -32v-512q0 -56 -18.5 -101t-51.5 -77t-78.5 -49.5t-98.5 -17.5q-49 0 -90.5 18t-70.5 49t-45.5 71.5t-16.5 86.5zM204 217q0 -30 13 -56.5t39.5 -44t66.5 -17.5t66 17.5t39.5 44t13.5 56.5 t-13.5 56.5t-40 44t-65.5 17.5q-40 0 -66.5 -17.5t-39.5 -44t-13 -56.5zM322 -390q1 -20 9.5 -38t24.5 -32.5t39.5 -22t53.5 -7.5q41 0 73.5 15.5t56.5 42.5t40 63.5t22 76.5q-20 9 -41.5 14t-43 8.5t-41 4t-33.5 0.5q-27 0 -56.5 -6t-53 -21t-38 -39.5t-12.5 -58.5z M1198 -774q0 22 7.5 42.5t22.5 37t37 26.5t52 10q29 0 50.5 -10t35.5 -26.5t21 -37t7 -42.5q0 -21 -7 -41t-21 -36.5t-35.5 -26.5t-50.5 -10q-30 0 -52 10t-37 26.5t-22.5 36.5t-7.5 41z" />
<glyph unicode="&#xe0e;&#xe38;" horiz-adv-x="1663" d="M93 216q0 51 19.5 92.5t50.5 71t72.5 46t87.5 16.5q63 0 122 -32v361q0 33 7 70q8 37 31 73q23 34 49 55t54 35h-183v156q0 84 41 143.5t111.5 97.5t163.5 54t198 16q117 0 214 -14t166.5 -50t107.5 -96.5t38 -155.5v-1487q0 -40 -11 -80.5t-32 -73t-56.5 -52.5 t-83.5 -20q-23 0 -59 9.5t-80 43.5q-34 27 -70 54.5t-71.5 52.5t-70 45.5t-64.5 33.5q-48 -124 -127 -182q-77 -57 -177 -60q-49 -1 -93.5 12.5t-77.5 38.5t-53 61t-20 80q0 57 24 98.5t62.5 69t88 40t99.5 12.5q37 0 70.5 -4t60.5 -10t45.5 -11.5t26.5 -8.5q8 29 11.5 59 t6.5 60h115q0 -32 -6.5 -75t-19.5 -78q37 -13 74 -33t73 -42.5t67.5 -45t57.5 -44.5q20 -16 47 -33t54 -17q19 0 32.5 10t22 26t12 34.5t3.5 35.5v1460q0 69 -25 114t-75.5 72.5t-126.5 39t-178 11.5q-91 0 -164.5 -12t-125 -37t-79 -65t-27.5 -97v-72h223v-76 q-25 -7 -62.5 -28.5t-71.5 -66.5q-19 -25 -29 -48.5t-14 -46.5t-5 -42t-1 -32v-512q0 -56 -18.5 -101t-51.5 -77t-78.5 -49.5t-98.5 -17.5q-49 0 -90.5 18t-70.5 49t-45.5 71.5t-16.5 86.5zM204 217q0 -30 13 -56.5t39.5 -44t66.5 -17.5t66 17.5t39.5 44t13.5 56.5 t-13.5 56.5t-40 44t-65.5 17.5q-40 0 -66.5 -17.5t-39.5 -44t-13 -56.5zM413 -363q0 -26 12.5 -44t30 -30t40.5 -17.5t46 -5.5q40 0 72 17t57 42.5t43 56.5t27 58q-52 17 -95 25.5t-77 8.5q-26 0 -53.5 -7t-50.5 -20.5t-37.5 -34.5t-14.5 -49zM990 -881q0 49 18.5 89 t48.5 68.5t70.5 44t86.5 15.5q56 0 101 -17t75.5 -47.5t47 -74.5t16.5 -95v-399h-123v230q-25 -13 -54 -20t-56 -7q-50 0 -92 16.5t-73 44.5t-48.5 66.5t-17.5 85.5zM1095 -878q0 -23 7.5 -45t23 -40t37.5 -28t54 -10q30 0 52 10t37 28t23 39.5t8 45.5q0 23 -8 44.5 t-23 38.5t-37 28t-52 11t-53 -11t-38.5 -28t-23 -39.5t-7.5 -43.5z" />
<glyph unicode="&#xe0f;&#xe38;" horiz-adv-x="1663" d="M93 216q0 51 19.5 92.5t50.5 71t72.5 46t87.5 16.5q63 0 122 -32v361q0 33 7 70q8 37 31 73q23 34 49 55t54 35h-183v156q0 84 41 143.5t111.5 97.5t163.5 54t198 16q117 0 214 -14t166.5 -50t107.5 -96.5t38 -155.5v-1605q0 -23 -6 -45.5t-18.5 -40t-30.5 -28.5t-42 -9 q-23 1 -43 18t-39 43l-164 219l-170 -255q-16 26 -37.5 54.5t-47.5 58t-52.5 55t-50.5 43.5q-14 -63 -43.5 -109.5t-68 -78t-85 -47.5t-95.5 -16q-48 0 -91 13.5t-76 39.5t-52 61.5t-19 81.5q0 56 23.5 96.5t62 68.5t85.5 41t95 13q27 0 50.5 -1.5t45 -5t41.5 -8t43 -9.5 q3 14 5 33.5t3.5 40t2 41.5t0.5 36h120q0 -11 -0.5 -32.5t-2.5 -48.5t-6.5 -56t-10.5 -52q13 -8 31.5 -23t40 -35t42.5 -43t38 -46l172 256l231 -292v1552q0 69 -25 114t-75.5 72.5t-126.5 39t-178 11.5q-91 0 -164.5 -12t-125 -37t-79 -65t-27.5 -97v-72h223v-76 q-25 -7 -62.5 -28.5t-71.5 -66.5q-19 -25 -29 -48.5t-14 -46.5t-5 -42t-1 -32v-512q0 -56 -18.5 -101t-51.5 -77t-78.5 -49.5t-98.5 -17.5q-49 0 -90.5 18t-70.5 49t-45.5 71.5t-16.5 86.5zM204 217q0 -30 13 -56.5t39.5 -44t66.5 -17.5t66 17.5t39.5 44t13.5 56.5 t-13.5 56.5t-40 44t-65.5 17.5q-40 0 -66.5 -17.5t-39.5 -44t-13 -56.5zM322 -390q1 -20 9.5 -38t24.5 -32.5t39.5 -22t53.5 -7.5q41 0 73.5 15.5t56.5 42.5t40 63.5t22 76.5q-20 9 -41.5 14t-43 8.5t-41 4t-33.5 0.5q-27 0 -56.5 -6t-53 -21t-38 -39.5t-12.5 -58.5z M990 -881q0 49 18.5 89t48.5 68.5t70.5 44t86.5 15.5q56 0 101 -17t75.5 -47.5t47 -74.5t16.5 -95v-399h-123v230q-25 -13 -54 -20t-56 -7q-50 0 -92 16.5t-73 44.5t-48.5 66.5t-17.5 85.5zM1095 -878q0 -23 7.5 -45t23 -40t37.5 -28t54 -10q30 0 52 10t37 28t23 39.5 t8 45.5q0 23 -8 44.5t-23 38.5t-37 28t-52 11t-53 -11t-38.5 -28t-23 -39.5t-7.5 -43.5z" />
<glyph unicode="&#xe0e;&#xe39;" horiz-adv-x="1663" d="M93 216q0 51 19.5 92.5t50.5 71t72.5 46t87.5 16.5q63 0 122 -32v361q0 33 7 70q8 37 31 73q23 34 49 55t54 35h-183v156q0 84 41 143.5t111.5 97.5t163.5 54t198 16q117 0 214 -14t166.5 -50t107.5 -96.5t38 -155.5v-1487q0 -40 -11 -80.5t-32 -73t-56.5 -52.5 t-83.5 -20q-23 0 -59 9.5t-80 43.5q-34 27 -70 54.5t-71.5 52.5t-70 45.5t-64.5 33.5q-48 -124 -127 -182q-77 -57 -177 -60q-49 -1 -93.5 12.5t-77.5 38.5t-53 61t-20 80q0 57 24 98.5t62.5 69t88 40t99.5 12.5q37 0 70.5 -4t60.5 -10t45.5 -11.5t26.5 -8.5q8 29 11.5 59 t6.5 60h115q0 -32 -6.5 -75t-19.5 -78q37 -13 74 -33t73 -42.5t67.5 -45t57.5 -44.5q20 -16 47 -33t54 -17q19 0 32.5 10t22 26t12 34.5t3.5 35.5v1460q0 69 -25 114t-75.5 72.5t-126.5 39t-178 11.5q-91 0 -164.5 -12t-125 -37t-79 -65t-27.5 -97v-72h223v-76 q-25 -7 -62.5 -28.5t-71.5 -66.5q-19 -25 -29 -48.5t-14 -46.5t-5 -42t-1 -32v-512q0 -56 -18.5 -101t-51.5 -77t-78.5 -49.5t-98.5 -17.5q-49 0 -90.5 18t-70.5 49t-45.5 71.5t-16.5 86.5zM204 217q0 -30 13 -56.5t39.5 -44t66.5 -17.5t66 17.5t39.5 44t13.5 56.5 t-13.5 56.5t-40 44t-65.5 17.5q-40 0 -66.5 -17.5t-39.5 -44t-13 -56.5zM413 -363q0 -26 12.5 -44t30 -30t40.5 -17.5t46 -5.5q40 0 72 17t57 42.5t43 56.5t27 58q-52 17 -95 25.5t-77 8.5q-26 0 -53.5 -7t-50.5 -20.5t-37.5 -34.5t-14.5 -49zM575 -895q-2 51 15.5 92.5 t47.5 71t72 45t89 15.5q55 0 99 -16.5t75 -47.5t47.5 -75.5t16.5 -96.5v-241h284v472h122v-572h-529v177q-27 -14 -52 -19t-60 -5q-43 0 -83.5 12.5t-72 38.5t-50.5 64q-21 38 -21 85zM681 -882q0 -23 7 -45.5t22 -39.5t37 -27t52 -10t53 10t38 27t23 39.5t8 45.5t-8 44 t-23 38.5t-38 28t-53 10.5t-52 -10.5t-37 -28t-22 -38.5t-7 -44z" />
<glyph unicode="&#xe0f;&#xe39;" horiz-adv-x="1663" d="M93 216q0 51 19.5 92.5t50.5 71t72.5 46t87.5 16.5q63 0 122 -32v361q0 33 7 70q8 37 31 73q23 34 49 55t54 35h-183v156q0 84 41 143.5t111.5 97.5t163.5 54t198 16q117 0 214 -14t166.5 -50t107.5 -96.5t38 -155.5v-1605q0 -23 -6 -45.5t-18.5 -40t-30.5 -28.5t-42 -9 q-23 1 -43 18t-39 43l-164 219l-170 -255q-16 26 -37.5 54.5t-47.5 58t-52.5 55t-50.5 43.5q-14 -63 -43.5 -109.5t-68 -78t-85 -47.5t-95.5 -16q-48 0 -91 13.5t-76 39.5t-52 61.5t-19 81.5q0 56 23.5 96.5t62 68.5t85.5 41t95 13q27 0 50.5 -1.5t45 -5t41.5 -8t43 -9.5 q3 14 5 33.5t3.5 40t2 41.5t0.5 36h120q0 -11 -0.5 -32.5t-2.5 -48.5t-6.5 -56t-10.5 -52q13 -8 31.5 -23t40 -35t42.5 -43t38 -46l172 256l231 -292v1552q0 69 -25 114t-75.5 72.5t-126.5 39t-178 11.5q-91 0 -164.5 -12t-125 -37t-79 -65t-27.5 -97v-72h223v-76 q-25 -7 -62.5 -28.5t-71.5 -66.5q-19 -25 -29 -48.5t-14 -46.5t-5 -42t-1 -32v-512q0 -56 -18.5 -101t-51.5 -77t-78.5 -49.5t-98.5 -17.5q-49 0 -90.5 18t-70.5 49t-45.5 71.5t-16.5 86.5zM204 217q0 -30 13 -56.5t39.5 -44t66.5 -17.5t66 17.5t39.5 44t13.5 56.5 t-13.5 56.5t-40 44t-65.5 17.5q-40 0 -66.5 -17.5t-39.5 -44t-13 -56.5zM322 -390q1 -20 9.5 -38t24.5 -32.5t39.5 -22t53.5 -7.5q41 0 73.5 15.5t56.5 42.5t40 63.5t22 76.5q-20 9 -41.5 14t-43 8.5t-41 4t-33.5 0.5q-27 0 -56.5 -6t-53 -21t-38 -39.5t-12.5 -58.5z M575 -895q-2 51 15.5 92.5t47.5 71t72 45t89 15.5q55 0 99 -16.5t75 -47.5t47.5 -75.5t16.5 -96.5v-241h284v472h122v-572h-529v177q-27 -14 -52 -19t-60 -5q-43 0 -83.5 12.5t-72 38.5t-50.5 64q-21 38 -21 85zM681 -882q0 -23 7 -45.5t22 -39.5t37 -27t52 -10t53 10t38 27 t23 39.5t8 45.5t-8 44t-23 38.5t-38 28t-53 10.5t-52 -10.5t-37 -28t-22 -38.5t-7 -44z" />
<glyph unicode="&#xd;" horiz-adv-x="1035" />
<glyph unicode=" "  horiz-adv-x="878" />
<glyph unicode="&#x09;" horiz-adv-x="878" />
<glyph unicode="&#xa0;" horiz-adv-x="878" />
<glyph unicode="!" horiz-adv-x="650" d="M206 109q0 23 7 44t22 38.5t38 28t53 10.5t53 -10.5t37 -28t22 -39.5t8 -43q0 -23 -8 -45.5t-22 -39.5t-37 -27t-53 -10t-53 10t-38 27t-22 38.5t-7 46.5zM237 1138v547h179v-545l-60 -728h-64l-55 728v-2z" />
<glyph unicode="&#x22;" horiz-adv-x="790" d="M189 1101v584h131v-584h-131zM506 1101v584h133v-584h-133z" />
<glyph unicode="#" horiz-adv-x="1302" d="M82 503l17 125h243l47 360h-243q4 33 9 60t11 59h240q9 60 17.5 124.5t17.5 130t18.5 130.5t16.5 125h130l-73 -510h321q8 60 16 124.5t18 130t18.5 130.5t17.5 125h130l-70 -510h243q-4 -33 -9 -61t-11 -58h-240l-53 -360h243q-4 -35 -9 -62.5t-10 -62.5h-241 q-9 -60 -17.5 -123t-16.5 -128t-17 -128.5t-18 -123.5h-126l67 503h-320q-9 -60 -16.5 -123t-16 -128t-18 -128.5t-16.5 -123.5h-130l71 503h-241zM469 628h319l47 360h-316z" />
<glyph unicode="$" horiz-adv-x="1562" d="M140 476h133q6 -98 49 -172.5t108 -125.5t144.5 -80t157.5 -39v712l-184 47q-23 3 -57.5 13.5t-73.5 28.5t-78.5 46t-70.5 68.5t-51 94.5t-20 124q0 84 31.5 165t96.5 145t166 104t241 43v110h106v-113q109 -11 188 -39.5t137 -68.5t95.5 -87.5t58.5 -96t31 -95.5t12 -87 h-132q-5 80 -39.5 143t-88 109t-121 75t-141.5 39v-668l202 -50q71 -17 137.5 -46t118 -76t82.5 -114t31 -157q0 -85 -24 -153t-65.5 -120t-96.5 -88.5t-118.5 -61t-132 -36.5t-134.5 -13v-133h-106v128q-97 2 -168.5 17.5t-121.5 38.5t-83.5 48t-56.5 48q-46 44 -77 88 t-49.5 90t-27 95t-8.5 100zM335 1197q0 -59 23.5 -104t60 -76.5t78.5 -50.5q41 -19 78 -28l157 -40v645q-46 -1 -93 -11t-91.5 -28t-83 -45.5t-67 -65t-45.5 -87t-17 -109.5zM838 59q47 4 98.5 15.5t100 30.5t91.5 47t76 64.5t52.5 82.5t19.5 103q0 71 -20 122t-67.5 89.5 t-124.5 67t-190 57.5l-36 7v-686z" />
<glyph unicode="%" horiz-adv-x="2046" d="M200 1281q0 40 4.5 85t16.5 89t33 84t53 71.5t77.5 49t106 17.5t106 -17.5t77.5 -49t53.5 -71.5t34.5 -84t18 -89t5 -85t-5 -84t-18 -88.5t-34.5 -84t-53.5 -70t-77.5 -48.5t-106.5 -18t-106 18t-77 48.5t-53 70t-33 84t-16.5 88.5t-4.5 84zM337 1286q0 -66 9 -118.5 t27.5 -89.5t47 -57t69.5 -20t68.5 20t45 56.5t24.5 90t7 120.5q0 65 -7 116.5t-24.5 87t-45 55t-68.5 19.5q-82 0 -117.5 -72.5t-35.5 -207.5zM340 0l1223 1719h164l-1225 -1719h-162zM1276 386q0 40 5 85t17 88.5t32 84.5t52 71.5t77 49.5t108 19q60 0 105 -19t78 -49.5 t54.5 -71.5t33.5 -84.5t17 -88.5t5 -85t-5 -84.5t-17 -88t-33.5 -83.5t-54.5 -70t-78 -48t-105 -18q-61 0 -107 18t-78 48t-52 70t-32 83.5t-17 88t-5 84.5zM1414 389q0 -64 8.5 -116.5t26.5 -89.5t47.5 -57t70.5 -20q42 0 69 19t44 56.5t25 91t8 122.5q0 64 -8 115 t-25 86.5t-44 55t-69 19.5q-83 0 -118 -72.5t-35 -209.5z" />
<glyph unicode="&#x26;" horiz-adv-x="1562" d="M110 393q0 85 17 152t62.5 129t124 123t202.5 131q-50 63 -88.5 113t-64.5 96t-39.5 91t-13.5 99q0 70 26.5 135t76.5 116t122.5 81.5t163.5 30.5q95 0 164 -30.5t113.5 -78.5t66 -108t21.5 -120q0 -86 -36 -154t-88.5 -122.5t-113.5 -96.5t-111 -76l385 -459 q31 71 57.5 147.5t43.5 169.5h132q-12 -84 -46 -192t-99 -225l286 -345h-173l-181 227q-46 -54 -99.5 -102.5t-118.5 -84.5t-141.5 -56.5t-169.5 -20.5q-103 0 -178.5 23t-129 60.5t-87 84t-53 94.5t-26.5 92.5t-7 75.5zM250 408q0 -61 18 -107t47.5 -82t66.5 -60.5 t76.5 -40t77 -22.5t66.5 -7q64 0 125 19t116 51.5t103.5 76.5t88.5 94l-437 521q-87 -56 -152.5 -101.5t-109 -93.5t-65 -107t-21.5 -141zM443 1334q0 -46 21 -93.5t51 -92.5t64 -83q36 -38 62 -65q25 17 56.5 36t64.5 43t64.5 50t56 57t38.5 66.5t14 75.5q0 65 -20 111.5 t-53.5 76.5t-77 44t-88.5 14q-75 0 -124.5 -25.5t-77.5 -62.5t-39.5 -78t-11.5 -74z" />
<glyph unicode="'" horiz-adv-x="519" d="M189 1101v584h131v-584h-131z" />
<glyph unicode="(" horiz-adv-x="779" d="M197 626q0 163 24.5 307.5t72.5 280.5t118.5 266t163.5 263h100q-50 -90 -92.5 -171.5t-78 -162.5t-62.5 -164.5t-46 -177t-28.5 -203t-9.5 -239.5q0 -155 23.5 -288.5t66.5 -259.5t101 -249.5t126 -257.5h-93q-90 134 -162 258.5t-122 251t-76 260t-26 286.5z" />
<glyph unicode=")" horiz-adv-x="779" d="M103 -430q69 134 126.5 257.5t100.5 249.5t66.5 259.5t23.5 288.5q0 130 -9 239.5t-28.5 203t-46.5 177t-62 164.5t-78 162.5t-93 171.5h100q93 -134 164 -263.5t118.5 -265.5t72.5 -280.5t25 -307.5q0 -153 -26 -286.5t-76.5 -260t-121.5 -251.5q-70 -124 -162 -258h-94 z" />
<glyph unicode="*" horiz-adv-x="910" d="M103 1399l41 111l249 -90v265h122v-265l251 90l39 -111l-256 -82l160 -214l-98 -72l-156 225l-153 -224l-103 71l160 214z" />
<glyph unicode="+" horiz-adv-x="1458" d="M113 575v136h551v545h135v-545h547v-136h-547v-546h-135v546h-551z" />
<glyph unicode="," horiz-adv-x="650" d="M193 117q0 26 9.5 51t26 44.5t40.5 31.5q26 12 57 12q46 0 75 -19.5t45.5 -48.5t23 -64t6.5 -67q0 -70 -18.5 -135t-47.5 -116q-31 -55 -84 -91.5t-120 -44.5v95q8 2 23.5 7t31.5 15.5t32 25.5t27 37q20 37 29 78.5t10 72.5q-30 -4 -47 -4q-25 0 -46 7t-37.5 22t-26 38 t-9.5 53z" />
<glyph unicode="-" horiz-adv-x="1368" d="M194 573v138h981v-138h-981z" />
<glyph unicode="." horiz-adv-x="650" d="M192 131.5q0 25.5 8.5 50t25 44t41.5 30.5t59 11q33 0 58.5 -11t42 -30.5t25 -44.5t8.5 -49q0 -26 -8.5 -50.5t-25 -43.5t-42 -30.5t-58.5 -11.5q-34 0 -59 11.5t-41.5 30.5t-25 43.5t-8.5 50z" />
<glyph unicode="/" horiz-adv-x="1053" d="M-26 1q120 218 241 434t241 431t240.5 431t241.5 433h177q-121 -217 -242 -433t-241 -431t-241 -430.5t-242 -434.5h-175z" />
<glyph unicode="0" horiz-adv-x="1338" d="M116 821q0 84 9 180t32 189.5t62.5 180t101 152.5t148 104.5t200.5 38.5q116 0 202 -38.5t147.5 -104.5t101.5 -152.5t62 -180t31.5 -189.5t9.5 -180q0 -85 -9.5 -181.5t-31.5 -190t-62 -180t-101.5 -152.5t-147.5 -104.5t-202 -38.5t-201.5 38.5t-147 104.5t-101 152.5 t-62.5 180t-32 189.5t-9 182zM257 821q0 -166 25 -301t76 -229.5t127.5 -146t180.5 -51.5q108 0 186.5 52t130.5 147.5t77 230.5t25 301t-25 299.5t-75.5 228t-129.5 145t-186 50.5t-185 -51.5t-128 -145.5t-74.5 -228.5t-24.5 -300.5z" />
<glyph unicode="1" horiz-adv-x="1338" d="M327 1253v71q101 7 173.5 18.5t125 43t88 93t64.5 167.5h87v-1645h-141v1252h-397z" />
<glyph unicode="2" horiz-adv-x="1338" d="M110 1q6 118 37.5 213.5t81.5 172t116.5 135.5t144.5 104l255 143q69 39 127 77t101.5 85t68.5 107t25 142q0 58 -21 119t-67.5 111.5t-120 83t-180.5 32.5q-80 0 -139 -21t-101 -55t-70 -78.5t-43.5 -93t-22.5 -96.5t-10 -88h-140q2 123 33 211.5t77.5 150t105 99 t118 58t114 27t92.5 6.5q112 0 206 -33t164.5 -95t110.5 -151t40 -200q0 -70 -17.5 -127.5t-47.5 -106t-71.5 -88.5t-91.5 -75.5t-107 -69.5t-119 -68l-174 -97q-97 -55 -156 -115t-92.5 -116.5t-47 -104t-19.5 -76.5h943v-122h-1103z" />
<glyph unicode="3" horiz-adv-x="1338" d="M112 486h143q2 -66 25 -134.5t69.5 -126.5t119.5 -95t177 -37q99 0 180 24.5t138 71t88.5 115.5t31.5 159q0 78 -23.5 135t-61.5 97t-86.5 64.5t-99.5 38.5t-99.5 18.5t-87.5 4.5h-23t-25 -2q-6 0 -11.5 -0.5t-10.5 -0.5v100q16 -1 25.5 -1h18h17.5h25q64 0 132 19 t123 59t91 102.5t36 149.5q0 29 -7 61.5t-23.5 66.5t-44.5 64.5t-68 55t-94.5 38.5t-124.5 14q-76 0 -133 -18.5t-98 -50t-67.5 -70.5t-42.5 -81.5t-23.5 -84.5t-8.5 -77h-140q-2 58 9 117t36.5 115t66.5 104.5t99 85.5t135 58t174 21q117 0 209.5 -31.5t157 -87.5 t97 -132.5t32.5 -167.5q0 -77 -19 -136.5t-52.5 -104t-80 -76t-101.5 -52.5q70 -20 127.5 -54.5t98 -85t63.5 -117t23 -152.5q0 -94 -31.5 -183t-100 -158t-178.5 -111.5t-268 -42.5q-115 0 -213 36t-171 103t-113 161.5t-37 211.5z" />
<glyph unicode="4" horiz-adv-x="1338" d="M87 412v171l770 1063h128v-1111h249v-123h-249v-411h-140v411h-758zM216 535h629v875z" />
<glyph unicode="5" horiz-adv-x="1338" d="M106 385h143q11 -75 47.5 -129t91 -91.5t122.5 -55t144 -17.5q97 0 175 34t131.5 92.5t82 136t28.5 163.5q0 103 -36.5 183.5t-98 135t-139.5 81.5t-159 24q-52 -1 -100 -14t-90 -36t-77.5 -56.5t-60.5 -76.5l-140 7q30 218 61 431t61 429h825v-120h-718l-87 -589 q74 68 162 100.5t204 32.5q66 0 131 -14.5t123.5 -44.5t110 -73.5t89.5 -103t59.5 -134t21.5 -162.5q0 -40 -9 -96t-31.5 -116.5t-64 -121t-106.5 -107.5t-157.5 -77t-219.5 -30q-52 0 -107 8t-107.5 26.5t-102 49t-90.5 76.5t-70 109t-42 146z" />
<glyph unicode="6" horiz-adv-x="1338" d="M116 784q0 91 10.5 191t37 197.5t71 185.5t111.5 154.5t159.5 105.5t212.5 39q44 0 93.5 -7.5t97.5 -26.5t93 -48t81.5 -73.5t62 -105t37.5 -138.5h-128q-11 63 -37.5 115.5t-68.5 90.5t-101.5 59t-136.5 21q-92 0 -160.5 -33.5t-119.5 -88.5t-84.5 -125t-53.5 -144.5 t-28.5 -146t-8.5 -128.5v-30.5t3 -38.5q30 55 73.5 98.5t100 75t125 49.5t147.5 18q56 0 116.5 -13t118.5 -40t109 -68t89.5 -98t61.5 -131t23 -164q0 -123 -34.5 -226t-102.5 -177t-168 -116.5t-229 -42.5q-56 0 -116 11t-118.5 37.5t-113 71.5t-96.5 113q-38 59 -62 125.5 t-39 138.5t-22 150q-6 80 -6 163zM287 518q0 -49 12.5 -99t36 -97t58.5 -88.5t81 -73t101 -49.5t120 -18q89 0 160.5 31.5t121.5 89.5t76.5 138t26.5 177q0 44 -8 92t-26.5 92.5t-49 84.5t-75 70.5t-103 48t-134.5 17.5q-92 0 -165.5 -33t-124 -90t-79.5 -133t-29 -160z" />
<glyph unicode="7" horiz-adv-x="1338" d="M116 1493v133h1117v-147q-45 -49 -104 -125.5t-128 -179t-139.5 -229.5t-134 -275t-116 -316t-83.5 -353h-138q18 116 51.5 244t81.5 260.5t107 266t128.5 261t147.5 244.5t161 216h-951z" />
<glyph unicode="8" horiz-adv-x="1338" d="M113 470q0 73 25 140.5t69.5 121t105 92t129.5 54.5q-60 23 -108 60t-81.5 85t-51.5 105q-18 56 -18 119q0 44 11.5 92t36 94t61.5 87.5t90 73.5t122 50t155 18q135 0 228.5 -38t153 -99t86 -134t26.5 -141q0 -70 -17.5 -126.5t-48 -102.5t-73.5 -81t-97 -62 q90 -37 145.5 -87t86.5 -104.5t41 -109t10 -97.5q0 -101 -36.5 -194.5t-106 -164t-170.5 -112.5t-228 -42t-229.5 41t-172.5 110t-107 160t-37 192zM255 469q0 -41 9 -85t30.5 -85.5t53.5 -78.5t77 -65t104.5 -43.5t132.5 -15.5q70 0 141 22t128 68.5t93 119t36 172.5 q0 84 -34.5 147.5t-91 106.5t-128 65t-147.5 22q-97 0 -173 -29t-127.5 -77.5t-77.5 -112.5t-26 -131zM323 1253q0 -69 28.5 -125.5t76.5 -97t109.5 -62t128.5 -21.5q73 0 136 22.5t109.5 63.5t73.5 96t27 121q0 51 -17 102t-57.5 93t-108.5 68.5t-170 26.5 q-96 0 -160 -25.5t-102.5 -67t-56 -93t-17.5 -101.5z" />
<glyph unicode="9" horiz-adv-x="1338" d="M109 1095q0 123 34 226t102 177.5t167.5 116.5t229.5 42q54 0 115 -10.5t119.5 -37.5t113.5 -72.5t98 -112.5q37 -58 61.5 -124.5t39 -139t21 -151t6.5 -161.5q0 -92 -11 -192t-37.5 -197t-71 -185t-111.5 -154.5t-158.5 -106t-213.5 -39.5q-44 0 -93.5 7.5t-97 26 t-92.5 48.5t-81.5 74t-62.5 104.5t-37 138.5h128q12 -63 37.5 -115t68.5 -90t102.5 -59.5t135.5 -21.5q90 0 159 33.5t120 88t84.5 124.5t53.5 144.5t28.5 146.5t8.5 130v30.5t-1 36.5q-30 -55 -74.5 -97.5t-101 -75t-124.5 -49.5t-148 -17q-55 0 -116 13t-118 39.5 t-108.5 68t-90.5 98.5t-61.5 130t-22.5 164zM250 1103q0 -45 8 -93t26.5 -92t49.5 -85t75 -71t103 -47q57 -17 134 -17q92 0 165.5 33t125 90t79.5 132t28 161q0 49 -12 98t-36 97t-59 89.5t-80 73t-100.5 49.5t-121.5 18q-90 0 -161 -32.5t-121 -89.5t-76.5 -138 t-26.5 -176z" />
<glyph unicode=":" horiz-adv-x="650" d="M192 123q0 26 8.5 50t25 43t41.5 31t59 12q33 0 58.5 -12t42 -31t25 -44t8.5 -49q0 -26 -8.5 -50t-25 -43.5t-42 -31t-58.5 -11.5q-34 0 -59 11.5t-41.5 31t-25 43.5t-8.5 50zM192 1061q0 26 8.5 50t25 43.5t41.5 31t59 11.5q33 0 58.5 -11.5t42 -31t25 -44.5t8.5 -49 q0 -26 -8.5 -50t-25 -43.5t-42 -31t-58.5 -11.5q-34 0 -59 11.5t-41.5 31t-25 43.5t-8.5 50z" />
<glyph unicode=";" horiz-adv-x="650" d="M192 1061q0 26 8.5 50t25 43.5t41.5 31t59 11.5q33 0 58.5 -11.5t42 -31t25 -44.5t8.5 -49q0 -26 -8.5 -50t-25 -43.5t-42 -31t-58.5 -11.5q-34 0 -59 11.5t-41.5 31t-25 43.5t-8.5 50zM193 117q0 26 9.5 51t26 44.5t40.5 31.5q26 12 57 12q46 0 75 -19.5t45.5 -48.5 t23 -64t6.5 -67q0 -70 -18.5 -135t-47.5 -116q-31 -55 -84 -91.5t-120 -44.5v95q8 2 23.5 7t31.5 15.5t32 25.5t27 37q20 37 29 78.5t10 72.5q-30 -4 -47 -4q-25 0 -46 7t-37.5 22t-26 38t-9.5 53z" />
<glyph unicode="&#x3c;" horiz-adv-x="1368" d="M132 523v139l1106 471v-148l-943 -392l943 -391v-149z" />
<glyph unicode="=" horiz-adv-x="1401" d="M124 340v133h1150v-133h-1150zM124 812v138h1150v-138h-1150z" />
<glyph unicode="&#x3e;" horiz-adv-x="1368" d="M132 53v149l939 391l-939 392v148l1106 -471v-139z" />
<glyph unicode="?" horiz-adv-x="1302" d="M142 1195v7v1.5v2v7.5q0 51 9 104t30.5 102.5t56 95t84.5 84.5q68 54 153.5 79t179.5 25q97 0 184.5 -28t154 -81.5t105 -132t38.5 -180.5q0 -65 -13 -114.5t-40 -95.5t-70 -93t-101.5 -105.5t-98.5 -105t-66 -96.5t-38 -111t-14 -151h-141q1 89 13.5 155.5t38 121.5 t66.5 105.5t101 113.5q60 62 102 107t68.5 85.5t38.5 82t12 97.5q0 29 -7 64t-23.5 70t-43 67t-65 58t-90.5 41t-118 15q-80 0 -138 -21t-99.5 -54.5t-68 -75.5t-41 -86.5t-20.5 -86t-8 -73.5h-131zM509 99q0 23 8 45t23 39t37 27t54 10q30 0 52 -10t37 -27t22 -39t7 -45 t-7 -45.5t-22 -39.5t-37 -27t-52 -10t-53 10t-38 27t-23 39.5t-8 45.5z" />
<glyph unicode="@" horiz-adv-x="2378" d="M358 845q0 120 31 231.5t87.5 208t136 175.5t176 136t207.5 88t231 31q107 0 207 -24.5t189 -69.5t162 -109.5t125.5 -144.5t82 -173.5t29.5 -198t-24.5 -194t-66 -163t-95.5 -131t-115 -96.5t-124.5 -59t-120.5 -20q-30 0 -53 10t-39.5 29t-23.5 47t-3 65 q-73 -77 -154.5 -114t-162.5 -37q-75 0 -136.5 28.5t-105 77t-68.5 114.5t-25 140q0 77 17 154.5t49.5 148t79 131.5t105 105.5t128.5 69.5q69 26 149 26q40 0 81.5 -11.5t78 -35t66.5 -62t48 -93.5l55 165h131q-27 -99 -54 -194t-55 -187q-20 -68 -37.5 -129.5t-31 -111.5 t-21.5 -86t-8 -49q0 -40 12 -57t51 -17q37 0 77.5 20t79.5 57t73 86.5t60 107.5t41 121t15 127q0 94 -24.5 176.5t-69.5 151t-106.5 122t-136 91t-158.5 56.5t-173 19q-106 0 -201 -27t-176 -76.5t-145 -119.5t-108.5 -155t-69 -182t-24.5 -203t26 -202t74 -178t115 -149 t149.5 -114.5t178 -73t200.5 -25.5q82 0 164.5 17t158 49t141.5 80t118 110h148q-58 -89 -139.5 -159t-179 -118t-204 -73t-212.5 -25q-124 0 -238 30.5t-211.5 87t-178 136t-137 177t-87.5 210.5t-31 234zM872 714q0 -53 15 -97t44 -76t66.5 -50t86.5 -18q50 0 96.5 22.5 t86.5 60t73 87t56 103t36.5 107.5t13.5 102q0 46 -16.5 87.5t-45 73t-65 50.5t-78.5 19q-54 0 -102.5 -21t-89.5 -57t-74 -83t-55.5 -99.5t-35 -106.5t-12.5 -104z" />
<glyph unicode="A" horiz-adv-x="1605" d="M80 0l636 1685h173l638 -1685h-143l-189 506h-785l-184 -506h-146zM455 621h696l-347 943z" />
<glyph unicode="B" horiz-adv-x="1598" d="M214 0v1685h728q113 0 199.5 -34.5t145.5 -91t88 -131t29 -155.5q0 -27 -1.5 -61t-9 -69t-24 -71.5t-46.5 -69t-74.5 -62t-108.5 -51.5q63 -11 125 -43t110.5 -84.5t78.5 -124t30 -159.5q0 -99 -30 -187t-94 -152.5t-165 -101.5t-243 -37h-738zM356 127h594 q98 0 172.5 26.5t124 73t73.5 110t24 138.5q0 94 -38.5 159t-100 104.5t-138.5 56.5t-155 17h-556v-685zM356 940h515q91 0 163.5 20.5t123 62t77 104.5t26.5 147q0 52 -20.5 102.5t-65 90.5t-114.5 65t-169 25h-536v-617z" />
<glyph unicode="C" horiz-adv-x="1726" d="M126 849q0 196 53 358t154.5 277.5t246.5 180t327 64.5q153 0 272 -43.5t203.5 -115t134.5 -164.5t67 -192h-141q-20 82 -55 142.5t-79.5 104t-96 72.5t-105 46t-107 24t-101.5 7q-125 0 -239 -48t-202 -142t-139.5 -236t-51.5 -330q0 -169 39.5 -312.5t119.5 -248 t200 -164t281 -59.5q43 0 94 8.5t105 30t106 58t100 93.5t86 136.5t63 186.5h142q-20 -113 -58 -199.5t-86 -151.5t-103.5 -111.5t-112 -77t-112.5 -48.5t-104.5 -27t-88 -11.5t-60.5 -2.5q-94 0 -187 21.5t-177 67.5t-154.5 116.5t-123 170.5t-81.5 229t-29 290z" />
<glyph unicode="D" horiz-adv-x="1726" d="M214 0v1685h674q163 0 292.5 -61t219.5 -169t138.5 -259t48.5 -331q0 -94 -13.5 -195t-46.5 -197.5t-86.5 -182.5t-132 -150t-184.5 -102t-243 -38h-667zM355 127h537q120 0 222.5 48t176 142.5t114.5 231t41 313.5q0 169 -40 297.5t-114 216t-176 132.5t-228 45h-533 v-1426z" />
<glyph unicode="E" horiz-adv-x="1598" d="M214 0v1685h1207v-132h-1065v-625h987v-127h-987v-674h1083v-127h-1225z" />
<glyph unicode="F" horiz-adv-x="1467" d="M214 0v1685h1146v-132h-1004v-625h887v-127h-887v-801h-142z" />
<glyph unicode="G" horiz-adv-x="1859" d="M126 849q0 108 20.5 215t63 205t107.5 182.5t153 146t199.5 96.5t247.5 35q131 0 246 -31t206 -93.5t154.5 -160.5t95.5 -230h-148q-22 83 -57 145t-79.5 106.5t-97 73t-107.5 45t-110.5 23t-107.5 6.5q-134 0 -252 -51.5t-205 -149.5t-138 -241t-51 -326q0 -94 18 -188 t52 -179.5t86.5 -160t122.5 -129.5t158 -86.5t194 -31.5q83 0 160.5 24.5t146.5 68t126 105.5t98.5 138.5t64.5 164.5t23 185h-569v119h706v-875h-89l-62 270q-53 -80 -121 -139t-146 -98.5t-162.5 -59t-173.5 -19.5q-145 0 -259.5 41t-200.5 109.5t-146 158.5t-97 189.5 t-53.5 201.5t-16.5 195z" />
<glyph unicode="H" horiz-adv-x="1726" d="M214 0v1685h141v-734h1016v734h142v-1685h-142v824h-1016v-824h-141z" />
<glyph unicode="I" horiz-adv-x="657" d="M259 0v1685h140v-1685h-140z" />
<glyph unicode="J" horiz-adv-x="1206" d="M57 368v137h140v-120q0 -83 24 -140.5t66 -94t99 -52t123 -15.5q87 0 152 25t107.5 69.5t63 104.5t20.5 127v1276h140v-1243q0 -97 -19 -170t-52.5 -127.5t-79.5 -91t-99 -58t-109.5 -30.5t-111.5 -9q-95 0 -166.5 19t-123 52t-85 75t-53.5 88t-28 91.5t-8 86.5z" />
<glyph unicode="K" horiz-adv-x="1598" d="M214 0v1685h142v-916l965 916h192l-709 -678l742 -1007h-176l-655 925l-359 -333v-592h-142z" />
<glyph unicode="L" horiz-adv-x="1338" d="M214 0v1685h141v-1568h916v-117h-1057z" />
<glyph unicode="M" horiz-adv-x="1986" d="M214 0v1685h225l556 -1548l549 1548h228v-1685h-140v1163q0 94 5.5 185.5t5.5 183.5h-16l-544 -1532h-174l-553 1532h-13q2 -101 7 -191t5 -178v-1163h-141z" />
<glyph unicode="N" horiz-adv-x="1726" d="M214 0v1685h225l932 -1562v1562h142v-1685h-217l-941 1564v-1564h-141z" />
<glyph unicode="O" horiz-adv-x="1859" d="M112 842q0 69 10 143.5t31 149.5t55 148t81.5 139.5t110 122t142 97t176 64.5t212.5 23q153 0 272 -41t210 -108t154.5 -157t103.5 -189t58 -200.5t18 -191.5q0 -91 -17 -192t-56.5 -199.5t-101.5 -188t-153 -158t-212 -109.5t-276 -41q-158 0 -279.5 41t-212.5 109.5 t-153 158t-100.5 188t-55.5 200t-17 191.5zM253 842q0 -163 46 -303.5t133 -243.5t213 -162t285 -59q105 0 196.5 27.5t167 77.5t133 120t97.5 155t60 183t20 205q0 106 -20 204.5t-60 184.5t-97.5 155.5t-133 119.5t-167 77t-196.5 27q-106 0 -197.5 -27t-167 -76.5 t-134 -119t-97.5 -155t-60 -184t-21 -206.5z" />
<glyph unicode="P" horiz-adv-x="1598" d="M214 0v1685h748q113 0 206 -36t159.5 -98t102.5 -146.5t36 -183.5q0 -57 -13 -115.5t-39.5 -111.5t-68 -99.5t-97 -80t-128 -53.5t-160.5 -20h-605v-741h-141zM355 868h585q84 0 154 22t119.5 66t76.5 109.5t27 155.5q0 85 -28.5 147.5t-78.5 103.5t-118 61t-145 20h-592 v-685z" />
<glyph unicode="Q" horiz-adv-x="1859" d="M112 842q0 69 10 143.5t31 149.5t55 148t81.5 139.5t110 122t142 97t176 64.5t212.5 23q153 0 272 -41t210 -108t154.5 -157t103.5 -189t58 -200.5t18 -191.5q0 -83 -13.5 -173.5t-45 -180.5t-82.5 -175.5t-124 -153.5l236 -185l-83 -86l-247 195q-89 -59 -201 -94 t-256 -35q-158 0 -279.5 41t-212.5 109.5t-153 158t-100.5 188t-55.5 200t-17 191.5zM253 842q0 -163 46 -303.5t133 -243.5t213 -162t285 -59q101 0 187.5 24.5t159.5 70.5l-235 183l82 87l250 -196q56 53 99 119t72 142.5t44 161.5t15 176q0 106 -20 204.5t-60 184.5 t-97.5 155.5t-133 119.5t-167 77t-196.5 27q-106 0 -197.5 -27t-167 -76.5t-134 -119t-97.5 -155t-60 -184t-21 -206.5z" />
<glyph unicode="R" horiz-adv-x="1726" d="M214 0v1685h841q56 0 114 -9t112.5 -29.5t103 -55t84 -85t56.5 -120.5q21 -68 21 -159q0 -83 -20 -148t-56.5 -115t-87.5 -86t-111 -59q47 -12 89.5 -36.5t74.5 -64.5t53 -99.5t25 -142.5q3 -60 5 -136.5t9 -156.5q3 -31 7.5 -57.5t12 -48t22 -41t37.5 -36.5h-192 q-5 27 -10 64.5t-9.5 78t-7.5 80.5t-4.5 76.5t-2.5 64.5t-1 44q0 44 -5 87t-19 82t-39.5 73t-64 58t-95 37.5t-132.5 13.5h-669v-759h-141zM355 888h647q46 0 94.5 5.5t94 20t84.5 39.5t67.5 62t46 88t17.5 118q0 73 -16.5 126t-44.5 90t-63.5 59.5t-74.5 35t-76.5 17 t-69.5 4.5h-706v-665z" />
<glyph unicode="S" horiz-adv-x="1598" d="M139 503h141q13 -115 61 -196t119 -132.5t161.5 -74.5t187.5 -23q55 0 115 7.5t117 24.5t108.5 44t91 65.5t63 90t23.5 117.5q0 74 -23 127t-73.5 92.5t-130.5 69t-195 57.5l-339 83q-25 6 -62.5 18t-78 33t-81.5 50t-72.5 71.5t-52 98t-20.5 128.5q0 56 15 113t45.5 110 t79.5 99t115.5 80t152 53.5t191.5 19.5q130 0 225 -24.5t162.5 -65t109.5 -93t67 -107.5t36 -110t15 -101h-142q-8 100 -49 171.5t-104 118t-146 69t-174 22.5q-46 0 -98 -6.5t-103 -22.5t-97.5 -42t-81.5 -65.5t-56 -93.5q-22 -52 -22 -123q0 -63 24.5 -109.5t61.5 -77.5 t81.5 -50t87.5 -29l483 -121q73 -18 142.5 -51t124 -86t87 -128t32.5 -178q0 -91 -28.5 -161.5t-77 -123t-113 -88.5t-137.5 -57.5t-148.5 -31.5t-147.5 -10q-168 0 -290.5 41.5t-203.5 115t-124.5 174.5t-54.5 218z" />
<glyph unicode="T" horiz-adv-x="1467" d="M59 1557v128h1351v-128h-606v-1557h-140v1557h-605z" />
<glyph unicode="U" horiz-adv-x="1726" d="M212 552v1133h140v-1104q0 -101 21.5 -176t58.5 -130.5t86.5 -93t103.5 -58.5t112 -30.5t111 -9.5q59 0 121 10t121.5 33t111.5 61.5t92 93t62.5 128.5t22.5 169v1107h141v-1104q0 -126 -40.5 -240t-123.5 -199.5t-209 -135.5t-297 -50q-112 0 -203 22t-161.5 63t-122 96 t-84.5 122t-48.5 140.5t-15.5 152.5z" />
<glyph unicode="V" horiz-adv-x="1598" d="M83 1685h149l566 -1571l569 1571h150l-622 -1685h-191z" />
<glyph unicode="W" horiz-adv-x="2246" d="M59 1685h155l398 -1532h10l409 1532h195l401 -1532h16l389 1532h157l-453 -1685h-203l-405 1493h-1l-413 -1493h-202z" />
<glyph unicode="X" horiz-adv-x="1598" d="M94 -3l615 864l-587 824h177l498 -710l496 710h181l-586 -824l616 -861h-180l-527 755l-528 -755z" />
<glyph unicode="Y" horiz-adv-x="1598" d="M83 1685h163l552 -848l553 848h165l-647 -973v-712h-141v712z" />
<glyph unicode="Z" horiz-adv-x="1467" d="M80 0v144l1153 1422h-1074v119h1227v-145l-1153 -1423h1153v-117h-1306z" />
<glyph unicode="[" horiz-adv-x="650" d="M164 -458v2148h404v-128h-252v-1891h252v-129h-404z" />
<glyph unicode="\" horiz-adv-x="650" d="M-31 1727h135l580 -1771h-141z" />
<glyph unicode="]" horiz-adv-x="650" d="M84 -329h252v1891h-252v128h404v-2148h-404v129z" />
<glyph unicode="^" horiz-adv-x="1171" d="M40 676l475 948h141l477 -948h-131l-417 833l-412 -833h-133z" />
<glyph unicode="_" horiz-adv-x="1302" d="M0 -146h1303v-129h-1303v129z" />
<glyph unicode="`" horiz-adv-x="779" d="M63 1725h220l176 -329h-122z" />
<glyph unicode="a" horiz-adv-x="1355" d="M126 306q0 26 4 60t17 71.5t38 76t64.5 71.5t96.5 58t137 35l371 51q23 3 48 10t46.5 26t35.5 51.5t14 88.5t-20 104t-62 83t-108 54t-156 19q-103 0 -168.5 -26t-104.5 -67t-54.5 -89.5t-17.5 -91.5h-115q5 96 40 166t95.5 115t145.5 66.5t189 21.5q26 0 69.5 -3.5 t93.5 -16t101.5 -34.5t93 -61.5t68.5 -96.5q26 -56 26 -136v-743q0 -50 23.5 -68t75.5 -18q8 0 18 2q10 1 22 4v-95q-20 -5 -42.5 -9t-46.5 -4q-46 0 -78 12.5t-52 34t-29.5 51.5t-7.5 67l1 40q-37 -47 -88 -88.5t-115 -71t-140.5 -46.5t-164.5 -17q-80 0 -146.5 24 t-115 69.5t-75.5 108t-27 141.5zM246 310q0 -53 17 -97t54.5 -77t93 -51t134.5 -18q51 0 104 15t103 41t93.5 61t76.5 76.5t51.5 86.5t18.5 91v240q-22 -17 -58.5 -28.5t-89 -20t-119 -17.5t-147.5 -20q-55 -9 -113.5 -21.5t-107 -42.5t-80 -81.5t-31.5 -136.5z" />
<glyph unicode="b" horiz-adv-x="1355" d="M197 0v1685h132v-650q46 70 97.5 113t103.5 68t103 34q51 8 99 8q120 0 215 -47.5t159.5 -133t99 -201t34.5 -253.5q0 -68 -11 -144t-35 -149t-64 -140t-98 -118t-136 -81t-178 -30q-73 0 -132.5 19.5t-108.5 52.5t-88 77q-40 44 -72 93v-203h-120zM320 612 q0 -132 39 -232.5t96.5 -168.5t127 -103t132.5 -35q97 0 171.5 43t126.5 117t79.5 175t27.5 215q0 42 -6.5 96.5t-23 112t-44.5 115t-71 102t-103 71.5t-141 27q-75 0 -135 -23t-105.5 -62.5t-78 -92t-52.5 -111.5t-30 -122.5t-10 -123.5z" />
<glyph unicode="c" horiz-adv-x="1224" d="M113 585q0 91 15 177.5t45 162t76 137.5t107.5 106.5t138.5 67.5q80 24 174 24q112 0 194 -36t138 -94.5t86 -132t37 -148.5h-120q-10 70 -38 126.5t-72.5 97.5t-103.5 62.5t-134 21.5q-108 0 -187.5 -45t-131 -123t-77 -181.5t-25.5 -219.5q0 -59 9 -120.5t30 -120 t52.5 -109.5t77.5 -90t107 -61.5t138 -22.5q60 0 119 21t106 62.5t80.5 103.5t43.5 145h125q-8 -47 -23 -98t-40 -98.5t-62 -90.5t-88 -76t-116.5 -51.5t-147.5 -18.5q-125 0 -224 46.5t-167.5 128.5t-105 196.5t-36.5 250.5z" />
<glyph unicode="d" horiz-adv-x="1355" d="M117 623q0 138 33.5 253.5t99 201t159.5 133t214 47.5q46 0 99 -8.5t105 -33.5t103.5 -68.5t97.5 -112.5v650h132v-1685h-122v203q-31 -50 -70.5 -93.5t-88 -76.5t-108 -52.5t-133.5 -19.5q-100 0 -177.5 30t-135.5 81t-98 118t-64 140t-35 149.5t-11 143.5zM237 623 q0 -115 27.5 -215.5t79 -174.5t126.5 -117t172 -43q42 0 87 15.5t88.5 46.5t83.5 76t70 105t47 134.5t17 161.5q0 60 -9 123.5t-30 122.5t-52.5 111.5t-77 92t-105 62.5t-135.5 23q-81 0 -141 -27t-104 -71.5t-71 -102t-44 -115t-23 -112t-6 -96.5z" />
<glyph unicode="e" horiz-adv-x="1355" d="M137 573q0 143 36 268.5t105 218.5t173.5 146.5t240.5 53.5q126 0 224 -46.5t166 -131t103.5 -202.5t35.5 -259v-25.5v-24.5h-962q0 -118 30.5 -211.5t86.5 -158t134.5 -98t173.5 -33.5q81 0 144.5 21.5t111.5 59.5t80 89q32 49 50 106h127q-19 -76 -62.5 -145t-109 -122 t-151.5 -84.5t-190 -31.5q-128 0 -228.5 45.5t-171.5 126.5t-109 193t-38 245zM263 678h837q-5 60 -17.5 120t-35 113t-55 98.5t-78.5 78.5t-104.5 52.5t-131.5 19.5q-89 0 -162.5 -39.5t-128 -105t-86.5 -153t-38 -184.5z" />
<glyph unicode="f" horiz-adv-x="704" d="M82 1128v98h183v228q0 66 21 112.5t61.5 76.5t97.5 43.5t128 13.5h48v-97h-59q-90 0 -133.5 -35.5t-43.5 -124.5v-217h236v-98h-236v-1128h-120v1128h-183z" />
<glyph unicode="g" horiz-adv-x="1355" d="M117 602q0 69 11 144t35 148.5t64 141t98 118t135.5 80.5t177.5 30q70 0 130 -18.5t110 -51.5t91 -76.5t69 -93.5v202h122v-1119q0 -33 -1.5 -76.5t-8 -93.5t-20 -102t-40 -102t-66 -94.5t-97.5 -78t-136.5 -53t-182.5 -19.5q-33 0 -76.5 4.5t-89.5 16.5t-92.5 34 t-84.5 58.5t-66.5 89t-38.5 125.5h129q4 -52 25 -87.5t49.5 -60t64 -39.5t71.5 -23t68 -10t56 -2q98 0 165 25.5t112 67t71 94.5t38 109t15.5 108.5t3.5 93.5v98q-46 -70 -97.5 -113t-103.5 -68t-104 -33.5t-100 -8.5q-120 0 -214 48t-159.5 132.5t-99 201t-33.5 253.5z M237 602q0 -41 6 -96.5t23 -114t44 -115t71 -100.5t104 -72t141 -28q75 0 135 23.5t105.5 63t77 91.5t52.5 112t30 123.5t9 123.5q0 132 -35 233t-91.5 169.5t-128 104t-144.5 35.5q-94 0 -167.5 -42.5t-125 -118.5t-79 -177t-27.5 -215z" />
<glyph unicode="h" horiz-adv-x="1355" d="M197 0v1685h122v-661q70 111 171.5 172.5t244.5 61.5q46 0 94.5 -7t96.5 -25.5t89.5 -48.5t73.5 -76t51.5 -109.5t19.5 -147.5v-844h-122v844q0 70 -18.5 128t-57 99.5t-97 63.5t-139.5 22q-44 0 -92 -15t-93 -43t-85.5 -69.5t-70.5 -95t-48 -119.5t-18 -140v-675h-122z " />
<glyph unicode="i" horiz-adv-x="543" d="M212 0v1226h120v-1226h-120zM212 1496v189h120v-189h-120z" />
<glyph unicode="j" horiz-adv-x="547" d="M17 -379h14q56 0 92 4.5t56 23.5t28.5 55.5t8.5 101.5v1420h120v-1436q0 -33 -2 -66t-11.5 -63.5t-26 -57t-45 -45t-71.5 -30t-104 -11.5q-23 0 -36 -1q-13 -2 -23 1v104zM216 1496v189h120v-189h-120z" />
<glyph unicode="k" horiz-adv-x="1224" d="M197 0v1702h122v-1123l638 647h154l-445 -448l494 -778h-146l-426 699l-269 -269v-430h-122z" />
<glyph unicode="l" horiz-adv-x="543" d="M212 0v1685h120v-1685h-120z" />
<glyph unicode="m" horiz-adv-x="2003" d="M197 0v1226h122v-199q63 106 161 164.5t231 58.5q88 0 147.5 -23t97.5 -58t58.5 -76.5t30.5 -78.5q38 67 81.5 112t92 73t103 39.5t111.5 11.5q38 0 82 -6t86 -21.5t81.5 -44t69.5 -74.5t47 -111.5t17 -154.5v-838h-120v807q0 70 -11.5 131.5t-41 108t-80.5 72.5t-133 26 q-54 0 -101.5 -17.5t-88 -49t-73.5 -73t-56 -89t-35 -96.5q-12 -48 -12 -94v-726h-120v849q0 29 -3 62.5t-12.5 67t-25.5 64.5t-43.5 54.5t-65.5 38t-92 14.5q-38 0 -81 -12.5t-86 -38t-82.5 -66.5t-68.5 -97.5t-47 -130t-18 -164.5v-641h-122z" />
<glyph unicode="n" horiz-adv-x="1355" d="M197 0v1226h122v-185q73 103 178 161t252 58q46 0 94.5 -7t93.5 -25t86 -49t71 -76.5t48 -110t18 -148.5v-844h-122v829q0 159 -74.5 245.5t-228.5 86.5q-34 0 -78.5 -10.5t-91 -35t-91 -62.5t-79.5 -90t-55.5 -120t-20.5 -154v-689h-122z" />
<glyph unicode="o" horiz-adv-x="1355" d="M126 615q0 77 14 155.5t44 150t76 134t107.5 107.5t140 71.5t173.5 26.5t173 -26.5t139.5 -71.5t106.5 -107.5t74 -134t43 -150t14 -155.5q0 -80 -14 -158.5t-43 -151t-74 -134t-106.5 -107t-140 -71.5t-173 -26t-173 26t-140 71.5t-107.5 107t-76 134t-44 151t-14 158.5 zM246 615q0 -49 8.5 -107.5t28.5 -119.5t53 -118t81.5 -102t113.5 -71.5t150 -26.5q84 0 149 26.5t113 71.5t80 102t52 118t28 119.5t8 107.5t-8 108t-27 119t-51.5 117.5t-79.5 102.5t-113 71.5t-151 26.5t-150 -26.5t-113.5 -71.5t-81.5 -102.5t-53 -117.5t-28.5 -119 t-8.5 -108z" />
<glyph unicode="p" horiz-adv-x="1355" d="M197 -459v1685h120v-205q32 50 71.5 94.5t88.5 77.5t109 52q58 19 132 19q100 0 178 -30t136 -80.5t98 -118t64 -141t35 -149.5t11 -143q0 -137 -34.5 -253.5t-99 -201t-158.5 -132.5q-96 -48 -216 -48q-47 0 -98.5 8.5t-103.5 33.5t-103.5 68t-97.5 113v-649h-132z M320 613q0 -60 10 -123.5t30 -122t52.5 -111.5t78 -92.5t105 -62t135.5 -22.5q81 0 141 27t103 71.5t71 101t44.5 115t23 113t6.5 95.5q0 116 -27.5 216t-79.5 174.5t-126.5 117.5t-171.5 43q-63 0 -132.5 -35t-127 -103t-96.5 -169t-39 -233z" />
<glyph unicode="q" horiz-adv-x="1355" d="M117 602q0 69 11 144t35 148.5t64 141t98 118t135.5 80.5t177.5 30q73 0 133 -19t108.5 -52t88 -77.5t70.5 -94.5v205h122v-1685h-132v649q-46 -70 -97.5 -113t-103.5 -68t-104 -33.5t-100 -8.5q-120 0 -214 48t-159.5 132.5t-99 201t-33.5 253.5zM237 602q0 -41 6 -95.5 t23 -113t44 -115t71 -101t104 -71.5t141 -27q75 0 135 22.5t105.5 62t77 92.5t52.5 111.5t30 122t9 123.5q0 88 -17 162t-47 134.5t-70 105.5t-83.5 75.5t-88.5 46.5t-87 16q-97 0 -172 -43t-126.5 -117.5t-79 -175.5t-27.5 -215z" />
<glyph unicode="r" horiz-adv-x="796" d="M202 0v1226h115v-226q36 70 84 120t102.5 80.5t112.5 45t115 14.5h11.5t12.5 -2v-107h-51q-56 0 -105.5 -20.5t-92.5 -56.5t-76.5 -82.5t-58 -98t-37 -105t-12.5 -103.5v-685h-120z" />
<glyph unicode="s" horiz-adv-x="1224" d="M120 358h120q3 -29 11.5 -62t23 -66t40 -63t65.5 -53.5t97.5 -37t138.5 -13.5q79 0 145 19.5t113.5 54.5t74 84t26.5 109q0 45 -10 80.5t-43 65.5t-93 53.5t-158 45.5l-239 51q-64 13 -115 34.5t-87 55t-53.5 82.5t-17.5 116q0 88 36.5 153.5t98 108t142 63.5t169.5 21 q94 0 163.5 -18.5t119 -49.5t81 -69t50 -76.5t26 -73.5t10.5 -59h-121q-2 24 -7.5 51t-20 54.5t-38 53t-61.5 45t-90.5 31t-124.5 11.5q-26 0 -59.5 -4.5t-67 -16t-66.5 -29t-58.5 -44t-41.5 -63t-16 -85.5q0 -41 10 -72t38.5 -55.5t80 -43.5t133.5 -36l204 -42 q99 -20 165.5 -50.5t107 -72t58.5 -95t18 -121.5q0 -83 -35.5 -150t-99.5 -115.5t-149.5 -75t-185.5 -26.5q-109 0 -188.5 18.5t-135 50t-90 72t-54.5 84.5t-28.5 88t-11.5 82z" />
<glyph unicode="t" horiz-adv-x="704" d="M82 1128v98h190v341h120v-341h214v-98h-214v-902q0 -47 15 -73.5t37 -38.5t49.5 -13.5t51.5 -1.5h61v-102q-48 -6 -75.5 -6h-42.5q-66 0 -107.5 18t-66 49.5t-33.5 75t-9 95.5v899h-190z" />
<glyph unicode="u" horiz-adv-x="1355" d="M197 382v844h120v-830q0 -159 75.5 -246t228.5 -87q34 0 79 11.5t91.5 35.5t91 62t78.5 90.5t55.5 120t21.5 152.5v691h122v-1226h-122v187q-73 -103 -178 -162t-254 -59q-45 0 -93 7t-93 25t-86 48.5t-71 76.5t-48 110t-18 149z" />
<glyph unicode="v" horiz-adv-x="1224" d="M84 1224h136l398 -1108l386 1108h137l-439 -1223h-171z" />
<glyph unicode="w" horiz-adv-x="1744" d="M77 1226h135l297 -1109l280 1109h166l279 -1106l299 1106h136l-348 -1226h-174l-275 1085l-274 -1085h-175q-44 156 -87 308t-86.5 304.5t-86.5 305t-86 308.5z" />
<glyph unicode="x" horiz-adv-x="1224" d="M103 1l439 611l-439 612h142l368 -515l368 515h140l-437 -609l437 -614h-140l-368 512l-368 -512h-142z" />
<glyph unicode="y" horiz-adv-x="1224" d="M66 1226h140l410 -1156l398 1156h141l-534 -1452q-23 -63 -44.5 -108t-44.5 -75.5t-49.5 -49.5t-58.5 -29t-73 -12.5t-92 -2.5q-26 0 -45.5 2.5t-37.5 8.5v106q27 -6 62 -9.5t68 -3.5q31 0 55 4.5t43 16.5t35.5 34t33 58.5t36 89t43.5 126.5z" />
<glyph unicode="z" horiz-adv-x="1224" d="M117 1v129l847 997h-791v97h912v-137l-838 -988h861v-98h-991z" />
<glyph unicode="{" horiz-adv-x="783" d="M117 566v105q40 5 74.5 31t60 67.5t40.5 96.5t15 119v424q0 67 19 119t49.5 88.5t70 55t82.5 18.5h138v-117h-84q-37 0 -61.5 -15.5t-39.5 -44.5t-20.5 -66.5t-5.5 -82.5v-404q0 -82 -26.5 -141.5t-62.5 -100t-73 -64.5q-38 -25 -61 -36q15 -9 38 -22t47.5 -32 t49.5 -45.5t44 -62.5t31.5 -82.5t12.5 -103.5v-402q0 -44 5.5 -82t20.5 -67t39.5 -45.5t61.5 -16.5h84v-115h-138q-42 0 -82 19t-70.5 55.5t-49.5 88.5q-19 55 -19 121v419q0 64 -15 119.5t-41 98.5t-60.5 69.5t-73.5 33.5z" />
<glyph unicode="|" horiz-adv-x="607" d="M232 -44v1771h144v-1771h-144z" />
<glyph unicode="}" horiz-adv-x="783" d="M117 -343h85q37 0 61 16.5t39 45.5t21.5 68t6.5 81v402q0 59 12.5 104.5t31 81.5t43.5 62.5t49 45.5t46.5 32t39.5 22q-23 11 -61 35.5t-73.5 65t-61.5 100t-26 141.5v404q0 45 -6.5 82.5t-21.5 66.5t-39 44.5t-61 15.5h-85v117h139q41 0 81.5 -18.5t71 -55t49 -88.5 t18.5 -119v-424q0 -64 15 -119t41 -96.5t61 -67.5t73 -31v-105q-38 -7 -72.5 -33.5t-61 -69.5t-41.5 -98.5t-15 -119.5v-419q0 -68 -18.5 -120.5t-49 -89t-70 -55.5t-82.5 -19h-139v115z" />
<glyph unicode="~" horiz-adv-x="1368" d="M153 552q20 36 45 70t59.5 62t78 44.5t99.5 16.5q63 0 128 -21.5t129 -49.5q92 -43 151 -65q58 -21 89 -21q38 0 68 13.5t54 35.5t45.5 51.5t43.5 60.5l73 -114q-26 -40 -56 -76t-65 -62.5t-76 -41.5t-87 -15q-31 0 -60.5 6t-58 16.5t-58 24t-59.5 29.5q-27 15 -58.5 30 t-65 26t-70.5 18.5t-77 7.5q-37 0 -68 -13.5t-54.5 -36t-42 -51t-34.5 -58.5z" />
<glyph unicode="&#xa2;" horiz-adv-x="1317" d="M186 904q0 177 54 303q27 63 71.5 111t99 80t115 47.5t119.5 15.5q20 0 48.5 -2t65.5 -6l115 395q25 -8 41.5 -13.5t42.5 -12.5l-110 -395q49 -23 86 -51t65.5 -63t48 -77t33.5 -93q-43 -6 -78.5 -11t-75.5 -11q-15 56 -43.5 99t-74.5 81l-236 -811q25 -11 45 -14 q23 -3 37 -3q53 0 99.5 18t83.5 52.5t64 85.5q28 52 39 117l159 -15q-22 -89 -63.5 -159t-98 -118t-128.5 -73.5t-155 -25.5q-22 0 -49 2.5t-63 8.5l-120 -405l-88 26l115 405q-58 30 -106.5 76.5t-83.5 111t-54.5 146t-19.5 178.5zM345 912q0 -138 38 -235q40 -96 100 -152 l245 813q-20 3 -37 5.5t-36 2.5q-66 0 -122.5 -28t-98.5 -83t-65.5 -136t-23.5 -187z" />
<glyph unicode="&#xa3;" horiz-adv-x="1422" d="M109 124q55 33 104 81t84 108t55.5 131.5t20.5 153.5q0 37 -6.5 81.5t-21.5 95.5h-221v114h185q-23 75 -38 125.5t-22 87t-9.5 64.5t-2.5 60q0 105 42.5 189t113 141.5t160 88.5t185.5 31q97 0 178.5 -26.5t143 -77t102.5 -124.5q39 -74 56 -168q-20 -2 -37.5 -4t-34 -4 t-32.5 -3.5t-36 -4.5q-13 69 -40 122.5t-69 90.5t-99.5 56.5t-131.5 19.5q-76 0 -140.5 -24.5t-111 -67t-72 -102t-25.5 -129.5q0 -59 18 -141t59 -200h373v-114h-343q16 -37 24 -78.5t8 -84.5q0 -37 -8.5 -91.5t-31.5 -116t-63 -124.5t-103 -117q66 20 116 23.5t83 3.5 q48 0 99.5 -10t110.5 -24q100 -26 167 -40t104 -14q43 0 97 12.5t115 44.5q7 -20 13 -36.5t12.5 -31t12 -28.5t12.5 -33q-44 -20 -80 -32t-65 -19.5t-55.5 -9.5t-53.5 -2q-28 0 -52 3t-50.5 8.5t-58.5 15t-78 22.5q-72 21 -115 32.5t-70 17.5t-44 6.5t-36 0.5 q-41 0 -84.5 -7t-87.5 -19.5t-86 -29.5t-79 -37z" />
<glyph unicode="&#xa5;" horiz-adv-x="2009" d="M316 1685h164l552 -848l554 848h164l-493 -741h413v-109h-485l-82 -123v-160h567v-107h-567v-445h-141v445h-592v107h592v160l-83 123h-509v109h438z" />
<glyph unicode="&#xa9;" horiz-adv-x="2006" d="M106 842.5q0 127.5 33.5 242.5t93 213t141.5 178t182 135.5t214.5 85.5t236.5 30q120 0 233.5 -30t213 -85.5t181.5 -135.5t141 -178t91.5 -213t32.5 -242.5t-32.5 -243.5t-91.5 -214.5t-141 -178t-181.5 -135t-213 -85.5t-233.5 -30q-122 0 -236.5 30t-214.5 85.5 t-182 135t-141.5 178t-93 214.5t-33.5 243.5zM263 842q0 -110 26 -209.5t73 -184.5t114 -153t150 -115.5t179 -73.5t202 -26q101 0 196 26t176.5 73.5t149.5 115.5t116 153t74.5 184.5t26.5 209.5q0 109 -26.5 207.5t-74.5 183t-116 152.5t-149.5 115t-176.5 73.5t-196 26.5 q-106 0 -202 -26.5t-179 -73.5t-150 -115t-114 -152.5t-73 -183t-26 -207.5zM569 829q0 -108 31.5 -197t88.5 -151.5t138.5 -96.5t180.5 -34q79 0 144.5 21.5t118 61t87.5 95.5q38 55 55 123l-127 41q-13 -48 -40.5 -89.5t-65 -71t-83.5 -46t-97 -16.5q-63 0 -115.5 23 t-90.5 68t-59 113t-21 156.5t22 157t62 114.5t95 70t122 24q43 0 81.5 -12.5t72.5 -36t60.5 -56.5t44.5 -72l125 37q-18 55 -53.5 101.5t-83.5 80t-108.5 52t-131.5 18.5q-103 0 -186.5 -30t-143 -90t-91.5 -150t-32 -208z" />
<glyph unicode="&#xab;" horiz-adv-x="1317" d="M183 603q84 122 164.5 238t164.5 237h123l-273 -473l273 -478h-123q-83 122 -164.5 238.5t-164.5 237.5zM656 603q85 122 165 238t164 237h122l-273 -473l274 -478h-124q-83 122 -164 238.5t-164 237.5z" />
<glyph unicode="&#xad;" horiz-adv-x="1368" d="M194 573v138h981v-138h-981z" />
<glyph unicode="&#xae;" horiz-adv-x="2006" d="M106 842.5q0 127.5 33.5 242.5t93 213t141.5 178t182 135.5t214.5 85.5t236.5 30q120 0 233.5 -30t213 -85.5t181.5 -135.5t141 -178t91.5 -213t32.5 -242.5t-32.5 -243.5t-91.5 -214.5t-141 -178t-181.5 -135t-213 -85.5t-233.5 -30q-122 0 -236.5 30t-214.5 85.5 t-182 135t-141.5 178t-93 214.5t-33.5 243.5zM263 842q0 -110 26 -209.5t73 -184.5t114 -153t150 -115.5t179 -73.5t202 -26q101 0 196 26t176.5 73.5t149.5 115.5t116 153t74.5 184.5t26.5 209.5q0 109 -26.5 207.5t-74.5 183t-116 152.5t-149.5 115t-176.5 73.5t-196 26.5 q-106 0 -202 -26.5t-179 -73.5t-150 -115t-114 -152.5t-73 -183t-26 -207.5zM671 339v1002h384q89 0 155 -15.5t108.5 -49t64 -87.5t21.5 -128q0 -69 -20.5 -116.5t-57 -80.5t-85 -51.5t-106.5 -26.5q70 -108 144 -222.5t144 -224.5h-152l-270 442h-190v-442h-140zM811 895 h191q52 0 98.5 3.5t82 21t57 52.5t21.5 98q0 51 -20 82t-52 48t-74.5 22.5t-86.5 5.5h-217v-333z" />
<glyph unicode="&#xbb;" horiz-adv-x="1317" d="M209 102l274 471l-274 479h123l329 -477l-329 -473h-123zM681 1052h123l329 -477l-329 -473h-122l273 471z" />
<glyph unicode="&#xbc;" horiz-adv-x="2129" d="M289 1367v66q51 16 87 32t61.5 41.5t43.5 64t31 96.5h87v-983h-124v683h-186zM459 0l1203 1685h146l-1202 -1685h-147zM1288 229v120l462 635h110v-648h115v-107h-115v-229h-118v229h-454zM1414 336h328v449z" />
<glyph unicode="&#xbd;" horiz-adv-x="2129" d="M289 1367v66q51 16 87 32t61.5 41.5t43.5 64t31 96.5h87v-983h-124v683h-186zM388 0l1202 1685h146l-1203 -1685h-145zM1310 0q3 74 20 137t57 120.5t107.5 112.5t170.5 113q50 29 87.5 53.5t64 50t39.5 56.5t13 72q0 23 -10.5 53t-35 57t-64.5 45.5t-97 18.5 q-46 0 -79.5 -11t-56.5 -30t-36.5 -43t-21.5 -50t-11 -51t-3 -45h-120q2 76 19.5 130.5t45.5 91.5t62.5 60.5t70 36t70 16.5t61.5 4q67 0 127 -20t104.5 -57t71 -90t26.5 -119q0 -68 -26.5 -119t-67 -89t-90.5 -68q-49 -30 -95 -56q-76 -45 -122.5 -82.5t-71.5 -68 t-34 -55.5t-11 -47h518v-127h-682z" />
<glyph unicode="&#xbe;" horiz-adv-x="2129" d="M182 947h117q1 -45 14.5 -83.5t40 -67t66.5 -45t98 -16.5q45 0 86.5 13t72.5 38.5t49 62t18 82.5q0 54 -24.5 91.5t-60.5 59.5t-78 32t-78 10q-13 0 -24 -2t-21 -2v107q15 -1 28 -2t25 -1q40 0 77 10t66.5 31.5t46.5 55t17 80.5q0 25 -10 52t-33 50.5t-61.5 38.5 t-95.5 15q-60 0 -99 -20.5t-60.5 -52t-30.5 -68t-11 -66.5h-113q-1 51 14 106.5t53 100.5t100 74q64 29 155 29q73 0 129 -19t94.5 -53.5t59 -81t20.5 -103.5q0 -46 -11 -81.5t-30 -63.5t-44.5 -48t-54.5 -35q39 -12 72 -33.5t56.5 -51.5t36.5 -70t13 -89q0 -54 -20 -107 t-63 -96t-111 -69.5t-162 -26.5q-71 0 -131.5 21.5t-105 62t-69.5 99.5t-23 132zM531 0l1202 1685h146l-1201 -1685h-147zM1288 229v120l462 635h110v-648h115v-107h-115v-229h-118v229h-454zM1414 336h328v449z" />
<glyph unicode="&#xd7;" horiz-adv-x="1451" d="M242 255l389 387l-385 386l96 96l386 -385l386 386l96 -97l-386 -386l386 -386l-96 -96l-386 386l-389 -387z" />
<glyph unicode="&#xf7;" horiz-adv-x="1458" d="M154 573v138h1150v-138h-1150zM586 204q0 31 11.5 57t31.5 45.5t46 30t54 10.5q30 0 55 -11t44 -30.5t30 -45t11 -56.5q0 -25 -11 -49.5t-30 -45t-44 -32t-55 -11.5q-28 0 -54 10.5t-46 30t-31.5 45t-11.5 52.5zM586 1134q0 30 11.5 55t31.5 44.5t46 30t54 10.5 q30 0 55 -10.5t44 -30t30 -44.5t11 -55q0 -29 -11 -54t-30 -45.5t-44 -32t-55 -11.5q-28 0 -54 11.5t-46 30.5t-31.5 45t-11.5 56z" />
<glyph unicode="&#xe01;" horiz-adv-x="1481" d="M219 1004v156q0 84 42 143.5t113.5 97.5t164.5 54t196 16q113 0 209.5 -14t166.5 -50t110 -96.5t40 -153.5v-1157h-120v1140q0 71 -25.5 117t-75.5 71.5t-124.5 35.5t-173.5 10q-94 0 -169 -11.5t-127.5 -37t-80.5 -66.5t-28 -98v-73h226v-76q-25 -7 -62.5 -28.5 t-72.5 -66.5q-18 -25 -28 -48.5t-14 -46.5t-5 -42t-1 -32v-748h-120v771q0 33 8 69.5t31 73.5q23 33 48.5 54.5t54.5 35.5h-183z" />
<glyph unicode="&#xe02;" horiz-adv-x="1319" d="M76 1193q1 77 34 131.5t86 88.5t119.5 50t134.5 16q73 0 140.5 -21.5t119 -63t81.5 -101.5t30 -136q0 -72 -14.5 -122.5t-43 -96.5t-72.5 -91q-45 -45 -102 -103q-34 -35 -62 -65t-47.5 -60.5t-29.5 -66.5t-10 -82v-215q0 -48 9.5 -78t29.5 -46.5t52 -22.5t80 -6h224 q50 0 79.5 9t44.5 28.5t18.5 48.5t3.5 69v1207h119v-1261q0 -44 -9.5 -81.5t-30 -64.5t-53 -42t-76.5 -15h-442q-51 0 -83.5 17t-51.5 47t-26.5 70t-7.5 83v253q2 63 14.5 110.5t36.5 86.5t58 75t77 75q40 35 76 71.5t64 76.5t44 87.5t16 107.5q0 63 -29 106.5t-72.5 69 t-93 34.5t-89.5 0q34 -16 57.5 -37.5t37.5 -45t19 -48.5q6 -26 6 -49q0 -49 -16.5 -91t-46.5 -73.5t-71.5 -50t-90.5 -18.5q-54 -2 -98.5 15.5t-76.5 49.5t-50 75.5t-16 95.5zM184 1178.5q0 -31.5 14.5 -58t42.5 -44.5t68 -18q41 0 68.5 18t41 44.5t13.5 58t-13.5 58.5 t-41 45t-68.5 18q-42 0 -69 -18t-41.5 -45t-14.5 -58.5z" />
<glyph unicode="&#xe03;" horiz-adv-x="1358" d="M87 1153q-3 65 16.5 122.5t57.5 101.5t94.5 69t127.5 25q49 0 86 -10.5t64.5 -27t46.5 -35.5t35 -37q3 6 16.5 24t33.5 38t45 34t51 10q27 -3 50 -21.5t39.5 -51.5t25.5 -78t9 -98q0 -74 -15 -135t-46.5 -116.5t-78.5 -110.5t-113 -117q-33 -31 -61 -60.5t-48.5 -61 t-32 -68t-11.5 -79.5v-227q0 -49 9.5 -76.5t29.5 -42.5t52.5 -19.5t80.5 -4.5h224q46 0 74 10t43.5 30t20.5 48.5t5 66.5v1209h120v-1232q0 -110 -40 -171t-127 -61h-442q-49 0 -81.5 18.5t-52 51t-27.5 75t-8 90.5v235q2 63 15 109t36.5 83t57 71.5t76.5 75.5 q46 45 87.5 90.5t72 95t47.5 104.5t17 118q0 49 -10 81t-33 32q-12 0 -28 -11.5t-31 -28.5t-28.5 -37t-23.5 -36q-29 41 -63 71t-73 49t-80 23t-84 -7q30 -6 62 -20.5t57 -38.5t41.5 -61.5t16.5 -88.5q0 -50 -16 -89.5t-43 -66.5t-62.5 -40.5t-75.5 -13.5q-42 0 -78.5 14 t-64.5 42t-45 69t-20 94zM193 1146q1 -29 12 -54t33 -42.5t54 -17.5q33 0 55 17.5t32.5 42.5t10.5 54t-10.5 55t-32.5 42.5t-55 16.5q-35 0 -57 -16.5t-32.5 -42.5t-9.5 -55z" />
<glyph unicode="&#xe04;" horiz-adv-x="1535" d="M217 0v1155q0 89 45 150.5t121 98.5t175.5 52t207.5 15q76 0 147 -5.5t132.5 -19t111.5 -37t86.5 -59.5t56.5 -84.5t20 -112.5v-1153h-120v1140q0 68 -30 112t-86.5 69.5t-136.5 35.5t-181 10q-112 0 -193 -14.5t-133 -43t-77.5 -70.5t-25.5 -99v-509v-256q13 41 27 82 t27.5 78t26.5 69q14 32 22 57q16 40 32 81.5t36 81.5t43.5 75.5t54 63t69.5 43.5t87 16q55 0 98.5 -16t74 -45.5t47 -70.5t16.5 -91q0 -61 -19 -106t-51.5 -74.5t-73 -43.5t-83.5 -14q-55 0 -107 24t-88 80q-20 -42 -37 -79t-35 -80t-38 -99.5t-46 -136.5 q-21 -66 -36.5 -135t-27.5 -135h-139zM646 792q0 -23 7.5 -43.5t22.5 -37t37 -27t52 -10.5t52 10.5t37 27t22.5 38t7.5 42.5q0 23 -7.5 44t-22.5 38t-37 27.5t-52 10.5t-52 -10.5t-37 -27.5t-22.5 -38t-7.5 -44z" />
<glyph unicode="&#xe05;" horiz-adv-x="1535" d="M217 0v1151q0 16 3 41.5t14 56.5t32 64.5t57 67.5q30 28 63.5 45t66 26t59 13.5t40.5 4.5h4l205 -166l220 167q79 0 141.5 -27t107 -73.5t67.5 -105t23 -121.5v-1144h-120v1140q0 45 -14.5 86t-40 70.5t-62 45.5t-82.5 16l-239 -178l-230 170q-47 1 -83 -17.5t-61 -49 t-38 -70t-13 -78.5v-760q13 41 27 82t27.5 78t26.5 69q14 32 22 57q16 40 32 81.5t36 81.5t43.5 75.5t54 63t69.5 43.5t87 16q55 0 98.5 -16t74 -45.5t47 -70.5t16.5 -91q0 -61 -19 -106t-51.5 -74.5t-73 -43.5t-83.5 -14q-55 0 -107 24t-88 80q-20 -42 -37 -79t-35 -80 t-38 -99.5t-46 -136.5q-21 -66 -36.5 -135t-27.5 -135h-139zM646 792q0 -23 7.5 -43.5t22.5 -37t37 -27t52 -10.5t52 10.5t37 27t22.5 38t7.5 42.5q0 23 -7.5 44t-22.5 38t-37 27.5t-52 10.5t-52 -10.5t-37 -27.5t-22.5 -38t-7.5 -44z" />
<glyph unicode="&#xe06;" horiz-adv-x="1638" d="M87 1153q-3 65 16.5 122.5t57.5 101.5t94.5 69t127.5 25q49 0 86 -10.5t64.5 -27t46.5 -35.5t35 -37q3 6 16.5 24t33.5 38t45 34t51 10q27 -3 51.5 -19.5t43 -46.5t29 -71.5t10.5 -95.5q0 -37 -10.5 -72t-27 -68.5t-36.5 -66t-39 -62.5q-17 -25 -34 -50.5t-30.5 -48 t-21.5 -45.5t-8 -47v-90q11 -2 39.5 -5.5t68 -13t87 -27t94.5 -46.5q61 -37 111 -81.5t90 -90t71 -88.5t51 -79v1211h119v-1464h-125q-8 31 -27 82t-54 112t-87 126.5t-129 129.5q-59 49 -114 75t-98 37t-69.5 12t-27.5 1v-369q0 -43 -11 -81.5t-33.5 -68.5t-59 -48.5 t-85.5 -23.5q-60 -4 -112 14.5t-90 58.5t-60.5 102.5t-22.5 145.5q0 74 16 130.5t40.5 96.5t55 66.5t60.5 43.5q66 37 183 43v104q0 53 20 93t53 82q23 28 47.5 62.5t43.5 69.5t32 69.5t13 61.5q0 49 -14.5 76t-37.5 27q-12 0 -28 -11.5t-31 -28.5t-28.5 -37t-23.5 -36 q-29 41 -63 71t-73 49t-80 23t-84 -7q30 -6 62 -20.5t57 -38.5t41.5 -61.5t16.5 -88.5q0 -50 -16 -89.5t-43 -66.5t-62.5 -40.5t-75.5 -13.5q-42 0 -78.5 14t-64.5 42t-45 69t-20 94zM193 1146q1 -29 12 -54t33 -42.5t54 -17.5q33 0 55 17.5t32.5 42.5t10.5 54t-10.5 55 t-32.5 42.5t-55 16.5q-35 0 -57 -16.5t-32.5 -42.5t-9.5 -55zM326 307.5q0 -45.5 10 -86.5t28.5 -71t45 -48t60.5 -18q32 0 51.5 11.5t30 30t14 41.5t3.5 46v360q-69 2 -114.5 -21.5t-74 -62.5t-41.5 -87.5t-13 -94z" />
<glyph unicode="&#xe07;" horiz-adv-x="1141" d="M126 869l91 75l346 -754q23 -50 54.5 -73t67.5 -23q23 0 43.5 4.5t36.5 17.5t26 35t10 58v832q-35 -17 -58.5 -22t-50.5 -7q-48 -1 -92 14t-77.5 43.5t-53.5 69.5t-20 89q0 52 18 96.5t50 75.5t75 49t92 18q54 0 97.5 -18t74.5 -50t48 -75.5t17 -95.5v-1025 q0 -111 -58 -162t-164 -52q-90 -2 -148 39.5t-92 113.5zM566 1237.5q0 -30.5 13 -56.5t39.5 -43t65.5 -17q40 0 65.5 17t39 43t13.5 56.5t-13.5 56.5t-39 44t-65.5 18t-66 -18t-39 -44t-13 -56.5z" />
<glyph unicode="&#xe08;" horiz-adv-x="1338" d="M114 1120v40q0 84 39 143.5t106 97.5t157 54t195 16q113 0 206.5 -15.5t160.5 -53.5t103.5 -100t36.5 -157v-945q0 -60 -19 -100.5t-52 -63.5t-76 -33t-90 -12q-103 -1 -166.5 48.5t-78.5 140.5l-63 408q-20 -20 -42 -31.5t-43.5 -18t-40.5 -8.5t-35 -2q-46 0 -86 17 t-69.5 46.5t-47 69.5t-17.5 85q-2 49 17.5 90.5t52.5 71.5t75.5 46.5t91.5 15.5q54 -2 96.5 -18.5t72.5 -45.5t48.5 -70t25.5 -92l77 -538q5 -33 17 -54.5t29 -33.5t38.5 -16.5t44.5 -4.5q63 0 91.5 25t28.5 84v915q0 70 -21.5 117.5t-68.5 75t-120.5 39t-178.5 14.5 q-86 2 -155 -11t-118 -39t-75 -64.5t-26 -89.5v-43h-121zM305 751q0 -30 12.5 -56t39 -44t66.5 -18t66 18t39 44t13 56t-13 55.5t-39 43.5t-66 18t-66.5 -18t-39 -43.5t-12.5 -55.5z" />
<glyph unicode="&#xe09;" horiz-adv-x="1531" d="M109 678q0 54 18.5 97t50.5 74.5t75 48t90 16.5q55 0 98.5 -18.5t74 -51t48 -76.5t17.5 -97v-491q48 59 103 101t111 74.5t110.5 57.5t104.5 50q62 32 98.5 70t55.5 73t23 64t4 48v422q0 74 -35 118.5t-95.5 68t-141.5 30.5t-173 7q-94 0 -171 -10t-133.5 -33t-86.5 -60 t-30 -91v-57h-123v47q0 86 41.5 145t114 96.5t173.5 53.5q98 16 215 16q76 0 148.5 -5t134.5 -19t114 -37.5t90 -59.5t59 -84.5t21 -114.5v-437q0 -36 -8.5 -72t-25 -71t-41.5 -65.5t-60 -56.5q56 -1 99 -20t72.5 -50.5t45 -72t15.5 -84.5q0 -56 -18 -99.5t-48.5 -74.5 t-73 -47.5t-92.5 -14.5q-51 1 -91 18t-69.5 46.5t-45 69.5t-15.5 89q0 20 3.5 52t27.5 75q-66 -26 -128 -62.5t-115 -80.5t-92.5 -93t-59.5 -100h-133v492q-31 -22 -61 -29t-53 -7q-49 0 -92.5 16.5t-75.5 46.5t-50.5 71t-18.5 88zM223 684q0 -23 7 -44.5t21.5 -38t37.5 -26 t51 -9.5q30 0 51.5 9.5t36.5 26t23 38t8 44.5q0 21 -8 41.5t-23 37t-36.5 26.5t-51.5 10t-52 -10t-36.5 -26.5t-21.5 -37.5t-7 -41zM1072 221q0 -34 12.5 -62.5t36.5 -47.5t61.5 -19t62.5 19t38 47.5t13 62.5t-13 61.5t-38 47t-62.5 19.5t-61.5 -19.5t-36.5 -47t-12.5 -61.5 z" />
<glyph unicode="&#xe0a;" horiz-adv-x="1381" d="M76 1193q1 77 34 131.5t86 88.5t119.5 50t134.5 16q73 0 140.5 -21.5t119 -63t81.5 -101.5t30 -136q0 -72 -14.5 -122.5t-43 -95t-72.5 -89.5q-45 -46 -102 -104l-62 -62t-47.5 -57t-29.5 -65t-10 -89v-221q0 -43 9 -70.5t27.5 -43.5t47 -22.5t67.5 -6.5h307 q49 0 76.5 10t42.5 28.5t19.5 45.5t4.5 63v719q0 23 -4.5 55t-18.5 63.5t-40 56.5t-66 35q-3 26 -5.5 42t-4.5 36q53 13 94.5 41.5t70 69t43.5 90.5t15 106v85h116v-82q0 -127 -53 -216t-161 -134q45 -25 72.5 -57t41 -65.5t17.5 -65.5q3 -34 3 -60v-736q0 -59 -11.5 -103 t-36.5 -74.5t-65.5 -46t-97.5 -15.5h-412q-65 0 -107 18t-66.5 51t-34.5 78t-10 100v226q0 60 13.5 107.5t39 88t59.5 77t77 75.5q40 36 76 71.5t63 75t42.5 86t15.5 106.5q0 63 -29 106.5t-72.5 69t-93 34.5t-89.5 0q34 -16 57.5 -37.5t37.5 -45t19 -48.5q6 -26 6 -49 q0 -49 -16.5 -91t-46.5 -73.5t-71.5 -50t-90.5 -18.5q-54 -2 -98.5 15.5t-76.5 49.5t-50 75.5t-16 95.5zM184 1178.5q0 -31.5 14.5 -58t42.5 -44.5t68 -18q41 0 68.5 18t41 44.5t13.5 58t-13.5 58.5t-41 45t-68.5 18q-42 0 -69 -18t-41.5 -45t-14.5 -58.5z" />
<glyph unicode="&#xe0b;" horiz-adv-x="1419" d="M87 1153q-3 65 16.5 122.5t57.5 101.5t94.5 69t127.5 25q49 0 86 -10.5t64.5 -27t46.5 -35.5t35 -37q3 6 16.5 24t33.5 38t45 34t51 10q27 -3 50 -21.5t39.5 -51.5t25.5 -78t9 -98q0 -74 -15 -135t-46.5 -117.5t-78.5 -110.5t-113 -116q-33 -31 -60 -60.5t-48 -61.5 t-32.5 -68t-11.5 -79v-218q0 -43 9 -70.5t26.5 -43.5t46.5 -22.5t69 -6.5h306q48 0 76.5 10t43 28.5t19.5 45.5t5 63v719q0 23 -5 55t-19.5 63.5t-39.5 56.5t-66 35q-3 26 -5 42t-4 36q53 13 94 41.5t69.5 69t43.5 90.5t15 106v85h116v-82q0 -127 -53 -216t-160 -134 q46 -25 73 -57t40 -65.5t16 -65.5q4 -34 4 -60v-736q0 -59 -11.5 -103t-36.5 -74.5t-65 -46t-97 -15.5h-414q-64 0 -105.5 18t-66 51t-34.5 78t-10 100v223q2 63 15 109t36.5 83t57 71.5t76.5 75.5q46 45 87.5 90.5t72 95t47.5 104.5t17 118q0 49 -10 81t-33 32 q-12 0 -28 -11.5t-31 -28.5t-28.5 -37t-23.5 -36q-29 41 -63 71t-73 49t-80 23t-84 -7q30 -6 62 -20.5t57 -38.5t41.5 -61.5t16.5 -88.5q0 -50 -16 -89.5t-43 -66.5t-62.5 -40.5t-75.5 -13.5q-42 0 -78.5 14t-64.5 42t-45 69t-20 94zM193 1146q1 -29 12 -54t33 -42.5 t54 -17.5q33 0 55 17.5t32.5 42.5t10.5 54t-10.5 55t-32.5 42.5t-55 16.5q-35 0 -57 -16.5t-32.5 -42.5t-9.5 -55z" />
<glyph unicode="&#xe0c;" horiz-adv-x="1989" d="M199 1004v156q0 84 38 143.5t103.5 97.5t154 54t189.5 16q113 0 203.5 -16t153.5 -54t96.5 -99.5t33.5 -151.5v-486q0 -59 28 -100t68 -71.5t86 -54t83 -46.5q23 -14 50.5 -29.5t55.5 -33t56 -39t52 -45.5v1219h120v-1464h-123q-7 41 -20.5 73.5t-36.5 66.5 q-17 24 -45 48.5t-63.5 49t-76.5 48.5t-84 47q13 -17 19.5 -36.5t11 -35.5t4.5 -30.5v-21.5q0 -50 -17.5 -91t-48 -70t-72 -45t-90.5 -16q-56 0 -98 19.5t-71 51t-44.5 72t-15.5 83.5q0 52 16 95.5t44.5 77t71.5 55.5t96 31q-26 23 -41 50t-22 53.5t-9.5 50t-2.5 40.5v474 q0 61 -19 105.5t-62 73t-112.5 42t-167.5 13.5q-95 0 -165 -11.5t-116.5 -37t-69.5 -66.5t-23 -99v-72h225v-76q-26 -7 -62.5 -28.5t-71.5 -66.5q-18 -25 -28 -48.5t-15 -46.5t-5.5 -42t-0.5 -32v-346q29 20 62.5 28t58.5 8q49 0 90.5 -16t73 -46t50 -70.5t18.5 -92.5 q0 -49 -19 -90t-50.5 -72t-74 -48t-88.5 -17q-54 0 -98.5 20t-75.5 55t-48.5 81.5t-17.5 99.5v529q0 33 8 69.5t29 73.5q23 33 49.5 54.5t55.5 35.5h-183zM363 214.5q0 -30.5 13 -56.5t38.5 -43.5t65.5 -17.5q41 0 67 17.5t39 43.5t13 56.5t-13 56.5t-39 43.5t-67 17.5 q-40 0 -65.5 -17.5t-38.5 -43.5t-13 -56.5zM1018 222.5q0 -33.5 12 -61.5t37.5 -47.5t63.5 -19.5q37 0 61.5 19.5t36.5 47.5t12 61.5t-12 62t-36.5 48t-61.5 19.5t-63 -19.5t-38 -48t-12 -62z" />
<glyph unicode="&#xe0d;" horiz-adv-x="2019" d="M199 1004v156q0 84 38.5 143.5t105 97.5t156 54t190.5 16q113 0 204.5 -16t156 -54t99.5 -99.5t35 -151.5v-883q0 -44 5.5 -75.5t22 -51.5t44.5 -30t71 -10h207q49 0 78.5 13t43.5 35t18.5 53t4.5 66v1197h120v-1201q0 -49 -8.5 -96t-31.5 -84t-63 -60t-104 -23h-315 q-66 0 -107.5 23t-65 60t-32 83.5t-8.5 92.5v881q0 61 -20 105.5t-65 73t-116.5 42t-173.5 13.5q-91 0 -161 -12t-116.5 -37t-70.5 -66t-24 -99v-72h225v-76q-26 -7 -63 -28.5t-71 -66.5q-19 -25 -29 -48.5t-14.5 -46.5t-5 -42t-0.5 -32v-346q29 20 62.5 28t58.5 8 q49 0 90.5 -16t73 -46t50 -70.5t18.5 -92.5q0 -49 -19 -90t-50.5 -72t-74 -48t-88.5 -17q-54 0 -98.5 20t-75.5 55t-48.5 81.5t-17.5 99.5v529q0 33 7.5 70t29.5 73q23 34 49.5 55t55.5 35h-183zM363 214.5q0 -30.5 13 -56.5t38.5 -43.5t65.5 -17.5q41 0 67 17.5t39 43.5 t13 56.5t-13 56.5t-39 43.5t-67 17.5q-40 0 -65.5 -17.5t-38.5 -43.5t-13 -56.5zM1000 -332q0 46 15.5 83t44 63.5t65 40t79.5 13.5q44 0 80 -14t61.5 -40t40 -61t14.5 -78q0 -61 -33 -102q-33 -42 -86 -56q55 -12 95.5 -10.5t63.5 5.5q74 12 123.5 40t78 68t41 90t12.5 106 v32h104v-50q0 -84 -28 -155t-81.5 -122.5t-132 -79t-178.5 -27.5q-69 0 -136.5 12.5t-121.5 43t-87.5 79t-33.5 119.5zM1104 -324q0 -25 11.5 -46.5t32 -35.5t52.5 -14q33 0 55 14t33.5 35.5t11.5 46.5t-11 46.5t-32 36t-53 14.5q-33 0 -55 -14.5t-33.5 -36t-11.5 -46.5z " />
<glyph unicode="&#xe0e;" horiz-adv-x="1663" d="M93 216q0 51 19.5 92.5t50.5 71t72.5 46t87.5 16.5q63 0 122 -32v361q0 33 7 70q8 37 31 73q23 34 49 55t54 35h-183v156q0 84 41 143.5t111.5 97.5t163.5 54t198 16q117 0 214 -14t166.5 -50t107.5 -96.5t38 -155.5v-1531q0 -40 -11 -81t-32 -73t-56.5 -52t-83.5 -20 q-23 0 -59 9.5t-80 43.5q-34 27 -70 54t-71.5 52t-70 45t-64.5 35q-48 -125 -127 -183q-77 -57 -177 -60q-49 -2 -93.5 11.5t-77.5 39.5t-53 61.5t-20 80.5q0 57 24 98.5t62.5 68.5t88 40t99.5 13q37 0 70.5 -4.5t60.5 -10t45.5 -12t26.5 -7.5q8 28 11.5 58t6.5 60h115 q0 -31 -6.5 -74t-19.5 -79q37 -13 74 -33.5t73 -42t67.5 -45t57.5 -43.5q20 -16 47 -33t54 -17q19 0 32.5 10t22 25t12 34t3.5 37v1504q0 69 -25 114t-75.5 72.5t-126.5 39t-178 11.5q-91 0 -164.5 -12t-125 -37t-79 -65t-27.5 -97v-72h223v-76q-25 -7 -62.5 -28.5 t-71.5 -66.5q-19 -25 -29 -48.5t-14 -46.5t-5 -42t-1 -32v-512q0 -56 -18.5 -101t-51.5 -77t-78.5 -49.5t-98.5 -17.5q-49 0 -90.5 18t-70.5 49t-45.5 71.5t-16.5 86.5zM204 217q0 -30 13 -56.5t39.5 -44t66.5 -17.5t66 17.5t39.5 44t13.5 56.5t-13.5 56.5t-40 44 t-65.5 17.5q-40 0 -66.5 -17.5t-39.5 -44t-13 -56.5zM413 -409q0 -26 12.5 -43t30 -29t40.5 -18t46 -6q40 0 72 17.5t57 43t43 56.5q18 30 27 58q-52 17 -95 25t-77 8q-26 0 -53.5 -6.5t-50.5 -20t-37.5 -35t-14.5 -50.5z" />
<glyph unicode="&#xe0f;" horiz-adv-x="1663" d="M93 216q0 51 19.5 92.5t50.5 71t72.5 46t87.5 16.5q63 0 122 -32v361q0 33 7 70q8 37 31 73q23 34 49 55t54 35h-183v156q0 84 41 143.5t111.5 97.5t163.5 54t198 16q117 0 214 -14t166.5 -50t107.5 -96.5t38 -155.5v-1624q0 -23 -6 -45t-18.5 -39.5t-30.5 -28t-42 -10.5 q-23 1 -44 18.5t-38 42.5l-164 219l-170 -254q-16 25 -37.5 54t-47.5 58t-52.5 55t-50.5 44q-14 -63 -43.5 -110t-68 -77.5t-85 -46.5t-95.5 -16q-48 0 -91 13.5t-76 38.5t-52 61.5t-19 82.5q0 56 23.5 96.5t62 68t85.5 41t95 13.5q27 0 50.5 -2t45 -5t41.5 -7.5t43 -11.5 q3 14 5 33.5t3.5 41t2 41.5t0.5 37h120q0 -11 -0.5 -32.5t-2.5 -49t-6.5 -56t-10.5 -52.5q13 -9 31.5 -24t40 -34t42.5 -42t38 -46l172 255l231 -292v1570q0 69 -25 114t-75.5 72.5t-126.5 39t-178 11.5q-91 0 -164.5 -12t-125 -37t-79 -65t-27.5 -97v-72h223v-76 q-25 -7 -62.5 -28.5t-71.5 -66.5q-19 -25 -29 -48.5t-14 -46.5t-5 -42t-1 -32v-512q0 -56 -18.5 -101t-51.5 -77t-78.5 -49.5t-98.5 -17.5q-49 0 -90.5 18t-70.5 49t-45.5 71.5t-16.5 86.5zM204 217q0 -30 13 -56.5t39.5 -44t66.5 -17.5t66 17.5t39.5 44t13.5 56.5 t-13.5 56.5t-40 44t-65.5 17.5q-40 0 -66.5 -17.5t-39.5 -44t-13 -56.5zM322 -409q1 -20 9.5 -38t24.5 -31.5t39.5 -22t53.5 -8.5q41 0 73.5 16.5t56.5 43t40 63t22 76.5q-20 8 -41.5 14t-43 8.5t-41 3.5t-33.5 1q-27 0 -56.5 -6.5t-53 -21.5t-38 -39.5t-12.5 -58.5z" />
<glyph unicode="&#xe10;" horiz-adv-x="1355" d="M-21 -445q0 -44 17.5 -77.5t46.5 -56.5t63 -35t68 -12q28 0 58.5 6.5t59 23.5t53 48.5t38.5 82.5l115 -167h17q21 39 44 77.5t44 76.5q55 -88 122 -127.5t150 -39.5q65 0 115.5 31t86.5 79.5t54.5 110t18.5 122.5q0 40 -11 78t-34.5 67.5t-60.5 47t-89 17.5 q-37 0 -71.5 -15t-59.5 -40.5t-40 -60t-13 -74.5q1 -37 16 -67.5t40 -54.5t59.5 -37.5t71.5 -13.5q14 0 28.5 2.5t30.5 7.5q-16 -28 -34.5 -47.5t-36.5 -31t-37.5 -16.5t-34.5 -5q-52 0 -92.5 23.5t-73.5 61t-58 80.5q-27 44 -47 84q-25 -44 -51 -90t-53 -92l-86 122 q13 51 20 102t9 100h-97q-2 -32 -6 -73.5t-10 -74.5q-32 27 -70.5 40t-71.5 15q-48 1 -87 -14.5t-65 -43t-41 -63t-15 -77.5zM66 -445q0 55 32 84t86 29q22 0 42 -7t37 -17t29.5 -21.5t14.5 -17.5q-1 -27 -9.5 -53.5t-25 -47t-41.5 -33.5t-57 -13q-25 0 -45 8t-33.5 21.5 t-21.5 31.5t-8 36zM153 1167q0 69 36.5 125t96 96.5t136.5 61.5t160 21q54 0 106.5 -11t103 -25t103.5 -25t109 -11q11 0 27 2.5t35 9t38.5 16.5t38.5 23q8 -16 14 -26.5t11.5 -20.5t11 -19.5t13.5 -23.5q-38 -26 -84.5 -41t-91.5 -15q-73 0 -129 11.5t-106 24.5t-97 24.5 t-102 11.5q-67 0 -124 -15t-98 -39t-63.5 -55t-22.5 -63q0 -26 20 -31.5t51 -5.5q74 0 141.5 -1.5t130.5 -6t126 -12.5q63 -9 131 -24q72 -16 122 -39.5t80.5 -59.5t44 -83t13.5 -110v-637q0 -55 -18.5 -94.5t-50 -63t-73 -34.5t-86.5 -11q-53 0 -91 16.5t-64.5 44t-42 64 t-21.5 76.5l-49 306q-21 -18 -43.5 -29t-43 -17.5t-40 -9t-34.5 -2.5q-46 0 -87.5 17.5t-71.5 47.5t-46.5 70t-16.5 84q0 49 16.5 89.5t47 70.5t72.5 48q43 17 91 17q58 0 101.5 -17.5t75 -47.5t49.5 -73q19 -45 26 -100l67 -430q9 -66 34 -93t82 -27q54 0 76.5 25.5 t22.5 77.5v629q0 41 -9.5 72t-28.5 54.5t-50 40.5t-74 30q-67 20 -140 30t-147.5 14.5t-149.5 3.5t-148 -1q-56 0 -86.5 19.5t-30.5 75.5zM370 664q0 -23 7.5 -44t21.5 -37.5t37 -27t52 -10.5q30 0 51.5 10.5t36.5 27t22.5 37.5t7.5 44q0 22 -7.5 43t-22.5 37.5t-36.5 26.5 t-51.5 10t-52.5 -10t-36.5 -26.5t-21.5 -38t-7.5 -42.5zM869 -277q0 17 6 33.5t18 29t30 20.5t39 8q16 0 32.5 -6.5t30 -18.5t21.5 -28.5t8 -37.5q-2 -18 -7.5 -34t-17.5 -30t-29.5 -21t-38.5 -7q-19 0 -35.5 7t-29 19.5t-20 29t-7.5 36.5z" />
<glyph unicode="&#xe11;" horiz-adv-x="1733" d="M87 1153q-3 65 16.5 122.5t57.5 101.5t94.5 69t127.5 25q49 0 86 -10.5t64.5 -27t46.5 -35.5t35 -37q3 6 16.5 24t33 37t43.5 34t48 15q32 0 57.5 -16t43.5 -46t28 -71t10 -90q0 -44 -10.5 -81t-26.5 -70t-36 -62q-18 -31 -38 -60q-18 -25 -36.5 -49.5t-34 -49 t-25.5 -49.5t-10 -53v-429q27 80 55 158t61.5 158.5t73 170t90.5 193.5q46 95 93 175t95.5 139.5t97.5 93t99 34.5q41 2 72.5 -14.5t53 -44t33 -64.5t11.5 -74v-1270h-120v1266q0 34 -13 58t-42 24q-25 0 -56 -25.5t-64.5 -70.5t-69 -106t-71.5 -130t-71 -145t-66 -150 q-58 -135 -101.5 -248.5t-74 -205t-50 -159t-29.5 -108.5h-126v776q0 31 7 57t18 48.5t26.5 42.5t31.5 40q24 30 49 65t45 72t32.5 73.5t12.5 71.5q0 18 -1.5 37.5t-5 33.5t-11 22.5t-17.5 8.5q-11 0 -29 -15t-35.5 -35.5t-34 -43.5t-26.5 -38q-29 41 -64.5 71.5t-75 49.5 t-81.5 23t-85 -7q30 -6 62 -20.5t57 -38.5t41.5 -61.5t16.5 -88.5q0 -50 -16 -89.5t-43 -66.5t-62.5 -40.5t-75.5 -13.5q-42 0 -78.5 14t-64.5 42t-45 69t-20 94zM193 1146q1 -29 12 -54t33 -42.5t54 -17.5q33 0 55 17.5t32.5 42.5t10.5 54t-10.5 55t-32.5 42.5t-55 16.5 q-35 0 -57 -16.5t-32.5 -42.5t-9.5 -55z" />
<glyph unicode="&#xe12;" horiz-adv-x="2140" d="M220 0v1151q0 70 27.5 128.5t73 101t106.5 66t128 23.5h4l206 -159l219 160q88 0 153.5 -30t107 -77t60.5 -104q19 -59 19 -113v-483q0 -59 27.5 -100t67.5 -71.5t85.5 -54t84.5 -46.5q23 -14 50 -29.5t55 -33t55.5 -39t52.5 -45.5v1219h120v-1464h-123q-7 41 -20.5 73.5 t-36.5 66.5q-17 24 -44.5 48.5t-63 49t-77 48.5t-84.5 47q13 -17 20 -36.5t10.5 -35.5t3.5 -30.5v-21.5q0 -50 -17 -91t-47 -70t-72.5 -45t-89.5 -16q-55 0 -98 19.5t-72.5 51t-44 72t-14.5 83.5q0 52 15.5 95.5t44.5 77t71.5 55.5t94.5 31q-25 23 -39.5 50t-22.5 53.5 t-10 50t-2 40.5v467q0 41 -13 82.5t-37 73.5t-60.5 52t-82.5 22l-245 -182l-241 180q-46 0 -80.5 -17.5t-58 -47t-35 -69t-11.5 -82.5v-1036q119 107 233.5 218t237.5 236q-47 -5 -94.5 5.5t-84.5 35.5t-60.5 66t-23.5 96q0 45 15 84t42.5 69.5t69.5 47.5q43 17 94 17 q45 0 85.5 -13.5t71.5 -42.5t50 -71t19 -99q0 -37 -5.5 -72t-20 -70t-38.5 -69.5t-59 -70.5l-168 -170q-32 -31 -76.5 -74t-91 -86.5t-89 -82.5t-69.5 -63h-158zM661 770.5q0 -28.5 12 -53.5t36.5 -40.5t61.5 -15.5t61.5 15.5t36.5 40.5t12 53.5t-12 53t-36.5 41t-61.5 16.5 t-61.5 -16.5t-36.5 -41t-12 -53zM1170 222.5q0 -33.5 12.5 -61.5t38 -47.5t62.5 -19.5t61.5 19.5t36.5 47.5t12 61.5t-12 62t-36.5 48t-61.5 19.5t-62.5 -19.5t-38 -48t-12.5 -62z" />
<glyph unicode="&#xe13;" horiz-adv-x="2040" d="M199 1004v156q0 84 41.5 143.5t111.5 97.5t162 54t192 16q113 0 207.5 -16t162.5 -54t105 -99.5t37 -151.5v-920q26 32 54 55.5t56.5 42.5t56.5 34.5t51 29.5q37 23 83.5 46.5t86.5 54t67 72t27 99.5v800h120v-798q0 -17 -2 -40.5t-10 -50t-23 -53.5t-39 -50 q54 -9 96.5 -31t71 -55.5t43.5 -78t15 -94.5q0 -41 -14.5 -82.5t-43.5 -73t-72 -51t-99 -19.5q-48 0 -89 16t-71.5 45t-48 70t-17.5 91v22t3.5 30t11 35.5t20.5 36.5q-43 -23 -85.5 -47t-78 -48.5t-64 -49t-46.5 -48.5q-22 -34 -36 -66.5t-21 -73.5h-121v1140 q0 61 -23 105.5t-71.5 73t-122.5 42t-177 13.5q-91 0 -163.5 -12t-122.5 -37t-76.5 -66t-26.5 -99v-72h225v-76q-26 -7 -63 -28.5t-71 -66.5q-19 -25 -29 -48.5t-14.5 -46.5t-5 -42t-0.5 -32v-346q29 20 62.5 28t58.5 8q49 0 90.5 -16t73 -46t50 -70.5t18.5 -92.5 q0 -49 -19 -90t-50.5 -72t-74 -48t-88.5 -17q-54 0 -98.5 20t-75.5 55t-48.5 81.5t-17.5 99.5v529q0 33 7.5 70t29.5 73q23 34 49.5 55t55.5 35h-183zM363 214.5q0 -30.5 13 -56.5t38.5 -43.5t65.5 -17.5q41 0 67 17.5t39 43.5t13 56.5t-13 56.5t-39 43.5t-67 17.5 q-40 0 -65.5 -17.5t-38.5 -43.5t-13 -56.5zM1632 222.5q0 -33.5 12 -61.5t36.5 -47.5t61.5 -19.5t62 19.5t38 47.5t13 61.5t-13 62t-38 48t-62 19.5t-61.5 -19.5t-36.5 -48t-12 -62z" />
<glyph unicode="&#xe14;" horiz-adv-x="1535" d="M217 0v1143q0 94 45 157.5t121 101.5t175.5 53.5t207.5 15.5q76 0 147 -5.5t132.5 -20t111.5 -38.5t86.5 -60.5t56.5 -88t20 -118.5v-1140h-120v1127q0 74 -29.5 121.5t-86 73t-137 34t-182.5 8.5q-212 0 -318.5 -55.5t-106.5 -168.5v-1031q89 91 156 159.5t119.5 126 t95.5 109t86 108.5q-35 -6 -78 4t-80 36t-62.5 67.5t-25.5 101.5q0 53 18.5 93.5t49 68t70.5 41.5t85 14q51 0 93 -15t71.5 -42t46 -67t16.5 -90q0 -42 -15 -87t-42 -93.5t-66 -101.5t-86 -109q-84 -100 -190 -208t-224 -225h-161zM661 821q0 -22 7 -42t21.5 -35.5t35.5 -25 t50 -9.5q27 0 48.5 9.5t36 25t21.5 35.5t7 42q0 23 -7 43.5t-20.5 36.5t-35 26t-50.5 10t-50 -10t-35.5 -26.5t-21.5 -37.5t-7 -42z" />
<glyph unicode="&#xe15;" horiz-adv-x="1535" d="M217 0v1151q0 70 26.5 128.5t72.5 101t106.5 66t129.5 23.5h4l205 -159l220 160q89 0 153 -30t105.5 -77t61.5 -104q19 -59 19 -113v-1147h-120v1133q0 41 -12.5 82.5t-36.5 73.5t-60.5 52t-83.5 22l-245 -182l-241 180q-46 0 -80.5 -17.5t-57.5 -47t-35 -69t-12 -82.5 v-1036q119 107 234 218t237 236q-48 -5 -94.5 5.5t-84 35.5t-60.5 66t-23 96q0 45 14 84t43 69.5t69.5 47.5t93.5 17q44 0 85 -13.5t72.5 -42.5t50 -71t18.5 -99q0 -37 -5.5 -72t-20 -70t-38 -69.5t-58.5 -70.5l-168 -170q-32 -31 -76 -74t-90.5 -86.5t-89.5 -82.5t-70 -63 h-158zM658 770.5q0 -28.5 12 -53.5t36.5 -40.5t59.5 -15.5q38 0 62 15.5t36.5 40.5t12.5 53.5t-12.5 53t-36.5 41t-62 16.5q-37 0 -60.5 -16.5t-35.5 -41t-12 -53z" />
<glyph unicode="&#xe16;" horiz-adv-x="1460" d="M199 1004v156q0 84 42 143.5t113.5 97.5t164.5 54t195 16q113 0 210 -14t167 -50t110 -96.5t40 -153.5v-1157h-121v1140q0 71 -25 117t-76 71.5t-126.5 35.5t-177.5 10q-92 0 -166 -11.5t-125 -37t-79 -66.5t-28 -98v-73h225v-76q-26 -7 -63 -28.5t-71 -66.5 q-19 -25 -29 -48.5t-14.5 -46.5t-5 -42t-0.5 -32v-346q29 20 62.5 28t58.5 8q49 0 90.5 -16t73 -46t50 -70.5t18.5 -92.5q0 -49 -19 -90t-50.5 -72t-74 -48t-88.5 -17q-54 0 -98.5 20t-75.5 55t-48.5 81.5t-17.5 99.5v529q0 33 7.5 70t29.5 73q23 34 49.5 55t55.5 35h-183z M363 214.5q0 -30.5 13 -56.5t38.5 -43.5t65.5 -17.5q41 0 67 17.5t39 43.5t13 56.5t-13 56.5t-39 43.5t-67 17.5q-40 0 -65.5 -17.5t-38.5 -43.5t-13 -56.5z" />
<glyph unicode="&#xe17;" horiz-adv-x="1615" d="M67 1234q0 50 18 93t50 73.5t75 48.5t92 18q54 0 97.5 -18t74.5 -50t48 -75.5t17 -95.5v-726q56 177 117.5 330t127.5 279q37 72 77 137t84.5 113.5t94.5 78t107 27.5q64 -1 111.5 -27t78 -68t45 -96.5t14.5 -108.5v-1167h-119v1163q0 34 -7 70.5t-23 65t-41 47t-61 18.5 q-31 0 -74.5 -37t-95 -110t-108 -183t-115.5 -259q-50 -126 -87 -234t-62 -202t-39.5 -178t-18.5 -161h-126v1044q-23 -14 -52.5 -22t-54.5 -10q-49 -1 -93.5 14t-78 44.5t-53.5 71.5t-20 92zM184 1240q0 -30 13 -56.5t39.5 -43.5t65.5 -17q40 0 66.5 17t39 43.5t12.5 56.5 t-12.5 55.5t-39 43.5t-66.5 18t-66 -18t-39 -43.5t-13 -55.5z" />
<glyph unicode="&#xe18;" horiz-adv-x="1425" d="M187 1004v157q0 77 41 136t106 97.5t148 58.5t167 20q55 0 106.5 -6.5t101.5 -15t99 -18.5t99 -19q38 -5 72 6t71 43q19 -30 32 -59.5t28 -53.5q-21 -13 -45 -22q-20 -8 -48 -15t-60 -7q-65 0 -119.5 10.5t-107.5 22t-109.5 22t-123.5 10.5q-84 0 -147 -17.5 t-104.5 -46.5t-62.5 -66.5t-21 -77.5v-50q88 15 163 24.5t153 9.5q45 0 94 -4.5t99 -13t100.5 -22.5t94.5 -33q58 -24 95.5 -57t59 -72.5t29 -85t7.5 -97.5v-483q0 -56 -10 -106.5t-34 -89.5t-67 -61t-109 -22h-512q-67 0 -110 24.5t-68 64.5t-34 90t-9 100v523h118v-519 q0 -41 6.5 -73.5t24 -55t51.5 -34t90 -11.5h396q47 0 76.5 12t45 35t20.5 55t5 72v483q0 38 -5 66.5t-17 54t-34 47t-58 41.5q-34 20 -78.5 33.5t-91.5 21.5t-96 10t-93 2q-34 0 -74 -1t-81 -6t-79 -13t-66 -18h-125z" />
<glyph unicode="&#xe19;" horiz-adv-x="1558" d="M67 1234q0 50 18 93t50 73.5t75 48.5t92 18q54 0 97.5 -18t74.5 -50t48 -75.5t17 -95.5v-1062q59 69 124 119t129.5 88.5t125.5 67.5q60 29 114 55q68 33 105 69.5t55 69.5t21.5 61t3.5 43v725h121v-755q0 -31 -12 -65.5t-31 -66t-44 -58.5t-51 -44q63 -7 108.5 -31 t74 -56.5t41.5 -73.5t13 -84q0 -56 -17 -101t-48 -77t-73 -50t-92 -16q-52 1 -94 19.5t-72.5 50t-48 73t-17.5 88.5q0 13 1 31t5 38.5t15 43.5t31 46q-65 -27 -137.5 -68.5t-139 -91.5t-119.5 -105t-79 -111h-133v1044q-23 -14 -52.5 -22t-54.5 -10q-49 -1 -93.5 14 t-78 44.5t-53.5 71.5t-20 92zM184 1240q0 -30 13 -56.5t39.5 -43.5t65.5 -17q40 0 66.5 17t39 43.5t12.5 56.5t-12.5 55.5t-39 43.5t-66.5 18t-66 -18t-39 -43.5t-13 -55.5zM1093 232q0 -26 7 -49.5t21 -43t36.5 -31t50.5 -11.5q29 0 51 11.5t36.5 29.5t21.5 41.5t7 49.5 t-7 49.5t-22 42.5t-37 30.5t-53 11.5q-28 0 -49 -11.5t-35 -30t-21 -42t-7 -47.5z" />
<glyph unicode="&#xe1a;" horiz-adv-x="1615" d="M67 1234q0 52 18 94.5t50 73.5t75 48t92 17q54 0 97.5 -18t74.5 -50t48 -75.5t17 -95.5v-942q0 -46 12 -79.5t34.5 -55t53 -32t66.5 -10.5h430q35 0 62 12.5t45 35.5t26.5 56t8.5 73v1178h119v-1175q0 -57 -12.5 -109.5t-41 -92.5t-74 -63.5t-111.5 -23.5h-496 q-66 0 -112 23.5t-74.5 63.5t-42 92.5t-13.5 109.5v756q-10 -5 -24.5 -11t-30 -11t-32.5 -8t-32 -3q-50 0 -92 16.5t-73.5 46t-49.5 70t-18 89.5zM183 1237.5q0 -30.5 13 -56.5t39.5 -43t66.5 -17t65.5 17t38.5 43t13 56.5t-13 56.5t-38.5 44t-65.5 18t-66.5 -18t-39.5 -44 t-13 -56.5z" />
<glyph unicode="&#xe1b;" horiz-adv-x="1615" d="M67 1234q0 52 18 94.5t50 73.5t75 48t92 17q54 0 97.5 -18t74.5 -50t48 -75.5t17 -95.5v-942q0 -46 12 -79.5t34.5 -55t53 -32t66.5 -10.5h430q35 0 62 12.5t45 35.5t26.5 56t8.5 73v1845h119v-1842q0 -57 -12.5 -109.5t-41 -92.5t-74 -63.5t-111.5 -23.5h-496 q-66 0 -112 23.5t-74.5 63.5t-42 92.5t-13.5 109.5v756q-10 -5 -24.5 -11t-30 -11t-32.5 -8t-32 -3q-50 0 -92 16.5t-73.5 46t-49.5 70t-18 89.5zM183 1237.5q0 -30.5 13 -56.5t39.5 -43t66.5 -17t65.5 17t38.5 43t13 56.5t-13 56.5t-38.5 44t-65.5 18t-66.5 -18t-39.5 -44 t-13 -56.5z" />
<glyph unicode="&#xe1c;" horiz-adv-x="1455" d="M220 0v1228q0 52 18 95.5t48.5 75.5t75 50t98.5 18q52 0 95.5 -17t73.5 -48t47.5 -72.5t17.5 -91.5q0 -51 -19 -93t-50.5 -72.5t-73.5 -46t-92 -14.5q-29 2 -61 8.5t-58 21.5v-920l336 513h103l336 -513v1342h121v-1464h-169l-339 516l-340 -516h-168zM340 1237.5 q0 -30.5 13 -56.5t39.5 -43t66.5 -17t66 17t38.5 43t12.5 56.5t-12.5 56.5t-38.5 44t-66 18t-66.5 -18t-39.5 -44t-13 -56.5z" />
<glyph unicode="&#xe1d;" horiz-adv-x="1455" d="M220 0v1228q0 52 18 95.5t48.5 75.5t75 50t98.5 18q52 0 95.5 -17t73.5 -48t47.5 -72.5t17.5 -91.5q0 -51 -19 -93t-50.5 -72.5t-73.5 -46t-92 -14.5q-29 2 -61 8.5t-58 21.5v-920l336 513h103l336 -513v2009h121v-2131h-169l-339 516l-340 -516h-168zM340 1237.5 q0 -30.5 13 -56.5t39.5 -43t66.5 -17t66 17t38.5 43t12.5 56.5t-12.5 56.5t-38.5 44t-66 18t-66.5 -18t-39.5 -44t-13 -56.5z" />
<glyph unicode="&#xe1e;" horiz-adv-x="1704" d="M67 1234q0 50 18 93t50 73.5t75 48.5t92 18q54 0 97.5 -18t74.5 -50t48 -75.5t17 -95.5v-697l-7 -354l357 1287h99l382 -1288l-4 355v933h118v-1464h-164l-378 1253q-41 -149 -86 -307t-91.5 -319t-91.5 -319.5t-85 -307.5h-169v1044q-23 -14 -52.5 -22t-54.5 -10 q-49 -1 -93.5 14t-78 44.5t-53.5 71.5t-20 92zM184 1240q0 -30 13 -56.5t39.5 -43.5t65.5 -17q40 0 66.5 17t39 43.5t12.5 56.5t-12.5 55.5t-39 43.5t-66.5 18t-66 -18t-39 -43.5t-13 -55.5z" />
<glyph unicode="&#xe1f;" horiz-adv-x="1704" d="M67 1234q0 50 18 93t50 73.5t75 48.5t92 18q54 0 97.5 -18t74.5 -50t48 -75.5t17 -95.5v-697l-7 -354l357 1287h99l382 -1288l-4 355v1600h118v-2131h-164l-378 1253q-41 -149 -86 -307t-91.5 -319t-91.5 -319.5t-85 -307.5h-169v1044q-23 -14 -52.5 -22t-54.5 -10 q-49 -1 -93.5 14t-78 44.5t-53.5 71.5t-20 92zM184 1240q0 -30 13 -56.5t39.5 -43.5t65.5 -17q40 0 66.5 17t39 43.5t12.5 56.5t-12.5 55.5t-39 43.5t-66.5 18t-66 -18t-39 -43.5t-13 -55.5z" />
<glyph unicode="&#xe20;" horiz-adv-x="1663" d="M93 216q0 51 19.5 92.5t50.5 71t72.5 46t87.5 16.5q63 0 122 -32v361q0 33 7 70q8 37 31 73q23 34 49 55t54 35h-183v156q0 84 41 143.5t111.5 97.5t163.5 54t198 16q117 0 214 -14t166.5 -50t107.5 -96.5t38 -155.5v-1155h-119v1134q0 69 -25 114t-75.5 72.5t-126.5 39 t-178 11.5q-91 0 -164.5 -12t-125 -37t-79 -65t-27.5 -97v-72h223v-76q-25 -7 -62.5 -28.5t-71.5 -66.5q-19 -25 -29 -48.5t-14 -46.5t-5 -42t-1 -32v-512q0 -56 -18.5 -101t-51.5 -77t-78.5 -49.5t-98.5 -17.5q-49 0 -90.5 18t-70.5 49t-45.5 71.5t-16.5 86.5zM204 217 q0 -30 13 -56.5t39.5 -44t66.5 -17.5t66 17.5t39.5 44t13.5 56.5t-13.5 56.5t-40 44t-65.5 17.5q-40 0 -66.5 -17.5t-39.5 -44t-13 -56.5z" />
<glyph unicode="&#xe21;" horiz-adv-x="1594" d="M170 1234q0 52 18 94.5t50 73.5t75 48t92 17q54 0 97.5 -18t74.5 -50t48 -75.5t17 -95.5v-526q104 -8 199.5 -47.5t172.5 -101.5q80 -63 138 -137q58 -73 102 -147v1195h120v-1464h-126q-8 33 -26.5 87.5t-53 118.5t-87.5 132t-127 130q-59 45 -114.5 71.5t-98.5 38 t-70 14.5t-29 3v-389q0 -43 -10.5 -81.5t-34.5 -68.5t-59.5 -48.5t-84.5 -23.5q-60 -4 -111.5 14.5t-88.5 58.5t-58.5 102.5t-21.5 145.5q0 80 22 150t66.5 123t109.5 86.5t152 39.5v341q-10 -5 -24 -11t-30.5 -11t-33.5 -8t-32 -3q-50 0 -92 16.5t-73.5 46t-49.5 70 t-18 89.5zM283 303q0 -43 8.5 -83t27 -70.5t46 -48.5t63.5 -18q32 0 51.5 11.5t29 30t12 41.5t2.5 46v377q-70 0 -116.5 -27t-73.5 -69.5t-38.5 -93t-11.5 -96.5zM286 1237.5q0 -30.5 13 -56.5t39 -43q25 -17 65 -17t66.5 17t39.5 43t13 56.5t-13 56.5t-39.5 44t-66.5 18 t-65.5 -18t-38.5 -44t-13 -56.5z" />
<glyph unicode="&#xe22;" horiz-adv-x="1448" d="M189 1075q0 79 24 150.5t70.5 125t112.5 85t149 31.5q58 0 102.5 -17t74.5 -46.5t46 -71.5t16 -89q0 -55 -19 -97t-49.5 -70t-72.5 -43t-90 -15q-47 0 -85.5 14.5t-66.5 40t-45 60.5t-23 77q-8 -16 -14 -34.5t-9 -37t-4 -34.5t-1 -26q0 -68 20.5 -118.5t58.5 -84t91 -49 t120 -15.5h217v-105h-217q-50 0 -92.5 -16t-71.5 -45.5t-45 -69.5t-16 -87v-186q0 -45 7.5 -80t26.5 -60t52 -39t86 -14h416q49 0 79 15.5t45.5 41.5t20.5 61t5 75v1162h120v-1167q0 -55 -10 -109t-35.5 -95.5t-70.5 -67t-114 -25.5h-513q-73 0 -119 27t-71.5 69.5t-34 95.5 t-8.5 105v176q0 26 5.5 63t23.5 76t52.5 75.5t89.5 60.5q-65 20 -110.5 54.5t-73 78.5t-39.5 94q-11 49 -11 100zM438 1244q0 -30 12.5 -56.5t39 -43.5t65.5 -17q40 0 65.5 17t39.5 43.5t14 56.5t-14 56.5t-39.5 43.5t-65.5 17t-66 -17t-38.5 -43.5t-12.5 -56.5z" />
<glyph unicode="&#xe23;" horiz-adv-x="1249" d="M112 1044q0 8 0.5 24t2 33t3.5 34.5t5 31.5q17 73 53 129.5t86 95t113.5 59t135.5 23.5q60 2 112 -7.5t102 -21t100 -21.5t106 -10q46 0 78 13t51 26l48 -112q-30 -23 -60 -32t-60 -9q-70 0 -130.5 10.5t-118.5 24t-113 24.5q-54 11 -114 11q-46 -1 -90 -15t-80 -41.5 t-62 -70.5q-27 -42 -37 -102q87 -1 164.5 -4.5t154.5 -16.5q59 -9 115.5 -21t108 -30.5t95 -44.5t75.5 -62.5t50 -84.5t18 -111v-530q0 -53 -18.5 -98t-51 -78t-76 -51t-94.5 -18q-50 0 -92.5 18t-73 50.5t-48.5 73.5t-18 87q0 52 18.5 92.5t51.5 69t74.5 44.5t87.5 16 q31 0 59 -7t61 -22v335q0 60 -20 105t-63 76.5t-109.5 53t-159.5 34.5q-109 15 -208 18q-101 0 -198 -3h-20t-10 1t-3.5 4t-0.5 7zM665 218q0 -31 13 -56.5t39.5 -42.5t66.5 -17t65.5 17t38.5 42.5t13 56.5t-13 56.5t-39 42.5q-25 18 -65 18t-66.5 -17.5t-39.5 -43 t-13 -56.5z" />
<glyph unicode="&#xe24;" horiz-adv-x="1460" d="M199 1004v156q0 84 42 143.5t113.5 97.5t164.5 54t195 16q113 0 210 -14t167 -50t110 -96.5t40 -153.5v-1758h-121v1741q0 71 -25 117t-76 72.5t-126.5 35.5t-177.5 9q-92 0 -166 -11.5t-125 -37t-79 -66.5t-28 -98v-73h225v-76q-26 -7 -63 -28.5t-71 -66.5 q-19 -25 -29 -48.5t-14.5 -46.5t-5 -42t-0.5 -32v-346q29 20 62.5 28t58.5 8q49 0 90.5 -16t73 -46t50 -70.5t18.5 -92.5q0 -49 -19 -90t-50.5 -72t-74 -48t-88.5 -17q-54 0 -98.5 20t-75.5 55t-48.5 81.5t-17.5 99.5v529q0 33 7.5 70t29.5 73q23 34 49.5 55t55.5 35h-183z M363 214.5q0 -30.5 13 -56.5t38.5 -43.5t65.5 -17.5q41 0 67 17.5t39 43.5t13 56.5t-13 56.5t-39 43.5t-67 17.5q-40 0 -65.5 -17.5t-38.5 -43.5t-13 -56.5z" />
<glyph unicode="&#xe25;" horiz-adv-x="1451" d="M189 1120v58q0 78 42 133.5t113 91.5t164 52t194 16q113 0 210.5 -14t168 -50t110.5 -97q40 -60 40 -155v-1155h-118v154q0 55 -7.5 115.5t-26.5 130t-54 148t-90 166.5q-27 44 -60 82.5t-73.5 67t-88 46t-101.5 17.5q-59 0 -107.5 -20t-82.5 -55t-52 -84.5t-18 -108.5 v-257q28 20 61 28t57 8q49 0 91 -16t73.5 -46t49.5 -70.5t18 -92.5q0 -49 -18.5 -90t-50 -72t-73.5 -48t-90 -17q-54 0 -98.5 20t-75 55t-47.5 81.5t-17 99.5v417q0 85 30 153.5t81.5 117t120 75t148.5 26.5q102 0 182 -38.5t150 -111.5q46 -49 88.5 -112.5t80.5 -139.5v511 q0 65 -26.5 109t-78 71t-128 38.5t-178.5 11.5q-91 0 -164 -12t-124 -37t-77.5 -62.5t-26.5 -88.5v-50h-121zM355 214.5q0 -30.5 12.5 -56.5t38.5 -43.5t66 -17.5t65.5 17.5t38.5 43.5t13 56.5t-13 56.5t-38.5 43.5t-65.5 17.5t-66 -17.5t-38.5 -43.5t-12.5 -56.5z" />
<glyph unicode="&#xe26;" horiz-adv-x="1663" d="M93 216q0 51 19.5 92.5t50.5 71t72.5 46t87.5 16.5q63 0 122 -32v361q0 33 7 70q8 37 31 73q23 34 49 55t54 35h-183v156q0 84 41 143.5t111.5 97.5t163.5 54t198 16q117 0 214 -14t166.5 -50t107.5 -96.5t38 -155.5v-1756h-119v1735q0 69 -25 114t-75.5 72.5t-126.5 39 t-178 11.5q-91 0 -164.5 -12t-125 -37t-79 -65t-27.5 -97v-72h223v-76q-25 -7 -62.5 -28.5t-71.5 -66.5q-19 -25 -29 -48.5t-14 -46.5t-5 -42t-1 -32v-512q0 -56 -18.5 -101t-51.5 -77t-78.5 -49.5t-98.5 -17.5q-49 0 -90.5 18t-70.5 49t-45.5 71.5t-16.5 86.5zM204 217 q0 -30 13 -56.5t39.5 -44t66.5 -17.5t66 17.5t39.5 44t13.5 56.5t-13.5 56.5t-40 44t-65.5 17.5q-40 0 -66.5 -17.5t-39.5 -44t-13 -56.5z" />
<glyph unicode="&#xe27;" horiz-adv-x="1242" d="M103 1100v60q0 84 33 143.5t93 97.5t143.5 54t185.5 16q226 0 345 -79t119 -239v-917q0 -53 -18.5 -98t-50.5 -78t-75.5 -51t-95.5 -18q-50 0 -92 18t-73 50.5t-48 73.5t-17 87q0 52 18.5 92.5t51 69t74.5 44.5t88 16q31 0 58 -7t60 -22v718q0 59 -16.5 104t-56.5 75.5 t-105.5 45.5t-165.5 15q-95 0 -160 -15t-105.5 -42.5t-58.5 -69t-18 -94.5v-50h-113zM664 218q0 -31 12.5 -56.5t39 -42.5t66.5 -17t66 17t38.5 42.5t12.5 56.5t-12.5 56.5t-39 43t-65.5 17.5q-40 0 -66.5 -17.5t-39 -43t-12.5 -56.5z" />
<glyph unicode="&#xe28;" horiz-adv-x="1535" d="M217 0v1155q0 89 45 150.5t121 98.5t175.5 52t207.5 15q119 0 223 -15t179 -53l-4 4q29 17 52.5 45.5t40.5 61.5t28.5 69t14.5 67h126q-3 -41 -16.5 -84t-36.5 -83t-54 -76t-71 -61q35 -35 53.5 -82.5t18.5 -110.5v-1153h-120v1140q0 68 -30 112t-86.5 69.5t-136.5 35.5 t-181 10q-112 0 -193 -14.5t-133 -43t-77.5 -70.5t-25.5 -99v-509v-256q13 41 27 82t27.5 78t26.5 69q14 32 22 57q16 40 32 81.5t36 81.5t43.5 75.5t54 63t69.5 43.5t87 16q55 0 98.5 -16t74 -45.5t47 -70.5t16.5 -91q0 -61 -19 -106t-51.5 -74.5t-73 -43.5t-83.5 -14 q-55 0 -107 24t-88 80q-20 -42 -37 -79t-35 -80t-38 -99.5t-46 -136.5q-21 -66 -36.5 -135t-27.5 -135h-139zM646 792q0 -23 7.5 -43.5t22.5 -37t37 -27t52 -10.5t52 10.5t37 27t22.5 38t7.5 42.5q0 23 -7.5 44t-22.5 38t-37 27.5t-52 10.5t-52 -10.5t-37 -27.5t-22.5 -38 t-7.5 -44z" />
<glyph unicode="&#xe29;" horiz-adv-x="1674" d="M67 1234q0 52 18 94.5t50 73.5t75 48t92 17q54 0 97.5 -18t74.5 -50t48 -75.5t17 -95.5v-931q0 -93 31 -140.5t104 -47.5h489q34 0 56 14t35 39t18 59t5 74v221q-37 -3 -69.5 -5t-54.5 -2q-42 0 -90.5 4.5t-97 14.5t-93.5 27.5t-80.5 45t-55.5 65.5t-20 89q0 46 16.5 81 t43 58.5t62.5 36.5t73 13q46 0 83 -14.5t63 -40t39.5 -60t13.5 -74.5q0 -13 -3.5 -33t-14.5 -40.5t-29 -40t-46 -32.5q68 -6 132.5 -6.5t127.5 10.5v851h119v-829q51 20 86 50t58 65.5t34.5 75t12.5 79.5h118q0 -63 -22.5 -123t-62.5 -110t-96.5 -86.5t-127.5 -52.5v-236 q0 -57 -8.5 -110t-31 -94.5t-61.5 -66.5t-102 -26h-567q-65 1 -106 27.5t-63 69.5t-30 95.5t-8 104.5v748q-10 -5 -24.5 -11t-30 -11t-32.5 -8t-32 -3q-50 0 -92 16.5t-73.5 46t-49.5 70t-18 89.5zM183 1237.5q0 -30.5 13 -56.5t39.5 -43t66.5 -17t65.5 17t38.5 43t13 56.5 t-13 56.5t-38.5 44t-65.5 18t-66.5 -18t-39.5 -44t-13 -56.5zM821 756q0 -17 5.5 -33.5t17 -29t28.5 -20t40 -7.5t39.5 8t27.5 20t17 29.5t6 32.5q0 18 -6 34.5t-17 29t-27.5 20.5t-39.5 8t-40 -8t-28.5 -20.5t-17 -29t-5.5 -34.5z" />
<glyph unicode="&#xe2a;" horiz-adv-x="1451" d="M189 1120v58q0 78 42 133.5t113 91.5t164 52t194 16q113 0 209 -13.5t166 -48.5q27 17 50.5 45.5t40.5 61.5t28 68t14 66h126q-3 -40 -16 -83t-35 -83t-53 -75q-31 -36 -71 -62q34 -36 52 -83q18 -46 18 -109v-1155h-118v154q0 55 -7.5 115.5t-26.5 130t-54 148 t-90 166.5q-27 44 -60 82.5t-73.5 67t-88 46t-101.5 17.5q-59 0 -107.5 -20t-82.5 -55t-52 -84.5t-18 -108.5v-257q28 20 61 28t57 8q49 0 91 -16t73.5 -46t49.5 -70.5t18 -92.5q0 -49 -18.5 -90t-50 -72t-73.5 -48t-90 -17q-54 0 -98.5 20t-75 55t-47.5 81.5t-17 99.5v417 q0 85 30 153.5t81.5 117t120 75t148.5 26.5q102 0 182 -38.5t150 -111.5q46 -49 88.5 -112.5t80.5 -139.5v511q0 65 -26.5 109t-78 71t-128 38.5t-178.5 11.5q-91 0 -164 -12t-124 -37t-77.5 -62.5t-26.5 -88.5v-50h-121zM355 214.5q0 -30.5 12.5 -56.5t38.5 -43.5t66 -17.5 t65.5 17.5t38.5 43.5t13 56.5t-13 56.5t-38.5 43.5t-65.5 17.5t-66 -17.5t-38.5 -43.5t-12.5 -56.5z" />
<glyph unicode="&#xe2b;" horiz-adv-x="1645" d="M67 1234q0 52 18 94.5t50 73.5t75 48t92 17q54 0 97.5 -18t74.5 -50t48 -75.5t17 -95.5v-710q44 95 93 179.5t108 155.5t130.5 126.5t159.5 94.5q-19 11 -37 27t-30.5 37.5t-21.5 48.5t-9 63q0 51 19 92.5t51 71t75 46t91 16.5q55 0 97.5 -16.5t73.5 -46t48 -71.5t17 -91 q0 -28 -7 -59t-23.5 -59t-46 -50.5t-74.5 -37.5q41 -8 69.5 -27.5t48 -45t31 -54.5t16.5 -58t6.5 -57t1.5 -51v-752h-119v789q0 42 -10.5 77.5t-33 62t-55.5 41.5t-75 15q-49 0 -103.5 -26.5t-108.5 -74t-107 -114t-98 -147.5q-84 -148 -131 -277.5t-47 -246.5v-99h-119 v1045q-10 -5 -24.5 -11t-30 -11t-32.5 -8t-32 -3q-50 0 -92 16.5t-73.5 46t-49.5 70t-18 89.5zM183 1237.5q0 -30.5 13 -56.5t39.5 -43t66.5 -17t65.5 17t38.5 43t13 56.5t-13 56.5t-38.5 44t-65.5 18t-66.5 -18t-39.5 -44t-13 -56.5zM1047 1248.5q0 -22.5 7.5 -44t23.5 -39 t39 -27.5t53 -10t53 10t38.5 27.5t23.5 39t8 44t-8 45t-23.5 39.5t-38.5 27.5t-53 10.5t-53 -10.5t-39 -27.5t-23.5 -39.5t-7.5 -45z" />
<glyph unicode="&#xe2c;" horiz-adv-x="1704" d="M67 1234q0 52 18 94.5t50 73.5t75 48t92 17q54 0 97.5 -18t74.5 -50t48 -75.5t17 -95.5v-1044l346 781h105l370 -781v1047q-32 -15 -60.5 -26.5t-57 -19t-60 -11t-68.5 -3.5q-43 0 -96.5 12t-101.5 34.5t-80 55.5q-32 31 -32 74q0 37 22.5 72t63.5 61.5t96 42.5t118 16 q67 0 119.5 -11.5t91 -29t65 -38t41.5 -39.5q42 23 68.5 56t42 70t22 75t6.5 71h129q0 -59 -13.5 -116.5t-39.5 -108.5t-64.5 -94t-87.5 -73v-1301h-160l-383 812l-366 -812h-156v1045q-10 -5 -24.5 -11t-30 -11t-32.5 -8t-32 -3q-50 0 -92 16.5t-73.5 46t-49.5 70t-18 89.5 zM183 1237.5q0 -30.5 13 -56.5t39.5 -43t66.5 -17t65.5 17t38.5 43t13 56.5t-13 56.5t-38.5 44t-65.5 18t-66.5 -18t-39.5 -44t-13 -56.5zM931 1354q0 -13 16.5 -25.5t42 -22.5t58.5 -17.5t66 -8.5q27 -2 56.5 1t58.5 10t56.5 20t48.5 30q-8 12 -27 28.5t-46.5 30.5 t-67 23.5t-88.5 9.5q-31 0 -62 -6.5t-56 -17t-40.5 -25t-15.5 -30.5z" />
<glyph unicode="&#xe2d;" horiz-adv-x="1444" d="M182 1120v40q0 84 42 143.5t113.5 97.5t164.5 54t196 16q113 0 209.5 -14t166.5 -51t110 -102q40 -63 40 -163v-844q0 -55 -10 -109t-33.5 -95.5t-64.5 -67t-102 -25.5h-559q-72 0 -117.5 26.5t-70.5 68.5t-34.5 96t-9.5 106v451q0 56 18 102.5t51 78.5t77 50t99 18 q51 0 93 -18t73 -49t48 -71.5t17 -87.5q0 -59 -20 -102t-53.5 -70.5t-79.5 -41.5t-97 -12q-29 1 -54.5 7.5t-51.5 18.5v-269q0 -47 8 -83t27.5 -60.5t52 -37t82.5 -12.5h408q61 0 97.5 12.5t55.5 37.5t24.5 61t5.5 82v825q0 70 -26 116.5t-76 74.5t-124 40t-174 12 q-95 0 -169.5 -12t-126.5 -38.5t-80 -68t-28 -98.5v-33h-118zM350 768.5q0 -30.5 13 -56.5t39.5 -43t66.5 -17t66 17t38.5 43t12.5 56.5t-12.5 56.5t-38.5 43t-66 17t-66.5 -17t-39.5 -43t-13 -56.5z" />
<glyph unicode="&#xe2e;" horiz-adv-x="1444" d="M186 1250q0 37 18.5 68.5t51.5 56.5t77.5 43t95.5 30t107 17.5t113 5.5q106 0 178 -7t125 -20.5t92 -31.5t74 -38q27 67 38 131.5t11 111.5h117q-1 -41 -7 -87t-16.5 -91.5t-27 -89t-40.5 -81.5q11 -17 17.5 -37.5t9.5 -42t3.5 -40t0.5 -31.5v-820q0 -55 -10 -109 t-33.5 -95.5t-64.5 -67t-102 -25.5h-559q-72 0 -117.5 26.5t-70.5 68.5t-34.5 96t-9.5 106v379q0 56 18 102.5t51 78.5t77 50t99 18q51 0 93 -18t73 -48.5t48 -71.5t17 -88q0 -58 -18.5 -101t-50.5 -71t-76.5 -41.5t-94.5 -12.5q-29 2 -59.5 8.5t-56.5 17.5v-197 q0 -47 8 -83t27.5 -60.5t52 -37t82.5 -12.5h408q61 0 97.5 12.5t55.5 37.5t24.5 61t5.5 82v873q-30 -18 -66 -39t-89.5 -38t-127 -28.5t-177.5 -11.5q-48 0 -101 3t-103.5 10t-96.5 20t-81 34.5t-55.5 52t-20.5 72.5zM312 1251q0 -27 34 -44t84 -26.5t109 -13t106 -3.5 q109 0 182.5 14.5t120.5 33.5t73 38.5t39 27.5q-66 52 -169 72q-105 20 -245 20q-65 0 -125.5 -8.5t-106 -24.5t-74 -37.5t-28.5 -48.5zM350 697q0 -31 13 -56.5t39.5 -42.5t66.5 -17t66 17t38.5 42.5t12.5 56.5t-12.5 56.5t-38.5 43t-66 17.5t-66.5 -17.5t-39.5 -43 t-13 -56.5z" />
<glyph unicode="&#xe2f;" horiz-adv-x="1477" d="M199 1241q0 56 19 99.5t51.5 72t76 43.5t92.5 15q51 0 94 -16t73 -46t46.5 -71.5t16.5 -94.5q0 -62 -28 -111t-87 -81q91 0 180 24.5t169 88.5q45 36 75 79t50 85.5t30.5 78.5t14.5 57q21 0 47 -3.5t45 -17.5q20 -16 30 -40t15 -55.5t6.5 -67.5t1.5 -72v-929 q0 -33 -2 -66.5t-12 -65t-29 -59.5t-50 -51q-16 -11 -34 -21t-36.5 -18.5t-37 -14.5t-34.5 -9l-71 95q46 11 81 25.5t58.5 38t35.5 58.5t12 84v946q-94 -133 -228.5 -198.5t-284.5 -65.5q-73 0 -141.5 15.5t-123 50t-88 88t-33.5 130.5zM319 1249q0 -29 13 -54t38 -42.5 t62 -17.5t62 17.5t38 42.5t13 54t-13 54t-38 42.5t-62 17.5t-62 -17.5t-38 -42.5t-13 -54z" />
<glyph unicode="&#xe30;" horiz-adv-x="1195" d="M147 309q0 49 18.5 89t49.5 67.5t71.5 42.5t83.5 15q49 0 89 -17t68.5 -45.5t44.5 -67t16 -84.5q0 -52 -26.5 -95.5t-76.5 -69.5q15 -1 33 -3t31 -2q27 0 60 3.5t66.5 12.5t67 24t65.5 37q33 23 57 56t41.5 70.5t26 77.5t8.5 78h111q0 -59 -14 -116t-42 -108t-71 -92.5 t-101 -71.5q-66 -34 -145.5 -50t-157.5 -16q-63 0 -129 14.5t-121 46.5t-89.5 82t-34.5 122zM147 1177q0 49 18.5 89t49.5 67.5t71.5 42.5t83.5 15q49 0 89 -16.5t68.5 -45.5t44.5 -67.5t16 -83.5q0 -51 -26.5 -94.5t-76.5 -71.5q15 -1 33 -3t31 -2q27 0 60 4t66.5 12.5 t67 23.5t65.5 37q33 23 57 56.5t41.5 71.5t26 78t8.5 76h111q0 -59 -14 -116t-42 -107t-71 -92.5t-101 -72.5q-66 -34 -145.5 -50t-157.5 -16q-63 0 -129 15t-121 46.5t-89.5 81.5t-34.5 122zM250 313q0 -30 13 -56.5t39.5 -43.5t66.5 -17t65.5 17t38.5 43.5t13 56.5t-13 56 t-38.5 43.5t-65.5 17.5t-66.5 -17.5t-39.5 -43.5t-13 -56zM250 1182q0 -31 13 -56.5t39.5 -43.5t66.5 -18t65.5 18t38.5 43.5t13 56.5t-13 56.5t-38.5 42.5t-65.5 17t-66.5 -17t-39.5 -42.5t-13 -56.5z" />
<glyph unicode="&#xe31;" d="M-1067 2065q0 44 16 80t43.5 61.5t65.5 39t81 13.5q42 0 78.5 -15t62.5 -40t42 -60.5t16 -75.5q0 -25 -7 -51t-22 -48.5t-39.5 -40.5t-57.5 -25q26 -8 54 -13t55 -8t52 -4q24 -2 44 -2q84 0 170 21.5t158 65t122 110t63 158.5l116 3q-13 -89 -47.5 -157.5t-83.5 -119.5 t-110.5 -85t-127.5 -55.5t-134.5 -31t-130.5 -9.5q-87 0 -173 13.5t-154.5 47t-110 89.5t-41.5 139zM-961.5 2069.5q0.5 -26.5 11 -47.5t33 -36t56.5 -15q32 0 52.5 15t31.5 36t11 47.5t-11 48t-31.5 36.5t-52.5 15q-34 0 -57 -15t-33.5 -36.5t-10 -48z" />
<glyph unicode="&#xe32;" horiz-adv-x="1242" d="M103 1107v53q0 84 33 143.5t93 97.5t143.5 54t185.5 16q226 0 345 -79t119 -238v-1154h-118v1140q0 54 -16.5 96t-56.5 71.5t-106.5 45.5t-166.5 16q-95 0 -160 -14t-105.5 -41.5t-58.5 -69t-18 -99.5v-38h-113z" />
<glyph unicode="&#xe33;" horiz-adv-x="1242" d="M-562 1996q0 47 15.5 92.5t48 81t80.5 57t110.5 21.5t110.5 -21.5t79 -57t47.5 -81t16.5 -92.5t-16.5 -92.5t-47.5 -81.5t-79 -57.5t-110.5 -21.5t-110.5 21.5t-80.5 57.5t-48 81t-15.5 93zM-458 1993.5q0 -28.5 9.5 -55t28 -47.5t47 -33.5t66 -12.5t64.5 12.5t45 33.5 t28 47.5t10 54.5t-10 55.5t-28 48.5t-45 34t-64.5 13t-66 -13t-47 -34t-28 -48t-9.5 -55.5zM103 1107v53q0 84 33 143.5t93 97.5t143.5 54t185.5 16q226 0 345 -79t119 -238v-1154h-118v1140q0 54 -16.5 96t-56.5 71.5t-106.5 45.5t-166.5 16q-95 0 -160 -14t-105.5 -41.5 t-58.5 -69t-18 -99.5v-38h-113z" />
<glyph unicode="&#xe34;" d="M-1284 1739v116q0 78 38 139.5t105 103t161.5 64t205.5 22.5q143 0 247.5 -24t172 -68t99.5 -106.5t32 -140.5v-106h-1061zM-1168 1839h831v39q0 37 -23 74t-74 66.5t-134 48.5t-206 19q-74 0 -145 -11.5t-126 -36.5t-89 -65t-34 -97v-37z" />
<glyph unicode="&#xe35;" d="M-1284 1739v116q0 78 38 139.5t105 103t161.5 64t205.5 22.5q155 0 263 -27.5t174 -77.5v250h114v-590h-1061zM-1168 1839h831v39q0 37 -23 74t-74 66.5t-134 48.5t-206 19q-74 0 -145 -11.5t-126 -36.5t-89 -65t-34 -97v-37z" />
<glyph unicode="&#xe36;" d="M-1284 1739v116q0 78 38 139.5t105 103t161.5 64t205.5 22.5q98 0 179 -12q-1 6 -2 12.5t-1 11.5q0 46 18.5 87.5t50 71.5t74 47.5t89.5 17.5q49 0 91 -17.5t73.5 -47.5t49.5 -71.5t18 -87.5q0 -34 -9.5 -64.5t-26.5 -58t-41.5 -48t-53.5 -34.5q22 -36 32 -79 q10 -42 10 -84v-89h-1061zM-1168 1839h831v21q0 38 -23 77t-74 72.5t-134 55t-206 21.5q-74 0 -145 -11.5t-126 -36.5t-89 -65t-34 -97v-37zM-485 2196q0 -22 8 -44.5t23 -39t38 -27t54 -10.5q30 0 52.5 10.5t36.5 27t22 38t8 43.5t-8 44.5t-23 39t-38.5 27t-53.5 10.5 t-52 -10.5t-36.5 -27t-22.5 -38t-8 -43.5z" />
<glyph unicode="&#xe37;" d="M-1284 1739v116q0 78 38 139.5t105 103t161.5 64t205.5 22.5q46 0 86 -3t77 -7v155h113v-177q50 -13 89.5 -30.5t71.5 -42.5v250h114v-590h-1061zM-1168 1839h831v39q0 37 -23 74t-74 66.5t-134 48.5t-206 19q-74 0 -145 -11.5t-126 -36.5t-89 -65t-34 -97v-37z" />
<glyph unicode="&#xe38;" d="M-692 -355q0 49 18 89t48.5 69.5t71.5 45t86 15.5q56 0 100.5 -17t76 -48t48 -74.5t16.5 -94.5v-399h-123v230q-26 -13 -54.5 -20t-55.5 -7q-51 0 -93 15.5t-72.5 44t-48.5 67.5t-18 84zM-588 -352q0 -23 8 -44.5t23 -39t38 -27.5t53 -10t53 10t38 27.5t22.5 39t7.5 44.5 t-7.5 45t-22.5 38.5t-38 27.5t-53 11t-53 -11t-38 -27.5t-23 -38.5t-8 -45z" />
<glyph unicode="&#xe39;" d="M-1088 -395q-2 52 15.5 93.5t47.5 70.5t71.5 45t89.5 16q55 0 99 -16.5t75 -48t47.5 -76t16.5 -95.5v-242h284v472h122v-572h-529v177q-27 -14 -52.5 -19t-59.5 -5q-43 0 -83.5 13t-72 38.5t-51 63.5t-20.5 85zM-984 -382q0 -23 8 -45t23 -39t37 -27t52 -10t53 10t38 27 t23 39t8 45t-8 44.5t-23 38.5t-38 28t-53 11t-52 -11t-37 -28t-23 -38.5t-8 -44.5z" />
<glyph unicode="&#xe3a;" d="M-409 -326q0 21 7 42t21.5 37.5t37.5 25.5t51.5 9t50 -9t35.5 -25.5t21.5 -37.5t7.5 -42t-7.5 -42t-21.5 -36.5t-35.5 -25.5t-50.5 -10q-30 0 -52 10t-36.5 25.5t-21.5 36.5t-7 42z" />
<glyph unicode="&#xe3e;" />
<glyph unicode="&#xe3f;" horiz-adv-x="1929" d="M370 0v1685h532v354h110v-354h96q100 0 184.5 -29t146 -83t96.5 -130t35 -170q0 -27 -5 -61t-17 -71.5t-33.5 -75t-53.5 -71.5t-78 -62q-47 -28 -107 -45q41 -9 84.5 -24.5t86 -38t79 -54t64 -73t44 -93.5t16.5 -118q0 -98 -33 -187t-100.5 -155.5t-169 -105 t-239.5 -38.5h-96v-356h-110v356h-532zM512 117h390v700h-390v-700zM512 935h390v631h-390v-631zM1012 117h103q99 0 172.5 28.5t123 78t74 114t24.5 137.5q0 67 -17.5 118.5t-48 89.5t-73 63.5t-90 41.5t-100 22.5t-102.5 6.5h-66v-700zM1012 937q6 0 16 -1t21 -1h21h15 q73 0 135.5 20t108 61t72 104.5t26.5 150.5q0 55 -17 107.5t-55 94t-99 67.5t-148 26h-96v-629z" />
<glyph unicode="&#xe40;" horiz-adv-x="752" d="M246 232v1232h120v-1061q30 17 61 26t59 9q49 0 92 -17.5t73.5 -46.5t47.5 -70t17 -89.5t-18.5 -90t-50 -73t-73.5 -48.5t-88 -17q-56 0 -100 19t-75 53t-48 79q-17 43 -17 95zM369 214q0 -31 13 -56.5t39.5 -43t66.5 -17.5t65.5 17.5t38.5 43t13 56.5t-13 56.5 t-39.5 42.5t-64.5 17q-40 0 -66.5 -17t-39.5 -42.5t-13 -56.5z" />
<glyph unicode="&#xe41;" horiz-adv-x="1385" d="M246 232v1232h120v-1061q30 17 61 26t59 9q49 0 92 -17.5t73.5 -46.5t47.5 -70t17 -89.5t-18.5 -90t-50 -73t-73.5 -48.5t-88 -17q-56 0 -100 19t-75 53t-48 79q-17 43 -17 95zM369 214q0 -31 13 -56.5t39.5 -43t66.5 -17.5t65.5 17.5t38.5 43t13 56.5t-13 56.5 t-39.5 42.5t-64.5 17q-40 0 -66.5 -17t-39.5 -42.5t-13 -56.5zM879 232v1232h121v-1061q30 17 60.5 26t59.5 9q48 0 91 -17.5t74 -46.5t48 -70t17 -89.5t-18.5 -90t-50 -73t-73 -48.5t-88.5 -17q-56 0 -100.5 19t-75 53t-47.5 79q-18 43 -18 95zM1002 214q0 -31 13 -56.5 t39.5 -43t66.5 -17.5t66 17.5t38.5 43t12.5 56.5t-12.5 56.5t-39 42.5t-65.5 17q-40 0 -66.5 -17t-39.5 -42.5t-13 -56.5z" />
<glyph unicode="&#xe42;" horiz-adv-x="930" d="M84 2068q2 23 5.5 50.5t11.5 57.5t22 61t37 60q26 31 60.5 54t71.5 37t76.5 20.5t76.5 6.5q60 0 113 -12.5t103.5 -29t104.5 -32.5q55 -16 118 -22q54 -4 88 13q35 16 55 36l35 -99q-27 -24 -71 -42.5t-89 -18.5q-50 0 -90.5 8t-76.5 19.5t-68 24t-66.5 25t-72.5 19.5 t-83 7q-27 0 -63.5 -5t-71.5 -23t-62.5 -51t-33.5 -88q71 0 131 -15t104 -50.5t69 -92.5t25 -140v-1443q30 17 61.5 26t60.5 9q49 0 91.5 -17.5t73.5 -46.5t48 -70t17 -89.5t-18.5 -90t-50 -73t-73 -48.5t-88.5 -17q-56 0 -100 19t-75 53t-48 79q-17 43 -17 95v1604 q0 56 -13 94.5t-36.5 63t-56 38t-70 20.5t-80 9t-85.5 7zM548 214q0 -31 12.5 -56.5t39 -43t66.5 -17.5t66 17.5t39 43t13 56.5t-13 56.5t-39.5 42.5t-65.5 17q-40 0 -66.5 -17t-39 -42.5t-12.5 -56.5z" />
<glyph unicode="&#xe43;" horiz-adv-x="1052" d="M41 2035q0 84 27.5 154t76.5 121t119.5 78t155.5 27q83 0 152.5 -25.5t119.5 -74t78 -119.5t28 -160q0 -48 -10 -90.5t-24.5 -79.5t-31.5 -71.5t-32 -69.5t-24.5 -73.5t-9.5 -81.5v-1167q30 17 61 26t59 9q49 0 92 -17.5t73.5 -46.5t48 -70t17.5 -89.5t-18.5 -90t-50 -73 t-74 -48.5t-88.5 -17q-55 0 -99.5 19t-75 53t-48.5 79q-17 43 -17 95v1332q0 55 10 95.5t25 75.5t33 66t32.5 65t25 76.5t10.5 96.5q0 60 -17 111.5t-49.5 89t-81.5 58t-114 20.5q-55 0 -108 -18.5t-91 -57t-59.5 -98t-15.5 -139.5q14 34 32.5 57t38.5 36t41.5 17t40.5 4 q36 0 68.5 -12.5t57 -38t39.5 -61.5t15 -85q0 -46 -14.5 -84t-40 -64.5t-59 -40.5t-73.5 -13q-62 2 -108.5 26t-78.5 66.5t-48 99.5t-16 123zM199 1915q0 -19 5.5 -38t17 -33.5t29.5 -23t42 -8.5q23 0 41 9t29.5 24t17 34.5t5.5 39.5t-6.5 39.5t-18 34.5t-28.5 25t-38 10 q-25 0 -42.5 -10t-30 -26t-18 -36t-5.5 -41zM669 214q0 -31 13 -56.5t39.5 -43t66.5 -17.5t65.5 17.5t38.5 43t13 56.5t-13 56.5t-39 42.5t-65 17q-40 0 -66.5 -17t-39.5 -42.5t-13 -56.5z" />
<glyph unicode="&#xe44;" horiz-adv-x="1029" d="M13 2311l20 104q46 -13 74.5 -31.5t45.5 -47t24 -71.5q6 -43 12 -107q3 -34 5.5 -75t8.5 -76.5t16.5 -60t32.5 -24.5q15 0 26.5 17t21 46.5t18 66.5t18.5 77q17 63 34.5 113t43 85t62.5 54.5t93 19.5q36 0 69.5 -12t59.5 -36.5t41.5 -61.5t15.5 -87q0 -69 -13.5 -124 t-30.5 -108q-20 -57 -33.5 -107t-22.5 -99.5t-11.5 -100.5t-2.5 -109v-1153q30 17 60.5 26t59.5 9q48 0 91 -17.5t74 -46.5t48 -70t17 -89.5t-18.5 -90t-51 -73t-73.5 -48.5t-87 -17q-56 0 -100.5 19t-75 53t-47.5 79q-17 43 -17 95v1320q1 111 18 207.5t49 191.5 q10 31 19 63t17 63t13 59.5t5 52.5q0 52 -19 83q-20 32 -62 32q-26 0 -44.5 -16t-33 -45t-26.5 -70t-25 -89q-16 -59 -29.5 -107t-33.5 -82.5t-48 -53.5t-71 -19q-46 0 -76 21.5t-47.5 65t-27.5 108.5t-13 149q-3 65 -18 101.5t-55 43.5zM644 214q0 -31 12.5 -56.5t38.5 -43 t66 -17.5t66.5 17.5t39 43t12.5 56.5t-12.5 56.5t-39 42.5t-66.5 17t-66 -17t-38.5 -42.5t-12.5 -56.5z" />
<glyph unicode="&#xe45;" horiz-adv-x="1242" d="M103 1107v53q0 84 33 143.5t93 97.5t143.5 54t185.5 16q226 0 345 -79t119 -238v-1755h-118v1741q0 54 -16.5 96t-56.5 71.5t-106.5 45.5t-166.5 16q-95 0 -160 -14t-105.5 -41.5t-58.5 -69t-18 -99.5v-38h-113z" />
<glyph unicode="&#xe46;" horiz-adv-x="1653" d="M452 1211q0 60 23 109t62 82.5t90 52t107 18.5q67 0 120 -20t90 -47t60 -55t30 -44q41 79 91 122.5t125 43.5q48 0 82.5 -16.5t58 -46t34.5 -71t11 -92.5v-1258q0 -139 -71.5 -224t-201.5 -117l-72 107q46 3 86.5 22.5t72 50t49.5 72t18 90.5v1254q0 122 -69 122 q-22 0 -43 -14.5t-41.5 -37.5t-39.5 -52t-34.5 -58.5t-29 -56.5t-22.5 -47q-20 40 -47 84t-62 82t-76.5 63t-88.5 24q12 -9 26 -22t26 -31.5t19 -43.5t7 -58q0 -44 -15 -81t-41.5 -64.5t-63.5 -42.5t-80 -15q-46 0 -81 18t-60 48t-37 69.5t-12 80.5zM546 1193 q0 -19 6.5 -38.5t19.5 -34.5t31 -24t43 -9q26 0 44.5 9t31.5 24t19.5 34t6.5 37q0 19 -5 38t-17 35t-32 26t-47.5 10t-46 -9.5t-30.5 -25t-18 -35t-6 -37.5z" />
<glyph unicode="&#xe47;" d="M-1190 1749v207q0 87 15 158q17 71 57 124q41 54 96 85t119.5 46t137.5 18.5t152 3.5q101 0 172.5 14.5t118.5 35t73.5 42.5t39.5 41l77 -77q-58 -59 -128 -90.5t-142.5 -45.5t-144 -15.5t-135.5 -1.5q-87 0 -158.5 -11.5t-122.5 -44.5t-79 -93t-28 -159v-153l229 219 q23 -23 57.5 -61t78.5 -73.5t98 -62t112 -27.5q-31 17 -49.5 38.5t-28 43.5t-12.5 41.5t-3 30.5q0 40 16 74.5t42.5 60t61.5 39t76 13.5q46 0 83 -16.5t63 -43.5t40 -64t14 -77q0 -25 -5.5 -50.5t-17 -49t-28 -44.5t-37.5 -35q-43 -29 -89.5 -38t-96.5 -9q-57 0 -112 12.5 t-104.5 35.5t-91 54.5t-71.5 70.5q-19 -17 -41 -38t-45.5 -44t-45.5 -44q-21 -22 -41 -40h-172zM-489 1977q0 -26 10.5 -49t33 -38t56.5 -15t57 15t34 38t11 49t-11 49t-34 38t-57 15t-56.5 -15t-33 -38t-10.5 -49z" />
<glyph unicode="&#xe48;" d="M-335 2477v374h116v-374h-116z" />
<glyph unicode="&#xe49;" d="M-661 2773q-1 41 14 74t40 57.5t58 37t69 14.5q45 1 81 -13t61.5 -40t39 -61.5t13.5 -75.5q0 -42 -7.5 -78.5t-21 -68t-32.5 -57t-39 -44.5q6 0 36 1t73 7.5t90 18.5t87 32q46 26 74.5 60t45 71.5t23.5 77.5t10 77h95q0 -29 -3 -60.5t-11.5 -66.5t-25.5 -71.5t-46 -73.5 q-42 -56 -104 -87.5t-135.5 -48.5t-153 -21t-158.5 -4q-34 0 -58 1q-25 0 -46 3v68q60 9 104.5 37t74.5 82q-32 -13 -52 -15t-30 -2q-34 0 -64 13t-52 36t-36 53.5t-14 66.5zM-571 2778q0 -17 6 -34t17.5 -30t29.5 -20.5t42 -7.5t42 7.5t30 20.5t18 30t6 34q0 18 -6 35 t-18 30.5t-30 21.5t-42 8t-42 -8t-29.5 -21.5t-17.5 -30t-6 -35.5z" />
<glyph unicode="&#xe4a;" d="M-764 2676q2 45 15.5 89t38 77.5t59.5 53.5q33 20 82 20q37 0 75 -16t71 -50q8 9 19 21t25 21t33 17q20 7 43 7q40 0 68 -20t45.5 -51t25.5 -66.5t8 -65.5q0 -50 -9 -96t-22 -90q43 17 68 51.5t37.5 78.5t16.5 95.5t4 101.5v53t2.5 48t8.5 40q7 18 19 31h97 q-17 -19 -26 -42.5t-10 -50.5q-3 -47 -2 -95t-2 -94.5t-11.5 -92.5t-31.5 -86q-16 -30 -38 -52t-47 -37t-51.5 -24.5t-49.5 -14.5q-37 -9 -72 -9q-11 0 -21 1t-21 2q12 17 23.5 51.5t21 72.5t15 75t5.5 60q0 21 -2 45.5t-10 45t-23 35t-39 14.5q-19 0 -44 -18t-53 -51 q-15 13 -31 26.5t-33.5 23.5t-36 16t-37.5 6q-42 0 -68.5 -33.5t-31.5 -91.5q28 18 53 23.5t42 5.5q41 0 72 -14.5t51 -36.5t30 -50.5t10 -57.5q0 -34 -12.5 -62.5t-35 -50t-53.5 -33.5t-67 -12q-51 -2 -89 17.5t-61.5 54.5t-34 82t-8.5 102zM-656 2580q0 -16 5.5 -31.5 t15.5 -28t26.5 -19.5t37.5 -7q22 0 37.5 7t25.5 19.5t15 28t5 31.5q0 15 -5 31t-15 28t-25.5 19.5t-37.5 7.5q-21 0 -37.5 -7.5t-26.5 -19.5t-15.5 -27t-5.5 -32z" />
<glyph unicode="&#xe4b;" d="M-589 2691v97h254v199h116v-199h256v-97h-256v-200h-116v200h-254z" />
<glyph unicode="&#xe4c;" d="M-588 2575q0 69 29.5 114t76.5 73.5t108 43t122 23.5q49 5 96 11.5t96 20.5q31 9 53.5 22.5t37.5 28t24 30t15 30.5q13 -16 21 -25.5t14.5 -17.5t13.5 -16.5t20 -22.5q-6 -16 -18 -31.5t-28 -29t-34 -24.5q-16 -11 -33 -15q-27 -9 -59.5 -17.5t-64.5 -15.5t-61.5 -11.5 t-49.5 -5.5q27 -16 43.5 -37.5t25 -44.5t11.5 -45.5t3 -42.5q0 -52 -17 -92t-48.5 -68t-74.5 -43t-93 -15q-59 0 -102.5 19.5t-71.5 51t-41.5 71.5t-13.5 81zM-485 2570q0 -26 8 -49.5t24.5 -43t40.5 -30t57 -10.5t59 11.5t42.5 30t25 42.5t8.5 50t-8.5 49.5t-25 43 t-41.5 31t-57 11.5q-34 0 -58.5 -11.5t-41.5 -31t-25 -44.5t-8 -49z" />
<glyph unicode="&#xe4d;" d="M-561 1996q0 47 16 92.5t47.5 81t79.5 57t110.5 21.5t110.5 -21.5t79 -57t47.5 -81t16.5 -92.5t-16.5 -92.5t-47.5 -81.5t-79 -57.5t-110.5 -21.5t-110.5 21.5t-79.5 57.5t-47.5 81t-16 93zM-458 1993.5q0 -28.5 9.5 -55t28 -47.5t47 -33.5t66 -12.5t64.5 12.5t45 33.5 t28 47.5t10 54.5t-10 55.5t-28 48.5t-45 34t-64.5 13t-66 -13t-47 -34t-28 -48t-9.5 -55.5z" />
<glyph unicode="&#xe4e;" d="M-831 1893q0 59 31 107t78 83.5t104 60t110 35.5q-30 3 -60 14t-53.5 27.5t-38.5 40.5t-15 54q0 46 28.5 86.5t81.5 70t127.5 46.5t164.5 17q40 0 96.5 -5t139.5 -28v-88q-12 6 -34.5 12t-54 12t-69.5 9.5t-81 3.5q-46 0 -94 -8.5t-86.5 -25t-62.5 -40t-24 -55.5 q0 -27 22 -50.5t55.5 -40.5t74.5 -26q39 -9 79 -9v-64q-83 -4 -155 -22.5t-126.5 -48t-86 -69.5t-31.5 -87q0 -32 13.5 -53.5t35 -34t49.5 -18.5t57 -6q27 0 53.5 6t46.5 18t32 28.5t12 36.5q0 30 -16 54l91 29q20 -24 27 -50.5t4 -46.5q-3 -35 -24.5 -63.5t-55.5 -50 t-80 -33t-97 -11.5q-50 0 -98 8.5t-86 30t-61 56.5t-23 88z" />
<glyph unicode="&#xe4f;" horiz-adv-x="1889" d="M255 732q0 92 20 181t60.5 170.5t102 151t142.5 120.5t183 80t225 29q122 0 223.5 -29t183 -80t143 -120.5t101.5 -151t60.5 -170.5t20.5 -180.5t-20.5 -182t-60.5 -172t-101.5 -150.5t-143 -120t-183 -79.5t-223.5 -28.5q-123 0 -225 28.5t-183 79.5t-142.5 120 t-102 150.5t-60.5 172t-20 181.5zM372 731q0 -77 17 -152.5t51.5 -142.5t85 -125.5t119.5 -100t154.5 -66t188.5 -24.5t188 24.5t154 66t119.5 100t85 125.5t51.5 143t17 152q0 77 -17 151.5t-51.5 143t-86 127t-120 101.5t-153.5 67.5t-187 24.5q-103 0 -188.5 -24.5 t-153.5 -67.5t-119.5 -101.5t-86 -127t-51.5 -143.5t-17 -151zM555 722q0 -89 34 -167.5t92 -136.5t137 -92t167 -34q89 0 167.5 34t136.5 92t91.5 136.5t33.5 167.5t-33.5 167.5t-91.5 136.5t-136.5 92.5t-167.5 34.5q-88 0 -167 -34.5t-137 -92.5t-92 -136.5t-34 -167.5z M675 724q0 64 24.5 121t67 98.5t99 66.5t121.5 25q64 0 121 -25t99.5 -66.5t66.5 -98.5t24 -121q0 -65 -24 -122t-66.5 -99.5t-99.5 -66.5t-121 -24q-65 0 -121.5 24t-99 66.5t-67 99.5t-24.5 122z" />
<glyph unicode="&#xe50;" horiz-adv-x="1530" d="M150 543q0 113 36.5 214.5t111.5 177t191 119.5t276 44q159 0 274.5 -44t191.5 -119.5t113 -177t37 -214.5q0 -115 -37 -216.5t-113 -177.5t-191.5 -120.5t-274.5 -44.5q-160 0 -276 44.5t-191 120.5t-111.5 177.5t-36.5 216.5zM269 543q0 -95 28.5 -179t88 -146 t153.5 -98t226 -36q129 0 222.5 36t155 98t90 146t28.5 179t-28.5 177t-88.5 143.5t-153.5 97.5t-225.5 36t-226 -36t-153.5 -97.5t-88 -143.5t-28.5 -177z" />
<glyph unicode="&#xe51;" horiz-adv-x="1522" d="M153 489q0 113 36.5 218t111.5 186t188.5 129.5t269.5 48.5q153 0 268.5 -40.5t193 -115t117 -179t39.5 -228.5q0 -95 -13 -172t-34.5 -140.5t-50 -114.5t-59.5 -90q-35 -44 -74 -79.5t-85 -61.5l-87 63q76 44 134 117q30 37 56.5 83.5t47.5 106t33 130t12 155.5 q0 101 -31 186t-93.5 146.5t-155.5 95.5t-218 34q-114 0 -205 -35t-153 -98t-95 -149t-33 -187q0 -95 23.5 -170.5t69.5 -129.5t111.5 -82.5t150.5 -28.5q76 0 128.5 24.5t92.5 78.5q-38 -16 -62.5 -18t-34.5 -2q-48 0 -91 15t-75.5 44.5t-51 70t-18.5 92.5q0 51 19.5 92.5 t51.5 71t74.5 45t89.5 15.5t90.5 -16.5t77 -49t53.5 -80t20 -105.5q0 -69 -20 -137t-65.5 -121.5t-117 -86.5t-173.5 -33q-120 0 -208 40t-145 108.5t-84 160.5q-26 90 -26 193zM619 389q0 -24 8 -47t25 -41t41.5 -29.5t57.5 -11.5t57 11.5t41.5 29.5t25 41.5t7.5 46.5 q0 24 -7.5 47.5t-25 42.5t-41.5 30.5t-57 11.5t-57.5 -11.5t-41.5 -30.5t-25 -42q-8 -25 -8 -48z" />
<glyph unicode="&#xe52;" horiz-adv-x="1580" d="M39 1513q12 17 21.5 29t17.5 23t16.5 23t18.5 26q60 -8 109.5 -36t83.5 -71t53 -97t19 -117v-971q0 -49 12 -87t35 -65.5t58 -42.5t82 -15h578q35 0 67.5 15.5t56 43.5t37.5 67t14 85v492q0 33 -7.5 61t-22.5 49.5t-38 33.5t-52 12q-45 0 -76 -18.5t-48 -45t-25 -55 t-9 -50.5h-103q-3 26 -9.5 54.5t-20 53.5t-36 42.5t-57.5 17.5q-32 0 -56 -18t-41.5 -46.5t-27.5 -65t-15 -73t-6.5 -71.5t1.5 -61q29 31 64 47t81 16q51 0 92 -16.5t68 -44.5t41.5 -66.5t14.5 -84.5t-15 -84.5t-44 -67t-69.5 -45t-89.5 -16.5q-84 0 -135.5 31t-79.5 83.5 t-38 120t-10 140.5q0 37 4.5 82t15 91.5t30 90t48.5 77t70.5 54.5t99.5 21q27 0 54 -8.5t50.5 -25t41.5 -43.5t28 -66q17 40 39 67t48 44.5t57 24.5q32 7 63 7q68 0 113 -21.5t73.5 -56.5t41.5 -81.5t13 -96.5v-483q0 -66 -19.5 -125.5t-54.5 -104t-86 -70t-115 -25.5h-616 q-78 0 -133 22t-90 63.5t-51.5 102.5t-16.5 138v927q0 54 -11 100t-36.5 80t-67.5 55q-42 22 -103 25zM688 486q0 -23 8 -45.5t23 -40t38.5 -28t54.5 -10.5q30 0 53.5 10.5t38.5 28t23 40t8 45.5t-8 46t-23 40t-38.5 28t-53.5 11q-31 0 -54.5 -11t-38.5 -28t-23 -40t-8 -46z " />
<glyph unicode="&#xe53;" horiz-adv-x="1511" d="M174 555q0 106 21 199t64 162t108 108.5t154 39.5q55 0 99.5 -14.5t78 -40t57 -61.5t39.5 -77q16 40 39 75t54 60.5t72 41.5t91 16q73 0 128 -23.5t93 -66t56.5 -101.5t18.5 -132v-741h-119v741q0 43 -10 84.5t-30.5 73.5t-54 51.5t-81.5 19.5q-47 0 -84.5 -27.5 t-64 -70.5t-41 -96.5t-14.5 -104.5v-112h-110v105q0 51 -13 106t-40 99.5t-68 73t-95 28.5q-49 0 -84.5 -21.5t-61.5 -55t-41.5 -77t-25 -88.5t-12 -88t-2.5 -75q0 -71 4 -127t16 -116q20 42 46.5 65.5t55 36.5t55.5 16.5t49 3.5q45 0 86.5 -16t73 -44.5t50 -69t18.5 -90.5 q0 -48 -15.5 -90.5t-46.5 -75t-77.5 -51.5t-109.5 -19q-70 0 -121.5 24t-87.5 64t-59 95t-36 118t-17.5 131t-4.5 134zM380 214q0 -25 9 -48.5t25 -42.5t40.5 -29.5t57.5 -10.5q34 0 60 11.5t42.5 30.5t25 43t8.5 49.5t-8 49t-24.5 42t-41.5 30t-58 11.5q-34 0 -59 -11.5 t-42 -30.5t-26 -43.5t-9 -50.5z" />
<glyph unicode="&#xe54;" horiz-adv-x="1605" d="M99 502q0 142 43.5 247.5t121.5 177t185 107.5t235 36q95 0 185.5 -6.5t180.5 -6.5q91 0 167 13t136.5 45.5t103.5 89t67 145.5q13 44 19.5 92t8.5 102q28 -15 54.5 -30t52.5 -31q-2 -19 -5.5 -56t-15 -83t-31.5 -97.5t-53.5 -99t-81.5 -88.5t-115 -65 q-66 -26 -131.5 -34t-132.5 -8q-108 0 -206.5 6.5t-197.5 6.5q-108 0 -195.5 -29t-148 -88t-93.5 -145.5t-33 -200.5q0 -80 23.5 -155t66.5 -132.5t102 -91.5t131 -34q31 0 70.5 7t78 18.5t73 24.5t57.5 27q-17 7 -46 22.5t-60 40t-65 56t-60.5 69.5t-42.5 81.5t-16 92.5 q0 48 17 92t47.5 75t74.5 50t98 19t97.5 -19.5t74 -51t46.5 -71.5t16 -83q0 -44 -14 -85.5t-42.5 -73t-72.5 -50t-102 -18.5q37 -42 80.5 -64t99.5 -36q39 -10 76 -17.5t72.5 -14.5t70 -16.5t68.5 -23.5q28 -13 48.5 -31.5t29.5 -28.5l-66 -79q-13 12 -34.5 28.5t-53 32 t-74.5 26.5t-100 11q-31 0 -62 -7.5t-60 -19t-59 -23.5q-29 -12 -61 -23q-58 -22 -117.5 -29.5t-102.5 -7.5q-68 0 -126 20.5t-106 57t-84.5 86.5t-61 106.5t-37 118.5t-12.5 124zM638 535q0 -26 8.5 -50.5t25 -43t41.5 -29t58 -10.5t58 11.5t42 30.5t25 43.5t8 48.5 q0 26 -8 49.5t-24.5 42t-41.5 30t-56 11.5q-33 0 -59 -11.5t-43 -30t-25.5 -43.5t-8.5 -49z" />
<glyph unicode="&#xe55;" horiz-adv-x="1687" d="M99 502q0 130 37.5 231t106.5 171.5t162.5 110.5t206.5 50q-43 58 -43 130q0 49 18.5 90.5t51 73t75 50t91.5 18.5t92.5 -18.5t75 -50t50.5 -73.5t19 -90q0 -40 -14 -75t-40 -63h62q91 0 167 13t136.5 45.5t103.5 89t67 145.5q13 44 19.5 92t8.5 102l107 -61 q-2 -19 -5.5 -56t-15 -83t-31.5 -97.5t-53.5 -99t-81.5 -88.5t-115 -65q-66 -26 -131.5 -34t-132.5 -8q-108 0 -206.5 6.5t-197.5 6.5q-108 0 -195.5 -29t-148 -88t-93.5 -145.5t-33 -200.5q0 -80 23.5 -155t66.5 -132.5t102 -91.5t131 -34q31 0 70.5 7t78 18.5t73 24.5 t57.5 27q-17 7 -46 22.5t-60 40t-65 56t-60.5 69.5t-42.5 81.5t-16 92.5q0 48 17 92t47.5 75t74.5 50t98 19t97.5 -19.5t74 -51t46.5 -71.5t16 -83q0 -44 -14 -85.5t-42.5 -73t-72.5 -50t-102 -18.5q37 -42 80.5 -64t99.5 -36q39 -10 76 -17.5t72.5 -14.5t70 -16.5 t68.5 -23.5q28 -13 48.5 -31.5t29.5 -28.5l-66 -79q-13 12 -34.5 28.5t-53 32t-74.5 26.5t-100 11q-31 0 -62 -7.5t-60 -19t-59 -23.5q-29 -12 -61 -23q-58 -22 -117.5 -29.5t-102.5 -7.5q-68 0 -126 20.5t-106 57t-84.5 86.5t-61 106.5t-37 118.5t-12.5 124zM638 535 q0 -26 8.5 -50.5t25 -43t41.5 -29t58 -10.5t58 11.5t42 30.5t25 43.5t8 48.5q0 26 -8 49.5t-24.5 42t-41.5 30t-56 11.5q-33 0 -59 -11.5t-43 -30t-25.5 -43.5t-8.5 -49zM669 1195q0 -27 10 -52t28.5 -42.5t43.5 -28.5t54 -11t54 11t43.5 28.5t29 42t10.5 52.5t-10.5 52 t-29 42t-43.5 28.5t-54 10.5t-54 -10.5t-43.5 -28.5t-28.5 -42t-10 -52z" />
<glyph unicode="&#xe56;" horiz-adv-x="1591" d="M30 1510l80 80q12 -6 31 -23t44 -47t51.5 -72t49.5 -98q27 -66 45 -131t29.5 -130t17 -128t10.5 -122q45 66 104 111t122.5 72.5t129 39.5t127.5 12q127 0 236.5 -35t190.5 -102.5t127 -166.5t46 -229q0 -133 -43.5 -235.5t-123.5 -172.5t-191.5 -106t-244.5 -36 q-60 0 -123.5 9.5t-124.5 29t-115.5 49.5t-94.5 71.5t-63.5 96.5t-23.5 122q0 51 16.5 92.5t47.5 72.5t73.5 48t95.5 17t96 -20t73 -50.5t46.5 -71.5t16.5 -84q0 -48 -16.5 -87.5t-43 -67.5t-61.5 -44.5t-71 -19.5q15 -8 42.5 -17.5t65 -18.5t79.5 -15q44 -6 86 -6 q99 0 186.5 27.5t154 82.5t105 138.5t38.5 195.5q0 95 -32.5 174.5t-93 136.5t-149 88t-201.5 31q-152 0 -259 -62q-106 -60 -172 -168h-169q0 33 -2 88.5t-10 123t-21.5 141t-36.5 142.5q-20 62 -43.5 108.5t-47 79.5t-45.5 54t-41 32zM422 372q0 -26 8.5 -49.5t25.5 -43 t42 -30t57 -10.5q33 0 58 11.5t42 30.5t25.5 43.5t8.5 48.5q0 26 -8.5 49.5t-24 43t-40.5 30t-57 10.5q-33 0 -58.5 -11.5t-43 -30t-26.5 -42.5t-9 -50z" />
<glyph unicode="&#xe57;" horiz-adv-x="1748" d="M160 555q0 106 21.5 199t63.5 162t107.5 108.5t152.5 39.5t150 -52t86 -155q8 31 25.5 67.5t46 68t70.5 51.5t102 20q56 0 99 -23t73.5 -59.5t51.5 -84.5t34 -100t17 -103.5t4 -95.5q0 -122 -17 -211.5t-37 -146.5q-23 -68 -53 -117q77 27 130 78.5t87.5 116.5t53 140 t27 150.5t10 146t1.5 126.5q0 60 0.5 125.5t6.5 131t17.5 129t33.5 120t57 103t86 80.5l73 -77q-45 -37 -74 -83.5t-45.5 -99.5t-23.5 -109t-9 -111t-2 -107v-95q-3 -93 -8.5 -186.5t-20.5 -181.5t-43 -166.5t-74 -143.5q-46 -63 -101 -103.5t-110 -64t-106 -32.5t-89 -9 h-29.5t-26.5 2q34 60 65 123t53 135t35.5 154.5t13.5 179.5q0 69 -9 134.5t-30 117t-52.5 83t-75.5 31.5q-36 0 -63.5 -16.5t-49 -43t-36.5 -60t-24.5 -68.5t-14 -68t-4.5 -59v-51h-111v51q0 16 -0.5 45.5t-5.5 63.5t-16 71.5t-30.5 66.5t-48.5 48.5t-72 19.5 q-52 0 -92 -28.5t-68.5 -81.5t-44 -129t-15.5 -169q0 -20 0.5 -49t2.5 -62t6.5 -68t11.5 -68q14 37 38.5 63t54 42.5t59.5 23.5q31 8 57 8q51 0 94 -17t74.5 -47t48 -71t16.5 -88q0 -50 -16.5 -93t-49.5 -73.5t-78.5 -47.5t-102.5 -17q-68 0 -119.5 24t-88.5 64t-62 95 t-40 118t-21.5 131t-6.5 134zM378 216q0 -26 8.5 -50t25 -43t41.5 -29.5t57.5 -10.5t57.5 11.5t42.5 30.5t26 43t8.5 49q0 26 -8.5 49.5t-25 42t-41.5 30t-57 11.5q-33 0 -58 -11.5t-42.5 -30.5t-26 -43.5t-8.5 -48.5z" />
<glyph unicode="&#xe58;" horiz-adv-x="1638" d="M152 511q0 144 40 248.5t116.5 173t185 101.5t245.5 33q89 0 171 -6t173 -6q85 0 149.5 26.5t111 70t77 98t49.5 109t26 104t7 83.5l107 -65q0 -45 -12 -102.5t-38.5 -116.5t-68 -115.5t-100 -100.5t-134.5 -70t-172 -26q-48 0 -94 1t-90 3.5t-87 4.5t-89 2 q-226 0 -340.5 -111.5t-114.5 -336.5q0 -83 19.5 -153.5t52.5 -123.5t77 -86.5t96 -40.5q-16 51 -23 95.5t-7 75.5q0 45 9 80.5t28 60.5t44.5 38.5t56.5 13.5q41 0 77 -15.5t69 -40.5t63 -58t59 -67q30 -36 62 -71t65.5 -63t68 -45t68.5 -17q78 0 128 63.5t61 177.5 q-23 -20 -45.5 -31t-44 -17t-39.5 -7.5t-31 -1.5q-50 0 -93 16.5t-73.5 45t-48 69.5t-17.5 91q0 51 19.5 93.5t52.5 71.5t76 45t90 16q68 0 117 -27t81 -73.5t47.5 -109t15.5 -130.5t-15.5 -137t-50.5 -127t-92 -95q-55 -36 -138 -36q-52 0 -101.5 21.5t-94 55t-82.5 73.5 t-68 79q-21 27 -42.5 52.5t-43 46.5t-42 34t-40.5 13q-16 0 -24.5 -9.5t-13 -24t-6 -31.5t-1.5 -31q0 -32 6 -67.5t15 -70t22 -65t29 -53.5q-20 -10 -51 -16t-65 -6q-54 0 -113 19.5t-109 60.5q-45 38 -79 87t-56 105.5t-32.5 118t-10.5 126.5zM1054 500q0 -25 8.5 -48.5 t25 -43t42 -30t57.5 -10.5q33 0 58 11t42 30.5t25.5 44t8.5 48.5q0 26 -8.5 49.5t-25 42.5t-41.5 30t-56 11q-33 0 -58 -11.5t-43 -30t-26.5 -43t-8.5 -50.5z" />
<glyph unicode="&#xe59;" horiz-adv-x="1756" d="M177 522q0 111 29 210.5t86 174.5t143 119.5t198 44.5q93 0 160.5 -28t117 -71.5t83 -96.5t57.5 -104q-3 61 8.5 115.5t35 94.5t58.5 64q34 23 80 23q31 0 55.5 -12t43.5 -30.5t34 -40t29.5 -39.5t28 -30t29.5 -12q30 0 54.5 30.5t43.5 80.5t33.5 113t23.5 126.5 t14 122.5t5 102q0 17 -0.5 37t-2.5 34l111 -76q-2 -88 -12 -174t-27 -169q-16 -76 -41.5 -138.5t-58 -108t-68.5 -70.5q-35 -25 -72 -25q-27 0 -50 14t-42.5 33t-36 41t-31.5 41.5t-30.5 32.5t-32.5 13t-31 -11.5t-23 -31t-15 -43.5t-8.5 -49t-4 -47.5t-1.5 -37.5 q0 -72 14 -133q11 -49 27.5 -104t39 -110t51.5 -106t65 -92.5t79.5 -68.5t95.5 -33l-58 -96q-51 8 -94 30.5t-78 56.5t-63.5 76t-52 87.5t-43 92t-35.5 88.5q-17 47 -36.5 96.5t-46.5 100.5q-41 80 -79 144t-81 107.5t-97 66.5t-127 23q-86 0 -149 -40.5t-104 -104t-61 -144 t-20 -163.5q0 -86 20 -163.5t58 -134.5t93 -90t125 -33q23 0 49.5 3.5t54.5 14.5t55 31t50 51q-21 -11 -44 -15.5t-43 -4.5q-47 0 -89.5 14.5t-74.5 42.5t-50.5 69.5t-18.5 95.5q0 41 14.5 80.5t43.5 69.5t72 48.5t99 18.5q60 0 104 -20t73 -52.5t43 -75t14 -89.5 q0 -83 -24 -153t-70 -122.5t-111.5 -81.5t-151.5 -29q-88 0 -162 33t-129 99.5t-87.5 165t-32.5 231.5zM578 396q0 -26 8.5 -49.5t25 -42.5t41.5 -30t58 -11t58 11.5t42 31t25.5 43.5t8.5 49t-8.5 48.5t-25 43t-41.5 30.5t-56 11q-33 0 -58 -11.5t-43 -30.5t-26.5 -44 t-8.5 -49z" />
<glyph unicode="&#xe5a;" horiz-adv-x="1741" d="M136 915q0 70 24 122.5t61.5 86t83 50t88.5 16.5q16 0 32.5 -1.5t44.5 -5.5v-95q-11 2 -21.5 2.5t-20.5 0.5q-40 0 -72.5 -12t-56 -34.5t-37 -55t-13.5 -74.5q0 -37 11.5 -68.5t33 -54.5t52 -35.5t69.5 -12.5q77 0 143.5 54t118 150.5t87 228t54.5 287.5h325v-1464h-119 v1360h-116q-11 -84 -32 -170.5t-51.5 -167.5t-72 -152t-93 -123t-114 -83t-136.5 -31q-59 0 -109 20.5t-86.5 57.5t-57 89t-20.5 115zM1409 0v1464h120v-1464h-120z" />
<glyph unicode="&#xe5b;" horiz-adv-x="2551" d="M169 706q0 132 40 235t105.5 173.5t153 108.5t180.5 38q94 0 163.5 -33t115 -88t68 -128.5t22.5 -153.5q0 -83 -24.5 -150t-66 -116.5t-96.5 -76t-116 -26.5q-40 0 -75.5 14.5t-62.5 40t-42.5 61.5t-15.5 79q0 42 15 78.5t42 64t63 42.5t76 15q51 0 98 -21q46 -22 79 -74 q6 79 -5.5 145t-41.5 113.5t-78 73.5t-117 26q-70 0 -132 -31.5t-109.5 -88.5t-74.5 -140t-27 -185q0 -94 24.5 -181.5t73.5 -154.5t124 -106.5t178 -39.5q116 0 205 39.5t150.5 116t92.5 187.5t31 254q0 42 -2 84.5t-8 89.5q195 -46 266 -389q15 42 22 87t9 93.5t0 98.5 t-5 100q37 -13 73 -38t71 -63t66 -92q30 -56 58 -127q5 40 8.5 73.5t5 65t2.5 63.5t-1 72q40 -16 73 -41t60 -62.5t51 -87.5t44 -113q14 21 22.5 52.5t12 66t2 66.5t-5.5 56q34 -27 82 -62.5t101 -69.5t109 -59t103 -29q-56 -17 -102 -17q-120 0 -226 106q-7 -89 -33.5 -139 t-66.5 -76q-7 3 -20 21t-28 43.5t-32 56.5t-32 61t-26.5 55t-17.5 39q-5 -87 -13.5 -147t-21 -98.5t-29.5 -55t-39 -16.5q-2 0 -10 14t-18 38t-22 54t-24 61q-11 27 -20 48.5t-18 41t-20.5 38.5t-25.5 42q-23 -377 -139 -377q-3 0 -11.5 15t-20.5 40t-26.5 54t-28 58 t-25.5 52q-12 24 -18 35q0 -130 -38 -240t-112.5 -191t-183.5 -126t-250 -45q-130 0 -230 48.5t-168 131.5t-103.5 194.5t-35.5 234.5zM608 681q0 -46 30.5 -72.5t76.5 -26.5q59 0 86 30t27 76q0 21 -8 39.5t-23 33t-35 22.5t-46 8q-48 0 -78 -28.5t-30 -81.5z" />
<glyph unicode="&#xe64;" />
<glyph unicode="&#x2000;" horiz-adv-x="1513" />
<glyph unicode="&#x2001;" horiz-adv-x="3026" />
<glyph unicode="&#x2002;" horiz-adv-x="1513" />
<glyph unicode="&#x2003;" horiz-adv-x="3026" />
<glyph unicode="&#x2004;" horiz-adv-x="1008" />
<glyph unicode="&#x2005;" horiz-adv-x="756" />
<glyph unicode="&#x2006;" horiz-adv-x="504" />
<glyph unicode="&#x2007;" horiz-adv-x="504" />
<glyph unicode="&#x2008;" horiz-adv-x="378" />
<glyph unicode="&#x2009;" horiz-adv-x="605" />
<glyph unicode="&#x200a;" horiz-adv-x="168" />
<glyph unicode="&#x200b;" />
<glyph unicode="&#x2010;" horiz-adv-x="1368" d="M194 573v138h981v-138h-981z" />
<glyph unicode="&#x2011;" horiz-adv-x="1368" d="M194 573v138h981v-138h-981z" />
<glyph unicode="&#x2012;" horiz-adv-x="1368" d="M194 573v138h981v-138h-981z" />
<glyph unicode="&#x2013;" horiz-adv-x="1302" d="M0 582v132h1303v-132h-1303z" />
<glyph unicode="&#x2014;" horiz-adv-x="2342" d="M0 582v132h2342v-132h-2342z" />
<glyph unicode="&#x2018;" horiz-adv-x="662" d="M140 1433q0 37 6.5 75t19.5 74.5t31.5 70.5t42.5 62q40 45 89 74t104 43v-66q-40 -17 -68 -43.5t-48 -58t-34 -67t-23 -73.5q23 9 38 10.5t25 1.5q33 0 61 -12t48 -33t31 -49q12 -26 12 -58q0 -40 -13 -70t-36.5 -50.5t-54.5 -30.5t-68 -10q-46 0 -76.5 18.5t-50 47.5 t-28 67t-8.5 77z" />
<glyph unicode="&#x2019;" horiz-adv-x="614" d="M137 1656q0 40 13 70t36.5 50t54.5 31t68 11q46 0 76.5 -19t50 -49t28.5 -67t9 -76q0 -37 -7 -75.5t-20 -75t-31.5 -70t-42.5 -62.5q-40 -46 -88.5 -73.5t-104.5 -42.5v66q38 17 67 43t49 58t33.5 68t23.5 73q-23 -9 -38 -10q-17 -2 -25 -2q-33 0 -61 12.5t-48 33 t-31.5 47.5t-11.5 59z" />
<glyph unicode="&#x201c;" horiz-adv-x="1284" d="M212 1433q0 37 6.5 75t19 74.5t31 70.5t43.5 62q40 45 88.5 74t104.5 43v-66q-40 -17 -68 -43.5t-48 -58t-34.5 -67t-22.5 -73.5q23 9 38 10.5t25 1.5q33 0 60.5 -12t47.5 -33t32 -49q11 -26 11 -58q0 -40 -12.5 -70t-36.5 -50.5t-54.5 -30.5t-67.5 -10q-46 0 -77 18.5 t-50 47.5t-27.5 67t-8.5 77zM729 1433q0 37 6.5 75t20 74.5t32.5 70.5t43 62q40 45 88 74t105 43v-66q-40 -17 -68 -43.5t-48 -58t-34.5 -67t-22.5 -73.5q23 9 38 10.5t23 1.5q33 0 61.5 -12t48.5 -33t31 -49q11 -26 11 -58q0 -40 -13 -70t-36 -50.5t-54 -30.5t-67 -10 q-46 0 -77.5 18.5t-51 47.5t-28 67t-8.5 77z" />
<glyph unicode="&#x201d;" horiz-adv-x="1284" d="M220 1670q0 40 13 70t36.5 50t54.5 31t68 11q46 0 76.5 -18.5t50 -48.5t28.5 -67.5t9 -75.5t-7 -76.5t-20 -75t-31.5 -70t-42.5 -62.5q-40 -45 -89 -73t-104 -42v65q38 18 67 43.5t49 57.5t33.5 68t23.5 73q-23 -8 -38 -9.5t-24 -1.5q-33 0 -61.5 12t-48.5 32.5t-31.5 48 t-11.5 58.5zM739 1670q0 40 13 70t36.5 50t54.5 31t66 11q46 0 77.5 -18.5t51 -48.5t28 -67.5t8.5 -75.5t-6.5 -76.5t-19.5 -75t-31.5 -70t-42.5 -62.5q-40 -45 -88.5 -73t-104.5 -42v65q38 18 66 43.5t49 57.5t33.5 68t22.5 73q-22 -8 -37.5 -9.5t-23.5 -1.5q-33 0 -61 12 t-48.5 32.5t-31.5 48t-11 58.5z" />
<glyph unicode="&#x2022;" horiz-adv-x="1309" d="M277 700.5q0 74.5 24.5 146t74.5 127.5t124.5 90t173.5 34q98 0 172.5 -34t124.5 -90t74.5 -127.5t24.5 -146t-24.5 -146t-74.5 -128t-124.5 -90t-172.5 -33.5q-99 0 -173.5 33.5t-124.5 90t-74.5 128t-24.5 146z" />
<glyph unicode="&#x202f;" horiz-adv-x="605" />
<glyph unicode="&#x205f;" horiz-adv-x="756" />
<glyph unicode="&#x20ac;" horiz-adv-x="1352" d="M74 613l19 109h124v185h-143l19 108h136q24 146 90 260.5t162.5 193t216 119.5t252.5 41q91 0 165 -16q75 -17 141 -51q-3 -13 -5.5 -21t-3.5 -16t-3.5 -16.5t-5.5 -19.5l-11 -48q-63 43 -134 62.5t-148 19.5q-106 0 -201 -36.5t-170.5 -103t-127 -161t-73.5 -207.5h751 l-21 -108h-744v-185h702l-20 -109h-656q20 -118 68.5 -212.5t120 -161t161 -101.5t190.5 -35q89 0 159.5 15.5t129.5 54.5v-127q-61 -26 -127.5 -37.5t-141.5 -11.5q-148 0 -267 43t-207 124t-146.5 194.5t-88.5 254.5h-162z" />
<glyph unicode="&#x2122;" horiz-adv-x="2471" d="M292 1606v99h689v-99h-279v-765h-121v765h-289zM1155 841v864h202l232 -707l226 707h200v-864h-116v778h-9q-25 -97 -57.5 -194t-64.5 -194.5l-64 -195t-58 -194.5h-122l-243 778h-10v-778h-116z" />
<glyph unicode="&#x25cc;" horiz-adv-x="2452" d="M598 1051l163 80q-3 -23 -4.5 -44.5t-1.5 -44.5q0 -18 1.5 -36.5t4.5 -38.5zM772 601l63 171q26 -36 53 -63.5t60 -53.5zM798 1497l164 -58q-35 -23 -63 -50.5t-54 -60.5zM1143 1513l84 163l80 -160q-19 3 -38 3h-39q-23 0 -44 -1.5t-43 -4.5zM1150 571q20 -3 40.5 -5.5 t39.5 -2.5q20 0 37 2.5t33 5.5l-73 -153zM1500 1439l180 58l-63 -171q-24 32 -52 59.5t-65 53.5zM1504 648q32 23 57.5 48t48.5 55l45 -150zM1703 974q3 16 5 33t2 35q0 20 -2 41.5t-5 40.5l153 -82z" />
<glyph unicode="&#x25fc;" horiz-adv-x="1224" d="M0 0v1224h1224v-1224h-1224z" />
<glyph unicode="&#xf700;" horiz-adv-x="1355" d="M153 1167q0 69 36.5 125t96 96.5t136.5 61.5t160 21q54 0 106.5 -11t103 -25t103.5 -25t109 -11q11 0 27 2.5t35 9t38.5 16.5t38.5 23q8 -16 14 -26.5t11.5 -20.5t11 -19.5t13.5 -23.5q-38 -26 -84.5 -41t-91.5 -15q-73 0 -129 11.5t-106 24.5t-97 24.5t-102 11.5 q-67 0 -124 -15t-98 -39t-63.5 -55t-22.5 -63q0 -26 20 -31.5t51 -5.5q74 0 141.5 -1.5t130.5 -6t126 -12.5q63 -9 131 -24q72 -16 122 -39.5t80.5 -59.5t44 -83t13.5 -110v-637q0 -55 -18.5 -94.5t-50 -63t-73 -34.5t-86.5 -11q-53 0 -91 16.5t-64.5 44t-42 64t-21.5 76.5 l-49 306q-21 -18 -43.5 -29t-43 -17.5t-40 -9t-34.5 -2.5q-46 0 -87.5 17.5t-71.5 47.5t-46.5 70t-16.5 84q0 49 16.5 89.5t47 70.5t72.5 48q43 17 91 17q58 0 101.5 -17.5t75 -47.5t49.5 -73q19 -45 26 -100l67 -430q10 -66 38.5 -93t77.5 -27q54 0 76.5 25.5t22.5 77.5 v629q0 41 -9.5 72t-28.5 54.5t-50 40.5t-74 30q-67 20 -140 30t-147.5 14.5t-149.5 3.5t-148 -1q-56 0 -86.5 19.5t-30.5 75.5zM370 664q0 -23 7.5 -44t21.5 -37.5t37 -27t52 -10.5q30 0 51.5 10.5t36.5 27t22.5 37.5t7.5 44q0 22 -7.5 43t-22.5 37.5t-36.5 26.5t-51.5 10 t-52.5 -10t-36.5 -26.5t-21.5 -38t-7.5 -42.5z" />
<glyph unicode="&#xf701;" d="M-1507 1740v110q0 80 34 141.5t97 104.5t151 65.5t193 22.5q127 0 221.5 -29.5t158 -79.5t95 -118.5t31.5 -147.5v-69h-981zM-1389 1833h744v25q0 22 -8 48t-27 51.5t-48.5 49.5t-73 42.5t-101 29t-131.5 10.5q-73 0 -137.5 -13.5t-113 -40t-76.5 -67t-28 -95.5v-40z" />
<glyph unicode="&#xf702;" d="M-1507 1740v110q0 80 34 141.5t97 104.5t151 65.5t193 22.5q134 0 231 -32.5t160 -86.5v272h115v-597h-981zM-1389 1833h744v25q0 22 -8 48t-27 51.5t-48.5 49.5t-73 42.5t-101 29t-131.5 10.5q-73 0 -137.5 -13.5t-113 -40t-76.5 -67t-28 -95.5v-40z" />
<glyph unicode="&#xf703;" d="M-1507 1740v110q0 80 34 141.5t97 104.5t151 65.5t193 22.5q44 0 83.5 -4t74.5 -11q-1 6 -0.5 11t0.5 11q0 41 16 77.5t43 64.5t64 43t80 15q42 0 78.5 -15t64.5 -43t43.5 -64.5t15.5 -77.5q0 -62 -33 -112t-86 -73q32 -43 47 -93t15 -104v-69h-981zM-1389 1833h744v25 q0 22 -8 48t-27 51.5t-48.5 49.5t-73 42.5t-101 29t-131.5 10.5q-73 0 -137.5 -13.5t-113 -40t-76.5 -67t-28 -95.5v-40zM-775 2191q0 -20 7 -39.5t20 -33.5t33 -23.5t47 -9.5q26 0 45.5 9.5t32 23.5t20 32.5t7.5 38.5t-7.5 39t-20 34.5t-33 25t-47.5 9.5q-25 0 -44.5 -9.5 t-32.5 -24.5t-20 -33.5t-7 -38.5z" />
<glyph unicode="&#xf704;" d="M-1507 1740v110q0 80 34 141.5t97 104.5t151 65.5t193 22.5q62 0 120 -9v162h113v-186q48 -16 88 -38q39 -22 70 -48v272h115v-597h-981zM-1389 1833h744v25q0 22 -8 48t-27 51.5t-48.5 49.5t-73 42.5t-101 29t-131.5 10.5q-73 0 -137.5 -13.5t-113 -40t-76.5 -67 t-28 -95.5v-40z" />
<glyph unicode="&#xf705;" d="M-774 1750v487h119v-487h-119z" />
<glyph unicode="&#xf706;" d="M-1357 2099q-1 42 14 74.5t40 56.5t57.5 37.5t68.5 14.5q46 2 81.5 -13t62 -40t40 -61t13.5 -76q0 -83 -25.5 -144.5t-68.5 -102.5q3 0 21 0.5t45 3.5t60 7t67 12t67 18t59 24q43 25 71 56.5t45 68t25 75t9 76.5h103q0 -28 -3.5 -60t-13.5 -67.5t-27 -72.5 q-17 -35 -46 -73q-41 -55 -110.5 -87.5t-150.5 -49t-167 -20.5q-87 -4 -164 -4q-34 0 -58.5 2t-45.5 3v81q60 8 99 31.5t68 72.5q-27 -10 -43.5 -11t-25.5 -1q-34 0 -65 13t-53 36t-35 54q-14 32 -14 66zM-1266 2105q0 -17 6 -34.5t17.5 -30t29.5 -21t42 -8.5t42 8.5t30 21 t18 29t6 35.5q0 17 -6 34t-18 31t-30 21.5t-42 7.5t-42 -7.5t-29.5 -21.5t-17.5 -31t-6 -34z" />
<glyph unicode="&#xf707;" d="M-1397 2019q3 50 17 96.5t40.5 82.5t66.5 57.5t92 21.5q41 0 81 -16.5t78 -54.5q8 9 20 22t28 23.5t36 18t46 7.5q44 0 75 -21.5t50 -54.5t27.5 -71.5t8.5 -71.5q0 -55 -9 -104t-24 -96q48 18 75 55.5t41.5 85t18 102.5t3.5 110v58t2.5 51.5t9 42.5t19.5 32h112 q-20 -20 -28 -45.5t-11 -54.5q-3 -51 -3.5 -102t-3.5 -101.5t-13.5 -98.5t-35.5 -93q-17 -31 -41.5 -55.5t-52 -40t-56.5 -26.5q-30 -11 -56 -16q-18 -5 -38 -7t-39 -2h-22t-24 3q13 20 26.5 56t23.5 76.5t16 80t6 64.5q0 23 -2 49t-10 49t-22.5 37t-37.5 14q-27 0 -55 -22 t-60 -56q-16 14 -34 28t-37.5 26.5t-39.5 20t-40 7.5q-45 0 -75 -35.5t-36 -97.5q30 21 58 26.5t48 5.5q45 0 79 -15t56 -39.5t32.5 -55t10.5 -62.5q0 -37 -14 -67.5t-38.5 -53t-58 -36t-73.5 -13.5q-56 -1 -98 20.5t-68 58.5t-38 88t-9 109zM-1277 1916q0 -17 5.5 -34 t17 -29.5t29.5 -20t41 -7.5t40 7.5t28.5 20t17 29.5t5.5 34t-5.5 33.5t-17 29.5t-28.5 21t-40 8t-41 -8t-29.5 -21t-17 -29.5t-5.5 -33.5z" />
<glyph unicode="&#xf708;" d="M-1274 2031v94h307v279h120v-279h305v-94h-305v-281h-120v281h-307z" />
<glyph unicode="&#xf709;" d="M-1104 1979q0 69 29.5 114t76.5 73.5t107 43.5t123 22q49 6 96 12.5t94 20.5q32 9 56 25.5t41.5 35t29 37t16.5 31.5l70 -85q-14 -38 -49 -69.5t-78 -45.5q-27 -9 -59 -17.5t-63.5 -15.5t-61 -11.5t-49.5 -5.5q27 -16 43.5 -37.5t25 -44.5t11.5 -46t3 -43q0 -51 -17 -91 t-48.5 -68t-74.5 -43q-42 -15 -93 -15q-59 0 -102.5 20t-71.5 51t-41.5 71.5t-13.5 80.5zM-998 1973q0 -24 8.5 -47t24 -40.5t39.5 -29t55.5 -11.5t56.5 11.5t40.5 29t23.5 41.5t8 48t-8 47.5t-23.5 41.5t-39.5 29.5t-55 11.5t-56.5 -11.5t-41 -30t-24 -42t-8.5 -48.5z" />
<glyph unicode="&#xf70a;" d="M-340 1750v487h120v-487h-120z" />
<glyph unicode="&#xf70b;" d="M-947 2099q-1 42 14 74.5t40.5 56.5t58 37.5t68.5 14.5q45 2 81.5 -13t62.5 -40t39.5 -61t13.5 -76q0 -83 -25 -144.5t-68 -102.5q6 0 41.5 2t84 8.5t101.5 20t93 34.5q43 25 71.5 56.5t46 68t25 75t9.5 76.5h98q0 -28 -3.5 -60t-12.5 -67.5t-27 -72.5q-18 -35 -47 -73 q-41 -55 -109.5 -87.5t-150 -49t-167.5 -20.5t-163 -4q-35 0 -60 2t-45 3v81q60 8 99.5 31.5t68.5 72.5q-27 -10 -43.5 -11t-26.5 -1q-35 0 -65 13t-52 36t-36 54q-13 32 -15 66zM-855 2105q0 -17 6.5 -34.5t18 -30t29 -21t42.5 -8.5q24 0 42 8.5t30 21t17.5 29t5.5 35.5 q0 17 -5.5 34t-17.5 31t-30 21.5t-42 7.5q-25 0 -42.5 -7.5t-29 -21.5t-18 -31t-6.5 -34z" />
<glyph unicode="&#xf70c;" d="M-1093 2028q3 50 17.5 96.5t41 82t65.5 57t91 21.5q41 0 81 -16q42 -15 79 -54q9 9 20.5 21.5t27 23.5t36.5 19t46 8q45 0 75 -22.5t49 -55.5t28.5 -70.5t9.5 -70.5q0 -55 -10 -104t-24 -96q47 18 74 54.5t41.5 85t18 103t3.5 108.5v58t3 51.5t10 43t20 32.5h110 q-20 -20 -28 -46q-6 -26 -9 -54q-3 -52 -4 -102.5t-4.5 -101.5t-13.5 -99t-34 -92q-17 -31 -42 -55.5t-52.5 -40t-56 -26.5t-55.5 -17q-19 -4 -39 -6t-38 -2h-22.5t-23.5 3q13 20 26 55.5t23 77t16 81t6 64.5q0 23 -2 49t-10.5 48t-23 36.5t-36.5 14.5q-28 0 -55.5 -22.5 t-59.5 -56.5q-16 14 -33.5 29t-37 26.5t-40 19.5t-40.5 8q-46 0 -76 -35.5t-36 -97.5q30 20 58 26t49 6q46 0 79.5 -15.5t55 -39.5t32.5 -55t11 -62q0 -37 -14 -67t-39 -53t-58.5 -36t-73.5 -14q-56 -2 -97.5 19.5t-67 59t-37.5 88t-10 109.5zM-974 1925q0 -17 6.5 -33.5 t18 -29.5t28.5 -21t40 -8t41 8t29.5 21t17 29.5t5.5 33.5t-5.5 33.5t-17 29.5t-29.5 21.5t-41 8.5t-40 -8.5t-28.5 -21.5t-18 -29.5t-6.5 -33.5z" />
<glyph unicode="&#xf70d;" d="M-649 2031v94h309v279h120v-279h304v-94h-304v-281h-120v281h-309z" />
<glyph unicode="&#xf70e;" d="M-764 1971q0 68 29 113t76 73.5t108 43t123 21.5q49 6 96 13t95 22q31 8 54.5 24.5t41.5 35t28.5 37t16.5 31.5l70 -84q-14 -39 -48.5 -70.5t-77.5 -45.5q-27 -9 -59 -18t-64 -16t-61 -11.5t-49 -5.5q27 -16 43 -37t24.5 -43.5t12 -45.5t3.5 -43q0 -52 -17.5 -92 t-48.5 -68.5t-74 -43t-94 -14.5q-59 0 -102.5 19.5t-71.5 51t-41 71.5q-13 41 -13 82zM-658 1965q0 -24 8 -48t23.5 -41.5t39.5 -28.5t55.5 -11t56.5 11t41 29.5t24 42t8 47.5q0 25 -8 47.5t-23.5 41.5t-39 30t-55 11t-56.5 -11t-41.5 -30t-24.5 -42.5t-8 -47.5z" />
<glyph unicode="&#xf70f;" horiz-adv-x="2019" d="M199 1004v156q0 84 38.5 143.5t105 97.5t156 54t190.5 16q113 0 204.5 -16t156 -54t99.5 -99.5t35 -151.5v-883q0 -44 5.5 -75.5t22 -51.5t44.5 -30t71 -10h207q49 0 78.5 13t43.5 35t18.5 53t4.5 66v1197h120v-1201q0 -49 -8.5 -96t-31.5 -84t-63 -60t-104 -23h-315 q-66 0 -107.5 23t-65 60t-32 83.5t-8.5 92.5v881q0 61 -20 105.5t-65 73t-116.5 42t-173.5 13.5q-91 0 -161 -12t-116.5 -37t-70.5 -66t-24 -99v-72h225v-76q-26 -7 -63 -28.5t-71 -66.5q-19 -25 -29 -48.5t-14.5 -46.5t-5 -42t-0.5 -32v-346q29 20 62.5 28t58.5 8 q49 0 90.5 -16t73 -46t50 -70.5t18.5 -92.5q0 -49 -19 -90t-50.5 -72t-74 -48t-88.5 -17q-54 0 -98.5 20t-75.5 55t-48.5 81.5t-17.5 99.5v529q0 33 7.5 70t29.5 73q23 34 49.5 55t55.5 35h-183zM363 214.5q0 -30.5 13 -56.5t38.5 -43.5t65.5 -17.5q41 0 67 17.5t39 43.5 t13 56.5t-13 56.5t-39 43.5t-67 17.5q-40 0 -65.5 -17.5t-38.5 -43.5t-13 -56.5z" />
<glyph unicode="&#xf710;" d="M-1094 2065q0 44 16.5 80t44.5 61.5t65 40t80 14.5q41 0 77.5 -15t63 -41t42.5 -61.5t16 -75.5q0 -25 -7.5 -51t-22.5 -48.5t-38.5 -40.5t-56.5 -25q26 -8 54 -13t54.5 -8t51.5 -4.5t45 -1.5q84 0 169 22t158 66.5t123 111.5q50 66 62 158h117q-13 -89 -48 -157.5 t-84.5 -119.5t-111 -85t-127 -55.5t-133.5 -31t-131 -9.5q-87 0 -173 13.5t-154 47t-110 89.5t-42 139zM-989 2069.5q1 -26.5 11.5 -47.5t33.5 -36t56 -15q31 0 52 15t31.5 36t10.5 47.5t-10 48t-31.5 36.5t-52.5 15q-34 0 -56.5 -15t-34 -36.5t-10.5 -48z" />
<glyph unicode="&#xf711;" d="M-1081 2005q0 47 16.5 92t48 81t79.5 57.5t110.5 21.5t110.5 -21.5t79.5 -57.5t47.5 -81t16 -92t-16 -92t-47.5 -81t-79.5 -57.5t-110.5 -21.5t-110.5 21.5t-79.5 57.5t-48 81t-16.5 92zM-975 2003q0 -28 9 -55.5t28 -48t46.5 -33.5t65 -13t64.5 13t45.5 33.5t28 48 t9.5 55.5t-9.5 55t-28 48.5t-45.5 34.5t-64.5 13t-65 -13t-46.5 -34.5t-28 -48.5t-9 -55z" />
<glyph unicode="&#xf712;" d="M-1467 1749v207q0 87 15.5 158t55.5 124q42 54 94 85t113.5 46t131.5 18.5t149 3.5q101 0 172.5 14.5t118 35t74 42.5t40.5 41l75 -77q-58 -59 -127.5 -90.5t-141.5 -45.5t-143.5 -15.5t-136.5 -1.5q-87 0 -156.5 -11.5t-116.5 -44.5t-72 -93t-25 -159v-143l220 220 q23 -22 56 -61.5t76 -76.5t95 -64.5t111 -28.5q-32 17 -50.5 37.5t-28 42t-12 40.5t-2.5 30q0 40 15 74.5t41.5 60t62 39t75.5 13.5q46 0 84 -16.5t63.5 -43.5t40 -64t14.5 -77q0 -25 -6 -50.5t-17.5 -49t-27.5 -44.5q-15 -21 -38 -35q-43 -29 -90 -38t-96 -9 q-57 0 -111.5 12.5t-101.5 35.5t-87 54q-40 32 -70 69q-19 -17 -39.5 -38.5t-42 -43t-42.5 -43t-41 -39.5h-171zM-785 1977q0 -26 11.5 -49t33.5 -38t56 -15q35 0 58 15t33.5 38t10.5 49t-10.5 49t-33.5 38t-58 15q-34 0 -56 -15t-33.5 -38t-11.5 -49z" />
<glyph unicode="&#xf713;" d="M-641 2477v374h115v-374h-115z" />
<glyph unicode="&#xf714;" d="M-1045 2781q-2 42 13 75.5t40 57t58 36.5t69 14q46 2 82.5 -12.5t61.5 -40t38.5 -60.5t13.5 -75q0 -42 -8 -78.5t-21.5 -68.5t-32.5 -57q-18 -24 -38 -44q5 0 35 1t73 6.5t90.5 17.5t87.5 34q45 26 74 59.5t46 70.5t24 77t9 79h95q0 -29 -3.5 -61t-12 -67t-25.5 -71.5 t-46 -73.5q-41 -56 -103.5 -87.5t-136 -48.5t-153 -21.5t-156.5 -4.5q-34 0 -59 2t-45 4v67q60 9 103.5 36.5t73.5 82.5q-31 -13 -51 -14.5t-29 -1.5q-34 0 -65 13t-53 36t-35.5 53.5t-13.5 64.5zM-954 2787q0 -17 6 -34t18 -30t29 -21t42 -8q24 0 42 8t30 21t17.5 30 t5.5 34t-5.5 35t-17.5 31t-30 21.5t-42 8.5q-25 0 -42 -8.5t-29 -21.5t-18 -30t-6 -36z" />
<glyph unicode="&#xf715;" d="M-1068 2676q1 45 14.5 89t38.5 77.5t60.5 53.5t82.5 20q37 0 74 -16t72 -50q8 9 18 21t24.5 21t33.5 16.5t42 7.5q40 0 68 -20t46.5 -51t26.5 -66.5t8 -65.5q0 -50 -9.5 -96t-21.5 -90q42 17 67 51.5t37.5 78.5t16 95.5t3.5 101.5v53t3 48t8.5 40t18.5 31h99 q-18 -19 -25.5 -42.5t-9.5 -50.5q-3 -47 -3 -95t-2.5 -94.5t-12 -92.5t-30.5 -86q-16 -30 -38 -52t-47 -37t-51.5 -24.5t-51.5 -14.5q-37 -9 -71 -9q-12 0 -21 1t-21 2q13 17 24.5 51.5t21 72.5t15 75t5.5 60q0 21 -2 45.5t-9 45t-20 35t-35 14.5q-25 0 -51 -20t-54 -53 q-15 13 -31.5 26.5t-34 25t-35.5 18t-37 6.5q-43 0 -70 -33.5t-31 -91.5q27 18 52 23.5t44 5.5q41 0 72 -14.5t51 -36.5t30 -50.5t10 -57.5q0 -34 -13 -62.5t-35 -50t-53 -33.5t-68 -12q-52 -2 -89.5 17.5t-61.5 54.5t-34.5 82t-7.5 102zM-960 2580q0 -16 5 -31.5t16 -28 t26.5 -19.5t37.5 -7q21 0 37 7t26 19.5t15.5 28t5.5 31.5q0 15 -5.5 31t-15.5 28t-26 19.5t-37 7.5q-22 0 -37.5 -7.5t-26.5 -19.5t-16 -27t-5 -32z" />
<glyph unicode="&#xf716;" d="M-895 2683v97h254v199h116v-199h256v-97h-256v-201h-116v201h-254z" />
<glyph unicode="&#xf717;" d="M-935 2548q0 69 28.5 114t75.5 73.5t108 43.5t124 22q48 6 95.5 12.5t94.5 20.5q31 9 53.5 22.5t37.5 28.5t24 30t15 29q13 -15 21 -24.5t14.5 -17.5t13.5 -16.5t20 -22.5q-6 -16 -18 -31.5t-27 -29.5t-33 -24t-35 -15q-27 -9 -59.5 -17.5t-64.5 -15.5t-60.5 -11.5 t-48.5 -5.5q27 -16 42.5 -37.5t24.5 -44.5t12.5 -45.5t3.5 -42.5q0 -52 -18 -92t-49 -68t-73.5 -43t-94.5 -15q-58 0 -102 20t-71.5 51.5t-40.5 71.5t-13 80zM-834 2543q0 -26 8 -49.5t24.5 -42.5t41.5 -30t56 -11q33 0 59 11t42.5 30.5t25 43t8.5 49.5t-8 50t-24.5 43 t-41.5 30t-56 11q-35 0 -60 -11t-41.5 -30.5t-25 -44t-8.5 -49.5z" />
<glyph unicode="&#xf718;" d="M-692 -837q0 49 18 89t48.5 69.5t71.5 45t86 15.5q56 0 100.5 -17t76 -48.5t48 -75t16.5 -95.5v-399h-123v232q-26 -13 -54.5 -21t-55.5 -8q-51 0 -93 16.5t-72.5 44.5t-48.5 66.5t-18 85.5zM-588 -834q0 -23 8 -45t23 -39t38 -28t53 -11t53 11t38 28t22.5 39t7.5 45 t-7.5 44.5t-22.5 38.5t-38 28t-53 11t-53 -11t-38 -28t-23 -39t-8 -44z" />
<glyph unicode="&#xf719;" d="M-1088 -877q-2 52 14.5 92.5t46.5 70t72.5 46t90.5 16.5q55 0 98.5 -17t74 -48.5t47 -75.5t16.5 -96v-242h285v472h123v-572h-529v179q-27 -15 -53 -20q-25 -6 -59 -6q-43 0 -83.5 13.5t-73 39t-51.5 63t-19 85.5zM-984 -864q0 -23 7 -45t22 -39t37.5 -27t53.5 -10 q30 0 52.5 10t37.5 27t22.5 38.5t7.5 45.5q0 23 -7.5 44.5t-22.5 38.5t-37.5 28t-52.5 11t-53 -11t-38 -28t-22 -39t-7 -44z" />
<glyph unicode="&#xf71a;" d="M-418 -774q0 22 7.5 42.5t21.5 37t36.5 26.5t52.5 10q28 0 49.5 -10t36 -26.5t21.5 -37t7 -42.5q0 -21 -7 -41t-21.5 -36.5t-36 -26.5t-49.5 -10q-30 0 -52.5 10t-36.5 26.5t-21.5 36.5t-7.5 41z" />
<glyph unicode="&#xf71d;" horiz-adv-x="1703" d="M67 1234q0 52 18 94.5t50 73.5t75 48t92 17q54 0 97.5 -18t74.5 -50t48 -75.5t17 -95.5v-1048l346 758h105l370 -758v980q-32 -16 -60.5 -27.5t-57 -18.5t-60 -10.5t-68.5 -3.5q-43 0 -96.5 12t-101.5 34t-80 55q-32 32 -32 75q0 37 22.5 72t63.5 61.5t96 42t118 15.5 q67 0 119.5 -11.5t91 -28.5t65 -37.5t41.5 -39.5q42 23 68.5 56t42 70t22 75t6.5 71h129q0 -59 -13.5 -117t-39.5 -108.5t-64.5 -93.5t-87.5 -73v-1230h-160l-383 785l-366 -785h-156v1045q-10 -5 -24.5 -11t-30 -11t-32.5 -8t-32 -3q-50 0 -92 16.5t-73.5 46t-49.5 70 t-18 89.5zM183 1237.5q0 -30.5 13 -56.5t39.5 -43t66.5 -17t65.5 17t38.5 43t13 56.5t-13 56.5t-38.5 44t-65.5 18t-66.5 -18t-39.5 -44t-13 -56.5zM931 1283q0 -13 16.5 -26t42 -23t58.5 -17t66 -9q27 -1 56.5 2t58.5 10t56.5 20t48.5 30q-8 11 -27 27.5t-46.5 31t-67 23.5 t-88.5 9q-31 0 -62 -6.5t-56 -17t-40.5 -25t-15.5 -29.5z" />
<glyph d="M-1054 1893q0 59 31 107t78 83.5t103.5 60t110.5 35.5q-30 3 -60 14t-54 27.5t-39 40.5t-15 54q0 46 29 86.5t82 70t127 46.5q72 17 163 17q40 0 97.5 -5t140.5 -28v-88q-12 6 -34.5 12t-54 12t-69.5 9.5t-81 3.5q-46 0 -94 -8.5t-86.5 -25t-62.5 -40t-24 -55.5 q0 -27 21 -50.5t55 -40.5t75.5 -26t79.5 -9v-64q-83 -4 -155 -22.5t-126.5 -48t-86 -69.5t-31.5 -87q0 -32 13.5 -53.5t35 -34t49.5 -18.5t57 -6q27 0 53.5 6t46.5 18t32 28.5t12 36.5q0 30 -16 54l90 29q20 -24 26.5 -50.5t5.5 -46.5q-3 -35 -24.5 -63.5t-56.5 -50t-80 -33 t-96 -11.5t-98.5 8.5t-85.5 30t-61 56.5t-23 88z" />
<glyph horiz-adv-x="1242" d="M-1081 2005q0 47 16.5 92t48 81t79.5 57.5t110.5 21.5t110.5 -21.5t79.5 -57.5t47.5 -81t16 -92t-16 -92t-47.5 -81t-79.5 -57.5t-110.5 -21.5t-110.5 21.5t-79.5 57.5t-48 81t-16.5 92zM-975 2003q0 -28 9 -55.5t28 -48t46.5 -33.5t65 -13t64.5 13t45.5 33.5t28 48 t9.5 55.5t-9.5 55t-28 48.5t-45.5 34.5t-64.5 13t-65 -13t-46.5 -34.5t-28 -48.5t-9 -55zM103 1107v53q0 84 33 143.5t93 97.5t143.5 54t185.5 16q226 0 345 -79t119 -238v-1154h-118v1140q0 54 -16.5 96t-56.5 71.5t-106.5 45.5t-166.5 16q-95 0 -160 -14t-105.5 -41.5 t-58.5 -69t-18 -99.5v-38h-113z" />
<glyph horiz-adv-x="1242" d="M-1081 2005q0 47 16.5 92t48 81t79.5 57.5t110.5 21.5t110.5 -21.5t79.5 -57.5t47.5 -81t16 -92t-16 -92t-47.5 -81t-79.5 -57.5t-110.5 -21.5t-110.5 21.5t-79.5 57.5t-48 81t-16.5 92zM-975 2003q0 -28 9 -55.5t28 -48t46.5 -33.5t65 -13t64.5 13t45.5 33.5t28 48 t9.5 55.5t-9.5 55t-28 48.5t-45.5 34.5t-64.5 13t-65 -13t-46.5 -34.5t-28 -48.5t-9 -55zM103 1107v53q0 84 33 143.5t93 97.5t143.5 54t185.5 16q226 0 345 -79t119 -238v-1154h-118v1140q0 54 -16.5 96t-56.5 71.5t-106.5 45.5t-166.5 16q-95 0 -160 -14t-105.5 -41.5 t-58.5 -69t-18 -99.5v-38h-113z" />
<glyph d="M-335 2405v375h116v-375h-116z" />
<glyph d="M-778 2746q-1 41 14 74.5t40.5 57t58.5 37.5t67 14q46 1 82.5 -13.5t62 -40t39.5 -60.5t14 -75q0 -42 -8 -78.5t-22.5 -68.5t-32 -57t-39.5 -45q6 0 36.5 1.5t73.5 7t90 18t86 33.5q46 26 75 59.5t45.5 70.5t24 77.5t8.5 78.5h96q0 -28 -3 -60.5t-12 -67.5t-26.5 -71.5 t-45.5 -73.5q-42 -56 -104 -87.5t-135 -48.5t-153 -21.5t-157 -4.5q-35 0 -60 1.5t-45 4.5v67q60 9 103.5 37t73.5 82q-31 -13 -50.5 -15t-29.5 -2q-34 0 -64 13.5t-52 35.5t-35.5 53.5t-15.5 66.5zM-688 2751q0 -17 6.5 -34t18 -30t29.5 -21t42 -8t42 8t29.5 21t17 30 t5.5 34t-5.5 35t-17 31t-29.5 21.5t-42 8.5t-42 -8.5t-29.5 -21.5t-18 -30t-6.5 -36z" />
<glyph d="M-871 2648q2 46 15.5 90.5t37.5 77.5t59 53t84 20q37 0 74.5 -16t69.5 -50q9 8 20 20.5t25 22.5t32.5 17t41.5 7q40 0 68.5 -20.5t46.5 -51.5t26 -66.5t8 -65.5q0 -51 -9.5 -96.5t-22.5 -89.5q43 17 68 51t38 79.5t16.5 96t3.5 100.5v53t3 48t8.5 40t17.5 31h99 q-18 -19 -25.5 -42.5t-10.5 -50.5q-3 -47 -2.5 -95t-2 -94.5t-11.5 -91.5t-31 -87q-16 -30 -38 -51.5t-47.5 -37t-51.5 -24.5q-28 -10 -51 -15q-37 -9 -71 -9q-12 0 -21 0.5t-21 2.5q13 17 24.5 51.5t21 72t15 75t5.5 60.5q0 21 -2 45.5t-10 46t-23 35t-39 13.5 q-19 0 -44 -18q-25 -19 -54 -51q-14 13 -30.5 26.5t-33.5 23.5t-35.5 16t-37.5 6q-43 0 -70 -34t-31 -91q27 17 52.5 23t42.5 6q42 0 72.5 -13.5t50.5 -36.5t30 -51.5t10 -57.5q0 -34 -12 -62.5t-35 -49.5t-53.5 -33t-66.5 -14q-51 -1 -89 18.5t-61.5 54.5t-34.5 82t-8 101z M-764 2554q0 -16 6 -32.5t16 -28t26.5 -18.5t37.5 -7q22 0 37 7t25.5 18.5t15.5 27.5t5 33q0 16 -5 31t-15.5 27t-25.5 20t-37 8q-21 0 -37.5 -8t-26.5 -20t-16 -27t-6 -31z" />
<glyph d="M-599 2601v99h256v199h116v-199h254v-99h-254v-199h-116v199h-256z" />
<glyph d="M-692 2405v375h116v-375h-116z" />
<glyph d="M-1127 2757q-1 42 14 74.5t40.5 56t58.5 37.5t69 15q46 2 81.5 -13.5t61.5 -40.5t39.5 -60.5t13.5 -75.5q0 -42 -8 -78.5t-21.5 -67.5t-32 -57t-38.5 -45q5 0 35 1t73 6.5t90.5 18t87.5 33.5q45 26 74 59.5t45 71.5t24 77q5 40 8 78h96q0 -28 -3 -60.5t-12 -66.5 t-25.5 -71.5t-45.5 -73.5q-41 -55 -104 -86.5t-136 -49t-152.5 -21.5t-157.5 -4q-35 0 -59 1.5t-46 2.5v69q60 8 104.5 36t74.5 82q-31 -12 -51.5 -14.5t-30.5 -2.5q-34 0 -64 13t-52 36t-36 54q-15 32 -15 66zM-1035 2763q0 -17 5.5 -34.5t17 -30t29.5 -21.5t42 -9t42 9 t30 21.5t18 29t6 35.5q0 17 -6 34t-18 30.5t-30 21.5t-42 8t-42 -8t-29.5 -21.5t-17 -30.5t-5.5 -34z" />
<glyph d="M-1148 2658q1 46 14.5 89.5t38 77.5t60 53t83.5 19q37 0 74 -15.5t71 -48.5q9 8 19 19.5t24.5 21.5t33 17.5t42.5 7.5q40 0 68 -21t46 -51t25.5 -65.5t7.5 -67.5q0 -50 -9 -95.5t-21 -90.5q43 17 68 51.5t37.5 79.5t16 96t3.5 101v53.5t3 48t8.5 39t18.5 30.5h97 q-17 -18 -25 -41t-11 -52q-3 -47 -2 -95t-1 -94.5t-11.5 -91.5t-32.5 -86q-16 -30 -37 -51.5t-47 -36.5t-51.5 -25t-50.5 -16q-37 -8 -71 -7h-21t-22 3q13 17 24.5 51.5t21.5 72t15.5 74t5.5 61.5q0 21 -3 45.5t-10.5 45t-22.5 34t-40 13.5q-18 0 -42.5 -17.5t-53.5 -49.5 q-14 13 -31 26t-34 23.5t-36 16.5t-37 6q-43 0 -69.5 -34.5t-30.5 -91.5q27 17 52 22.5t43 5.5q42 0 72.5 -13.5t50.5 -35.5t29.5 -50.5t9.5 -57.5q0 -34 -12 -63.5t-34.5 -50t-53 -33t-67.5 -13.5q-52 -1 -90 19t-61.5 54t-34 82t-7.5 102zM-1041 2563q0 -16 5.5 -32 t15.5 -28t26.5 -19t38.5 -7q21 0 37 7t26 19t15.5 28t5.5 32q0 15 -5.5 30t-15.5 27.5t-26 20t-37 7.5q-22 0 -38.5 -7.5t-26.5 -20t-15.5 -27.5t-5.5 -30z" />
<glyph d="M-965 2601v99h256v199h114v-199h256v-99h-256v-199h-114v199h-256z" />
</font>
</defs>
</svg>
