<?xml version="1.0" standalone="no"?>
<!DOCTYPE svg PUBLIC "-//W3C//DTD SVG 1.1//EN" "http://www.w3.org/Graphics/SVG/1.1/DTD/svg11.dtd" >
<svg xmlns="http://www.w3.org/2000/svg" xmlns:xlink="http://www.w3.org/1999/xlink" version="1.1">
<metadata></metadata>
<defs>
<font id="mn_lannaregular" horiz-adv-x="0" >
<font-face units-per-em="2560" ascent="2048" descent="-512" />
<missing-glyph horiz-adv-x="878" />
<glyph unicode="&#x2b;&#x2d;" horiz-adv-x="1720" d="M297 0v173h1113v-173h-1113zM297 765v183h468v465h180v-465h465v-183h-465v-465h-180v465h-468z" />
<glyph unicode="&#x2e;&#x2e;&#x2e;" horiz-adv-x="2342" d="M270 0v249h242v-249h-242zM1051 0v249h242v-249h-242zM1830 0v249h242v-249h-242z" />
<glyph unicode="&#x3c;&#x3d;" horiz-adv-x="1537" d="M116 0v164h1280v-164h-1280zM116 904v138l1280 594v-183l-1053 -479l1053 -476v-186z" />
<glyph unicode="&#x3e;&#x3d;" horiz-adv-x="1537" d="M142 0v164h1279v-164h-1279zM142 312v186l1052 476l-1052 479v183l1279 -594v-138z" />
<glyph unicode="&#xe4f;&#x22;" horiz-adv-x="1657" d="M145 657.5q11 94.5 46.5 177.5t95 153t134 121t162.5 79t182 28q110 0 209.5 -39t180.5 -106t136.5 -158t78.5 -195q21 -100 10.5 -194t-46.5 -176t-95 -150t-133.5 -117.5t-161.5 -76.5t-179 -27q-114 0 -214.5 37t-179.5 101.5t-135 154t-79 195.5q-23 98 -12 192.5z M276 646.5q-7 -75.5 9 -156.5q17 -82 61 -153t107 -123t142 -82q77 -29 166 -29q76 0 146 23t129 63.5t105.5 96.5t75.5 121.5t36.5 140t-7.5 151.5q-18 85 -63 155.5t-108.5 122t-143 81.5t-166.5 30q-76 0 -146 -22t-129.5 -61.5t-104.5 -94.5t-73.5 -121.5t-35.5 -142z M410 521q-17 87 4 165.5t71 139.5t123 97.5t157 36.5q66 0 124.5 -21.5t105 -59.5t78 -91t44.5 -114q17 -88 -3.5 -168t-69.5 -141.5t-122 -98t-157 -36.5q-66 0 -124 22.5t-104.5 61t-78.5 92t-48 115.5zM410 1819q0 63 31 92.5t75 29.5q93 0 110 -78q3 -17 4 -32.5 t-1.5 -37t-9 -54t-15.5 -81.5t-24 -120.5t-35 -171.5h-50zM535 545q10 -40 30.5 -73t50.5 -57.5t68 -38t81 -13.5q60 0 108 25t78.5 66t43 91.5t0.5 102.5q-10 38 -31.5 72t-50.5 58t-67 38.5t-81 14.5q-56 0 -104 -23.5t-79 -63t-45 -91t-2 -108.5zM898 1819q0 63 31 92.5 t78 29.5q90 0 106 -78q2 -17 3 -32.5t-1 -37t-8 -54t-16 -81.5t-24.5 -120.5t-34.5 -171.5h-51z" />
<glyph unicode="&#xe0e;&#xe3a;" horiz-adv-x="1663" d="M99 240q1 55 22 99t55 75.5t79 49.5t94 18q34 0 58 -6q23 -4 31 -7v259q0 41 10.5 81t31 74t51 59.5t71.5 38.5h-204v162q0 88 42.5 151t115 102.5t167 57t196.5 17.5q116 0 214 -14t169.5 -50.5t111.5 -97.5t40 -152v-1512q0 -44 -9 -87.5t-30.5 -78t-54.5 -56 t-82 -21.5q-34 0 -74 15t-90 52q-67 49 -107 77.5t-64 46t-34 25t-17 13.5q0 -1 -7 -17t-21.5 -38t-35.5 -47t-47 -45q-110 -85 -225 -86q-51 -1 -102 13t-91.5 42t-66.5 70q-24 42 -27 97q-2 54 23 107t83 93q37 26 79 38t84.5 16t82.5 2t72 -7t54 -10.5t27 -8.5 q5 20 9.5 51.5t4.5 61.5h180q2 -17 1 -39.5t-4 -47.5t-6.5 -49t-8.5 -43q34 -20 77.5 -49.5t84.5 -55.5t71.5 -46.5t40.5 -24.5q20 -8 31.5 -2.5t17 17.5t8 29.5t2.5 32.5v1439q0 60 -22.5 100t-67.5 63t-111.5 32t-153.5 9q-84 0 -150.5 -9t-113 -30t-71 -54.5t-24.5 -81.5 v-50h216v-125q-7 0 -21.5 -3.5t-33 -13t-40 -26.5t-41.5 -43q-16 -20 -23.5 -40.5t-12 -40t-4.5 -35.5v-30v-483q0 -60 -20 -110t-55.5 -86t-85 -56t-106.5 -20q-55 0 -99 20t-76.5 55.5t-50 80.5t-17.5 93zM230 238q0 -31 13 -56.5t39.5 -43.5t66.5 -18t65.5 18t39.5 43.5 t14 56.5t-14 56.5t-40 43t-65 17.5q-40 0 -66.5 -17.5t-39.5 -43t-13 -56.5zM446 -366q0 -19 10 -34.5t26.5 -25.5t37.5 -15t42 -5q30 0 54.5 11.5t43.5 28.5t32.5 37t23 38t14 31t4.5 15q-38 12 -74.5 19t-70.5 7q-23 0 -48.5 -7t-47 -20.5t-35 -33.5t-12.5 -46z M1153 -806.5q0 38.5 17 71.5t50.5 56t83.5 23t83.5 -23t51 -56t17.5 -71.5t-17.5 -72t-51 -56t-83.5 -22.5t-83.5 22.5t-50.5 56t-17 72z" />
<glyph unicode="&#xe0f;&#xe3a;" horiz-adv-x="1663" d="M99 235q-2 57 19.5 102.5t57.5 78.5t82.5 50t97.5 14q32 -1 53 -5q21 -3 29 -6v259q0 41 10.5 81t31 74t51 59.5t71.5 38.5h-204v162q0 88 42.5 151t115 102.5t167 57t196.5 17.5q116 0 214 -14t169.5 -50.5t111.5 -97.5t40 -152v-1603q0 -27 -7.5 -54.5t-23.5 -49 t-39.5 -34t-53.5 -11.5q-32 2 -57 22.5t-46 49.5l-134 186l-165 -256q-9 24 -27.5 53t-41 58t-46.5 54t-44 40q-14 -55 -44 -96.5t-70 -69t-87 -39.5q-47 -13 -93 -13q-56 0 -104 14t-83.5 42.5t-55 69t-19.5 91.5q0 60 25 104.5t66.5 73t92.5 43t101 14.5q28 0 53 -3 t44.5 -6.5t31.5 -6.5t15 -3q3 11 5 29t3.5 38t2.5 40t-1 36h176q0 -1 1.5 -12.5t0 -35.5t-5 -60t-13.5 -89q11 -8 26 -19t32.5 -25t33 -29.5t25.5 -29.5l157 231l198 -238v1461q0 60 -22.5 100t-67.5 63t-111.5 32t-153.5 9q-84 0 -150.5 -9t-113 -30t-71 -54.5t-24.5 -81.5 v-50h216v-125q-7 0 -21.5 -3.5t-33 -13t-40 -26.5t-41.5 -43q-16 -20 -23.5 -40.5t-12 -40t-4.5 -35.5v-30v-483q0 -59 -19 -109t-54.5 -86.5t-84 -57t-105.5 -19.5q-54 2 -99 21t-78 52t-51.5 76.5t-18.5 94.5zM230 238q0 -31 13 -56.5t39.5 -43.5t66.5 -18t65.5 18 t39.5 43.5t14 56.5t-14 56.5t-40 43t-65 17.5q-40 0 -66.5 -17.5t-39.5 -43t-13 -56.5zM376 -386q2 -30 26 -52t67 -24q33 0 58.5 12t43.5 33t28 49t13 56q-47 20 -99 20q-21 0 -46 -5t-45 -17t-33.5 -29t-12.5 -43zM1153 -806.5q0 38.5 17 71.5t50.5 56t83.5 23t83.5 -23 t51 -56t17.5 -71.5t-17.5 -72t-51 -56t-83.5 -22.5t-83.5 22.5t-50.5 56t-17 72z" />
<glyph unicode="&#xe0e;&#xe38;" horiz-adv-x="1663" d="M99 240q1 55 22 99t55 75.5t79 49.5t94 18q34 0 58 -6q23 -4 31 -7v259q0 41 10.5 81t31 74t51 59.5t71.5 38.5h-204v162q0 88 42.5 151t115 102.5t167 57t196.5 17.5q116 0 214 -14t169.5 -50.5t111.5 -97.5t40 -152v-1512q0 -44 -9 -87.5t-30.5 -78t-54.5 -56 t-82 -21.5q-34 0 -74 15t-90 52q-67 49 -107 77.5t-64 46t-34 25t-17 13.5q0 -1 -7 -17t-21.5 -38t-35.5 -47t-47 -45q-110 -85 -225 -86q-51 -1 -102 13t-91.5 42t-66.5 70q-24 42 -27 97q-2 54 23 107t83 93q37 26 79 38t84.5 16t82.5 2t72 -7t54 -10.5t27 -8.5 q5 20 9.5 51.5t4.5 61.5h180q2 -17 1 -39.5t-4 -47.5t-6.5 -49t-8.5 -43q34 -20 77.5 -49.5t84.5 -55.5t71.5 -46.5t40.5 -24.5q20 -8 31.5 -2.5t17 17.5t8 29.5t2.5 32.5v1439q0 60 -22.5 100t-67.5 63t-111.5 32t-153.5 9q-84 0 -150.5 -9t-113 -30t-71 -54.5t-24.5 -81.5 v-50h216v-125q-7 0 -21.5 -3.5t-33 -13t-40 -26.5t-41.5 -43q-16 -20 -23.5 -40.5t-12 -40t-4.5 -35.5v-30v-483q0 -60 -20 -110t-55.5 -86t-85 -56t-106.5 -20q-55 0 -99 20t-76.5 55.5t-50 80.5t-17.5 93zM230 238q0 -31 13 -56.5t39.5 -43.5t66.5 -18t65.5 18t39.5 43.5 t14 56.5t-14 56.5t-40 43t-65 17.5q-40 0 -66.5 -17.5t-39.5 -43t-13 -56.5zM446 -366q0 -19 10 -34.5t26.5 -25.5t37.5 -15t42 -5q30 0 54.5 11.5t43.5 28.5t32.5 37t23 38t14 31t4.5 15q-38 12 -74.5 19t-70.5 7q-23 0 -48.5 -7t-47 -20.5t-35 -33.5t-12.5 -46zM954 -914 q-3 57 15 103.5t50.5 79.5t78.5 51.5t99 18.5q60 0 108 -18.5t81 -52t50.5 -80.5t17.5 -105v-376h-171v180q-7 -1 -27 -6.5t-52 -4.5q-49 0 -93 14.5t-77.5 41.5t-55 65.5t-24.5 88.5zM1091 -891.5q0 -27.5 12 -52t36 -40.5t59 -16q36 0 59.5 16t35 40.5t11.5 52t-11.5 51 t-35 40t-59.5 16.5q-35 0 -59 -16.5t-36 -40t-12 -51z" />
<glyph unicode="&#xe0f;&#xe38;" horiz-adv-x="1663" d="M99 235q-2 57 19.5 102.5t57.5 78.5t82.5 50t97.5 14q32 -1 53 -5q21 -3 29 -6v259q0 41 10.5 81t31 74t51 59.5t71.5 38.5h-204v162q0 88 42.5 151t115 102.5t167 57t196.5 17.5q116 0 214 -14t169.5 -50.5t111.5 -97.5t40 -152v-1603q0 -27 -7.5 -54.5t-23.5 -49 t-39.5 -34t-53.5 -11.5q-32 2 -57 22.5t-46 49.5l-134 186l-165 -256q-9 24 -27.5 53t-41 58t-46.5 54t-44 40q-13 -55 -42 -96t-71.5 -69t-91.5 -40.5t-101 -12.5q-53 0 -98 14t-79 42.5t-53.5 69t-19.5 91.5q1 60 26.5 104.5t66 73t91.5 43t101 14.5q28 0 53 -3t44.5 -6.5 t31.5 -6.5t15 -3q3 11 5 29t3.5 38t2.5 40t-1 36h176q0 -1 1.5 -11t0 -33t-6 -61t-12.5 -92q11 -8 26 -19t32.5 -25t33 -29.5t25.5 -29.5l157 231l198 -238v1461q0 60 -22.5 100t-67.5 63t-111.5 32t-153.5 9q-84 0 -150.5 -9t-113 -30t-71 -54.5t-24.5 -81.5v-50h216v-125 q-7 0 -21.5 -3.5t-33 -13t-40 -26.5t-41.5 -43q-16 -20 -23.5 -40.5t-12 -40t-4.5 -35.5v-30v-483q0 -59 -19 -109t-54.5 -86.5t-84 -57t-105.5 -19.5q-54 2 -99 21t-78 52t-51.5 76.5t-18.5 94.5zM230 238q0 -31 13 -56.5t39.5 -43.5t66.5 -18t65.5 18t39.5 43.5t14 56.5 t-14 56.5t-40 43t-65 17.5q-40 0 -66.5 -17.5t-39.5 -43t-13 -56.5zM376 -386q2 -30 26 -52t67 -24q33 0 58.5 12t43.5 33t28 49t13 56q-47 20 -99 20q-21 0 -46 -5t-45 -17t-33.5 -29t-12.5 -43zM954 -914q-3 57 15 103.5t50.5 79.5t78.5 51.5t99 18.5q60 0 108 -18.5 t81 -52t50.5 -80.5t17.5 -105v-376h-171v180q-7 -1 -27 -6.5t-52 -4.5q-49 0 -93 14.5t-77.5 41.5t-55 65.5t-24.5 88.5zM1091 -891.5q0 -27.5 12 -52t36 -40.5t59 -16q36 0 59.5 16t35 40.5t11.5 52t-11.5 51t-35 40t-59.5 16.5q-35 0 -59 -16.5t-36 -40t-12 -51z" />
<glyph unicode="&#xe0e;&#xe39;" horiz-adv-x="1663" d="M99 240q1 55 22 99t55 75.5t79 49.5t94 18q34 0 58 -6q23 -4 31 -7v259q0 41 10.5 81t31 74t51 59.5t71.5 38.5h-204v162q0 88 42.5 151t115 102.5t167 57t196.5 17.5q116 0 214 -14t169.5 -50.5t111.5 -97.5t40 -152v-1512q0 -44 -9 -87.5t-30.5 -78t-54.5 -56 t-82 -21.5q-34 0 -74 15t-90 52q-67 49 -107 77.5t-64 46t-34 25t-17 13.5q0 -1 -7 -17t-21.5 -38t-35.5 -47t-47 -45q-110 -85 -225 -86q-51 -1 -102 13t-91.5 42t-66.5 70q-24 42 -27 97q-2 54 23 107t83 93q37 26 79 38t84.5 16t82.5 2t72 -7t54 -10.5t27 -8.5 q5 20 9.5 51.5t4.5 61.5h180q2 -17 1 -39.5t-4 -47.5t-6.5 -49t-8.5 -43q34 -20 77.5 -49.5t84.5 -55.5t71.5 -46.5t40.5 -24.5q20 -8 31.5 -2.5t17 17.5t8 29.5t2.5 32.5v1439q0 60 -22.5 100t-67.5 63t-111.5 32t-153.5 9q-84 0 -150.5 -9t-113 -30t-71 -54.5t-24.5 -81.5 v-50h216v-125q-7 0 -21.5 -3.5t-33 -13t-40 -26.5t-41.5 -43q-16 -20 -23.5 -40.5t-12 -40t-4.5 -35.5v-30v-483q0 -60 -20 -110t-55.5 -86t-85 -56t-106.5 -20q-55 0 -99 20t-76.5 55.5t-50 80.5t-17.5 93zM230 238q0 -31 13 -56.5t39.5 -43.5t66.5 -18t65.5 18t39.5 43.5 t14 56.5t-14 56.5t-40 43t-65 17.5q-40 0 -66.5 -17.5t-39.5 -43t-13 -56.5zM446 -366q0 -19 10 -34.5t26.5 -25.5t37.5 -15t42 -5q30 0 54.5 11.5t43.5 28.5t32.5 37t23 38t14 31t4.5 15q-38 12 -74.5 19t-70.5 7q-23 0 -48.5 -7t-47 -20.5t-35 -33.5t-12.5 -46zM561 -914 q-2 55 17.5 100t52.5 76.5t78.5 49t97.5 17.5q58 0 105.5 -18.5t81 -52t51 -80.5t17.5 -105v-153h221v404h171v-554h-563v106q-7 -1 -25 -5.5t-48 -4.5q-52 0 -98 14.5t-81.5 42t-55.5 69.5q-22 41 -22 94zM699 -902q0 -28 12.5 -52t36 -40t59.5 -16q35 0 58.5 16t36 40 t12.5 52t-12.5 51.5t-36 40t-58.5 16.5q-36 0 -59.5 -16.5t-36 -40t-12.5 -51.5z" />
<glyph unicode="&#xe0f;&#xe39;" horiz-adv-x="1663" d="M99 235q-2 57 19.5 102.5t57.5 78.5t82.5 50t97.5 14q32 -1 53 -5q21 -3 29 -6v259q0 41 10.5 81t31 74t51 59.5t71.5 38.5h-204v162q0 88 42.5 151t115 102.5t167 57t196.5 17.5q116 0 214 -14t169.5 -50.5t111.5 -97.5t40 -152v-1603q0 -27 -7.5 -54.5t-23.5 -49 t-39.5 -34t-53.5 -11.5q-32 2 -57 22.5t-46 49.5l-134 186l-165 -256q-9 24 -27.5 53t-41 58t-46.5 54t-44 40q-13 -55 -42 -96t-71.5 -69t-91.5 -40.5t-101 -12.5q-53 0 -98 14t-79 42.5t-53.5 69t-19.5 91.5q1 60 26.5 104.5t66 73t91.5 43t101 14.5q28 0 53 -3t44.5 -6.5 t31.5 -6.5t15 -3q3 11 5 29t3.5 38t2.5 40t-1 36h176q0 -1 1.5 -11t0 -33t-6 -61t-12.5 -92q11 -8 26 -19t32.5 -25t33 -29.5t25.5 -29.5l157 231l198 -238v1461q0 60 -22.5 100t-67.5 63t-111.5 32t-153.5 9q-84 0 -150.5 -9t-113 -30t-71 -54.5t-24.5 -81.5v-50h216v-125 q-7 0 -21.5 -3.5t-33 -13t-40 -26.5t-41.5 -43q-16 -20 -23.5 -40.5t-12 -40t-4.5 -35.5v-30v-483q0 -59 -19 -109t-54.5 -86.5t-84 -57t-105.5 -19.5q-54 2 -99 21t-78 52t-51.5 76.5t-18.5 94.5zM230 238q0 -31 13 -56.5t39.5 -43.5t66.5 -18t65.5 18t39.5 43.5t14 56.5 t-14 56.5t-40 43t-65 17.5q-40 0 -66.5 -17.5t-39.5 -43t-13 -56.5zM376 -386q2 -30 26 -52t67 -24q33 0 58.5 12t43.5 33t28 49t13 56q-47 20 -99 20q-21 0 -46 -5t-45 -17t-33.5 -29t-12.5 -43zM561 -914q-2 55 17.5 100t52.5 76.5t78.5 49t97.5 17.5q58 0 105.5 -18.5 t81 -52t51 -80.5t17.5 -105v-153h221v404h171v-554h-563v106q-7 -1 -25 -5.5t-48 -4.5q-52 0 -98 14.5t-81.5 42t-55.5 69.5q-22 41 -22 94zM699 -902q0 -28 12.5 -52t36 -40t59.5 -16q35 0 58.5 16t36 40t12.5 52t-12.5 51.5t-36 40t-58.5 16.5q-36 0 -59.5 -16.5t-36 -40 t-12.5 -51.5z" />
<glyph unicode="&#xd;" horiz-adv-x="1035" />
<glyph unicode=" "  horiz-adv-x="878" />
<glyph unicode="&#x09;" horiz-adv-x="878" />
<glyph unicode="&#xa0;" horiz-adv-x="878" />
<glyph unicode="!" horiz-adv-x="650" d="M183 131.5q0 37.5 15.5 69.5t47 53.5t80.5 21.5q47 0 79.5 -21.5t48 -53.5t15.5 -69.5t-15.5 -69.5t-48 -53.5t-79.5 -21.5q-49 0 -80.5 21.5t-47 53.5t-15.5 69.5zM213 1128v557h227v-557l-60 -729h-113z" />
<glyph unicode="&#x22;" horiz-adv-x="790" d="M180 1084v601h150v-601h-150zM498 1084v601h150v-601h-150z" />
<glyph unicode="#" horiz-adv-x="1302" d="M66 490l21 151h243l43 333h-241l22 146h241l65 490h158l-69 -490h293l66 490h157l-65 -490h241l-23 -146h-240l-48 -333h241l-21 -151h-242l-66 -490h-154l67 490h-295l-65 -490h-158l70 490h-241zM483 641h292l46 333h-290z" />
<glyph unicode="$" horiz-adv-x="1562" d="M132 513h181q0 -68 18 -122.5t48 -98t71.5 -76t88 -54.5t96 -35.5t97.5 -17.5v636l-183 46q-23 4 -59.5 14t-76.5 28.5t-80 46t-73 66t-53 89t-20 118.5q0 91 32.5 179.5t99 159.5t168.5 114.5t245 43.5v110h106v-113q116 -10 201 -40.5t144.5 -74t96 -96t57 -106.5 t27.5 -105t7 -91h-183q0 82 -28.5 145.5t-78 107.5t-113 69t-130.5 33v-594l200 -48q73 -18 141.5 -48t121 -78.5t84.5 -118t32 -163.5q0 -89 -24 -160.5t-66.5 -125t-99 -91.5t-121 -61.5t-133.5 -35t-135 -11.5v-123h-106v120q-97 0 -168 15t-123 38t-86.5 50.5 t-58.5 51.5q-51 46 -83.5 93.5t-50.5 98.5t-24 104.5t-6 110.5zM373 1184q0 -51 21.5 -90t53.5 -66t69.5 -44t70.5 -24l144 -36v569q-40 0 -81.5 -7t-81.5 -23t-75.5 -39.5t-62 -58t-42.5 -79.5t-16 -102zM838 109q41 3 86.5 12t89.5 25t84 41t70 57.5t48 75t18 95.5 q0 63 -18.5 108t-61.5 78.5t-113.5 60t-175.5 52.5l-27 7v-612z" />
<glyph unicode="%" horiz-adv-x="2046" d="M187 1281q0 42 5 88.5t16.5 91.5t34 87t56 73.5t80.5 50t111 18.5q63 0 110.5 -18.5t81.5 -50t56.5 -73.5t36 -87t18.5 -91.5t5 -88.5q0 -41 -5 -87.5t-18.5 -91.5t-36 -86t-56.5 -72.5t-81.5 -50t-110.5 -18.5q-64 0 -111 18.5t-80.5 50t-56 72.5t-34 86t-16.5 92t-5 87 zM315 -7l1241 1746h197l-1244 -1746h-194zM352 1286q0 -62 8 -112t24 -86t42.5 -55t64 -19t62.5 19t40.5 54.5t22 86t6.5 114.5q0 62 -6.5 110.5t-22 83.5t-40.5 53t-63 18q-74 0 -106 -69.5t-32 -197.5zM1263 395q0 41 5 87.5t17 92.5t34 87.5t55 73.5t81 50.5t112 18.5 q63 0 110.5 -18.5t81.5 -50.5t56.5 -73.5t35 -87.5t18.5 -92.5t6 -87.5q0 -42 -6 -87.5t-18.5 -90.5t-35 -86.5t-56.5 -72.5t-81.5 -50t-110.5 -19q-64 0 -112 19t-81 50t-55 72.5t-34 86.5t-17 91.5t-5 86.5zM1427 399q0 -62 8 -112t24.5 -85.5t43 -55t64.5 -19.5 q37 0 62.5 19.5t41 54.5t22 86.5t6.5 115.5q0 62 -6.5 110.5t-22 83t-41 52t-62.5 17.5q-74 0 -107 -69t-33 -198z" />
<glyph unicode="&#x26;" horiz-adv-x="1562" d="M103 406q0 84 15.5 153t58.5 129.5t117.5 119.5t188.5 124q-45 56 -79 101t-56 88t-33.5 86.5t-11.5 99.5q0 73 26.5 141t78 120t125 84.5t169.5 32.5q99 0 170.5 -31.5t117 -81.5t68 -111.5t22.5 -124.5q0 -60 -15 -110.5t-40 -92.5t-57.5 -77.5t-68 -65.5t-71.5 -54.5 t-67 -46.5l323 -380q13 29 23.5 59t20.5 63t20 72t20 88h179q-9 -86 -41 -196t-98 -232l305 -363h-239l-164 204q-43 -48 -93 -91t-112.5 -76.5t-139 -53.5t-167.5 -20q-106 0 -183.5 24t-132.5 63t-90 86.5t-55 98t-27 95.5t-7 76zM293 420q0 -54 16.5 -95.5t42.5 -73.5 t59.5 -55t67.5 -37.5t68 -20.5t61 -6q58 1 114.5 16.5t107.5 42t95.5 63t76.5 79.5l-404 484q-67 -45 -123.5 -81.5t-97 -79.5t-62.5 -98.5t-22 -137.5zM480 1318q0 -41 19 -85.5t46.5 -85t58.5 -75t55 -58.5q33 21 75 51t80 67.5t64 82.5t26 99q1 55 -16 94t-46.5 65 t-66.5 38t-76 12q-66 0 -108 -22t-67 -53t-34.5 -66.5t-9.5 -63.5z" />
<glyph unicode="'" horiz-adv-x="519" d="M180 1084v601h150v-601h-150z" />
<glyph unicode="(" horiz-adv-x="779" d="M183 652q0 156 26.5 297t77 275t123.5 266t168 267h121q-51 -92 -94.5 -175t-79.5 -166t-62.5 -169t-45 -184.5t-28 -213t-9.5 -251.5q0 -145 24 -274.5t66 -254.5t100.5 -250.5t128.5 -261.5h-114q-92 136 -166 262.5t-126.5 256.5t-81 271t-28.5 305z" />
<glyph unicode=")" horiz-adv-x="779" d="M92 -443q70 136 128.5 261.5t100.5 250.5t66 255q23 131 23 274q0 138 -9 252t-27.5 212.5t-46 184.5t-62.5 169t-79 166t-94 175h121q94 -135 168 -267t124 -266t76.5 -275.5t26.5 -296.5q0 -164 -28.5 -305t-81 -271t-127 -256.5t-167.5 -262.5h-112z" />
<glyph unicode="*" horiz-adv-x="910" d="M92 1384l48 129l245 -89v261h138v-261l249 89l45 -129l-254 -81l158 -212l-113 -81l-153 220l-152 -220l-116 81l158 212z" />
<glyph unicode="+" horiz-adv-x="1458" d="M96 556v172h549v546h172v-546h546v-172h-546v-545h-172v545h-549z" />
<glyph unicode="," horiz-adv-x="650" d="M184 117q0 27 9.5 53.5t27.5 48t44.5 34.5t60.5 13q49 0 79 -20.5t48.5 -51.5t25 -68t6.5 -69q0 -74 -20 -138.5t-49 -115.5q-34 -60 -89 -98q-52 -38 -130 -45v104q3 0 16.5 3t31.5 11.5t37.5 25t32.5 43.5q17 37 24.5 75.5t9.5 68.5q-32 -7 -62.5 -2t-52.5 21t-36 43 t-14 64z" />
<glyph unicode="-" horiz-adv-x="1368" d="M176 556v172h1017v-172h-1017z" />
<glyph unicode="." horiz-adv-x="650" d="M183 131.5q0 37.5 15.5 69.5t47 53.5t80.5 21.5q47 0 79.5 -21.5t48 -53.5t15.5 -69.5t-15.5 -69.5t-48 -53.5t-79.5 -21.5q-49 0 -80.5 21.5t-47 53.5t-15.5 69.5z" />
<glyph unicode="/" horiz-adv-x="1053" d="M-40 -7l1240 1746h199l-1245 -1746h-194z" />
<glyph unicode="0" horiz-adv-x="1338" d="M106 821q0 84 8.5 180t32 189.5t64.5 180t103 152.5t150 104.5t205 38.5t205 -38.5t151 -104.5t104 -152.5t64 -180t31.5 -189.5t8.5 -180q0 -85 -8.5 -181.5t-31.5 -190t-64 -180t-104 -152.5t-151 -104.5t-205 -38.5t-205 38.5t-150 104.5t-103 152.5t-64.5 180 t-32 189.5t-8.5 182zM299 821q0 -156 20.5 -281t65 -213t114.5 -136t167 -48q98 0 168.5 48.5t117 137.5t68.5 214.5t22 280t-21 279.5t-67 212.5t-117 134.5t-168 47t-167 -48t-115 -135.5t-66.5 -213t-21.5 -279.5z" />
<glyph unicode="1" horiz-adv-x="1338" d="M317 1213v120q68 4 121.5 9.5t97 18t77 33t61.5 54t49 82.5t38 117h131v-1647h-190v1213h-385z" />
<glyph unicode="2" horiz-adv-x="1338" d="M99 0q3 127 33 227t80.5 179t119 139.5t151.5 109.5l219 124q69 36 129.5 71t106.5 78.5t70 101t20 138.5q0 32 -8 67.5t-26.5 70t-45.5 66t-66.5 55t-90 38t-115.5 14.5q-77 0 -132.5 -23t-93.5 -59.5t-62.5 -83t-37.5 -93.5t-17 -89.5t-4 -72.5h-190q0 130 30 225.5 t78 160.5t109.5 105t125 62t123.5 29t104 7q106 0 199.5 -34t163 -97t110.5 -154.5t41 -204.5q0 -110 -35 -188t-97.5 -138t-144.5 -108.5t-177 -100.5l-170 -94q-91 -52 -145.5 -105.5t-84 -102t-41 -88.5t-13.5 -63h908v-169h-1124z" />
<glyph unicode="3" horiz-adv-x="1338" d="M99 523h193q0 -40 6.5 -83.5t21.5 -85.5t42 -80.5t67.5 -67.5t98 -46t134.5 -17q84 0 153 23t118 66t76 105q26 61 26 138q0 70 -20 120.5t-52 86.5t-74 57.5t-86.5 33.5t-88 17t-78.5 5q-23 0 -46.5 -2t-47.5 -2v154q30 -3 54.5 -3.5t55.5 -0.5q57 0 116.5 15t107.5 47 t78 86q30 52 30 129q0 38 -14.5 86.5t-51.5 91.5t-99.5 72t-156.5 29q-73 0 -126.5 -19t-90.5 -50.5t-61 -71t-36.5 -81t-17 -80t-4.5 -67.5h-187q-5 59 4 122t34 122t65.5 113t100.5 94t141.5 63.5t184.5 23.5q120 0 215.5 -33t160.5 -90t99 -136.5t34 -173.5 q0 -80 -20 -139.5t-51.5 -100.5t-69 -65t-70.5 -36v-7q60 -20 110 -51.5t86.5 -77t57 -108.5t20.5 -146q0 -67 -14 -132t-45 -124t-78 -109t-113.5 -85.5t-151 -56.5t-191.5 -21q-92 0 -166 20t-137 53q-70 37 -115.5 89.5t-72.5 114.5t-40.5 131.5t-17.5 140.5z" />
<glyph unicode="4" horiz-adv-x="1338" d="M77 399v202l754 1046h171v-1076h242v-172h-242v-399h-197v399h-728zM242 571h563v787z" />
<glyph unicode="5" horiz-adv-x="1338" d="M92 425h193q5 -72 36 -127t79 -92t113 -56.5t142 -17.5q93 1 163 34t117 86.5t71.5 125t25.5 150.5q0 94 -32.5 167.5t-87.5 123t-126.5 73t-149.5 20.5q-48 -1 -95.5 -14t-89.5 -35t-76.5 -55t-57.5 -76l-163 10l123 884h854v-169h-711l-73 -487q26 20 59 38.5t73 31 t89.5 20t107.5 10.5q100 0 198 -34t175.5 -99.5t125.5 -163t48 -224.5q0 -46 -9 -107.5t-31.5 -125.5t-65 -126.5t-109 -111t-160 -78.5t-222.5 -30q-54 0 -112 8.5t-113.5 28.5t-107 53.5t-93 83.5t-70 119.5t-38.5 161.5z" />
<glyph unicode="6" horiz-adv-x="1338" d="M106 784q0 91 10.5 191t37 197.5t71.5 185.5t113 154.5t161.5 105.5t216.5 39q48 0 100.5 -9t105 -30t100.5 -54.5t85 -83t61.5 -114.5t28.5 -149h-176q-10 54 -33 104t-61 88t-92 60t-126 22q-84 0 -147.5 -33.5t-111 -89t-78 -126.5t-48.5 -142.5t-24.5 -139.5 t-3.5 -118l3 -4q20 39 53 80.5t83.5 75t120 55t160.5 21.5q50 0 109 -11.5t116 -37.5t110 -66t93.5 -98t64.5 -135t24 -177q0 -125 -35 -229t-104 -180t-171 -119t-235 -43q-56 0 -117.5 11.5t-121.5 38.5t-116 73t-98 116q-38 59 -63 124.5t-40 137t-20.5 149.5t-5.5 160z M326 528q0 -70 22 -140.5t67 -124.5t115.5 -88.5t164.5 -34.5q80 0 145 29.5t110 81.5t68.5 125.5t23.5 161.5q0 40 -7 83t-24 84t-44 78.5t-67.5 64.5t-94 43.5t-121.5 16.5q-92 0 -160 -30.5t-111.5 -83t-65 -122t-21.5 -144.5z" />
<glyph unicode="7" horiz-adv-x="1338" d="M106 1436v191h1138v-180q-41 -44 -100 -117t-125.5 -172.5t-136.5 -224t-132 -271t-113.5 -312.5t-80.5 -350h-204q14 114 47.5 239.5t82.5 253.5t110.5 256.5t130.5 250t145.5 232.5t155.5 204h-918z" />
<glyph unicode="8" horiz-adv-x="1338" d="M102 490q0 75 23.5 140.5t62 116.5t87 85.5t98.5 49.5q-97 45 -151.5 128t-57.5 203q0 43 9.5 93t32.5 100t60 95.5t93.5 81.5t133 57.5t176.5 21.5q92 0 165 -19t128.5 -50t95 -74t64.5 -90.5t37 -97.5t12 -98q0 -88 -22 -146.5t-54.5 -97.5t-67.5 -63.5t-60 -43.5 q77 -33 124 -81.5t74.5 -102t36.5 -108t9 -100.5q0 -100 -38 -194t-108.5 -167t-173 -117.5t-232.5 -44.5q-37 0 -84 3.5t-99.5 16t-104.5 37.5t-101 68q-63 58 -97 116t-50 110t-18.5 96.5t-2.5 75.5zM307 488q0 -53 14.5 -111t53 -107.5t108 -81t179.5 -31.5q40 0 81.5 8 t81 24.5t74.5 43t61.5 62t41.5 82t15 103.5q0 83 -30 140.5t-80 94t-114.5 53t-133.5 16.5q-87 0 -152 -26t-108 -67.5t-66 -94.5t-26 -108zM369 1230q0 -62 24.5 -109t65 -79t94 -48t113.5 -16q65 0 120 19.5t95 53.5t63 80.5t23 101.5q0 40 -14.5 83.5t-49.5 80 t-94.5 59.5t-149.5 23q-83 0 -138.5 -24.5t-89 -61.5t-48 -81t-14.5 -82z" />
<glyph unicode="9" horiz-adv-x="1338" d="M99 1085q0 125 35 229.5t103.5 181t171 119t235.5 42.5q55 0 116.5 -11.5t121.5 -38.5t116 -73q57 -45 100 -115q37 -59 61.5 -125t39.5 -138t21.5 -149t6.5 -160q0 -92 -11.5 -192t-38 -197.5t-71.5 -184.5t-113 -153.5t-161.5 -106t-216.5 -39.5q-47 0 -100 9.5 t-104.5 30t-99.5 54.5t-86 82.5t-61.5 114t-29.5 148.5h178q8 -55 31 -104.5t61 -87t92.5 -59.5t125.5 -22q84 0 148.5 33.5t111 89.5t77.5 126t49.5 142t24 140t2.5 118l-3 3q-20 -38 -52.5 -79t-83.5 -74.5t-120.5 -55t-160.5 -21.5q-52 0 -109 11.5t-115 36.5t-111 65.5 t-93.5 98.5t-64 135.5t-23.5 175.5zM289 1093q0 -41 7 -83.5t24 -83.5t44.5 -78t68 -65t93.5 -43.5t122 -15.5q91 0 159 30.5t112.5 82.5t66 121t21.5 146q0 70 -23 139.5t-68 124.5t-115 89t-165 34q-80 0 -145 -29t-109.5 -82t-68.5 -126t-24 -161z" />
<glyph unicode=":" horiz-adv-x="650" d="M183 131.5q0 37.5 15.5 69.5t47 53.5t80.5 21.5q47 0 79.5 -21.5t48 -53.5t15.5 -69.5t-15.5 -69.5t-48 -53.5t-79.5 -21.5q-49 0 -80.5 21.5t-47 53.5t-15.5 69.5zM183 1069.5q0 37.5 15.5 69.5t47 53.5t80.5 21.5q47 0 79.5 -21.5t48 -53.5t15.5 -69.5t-15.5 -69.5 t-48 -53.5t-79.5 -21.5q-49 0 -80.5 21.5t-47 53.5t-15.5 69.5z" />
<glyph unicode=";" horiz-adv-x="650" d="M183 1069.5q0 37.5 15.5 69.5t47 53.5t80.5 21.5q47 0 79.5 -21.5t48 -53.5t15.5 -69.5t-15.5 -69.5t-48 -53.5t-79.5 -21.5q-49 0 -80.5 21.5t-47 53.5t-15.5 69.5zM184 117q0 27 9.5 53.5t27.5 48t44.5 34.5t60.5 13q49 0 79 -20.5t48.5 -51.5t25 -68t6.5 -69 q0 -74 -20 -138.5t-49 -115.5q-34 -60 -89 -98q-52 -38 -130 -45v104q3 0 16.5 3t31.5 11.5t37.5 25t32.5 43.5q17 37 24.5 75.5t9.5 68.5q-32 -7 -62.5 -2t-52.5 21t-36 43t-14 64z" />
<glyph unicode="&#x3c;" horiz-adv-x="1368" d="M113 512v162l1143 486v-186l-916 -381l916 -380v-187z" />
<glyph unicode="=" horiz-adv-x="1401" d="M106 323v169h1187v-169h-1187zM106 795v172h1187v-172h-1187z" />
<glyph unicode="&#x3e;" horiz-adv-x="1387" d="M120 26v187l912 380l-912 381v186l1143 -486v-162z" />
<glyph unicode="?" horiz-adv-x="1302" d="M132 1157q-5 59 2.5 118t28.5 115.5t58.5 109.5t93.5 96q70 56 157 81.5t183 25.5q99 0 189 -30t158.5 -87t109.5 -143t41 -197q0 -59 -14 -105.5t-42.5 -90t-72 -89.5t-102.5 -104q-37 -38 -66 -69.5t-52 -60t-39 -59t-25 -68t-14 -82.5t-5 -105h-190q0 66 5 117 t15.5 93t27.5 78.5t41.5 71t56.5 70.5t74 79q56 59 95 100.5t62.5 78.5t35 75t11.5 87q0 38 -14 87t-50 91t-94.5 71.5t-148.5 29.5q-77 0 -132.5 -21.5t-92.5 -56.5t-59 -78t-34.5 -86t-15 -81t-2.5 -62h-180zM486 122q0 38 16 70.5t48 53.5t81 21q47 0 79 -21t48 -53.5 t16 -70.5t-16 -70t-47.5 -53.5t-79.5 -21.5q-49 0 -81 21.5t-48 53.5t-16 70z" />
<glyph unicode="@" horiz-adv-x="2378" d="M345 845q0 122 31.5 235t89 211t138.5 178.5t179 138t210 88.5q114 31 234 31q109 0 211 -24t191.5 -70.5t164.5 -111.5t128.5 -146.5t83 -176.5t29.5 -203q0 -106 -26.5 -197.5t-72.5 -166.5t-103.5 -133t-120 -98.5t-124 -61.5t-112.5 -21q-63 0 -105.5 36.5 t-44.5 111.5h-8q-25 -27 -56 -53.5t-66.5 -47.5t-74 -34t-81.5 -13q-78 0 -141.5 30.5t-110 81t-71.5 118.5t-25 145q0 80 17 159t50 151t81 133.5t108 107t132.5 71.5t152.5 26q84 0 154 -42t117 -141l49 146h157q-23 -83 -46.5 -167t-47 -164t-44 -151.5t-37 -129.5 t-26 -97t-9.5 -56q0 -66 49 -66q40 0 80.5 20t77 55.5t69 83.5t56 104.5t37 118t13.5 124.5q0 92 -24.5 172.5t-68 148t-104.5 119.5t-133.5 88.5t-155.5 55.5q-80 20 -169 20q-156 0 -287 -59.5t-225 -161t-146.5 -238t-52.5 -292.5q0 -103 26 -197.5t72.5 -175t112 -146.5 t147 -112.5t175.5 -71.5t197 -25q82 0 162.5 18.5t153 53t136.5 83t115 108.5h158q-56 -94 -135.5 -170t-174.5 -129.5t-201.5 -82t-218.5 -28.5q-126 0 -241 31.5t-215 88.5t-181 138t-138.5 179.5t-89 213t-31.5 238.5zM885 714q0 -50 14.5 -91.5t41 -71.5t62.5 -47 q38 -16 81 -16q49 0 93 21.5t82.5 57.5t70 84t54.5 99.5t35 105t12 99.5q0 43 -15.5 81.5t-41.5 68.5t-60 48t-73 18q-53 0 -99.5 -20t-85.5 -55t-70.5 -80.5t-54 -96.5t-34.5 -104t-12 -101z" />
<glyph unicode="A" horiz-adv-x="1605" d="M51 0l648 1685h205l648 -1685h-205l-183 490h-725l-180 -490h-208zM502 655h599l-299 809z" />
<glyph unicode="B" horiz-adv-x="1598" d="M190 0v1685h742q116 0 205 -35.5t149 -94t91.5 -135.5t31.5 -160q0 -43 -10 -92.5t-36 -97.5t-71.5 -91.5t-117.5 -74.5q27 -7 60 -20t68 -34.5t68 -52.5t58.5 -73.5t41.5 -98.5t16 -127q0 -102 -36.5 -192t-109 -158t-179 -108t-246.5 -40h-725zM380 169h561 q89 0 155.5 25.5t110.5 70t66.5 106t22.5 131.5q0 89 -34.5 145.5t-91 88.5t-126.5 43.5t-140 11.5h-524v-622zM380 960h484q83 0 147 15t110 48.5t69.5 87t23.5 130.5q0 59 -18.5 109t-60 87t-108 58t-160.5 21h-487v-556z" />
<glyph unicode="C" horiz-adv-x="1726" d="M120 849q0 195 54.5 356.5t156 277.5t247.5 180t329 64q107 0 197.5 -21t165 -60t132 -91t98 -113t65 -128.5t31.5 -138.5h-192q-17 79 -48.5 138.5t-72 103t-89.5 72t-99 46.5t-100 25t-96 7q-123 0 -228.5 -45.5t-185 -134.5t-125 -222t-45.5 -308q0 -159 30.5 -294 t100.5 -235.5t183 -157.5t278 -57q40 0 87.5 8.5t98.5 30.5t100.5 58.5t93.5 93t79 134t58 180.5h190q-18 -119 -54.5 -210t-84.5 -159.5t-104.5 -117t-114.5 -81.5t-115.5 -51.5t-108.5 -28t-90.5 -12t-63.5 -2.5q-96 0 -188 21.5t-176.5 67t-156.5 116.5t-124.5 170 t-82.5 228t-30 290z" />
<glyph unicode="D" horiz-adv-x="1726" d="M209 0v1685h680q165 0 296 -61t222.5 -169t140 -259t48.5 -332q0 -95 -14.5 -195t-47 -196.5t-87 -182.5t-133 -150t-186 -102t-246.5 -38h-673zM399 169h516q112 0 201 45.5t153 133t98 214t34 287.5t-35 284.5t-100 208t-158 128t-209 43.5h-500v-1344z" />
<glyph unicode="E" horiz-adv-x="1598" d="M219 0v1685h1227v-172h-1037v-565h960v-169h-960v-610h1051v-169h-1241z" />
<glyph unicode="F" horiz-adv-x="1467" d="M219 0v1685h1165v-172h-975v-565h861v-169h-861v-779h-190z" />
<glyph unicode="G" horiz-adv-x="1859" d="M132 857q0 103 20.5 206.5t63.5 200.5t108 181.5t153.5 147.5t200 98.5t249 35.5t255.5 -32.5t211 -101.5t156.5 -172.5t90.5 -245.5h-194q-29 121 -87.5 198t-132 120.5t-157.5 60t-165 16.5q-120 -4 -225.5 -52t-184 -139t-123.5 -224.5t-45 -309.5q0 -89 10 -178 t35 -170.5t68 -151.5t108.5 -121t156.5 -81t211 -30q35 0 78.5 3.5t91.5 15t99.5 34.5t99.5 61q59 46 97.5 103.5t60.5 122.5t30.5 135.5t8.5 143.5h-277h-274v169h739v-901h-136l-52 223q-42 -61 -103 -110.5t-136 -84t-158.5 -53.5t-172.5 -19q-107 0 -188.5 17.5 t-144 45.5t-107.5 63q-45 32 -76 64q-95 91 -148 188.5t-78.5 191t-31 178.5t-5.5 153z" />
<glyph unicode="H" horiz-adv-x="1726" d="M197 0v1685h191v-715h952v715h190v-1685h-190v802h-952v-802h-191z" />
<glyph unicode="I" horiz-adv-x="657" d="M230 0v1685h190v-1685h-190z" />
<glyph unicode="J" horiz-adv-x="1206" d="M59 373v169h190v-143q0 -77 20 -129.5t57 -84.5t87 -46.5t110 -14.5q82 0 140 23t95 61.5t55 91.5t18 113v1272h190v-1230q0 -99 -20 -175t-55 -131t-82 -92t-101 -60t-112.5 -32t-115.5 -9q-97 0 -170 20.5t-127 53.5t-88 77.5t-55 90t-28.5 91.5t-7.5 84z" />
<glyph unicode="K" horiz-adv-x="1598" d="M197 0v1685h191v-880l908 880h256l-721 -683l739 -1002h-239l-625 882l-318 -293v-589h-191z" />
<glyph unicode="L" horiz-adv-x="1338" d="M197 0v1685h191v-1516h889v-169h-1080z" />
<glyph unicode="M" horiz-adv-x="1986" d="M190 0v1685h303l502 -1462l502 1462h303v-1685h-190v1153q0 41 6 126t6 204h-12l-516 -1483h-197l-517 1483h-11q0 -119 5.5 -203.5t5.5 -126.5v-1153h-190z" />
<glyph unicode="N" horiz-adv-x="1726" d="M197 0v1685h261l882 -1476v1476h190v-1685h-253l-889 1479v-1479h-191z" />
<glyph unicode="O" horiz-adv-x="1859" d="M109 842q0 69 9 142.5t30.5 148.5t54.5 149t80 139.5t110 121.5t142.5 97.5t178 64t216.5 22.5q155 0 276.5 -40t213.5 -108.5t154 -158t101.5 -188t56.5 -199.5t17 -191t-17 -191.5t-56.5 -199.5t-101.5 -188t-154 -158t-213.5 -108.5t-276.5 -40.5q-158 0 -280 40.5 t-213 108.5t-154 158t-101.5 188t-55.5 199.5t-17 191.5zM303 842q0 -156 42.5 -289t123 -230t196.5 -151.5t265 -54.5q148 0 264 54.5t196.5 151.5t123 229.5t42.5 289.5q0 156 -42.5 289t-123 229.5t-196.5 151.5t-264 55q-149 0 -265 -55t-196.5 -151.5t-123 -229.5 t-42.5 -289z" />
<glyph unicode="P" horiz-adv-x="1598" d="M219 0v1685h741q115 0 210.5 -36.5t163 -100.5t104 -151t36.5 -189q0 -58 -12.5 -117t-40 -113t-69.5 -100.5t-99.5 -81.5t-131.5 -55t-166 -20h-546v-721h-190zM409 889h528q77 0 139 17.5t107 55.5t69.5 98.5t24.5 147.5q0 80 -25.5 138t-71 95.5t-106 54.5t-130.5 17 h-535v-624z" />
<glyph unicode="Q" horiz-adv-x="1859" d="M109 842q0 69 9 142.5t30.5 148.5t54.5 149t80 139.5t110 121.5t142.5 97.5t178 64t216.5 22.5q155 0 276.5 -40t213.5 -108.5t154 -158t101.5 -188t56.5 -199.5t17 -191q0 -77 -12 -166.5t-41.5 -178t-77.5 -170.5t-118 -144l235 -180l-118 -120l-244 187 q-85 -53 -194 -83.5t-249 -30.5q-158 0 -280 40.5t-213 108.5t-154 158t-101.5 188t-55.5 199.5t-17 191.5zM303 842q0 -156 42.5 -289t123 -230t196.5 -151.5t265 -54.5q80 0 152.5 17.5t140.5 52.5l-223 176l117 125l244 -195q98 97 146.5 236t48.5 313q0 156 -42.5 289 t-123 229.5t-196.5 151.5t-264 55q-149 0 -265 -55t-196.5 -151.5t-123 -229.5t-42.5 -289z" />
<glyph unicode="R" horiz-adv-x="1726" d="M223 0v1685h779q69 0 137 -9.5t128.5 -30.5t113.5 -55t92 -84t61 -119t22 -157q0 -92 -21.5 -158.5t-55 -113t-76 -78t-82.5 -52.5q37 -16 71.5 -34t61.5 -51.5t45 -87.5t23 -143l14 -308q0 -34 3.5 -59t13 -43.5t26.5 -34.5t43 -30v-37h-242q-7 26 -13 61.5t-10 77 t-7.5 85t-6 82.5t-3 69t-0.5 45q0 35 -3.5 71.5t-14.5 72t-31 68t-53.5 56t-82 37.5t-115.5 14h-627v-739h-190zM413 908h604q63 0 125 11.5t110.5 43.5t78.5 91.5t30 153.5q0 65 -15 113t-38.5 81.5t-55.5 55t-65.5 33.5t-67.5 17t-62 5h-644v-605z" />
<glyph unicode="S" horiz-adv-x="1598" d="M132 542h190q0 -76 20.5 -136t57 -105.5t84.5 -78.5t102.5 -54.5t111.5 -33t111 -14.5q14 -1 29 -1q30 0 64 4q52 6 104 21t101.5 39t88 60.5t62 85.5t23.5 111q0 66 -20.5 112.5t-66.5 82.5t-119 63t-178 53l-331 80q-25 6 -61.5 17t-79 30.5t-84.5 47.5t-75.5 67 t-54.5 93t-21 122q0 99 33.5 192.5t104.5 166t180.5 116.5t260.5 44q146 0 250.5 -27.5t176.5 -72.5t116 -102.5t67.5 -117.5t32.5 -117t12 -100h-191q-5 97 -44 168t-100.5 116t-138.5 67q-75 22 -152 22q-42 0 -89.5 -6.5t-93.5 -20.5t-87.5 -38.5t-73.5 -60.5 t-50.5 -84.5t-18.5 -111.5q0 -56 20.5 -95t53.5 -66.5t72.5 -45t74.5 -27.5l469 -118q78 -17 149.5 -49t125.5 -83t87.5 -123t33.5 -169v-19q-1 -88 -25 -158q-28 -76 -77 -132.5t-115 -94.5t-140 -61.5t-151.5 -33.5t-150.5 -10q-117 0 -199 15.5t-141 39t-99 52.5t-70 54 q-54 49 -87 99t-52.5 102t-25.5 108.5t-6 115.5z" />
<glyph unicode="T" horiz-adv-x="1467" d="M51 1513v172h1366v-172h-586v-1513h-195v1513h-585z" />
<glyph unicode="U" horiz-adv-x="1726" d="M204 561v1124h191v-1096q0 -91 20 -161t54 -121.5t80 -87t97.5 -56.5t105 -30t105 -9t107.5 9t109.5 29.5t100.5 55t83.5 86t57.5 121.5t21 160v1100h191v-1096q0 -127 -41.5 -242t-125 -201.5t-211.5 -138t-300 -51.5q-113 0 -205 22.5t-163.5 64t-123.5 98t-86 123 t-50.5 142.5t-16.5 155z" />
<glyph unicode="V" horiz-adv-x="1598" d="M66 1685h219l513 -1505l516 1505h219l-622 -1685h-223z" />
<glyph unicode="W" horiz-adv-x="2246" d="M54 1685h209l366 -1491l385 1491h230l373 -1491l368 1491h207l-453 -1685h-239l-373 1453l-381 -1453h-237z" />
<glyph unicode="X" horiz-adv-x="1598" d="M73 -3l615 864l-589 824h237l469 -667l469 667h240l-587 -824l617 -861h-241l-498 711l-498 -711z" />
<glyph unicode="Y" horiz-adv-x="1598" d="M51 1685h241l506 -800l505 800h241l-652 -979v-706h-190v706z" />
<glyph unicode="Z" horiz-adv-x="1467" d="M73 0v176l1098 1340h-1022v169h1245v-176l-1098 -1340h1098v-169h-1321z" />
<glyph unicode="[" horiz-adv-x="650" d="M146 -458v2148h439v-163h-252v-1820h252v-165h-439z" />
<glyph unicode="\" horiz-adv-x="650" d="M-40 1727h153l579 -1771h-157z" />
<glyph unicode="]" horiz-adv-x="650" d="M66 -293h251v1820h-251v163h439v-2148h-439v165z" />
<glyph unicode="^" horiz-adv-x="1098" d="M-33 618l498 992h168l498 -992h-179l-403 806l-399 -806h-183z" />
<glyph unicode="_" horiz-adv-x="1302" d="M0 -127h1303v-166h-1303v166z" />
<glyph unicode="`" horiz-adv-x="779" d="M37 1725h238l175 -329h-138z" />
<glyph unicode="a" horiz-adv-x="1355" d="M112 317q0 28 2.5 63.5t16 74t38 78t66 73t103 59.5t147.5 37l362 49q17 1 38.5 7t38.5 20t28.5 41.5t11.5 72.5q0 49 -17 92t-56 74.5t-99 49.5q-57 17 -138 16h-9q-67 -3 -115 -17t-82.5 -36.5t-54.5 -49.5t-32 -56.5t-15.5 -58t-3.5 -54.5h-169q1 106 37 183.5 t102 127.5t158.5 73.5t207.5 23.5q26 0 68.5 -3.5t92.5 -16t103 -34.5t94.5 -60.5t68.5 -93.5q28 -57 28 -134v-716q0 -73 70 -75q13 0 29 5t36 8v-140q-25 -9 -51.5 -16t-61.5 -7q-67 0 -102.5 17t-52 43.5t-21 60.5t-8.5 71q-31 -33 -76.5 -69.5t-104 -66.5t-132 -50 t-163.5 -20q-85 0 -155 25t-120.5 71.5t-79 112t-28.5 145.5zM287 345v-6q1 -46 15 -85q16 -42 48 -74q34 -32 82 -48q46 -16 107 -15h7q83 0 157.5 26t131.5 69.5t91 99.5t34 116v227q-46 -36 -377 -80q-50 -7 -100.5 -18t-93 -34.5t-71 -66.5t-31.5 -111z" />
<glyph unicode="b" horiz-adv-x="1355" d="M180 0v1685h183v-615h7q33 48 76 84t91 59.5t101 35t107 11.5q120 0 215 -48t161 -131t101 -194.5t35 -238.5q0 -75 -10.5 -154t-35 -155t-64.5 -144.5t-100 -120t-141 -81.5q-82 -30 -188 -30q-77 0 -136.5 20t-104 49t-73.5 62q-29 35 -44 60h-7v-154h-173zM356 571 q3 -81 22.5 -145t48 -113.5t65.5 -85t75.5 -58.5t77.5 -34t70 -11h16q77 0 139 34q68 38 116 106t74 160q25 91 25 194q0 40 -5.5 91.5t-20 105.5t-40 106.5t-66.5 92.5t-99 64q-52 21 -121 20h-18q-73 -3 -128.5 -28t-96.5 -65.5t-68 -93t-43 -110t-20 -117.5 q-3 -48 -3 -91v-22z" />
<glyph unicode="c" horiz-adv-x="1224" d="M97 578q0 141 33.5 265.5t104.5 217t178.5 146t254.5 53.5q120 0 208 -41t146 -105t87 -143.5t34 -158.5h-179q-10 66 -33.5 121t-61.5 95t-92.5 62.5t-124.5 22.5q-66 0 -119 -21t-94 -56.5t-71.5 -84.5t-49.5 -104.5t-28.5 -115t-9.5 -116.5q0 -56 6 -115.5t21.5 -115 t43 -105.5t68 -87.5t97.5 -59.5t133 -22q56 0 109.5 21t97 61.5t72.5 101.5t36 138h179q-5 -49 -17.5 -102.5t-38.5 -105.5t-64 -99.5t-91.5 -83t-125 -57t-161.5 -21.5q-129 0 -230.5 46.5t-172 128.5t-108 194.5t-37.5 245.5z" />
<glyph unicode="d" horiz-adv-x="1355" d="M112 648q2 126 37 236.5t101 193.5t161 132.5t220 49.5h11q62 0 114 -10q56 -12 99.5 -36t78.5 -61q34 -35 63 -83h7v615h183v-1685h-172v154h-7q-16 -25 -44.5 -59t-72.5 -63t-104.5 -49t-137.5 -20q-104 0 -185 30.5t-142.5 82t-103 120.5t-66.5 144.5t-34 155.5 q-7 60 -7 115q0 19 1 37zM283 618q-1 -15 -1 -30q0 -88 21 -165q24 -90 73.5 -156.5t119.5 -104.5t156 -38q32 0 70.5 10t77.5 33t76.5 58t66 85t48 114.5t21.5 146.5q1 18 1 38q1 37 -3 75q-6 60 -21 118.5t-43 112t-68 94.5t-96 65t-130 24q-77 0 -134.5 -24t-98 -64 t-67 -91.5t-42 -105.5t-21.5 -104.5t-6 -90.5z" />
<glyph unicode="e" horiz-adv-x="1355" d="M122 575q0 143 36 267.5t110 217.5t183.5 146.5t256.5 53.5q131 0 234 -53t172 -148q68 -95 100 -226q24 -99 24 -214q0 -36 -2 -74h-934q3 -103 30.5 -182.5t77.5 -134.5t123 -83t165 -28q53 0 98 13.5t83 36t66.5 50.5t47.5 57t29 57.5t10 53.5h188q-3 -20 -15 -61.5 t-38 -90.5t-66.5 -99t-99.5 -87q-20 -16 -48.5 -30t-68 -26t-92.5 -20t-124 -8q-126 0 -227 45.5t-171.5 127t-109 194t-38.5 245.5zM305 702h743q-3 49 -13 98t-28.5 95t-47 86t-69.5 68.5t-93 46t-119 17.5q-75 0 -142.5 -33t-119 -89.5t-81.5 -131t-30 -157.5z" />
<glyph unicode="f" horiz-adv-x="704" d="M60 1080v147h180v209q0 70 22.5 119t65 82t103.5 47.5t138 14.5q12 0 19.5 0.5t15.5 1.5t16.5 1.5t21.5 0.5v-147q-20 3 -42 3.5t-42 0.5q-146 0 -146 -143v-190h230v-147h-230v-1080h-172v1080h-180z" />
<glyph unicode="g" horiz-adv-x="1355" d="M122 648q0 123 33.5 233.5t98.5 194.5t160 134t217 50q93 0 158.5 -21t110.5 -51.5t73 -67t45 -69.5h4v176h173v-1124q0 -44 -2.5 -107t-18.5 -131.5t-50 -137.5t-97 -122.5t-160.5 -87t-238.5 -33.5q-36 0 -82.5 4t-96.5 18t-98.5 39t-89.5 65.5t-68 99t-34 140.5h183 q0 -49 15.5 -84t42 -59t59.5 -39t66.5 -24t63.5 -11.5t53 -2.5q89 0 151 23.5t103 62.5t64.5 88t35 99.5t14 99t2.5 84.5v67h-4v-11q-20 -31 -54.5 -63.5t-78.5 -58t-98.5 -42t-115.5 -16.5q-105 0 -185.5 28t-140.5 76.5t-100.5 113.5t-66 141.5t-36 159.5t-10.5 166z M305 615q0 -104 22.5 -196t67.5 -159.5t112.5 -107t156.5 -39.5q35 0 76 9.5t80 30.5t75.5 55.5t65.5 84t45 115t16 148.5q0 52 -4 112.5t-17 122t-36.5 119t-63.5 101.5t-97.5 71.5t-135.5 27.5q-80 0 -139 -26t-99.5 -67.5t-65 -94.5t-38 -108t-17.5 -107t-4 -92z" />
<glyph unicode="h" horiz-adv-x="1355" d="M180 0v1685h173v-624h3q22 29 57 63t83.5 63.5t110.5 49.5t141 23q44 0 93.5 -7t97.5 -25t90.5 -49t75.5 -78t51.5 -113t18.5 -153v-835h-171v835q0 62 -16 112.5t-50 87t-87 56.5t-125 22q-41 0 -84.5 -11.5t-85 -34t-79 -57.5t-65 -80.5t-43.5 -103t-16 -127.5v-699 h-173z" />
<glyph unicode="i" horiz-adv-x="543" d="M184 0v1227h172v-1227h-172zM184 1450v235h172v-235h-172z" />
<glyph unicode="j" horiz-adv-x="547" d="M-10 -337h40q46 0 76.5 4t47 19t23.5 44.5t7 82.5v1414h172v-1407q0 -27 1 -60t-5 -67.5t-21 -67.5t-46.5 -58.5t-82 -41t-128.5 -15.5q-18 0 -39.5 -1t-44.5 8v146zM184 1450v235h172v-235h-172z" />
<glyph unicode="k" horiz-adv-x="1224" d="M184 0v1685h172v-1054l586 596h231l-469 -458l499 -769h-206l-409 655l-232 -227v-428h-172z" />
<glyph unicode="l" horiz-adv-x="543" d="M184 0v1685h172v-1685h-172z" />
<glyph unicode="m" horiz-adv-x="2003" d="M180 0v1227h173v-176h3q13 24 46 60t81.5 69t115.5 56.5t149 23.5q59 0 104 -11.5t77 -30t53.5 -41t35 -43.5t21.5 -41q8 -21 13 -32q32 46 70.5 82.5t86.5 62t107.5 40t130.5 14.5q33 0 74 -7t83.5 -25t82.5 -47.5t71 -75t50.5 -109.5t19.5 -147v-849h-172v791 q0 61 -11 120t-39.5 103t-78.5 70q-42 22 -103 22q-12 0 -24 -1q-72 -4 -129.5 -37t-97.5 -84.5t-62.5 -113t-22.5 -124.5v-746h-171v849q0 26 -4 54t-11.5 55t-22 53.5t-38 47.5t-56.5 34.5t-77 16.5q-37 3 -78 -6t-79.5 -30.5t-74.5 -57t-63.5 -85.5t-43.5 -116t-16 -149 v-666h-173z" />
<glyph unicode="n" horiz-adv-x="1355" d="M180 0v1227h173v-176h3q13 24 48 60t86 69t116 56.5t142 23.5q47 0 98 -7t98 -26t89 -49.5t74.5 -78t50 -113t17.5 -151.5v-835h-171v791q0 322 -296 322q-30 0 -67.5 -7.5t-76.5 -24.5t-77 -47t-68 -75t-48 -109t-18 -148v-702h-173z" />
<glyph unicode="o" horiz-adv-x="1355" d="M107 615q0 77 15 155t46 150t78 133.5t110.5 107.5t143 72.5t178.5 26.5q98 0 179 -26.5t144 -72.5t109.5 -107.5t76.5 -133.5t44.5 -150t14.5 -155q0 -80 -14.5 -158.5t-44.5 -151t-76.5 -134t-109.5 -107t-144 -71.5t-179 -26q-99 0 -178.5 26t-143 71.5t-110.5 107 t-78 134t-46 151t-15 158.5zM290 615q0 -44 6.5 -98t23 -109t44.5 -108t71 -93.5t103 -65t140 -24.5t140.5 24.5t103.5 65t71 93.5t44.5 108t23 109t6.5 98t-6.5 97.5t-23 109.5t-44.5 108t-71 93t-103 65.5t-141 24.5q-80 0 -140 -24.5t-103 -65.5t-71 -93t-44.5 -108 t-23 -109.5t-6.5 -97.5z" />
<glyph unicode="p" horiz-adv-x="1355" d="M170 -483v1710h172v-166h7q16 26 45 61t74 66.5t107.5 53t142.5 21.5q99 0 176.5 -24.5t136.5 -68t99.5 -103.5t66.5 -129.5t37.5 -146t11.5 -153.5v-9q0 -150 -34 -271q-34 -123 -99.5 -210t-161.5 -133t-217 -48q-55 0 -107 11t-100.5 35t-91 60t-75.5 84h-7v-640h-183 zM345 655q-1 -17 -1 -34q0 -38 4 -79q7 -59 23.5 -117.5t45 -112t69 -95t95 -66t123.5 -24.5q77 0 135 23t98 60t65 86.5t39 104t20 110t6 104.5q-5 113 -28.5 205t-67.5 156.5t-111 96.5q-64 30 -146 30h-10q-32 0 -70.5 -11t-77 -34t-75 -58.5t-66.5 -85t-49 -114.5 t-21 -145z" />
<glyph unicode="q" horiz-adv-x="1355" d="M107 638q3 73 15 147t38.5 144.5t66.5 131t98 105.5t134.5 71t175.5 26q84 0 147 -21.5t107.5 -53t72.5 -65.5q28 -36 42 -62h8v166h172v-1710h-183v640h-9q-32 -48 -74.5 -84t-91 -60t-100.5 -35t-105 -11q-123 2 -220.5 48t-164 133t-100.5 210q-29 111 -29 247v33z M287 615q0 -49 5 -104.5t19.5 -110t39.5 -104t65 -86.5t98 -60t135 -23q70 0 124.5 24.5t95 66t68.5 95t44.5 112t22.5 117.5q5 41 5 79q0 17 -1 34q-3 81 -21.5 146.5t-48 114.5t-66.5 84t-75.5 58t-77 34t-70.5 11q-87 0 -153.5 -34t-111.5 -97t-69.5 -153.5t-27.5 -203.5 z" />
<glyph unicode="r" horiz-adv-x="832" d="M206 0v1227h169v-206h7q31 54 70.5 98t86.5 75.5t100 48.5t113 17q20 0 31.5 -2t18.5 -5v-150h-76q-51 0 -97 -16.5t-84.5 -45.5t-69 -67.5t-52 -81.5t-33.5 -88.5t-12 -89.5v-714h-172z" />
<glyph unicode="s" horiz-adv-x="1224" d="M100 395h172q3 -26 8 -54.5t17.5 -60t35 -61t59 -53t90.5 -38.5t130 -18q67 0 127 17t105 47t71.5 72.5t26.5 93.5q0 39 -7 70.5t-34 56.5t-83.5 46.5t-153.5 38.5l-234 49q-70 15 -124 36.5t-91.5 54t-56 77.5t-18.5 106q0 102 38 174t102.5 119.5t148.5 69.5t176 22 q110 0 187 -24.5t129.5 -62.5t82.5 -83t45.5 -87.5t20 -78t4.5 -49.5h-172q0 19 -3.5 44.5t-14 52t-31.5 51.5t-56 45t-86.5 32.5t-122.5 12.5q-23 0 -51.5 -3t-58 -11.5t-57.5 -23t-50 -36t-37 -52t-18 -72.5q-1 -37 7.5 -65.5t35 -50t73 -38.5t119.5 -33l201 -40 q103 -20 170.5 -48t108.5 -66.5t60 -88.5t23 -115v-14q0 -85 -33 -156q-36 -76 -102.5 -128t-156.5 -80.5t-194 -28.5q-120 0 -206 21.5t-144 57t-91.5 81.5t-52 94t-25 94.5t-9.5 83.5z" />
<glyph unicode="t" horiz-adv-x="704" d="M60 1080v147h186v340h172v-340h210v-147h-210v-838q0 -36 15.5 -55.5t37 -28.5t46 -10.5t41.5 -1.5h70v-146q-56 -9 -96 -11.5t-59 -2.5q-75 0 -119.5 20t-69 55t-31.5 82t-7 102v835h-186z" />
<glyph unicode="u" horiz-adv-x="1355" d="M187 345v882h173v-847q0 -74 23 -126t61 -84.5t86 -46t98 -13.5q66 0 118.5 18t95 48t71.5 70.5t49 86t29.5 93t9.5 90.5v711h172v-1227h-161v180l-4 3q-70 -111 -173.5 -165.5t-251.5 -54.5q-67 0 -137.5 18.5t-128 62t-94 117.5t-36.5 184z" />
<glyph unicode="v" horiz-adv-x="1224" d="M44 1227h199l362 -1087l352 1087h198l-440 -1227h-223z" />
<glyph unicode="w" horiz-adv-x="1744" d="M60 1227h197l268 -1058l249 1058h204l249 -1058l267 1058h199l-356 -1227h-212l-250 1018l-247 -1018h-213z" />
<glyph unicode="x" horiz-adv-x="1224" d="M67 0l451 612l-451 615h205l349 -476l347 476h205l-451 -612l451 -615h-205l-347 472l-349 -472h-205z" />
<glyph unicode="y" horiz-adv-x="1224" d="M37 1227h213l362 -1067l359 1067h213l-486 -1267q-34 -77 -58.5 -136t-44 -104.5t-35 -77t-32.5 -55t-38 -40t-50 -27.5q-32 -13 -81 -18q-50 -4 -113 -4q-23 0 -46.5 5t-47.5 14v157q10 -4 26 -7.5t37.5 -7.5t44.5 -5t45 -1q40 0 67 11t50 44t46.5 92.5t56.5 155.5z" />
<glyph unicode="z" horiz-adv-x="1224" d="M100 0v160l802 920h-748v147h949v-169l-806 -912h828v-146h-1025z" />
<glyph unicode="{" horiz-adv-x="783" d="M99 549v139q40 0 75 22t60.5 62t40 94.5t14.5 118.5v405q0 71 20.5 127.5t54.5 94.5t76 58t88 20h157v-153h-103q-31 0 -52.5 -15t-34 -40.5t-18 -60t-5.5 -74.5v-399q-7 -87 -33 -147t-58 -98.5t-64 -57.5t-50 -23v-7q18 -7 50 -25.5t64 -56t58 -99t33 -152.5v-395 q0 -40 5.5 -76t18 -62t34 -41t52.5 -15h103v-151h-157q-46 0 -88 20t-76 59t-54.5 94.5t-20.5 127.5v402q0 65 -14.5 121.5t-40 96.5t-60.5 63t-75 23z" />
<glyph unicode="|" horiz-adv-x="607" d="M220 -44v1771h172v-1771h-172z" />
<glyph unicode="}" horiz-adv-x="783" d="M99 -307h103q31 0 51 15t32 41t17 61.5t5 76.5v395q3 60 16.5 107t33 82t43 61t46 42.5t41 26.5t29.5 14v7q-17 3 -50 21.5t-66.5 57t-60.5 99.5t-32 148v399q0 40 -5 74.5t-17 60t-32.5 40.5t-50.5 15h-103v153h157q44 0 87 -20t76.5 -58t54.5 -94.5t21 -127.5v-405 q0 -64 13.5 -118.5t38.5 -94.5t60 -62t78 -22v-139q-43 0 -78 -23t-60 -63t-38.5 -95.5t-13.5 -122.5v-402q0 -72 -21 -127.5t-54.5 -94.5t-76.5 -59t-87 -20h-157v151z" />
<glyph unicode="~" horiz-adv-x="1368" d="M143 552q20 37 46.5 73.5t61 65t80 46.5t104.5 18q64 0 129 -21.5t131 -52.5q91 -42 149 -63q57 -20 88 -20q38 0 68 14t54 38t45.5 54t43.5 61l84 -132q-26 -42 -57.5 -78.5t-68 -64t-78.5 -43t-91 -15.5q-33 0 -62 5.5t-58.5 15.5t-58.5 24.5t-61 31.5q-27 16 -58 29.5 t-63.5 25t-69 18.5t-76.5 7q-39 0 -69 -14t-53.5 -38t-42 -54.5t-33.5 -62.5z" />
<glyph unicode="&#xa2;" horiz-adv-x="1317" d="M173 904q0 183 54 309q28 65 73.5 114t102 82.5t118.5 50t124 16.5q20 0 46.5 -2.5t59.5 -6.5l113 396l110 -33l-110 -394q48 -23 86 -52.5t65 -67.5t48 -84.5t35 -100.5l-183 -26q-27 112 -98 173l-228 -780q17 -9 33 -12t30 -3q52 0 97 19.5t82 55t62 88t37 115.5 l187 -19q-20 -94 -62.5 -168.5t-101.5 -126.5t-135 -79.5t-163 -27.5q-23 0 -47.5 3t-55.5 9l-120 -406l-115 31l118 408q-59 28 -107 75.5t-83 112.5t-53.5 148t-18.5 183zM359 912q0 -136 32 -228t84 -139l236 781q-17 2 -31 4.5t-25 2.5q-63 0 -117.5 -27.5t-94.5 -81 t-62 -131.5t-22 -181z" />
<glyph unicode="&#xa3;" horiz-adv-x="1422" d="M92 159q55 30 104 73t84 100t55.5 125.5t20.5 147.5q0 67 -21 144h-222v158h170q-20 63 -31.5 105.5t-18 76.5t-8.5 61.5t-2 56.5q0 111 44.5 201.5t132.5 155.5q70 56 153 83.5t183 27.5q103 0 189.5 -29t150.5 -84t104.5 -135.5t55.5 -185.5l-191 -20q-11 66 -35.5 119 t-65 89.5t-98.5 56.5t-137 21q-58 -1 -110.5 -22.5t-91 -58.5t-60.5 -88t-22 -110q0 -64 15 -143.5t49 -177.5h372v-158h-322q20 -57 20 -107q0 -49 -9 -99.5t-32 -105.5t-61.5 -111.5t-93.5 -116.5q45 13 85.5 20.5t77.5 7.5q46 -2 98 -11.5t112 -22.5q98 -26 161 -38.5 t95 -12.5q45 0 101.5 15.5t120.5 49.5l66 -176q-52 -22 -91 -36.5t-71.5 -22.5t-60 -10.5t-57.5 -2.5q-20 0 -41.5 2.5t-46.5 9.5q-17 0 -55.5 9t-95.5 26l-149 48q-26 3 -51.5 4.5t-48.5 1.5q-42 0 -87 -8t-89 -21.5t-86.5 -32.5t-79.5 -39z" />
<glyph unicode="&#xa5;" horiz-adv-x="2009" d="M285 1685h243l464 -737h79l466 737h242l-491 -737h382v-117h-460l-82 -125v-154h542v-117h-542v-435h-190v435h-568v117h568v154l-83 125h-485v117h405z" />
<glyph unicode="&#xa9;" horiz-adv-x="2082" d="M197 828q0 112 29.5 217t88.5 208q58 104 141 183.5t179.5 133.5t203 82t212.5 28q217 0 420 -110q103 -56 184 -137.5t136 -179.5t83.5 -206.5t28.5 -218.5q6 -112 -24.5 -219t-88 -203.5t-139 -179t-178 -139.5t-204.5 -87.5t-218 -25.5q-111 -5 -218.5 25.5t-204 87.5 t-178 139.5t-139.5 179t-88.5 203.5t-25.5 219zM363 828q-4 -92 19.5 -179t70 -165t111.5 -143.5t143 -111.5t165.5 -70.5t178.5 -18.5q90 -4 178 19.5t166.5 69.5t144.5 111.5t113 143.5t72 165t21 179q3 91 -21.5 180t-71.5 167t-113 143.5t-144.5 110.5t-166.5 69 t-178 18q-87 6 -173 -18t-164.5 -69t-144.5 -110.5t-113 -143.5t-72 -167t-21 -180zM608 821q0 119 33 209.5t92 150.5t143.5 91t188.5 31q73 0 135.5 -19.5t111.5 -54t83.5 -82t50.5 -105.5l-132 -40q-17 40 -42.5 74t-58.5 57.5t-71.5 36.5t-83.5 13q-66 0 -120 -24 t-94 -70.5t-61.5 -113.5t-21.5 -154q0 -89 21.5 -155.5t58.5 -111.5t88.5 -67t112.5 -22q52 0 97.5 17t83 47t64 71t39.5 88l134 -43q-16 -70 -51.5 -127.5t-88.5 -97.5t-121 -61.5t-148 -21.5q-100 0 -181.5 34.5t-140 97.5t-90 152.5t-31.5 199.5z" />
<glyph unicode="&#xab;" horiz-adv-x="1317" d="M169 603l336 488h154l-281 -488l281 -490h-154zM641 603l337 488h153l-282 -488l282 -490h-153z" />
<glyph unicode="&#xad;" horiz-adv-x="1368" d="M176 556v172h1017v-172h-1017z" />
<glyph unicode="&#xae;" horiz-adv-x="2006" d="M103 842.5q0 127.5 33 242.5t92 213t142 178t183.5 135.5t214 85.5t234.5 30t234.5 -30t213 -85.5t181.5 -135.5t141.5 -178t91.5 -213t32 -242.5t-32 -243.5t-91.5 -214.5t-141.5 -178t-181.5 -135t-212.5 -85.5t-234.5 -30t-235 30t-214 85.5t-183.5 135t-142 178 t-92 214.5t-33 243.5zM282 842q0 -107 25 -203.5t70.5 -178.5t111.5 -148t145.5 -112.5t173 -71.5t194.5 -25q99 0 191.5 25t171.5 71.5t145 112.5t113 148t72 178.5t25 203.5q0 106 -25 202t-72 177.5t-113 147t-145 112t-170.5 71.5t-192.5 25q-103 0 -195.5 -25 t-172 -71.5t-145.5 -112t-111.5 -147t-70.5 -177.5t-25 -202zM659 330v1020h392q92 0 159.5 -16.5t112 -51.5t66 -89.5t21.5 -131.5q0 -70 -20 -120t-56 -83.5t-83.5 -52.5t-105.5 -26l291 -449h-173l-271 442h-175v-442h-158zM817 904h183q48 0 94 4t79.5 20t54 49t20.5 93 q0 48 -18.5 76.5t-50 45t-71.5 21.5t-83 5h-208v-314z" />
<glyph unicode="&#xbb;" horiz-adv-x="1317" d="M169 87l281 488l-281 490h153l337 -490l-337 -488h-153zM641 87l281 488l-281 490h154l336 -490l-336 -488h-154z" />
<glyph unicode="&#xbc;" horiz-adv-x="2196" d="M275 1431v92q51 16 87.5 32.5t63 41.5t44.5 64t32 99h116v-1011h-160v682h-183zM343 -30l1263 1780h183l-1266 -1780h-180zM1270 223v143l462 644h143v-648h113v-139h-113v-223h-158v223h-447zM1399 362h318v440z" />
<glyph unicode="&#xbd;" horiz-adv-x="2187" d="M275 1460v93q51 16 87.5 31.5t63 41.5t44.5 64.5t32 99.5h116v-1011h-160v681h-183zM307 -30l1263 1780h183l-1265 -1780h-181zM1260 -1q11 313 223 427l139 80q44 26 79.5 47.5t61.5 45.5t39.5 54.5t13.5 72.5q0 20 -9 48t-31.5 51.5t-59 41t-90.5 17.5q-46 0 -79 -11.5 t-54.5 -31t-33.5 -43.5t-18.5 -49t-8 -49.5t-1.5 -43.5h-145q0 82 18.5 141.5t49 100t68.5 65.5t78 38t77 18t66 5q70 0 130 -21.5t103.5 -61t69 -96t25.5 -126.5q0 -68 -24.5 -115.5t-64 -84t-92.5 -67t-110 -66.5l-77 -47q-56 -34 -84.5 -63t-40.5 -51.5t-15 -40.5t-6 -32 h514v-153h-711z" />
<glyph unicode="&#xbe;" horiz-adv-x="2283" d="M157 1035h146q0 -44 12 -82t36.5 -67t64 -45.5t93.5 -16.5q44 0 83 12.5t67.5 36.5t45 57.5t16.5 76.5q0 51 -23 85.5t-56.5 55t-73.5 29t-73 8.5q-15 0 -30.5 -1t-29.5 -1v135q20 -2 36.5 -3t30.5 -1q37 0 72 6.5t61.5 23.5t43 48.5t16.5 78.5q0 22 -8.5 47.5t-31 48 t-58 36.5t-88.5 14q-60 0 -97 -21.5t-57 -52.5t-26.5 -66.5t-6.5 -63.5h-139q-4 54 11 113.5t53.5 109t104.5 82t164 32.5q75 0 134 -20t99 -56.5t61 -85.5t21 -109q0 -50 -12 -86.5t-31.5 -62.5t-43 -41t-45.5 -22v-4q39 -13 70.5 -31.5t54.5 -47.5t35 -69t12 -94 q0 -61 -20 -120t-65 -104.5t-115 -73.5t-169 -28q-56 0 -102 13q-45 13 -88 31q-43 23 -71 55.5t-45 71t-26.5 81.5t-12.5 88zM420 -30l1267 1780h181l-1267 -1780h-181zM1246 223v143l460 644h142v-647h114v-140h-114v-223h-158v223h-444zM1399 363h291v406z" />
<glyph unicode="&#xd7;" horiz-adv-x="1451" d="M217 255l389 387l-386 386l122 122l386 -386l386 386l122 -122l-387 -386l387 -386l-122 -122l-386 388l-389 -389z" />
<glyph unicode="&#xf7;" horiz-adv-x="1458" d="M136 556v172h1187v-172h-1187zM569 204q0 35 13 64t36 50.5t51.5 34.5t59.5 13q33 0 61.5 -13t50 -35t34 -51.5t12.5 -62.5q0 -28 -12.5 -56t-34 -51t-50 -36.5t-61.5 -13.5q-31 0 -59.5 13t-51.5 34.5t-36 50t-13 59.5zM569 1134q0 33 13 62.5t36 50.5t51.5 33.5 t59.5 12.5q33 0 61.5 -12.5t50 -33.5t34 -50.5t12.5 -62.5q0 -31 -12.5 -60t-34 -51.5t-50 -35.5t-61.5 -13q-31 0 -59.5 13t-51.5 34t-36 50.5t-13 62.5z" />
<glyph unicode="&#xe01;" horiz-adv-x="1481" d="M213 981v162q0 58 20 106t55 84.5t83.5 63t107.5 43t124.5 24t134.5 7.5q116 0 213 -14t168.5 -50.5t111.5 -97.5t40 -152v-1157h-171v1124q0 60 -22.5 100t-67.5 63t-111.5 32t-153.5 9q-84 0 -150.5 -9t-113 -30t-71.5 -54.5t-25 -81.5v-50h217v-125q-7 0 -21.5 -3.5 t-33 -13t-39 -26.5t-42.5 -43q-16 -20 -23.5 -40.5t-12 -40t-4.5 -35.5v-30v-746h-171v728q0 36 7 74.5t33 79.5q20 30 42 50t41 30q11 9 22 13l18 6h-205z" />
<glyph unicode="&#xe02;" horiz-adv-x="1319" d="M70.5 1164q1.5 57 19 103.5t49 82.5t73 61t88.5 40.5t98 21.5t101 3q73 -5 136 -31t108.5 -70t72 -104.5t26.5 -132.5q0 -70 -15 -123t-44 -99.5t-73 -93.5t-101 -104q-31 -32 -56 -58.5t-41.5 -52.5t-25 -57t-8.5 -70v-210q0 -74 30 -104t104 -30h216q39 0 61 10 t32.5 28t13.5 43t3 58v1189h172v-1241q0 -49 -11 -89.5t-34 -70t-58.5 -46.5t-87.5 -17h-424q-59 0 -95.5 19.5t-58 51.5t-29 75.5t-7.5 90.5v243q0 38 2.5 66.5t11 55.5t24.5 54.5t42 57.5q48 54 100.5 99.5t95 92t70 102.5t27.5 130q0 52 -18.5 90t-46.5 61.5t-58 32 t-53 4.5q34 -29 53.5 -70.5t22.5 -84.5q1 -54 -17.5 -102t-52 -83t-78.5 -56.5t-100 -22.5q-58 -2 -106 16.5t-83 53.5t-53.5 82.5t-17 104.5zM199 1149.5q0 -31.5 14 -58.5t42 -45t68 -18q42 0 69 18t40.5 45t13.5 58.5t-13.5 58t-40.5 44.5t-69 18q-41 0 -68.5 -18 t-41.5 -44.5t-14 -58z" />
<glyph unicode="&#xe03;" horiz-adv-x="1367" d="M92 1110q-3 68 16 132.5t60 116t100 82t135 30.5q60 0 101 -14t64.5 -31t35.5 -31.5t17 -14.5q2 0 13.5 15t31 33t46 30.5t57.5 8.5q32 -3 58.5 -23.5t44 -55.5t27.5 -83t10 -105q0 -77 -14 -138t-45 -116t-78.5 -109.5t-115.5 -118.5q-31 -30 -55.5 -56t-41.5 -53 t-25.5 -58.5t-8.5 -70.5v-220q0 -37 7 -61.5t23 -38.5t42 -19t64 -5h214q34 0 56.5 10.5t34.5 29t15.5 44t3.5 55.5v1189h173v-1241q0 -49 -11.5 -89.5t-34 -70.5t-59 -46.5t-85.5 -16.5h-425q-55 0 -91.5 20t-59 53.5t-31 76.5t-8.5 87v243q0 38 2.5 68t10 57t24 53.5 t43.5 55.5q56 58 104 101.5t85 84t65.5 84t46.5 104.5q8 33 11.5 67.5t1 62.5t-10.5 45.5t-21 17.5q-11 0 -26 -15.5t-29.5 -34t-25.5 -36t-11 -20.5q0 3 -7 17.5t-20 32.5t-30 37t-38 34q-29 20 -54.5 28.5t-45.5 10t-32.5 0t-13.5 -1.5q0 1 10.5 -2.5t28.5 -12t37.5 -24.5 t37 -38.5t28.5 -54t11 -74.5q0 -66 -17.5 -113t-46.5 -79.5t-69 -47.5q-42 -16 -85 -16q-45 0 -85 15.5t-70 46.5t-49 75t-21 102zM216.5 1105q0.5 -30 12 -54t34 -41.5t53.5 -17.5q33 0 55 17.5t33 41.5t11 54t-11 55t-33 41.5t-55 16.5q-34 0 -56.5 -16.5t-33 -41.5 t-10 -55z" />
<glyph unicode="&#xe04;" horiz-adv-x="1535" d="M210 0v1157q0 87 46 147t122.5 97.5t177 53.5t210.5 16q116 0 217.5 -14t178 -50t121 -96.5t44.5 -153.5v-1157h-172v1124q0 64 -27 104t-76.5 62.5t-121 30t-161.5 7.5q-100 0 -173 -13.5t-119.5 -40.5t-69 -65t-22.5 -85v-491l-10 -110l84 219q7 17 18.5 46.5t30 63 t43.5 67t59 61.5t76.5 45t97.5 17q48 0 91 -12.5t76.5 -39t55.5 -66.5q20 -40 25 -93q6 -75 -12 -130.5t-53.5 -91.5t-82 -53.5t-96.5 -17.5q-123 0 -197 80q-2 -5 -11 -20t-24 -48.5t-35.5 -88.5t-42.5 -135q-23 -81 -47 -164q-22 -83 -33 -162h-188zM671 790.5 q0 -28.5 12 -52.5t37 -40.5t61 -16.5q37 0 61.5 16.5t36.5 40.5t12 52.5t-12 53.5t-36.5 41t-61.5 16t-61.5 -16t-36.5 -41t-12 -53.5z" />
<glyph unicode="&#xe05;" horiz-adv-x="1535" d="M210 0v1135q0 18 3 43.5t13.5 57.5t33.5 68q22 34 60 72q40 37 83 56t80.5 27t62.5 9.5t26 2.5l190 -153l202 153q70 -1 135.5 -29t117.5 -69q40 -35 61.5 -67t32 -62t13.5 -58.5t3 -54.5v-1131h-172v1124q0 11 -2 27t-6 33t-12 35t-21 34q-17 20 -37 32t-36.5 18.5 t-27.5 8.5t-12 2l-239 -179l-230 172q-1 0 -10.5 -0.5t-25.5 -5t-35 -15t-39 -30.5q-16 -16 -24 -34.5t-11.5 -37.5t-4 -35t-0.5 -29v-505l-7 -92l84 219q7 17 18 46t27.5 61t39 65t55 60.5t74 46.5t93.5 21q55 3 102 -9.5t82 -40.5t57 -69q20 -41 25 -92 q6 -75 -12.5 -130.5t-53.5 -91.5t-81.5 -53.5t-96.5 -17.5q-123 0 -197 80q-2 -5 -11 -20t-24 -48.5t-35.5 -88.5t-42.5 -135q-23 -81 -47 -164q-22 -83 -33 -162h-188zM671 790.5q0 -28.5 12 -52.5t37 -40.5t61 -16.5q37 0 61.5 16.5t36.5 40.5t12 52.5t-12 53.5t-36.5 41 t-61.5 16t-61.5 -16t-36.5 -41t-12 -53.5z" />
<glyph unicode="&#xe06;" horiz-adv-x="1693" d="M97 1168q6 59 29.5 114t63 97t92.5 67t116 25q41 3 73 -2.5t56.5 -15.5t41.5 -23t28.5 -23.5t17.5 -18.5t8.5 -8t15 13.5t31.5 30t45.5 30t62.5 13.5q49 0 89 -27t65.5 -73.5t34 -107.5t-6.5 -128q-8 -40 -23.5 -73.5t-35.5 -65t-41.5 -60t-38.5 -55t-28.5 -52.5 t-11.5 -53v-61q0 -2 21.5 -5.5t58 -14t82.5 -30.5q47 -17 98 -49q80 -53 133 -101t83.5 -83.5t43 -55.5t12.5 -17v1109h171v-1464h-171q-5 23 -20 69.5t-46 106.5t-83 129q-51 70 -132 135q-54 45 -99 68t-78.5 32t-53 10.5t-20.5 1.5v-325q0 -48 -11.5 -90.5t-36.5 -74.5 t-65 -52.5t-96 -23.5q-66 -5 -120 14t-93.5 60.5t-61 106.5t-21.5 155q0 77 15 134t39.5 99.5t55 69.5t62.5 46q35 18 74.5 29.5t86.5 13.5v88q0 37 15 68t38.5 63t53 70t58.5 88q20 37 27.5 70.5t5 59.5t-12 43t-20.5 22q-18 2 -34 -5t-32 -19t-29 -27t-23 -29.5 t-15.5 -24.5t-5.5 -13q0 3 -8.5 19t-23 35t-33 39t-38.5 35q-29 20 -54.5 28.5t-45.5 10t-32 0t-15 -1.5q0 1 22 -5.5t49 -26.5t51.5 -58.5t31.5 -99.5q6 -68 -8.5 -118.5t-43.5 -84t-70.5 -51t-89.5 -18.5q-54 -2 -99 18t-76.5 59t-46.5 94q-13 56 -8 126zM223 1105 q0 -30 11 -54t32 -41.5t54 -17.5t55.5 17.5t32.5 41.5t10 54t-10 55t-32.5 41.5t-55.5 16.5q-31 0 -53 -16.5t-33 -41.5t-11 -55zM432 325q0 -39 6.5 -74t20.5 -63t36 -44q20 -17 51 -17q22 0 34.5 9.5t19 23t8 30.5t1.5 33v326q-48 6 -82.5 -13.5t-55.5 -53.5t-30 -75.5 t-9 -81.5z" />
<glyph unicode="&#xe07;" horiz-adv-x="1141" d="M103 871l129 107l356 -776q13 -30 38 -52.5t63 -22.5q33 0 51.5 20t18.5 73v768q-5 -1 -24 -7t-50 -7q-53 -2 -101 14t-84.5 47.5t-58 75.5t-21.5 99q0 56 20 103t54.5 81.5t81 53.5t99.5 19q59 0 106 -19t80.5 -53.5t51.5 -82.5t18 -104v-985q0 -120 -63.5 -176.5 t-178.5 -57.5q-48 -2 -87.5 9.5t-70.5 32t-55 51.5q-24 32 -43 72zM556 1219q0 -31 13.5 -56.5t39.5 -42.5t66 -17t65.5 17t38.5 42.5t13 56.5t-13 56.5t-38.5 43t-65.5 17.5t-66 -17.5t-39.5 -43t-13.5 -56.5z" />
<glyph unicode="&#xe08;" horiz-adv-x="1338" d="M107 1075v68q0 88 39.5 151t108 102.5t160 57t197.5 17.5q116 0 211 -16t163 -53.5t105 -97.5t37 -147v-955q0 -59 -20.5 -100t-55.5 -65t-82.5 -34t-98.5 -12q-112 -1 -180 52.5t-82 153.5l-53 344q-34 -18 -67 -25.5t-67 -7.5q-52 0 -95.5 18.5t-75.5 50.5t-50.5 75.5 t-18.5 93.5q0 56 20.5 101t55.5 77.5t81.5 49t99.5 16.5q61 -2 107 -21t78 -51.5t51 -78t26 -100.5l73 -509q15 -106 95 -106q26 2 42.5 8.5t26.5 18.5t14.5 31.5t4.5 44.5v897q0 59 -20 98t-61 62t-104.5 33t-150.5 11q-172 3 -256.5 -41t-84.5 -142v-70h-173zM316 751 q0 -30 13 -56t39.5 -44t64.5 -18q40 0 66.5 18t39.5 44t13 56t-13 55.5t-39.5 43.5t-66.5 18t-65.5 -18t-38.5 -43.5t-13 -55.5z" />
<glyph unicode="&#xe09;" horiz-adv-x="1531" d="M109 681q0 57 20.5 104t55.5 80.5t81 51.5t97 18q59 0 107 -20t81.5 -55t51.5 -83t18 -103v-397q18 23 34 40.5t32.5 32.5t36.5 29t45 31q33 22 58 37t49.5 28t51 25.5t62.5 30.5q60 30 92.5 61t47.5 59t17.5 51.5t2.5 36.5v385q0 66 -28.5 106t-81 62t-126 29t-162.5 7 q-87 0 -158 -9t-121 -30t-76.5 -54.5t-26.5 -81.5v-83h-171v73q0 90 42 152.5t116.5 102t175 56.5t219.5 17q116 0 219 -13.5t181.5 -48.5t124.5 -96.5t46 -155.5v-446q0 -27 -6.5 -57.5t-20 -56.5t-35 -47.5t-51.5 -33.5q103 -31 156 -101t53 -173q0 -59 -19 -108.5 t-52.5 -84.5t-80 -53.5t-100.5 -18.5q-54 2 -100 22t-79 54t-51.5 79t-19.5 97q0 26 5 53t16 51q-17 -7 -43.5 -21.5t-56.5 -35.5t-61 -50t-59 -62q-36 -41 -58 -82t-37 -82h-175v455q-8 -2 -27 -9t-55 -7q-54 0 -100.5 18t-81.5 50t-55 76.5t-20 97.5zM242 685 q0 -23 7 -43.5t22 -37t37 -26.5t52 -10t51.5 10t36.5 26.5t22.5 37t7.5 43.5q0 21 -7.5 42t-22.5 37.5t-36.5 27t-51.5 10.5t-52 -10.5t-37 -27t-22 -37.5t-7 -42zM1060 242q0 -33 12 -61.5t36.5 -48t61.5 -19.5t62 19.5t37 48t12 61.5t-12 61.5t-37 47.5t-62 19t-61.5 -19 t-36.5 -47.5t-12 -61.5z" />
<glyph unicode="&#xe0a;" horiz-adv-x="1378" d="M70 1155q0 83 33.5 144t87.5 100.5t119.5 58.5t129.5 19q86 0 160 -24t128 -69.5t84 -109t30 -141.5q0 -68 -15 -119.5t-44 -98t-73 -93.5t-101 -104q-31 -32 -56 -58.5t-41.5 -52.5t-25 -57t-8.5 -70v-210q0 -74 30 -104t104 -30h276q37 0 58.5 11.5t32.5 30t14.5 43.5 t3.5 54v692q0 20 -3.5 48.5t-16 55.5t-36 48t-62.5 24l-14 124q49 4 88 27t66.5 59.5t43 83.5t15.5 100v110h168v-128q0 -116 -55.5 -192.5t-160.5 -113.5q45 -6 73 -35.5t42.5 -66.5t19.5 -77t5 -67v-744q0 -49 -11.5 -90t-35 -70.5t-59.5 -46t-86 -16.5h-483 q-59 0 -95.5 19.5t-58 51.5t-29 75.5t-7.5 90.5v243q0 38 2.5 66.5t11 55.5t24.5 54.5t42 57.5q48 54 100.5 99.5t95 92t70 102.5t27.5 130q0 52 -18 90t-45 60.5t-57 31t-56 6.5q37 -32 56.5 -76.5t19.5 -91.5q0 -54 -20 -100t-54.5 -79.5t-80 -52.5t-97.5 -19 q-56 0 -104 19t-81.5 52t-52 79t-18.5 98zM199 1148q0 -23 8.5 -43.5t23.5 -37.5t38 -28t54 -11q30 0 53.5 11t39.5 28t23 38.5t7 44.5t-7 44.5t-23 38.5t-39.5 27t-53.5 10q-31 0 -54 -10t-39 -28t-23.5 -39.5t-7.5 -44.5z" />
<glyph unicode="&#xe0b;" horiz-adv-x="1454" d="M69 1168q5 59 31.5 114t69.5 97t98 67t117 25q55 0 97.5 -15.5t71.5 -36t45.5 -40t21.5 -26.5q2 4 19.5 23.5t41.5 39.5t54 35.5t62 15.5q29 0 51 -15.5t37.5 -41.5t25.5 -61.5t14.5 -75.5t4.5 -81t-4 -79q-9 -69 -25.5 -117t-44.5 -89.5t-70 -85t-102 -103.5 q-31 -29 -56.5 -54.5t-41.5 -53.5t-25 -59.5t-9 -70.5v-210q0 -74 30 -104t105 -30h276q37 0 58.5 11.5t33 30t14 43.5t2.5 54v692q0 20 -0.5 49t-11 57t-35 48t-70.5 22l-7 124q46 6 84.5 29.5t65 60t41.5 83t15 97.5v110h167v-128q0 -116 -55 -192.5t-161 -113.5 q46 -6 74 -35.5t42.5 -66.5t19.5 -77t5 -67v-744q0 -49 -11.5 -90t-35.5 -70.5t-59.5 -46t-84.5 -16.5h-484q-59 0 -95 19.5t-57 51.5t-30 75.5t-9 90.5v243q0 38 2.5 68t11 57t25 53.5t41.5 55.5q56 58 104 101.5t86 84t66 84t45 104.5q10 33 13.5 67.5t0.5 62.5t-11 45.5 t-20 17.5q-13 0 -29.5 -17t-33 -40t-29.5 -45t-19 -31q-15 33 -44.5 69.5t-67.5 65t-80.5 43.5t-84.5 7q2 0 13 -3t27 -10t34.5 -20t35 -33.5t28.5 -51.5t17 -72q5 -68 -9 -118.5t-43.5 -84t-71 -51t-88.5 -18.5q-54 -2 -99.5 18t-76.5 59t-46 94q-14 56 -8 126zM194 1105 q0 -30 11 -54t32.5 -41.5t52.5 -17.5q33 0 55.5 17.5t33 41.5t10.5 54t-10.5 55t-33 41.5t-55.5 16.5q-31 0 -52.5 -16.5t-32.5 -41.5t-11 -55z" />
<glyph unicode="&#xe0c;" horiz-adv-x="1989" d="M213 981v162q0 88 38.5 151t106 102.5t157.5 57t193 17.5q116 0 207.5 -17t156.5 -55.5t99 -100t34 -148.5v-465q0 -27 4.5 -49.5t15.5 -40t28.5 -34t46.5 -33.5q20 -13 41.5 -25.5t45 -26t50 -30t57.5 -36.5q26 -15 47 -32.5t36 -31t22 -21.5q8 -10 8 -8v1147h173v-1464 h-173q-1 46 -19 84.5t-38 75.5q-20 33 -45 60t-50 48t-48 36.5t-40 25.5q12 -25 17 -50t5 -50q0 -56 -21.5 -101.5t-58 -79t-84.5 -51.5t-100 -17q-55 2 -99.5 24t-76 59.5t-48.5 85t-17 99.5q0 51 15 95t43.5 78t67 59t85.5 40q-21 14 -33 34t-18.5 44t-9 49.5t-2.5 46.5 v429q0 54 -16 93.5t-54 64t-99 35.5t-148 11q-169 0 -249.5 -39t-80.5 -136v-50h217v-125q-7 0 -21.5 -3.5t-33 -13t-39 -26.5t-42.5 -43q-16 -20 -23.5 -40.5t-12 -40t-4.5 -35.5v-30v-281q7 1 29.5 7t56.5 6q53 0 98.5 -17.5t79.5 -49.5t54 -77t20 -99.5t-20 -99.5 t-54.5 -78t-80.5 -51.5t-97 -18.5q-59 0 -106 21.5t-81.5 59.5t-52 87t-17.5 105v468q0 36 7 74.5t33 79.5q20 30 42 50t41 30q11 9 22 13l18 6h-205zM396 234q0 -31 13 -56.5t38.5 -43t65.5 -17.5t66.5 17.5t39.5 43t13 56.5t-13 56.5t-39.5 43.5t-66.5 18t-65.5 -18 t-38.5 -43.5t-13 -56.5zM1024 245.5q0 -33.5 12 -61.5t37 -47.5t62.5 -19.5t61.5 19.5t36.5 47.5t12.5 61.5t-12.5 61.5t-36.5 47t-61.5 19t-62.5 -19t-37 -47t-12 -61.5z" />
<glyph unicode="&#xe0d;" horiz-adv-x="2019" d="M213 981v162q0 88 42 151t113.5 102.5t164.5 57t196 17.5q113 0 207 -16t160.5 -54t103 -98t36.5 -146v-872q0 -36 5 -63.5t17 -46.5t33.5 -29t54.5 -10h181q37 0 58.5 12t33 33.5t15 48t3.5 55.5v1179h173v-1182q0 -52 -7.5 -102.5t-30.5 -90.5t-64 -64.5t-108 -24.5 h-322q-65 0 -106.5 25t-66 66t-34 91.5t-9.5 102.5v839q0 56 -17.5 95t-56 63.5t-101 35t-149.5 10.5q-84 0 -149.5 -9t-111 -30t-69 -54.5t-23.5 -81.5v-50h217v-125q-7 0 -21.5 -3.5t-33 -13t-39 -26.5t-42.5 -43q-16 -20 -23.5 -40.5t-12 -40t-4.5 -35.5v-30v-281 q7 1 29.5 7t56.5 6q53 0 98.5 -17.5t79.5 -49.5t54 -77t20 -99.5t-20 -99.5t-54.5 -78t-80.5 -51.5t-97 -18.5q-59 0 -106 21.5t-81.5 59.5t-52 87t-17.5 105v468q0 36 7 74.5t33 79.5q20 30 42 50t41 30q11 9 22 13l18 6h-205zM396 234q0 -31 13 -56.5t38.5 -43t65.5 -17.5 t66.5 17.5t39.5 43t13 56.5t-13 56.5t-39.5 43.5t-66.5 18t-65.5 -18t-38.5 -43.5t-13 -56.5zM984 -347q0 54 18 95.5t48.5 70.5t71.5 45t88 16q48 0 88 -16.5t68 -45t44 -68t16 -87.5q0 -41 -9.5 -66.5t-21 -41t-21.5 -23t-11 -7.5q17 -3 33.5 -5.5t36.5 0.5 q64 7 106.5 33.5t67.5 65.5t35.5 85.5t10.5 93.5v62h157v-76q0 -89 -29 -162.5t-84 -125.5t-136 -81.5t-184 -29.5q-70 0 -140 13t-126.5 43t-91.5 81.5t-35 130.5zM1110 -334.5q0 -25.5 10.5 -47t32 -36t52.5 -14.5q33 0 55.5 14.5t33 36t10.5 47t-10 47t-31.5 36 t-52.5 14.5q-33 0 -55 -14.5t-33.5 -36t-11.5 -47z" />
<glyph unicode="&#xe0e;" horiz-adv-x="1663" d="M99 240q1 55 22 99t55 75.5t79 49.5t94 18q34 0 58 -6q23 -4 31 -7v259q0 41 10.5 81t31 74t51 59.5t71.5 38.5h-204v162q0 88 42.5 151t115 102.5t167 57t196.5 17.5q116 0 214 -14t169.5 -50.5t111.5 -97.5t40 -152v-1512q0 -44 -9 -87.5t-30.5 -78t-54.5 -56 t-82 -21.5q-34 0 -74 15t-90 52q-67 49 -107 77.5t-64 46t-34 25t-17 13.5q0 -1 -7 -17t-21.5 -38t-35.5 -47t-47 -45q-110 -85 -225 -86q-51 -1 -102 13t-91.5 42t-66.5 70q-24 42 -27 97q-2 54 23 107t83 93q37 26 79 38t84.5 16t82.5 2t72 -7t54 -10.5t27 -8.5 q5 20 9.5 51.5t4.5 61.5h180q2 -17 1 -39.5t-4 -47.5t-6.5 -49t-8.5 -43q34 -20 77.5 -49.5t84.5 -55.5t71.5 -46.5t40.5 -24.5q20 -8 31.5 -2.5t17 17.5t8 29.5t2.5 32.5v1439q0 60 -22.5 100t-67.5 63t-111.5 32t-153.5 9q-84 0 -150.5 -9t-113 -30t-71 -54.5t-24.5 -81.5 v-50h216v-125q-7 0 -21.5 -3.5t-33 -13t-40 -26.5t-41.5 -43q-16 -20 -23.5 -40.5t-12 -40t-4.5 -35.5v-30v-483q0 -60 -20 -110t-55.5 -86t-85 -56t-106.5 -20q-55 0 -99 20t-76.5 55.5t-50 80.5t-17.5 93zM230 238q0 -31 13 -56.5t39.5 -43.5t66.5 -18t65.5 18t39.5 43.5 t14 56.5t-14 56.5t-40 43t-65 17.5q-40 0 -66.5 -17.5t-39.5 -43t-13 -56.5zM446 -366q0 -19 10 -34.5t26.5 -25.5t37.5 -15t42 -5q30 0 54.5 11.5t43.5 28.5t32.5 37t23 38t14 31t4.5 15q-38 12 -74.5 19t-70.5 7q-23 0 -48.5 -7t-47 -20.5t-35 -33.5t-12.5 -46z" />
<glyph unicode="&#xe0f;" horiz-adv-x="1663" d="M99 235q-2 57 19.5 102.5t57.5 78.5t82.5 50t97.5 14q32 -1 53 -5q21 -3 29 -6v259q0 41 10.5 81t31 74t51 59.5t71.5 38.5h-204v162q0 88 42.5 151t115 102.5t167 57t196.5 17.5q116 0 214 -14t169.5 -50.5t111.5 -97.5t40 -152v-1603q0 -27 -7.5 -54.5t-23.5 -49 t-39.5 -34t-53.5 -11.5q-32 2 -57 22.5t-46 49.5l-134 186l-165 -256q-9 24 -27.5 53t-41 58t-46.5 54t-44 40q-13 -55 -42 -96t-71.5 -69t-91.5 -40.5t-101 -12.5q-53 0 -98 14t-79 42.5t-53.5 69t-19.5 91.5q1 60 26.5 104.5t66 73t91.5 43t101 14.5q28 0 53 -3t44.5 -6.5 t31.5 -6.5t15 -3q3 11 5 29t3.5 38t2.5 40t-1 36h176q0 -1 1.5 -11t0 -33t-6 -61t-12.5 -92q11 -8 26 -19t32.5 -25t33 -29.5t25.5 -29.5l157 231l198 -238v1461q0 60 -22.5 100t-67.5 63t-111.5 32t-153.5 9q-84 0 -150.5 -9t-113 -30t-71 -54.5t-24.5 -81.5v-50h216v-125 q-7 0 -21.5 -3.5t-33 -13t-40 -26.5t-41.5 -43q-16 -20 -23.5 -40.5t-12 -40t-4.5 -35.5v-30v-483q0 -59 -19 -109t-54.5 -86.5t-84 -57t-105.5 -19.5q-54 2 -99 21t-78 52t-51.5 76.5t-18.5 94.5zM230 238q0 -31 13 -56.5t39.5 -43.5t66.5 -18t65.5 18t39.5 43.5t14 56.5 t-14 56.5t-40 43t-65 17.5q-40 0 -66.5 -17.5t-39.5 -43t-13 -56.5zM376 -386q2 -30 26 -52t67 -24q33 0 58.5 12t43.5 33t28 49t13 56q-47 20 -99 20q-21 0 -46 -5t-45 -17t-33.5 -29t-12.5 -43z" />
<glyph unicode="&#xe10;" horiz-adv-x="1355" d="M-30 -403q0 48 18 88t48 69.5t70.5 45.5t86.5 16q37 -2 68 -11t48 -25q4 27 6 60t1 66h143q0 -53 -6 -105q-7 -50 -15 -104l54 -85l96 179q15 -48 37 -93q19 -38 46 -79t63 -69q57 -46 114 -40.5t97 62.5q-44 -1 -83.5 11t-69.5 36.5t-48 59t-18 78.5q-1 44 14.5 82 t43.5 65t65.5 43.5t78.5 16.5q56 0 96 -19t65.5 -50.5t38 -71.5t12.5 -83q0 -65 -20 -128.5t-57.5 -113.5t-91 -81.5t-120.5 -31.5q-44 0 -81.5 8t-70.5 25t-61.5 45.5t-54.5 71.5l-72 -138h-38l-91 157q-16 -44 -38 -73.5t-48.5 -46.5t-57.5 -24.5t-61 -7.5 q-37 0 -73.5 13.5t-65.5 38.5t-48.5 61t-19.5 82zM97 -389q-1 -17 4.5 -33.5t16.5 -29.5t26 -21.5t33 -8.5q27 0 48 13t34.5 33t20.5 44t7 47q-2 6 -11 14t-22.5 15t-29 12t-32.5 5q-40 0 -66.5 -26.5t-28.5 -63.5zM152 1088q-13 55 2 112t53 107t97 88.5t134 57.5 q60 14 110.5 17.5t97 -1.5t87.5 -15t81.5 -20.5t82 -20t85.5 -10.5q33 -3 74.5 12.5t76.5 51.5l77 -139q-20 -18 -45 -31t-52.5 -20t-54.5 -11q-28 -3 -54 -3q-66 0 -119.5 10t-105 21.5t-108 21.5t-128.5 10q-45 0 -84.5 -10t-69 -29t-46 -45t-16.5 -59q0 -10 16.5 -11.5 t49.5 0.5t79.5 4t108 0.5t135 -10.5t159.5 -31q76 -20 128 -45.5t83.5 -59t46 -78t14.5 -103.5v-647q0 -56 -21 -96t-55 -65t-79 -37.5t-94 -12.5q-59 0 -100.5 17.5t-69 46t-43.5 68.5t-24 86l-42 246q-37 -19 -69 -25.5t-65 -6.5q-52 0 -95.5 18.5t-75.5 51.5t-50.5 76.5 t-18.5 92.5q0 53 18.5 97.5t50.5 77t78 50.5t98 18q123 0 189.5 -67t82.5 -183l59 -413q3 -26 9.5 -45.5t15.5 -32t24 -18.5t39 -6q18 0 30.5 3.5t20.5 13.5t11.5 27.5t3.5 42.5v590q0 54 -20 92.5t-65 64.5t-118 41.5t-177 24.5q-95 8 -173.5 4.5t-136.5 -4t-92 8t-41 39.5 zM378 666.5q0 -31.5 12.5 -57.5t39 -43t65.5 -17q40 0 66.5 17t39 43t12.5 57.5t-12.5 57t-39 43t-66.5 17.5t-66 -17.5t-38.5 -43t-12.5 -57zM845 -237q0 -19 7 -35.5t19.5 -28t28 -18.5t32.5 -7q20 0 36.5 8t28 20t18 27.5t6.5 31.5q0 20 -7 36.5t-20 28t-28.5 17 t-30.5 5.5q-21 0 -37.5 -7t-28 -19t-18 -28t-6.5 -31z" />
<glyph unicode="&#xe11;" horiz-adv-x="1733" d="M92 1127q0 66 21 128t61 110t96 77t123 29q63 0 105.5 -14t67.5 -31t37.5 -31.5t17.5 -14.5q2 0 13.5 13.5t31 30t46.5 30t62 13.5q43 0 71.5 -32t42 -82t13.5 -112.5t-13 -120.5q-13 -50 -29.5 -88t-35.5 -69.5t-36.5 -59.5t-31.5 -56.5t-23.5 -62t-9.5 -78.5v-246 q-1 2 6 24t20 60.5t33.5 91.5t46.5 114.5t57.5 130.5t66.5 140q49 94 97.5 175t98 141t100 94.5t105.5 35.5q48 2 80.5 -16t52.5 -47.5t29 -67.5t9 -76v-1260h-171v1227q0 11 -3 22t-7.5 19.5t-13 14t-21.5 5.5q-18 0 -42.5 -23.5t-52.5 -64t-58.5 -96.5t-62.5 -120.5 t-63 -133.5t-61 -139q-59 -138 -102.5 -253.5t-72.5 -205.5t-46.5 -154t-24.5 -98h-171v728q0 51 13.5 85t34 66.5t46.5 69.5q27 36 53 93q20 45 29 88t11.5 77t-4 54t-19.5 20q-11 0 -26 -15.5t-29.5 -34t-25.5 -36t-11 -20.5q0 3 -7 17.5t-20 32.5t-30 37t-38 34 q-29 20 -54.5 28.5t-45 10.5t-31.5 0t-15 -2q40 -9 69 -29.5t48 -50.5t29 -66.5t10 -72.5q0 -60 -17.5 -106t-46.5 -76t-69 -45.5t-89 -15.5q-46 0 -86.5 17t-71.5 50t-48.5 81t-17.5 108zM220 1105q0 -30 11 -54t32.5 -41.5t52.5 -17.5q33 0 55 17.5t33 41.5t11 54t-11 55 t-33 41.5t-55 16.5q-31 0 -52.5 -16.5t-32.5 -41.5t-11 -55z" />
<glyph unicode="&#xe12;" horiz-adv-x="2110" d="M210 0v1135q0 18 3 43.5t13.5 57.5t33.5 68q22 34 60 72q40 37 83 56t80.5 27t62.5 9.5t26 2.5l190 -153l202 153q70 -1 135.5 -29t117.5 -69q40 -35 61.5 -67t32 -62t13.5 -58.5t3 -54.5v-528q0 -27 15 -44.5t42 -32.5t62 -29.5t74 -31.5q56 -27 96 -54.5t65 -48 t36 -33.5q12 -14 12 -12v1147h171v-1464h-171q0 11 -2 22.5t-5 24.5q-12 49 -37.5 94.5t-61.5 83.5t-79.5 66t-89.5 42q9 -20 13 -43.5t4 -49.5q-1 -54 -21.5 -100.5t-56.5 -80t-82.5 -53t-97.5 -19.5q-59 0 -107.5 22t-83 60t-53.5 87.5t-21 102.5q0 48 13 94t38.5 84 t64.5 64q40 27 91 37v586q0 11 -2 27t-6 33t-12 35t-21 34q-17 20 -37 32t-36.5 18.5t-27.5 8.5t-12 2l-239 -179l-230 172q-1 0 -10.5 -0.5t-25.5 -5t-35 -15t-39 -30.5q-16 -16 -24 -34.5t-11.5 -37.5t-4 -35t-0.5 -29v-937q26 21 46 40.5t41 40.5t46.5 45t56.5 57 t73.5 75t99.5 101q-11 0 -32 3t-46.5 11.5t-52 23.5t-48 40t-35.5 59q-13 33 -13 81.5t15.5 92.5t46.5 77.5t76.5 52.5t105.5 19q49 0 94.5 -14t81.5 -43.5t57 -71.5q20 -44 20 -98q0 -66 -22.5 -121.5t-65 -110.5t-98 -112.5t-121.5 -123t-112.5 -112t-78.5 -79t-53 -52.5 t-33.5 -32t-20 -19t-12.5 -13h-188zM656 769.5q0 -28.5 12.5 -53.5t36.5 -41t61 -16q38 0 62 16t35.5 41t11.5 53.5t-11.5 53t-35.5 40t-62 15.5q-37 0 -61 -15.5t-36.5 -40t-12.5 -53zM1100 263.5q0 -33.5 12.5 -62t37.5 -47t62.5 -18.5t61.5 18.5t36.5 47t12.5 62 t-12.5 62.5t-36.5 47.5t-61.5 18.5t-62.5 -18.5t-37.5 -47.5t-12.5 -62.5z" />
<glyph unicode="&#xe13;" horiz-adv-x="2040" d="M213 981v162q0 88 42 151t112.5 102.5t163 57t195.5 17.5q116 0 209 -16t160.5 -53.5t104 -97.5t36.5 -147v-840q0 -1 10 9.5t27 28.5t43.5 40.5t57.5 44.5q32 20 58.5 37.5t49 32.5t44 28.5t41.5 24.5q32 20 50.5 41.5t28.5 44t12 49t2 57.5v709h172v-713 q0 -36 -4.5 -70.5t-16.5 -63.5t-33.5 -52.5t-55.5 -36.5q103 -32 155.5 -102t52.5 -174q0 -58 -18.5 -106.5t-52 -83.5t-79 -55t-98.5 -18q-56 1 -103 21.5t-82.5 56.5t-53 84t-14.5 101q1 13 2.5 24t4.5 24q-33 -20 -70 -52q-38 -34 -73 -88q-16 -21 -24.5 -41t-15 -39.5 t-11 -39.5t-6.5 -40h-174v1124q0 56 -17.5 95t-57.5 63.5t-103 35t-150 10.5q-85 0 -149 -9t-108.5 -30t-68 -54.5t-23.5 -81.5v-50h217v-125q-7 0 -21.5 -3.5t-33 -13t-39 -26.5t-42.5 -43q-16 -20 -23.5 -40.5t-12 -40t-4.5 -35.5v-30v-281q7 1 29.5 7t56.5 6 q53 0 98.5 -17.5t79.5 -49.5t54 -77t20 -99.5t-20 -99.5t-54.5 -78t-80.5 -51.5t-97 -18.5q-59 0 -106 21.5t-81.5 59.5t-52 87t-17.5 105v468q0 36 7 74.5t33 79.5q22 37 55 63q30 25 68 36h-205zM396 234q0 -31 13 -56.5t38.5 -43t65.5 -17.5t66.5 17.5t39.5 43t13 56.5 t-13 56.5t-39.5 43.5t-66.5 18t-65.5 -18t-38.5 -43.5t-13 -56.5zM1572 252q0 -25 7 -47t20.5 -40.5t34.5 -29.5t48 -11t48.5 11t35 29.5t20.5 40.5t7 47q0 24 -7 47.5t-20.5 41.5t-35 28.5t-48.5 10.5t-48 -10.5t-34.5 -28.5t-20.5 -41.5t-7 -47.5z" />
<glyph unicode="&#xe14;" horiz-adv-x="1535" d="M210 0v1157q0 87 46 147t122.5 97.5t177 53.5t210.5 16q116 0 217.5 -14t178 -50t121 -96.5t44.5 -153.5v-1157h-172v1124q0 64 -27 104t-76.5 62.5t-121 30t-161.5 7.5q-100 0 -173 -13.5t-119.5 -40.5t-69 -65t-22.5 -85v-930q77 76 134 135t98 101.5t66.5 72.5 t40.5 49t21 29t7 12q-11 0 -32 3t-46.5 11.5t-52 24.5t-48 41t-35 60.5t-13.5 83.5q0 57 20.5 102t55 75.5t79.5 46.5t94 16q55 0 101 -16.5t78 -46.5t50.5 -72.5t18.5 -93.5q0 -60 -25.5 -125t-68.5 -131.5t-98 -132.5t-113 -127.5t-114.5 -116.5t-100.5 -101l-99 -94h-193 zM664 818q0 -20 7 -39.5t21 -34.5t34 -24t48 -9q27 0 47.5 9t34 24t21 34.5t7.5 39.5q0 21 -7.5 41t-21 36t-34 25.5t-47.5 9.5q-28 0 -48.5 -10.5t-34 -26t-20.5 -35.5t-7 -40z" />
<glyph unicode="&#xe15;" horiz-adv-x="1535" d="M210 0v1135q0 18 3 43.5t13.5 57.5t33.5 68q22 34 60 72q40 37 83 56t80.5 27t62.5 9.5t26 2.5l190 -153l202 153q70 -1 135.5 -29t117.5 -69q40 -35 61.5 -67t32 -62t13.5 -58.5t3 -54.5v-1131h-172v1124q0 11 -2 27t-6 33t-12 35t-21 34q-17 20 -37 32t-36.5 18.5 t-27.5 8.5t-12 2l-239 -179l-230 172q-1 0 -10.5 -0.5t-25.5 -5t-35 -15t-39 -30.5q-16 -16 -24 -34.5t-11.5 -37.5t-4 -35t-0.5 -29v-937l58 54q30 26 60.5 57t71.5 72l173 176q-11 0 -32 3t-46.5 12t-52 25t-48 41t-35 61.5t-13.5 84.5q0 55 19 98.5t52.5 73.5t79 46.5 t96.5 16.5q50 0 96 -16.5t80 -46.5t54 -72t20 -94q0 -66 -22.5 -121.5t-65 -110.5t-98 -112.5t-121.5 -123.5l-228 -227q-25 -26 -45 -44q-17 -19 -37 -36h-188zM656 769q0 -20 7.5 -40t21 -35.5t34 -25t48 -9.5t48 9.5t34 24.5t20.5 35q6 21 6 41t-6.5 39.5t-20 35t-34 25 t-48.5 9.5q-27 0 -47.5 -9.5t-34 -25t-21 -35t-7.5 -39.5z" />
<glyph unicode="&#xe16;" horiz-adv-x="1480" d="M213 981v162q0 58 20 106t55 84.5t83.5 63t107.5 43t124.5 24t134.5 7.5q116 0 213 -14t168.5 -50.5t111.5 -97.5t40 -152v-1157h-171v1124q0 60 -22.5 100t-67.5 63t-111.5 32t-153.5 9q-84 0 -150.5 -9t-113 -30t-71.5 -54.5t-25 -81.5v-50h217v-125q-7 0 -21.5 -3.5 t-33 -13t-39 -26.5t-42.5 -43q-16 -20 -23.5 -40.5t-12 -40t-4.5 -35.5v-30v-281q6 1 21.5 5.5t40 6.5t55.5 -1q32 -4 69 -16q44 -15 78 -48t52.5 -75t21.5 -92q2 -51 -16 -99q-23 -59 -62.5 -94t-85 -51.5t-93.5 -14.5q-49 3 -89 17q-56 23 -87.5 56.5t-49.5 70t-22 71 t-4 59.5v468q0 36 7 74.5t33 79.5q22 37 55 63q30 25 68 36h-205zM396 234q0 -31 13 -56.5t38.5 -43t65.5 -17.5t66.5 17.5t39.5 43t13 56.5t-13 56.5t-39.5 43.5t-66.5 18t-65.5 -18t-38.5 -43.5t-13 -56.5z" />
<glyph unicode="&#xe17;" horiz-adv-x="1653" d="M109 1210q0 56 20 103t54 81.5t81.5 53.5t98.5 19q59 0 106 -19t80.5 -53.5t52.5 -82.5t19 -104v-480l-12 -125q9 36 21 74.5t26 80.5q25 69 63.5 159t91.5 188q37 70 75.5 136t82 116t93.5 80q51 30 108 30q77 -1 128.5 -28.5t83.5 -71.5t46.5 -100.5t14.5 -116.5v-1150 h-172v1145q0 29 -5 58.5t-17.5 53.5t-34 38.5t-53.5 14.5q-26 0 -63.5 -34.5t-82.5 -103t-98 -170.5q-52 -104 -106 -241q-50 -126 -83.5 -232t-56 -198t-33 -174.5t-15.5 -156.5h-175v988q-6 -1 -24 -7t-49 -7q-53 -2 -101 14t-85 47.5t-58.5 75.5t-21.5 99zM246 1219 q0 -31 13 -56.5t39.5 -42.5t64.5 -17q40 0 66.5 17t39.5 42.5t13 56.5t-13 56.5t-39.5 43t-66.5 17.5t-65.5 -17.5t-38.5 -43t-13 -56.5z" />
<glyph unicode="&#xe18;" horiz-adv-x="1425" d="M180 978v110q0 103 41.5 176t109.5 119.5t152.5 68t170.5 21.5q54 0 102 -6t95.5 -13.5t95.5 -17.5t101 -19q37 -6 68.5 8t70.5 54l89 -139q-20 -23 -52 -39q-27 -14 -68.5 -23.5t-100.5 -3.5q-55 6 -101.5 16t-94 19t-99.5 16.5t-118 7.5q-71 0 -125 -17.5t-89.5 -43.5 t-53.5 -60t-18 -67v-25q56 8 110.5 15.5t112.5 9.5q49 2 102.5 1t110 -8t112.5 -20q57 -11 111 -34q66 -27 106 -60.5t61 -74t28 -86.5q7 -48 7 -102v-464q0 -60 -11 -114t-36 -95t-68.5 -64.5t-109.5 -23.5h-522q-68 0 -111.5 26.5t-69.5 68.5t-36 95t-10 107v531h172v-528 q0 -41 4 -72t18.5 -51.5t41.5 -30.5t72 -10h368q43 0 68 13.5t38 36.5t16.5 53t3.5 61v465q0 32 -4 57.5t-15 47.5t-29.5 41.5t-46.5 36.5q-35 19 -77 32.5t-88.5 21.5t-95 11.5t-94.5 3.5q-64 -2 -125 -11t-107 -28h-183z" />
<glyph unicode="&#xe19;" horiz-adv-x="1594" d="M104 1213q0 55 21 103t56.5 81.5t83 51.5t101.5 18q57 0 103.5 -20t79.5 -55t51 -83t18 -101v-962q41 49 94.5 90.5t111 75.5t117 63.5t111.5 55.5q61 30 93.5 61t47.5 59t17.5 51.5t2.5 36.5v725h173v-753q0 -27 -6.5 -57.5t-20 -56.5t-35 -47.5t-53.5 -33.5 q103 -31 156.5 -101t53.5 -173q0 -59 -19 -108.5t-52.5 -84.5t-79.5 -53.5t-100 -18.5q-55 2 -100.5 22t-78.5 54t-51.5 79t-19.5 97q0 26 5 53t16 51q-51 -21 -110.5 -56t-114 -79.5t-96.5 -95.5t-59 -102h-176v988q-7 -1 -26.5 -7.5t-52.5 -8.5q-56 -1 -104.5 17t-83 50 t-54.5 76.5t-20 97.5zM239 1219q0 -31 13 -56.5t39 -42.5t65 -17q40 0 66.5 17t39.5 42.5t13 56.5t-13 56.5t-39.5 43t-66.5 17.5t-65.5 -17.5t-38.5 -43t-13 -56.5zM1120.5 242q0.5 -33 12.5 -61.5t36.5 -48t61.5 -19.5t62 19.5t37.5 48t12.5 61.5t-13 61.5t-38 47.5 t-64 19q-37 0 -60.5 -19t-35.5 -47.5t-11.5 -61.5z" />
<glyph unicode="&#xe1a;" horiz-adv-x="1615" d="M73 1214q0 56 20 103t54.5 80.5t81 51.5t98.5 18q59 0 106 -19t80 -53.5t51.5 -82.5t18.5 -104v-891v-31t1 -27.5t4 -28t10 -33.5q13 -35 46.5 -48t73.5 -13h392q73 0 100 47q13 17 18 33t6.5 31.5t1.5 32.5v37v1147h171v-1149q0 -35 -1.5 -65t-6.5 -57t-15 -53.5 t-28 -52.5q-30 -41 -72.5 -64t-99.5 -23h-546q-26 0 -50.5 4.5t-47 13.5t-42 26t-36.5 43q-16 26 -26 55.5t-15.5 58.5t-7 58.5t-1.5 55.5v673q-6 -1 -30 -7t-56 -7q-53 -2 -99.5 15.5t-80.5 49.5t-53.5 77t-19.5 98zM209 1219q0 -31 13 -56.5t39 -42.5t66 -17q41 0 66.5 17 t38.5 42.5t13 56.5t-13 56.5t-38.5 43t-66.5 17.5q-40 0 -66 -17.5t-39 -43t-13 -56.5z" />
<glyph unicode="&#xe1b;" horiz-adv-x="1615" d="M73 1214q0 56 20 103t54.5 80.5t81 51.5t98.5 18q59 0 106 -19t80 -53.5t51.5 -82.5t18.5 -104v-891v-31t1 -27.5t4 -28t10 -33.5q13 -35 46.5 -48t73.5 -13h392q73 0 100 47q13 17 18 33t6.5 31.5t1.5 32.5v37v1814h171v-1816q0 -35 -1.5 -65t-6.5 -57t-15 -53.5 t-28 -52.5q-30 -41 -72.5 -64t-99.5 -23h-546q-26 0 -50.5 4.5t-47 13.5t-42 26t-36.5 43q-16 26 -26 55.5t-15.5 58.5t-7 58.5t-1.5 55.5v673q-6 -1 -30 -7t-56 -7q-53 -2 -99.5 15.5t-80.5 49.5t-53.5 77t-19.5 98zM209 1219q0 -31 13 -56.5t39 -42.5t66 -17q41 0 66.5 17 t38.5 42.5t13 56.5t-13 56.5t-38.5 43t-66.5 17.5q-40 0 -66 -17.5t-39 -43t-13 -56.5z" />
<glyph unicode="&#xe1c;" horiz-adv-x="1478" d="M237 0v1208q0 56 19 104t52.5 82.5t81.5 53.5t106 19q56 0 102.5 -18.5t80 -52t51.5 -80t18 -103.5q0 -55 -19.5 -99t-53.5 -76.5t-81.5 -49.5t-98.5 -14q-32 1 -57 7t-29 7v-772l279 425h130l279 -425v1248h173v-1464h-206l-312 472l-310 -472h-205zM375 1219 q0 -31 13.5 -56.5t40 -42.5t64.5 -17q40 0 66 17t39.5 42.5t13.5 56.5t-13.5 56.5t-39.5 43t-66 17.5t-65.5 -17.5t-39 -43t-13.5 -56.5z" />
<glyph unicode="&#xe1d;" horiz-adv-x="1478" d="M237 0v1208q0 56 19 104t52.5 82.5t81.5 53.5t106 19q56 0 102.5 -18.5t80 -52t51.5 -80t18 -103.5q0 -55 -19.5 -99t-53.5 -76.5t-81.5 -49.5t-98.5 -14q-32 1 -57 7t-29 7v-772l279 425h130l279 -425v1915h173v-2131h-206l-312 472l-310 -472h-205zM375 1219 q0 -31 13.5 -56.5t40 -42.5t64.5 -17q40 0 66 17t39.5 42.5t13.5 56.5t-13.5 56.5t-39.5 43t-66 17.5t-65.5 -17.5t-39 -43t-13.5 -56.5z" />
<glyph unicode="&#xe1e;" horiz-adv-x="1726" d="M97 1213q0 55 18.5 102.5t51.5 81t79.5 52t102.5 18.5q59 0 106.5 -19t81.5 -53.5t53 -81.5t19 -103v-672l-7 -146l293 1072h137l316 -1072l-2 146v926h171v-1464h-209l-340 1153l-319 -1153h-211v988q-6 -1 -30.5 -7t-55.5 -7q-53 -2 -99.5 14.5t-81 49t-54.5 77.5 t-20 98zM235 1219q0 -31 12.5 -56.5t39 -42.5t65.5 -17q40 0 66.5 17t39 42.5t12.5 56.5t-12.5 56.5t-39 43t-66.5 17.5t-66 -17.5t-38.5 -43t-12.5 -56.5z" />
<glyph unicode="&#xe1f;" horiz-adv-x="1726" d="M97 1213q0 55 18.5 102.5t51.5 81t79.5 52t102.5 18.5q59 0 106.5 -19t81.5 -53.5t53 -82.5t19 -104v-640l-7 -176l293 1072h137l316 -1072l-2 176v1563h171v-2131h-209l-344 1157l-315 -1157h-211v988q-10 -3 -32.5 -8t-53.5 -6q-53 -2 -99.5 14.5t-81 49t-54.5 77.5 t-20 98zM235 1219q0 -31 12.5 -56.5t39 -42.5t65.5 -17q40 0 66.5 17t39 42.5t12.5 56.5t-12.5 56.5t-39 43t-66.5 17.5t-66 -17.5t-38.5 -43t-12.5 -56.5z" />
<glyph unicode="&#xe20;" horiz-adv-x="1663" d="M99.5 248q2.5 49 21.5 92t52 76t77 49q37 13 68.5 15.5t56 0t41 -7t22.5 -4.5v259q0 36 7 74.5t33 79.5q22 36 53.5 62t70.5 37h-204v162q0 88 42.5 151t115 102.5t167 57t196.5 17.5q116 0 214 -14t169.5 -50.5t111.5 -97.5t40 -152v-1157h-171v1124q0 60 -22.5 100 t-67.5 63t-111.5 32t-153.5 9q-84 0 -150.5 -9t-113 -30t-71 -54.5t-24.5 -81.5v-50h216v-125q-7 0 -21.5 -3.5t-33 -13t-40 -26.5t-41.5 -43q-16 -20 -23.5 -40.5t-12 -40t-4.5 -35.5v-30v-483q0 -26 -5 -60t-23 -70t-50 -69.5t-86 -56.5q-42 -16 -90.5 -16.5t-94.5 16 t-84.5 51t-61.5 92.5q-17 49 -14.5 98zM230 238q0 -31 13 -56.5t39.5 -43.5t66.5 -18t65.5 18t39.5 43.5t14 56.5t-14 56.5t-40 43t-65 17.5q-40 0 -66.5 -17.5t-39.5 -43t-13 -56.5z" />
<glyph unicode="&#xe21;" horiz-adv-x="1594" d="M170 1216q0 54 21 99.5t55 79.5t80.5 53t96.5 19q59 0 107 -19t81.5 -53.5t52 -82.5t18.5 -104v-480q0 -2 21 -4.5t56.5 -12t82 -28t96.5 -50.5q82 -52 134.5 -103t84 -91t44 -63.5t12.5 -20.5v1109h173v-1464h-173q-5 23 -20 73.5t-47 116t-83 136t-128 132.5 q-54 42 -100 65t-79.5 34t-52.5 12.5t-21 1.5v-344q0 -48 -11.5 -90.5t-36.5 -74.5t-64 -52.5t-97 -23.5q-65 -5 -120.5 14t-95.5 60.5t-61.5 106.5t-18.5 155q3 80 24.5 152t61.5 127t102.5 90t145.5 41v256q-48 -16 -96 -14q-50 1 -95 19.5t-78 51.5t-52.5 76t-19.5 95z M303 1219q0 -31 13.5 -56.5t40 -42.5t65.5 -17q40 0 65.5 17t39.5 42.5t14 56.5t-14 56.5t-39.5 43t-65.5 17.5t-66 -17.5t-39.5 -43t-13.5 -56.5zM332 320q0 -35 6.5 -69.5t20.5 -62.5t36.5 -44.5t52.5 -16.5q22 0 34.5 9.5t19 23t8 30.5t1.5 33v345q-53 3 -87.5 -21 t-55.5 -61t-28.5 -81.5t-7.5 -84.5z" />
<glyph unicode="&#xe22;" horiz-adv-x="1448" d="M183 1072q3 86 28.5 159t73 125.5t116.5 81.5q68 29 160 29q60 0 108.5 -18t81.5 -51.5t51 -79.5q17 -45 17 -105t-20 -106t-53.5 -75.5t-79.5 -42.5q-45 -14 -97 -11q-58 3 -98.5 26t-65.5 48.5t-37 50t-12 28.5q0 -1 -3 -22t-3 -52.5t6.5 -68t25.5 -70.5 q16 -23 38.5 -41t52 -30t62.5 -17.5t67 -5.5h237v-132h-237q-41 0 -76.5 -15.5t-59.5 -42t-37.5 -61.5t-13.5 -75v-181q0 -41 4 -74.5t18.5 -57t41.5 -36.5t72 -13h391q43 0 68 16.5t37.5 42t16 58.5t3.5 64v1147h171v-1149q0 -60 -10.5 -116.5t-35.5 -100.5t-68 -71 t-109 -27h-545q-70 0 -113.5 28t-69 73t-35 101.5t-9.5 112.5v168q0 42 8.5 89t43.5 94q17 26 37.5 42t38.5 24.5t30 11t14 2.5q-65 10 -109 41t-72 74.5t-39.5 98t-11.5 112.5zM455 1223q0 -30 12.5 -56t38.5 -44t66 -18t66 18t38.5 44t12.5 56t-12.5 55.5t-38.5 43.5 t-66 18t-66 -18t-38.5 -43.5t-12.5 -55.5z" />
<glyph unicode="&#xe23;" horiz-adv-x="1249" d="M106.5 1065.5q-0.5 37.5 12.5 89.5q17 78 54 136.5t88.5 98t117.5 59.5q64 21 139 22q54 2 101 -6.5t93.5 -19.5t97.5 -19.5t114 -8.5q34 0 59 8t41.5 19.5t24.5 19t11 7.5l65 -157q-41 -27 -74.5 -37t-65.5 -10q-66 0 -124.5 10.5t-113.5 24.5t-106.5 24.5t-102.5 9.5 q-40 0 -80 -11.5t-74 -36t-58 -58t-31 -77.5q35 0 75 -2.5t82 -5.5q74 -8 160.5 -21.5t175.5 -43.5q71 -23 120 -50.5t78 -63t42 -85t13 -116.5v-502q0 -57 -19.5 -106.5t-54.5 -86.5t-82.5 -58t-103.5 -21q-55 0 -100.5 20t-78.5 54t-52 79.5t-19 95.5q1 55 21.5 100 t55 76.5t79.5 48.5t95 17q35 0 56 -6q23 -4 31 -7v277q0 62 -16 104t-53.5 71t-97.5 48q-58 19 -147 33q-97 16 -176.5 20.5t-136 3.5t-89.5 -3t-39 2q-7 3 -7.5 40.5zM664 238q0 -31 12.5 -56.5t38.5 -43.5t66 -18t66.5 18t39 43.5t12.5 56.5t-12.5 56.5t-39 43t-66.5 17.5 t-66 -17.5t-38.5 -43t-12.5 -56.5z" />
<glyph unicode="&#xe24;" horiz-adv-x="1480" d="M213 981v162q0 58 20 106t55 84.5t83.5 63t107.5 43t124.5 24t134.5 7.5q116 0 213 -14t168.5 -50.5t111.5 -97.5t40 -152v-1758h-171v1725q0 60 -22.5 100t-67.5 63t-111.5 32t-153.5 9q-84 0 -150.5 -9t-113 -30t-71.5 -54.5t-25 -81.5v-50h217v-125q-7 0 -21.5 -3.5 t-33 -13t-39 -26.5t-42.5 -43q-16 -20 -23.5 -40.5t-12 -40t-4.5 -35.5v-30v-281q6 1 21.5 5.5t40 6.5t55.5 -1q32 -4 69 -16q44 -15 78 -48t52.5 -75t21.5 -92q2 -51 -16 -99q-23 -59 -62.5 -94t-85 -51.5t-93.5 -14.5q-49 3 -89 17q-56 23 -87.5 56.5t-49.5 70t-22 71 t-4 59.5v468q0 36 7 74.5t33 79.5q22 37 55 63q30 25 68 36h-205zM396 234q0 -31 13 -56.5t38.5 -43t65.5 -17.5t66.5 17.5t39.5 43t13 56.5t-13 56.5t-39.5 43.5t-66.5 18t-65.5 -18t-38.5 -43.5t-13 -56.5z" />
<glyph unicode="&#xe25;" horiz-adv-x="1451" d="M184 1075v68q0 88 43 151t116 102.5t167.5 57t197.5 17.5q116 0 213 -14t168.5 -50.5t112.5 -97.5t41 -152v-1157h-173v176q0 51 -6.5 108.5t-25 123t-51 140t-85.5 158.5q-25 42 -55 78.5t-64 63.5t-71 43t-74 16q-55 0 -99 -20t-76.5 -54.5t-48.5 -79t-16 -91.5v-197 q7 1 31 7t59 6q48 0 93 -16.5t79.5 -49t54.5 -77.5t20 -100q0 -52 -20.5 -97.5t-56 -78.5t-80.5 -52.5t-93 -19.5q-57 0 -105 19.5t-82.5 53t-53.5 81.5t-19 105v399q0 59 15.5 111t44 97t66.5 81t84.5 61t97 38.5t103.5 13.5q50 0 94 -11t82.5 -31t70.5 -45t59 -52 q36 -40 68 -85t60 -98v399q0 60 -22.5 100t-67.5 64.5t-111.5 34.5t-153.5 10q-84 0 -150.5 -10t-112.5 -31.5t-71 -56t-25 -82.5v-78h-172zM366 234q0 -31 13 -56.5t39.5 -43t66.5 -17.5t65.5 17.5t39 43t13.5 56.5t-13.5 56.5t-40 43.5t-64.5 18q-40 0 -66.5 -18 t-39.5 -43.5t-13 -56.5z" />
<glyph unicode="&#xe26;" horiz-adv-x="1653" d="M89 248q3 49 21.5 92t51 76t78.5 49q37 13 68.5 15.5t55.5 0t40 -7t22 -4.5v259q0 36 8 74.5t32 79.5q22 35 54.5 61.5t70.5 37.5h-206v162q0 88 43.5 151t115.5 102.5t167.5 57t197.5 17.5q116 0 213.5 -14t169 -50.5t111.5 -97.5t40 -152v-1758h-172v1725q0 60 -22 100 t-67 63t-111.5 32t-153.5 9q-85 0 -151.5 -9t-113 -30t-70.5 -54.5t-24 -81.5v-50h216v-125q-8 0 -22 -3.5t-32.5 -13t-39.5 -26.5t-42 -43q-16 -20 -24 -40.5t-11.5 -40t-4.5 -35.5v-30v-483q0 -26 -5 -60t-22.5 -70t-50 -69.5t-87.5 -56.5q-41 -16 -89 -16.5t-94.5 16 t-85 51t-61.5 92.5q-17 49 -14 98zM220 238q0 -31 13 -56.5t38.5 -43.5t65.5 -18q41 0 67 18t39 43.5t13 56.5t-13 56.5t-39 43t-67 17.5q-40 0 -65.5 -17.5t-38.5 -43t-13 -56.5z" />
<glyph unicode="&#xe27;" horiz-adv-x="1242" d="M93 1091v52q0 88 33.5 151t95 102.5t146.5 57t190 17.5q116 0 203.5 -20.5t148.5 -60.5t91.5 -98.5t30.5 -134.5v-907q0 -58 -18.5 -105.5t-52.5 -81.5t-82 -53t-105 -19q-53 0 -98 19.5t-79 52.5t-52.5 77t-21.5 93q-1 56 18.5 101.5t53.5 78.5t79 51t97 18q34 0 59 -6 q25 -4 31 -7v655q0 54 -14.5 93t-49.5 64.5t-93.5 38.5t-145.5 13q-83 0 -140.5 -11.5t-93 -36t-51.5 -60t-16 -82.5v-52h-164zM655 238q0 -31 13.5 -56.5t39.5 -43.5t66 -18t66.5 18t39 43.5t12.5 56.5t-12.5 56.5t-39 43t-66.5 17.5t-66 -17.5t-39.5 -43t-13.5 -56.5z" />
<glyph unicode="&#xe28;" horiz-adv-x="1535" d="M210 0v1157q0 87 46 147t122.5 97.5t177 53.5t210.5 16q56 0 103.5 -1t91 -7t86.5 -16t88 -27q28 17 48.5 43t35 56t21 62t6.5 62h183q-2 -46 -12 -91.5t-29 -88t-48.5 -78t-68.5 -59.5q29 -40 42.5 -81t13.5 -88v-1157h-172v1124q0 64 -27 104t-76.5 62.5t-121 30 t-161.5 7.5q-100 0 -173 -13.5t-119.5 -40.5t-69 -65t-22.5 -85v-491l-10 -110l84 219q7 17 18 46t27.5 61t39 65t55 60.5t74 46.5t93.5 21q61 3 111 -12.5t84 -49t53.5 -81t19.5 -104.5q0 -69 -21 -117.5t-55 -79t-78.5 -45.5t-91.5 -15q-123 0 -197 80q-2 -5 -11 -20 t-24 -48.5t-35.5 -88.5t-42.5 -135q-23 -81 -47 -164q-22 -83 -33 -162h-188zM671 790.5q0 -28.5 12 -52.5t37 -40.5t61 -16.5q37 0 61.5 16.5t36.5 40.5t12 52.5t-12 53.5t-36.5 41t-61.5 16t-61.5 -16t-36.5 -41t-12 -53.5z" />
<glyph unicode="&#xe29;" horiz-adv-x="1723" d="M73 1214q0 56 20 103t54.5 80.5t81 51.5t98.5 18q59 0 105.5 -19t80 -53.5t52 -82.5t18.5 -104v-891q0 -17 -0.5 -31t1 -27.5t4.5 -28t10 -33.5q13 -35 46 -48q31 -13 74 -13h392q35 0 60 11.5t40 35.5q11 17 17 33t7.5 31.5t0.5 32.5t-1 37v152q-30 -3 -60.5 -5t-63.5 1 q-27 1 -59.5 3t-67.5 6.5t-70.5 14t-70.5 23.5q-50 19 -82 52.5t-48 72t-16 80.5t14 79.5t39.5 66.5t64.5 45q48 20 99 21.5t94.5 -15t75 -51.5t41.5 -84q11 -45 6 -78t-13 -53q-9 -13 -14.5 -22.5t-14.5 -17.5q2 0 9 -1.5t18.5 -3t23 -2t22.5 -0.5h32q11 0 20 2q17 0 21 5 v856h173v-831q20 9 33.5 17t24.5 18t22.5 25.5t25.5 41.5q24 44 27.5 84t1.5 73h161q9 -74 -11 -146t-73 -131q-36 -44 -74 -68t-69 -38q-20 -9 -36.5 -12.5t-32.5 -6.5v-175q0 -35 -1.5 -65t-7 -57t-15.5 -53.5t-27 -52.5q-30 -41 -72.5 -64t-99.5 -23h-546 q-26 0 -50.5 4.5t-47 13.5t-42.5 26t-36 43t-26 55.5t-15.5 58.5t-7 58.5t-1.5 55.5v673q-6 -1 -30 -7t-56 -7q-53 -2 -99.5 15.5t-80.5 49.5t-53.5 77t-19.5 98zM209 1219q0 -31 13 -56.5t39 -42.5t66 -17q41 0 66.5 17t38.5 42.5t13 56.5t-13 56.5t-38.5 43t-66.5 17.5 q-40 0 -66 -17.5t-39 -43t-13 -56.5zM822 721.5q0 -23.5 10 -44.5t30 -33.5t50 -12.5t51 12.5t30 33.5t9 44.5t-9 43.5t-30 33.5t-51 13.5t-50 -13.5t-30 -33.5t-10 -43.5z" />
<glyph unicode="&#xe2a;" horiz-adv-x="1451" d="M184 1075v68q0 87 42.5 150t114 102t166.5 57.5t201 18.5q101 0 165.5 -8.5t104.5 -16.5l70 -26q9 3 15.5 8.5t14.5 14.5q12 11 26 27.5t24 42.5q20 41 26.5 75t6.5 59h185q0 -33 -11.5 -87t-44.5 -117q-13 -27 -29.5 -49.5t-33.5 -35.5q-9 -8 -19 -14.5t-21 -15.5 l16 -21q8 -11 11.5 -21t12.5 -30q9 -26 12.5 -50.5t3.5 -48.5v-1157h-173v176q0 51 -6.5 108.5t-24.5 124t-51 140.5t-86 157q-28 49 -64 90t-76.5 68t-85 37.5t-93.5 -0.5q-38 -10 -71.5 -31t-59.5 -51t-40 -69t-14 -88v-197q7 1 31 7t59 6q48 0 93 -16.5t79.5 -49 t54.5 -77.5t20 -100q0 -52 -20.5 -97.5t-56 -78.5t-80.5 -52.5t-93 -19.5q-57 0 -105 19.5t-82.5 53t-53.5 81.5t-19 105v399q0 73 23.5 137.5t67 117t105.5 88.5t137 52q63 12 118.5 5t103.5 -26t88 -48.5t72 -62.5t56.5 -66t41 -59.5t24.5 -43.5t8 -18v407q0 56 -23 94.5 t-69 63.5t-112 36q-65 11 -154 11q-84 0 -150 -11t-111.5 -33.5t-70 -59t-24.5 -86.5v-68h-172zM366 234q0 -31 13 -56.5t39.5 -43t66.5 -17.5t65.5 17.5t39 43t13.5 56.5t-13.5 56.5t-40 43.5t-64.5 18q-40 0 -66.5 -18t-39.5 -43.5t-13 -56.5z" />
<glyph unicode="&#xe2b;" horiz-adv-x="1663" d="M92 1214q0 56 20 103t54 80.5t80.5 51.5t99.5 18q59 0 105.5 -19t80 -53.5t52 -82.5t18.5 -104v-563q0 -4 12 20t38 66.5t64.5 93t90.5 102.5q48 45 84 73t59.5 42.5t36.5 19.5q11 5 17 8q-9 5 -22.5 15t-27 28t-23 46.5t-9.5 68.5q0 55 21 100.5t55 78.5t81.5 51 t98.5 18q58 0 105 -18t80.5 -51t51.5 -78t18 -98q0 -31 -6 -62.5t-21 -59.5t-37 -50t-56 -34q38 -15 64.5 -44.5t44 -66.5t25 -76.5t7.5 -76.5v-761h-171v758q0 44 -8.5 82t-26 66t-44 43.5t-60.5 15.5t-83 -25.5t-100.5 -69t-100.5 -103t-86 -126.5q-39 -70 -70.5 -139.5 t-54.5 -135.5t-35 -127.5t-12 -114.5v-124h-172v988q-5 -1 -29.5 -7t-55.5 -7q-53 -2 -99.5 15.5t-81 49.5t-53.5 77t-19 98zM227 1219q0 -31 14 -56.5t39.5 -42.5t65.5 -17t66 17t38.5 42.5t12.5 56.5t-12.5 56.5t-38.5 43t-66 17.5t-65.5 -17.5t-39.5 -43t-14 -56.5z M1061 1225.5q0 -21.5 7 -43t22 -38t37.5 -25.5t52.5 -9t51.5 9t36.5 25.5t22.5 38t7.5 43.5t-7.5 43t-22.5 37.5t-36.5 26.5t-51.5 10t-52.5 -10t-37.5 -26.5t-22 -38t-7 -43z" />
<glyph unicode="&#xe2c;" horiz-adv-x="1723" d="M94 1214q0 56 20 103t54.5 80.5t81.5 51.5t99 18q59 0 106 -19t80.5 -53.5t51.5 -82.5t18 -104v-780v-121l286 678h139l307 -673v113v739q-16 -7 -31.5 -14t-37.5 -13t-52.5 -9.5t-72.5 -3.5q-56 0 -114 9.5t-106.5 30.5t-82 58.5t-38.5 91.5q-4 52 16.5 93.5t60 70.5 t96.5 46.5t128 17.5q98 0 165.5 -17.5t109 -38t59 -39t17.5 -23.5q43 59 60.5 125.5t17.5 135.5h178q2 -35 -8 -101.5t-46 -152.5q-23 -52 -60 -96.5t-83 -71.5v-1263h-200l-349 779l-333 -779h-198v988q-5 -1 -29 -7t-55 -7q-53 -2 -99.5 15.5t-81 49.5t-54.5 77t-20 98z M232 1219q0 -31 12.5 -56.5t39 -42.5t65.5 -17q40 0 66.5 17t39.5 42.5t13 56.5t-13 56.5t-39.5 43t-66.5 17.5t-66 -17.5t-38.5 -43t-12.5 -56.5zM982 1341q-2 -20 11.5 -37t43.5 -30t77 -14q60 -3 113.5 11.5t88.5 54.5q0 2 -9.5 17t-33 31t-64.5 29.5t-102 13.5 q-39 0 -67 -11.5t-42 -28t-16 -36.5z" />
<glyph unicode="&#xe2d;" horiz-adv-x="1444" d="M177 1103v40q0 58 19.5 106t55 84.5t84.5 63t106.5 43t123.5 24t135 7.5q116 0 213.5 -14t169 -50.5t112 -97.5t40.5 -152v-842q0 -60 -11 -116.5t-36.5 -100.5t-68.5 -71q-42 -27 -108 -27h-567q-69 0 -113.5 28t-70 73t-35 101.5t-9.5 112.5v424q0 60 19.5 110t54.5 86 t83 56.5t106 22.5q55 1 101.5 -18t80 -53t52.5 -79q18 -43 18 -95q0 -63 -21.5 -110t-58 -77t-86.5 -45t-104 -14q-34 2 -52 7t-21 5v-218q0 -41 4.5 -74.5t18.5 -57t41 -36.5t72 -13h392q48 0 77.5 14t44.5 38.5t19 58t4 70.5v807q0 60 -22 100t-67 64.5t-111.5 34.5 t-153.5 10q-85 0 -151.5 -10t-112.5 -31.5t-70.5 -56t-24.5 -82.5v-50h-172zM363 768.5q0 -30.5 13 -56.5t39.5 -43t64.5 -17q41 0 67 17t39 43t13 56.5t-13 56.5t-39 43t-67 17q-40 0 -65.5 -17t-38.5 -43t-13 -56.5z" />
<glyph unicode="&#xe2e;" horiz-adv-x="1444" d="M180 1230q0 41 19.5 74.5t53 61t78.5 47.5t98 33.5t111 19t115 5.5q126 0 204.5 -10t126.5 -24t70 -27.5t32 -22.5q12 27 19 58t10.5 60t4.5 56.5t-1 48.5h172q0 -41 -4.5 -88.5t-17.5 -104.5q-8 -37 -16.5 -62t-16.5 -41t-14.5 -25t-10.5 -15q8 -13 13 -33t7.5 -40.5 t2.5 -40v-32.5v-813q0 -60 -11 -116.5t-36.5 -100.5t-68.5 -71q-42 -27 -108 -27h-567q-69 0 -113.5 28t-70 73t-35 101.5t-9.5 112.5v330q0 60 19.5 111t55 87t85 56t106.5 20q55 -1 100.5 -21t78.5 -53.5t51.5 -78.5t18.5 -95q-1 -60 -22 -106t-56 -76t-81.5 -45 t-100.5 -15q-39 0 -59.5 5.5t-23.5 5.5v-123q0 -41 4.5 -74.5t18.5 -57t41 -36.5t72 -13h392q48 0 77.5 14t44.5 38.5t19 58t4 70.5v807q0 1 -19 -14t-67 -34t-127.5 -35t-199.5 -16q-48 0 -102 2.5t-106 9.5t-99 20.5t-83 36.5t-57.5 56.5t-21.5 79.5zM363 674 q0 -30 13 -56t39.5 -44t64.5 -18q41 0 67 18t39 44t13 56t-13 56t-39 43.5t-67 17.5q-40 0 -65.5 -17.5t-38.5 -43.5t-13 -56zM370 1241q0 -27 29 -42t71.5 -23t93.5 -10t97 -2q98 0 162 14.5t101 31.5t52.5 32.5l20.5 20.5q-2 3 -14.5 14t-49 24t-104 24t-177.5 11 q-59 0 -110.5 -6t-89 -18t-60 -30t-22.5 -41z" />
<glyph unicode="&#xe2f;" horiz-adv-x="1477" d="M184 1221q0 60 21 107.5t56.5 79t82 47.5t99.5 16q56 0 102.5 -17.5t78.5 -49t50 -76t18 -98.5q0 -45 -9 -74t-20.5 -48.5t-23 -28.5t-16.5 -14q3 0 29 -0.5t63 7.5t83 27t90 61q31 30 53.5 63.5t37.5 68t25 65t15 55t7 38.5t4 14q1 0 15.5 1t33.5 -0.5t40.5 -7.5 t38.5 -18q23 -18 36 -45t18.5 -60t6.5 -70t1 -74v-875q0 -35 -3 -70t-13 -68t-30 -63.5t-56 -54.5q-17 -13 -38.5 -24.5t-43.5 -21t-43.5 -15t-40.5 -5.5l-101 131q43 3 79.5 16.5t62 36.5t40.5 56t15 79v805q-73 -82 -156 -126t-191 -61q-57 -11 -117.5 -11t-117.5 11 t-108.5 34t-89.5 58.5t-61 85t-23 113.5zM325 1230q0 -30 12 -55t37 -41.5t64 -16.5q37 0 62 16.5t37 41.5t12 55t-12 55t-37 41.5t-62 16.5q-38 0 -63.5 -16.5t-37.5 -41.5t-12 -55z" />
<glyph unicode="&#xe30;" horiz-adv-x="1195" d="M126.5 265.5q-10.5 59.5 3.5 115t52 100.5t94 64q51 20 107.5 18t104 -26.5t81 -70.5t40.5 -114q4 -46 -3.5 -76t-19 -48.5t-21.5 -27t-10 -10.5q3 0 22 -0.5t48.5 4.5t67.5 20t81 46q35 26 55 65.5t30 81t10 78t-4 53.5h190q0 -72 -10.5 -138.5t-37.5 -123t-73 -100.5 t-116 -70q-53 -20 -112.5 -33.5t-120 -21t-121.5 -5t-114 15t-98 37t-75 61.5q-40 46 -50.5 105.5zM126.5 1100.5q-10.5 59.5 3.5 115t52 100.5t94 64q51 20 107.5 18t104 -26.5t81 -70t40.5 -116.5q4 -45 -3.5 -74.5t-19 -49t-21.5 -27t-10 -9.5q3 0 22 -0.5t48.5 3.5 t67.5 20t81 47q23 16 40 39.5t28.5 51t17 56t7.5 53.5t1.5 45.5t-3.5 32.5h190q0 -72 -10.5 -138.5t-37.5 -123t-73 -100.5t-116 -70q-53 -20 -112.5 -34.5t-120 -21t-121.5 -4t-114 15t-98 37t-75 61.5q-40 46 -50.5 105.5zM249 329.5q0 -30.5 13 -56.5t39 -43t67 -17 q40 0 65.5 17t38.5 43t13 56.5t-13 56.5t-38.5 43t-65.5 17q-41 0 -67 -17t-39 -43t-13 -56.5zM249 1164q0 -31 13 -57t39 -43t67 -17q40 0 65.5 17t38.5 43t13 57t-13 57t-38.5 43t-65.5 17q-41 0 -67 -17t-39 -43t-13 -57z" />
<glyph unicode="&#xe31;" d="M-1064 2011q0 51 18 92t48.5 69.5t71.5 44t88 15.5q46 0 86 -16.5t70 -45t47 -68t17 -84.5q0 -42 -15 -79t-38 -69q2 0 19 -2.5t48 -5t71.5 0t87.5 12.5t98.5 29t103.5 54q40 25 65.5 56.5t40.5 64t21.5 63t8.5 59.5l176 3q-3 -20 -9 -51.5t-20 -71t-38.5 -82.5 t-64.5 -84.5t-98.5 -78.5t-141.5 -63q-60 -20 -141 -33q-82 -13 -168 -13q-50 0 -103 4.5t-103 16.5t-94.5 33.5t-78 53t-53.5 75t-20 101.5zM-938 2020.5q0 -25.5 12 -47.5t34.5 -36.5t56.5 -14.5q33 0 54.5 14.5t31.5 36.5t9 47.5t-12.5 48t-33.5 36.5t-53 14 q-35 0 -57 -14t-32 -36.5t-10 -48z" />
<glyph unicode="&#xe32;" horiz-adv-x="1242" d="M93 1091v52q0 88 33.5 151t95 102.5t146.5 57t190 17.5q116 0 203.5 -20.5t148.5 -60.5t91.5 -98.5t30.5 -134.5v-1157h-171v1124q0 54 -14.5 93t-49.5 64.5t-93.5 38.5t-145.5 13q-83 0 -140.5 -11.5t-93 -36t-51.5 -60t-16 -82.5v-52h-164z" />
<glyph unicode="&#xe33;" horiz-adv-x="1242" d="M-581 1994.5q0 51.5 17.5 100.5t51.5 86.5t85 60.5t118 23q69 0 119.5 -23t85 -60.5t51 -86.5t16.5 -100.5t-16.5 -100t-51 -86.5t-85 -60.5t-119.5 -22.5t-119 22.5t-84 60.5t-51.5 86.5t-17.5 100zM-435 1993.5q0 -32.5 14.5 -60.5t42.5 -46.5t69.5 -18.5t68.5 18.5 t41.5 46.5t14.5 60.5t-14.5 60.5t-41.5 46.5t-68.5 18.5t-69.5 -18.5t-42.5 -46.5t-14.5 -60.5zM93 1091v52q0 88 33.5 151t95 102.5t146.5 57t190 17.5q116 0 203.5 -20.5t148.5 -60.5t91.5 -98.5t30.5 -134.5v-1157h-171v1124q0 54 -14.5 93t-49.5 64.5t-93.5 38.5 t-145.5 13q-83 0 -140.5 -11.5t-93 -36t-51.5 -60t-16 -82.5v-52h-164z" />
<glyph unicode="&#xe34;" d="M-1286 1739v137q0 83 36.5 147.5t104 108t162 66.5t208.5 23q146 0 252.5 -29.5t176 -81.5t103 -122t33.5 -152v-97h-1076zM-1110 1875h722v15q0 20 -19 54t-63.5 65.5t-119.5 53.5q-74 22 -185 22q-66 0 -126.5 -10t-107 -32t-74.5 -58q-27 -34 -27 -86v-24z" />
<glyph unicode="&#xe35;" d="M-1286 1739v137q0 83 36.5 147.5t104 108t162 66.5t208.5 23q130 0 227 -23q96 -24 165 -64v227h173v-622h-1076zM-1110 1875h722v15q0 20 -19 54t-63.5 65.5t-119.5 53.5q-74 22 -185 22q-66 0 -126.5 -10t-107 -32t-74.5 -58q-27 -34 -27 -86v-24z" />
<glyph unicode="&#xe36;" d="M-1286 1739v137q0 83 36.5 147.5t104 108t162 66.5t208.5 23q41 0 79 -3t73 -7q0 26 7 51t17.5 46t24 39t29.5 31q39 30 84.5 44.5t92 13.5t89.5 -16t75 -42q34 -31 53 -69t25 -77.5t-1 -77.5t-26 -69q-13 -23 -25 -38t-23.5 -25.5t-22.5 -16.5l-22 -12q36 -70 36 -157 v-97h-1076zM-1110 1875h722v15q0 20 -19 54t-63.5 65.5t-119.5 53.5q-74 22 -185 22q-66 0 -126.5 -10t-107 -32t-74.5 -58q-27 -34 -27 -86v-24zM-483 2193q0 -28 12 -51.5t37 -40t61 -16.5t60 16.5t35.5 40t11.5 51.5t-12 52t-36.5 40t-61.5 16q-36 0 -59.5 -16t-35.5 -40 t-12 -52z" />
<glyph unicode="&#xe37;" d="M-1286 1739v137q0 83 36.5 147.5t104 108t162 66.5t208.5 23q60 0 111 -6v146h155v-173q71 -23 126 -54v227h173v-622h-1076zM-1110 1875h722v15q0 20 -19 54t-63.5 65.5t-119.5 53.5q-74 22 -185 22q-66 0 -126.5 -10t-107 -32t-74.5 -58q-27 -34 -27 -86v-24z" />
<glyph unicode="&#xe38;" d="M-711 -362q0 53 19.5 96t52.5 73t77 46.5t94 17.5q60 0 108 -18.5t81 -52t51 -80.5t18 -105v-387h-172v194q-7 -1 -26.5 -7.5t-51.5 -6.5q-55 0 -100.5 16.5t-79.5 47t-52.5 73t-18.5 93.5zM-573 -360q0 -28 12 -52t35.5 -40.5t59.5 -16.5t59.5 16.5t35.5 40.5t12 52 t-12 51.5t-35.5 40t-59.5 16.5t-59.5 -16.5t-35.5 -40t-12 -51.5z" />
<glyph unicode="&#xe39;" d="M-1103 -413q-1 54 17.5 99t52 76.5t79 49.5t97.5 18q59 0 106 -18.5t80 -52.5t51 -81t18 -104v-196h220v446h172v-596h-564v149q-7 -2 -25 -6t-48 -4q-51 0 -97 14t-81 42t-56.5 69.5t-21.5 94.5zM-964 -401q0 -28 11.5 -52.5t35 -40t59.5 -15.5t59.5 15.5t35.5 40 t12 52.5t-12 51.5t-35.5 40t-59.5 16.5t-59.5 -16.5t-35 -40t-11.5 -51.5z" />
<glyph unicode="&#xe3a;" d="M-478 -324q0 35 16 66t46.5 51t78.5 20q45 0 76 -20t46 -51t15 -66t-15 -65.5t-46 -50.5t-76.5 -20t-77 20t-47.5 50.5t-16 65.5z" />
<glyph unicode="&#xe3e;" />
<glyph unicode="&#xe3f;" horiz-adv-x="1929" d="M363 0v1685h515v343h162v-343h65q105 0 192 -29t149.5 -84t97.5 -133.5t38 -178.5q0 -43 -10 -92.5t-36 -97.5t-71.5 -91.5t-117.5 -74.5q27 -7 60 -20t68 -34.5t67 -52.5t58.5 -73.5t41.5 -98.5t15 -127q0 -102 -36.5 -192t-108 -158t-178.5 -108t-246 -40h-48v-345 h-162v345q0 -1 -22 -1h-59.5t-84 0.5t-94.5 0.5h-255zM552 169h326v622h-326v-622zM552 960h166h160v556h-326v-556zM1040 169h73q88 0 155.5 25.5t111.5 70t65.5 106t21.5 131.5q0 89 -34 145.5t-90.5 88.5t-126.5 43q-72 12 -141 12h-17h-18v-311v-311zM1040 960 q167 -12 257 57.5t90 223.5q0 59 -18.5 109t-60 87t-108 58t-160.5 21v-556z" />
<glyph unicode="&#xe40;" horiz-adv-x="752" d="M235 260v1204h173v-999q5 1 21 5.5t40 6.5t56 -1q31 -4 70 -16q44 -15 77 -48t51.5 -75t20.5 -92q2 -51 -15 -99q-21 -59 -60.5 -94t-86 -51.5t-94.5 -14t-88 16.5q-55 23 -87.5 56.5t-49.5 70t-22.5 71t-5.5 59.5zM378 234q0 -31 12.5 -56.5t38.5 -43t66 -17.5 t66.5 17.5t39 43t12.5 56.5t-12.5 56.5t-39 43.5t-66.5 18t-66 -18t-38.5 -43.5t-12.5 -56.5z" />
<glyph unicode="&#xe41;" horiz-adv-x="1385" d="M235 260v1204h173v-999q5 1 21 5.5t40 6.5t56 -1q31 -4 70 -16q44 -15 77 -48t51.5 -75t20.5 -92q2 -51 -15 -99q-21 -59 -60.5 -94t-86 -51.5t-94.5 -14t-88 16.5q-55 23 -87.5 56.5t-49.5 70t-22.5 71t-5.5 59.5zM378 234q0 -31 12.5 -56.5t38.5 -43t66 -17.5 t66.5 17.5t39 43t12.5 56.5t-12.5 56.5t-39 43.5t-66.5 18t-66 -18t-38.5 -43.5t-12.5 -56.5zM865 260v1204h172v-999q5 1 21 5.5t41 6.5t56 -1q32 -4 69 -16q44 -15 77 -48t51.5 -75t21.5 -92q3 -51 -14 -99q-23 -59 -62.5 -94t-85 -51.5t-94 -14t-88.5 16.5 q-56 23 -88.5 56.5t-49.5 70t-22 71t-5 59.5zM1007 234q0 -31 12.5 -56.5t39 -43t66.5 -17.5t66 17.5t39 43t13 56.5t-13 56.5t-39.5 43.5t-65.5 18q-40 0 -66.5 -18t-39 -43.5t-12.5 -56.5z" />
<glyph unicode="&#xe42;" horiz-adv-x="930" d="M81 2068.5q1 22.5 7 56.5t20 75.5t39.5 81t66.5 72.5t98 50q61 17 112 20t95 -3.5t85 -18.5t84 -26t89.5 -26t101.5 -16q43 -5 71 6t44.5 26t23 28t9.5 13l54 -153q-17 -20 -44 -38q-22 -12 -53.5 -21.5t-66.5 -8.5q-66 5 -121 23t-108 36.5t-108 31t-121 10.5 q-46 -3 -78 -14t-52 -24.5t-32 -29t-17 -30t-6.5 -24t-1.5 -11.5q3 1 27 -2t57 -11.5t70 -22.5t66 -36q20 -17 36.5 -33t28 -37t17 -52.5t5.5 -83.5v-1411q6 1 21.5 5.5t40.5 6.5t57 -1q31 -4 68 -16q45 -15 78 -48t51.5 -75t21.5 -92q2 -51 -15 -99q-23 -59 -62 -94 t-85 -51.5t-94.5 -14t-88.5 16.5q-56 23 -88 56.5t-49 70t-22 71t-5 59.5v1579q0 37 -4.5 65t-14 48.5t-26.5 35t-43 24.5q-41 13 -81 21.5t-76 11.5q-41 6 -81 0q-2 1 -1 23.5zM549 234q0 -31 13 -56.5t39.5 -43t66.5 -17.5t65.5 17.5t38.5 43t13 56.5t-13 56.5t-39.5 43.5 t-64.5 18q-40 0 -66.5 -18t-39.5 -43.5t-13 -56.5z" />
<glyph unicode="&#xe43;" horiz-adv-x="1052" d="M41.5 2042q4.5 77 30 142t71.5 114t113 76t156 30q99 1 173 -26t125 -75.5t79 -114.5t32 -143q3 -50 -5 -94.5t-21.5 -86t-31 -80t-32.5 -75.5t-24 -73.5t-9 -73.5v-1093q6 1 21.5 5t40 6.5t56 0t68.5 -15.5q44 -16 77 -49t51.5 -76t21.5 -92q1 -49 -16 -98 q-23 -58 -61.5 -94t-84 -51.5t-94.5 -14.5t-89 17q-54 23 -87 56.5t-50 69.5t-22 71t-5 59v1294q0 55 12 95.5t29 75t36 68t32.5 73.5t19 91.5t-4.5 124.5q-10 56 -39 95t-70.5 61.5t-92.5 26.5t-102 -11q-40 -10 -66 -29t-42.5 -41t-25.5 -45t-13 -41.5t-4 -31.5v-13l31 33 q20 12 42 22.5t63 10.5q86 0 137 -57t51 -160q0 -55 -16.5 -97t-44.5 -71.5t-66.5 -45t-81.5 -12.5q-70 1 -122.5 29t-86 76.5t-48.5 114.5t-10.5 143zM226 1897.5q-1 -25.5 7.5 -47t27.5 -36.5t51 -15q28 0 47 15t28 36.5t9 47t-9 48t-27 36.5t-44 14q-27 0 -47 -14 t-31 -36.5t-12 -48zM666 238q0 -31 13 -56.5t39.5 -43.5t66.5 -18t66 18t38.5 43.5t12.5 56.5t-12.5 56.5t-39 43t-65.5 17.5q-40 0 -66.5 -17.5t-39.5 -43t-13 -56.5z" />
<glyph unicode="&#xe44;" horiz-adv-x="1029" d="M4 2235l30 183q32 2 60 -4q25 -6 48.5 -19t34.5 -38q17 -32 26 -73.5t11.5 -84.5t4 -85t4.5 -75.5t11 -55t23 -22.5q18 -5 29 11.5t19 46t15 70t18 85t27.5 87.5t42.5 80q17 27 51 43t75 18.5t84.5 -9t78.5 -38t58 -69t23 -102.5q0 -59 -11 -107t-25 -93.5t-30 -93 t-27 -101.5q-6 -33 -8.5 -58.5t-4 -50.5t-1.5 -53v-65v-1093q5 1 21.5 5t40 6.5t56 0t69.5 -15.5q44 -16 78 -49t52.5 -76t20.5 -92t-17 -98q-21 -58 -60.5 -94t-86 -51.5t-94 -14.5t-87.5 17q-56 23 -88.5 56.5t-49.5 69.5t-22 71t-5 59v1294v73.5t4.5 75.5t12 80.5 t23.5 89.5q10 37 24.5 78.5t26.5 84t20 81t5 68.5t-19.5 48t-52.5 18q-20 0 -32.5 -19t-21.5 -48t-17.5 -66t-19.5 -76q-12 -44 -23 -88.5t-30.5 -80.5t-51.5 -58t-87 -22q-56 0 -86 21.5t-47 66t-24 109.5q-9 66 -14 153q-3 42 -16 61.5t-28 25.5t-27 4t-14 -2zM641 238 q0 -31 12.5 -56.5t39 -43.5t66.5 -18t66 18t39 43.5t13 56.5t-13 56.5t-39.5 43t-65.5 17.5q-40 0 -66.5 -17.5t-39 -43t-12.5 -56.5z" />
<glyph unicode="&#xe45;" horiz-adv-x="1229" d="M77 1091v52q0 88 33.5 151t95 102.5t147.5 57t190 17.5q116 0 204 -20.5t149 -60.5t91.5 -98.5t30.5 -134.5v-1758h-171v1725q0 54 -14.5 93t-49.5 64.5t-93.5 38.5t-146.5 13q-83 0 -140 -11.5t-92.5 -36t-51.5 -60t-16 -82.5v-52h-166z" />
<glyph unicode="&#xe46;" horiz-adv-x="1653" d="M449 1152q0 48 15 95t41.5 87t66 70t87.5 46q63 16 114 13.5t91.5 -15t70.5 -32.5t50 -39.5t30 -34t10 -16.5q27 35 59 70q16 11 32.5 23t37 22t42.5 16.5t50 6.5q54 -1 92 -21t64.5 -53t38.5 -76t12 -91v-1179q0 -34 -2 -64.5t-11 -59.5t-25 -59t-45 -63 q-14 -20 -35.5 -35t-46 -27.5t-48.5 -22t-44.5 -16t-32.5 -9.5l-13 -3l-92 135q3 0 22.5 3t46 10t54 20.5t49.5 36.5q23 23 33.5 43.5t14 40.5t3.5 42.5v49.5v1150q0 87 -58 87q-22 0 -44 -17.5t-43 -44.5t-39.5 -57t-31.5 -57t-20 -44.5t-5 -17.5q0 3 -5 18t-15 35t-25 46 t-35 52q-32 38 -60.5 56.5t-50.5 25t-36 6t-15 -0.5q3 0 20 -12.5t34 -38t27 -67.5q10 -41 -1 -101q-7 -46 -30.5 -80t-56 -56.5t-71.5 -33t-78 -7t-74 20t-59 46.5q-31 38 -45.5 84t-14.5 94zM571 1131q0 -24 10.5 -45.5t31 -36t53.5 -14.5q32 0 53.5 14.5t32 36t10.5 45.5 t-10.5 45.5t-32 36t-53.5 14.5q-31 0 -52.5 -14.5t-32 -36t-10.5 -45.5z" />
<glyph unicode="&#xe47;" d="M-1203 1732v220q0 89 16 161.5t59 127.5q43 56 98.5 88t120 47t138 18.5t152.5 3.5q87 0 149 10t104.5 26t69 33.5t40.5 33.5t19 26l5 10l110 -109q-1 0 -11.5 -15.5t-33 -37t-59 -44.5t-90.5 -40q-46 -13 -93 -18t-95 -5.5t-96 1.5t-95 2q-79 0 -141.5 -11.5t-107 -43 t-69 -88t-24.5 -146.5q0 -27 1 -50.5t4 -49.5l197 179q3 -6 15.5 -22.5t33 -38t44.5 -44.5t50 -41.5t51 -30t46 -9.5q-27 48 -26 103q0 44 18 82.5t49 66t70 43t82 15.5q49 0 89 -18t68.5 -48t44.5 -70t16 -86q0 -54 -23 -104.5t-72 -82.5q-48 -31 -103.5 -44t-109.5 -11 t-103.5 13.5t-82.5 27.5q-26 11 -53.5 27.5t-51.5 34.5t-41 33t-23 22l-153 -147h-203zM-505 1973.5q0 -27.5 11 -50.5t33.5 -38t57.5 -15q34 0 56 15t33.5 38t11.5 50.5t-11.5 50t-33.5 37.5t-56 15q-35 0 -57.5 -15t-33.5 -37.5t-11 -50z" />
<glyph unicode="&#xe48;" d="M-368 2438v413h174v-413h-174z" />
<glyph unicode="&#xe49;" d="M-666 2766q-2 44 14.5 80.5t43.5 63t62 41.5t74 15q49 1 87.5 -14.5t65.5 -43t42 -65t14 -80.5q-2 -43 -14 -83t-29 -71.5t-33 -52.5t-21 -23q4 0 30.5 0.5t64.5 5t80 14.5q42 12 78 32q43 26 71.5 60.5t45.5 73.5t23.5 80.5t6.5 81.5h120q0 -1 -1.5 -29.5t-10 -71.5 t-27 -94t-52.5 -98q-45 -58 -111.5 -92t-143.5 -49.5t-156.5 -19t-149.5 -3.5q-30 0 -55.5 2t-50.5 5v84q3 0 14 1t23.5 2.5t26 5.5t23.5 9q41 17 63 58q-44 -7 -83.5 3.5t-68.5 34.5t-47 59t-19 78zM-556 2776.5q0 -23.5 9 -43t29 -33t52 -13.5q30 0 50 13.5t30.5 33 t10.5 43t-10.5 43.5t-30.5 33t-50 13t-51 -13t-30 -33t-9 -43.5z" />
<glyph unicode="&#xe4a;" d="M-769 2676q1 48 14 92.5t38 77.5t62 53q37 18 86 21q40 1 80 -14.5t67 -42.5q0 1 7 10.5t22 20t39 19t57 8.5q44 -1 72.5 -21t45.5 -50.5t24.5 -67t7.5 -69.5q0 -37 -4.5 -66.5t-9.5 -51t-8.5 -34.5t-3.5 -17q30 11 48.5 32.5t30 50.5t18 62.5t8.5 67t1.5 64t-0.5 56.5 q0 20 0.5 41.5t3.5 42.5t9.5 38.5t19.5 30.5h114q-23 -20 -33 -44t-11 -53q-5 -54 -5 -102t-2 -94t-10.5 -89t-31.5 -85q-17 -32 -39 -54t-47 -38t-51.5 -25t-52.5 -15q-32 -7 -62 -9q-30 0 -62 6q12 13 25 46t23 73t16.5 79.5t6.5 63.5q0 20 -2 43.5t-10 43.5t-21.5 33.5 t-36.5 13.5q-17 0 -41.5 -15t-54.5 -49q-28 27 -64.5 48t-74.5 21q-20 0 -35.5 -9.5t-27 -23t-18.5 -31.5t-10 -37q40 13 64.5 14t31.5 1q40 0 70 -14.5t50 -37.5t29 -53t9 -58q0 -36 -12.5 -66t-35.5 -52t-54.5 -34.5t-70.5 -13.5q-54 -2 -92.5 18t-63 56t-35 84t-7.5 104z M-652 2581q0 -20 9.5 -38t26.5 -30t44 -12q26 0 43.5 12t26.5 30t9.5 38t-9 38t-26.5 30t-44 12t-44 -12t-26.5 -30t-9.5 -38z" />
<glyph unicode="&#xe4b;" d="M-621 2625v132h251v193h171v-193h249v-132h-249v-194h-171v194h-251z" />
<glyph unicode="&#xe4c;" d="M-596.5 2504.5q-5.5 53.5 13.5 105.5q17 54 47.5 87t71.5 52t89 28t98.5 15.5t105 12.5t104.5 21q43 13 68 33.5t37 41t15.5 36t3.5 17.5l113 -131q-11 -26 -28 -45q-19 -20 -44 -36q-26 -16 -67 -26q-27 -8 -60.5 -13.5t-65 -10t-53.5 -7t-25 -2.5q9 -9 16.5 -17.5 t16.5 -22.5q14 -22 25.5 -55.5t11.5 -79.5q0 -43 -20 -83t-55 -70t-84.5 -47t-107.5 -13q-69 3 -117.5 34.5t-76 76.5t-33 98.5zM-458.5 2526q-0.5 -29 11.5 -54t37 -42.5t61 -17.5q37 0 62 17.5t38 42.5t13 54t-12 54t-35.5 42.5t-61 17.5t-62.5 -17.5t-38 -42.5t-13.5 -54 z" />
<glyph unicode="&#xe4d;" d="M-581 1994.5q0 51.5 17.5 100.5t51.5 86.5t85 60.5t118 23q69 0 119.5 -23t85 -60.5t51 -86.5t16.5 -100.5t-16.5 -100t-51 -86.5t-85 -60.5t-119.5 -22.5t-119 22.5t-84 60.5t-51.5 86.5t-17.5 100zM-435 1993.5q0 -32.5 14.5 -60.5t42.5 -46.5t69.5 -18.5t68.5 18.5 t41.5 46.5t14.5 60.5t-14.5 60.5t-41.5 46.5t-68.5 18.5t-69.5 -18.5t-42.5 -46.5t-14.5 -60.5z" />
<glyph unicode="&#xe4e;" d="M-785 1853q-10 49 0 89.5t33.5 73t57 57.5t71 43.5t74.5 31.5t69 20q-66 8 -104.5 37t-50.5 76q-11 54 14.5 101.5t79 83.5t134 57t180.5 21q41 0 100.5 -5.5t146.5 -30.5v-100q-7 3 -28.5 9.5t-48.5 11.5t-57 9t-52 4q-23 0 -51.5 -1t-59 -5t-59.5 -12.5t-49.5 -25 t-30.5 -41.5t-2 -62q3 -16 11.5 -33.5t28 -32t51.5 -23.5q32 -10 81 -10v-72l-89 -5q-58 -4 -113 -19t-96.5 -42t-61.5 -66t-10 -89q5 -23 17.5 -40.5t29.5 -30.5t37.5 -20t42.5 -7q30 0 58 13.5t45 33.5t18.5 46.5t-21.5 52.5l87 37q26 -27 36 -61t9 -64q-2 -34 -22 -63.5 t-53.5 -51t-79.5 -33.5t-99 -12q-72 0 -122.5 13.5t-81.5 35t-47.5 49t-22.5 52.5z" />
<glyph unicode="&#xe4f;" horiz-adv-x="1889" d="M248 731.5q-1 110.5 28.5 216.5t88 199.5t146.5 163.5t206 111.5t264 41.5t263 -41.5t206 -111.5t147.5 -163.5t88 -199.5t29.5 -216.5t-29.5 -216t-88 -199t-147.5 -163.5t-206 -111.5t-263 -41.5t-264 41.5t-206 111.5t-146.5 163.5t-87 199t-29.5 216zM383 733 q0 -91 23.5 -177t71.5 -162.5t119.5 -133.5t167.5 -90.5t216 -33.5t216 33.5t168 90.5t120 133.5t71.5 162.5t23 177t-24 176.5t-71.5 161.5t-120.5 133t-168 90.5t-214.5 33.5t-214.5 -33.5t-167 -90.5t-119.5 -133t-72.5 -161.5t-24.5 -176.5zM545 770.5q7 66.5 32 125 t66 107t93 83.5t113.5 54.5t128.5 19.5q77 0 147 -25t126 -71t94 -109t54 -138q14 -71 7.5 -137.5t-31 -125t-64.5 -107.5t-91.5 -85t-113 -56.5t-128.5 -20.5q-79 0 -149 26t-126.5 72.5t-95 110.5t-55.5 139q-14 71 -7 137.5zM684 797.5q-18 -66.5 1 -138.5 q11 -48 37.5 -91t66 -74t87.5 -48.5t102 -17.5q77 0 138 32.5t100.5 85t53 116.5t0.5 129q-12 48 -38.5 90.5t-65 74.5t-87 50.5t-101.5 18.5q-69 0 -130.5 -30t-103.5 -80.5t-60 -117z" />
<glyph unicode="&#xe50;" horiz-adv-x="1530" d="M157 549q0 116 36.5 217.5t112.5 178t192.5 121t276.5 44.5q159 0 276 -44.5t193.5 -121t114 -178.5t37.5 -217q0 -117 -37.5 -219.5t-114 -179t-193 -120.5t-276.5 -44t-276.5 44t-192.5 120.5t-112.5 179t-36.5 219.5zM315 549q0 -87 26.5 -164.5t82 -134.5t142 -90 t209.5 -33q120 0 206.5 33t142.5 90t82.5 133.5t26.5 165.5q0 87 -26 163t-81.5 132.5t-142.5 89.5q-88 33 -208 33q-123 0 -209.5 -33t-142 -89.5t-82 -133t-26.5 -162.5z" />
<glyph unicode="&#xe51;" horiz-adv-x="1522" d="M140 552q6 107 43 202t110 166.5t184 114.5t262 49q149 4 263.5 -31.5t194.5 -107t123.5 -175.5t49.5 -235q3 -97 -9.5 -178.5t-35 -147t-52.5 -117.5q-29 -52 -60 -92q-72 -94 -173 -150l-125 91q45 23 82.5 53t72.5 72q27 34 52 80t43.5 104.5t28 131.5t3.5 160 q-7 94 -34.5 170t-81.5 130.5t-138 82t-204 23.5q-104 -4 -182.5 -35t-132.5 -84.5t-82.5 -126.5t-34.5 -160q-4 -70 7.5 -140t41 -128t76 -100t113.5 -57q66 -15 110 -10t72 17.5t41.5 27t19.5 17.5q-4 0 -23 -6t-48 -4.5t-68.5 16t-85.5 52.5q-27 22 -45 55t-25 70.5 t-2.5 78.5t21 77.5t47 66.5t75 47t89.5 20t87 -8.5t78 -36t61.5 -61t38 -84t7.5 -105.5q-4 -68 -29 -136t-76.5 -120t-130 -82t-188.5 -23q-83 3 -149 27t-115.5 63.5t-83.5 93t-54 115.5t-27.5 130t-1.5 137zM626 401q0 -29 13 -53.5t38 -41.5t62 -17t62.5 17t38 41.5 t12.5 53.5t-12.5 53.5t-38 41t-62.5 16.5t-62 -16.5t-38 -41t-13 -53.5z" />
<glyph unicode="&#xe52;" horiz-adv-x="1580" d="M3 1464l107 146q2 0 19 -3t42.5 -10t55 -18.5t55.5 -29.5q37 -26 62 -52.5t39.5 -56t20.5 -63.5t6 -77v-974v-24.5t1.5 -30.5t6 -35t14.5 -34q20 -33 55.5 -49.5t80.5 -16.5h523q42 0 72 10t60 41q15 16 22.5 33t9.5 35t1.5 37.5t-0.5 40.5v479q0 26 -4 51t-14.5 43.5 t-30 30t-50.5 11.5q-27 0 -48 -9t-35 -24.5t-23.5 -33t-14 -35.5t-5 -31.5t0.5 -19.5h-128q0 23 -5 50t-18.5 50t-38.5 37q-27 13 -67 9q-31 -4 -50.5 -25t-31 -49t-16.5 -60t-5.5 -59t0 -44.5t2.5 -18.5q2 1 11.5 7.5t27.5 13t47 11.5t78 4q49 -5 86.5 -25.5t64 -53.5 t39 -76t7.5 -91q-1 -49 -17.5 -87.5t-46.5 -65.5t-73 -43t-96 -16q-66 0 -113.5 18.5t-80.5 50t-52.5 74t-28.5 90t-11.5 99t0.5 100.5q3 66 19.5 134t48.5 123t81 89t119 34q60 0 97 -17t58 -40t28 -43t7 -23q3 18 13 33t23 29q11 11 28 22t39.5 19.5t52.5 14t67 5.5 q64 0 108.5 -22t71.5 -59t38.5 -86t11.5 -103v-468q0 -31 -1.5 -61.5t-8.5 -59.5t-19 -56.5t-32 -53.5q-45 -53 -102 -79.5t-126 -26.5h-596q-34 0 -63.5 3t-56.5 10t-52 21q-27 13 -53 36q-28 23 -44 53.5t-23.5 62t-10 64t-2.5 57.5v916q0 27 1.5 52.5t-2 48.5t-13 44 t-29.5 38q-32 30 -64.5 42.5t-63.5 15.5q-35 6 -63 0zM692 494.5q0 -28.5 12 -53.5t36.5 -40.5t61.5 -15.5t61.5 15.5t36.5 40.5t12 53.5t-12 53t-36.5 40t-61.5 15.5t-61.5 -15.5t-36.5 -40t-12 -53z" />
<glyph unicode="&#xe53;" horiz-adv-x="1511" d="M157 561q3 108 26 202t66 164t109.5 109t157.5 39q49 0 85.5 -7.5t63.5 -22t47 -32.5t34 -35q13 -23 24 -47t14 -53q8 56 37 99q13 18 32 36t46.5 32.5t63 22t79.5 7.5q71 2 126.5 -23t93.5 -71t58 -110t20 -139v-732h-172v732q0 37 -6.5 74.5t-22 67.5t-40.5 49t-64 22 q-51 3 -84.5 -20t-55 -61.5t-30 -87t-8.5 -95.5v-139h-155v132q0 45 -8 94.5t-28.5 89.5t-55.5 63.5t-89 19.5q-49 -1 -82 -25.5t-54.5 -63t-33 -89.5t-14.5 -104q-4 -56 -3 -107.5t4.5 -90.5t6 -62.5t2.5 -25.5q0 6 6 19.5t22.5 30t48 31.5t85.5 20.5t100.5 -10t82.5 -46 t56.5 -74.5t20.5 -95q2 -55 -14.5 -101t-48.5 -82t-83 -56.5t-118 -20.5q-75 0 -130 24t-93.5 65t-63 96.5t-38 118.5t-18.5 131.5t-5 136.5zM402.5 232.5q-0.5 -29.5 12.5 -55t38 -43t63 -17.5q39 0 64.5 17.5t38.5 43t14.5 55t-11.5 55t-38 42.5t-63 17q-39 0 -65 -17 t-39.5 -42.5t-14 -55z" />
<glyph unicode="&#xe54;" horiz-adv-x="1605" d="M97.5 561.5q5.5 83.5 28.5 160t63.5 140t95.5 105.5q65 51 134.5 76t143 33.5t151 6t159.5 -7t168 -6t177 10.5q59 7 102.5 32t73.5 60.5t49.5 78t32.5 85.5q13 50 20 105t4 119l157 -93q0 -1 -0.5 -32.5t-9 -81t-26.5 -108t-53 -115t-88.5 -103t-132.5 -72.5 q-71 -21 -145 -28.5t-151 -6.5t-160.5 6.5t-176.5 11.5q-106 6 -183.5 -20.5t-131 -76t-83 -119.5t-39.5 -154q-7 -73 6 -144.5t45 -131t83.5 -101.5t123.5 -55q36 -7 80 0t82.5 18.5t65 22t28.5 10.5q-2 0 -19.5 6t-45 19.5t-59 34t-60.5 50t-52.5 66.5t-33.5 83 q-12 54 -6 111.5t31 106t71.5 83t117.5 41.5q57 7 103.5 -5t80 -37t55 -61t31.5 -76t7 -82q-2 -44 -17 -81q-13 -38 -40.5 -62.5t-55.5 -39t-50 -20.5l-21 -7q3 -4 10 -12t20 -18t34.5 -21t52.5 -21q40 -12 73 -15.5t65 -8.5t67 -12t80 -26q23 -10 39.5 -22t28.5 -23.5 t19 -21.5t9 -13l-89 -110q-9 3 -26.5 21.5t-51.5 38t-85.5 33t-125.5 8.5q-53 -4 -108 -23.5t-113 -40t-118.5 -35.5t-123 -11.5t-126 33.5t-129.5 100q-51 55 -82 127t-43.5 153t-7 164.5zM659 541.5q0 -29.5 12.5 -54.5t36.5 -42t61.5 -17t62.5 17t37 42t12.5 54.5 t-11.5 54.5t-36.5 42t-61.5 17t-62 -17t-38 -42t-13 -54.5z" />
<glyph unicode="&#xe55;" horiz-adv-x="1687" d="M108 549.5q4 81.5 26 158t62.5 143t100.5 111.5q52 40 107.5 62.5t103.5 33t80.5 12.5t33.5 2q-9 9 -16.5 18.5t-16.5 22.5q-11 22 -19 55t1 80q10 49 32 83.5t53.5 56.5t70.5 32.5t85 10.5t87.5 -12t74.5 -35.5t54.5 -61.5t26.5 -89q0 -52 -7.5 -82t-19.5 -48 q-8 -12 -15 -20q-6 -8 -13 -13q1 0 21.5 -2.5t54.5 -3t76 2.5t85 13q59 11 101.5 37t73.5 61.5t50 77t31 84.5q14 50 21.5 104.5t4.5 115.5l157 -93q0 -1 -0.5 -32.5t-9.5 -81t-27.5 -108t-52.5 -115t-88 -103t-132 -72.5q-72 -21 -145.5 -28.5t-151 -6.5t-161.5 6.5 t-176 11.5q-106 6 -184 -20.5t-130 -76t-82 -119.5t-39 -154q-7 -73 5.5 -144.5t44 -131t82.5 -101.5t123 -55q36 -7 80 0t83.5 18.5t65.5 22t28 10.5q-1 0 -19.5 6t-45 19.5t-58 34t-61.5 50t-53.5 66.5t-33.5 83q-12 54 -6 111.5t31.5 106t73 83t118.5 41.5q57 7 103 -5 t79.5 -37t55 -61t31.5 -76t7 -82q-3 -44 -17 -81q-9 -26 -24.5 -44.5t-34 -32.5t-38 -24t-35 -16t-25.5 -9t-12 -3q3 -4 11 -12t20.5 -18t33.5 -21t52 -21q40 -12 74 -15.5t66 -8.5t67 -12t79 -26q22 -10 39 -22t29 -23.5t18.5 -21.5t8.5 -13l-87 -110q-9 3 -27.5 21.5 t-52 38t-84.5 33t-125 8.5q-52 -4 -107.5 -23.5t-113.5 -40t-119 -35.5t-123 -11.5t-126.5 33.5t-128.5 100q-52 53 -84 124t-46.5 149t-10.5 159.5zM678 541.5q0 -29.5 12 -54.5t36.5 -42t61.5 -17t62 17t37 42t13 54.5t-11 54.5t-36.5 42t-61.5 17t-62 -17t-38 -42 t-13 -54.5zM705.5 1211q-3.5 -27 6 -52.5t32 -43t58.5 -20.5q36 -2 61 11.5t39.5 37t17 50.5t-6.5 52t-31.5 43t-57.5 21q-36 3 -61 -10.5t-39.5 -37.5t-18 -51z" />
<glyph unicode="&#xe56;" horiz-adv-x="1591" d="M-3 1464l123 125q3 0 26 -13.5t53 -43t64 -75.5t63 -110q32 -74 49.5 -151.5t26 -140.5t10 -103.5t1.5 -43.5q0 1 13 19t41 41.5t73 49.5t112 43q50 13 109.5 20t122.5 5.5t126.5 -11.5t123 -30t111.5 -51q52 -33 91 -76q48 -54 79 -120t43.5 -136.5t9 -143.5t-22 -142 t-53 -129.5t-82.5 -106.5q-56 -54 -138 -89t-176 -49.5t-192 -8.5t-186.5 33t-159 74t-111.5 116q-17 30 -27.5 70t-10.5 83t10.5 86t37 78.5t69.5 60t105 32.5q48 7 90.5 -1.5t74.5 -29t55.5 -50t37 -64.5t17 -73t-3.5 -75q-10 -51 -33 -83.5t-47 -50t-43 -24.5l-20 -6 q2 0 19 -6t45.5 -12.5t68 -11.5t85 -4t97 9.5t106.5 31.5q74 30 119 87t66 127t20 146t-18 145q-20 71 -60 123.5t-96 86t-125 47.5t-151 10q-77 -4 -135.5 -22t-100 -41.5t-69 -49.5t-43 -48.5t-22 -37t-7.5 -14.5h-181q2 1 2.5 21t-2 54.5t-7 80.5t-13 98t-23 108.5 t-32.5 110.5q-30 83 -65 132.5t-65.5 77.5t-51.5 37q-20 9 -23 9zM447 384q-1 -29 11 -54t37.5 -42.5t60.5 -17.5q37 0 63 17.5t38 42.5t13 54t-11.5 54t-36.5 42.5t-61.5 17.5t-62.5 -17.5t-37.5 -42.5t-13.5 -54z" />
<glyph unicode="&#xe57;" horiz-adv-x="1748" d="M157 561q3 108 26 202t66 164t109.5 109t157.5 39q37 0 66.5 -7.5t51.5 -21.5t38 -30t27 -35q15 -20 23.5 -43.5t12.5 -52.5q1 2 4 16t11.5 35.5t23.5 46t41.5 45t66 34t96.5 13.5q70 0 121 -27t86 -75.5t55 -114.5t27 -140q7 -82 5.5 -150t-9 -123.5t-20 -100 t-26.5 -78.5q-32 -80 -79 -126q0 3 15 7.5t39 15t53 32t57.5 58.5t53 95t40.5 142q11 73 16 137.5t6 125.5t1 118t1 117t6 123.5t17 136.5q10 66 28.5 115.5t40 84.5t44.5 58t42 37t30.5 21.5t11.5 9.5l106 -110q0 -1 -10 -6t-25.5 -16.5t-34.5 -32t-36 -56t-30 -86 t-17 -122.5q-7 -95 -9 -184t-6 -173t-9.5 -161.5t-20.5 -149.5t-41 -138t-68 -126q-48 -67 -103 -108.5t-110 -64.5t-107 -31t-92 -8t-66 3t-29 3q-2 0 7 15t25 43.5t35 71.5t38.5 100.5t35 128t22.5 155.5q3 47 3 96t-4 95.5t-13.5 87.5t-24 71.5t-35.5 50.5t-51 23 t-54 -10t-41.5 -35t-30.5 -50.5t-20 -58.5t-11 -59.5t-4 -50.5v-96h-154v96v38t-3 54t-11 58.5t-23 53.5t-38.5 40t-58.5 16q-49 0 -83.5 -24.5t-56.5 -63.5t-33 -90t-11 -104q-4 -56 -3 -107.5t4.5 -90.5t6 -62.5t2.5 -25.5q0 6 6 19.5t22.5 30t48 31.5t85.5 20.5 t100.5 -10t82.5 -46t56.5 -74.5t20.5 -95q2 -55 -14.5 -101t-48.5 -82t-83 -56.5t-118 -20.5q-75 0 -130 24t-93.5 65t-63 96.5t-38 118.5t-18.5 131.5t-5 136.5zM402.5 232.5q-0.5 -29.5 12.5 -55t38 -43t63 -17.5q39 0 64.5 17.5t38.5 43t14.5 55t-11.5 55t-38 42.5 t-63 17q-39 0 -65 -17t-39.5 -42.5t-14 -55z" />
<glyph unicode="&#xe58;" horiz-adv-x="1638" d="M138 473.5q-4 78.5 7 153.5t35 143t62 119q41 59 93.5 95.5t113 58t129 28.5t141.5 8t150 -4q76 -3 152 -5q84 -6 148 12.5t110.5 52t76.5 78.5q30 43 48 91q43 112 42 256l161 -96q0 -1 -1.5 -22t-6.5 -55t-15.5 -79t-30.5 -92.5t-51 -94.5t-74.5 -86.5t-103.5 -68.5 q-60 -28 -139 -39q-77 -9 -153.5 -6t-150 8t-143 8.5t-131 -6.5t-114.5 -36t-94 -78q-34 -45 -53 -108.5t-24.5 -134.5t2.5 -141t28.5 -128.5t54 -97t76.5 -47.5q2 0 -4 21t-10 53t-5.5 71.5t7 77t30.5 69t62 46.5q49 17 90.5 9t79.5 -31.5t71.5 -59.5t66.5 -74.5t66 -76.5 t67 -66.5t72 -42.5t81 -6q28 4 46 15.5t30.5 26t17.5 31t7 30t2 23.5v13q-3 0 -21 -5t-46.5 -8t-67.5 0q-38 4 -83 21q-48 22 -79 62t-42.5 88t-5 98.5t33 94.5t72.5 74t110 37q85 5 143.5 -20t96.5 -73.5t55 -115.5t17 -143q0 -46 -7 -94t-22 -93t-39.5 -85t-59.5 -70 t-81 -47t-103 -17q-61 0 -114 26.5t-98 66.5t-83 86.5t-71 85.5t-60 63.5t-50 23.5q-26 -5 -36.5 -24t-13 -45.5t2.5 -55t14 -51.5q9 -30 21 -53t23 -43q9 -12 15.5 -22t13.5 -18q-21 -17 -65 -28.5t-97 -10t-110 19t-106 59.5q-58 46 -95.5 110t-58.5 138t-25 152.5z M1052 508.5q0 -29.5 12.5 -54.5t37.5 -42t62 -17t62 17t37.5 42t12.5 54.5t-12.5 54.5t-37.5 42t-62 17t-62 -17t-37.5 -42t-12.5 -54.5z" />
<glyph unicode="&#xe59;" horiz-adv-x="1756" d="M164 578q6 110 39.5 203t92.5 160t142 105t188 38q75 0 133 -18.5t101.5 -45t73.5 -58.5t48.5 -61t28 -50.5t10.5 -26.5q0 3 1.5 23t7 46t16.5 57t29 58t44 47t64 25q37 3 63.5 -6t46.5 -24t35.5 -32.5t30 -32.5t28.5 -26t33 -11q29 0 49.5 28.5t35 73t24.5 96.5t17 100 q13 107 13.5 193.5t-6.5 137.5l164 -113q6 -48 0 -106q-2 -52 -8 -111q-4 -59 -24 -134q-20 -78 -49 -141.5t-62.5 -109t-71.5 -71.5t-78 -26q-24 0 -44 13t-37 32t-32 40.5t-31 39t-31.5 25t-32.5 0.5q-26 -11 -40.5 -42t-18.5 -73t-2 -90q2 -49 9 -92q30 -135 77 -233 q46 -98 120 -165q38 -33 68 -47t52 -17.5t36.5 -1t19.5 2.5l-91 -157q-2 1 -24 2t-55.5 12.5t-73 36.5t-75.5 76q-51 65 -81 123.5t-53.5 118t-46.5 121t-59 132.5q-34 67 -70.5 128t-80 105t-98.5 68q-57 24 -126 18q-58 -6 -100.5 -34.5t-72.5 -73t-47 -101t-25.5 -116.5 t-7 -120t9.5 -112t20.5 -93.5t29.5 -63.5q32 -38 61 -61t56.5 -34.5t51.5 -13.5t47 2q26 6 49.5 19.5t45.5 33.5q-5 0 -20.5 0.5t-37 4.5t-46.5 11.5t-50 21.5t-47 34.5t-37 51.5q-17 38 -22 77t1.5 77t25 73t48.5 61t71.5 41t94.5 15q70 0 119.5 -29.5t79 -76t40 -105 t4.5 -115.5q-10 -66 -35.5 -124t-69 -101.5t-106.5 -69.5t-145 -27q-94 -4 -175 32t-139 110.5t-88 185.5t-23 257zM597 408q1 -28 12.5 -52t36.5 -40t60.5 -16t59 16t36 40t11.5 52t-13 52.5t-36.5 40t-61.5 15.5q-36 0 -59.5 -15.5t-35 -40t-10.5 -52.5z" />
<glyph unicode="&#xe5a;" horiz-adv-x="1741" d="M94 908q0 74 24.5 130t61 91.5t80 53t85.5 17.5q30 0 50.5 -2.5t39.5 -4.5l37 -8v-160l-37 7q-33 6 -65 0q-17 -4 -37 -14t-34 -28.5t-20.5 -45.5t3.5 -66q5 -26 14.5 -44.5t25 -30.5t38.5 -18t53 -6q49 0 102 51t98.5 141t82 216t55.5 277h434v-1464h-218l-5 1307h-120 l-11 -61q-9 -30 -14 -66.5t-15 -81.5q-27 -116 -70 -206t-96.5 -152t-117 -95t-133.5 -33q-59 0 -112 21t-92 59.5t-63 93.5t-24 122zM1358 0v1471h219v-1471h-219z" />
<glyph unicode="&#xe5b;" horiz-adv-x="2551" d="M159.5 725q3.5 103 30 189t73.5 152.5t107 111.5t131.5 68.5t146.5 23.5q71 0 130.5 -19.5t105.5 -55t76 -87t42 -116.5q26 -110 12 -203.5t-56.5 -162t-107 -107.5t-136.5 -39q-38 0 -71.5 12.5t-60 34.5t-45 51.5t-25.5 62.5q-10 51 3 97t40.5 80t69 54t89.5 20 q52 0 95 -18.5t73 -56.5v44q0 30 -3.5 58t-10.5 59q-10 39 -25.5 66t-41 45t-61.5 26.5t-85 8.5q-80 0 -149.5 -41t-115 -118t-61.5 -187t16 -250q15 -78 48 -133t80.5 -90t107.5 -51.5t125 -16.5q131 0 228 50t155.5 147.5t78.5 240.5t-4 327q209 -37 286 -394 q13 43 21 81.5t10.5 76.5t-0.5 77q-4 41 -14 84q-3 20 -4.5 34t-9.5 34q80 -23 149.5 -103.5t133.5 -220.5q6 40 10 67t5 55.5t-4 63.5t-15 91q166 -44 249 -315q15 21 22.5 50t8.5 62.5t-3 71.5t-14 75q6 -1 31.5 -21t63.5 -48.5t85 -60t95 -56.5t94 -37.5t81 -2.5h19 q-44 -18 -84.5 -29t-77.5 -11q-126 0 -218 95q-25 -178 -108 -205q-7 0 -20.5 21.5t-31.5 53.5t-36 70t-33.5 71.5t-26 59t-12.5 29.5q0 -346 -99 -346q-5 0 -17.5 22t-26.5 56.5t-30 74.5t-30 76.5t-26.5 63.5t-19.5 34q-21 -366 -147 -367q-3 0 -13 17.5t-23 45.5 t-27 60.5t-26.5 61.5t-21 50t-9.5 25q0 -130 -39.5 -241.5t-114.5 -192.5t-186 -127.5t-254 -46.5q-98 0 -184 28.5t-154 81.5t-116 129.5t-69 175.5q-27 120 -23.5 223zM608.5 715.5q-3.5 -26.5 6.5 -63.5q11 -70 106 -70q31 0 53.5 10.5t35 30t16 44.5t-1.5 54 q-17 70 -103 70q-32 0 -55.5 -8t-38.5 -24.5t-18.5 -43z" />
<glyph unicode="&#xe64;" />
<glyph unicode="&#x2000;" horiz-adv-x="1516" />
<glyph unicode="&#x2001;" horiz-adv-x="3033" />
<glyph unicode="&#x2002;" horiz-adv-x="1516" />
<glyph unicode="&#x2003;" horiz-adv-x="3033" />
<glyph unicode="&#x2004;" horiz-adv-x="1011" />
<glyph unicode="&#x2005;" horiz-adv-x="758" />
<glyph unicode="&#x2006;" horiz-adv-x="505" />
<glyph unicode="&#x2007;" horiz-adv-x="505" />
<glyph unicode="&#x2008;" horiz-adv-x="379" />
<glyph unicode="&#x2009;" horiz-adv-x="606" />
<glyph unicode="&#x200a;" horiz-adv-x="168" />
<glyph unicode="&#x200b;" />
<glyph unicode="&#x2010;" horiz-adv-x="1368" d="M176 556v172h1017v-172h-1017z" />
<glyph unicode="&#x2011;" horiz-adv-x="1368" d="M176 556v172h1017v-172h-1017z" />
<glyph unicode="&#x2012;" horiz-adv-x="1368" d="M176 556v172h1017v-172h-1017z" />
<glyph unicode="&#x2013;" horiz-adv-x="1302" d="M0 563v169h1303v-169h-1303z" />
<glyph unicode="&#x2014;" horiz-adv-x="2342" d="M0 563v169h2342v-169h-2342z" />
<glyph unicode="&#x2018;" horiz-adv-x="662" d="M128.5 1394q-5.5 56 5 115.5t35 115t61.5 100.5q45 50 99 80q54 28 117 43v-91q-23 -8 -55 -30t-65 -65q-16 -18 -24.5 -37t-12.5 -36t-5.5 -29.5t-1.5 -13.5q44 8 82.5 -1t75.5 -41q29 -24 40.5 -65.5t5.5 -83.5t-28 -79q-23 -35 -63 -49q-46 -17 -84 -18t-68.5 10.5 t-52 31t-33.5 42.5q-23 45 -28.5 101z" />
<glyph unicode="&#x2019;" horiz-adv-x="614" d="M125.5 1684.5q3.5 28.5 15 54.5t29.5 45q19 21 46 29q46 17 84.5 17t68.5 -11t52 -31.5t34 -41.5q23 -46 28 -101.5t-5 -115t-35 -116t-63 -99.5q-44 -48 -97.5 -79t-118.5 -45v91q23 9 55.5 30.5t65.5 64.5q15 15 23.5 36t13.5 38t6.5 29t1.5 14q-44 -9 -83 1 q-38 8 -74 39q-20 16 -31.5 41t-15.5 53.5t-0.5 57z" />
<glyph unicode="&#x201c;" horiz-adv-x="1284" d="M194.5 1320.5q-5.5 56.5 5 116t35.5 115.5q25 55 62 98q45 50 98.5 81t116.5 45v-91q-22 -9 -54.5 -30.5t-65.5 -65.5q-16 -16 -24.5 -36t-13 -37t-6 -30t-1.5 -15q45 9 83.5 -0.5t74.5 -39.5q18 -17 29.5 -40.5t16 -52t1 -57t-14.5 -54.5t-30 -46q-21 -20 -47 -28 q-45 -18 -83 -18t-69 11t-52 31q-21 18 -33 41q-23 46 -28.5 102.5zM733 1320.5q-5 56.5 5 116t35 115t62 98.5q44 50 98 81t118 45v-91q-23 -9 -55 -30.5t-66 -65.5q-16 -16 -24 -36t-13 -37t-6.5 -30t-1.5 -15q45 9 83.5 -0.5t73.5 -39.5q19 -17 31 -40.5t16 -52t0 -57 t-14.5 -54.5t-29 -46t-45.5 -28q-46 -18 -84.5 -18t-68.5 11t-53 31q-22 18 -33 41q-23 46 -28 102.5z" />
<glyph unicode="&#x201d;" horiz-adv-x="1284" d="M238.5 1684.5q3.5 28.5 15.5 54.5t31 45q18 21 45 29q46 17 84 17t68.5 -11t52 -31.5t33.5 -41.5q23 -46 28.5 -101.5t-5 -115t-35 -116t-61.5 -99.5q-45 -48 -99 -79t-119 -45v91q23 9 56 30.5t66 64.5q16 15 24.5 36t12.5 38t5.5 29t1.5 14q-44 -9 -83 1q-38 8 -75 39 q-20 16 -31 41t-15 53.5t-0.5 57zM777.5 1684.5q3.5 28.5 15 54.5t29.5 45q19 21 46 29q46 17 84 17t68.5 -11t52.5 -31.5t32 -41.5q23 -46 29 -101.5t-5 -115t-35 -116t-62 -99.5q-44 -48 -97.5 -79t-117.5 -45v91q22 9 54.5 30.5t66.5 64.5q16 15 24 36t12 38t5.5 29 t1.5 14q-44 -9 -83 1q-39 8 -74 39q-20 16 -31 41t-15 53.5t-0.5 57z" />
<glyph unicode="&#x2022;" horiz-adv-x="1309" d="M259 700.5q0 77.5 26.5 152.5t78 133.5t129.5 94.5t181 36q102 0 180 -36t130.5 -94.5t78 -133.5t25.5 -152.5t-25.5 -152.5t-78 -133.5t-130.5 -94t-180 -35.5q-103 0 -181 35.5t-129.5 94t-78 133.5t-26.5 152.5z" />
<glyph unicode="&#x202f;" horiz-adv-x="606" />
<glyph unicode="&#x205f;" horiz-adv-x="758" />
<glyph unicode="&#x20ac;" horiz-adv-x="1352" d="M54 609q7 35 13 62.5t13 62.5h114v110v57h-140q7 34 13 60.5t13 59.5h126q21 144 87 258t163 192t219.5 118.5t256.5 40.5q98 0 178 -18.5t148 -59.5q-10 -46 -20 -88q-11 -43 -20 -88q-63 48 -135.5 73t-154.5 25q-100 0 -188.5 -32.5t-158 -93t-116 -143t-62.5 -184.5 h738q-6 -33 -11.5 -61t-11.5 -59h-732v-57v-110h698q-7 -35 -12 -62.5t-11 -62.5h-649q16 -106 60 -191t109 -143.5t149 -90.5t179 -32q195 0 307 93v-191q-65 -28 -137 -43t-151 -15q-152 0 -272 43.5t-208.5 123t-147 193t-84.5 253.5h-162z" />
<glyph unicode="&#x2122;" horiz-adv-x="2471" d="M277 1593v124h717v-124h-279v-765h-149v765h-289zM1143 828v889h260l170 -632h29q41 156 83 315.5t84 316.5h260v-889h-143v778h-21l-209 -778h-142l-207 778h-23v-778h-141z" />
<glyph unicode="&#x25cc;" horiz-adv-x="2452" d="M598 1051l163 80q-3 -23 -4.5 -44.5t-1.5 -44.5q0 -18 1.5 -36.5t4.5 -38.5zM772 601l63 171q26 -36 53 -63.5t60 -53.5zM798 1497l164 -58q-35 -23 -63 -50.5t-54 -60.5zM1143 1513l84 163l80 -160q-19 3 -38 3h-39q-23 0 -44 -1.5t-43 -4.5zM1150 571q20 -3 40.5 -5.5 t39.5 -2.5q20 0 37 2.5t33 5.5l-73 -153zM1500 1439l180 58l-63 -171q-24 32 -52 59.5t-65 53.5zM1504 648q32 23 57.5 48t48.5 55l45 -150zM1703 974q3 16 5 33t2 35q0 20 -2 41.5t-5 40.5l153 -82z" />
<glyph unicode="&#x25fc;" horiz-adv-x="1224" d="M0 0v1224h1224v-1224h-1224z" />
<glyph unicode="&#xf700;" horiz-adv-x="1355" d="M152 1088q-13 55 2 112t53 107t97 88.5t134 57.5q60 14 110.5 17.5t97 -1.5t87.5 -15t81.5 -20.5t82 -20t85.5 -10.5q33 -3 74.5 12.5t76.5 51.5l77 -139q-20 -18 -45 -31t-52.5 -20t-54.5 -11q-28 -3 -54 -3q-66 0 -119.5 10t-105 21.5t-108 21.5t-128.5 10 q-45 0 -84.5 -10t-69 -29t-46 -45t-16.5 -59q0 -10 16.5 -11.5t49.5 0.5t79.5 4t108 0.5t135 -10.5t159.5 -31q76 -20 128 -45.5t83.5 -59t46 -78t14.5 -103.5v-647q0 -56 -21 -96t-55 -65t-79 -37.5t-94 -12.5q-59 0 -100.5 17.5t-69 46t-43.5 68.5t-24 86l-42 246 q-37 -19 -69 -25.5t-65 -6.5q-52 0 -95.5 18.5t-75.5 51.5t-50.5 76.5t-18.5 92.5q0 53 18.5 97.5t50.5 77t78 50.5t98 18q123 0 189.5 -67t82.5 -183l59 -413q3 -26 9.5 -45.5t15.5 -32t24 -18.5t39 -6q18 0 30.5 3.5t20.5 13.5t11.5 27.5t3.5 42.5v590q0 54 -20 92.5 t-65 64.5t-118 41.5t-177 24.5q-95 8 -173.5 4.5t-136.5 -4t-92 8t-41 39.5zM378 666.5q0 -31.5 12.5 -57.5t39 -43t65.5 -17q40 0 66.5 17t39 43t12.5 57.5t-12.5 57t-39 43t-66.5 17.5t-66 -17.5t-38.5 -43t-12.5 -57z" />
<glyph unicode="&#xf701;" d="M-1534 1739v139q0 83 33.5 146.5t96.5 107.5t150 67t194 23q129 0 226.5 -30t163 -82t99 -122t33.5 -152v-97h-996zM-1361 1875h650v17q0 20 -15.5 53t-56.5 64.5t-109 53.5q-66 23 -169 23q-62 0 -117 -10.5t-95.5 -32t-64 -57t-23.5 -87.5v-24z" />
<glyph unicode="&#xf702;" d="M-1534 1739v137q0 83 33.5 147.5t94 108t143.5 66.5t182 23q74 -2 131.5 -9t97.5 -16.5t68 -21.5t43.5 -21t22 -15t7.5 -4v227h173v-622h-996zM-1361 1875h650v15q0 20 -15.5 54t-56.5 65.5t-109 53.5q-66 22 -169 22q-62 1 -117 -9t-95.5 -32t-64.5 -58q-23 -35 -23 -87 v-24z" />
<glyph unicode="&#xf703;" d="M-1546 1730v148q0 70 26.5 130t78 105t125 73t168.5 32q54 1 89 -1t55 -5.5t29.5 -5.5t10.5 -2q0 27 12 47q8 20 23 43q14 24 45 48q39 30 85.5 44.5t93 14t89.5 -15t74 -43.5q34 -31 53 -69t24.5 -77.5t-1.5 -77t-24 -69.5q-16 -26 -29 -42t-25 -25.5t-24.5 -15 t-24.5 -11.5q0 -3 6 -32.5t16 -70.5q9 -53 8.5 -86t-0.5 -36h-983zM-1374 1866h633q-15 36 -36.5 56.5t-46.5 46.5q-23 22 -51.5 43t-64 38.5t-78.5 27.5t-97 8q-126 -2 -192.5 -48.5t-66.5 -138.5v-33zM-821 2157q0 -28 12 -51.5t37.5 -40t61 -16.5t59 16.5t36 40 t12.5 51.5t-12.5 52.5t-36.5 40t-62 15.5q-35 0 -59.5 -15.5t-36 -40t-11.5 -52.5z" />
<glyph unicode="&#xf704;" d="M-1534 1740v139q0 83 33.5 146.5t96.5 107t150 66.5t194 23q35 0 69 -3v155h153v-180q37 -10 68.5 -24t58.5 -31v235h173v-634h-996zM-1361 1876h650v17q0 20 -15.5 53t-56.5 64.5t-109 53.5q-66 22 -169 22q-62 0 -117 -10t-95.5 -32t-64 -57.5t-23.5 -86.5v-24z" />
<glyph unicode="&#xf705;" d="M-854 1750v515h173v-515h-173z" />
<glyph unicode="&#xf706;" d="M-1366 2101q-1 44 13.5 82t41.5 65t63.5 42t79.5 15q48 0 85.5 -15t64 -42t40.5 -64.5t14 -81.5q2 -44 -9 -87t-26 -76.5t-29 -55t-22 -23.5h27.5t59.5 4t75 13q39 9 76 26q43 20 74.5 54.5t52.5 76t30.5 86.5t8.5 88h154q0 -3 -2 -32.5t-12 -73.5t-30 -97t-56 -102 q-29 -38 -71.5 -65.5t-95 -46.5t-110.5 -30t-115 -16t-111.5 -5t-99.5 3q-31 0 -56.5 2t-51.5 5v83q5 0 15 1.5t21 3t25 6t25 9.5q34 17 49 37t20 43q-45 -5 -83.5 4t-67.5 32t-47 57.5t-20 74.5zM-1257 2118q0 -24 10 -43.5t30 -33t50 -13.5t51 13.5t31 33t10 43.5 t-10 43.5t-31 33t-51 13.5t-50 -13.5t-30 -33t-10 -43.5z" />
<glyph unicode="&#xf707;" d="M-1423 2043q3 55 20 105.5t48 89.5t75 61t102 20q35 -1 64 -11t49 -23t30.5 -23.5t13.5 -12.5q0 3 8.5 14.5t26.5 25t46 23.5t65 10q54 0 87.5 -23.5t53 -60.5t27.5 -80.5t8 -82.5q0 -43 -4.5 -76.5t-9.5 -58t-10 -39.5t-6 -22q34 17 57 43.5t36 58.5t18.5 68t8.5 70 q1 32 0.5 67t-0.5 82q1 49 9 83t16 55t14.5 30t6.5 11h134q-26 -36 -36 -61t-15 -57q-10 -55 -11 -106.5t-2 -100.5q-2 -28 -3.5 -57t-5.5 -56t-14 -55q-9 -26 -23 -55q-26 -49 -62.5 -80t-75.5 -49t-79.5 -25.5t-72.5 -8t-55 1.5q-23 4 -28 4q21 40 36 74t25 70t16 74t7 83 q1 25 -1.5 53.5t-10.5 53.5t-24.5 41.5t-42.5 16.5q-24 0 -44.5 -11.5t-35.5 -25t-23 -25.5t-8 -14q-32 32 -71 54t-82 22q-26 0 -48 -9.5t-37 -26t-23.5 -37.5t-8.5 -46q30 16 57 21t47 5q44 0 79 -16.5t59.5 -43t37.5 -60.5t13 -73q0 -42 -16 -77.5t-44 -62t-63.5 -42 t-75.5 -14.5q-64 1 -109 25.5t-73 67.5t-39.5 100t-7.5 124zM-1290 1922q0 -24 11 -45t31.5 -34.5t53.5 -13.5q31 0 52 13.5t31 34.5t10 45t-10 45t-31 34.5t-52.5 13.5t-52.5 -13.5t-32 -34.5t-11 -45z" />
<glyph unicode="&#xf708;" d="M-1306 2032v132h308v281h171v-281h305v-132h-305v-282h-171v282h-308z" />
<glyph unicode="&#xf709;" d="M-1133 1995q-1 41 9.5 80t31.5 71t51 57t67 39q42 16 89 23t98.5 13.5t103.5 13.5t105 22q46 13 73 35.5t42 45.5q15 25 21 53l116 -137q-10 -26 -29 -49q-17 -20 -45 -38q-29 -18 -69 -28q-31 -8 -68.5 -14t-70.5 -10t-55 -6t-25 -2q23 -16 37.5 -38t23 -47.5t9.5 -51.5 q3 -28 0 -51q-13 -107 -80 -165t-176 -58q-56 0 -102 18.5t-81.5 51.5t-55.5 76.5t-20 95.5zM-992 1998q0 -23 7 -44.5t22 -38t37 -27t51 -10.5q30 0 53 10t38 26t22.5 37t7.5 44t-7 44.5t-22 38.5t-36.5 27t-51.5 10t-53 -10t-38 -26.5t-22.5 -38t-7.5 -42.5z" />
<glyph unicode="&#xf70a;" d="M-382 1750v515h172v-515h-172z" />
<glyph unicode="&#xf70b;" d="M-942 2101q-2 44 12.5 82t41.5 65t63.5 42t79.5 15q49 0 86 -15t63.5 -42t40 -64.5t15 -81.5t-9.5 -87t-26 -76.5t-29 -55t-21 -23.5h27t58.5 4t74.5 13t77 26q43 20 74.5 54.5t52 76t30 86.5t9.5 88h153q0 -3 -1.5 -32.5t-11.5 -73.5t-30 -97t-56 -102 q-28 -38 -72 -65.5t-95.5 -46.5t-109 -30t-115 -16t-112.5 -5t-101 3q-30 0 -55.5 2t-49.5 5v83q4 0 13 1.5t21.5 3t25 6t24.5 9.5q34 17 49 37t20 43q-45 -5 -83 4t-68 32t-47 57.5t-18 74.5zM-834 2118q0 -24 10 -43.5t30 -33t50 -13.5t50 13.5t30 33t10 43.5t-10 43.5 t-30 33t-50 13.5t-50 -13.5t-30 -33t-10 -43.5z" />
<glyph unicode="&#xf70c;" d="M-1093 2048q3 54 20.5 105.5t49 90t75.5 61t101 20.5q36 -1 64 -11t48.5 -23.5t31.5 -23.5t12 -12q0 3 8.5 14.5t26.5 25t46 23.5t65 10q55 0 88.5 -24.5t52.5 -61t27 -80t8 -83.5q0 -43 -4.5 -75.5t-9.5 -57t-10 -40.5t-6 -21q34 17 57 43.5t36 58t18.5 67t8.5 71.5 q2 31 2 66.5v82.5q1 48 8 82t15 55t14.5 30.5t6.5 10.5h134q-25 -35 -35 -61t-15 -56q-10 -56 -11.5 -107.5t-2.5 -99.5q-1 -29 -2.5 -57.5t-6 -56.5t-13.5 -55t-24 -56q-26 -48 -61.5 -79t-75.5 -49t-80 -25t-72.5 -7.5t-55 1.5t-28.5 2q21 40 36 75t26 71t16 74q5 36 6 82 q2 24 -1 52.5t-11 53.5t-23.5 42.5t-42.5 17.5q-25 0 -45.5 -11.5t-35 -26t-23 -26t-8.5 -12.5q-31 31 -70.5 53.5t-82.5 22.5q-26 0 -47 -10t-37 -26.5t-24.5 -38t-8.5 -45.5q30 15 57 20t47 5q45 0 80 -15.5t60 -42t37.5 -61.5t12.5 -72q0 -42 -16 -77.5t-44 -63 t-64 -42.5t-76 -13q-64 1 -109 25.5t-73 67.5t-38.5 100t-8.5 123zM-960 1927.5q0 -24.5 11 -45t32.5 -35t53 -14.5t52 14.5t30.5 35t10 45t-10 45t-30.5 34.5t-52 14t-53 -14t-32.5 -34.5t-11 -45z" />
<glyph unicode="&#xf70d;" d="M-689 2032v132h307v281h172v-281h304v-132h-304v-282h-172v282h-307z" />
<glyph unicode="&#xf70e;" d="M-781 1995q-1 41 9.5 80t31.5 71t51 57t68 39q42 16 89 23t98 13.5t104 13.5t104 22q46 13 73 35.5t41 45.5q16 25 22 53l117 -137q-10 -26 -30 -49q-17 -20 -44 -37t-69 -29q-33 -7 -71 -12.5t-70 -10t-54 -7t-25 -2.5q23 -16 37 -37.5t23 -46.5t11 -52q2 -29 -1 -52 q-13 -107 -80 -165t-175 -58q-55 0 -102.5 18.5t-82.5 51.5t-55 76.5t-20 95.5zM-641 1998q0 -23 7.5 -44.5t22.5 -38t37 -27t51 -10.5q30 0 52.5 10t37.5 26t23 37t8 44t-7 44.5t-21.5 38.5t-36.5 27t-52 10t-53 -10t-38 -26.5t-23 -38t-8 -42.5z" />
<glyph unicode="&#xf70f;" horiz-adv-x="2019" d="M213 981v162q0 88 42 151t113.5 102.5t164.5 57t196 17.5q113 0 207 -16t160.5 -54t103 -98t36.5 -146v-872q0 -36 5 -63.5t17 -46.5t33.5 -29t54.5 -10h181q37 0 58.5 12t33 33.5t15 48t3.5 55.5v1179h173v-1182q0 -52 -7.5 -102.5t-30.5 -90.5t-64 -64.5t-108 -24.5 h-322q-65 0 -106.5 25t-66 66t-34 91.5t-9.5 102.5v839q0 56 -17.5 95t-56 63.5t-101 35t-149.5 10.5q-84 0 -149.5 -9t-111 -30t-69 -54.5t-23.5 -81.5v-50h217v-125q-7 0 -21.5 -3.5t-33 -13t-39 -26.5t-42.5 -43q-16 -20 -23.5 -40.5t-12 -40t-4.5 -35.5v-30v-281 q7 1 29.5 7t56.5 6q53 0 98.5 -17.5t79.5 -49.5t54 -77t20 -99.5t-20 -99.5t-54.5 -78t-80.5 -51.5t-97 -18.5q-59 0 -106 21.5t-81.5 59.5t-52 87t-17.5 105v468q0 36 7 74.5t33 79.5q25 37 55 62.5t68 36.5h-205zM396 234q0 -31 13 -56.5t38.5 -43t65.5 -17.5t66.5 17.5 t39.5 43t13 56.5t-13 56.5t-39.5 43.5t-66.5 18t-65.5 -18t-38.5 -43.5t-13 -56.5z" />
<glyph unicode="&#xf710;" d="M-1150 2081q0 51 17.5 92t48 70t71.5 44t88 15q46 0 86.5 -15.5t70.5 -44t47 -68.5t17 -85q0 -41 -15 -79q-16 -37 -39 -68q2 0 19.5 -3.5t47.5 -5t71.5 0.5t88 11.5t98 29.5t103.5 54q40 27 65.5 58t40.5 62.5t21.5 63t8.5 58.5l175 4q-2 -20 -8 -52t-19.5 -70 t-38.5 -81t-65 -84.5t-99 -78.5q-57 -37 -140 -66q-60 -20 -141.5 -32t-167.5 -13q-50 0 -103.5 5t-103.5 17t-94.5 32.5t-78 52t-53 75t-19.5 101.5zM-1024.5 2091.5q0.5 -26.5 11.5 -48t33.5 -36.5t54.5 -15q33 0 55 15t32.5 36.5t10 48t-11 48t-33.5 36.5t-55 15 q-34 0 -55.5 -15t-32 -36.5t-10 -48z" />
<glyph unicode="&#xf711;" d="M-1108 2027.5q0 51.5 17 100t51.5 86.5t85 61.5t119.5 23.5t119 -23.5t84 -61.5t51.5 -86.5t17.5 -100t-17.5 -100t-51.5 -86.5t-84 -61t-119 -23t-119.5 23t-85 61t-51.5 86.5t-17 100zM-962 2026q0 -33 14 -60.5t42 -46.5t71 -19q41 0 67.5 19t41 46.5t14.5 60.5 t-14.5 61t-41 46.5t-68 18.5t-70 -18.5t-42.5 -46.5t-14 -61z" />
<glyph unicode="&#xf712;" d="M-1503 1746v220q0 89 16.5 161t57.5 128q45 56 100 88t120 47t138 18.5t152 3.5q87 -1 149 9t104.5 25.5t68.5 34.5t40.5 34t19.5 25l5 11l110 -109q-1 0 -12 -15t-33 -36t-58.5 -45t-90.5 -41q-46 -13 -93 -18t-95 -5.5t-96 1.5t-95 2q-79 0 -142 -11.5t-107 -43 t-68.5 -88t-24.5 -146.5q0 -27 0.5 -50.5t3.5 -49.5l198 179q2 -6 15 -22.5t33 -38t44.5 -44t50 -41.5t50 -30t47.5 -10q-27 49 -26 103q0 44 18 83t48.5 66t70 42.5t82.5 15.5q48 0 88.5 -17.5t69 -47.5t44 -70.5t15.5 -85.5q0 -55 -23 -105t-71 -83q-49 -31 -104.5 -43 t-109.5 -11t-103 12.5t-82 27.5q-26 12 -54 28t-51.5 34t-40.5 33t-23 22l-153 -147h-203zM-805 1988q0 -27 10.5 -50t33.5 -38t57 -15q35 0 57 15t33.5 38t11.5 50t-11.5 50t-33.5 38t-57 15q-34 0 -57 -15t-33.5 -38t-10.5 -50z" />
<glyph unicode="&#xf713;" d="M-721 2434v415h172v-415h-172z" />
<glyph unicode="&#xf714;" d="M-1045 2773q-2 44 14.5 80.5t43 63t62.5 41.5t73 15q48 1 87 -14.5t66.5 -42.5t42 -64.5t14.5 -80.5q-2 -43 -14.5 -83.5t-29 -72t-32.5 -52.5q-17 -20 -23 -23q5 0 31 0.5t64 5t80.5 15t77.5 30.5q43 26 71.5 61t46 74.5t24 81t6.5 81.5h120q0 -2 -1.5 -30.5t-10 -71.5 t-27 -93.5t-53.5 -98.5q-44 -58 -110.5 -91t-143 -49.5t-156.5 -20t-149 -3.5q-30 0 -55.5 2t-51.5 5v85q3 0 13.5 0.5t23.5 2.5t26.5 5t25.5 9q40 18 61 60q-44 -7 -83 3t-69 33.5t-47.5 58.5t-17.5 78zM-937 2783.5q0 -23.5 10 -43.5t30 -33t50 -13t51 13t31 33t10 43.5 t-10 43.5t-31 33t-51 13t-50 -13t-30 -33t-10 -43.5z" />
<glyph unicode="&#xf715;" d="M-1070 2678q2 49 15.5 93.5t39 77t63.5 52.5t88 22q40 1 77.5 -15.5t64.5 -41.5q6 8 16 18t24 18.5t35 15t49 6.5q45 0 73.5 -20.5t45.5 -51.5t24 -67.5t7 -68.5q0 -38 -4 -67t-9 -50.5t-8.5 -34.5t-3.5 -17q30 11 48.5 32.5t30 50t18 62.5t8.5 66.5t1 64t-1 57.5 q0 20 1 41.5t4 42t9.5 38.5t18.5 31h115q-23 -20 -33 -44q-10 -26 -12 -55q-4 -54 -4 -101t-2 -93t-10.5 -89t-31.5 -86q-17 -31 -39.5 -53t-47.5 -38t-51.5 -25t-51.5 -15q-32 -7 -62 -8.5t-63 4.5q13 12 26 46t23 74t16.5 79t6.5 64q0 20 -3 43.5t-10 43.5t-20.5 33.5 t-36.5 13.5q-18 0 -42 -15t-54 -49q-29 27 -65.5 47t-73.5 20q-20 0 -35.5 -8.5t-27 -22t-19 -32.5t-9.5 -37q40 13 64 14.5t31 1.5q40 0 70.5 -14.5t50.5 -37.5t29 -53t9 -58q0 -36 -13 -66t-35.5 -52.5t-54 -34.5t-70.5 -13q-54 -2 -92.5 18t-63 56t-35 84t-8.5 103z M-952 2583.5q0 -20.5 9 -38t26.5 -29.5t44.5 -12q25 0 43 12t26.5 29.5t9.5 38t-8.5 38.5t-26.5 30t-44 12t-44.5 -12t-26.5 -30t-9 -38.5z" />
<glyph unicode="&#xf716;" d="M-971 2625v132h250v197h172v-197h249v-132h-249v-197h-172v197h-250z" />
<glyph unicode="&#xf717;" d="M-943 2504.5q-5 53.5 12 105.5q17 54 48 87t71.5 52t88.5 28t99.5 15.5t105 12.5t105.5 21q43 13 67 33.5t36.5 41t16.5 36t4 17.5l113 -131q-11 -26 -30 -45q-19 -20 -43 -36t-67 -26q-27 -8 -61.5 -13.5t-64.5 -10t-53 -7t-26 -2.5q13 -9 23 -17.5t18 -22.5 q14 -22 23 -55.5t7 -79.5q-9 -108 -79 -164.5t-189 -48.5q-68 3 -117 34.5t-76 76.5t-32 98.5zM-805 2526q0 -29 12 -54t36.5 -42.5t60.5 -17.5q37 0 62 17.5t38 42.5t13 54t-11.5 54t-36 42.5t-61.5 17.5t-62 -17.5t-38 -42.5t-13 -54z" />
<glyph unicode="&#xf718;" d="M-706 -869q-3 57 14.5 103.5t50.5 79t79 51.5t99 19q60 0 107 -19t80.5 -52.5t51.5 -80.5t18 -103v-377h-172v181q-7 -1 -27 -7.5t-51 -5.5q-49 0 -93 14.5t-78 41.5t-55.5 66.5t-23.5 88.5zM-569 -847q0 -28 12 -52.5t35.5 -40t59.5 -15.5t59.5 15.5t35 40t11.5 52.5 t-11.5 52t-35 40t-59.5 16t-59.5 -16t-35.5 -40t-12 -52z" />
<glyph unicode="&#xf719;" d="M-1135 -897q-2 55 16.5 100t52.5 77t79 50q46 18 98 18q58 0 104.5 -18.5t80 -52t51.5 -81t18 -104.5v-153h220v402h172v-554h-564v108l-24.5 -7t-47.5 -5q-52 0 -98.5 14.5t-81 43t-55.5 69t-21 93.5zM-998 -884.5q0 -27.5 12 -51.5t35.5 -40t59.5 -16t59.5 16t35.5 40 t12 51.5t-12 52t-35.5 41t-59.5 16.5t-59.5 -16.5t-35.5 -41t-12 -52z" />
<glyph unicode="&#xf71a;" d="M-518 -779.5q0 38.5 16.5 71.5t50 55t83.5 22q51 0 84.5 -22t50.5 -55t17 -71.5t-17 -72t-50.5 -56t-84.5 -22.5q-50 0 -83.5 22.5t-50 56t-16.5 72z" />
<glyph unicode="&#xf71d;" horiz-adv-x="1703" d="M86.5 1209q-0.5 49 16.5 98q23 59 61.5 94t83 50.5t92.5 15.5t90 -10q56 -18 89 -52t51 -70.5t23 -70.5t5 -56v-736l-7 -175l293 633h138l315 -633l-7 175v593q-16 -7 -31.5 -13.5t-38 -12t-52.5 -9t-73 -5.5q-37 0 -75.5 3.5t-75 13t-70 24t-58.5 36t-41.5 49 t-19.5 65.5q-4 51 16.5 91.5t60.5 70t97.5 46.5t125.5 19q99 0 166 -17t108.5 -38t59.5 -40.5t18 -21.5l23 30q9 13 16 35.5t17 58.5q9 30 11 56.5t-1 56.5h180q2 -11 0.5 -37t-6 -58t-13.5 -68t-25 -67q-23 -47 -46.5 -78t-45.5 -51q-13 -11 -25.5 -21t-25.5 -19v-1164 h-202l-347 742l-334 -742h-197v988q-6 -1 -20 -6t-37 -8t-54.5 0t-74.5 18q-48 16 -82.5 49t-52.5 76t-18.5 92zM220 1219q0 -31 13 -56.5t39.5 -42.5t64.5 -17q41 0 67 17t39 42.5t13 56.5t-13 56.5t-39 43t-67 17.5q-40 0 -65.5 -17.5t-38.5 -43t-13 -56.5zM973.5 1243.5 q-1.5 -19.5 12.5 -37.5t44 -30.5t77 -15.5q63 -3 101 8.5t60 24.5q13 8 22.5 16.5t17.5 17.5q0 3 -9 18t-33.5 31.5t-64.5 29t-101 12.5q-39 0 -67 -10.5t-43 -27.5t-16.5 -36.5z" />
<glyph d="M-1052 1853q-10 49 0 89.5t32.5 73t57 57.5t71 43.5t73.5 31.5t69 20q-66 8 -104.5 37t-48.5 76q-12 54 13 101.5t79.5 83.5t134.5 57t179 21q41 0 101 -5.5t148 -30.5v-100q-8 3 -29 9.5t-49 11.5t-57.5 9t-52.5 4t-51.5 -1t-58.5 -5t-58.5 -12.5t-50 -25t-31 -41.5 t-1.5 -62q2 -16 11.5 -33.5t28 -32t51 -24t80.5 -9.5v-72l-87 -5q-59 -4 -114.5 -19t-97 -42t-61.5 -66t-9 -89q6 -23 17.5 -40.5t28.5 -30.5t38.5 -20t43.5 -7q30 0 57.5 13.5t45 33.5t19 46.5t-23.5 52.5l89 37q26 -27 36 -61t7 -64q-2 -34 -22 -63.5t-53.5 -51t-79 -33.5 t-97.5 -12q-73 0 -123 13.5t-81.5 35t-48 49t-21.5 52.5z" />
<glyph horiz-adv-x="1216" d="M-1117 1994.5q0 51.5 17 100.5t51.5 86.5t85.5 60.5t118 23q69 0 119.5 -23t85 -60.5t51 -86.5t16.5 -100.5t-16.5 -100t-51 -86.5t-85 -60.5t-119.5 -22.5t-119 22.5t-84.5 60.5t-51.5 86.5t-17 100zM-971 1993.5q0 -32.5 14.5 -60.5t42 -46.5t69 -18.5t69 18.5 t41.5 46.5t14 60.5t-14 60.5t-41.5 46.5t-69 18.5t-69 -18.5t-42 -46.5t-14.5 -60.5zM67 1091v52q0 88 33.5 151t94.5 102.5t147 57t190 17.5q116 0 204.5 -20.5t148.5 -60.5t91.5 -98.5t31.5 -134.5v-1157h-173v1124q0 54 -14 93t-49.5 64.5t-94 38.5t-145.5 13 q-83 0 -140 -11.5t-93 -36t-51.5 -60t-15.5 -82.5v-52h-165z" />
<glyph horiz-adv-x="1216" d="M-1117 1994.5q0 51.5 17 100.5t51.5 86.5t85.5 60.5t118 23q69 0 119.5 -23t85 -60.5t51 -86.5t16.5 -100.5t-16.5 -100t-51 -86.5t-85 -60.5t-119.5 -22.5t-119 22.5t-84.5 60.5t-51.5 86.5t-17 100zM-971 1993.5q0 -32.5 14.5 -60.5t42 -46.5t69 -18.5t69 18.5 t41.5 46.5t14 60.5t-14 60.5t-41.5 46.5t-69 18.5t-69 -18.5t-42 -46.5t-14.5 -60.5zM67 1091v52q0 88 33.5 151t94.5 102.5t147 57t190 17.5q116 0 204.5 -20.5t148.5 -60.5t91.5 -98.5t31.5 -134.5v-1157h-173v1124q0 54 -14 93t-49.5 64.5t-94 38.5t-145.5 13 q-83 0 -140 -11.5t-93 -36t-51.5 -60t-15.5 -82.5v-52h-165z" />
<glyph d="M-368 2402v414h174v-414h-174z" />
<glyph d="M-782 2737q-2 44 14.5 80.5t43 63t62.5 41.5t74 15q49 2 87.5 -14t65.5 -43t42 -65t14 -81t-14 -83t-29.5 -71.5t-32 -52t-21.5 -23.5q4 0 30.5 0.5t63.5 5t80 15.5q43 12 79 32q43 26 71.5 60t45.5 73.5t23.5 81t5.5 81.5h121q0 -2 -1.5 -30.5t-10 -71.5t-27 -93.5 t-54.5 -97.5q-44 -59 -110.5 -92.5t-143 -49.5t-156 -19.5t-149.5 -3.5q-30 0 -55.5 2.5t-50.5 4.5v85q3 0 14 0.5t23.5 2t25.5 6t25 8.5q40 17 63 59q-45 -8 -84 3t-68.5 34.5t-47.5 58.5t-19 78zM-674 2747.5q0 -23.5 10 -42.5t31 -33q18 -14 50 -14q30 0 50.5 14t30.5 33 t10 42.5t-10 43.5t-30.5 33t-50.5 13t-50.5 -13t-30.5 -33t-10 -43.5z" />
<glyph d="M-878 2648q1 49 15.5 93.5t39.5 77t63 52.5t88 22q40 1 78 -15q38 -18 63 -44q6 9 17 19t25 19t34 15.5t49 6.5q44 0 73.5 -20.5t46 -51.5t23.5 -67q7 -35 7 -69q0 -38 -3.5 -67t-8.5 -50.5t-9.5 -35t-4.5 -16.5q30 11 49.5 32.5t31 50t17 61.5t8 66.5t2.5 65.5v56v42 t2.5 42.5t9 38.5t20.5 31h113q-22 -20 -31.5 -44.5t-12.5 -54.5q-4 -54 -2.5 -102t-1.5 -93.5t-12.5 -88.5t-30.5 -86q-17 -32 -40 -54t-47.5 -37t-50.5 -25q-28 -10 -54 -14q-31 -7 -60.5 -8.5t-62.5 4.5q13 12 25 46t22 73t16.5 78.5t6.5 65.5q0 20 -2.5 43.5t-10 43.5 t-21 33.5t-36.5 13.5q-17 0 -40.5 -15t-55.5 -49q-28 27 -64 47q-37 20 -74 20q-20 0 -36 -8.5t-27.5 -23t-18.5 -32.5t-10 -36q40 13 65 14.5t31 1.5q40 0 70 -14.5t50 -38t30 -53t10 -59.5q0 -36 -13 -65t-36.5 -51.5t-55 -35t-69.5 -12.5q-55 -2 -92.5 18t-62.5 56 t-36 84t-8 103zM-759 2553.5q0 -20.5 8.5 -38.5t26.5 -30.5t43.5 -12.5t44 12.5t26.5 30.5t8 38.5t-8 38.5t-26.5 30t-44.5 12q-27 0 -44 -12t-25.5 -30t-8.5 -38.5z" />
<glyph d="M-621 2590v130h251v194h171v-194h249v-130h-249v-195h-171v195h-251z" />
<glyph d="M-721 2400v413h172v-413h-172z" />
<glyph d="M-1135 2754q-2 45 14.5 81t43 63.5t61.5 41.5t74 16q48 1 86.5 -14.5t66.5 -43t42.5 -65t14.5 -80.5q-2 -43 -14.5 -83t-29 -72.5t-32.5 -52.5t-23 -22h30.5t64.5 5t80.5 15.5t77.5 30.5q43 26 71.5 61t46 73.5t23.5 79.5q7 43 7 83h120q0 -1 -1.5 -29.5t-10 -71.5 t-27.5 -94t-53 -99q-44 -59 -110.5 -92t-143 -49t-156.5 -19t-149 -3q-30 0 -56 2q-25 1 -51 4v84q3 0 13.5 0.5t23.5 3t26.5 6t23.5 9.5q40 17 63 58q-44 -7 -83.5 3t-69 34.5t-47 59.5t-17.5 76zM-1027 2766.5q0 -23.5 10 -43.5t30 -33.5t50 -13.5t50 13.5t31 33.5 t11 43.5t-11 43t-31 33t-50 13.5t-50 -13.5t-30 -33t-10 -43z" />
<glyph d="M-1158 2663q1 48 15.5 92.5t39.5 77.5t63 53t88 21q40 2 77 -15q37 -18 64 -43q6 8 16 18t24.5 19.5t35 16t49.5 6.5q44 0 72.5 -21t45.5 -51.5t25 -67.5q7 -35 7 -69q0 -37 -4.5 -66.5t-9.5 -51t-8.5 -35t-3.5 -16.5q30 12 48.5 33t31 50t18 61.5t7.5 66.5t2 65 q-1 30 -1 56q0 20 0.5 42t3.5 43t9.5 38.5t19.5 30.5h114q-23 -20 -33 -44t-11 -54q-5 -55 -4 -103t-1 -93.5t-11.5 -88.5t-32.5 -86q-17 -31 -39 -53.5t-47 -37.5t-51.5 -25t-52.5 -14q-31 -7 -61.5 -8.5t-62.5 4.5q12 13 25 46.5t23 73t16.5 78.5t6.5 65q0 20 -3 43.5 t-10 43.5t-20.5 33.5t-36.5 13.5q-17 0 -41.5 -15t-54.5 -49q-28 27 -64.5 47t-74.5 20q-20 0 -35.5 -8.5t-27 -23t-18.5 -32t-10 -36.5q40 13 64.5 14.5t31.5 1.5q40 0 70 -14.5t50 -38t30 -53t10 -59.5q0 -35 -13.5 -64.5t-36.5 -51.5t-54.5 -35t-70.5 -13q-54 -1 -92 19 t-63 55.5t-35.5 83.5t-7.5 104zM-1041 2567.5q0 -20.5 9.5 -38.5t26.5 -30t44 -12q26 0 44 12t26.5 30t8.5 38.5t-8.5 38.5t-26.5 30t-44 12q-27 0 -44 -12t-26.5 -30t-9.5 -38.5z" />
<glyph d="M-988 2598v132h249v197h171v-197h251v-132h-251v-197h-171v197h-249z" />
</font>
</defs>
</svg>
