<?xml version="1.0" standalone="no"?>
<!DOCTYPE svg PUBLIC "-//W3C//DTD SVG 1.1//EN" "http://www.w3.org/Graphics/SVG/1.1/DTD/svg11.dtd" >
<svg xmlns="http://www.w3.org/2000/svg" xmlns:xlink="http://www.w3.org/1999/xlink" version="1.1">
<metadata></metadata>
<defs>
<font id="mn_lannaitalic" horiz-adv-x="0" >
<font-face units-per-em="2560" ascent="2048" descent="-512" />
<missing-glyph horiz-adv-x="878" />
<glyph unicode="&#x2b;&#x2d;" horiz-adv-x="1720" d="M297 0l36 173h1113l-36 -173h-1113zM459 765l39 183h469l98 465h181l-101 -465h465l-38 -183h-465l-99 -465h-180l99 465h-468z" />
<glyph unicode="&#x2e;&#x2e;&#x2e;" horiz-adv-x="2342" d="M270 0l53 249h242l-53 -249h-242zM1051 0l53 249h242l-53 -249h-242zM1830 0l53 249h242l-53 -249h-242z" />
<glyph unicode="&#x3c;&#x3d;" horiz-adv-x="1537" d="M116 0l36 164h1279l-35 -164h-1280zM309 904l28 138l1406 594l-38 -183l-1156 -479l953 -476l-41 -186z" />
<glyph unicode="&#x3e;&#x3d;" horiz-adv-x="1537" d="M142 0l34 164h1280l-35 -164h-1279zM206 312l40 186l1154 476l-951 479l40 183l1154 -594l-30 -138z" />
<glyph unicode="&#xe4f;&#x22;" horiz-adv-x="1657" d="M256 465q-1 98 29.5 192.5t84 177.5t127.5 153t159.5 121t178.5 79t189 28q110 0 201.5 -39t156.5 -106t102.5 -158t37.5 -195q1 -100 -30 -194t-85 -176t-127 -150t-157.5 -117.5t-177.5 -76.5t-186 -27q-114 0 -206.5 37t-158 101.5t-102 154t-36.5 195.5zM389 490 q1 -82 29 -153t80.5 -123t124.5 -81.5t161 -29.5q75 0 149.5 23t142.5 63.5t126 96.5t101 121.5t66.5 140t23.5 151.5q0 85 -29.5 155.5t-81.5 122t-125 81.5t-162 30q-76 0 -150 -22t-142 -61.5t-125 -94.5t-99.5 -121.5t-66 -142t-23.5 -156.5zM521 521q0 57 17.5 112 t48.5 103.5t73 89.5t92 71t105 46.5t113 16.5q65 0 119 -21.5t91.5 -59.5t59 -91t20.5 -114q-2 -59 -19 -115t-47.5 -104.5t-73 -90t-91 -71.5t-104.5 -46.5t-111 -16.5q-66 0 -119.5 22.5t-91.5 61t-59.5 92t-22.5 115.5zM649 545q2 -40 16 -73t39 -57.5t60 -38t78 -13.5 q60 0 113 25t93 66t62.5 91.5t22.5 102.5q-2 38 -16 72t-39.5 58t-59.5 38.5t-77 14.5q-56 0 -108 -23.5t-93 -63t-65 -91t-26 -108.5zM784 1366l13 453q12 63 49.5 92.5t81.5 29.5q93 0 93 -78q-1 -17 -3.5 -32.5t-9 -37t-19 -54t-33.5 -81.5t-51 -120.5t-70 -171.5h-51z M1271 1366l13 453q13 63 50 92.5t85 29.5q90 0 90 -78q-2 -17 -4 -32.5t-9 -37t-19.5 -54t-33 -81.5t-50.5 -120.5t-72 -171.5h-50z" />
<glyph unicode="&#xe0e;&#xe3a;" horiz-adv-x="1663" d="M148 147q-8 45 1 93q13 55 43.5 99t71.5 75.5t89.5 49.5t98.5 18q34 0 56 -6q21 -4 28 -7l56 259q9 41 28 81t47 74t63.5 59.5t78.5 38.5h-204l34 162q19 88 75.5 151t137 102.5t179.5 57t202 17.5q115 0 209.5 -14t158.5 -50.5t91 -97.5t8 -152l-321 -1512 q-10 -44 -29 -87.5t-47.5 -78t-66.5 -56t-86 -21.5q-35 0 -71.5 15t-77.5 52q-57 49 -91.5 77.5t-53.5 46t-28 25t-14 13.5q0 -1 -11 -17t-30 -38t-45 -47t-57 -45q-128 -85 -243 -86q-52 -1 -100 13t-82 42t-51.5 70t-7.5 96.5t46.5 107.5t102.5 93q42 26 87 38t88.5 16 t82.5 2t70 -7t51.5 -10.5t26.5 -8.5q10 20 21 51.5t18 61.5h179q-2 -17 -7.5 -39.5t-13.5 -47.5t-17.5 -49t-19.5 -43q30 -20 68 -49.5t73 -55.5t61.5 -46.5t35.5 -24.5q18 -8 31 -2.5t21.5 17.5t14.5 29.5t9 32.5l306 1439q12 60 -2 100t-53.5 63t-104 32t-152.5 9 q-85 0 -153.5 -9t-119 -30t-82 -54.5t-41.5 -81.5l-12 -50h216l-26 -125q-7 0 -22 -3.5t-35.5 -13t-45.5 -26.5t-51 -43q-20 -20 -32 -40.5t-20 -40t-12 -35.5q-5 -18 -8 -30l-102 -483q-13 -60 -44 -110t-74 -86t-95.5 -56t-111.5 -20q-54 0 -94.5 20t-64.5 55.5t-32 80.5z M281 238q-6 -31 1 -56.5t29 -43.5t62 -18t70 18t49 43.5t25 56.5t-1 56.5t-30 43t-63 17.5t-69 -17.5t-48 -43t-25 -56.5zM368 -366q-3 -19 3.5 -34.5t20 -25.5t33.5 -15t41 -5q30 0 57.5 11.5t50 28.5t40.5 37t31.5 38t20 31t8.5 15q-35 12 -70 19t-71 7q-22 0 -49.5 -7 t-51 -20.5t-42 -33.5t-22.5 -46zM982 -806.5q8 38.5 31.5 71.5t62 56t88.5 23t78.5 -23t38 -56t1.5 -71.5t-31.5 -72t-62 -56t-88.5 -22.5t-79 22.5t-38 56t-1 72z" />
<glyph unicode="&#xe0f;&#xe3a;" horiz-adv-x="1663" d="M130 -389q13 60 48 104.5t81.5 73t101 43t104.5 14.5q28 0 52.5 -3t42.5 -6.5t30 -6.5q11 -3 13 -3q6 11 12.5 29t11.5 38l10 40t8 36h176q0 -1 -1.5 -12.5t-7 -35.5t-17 -60t-33.5 -89q9 -8 22.5 -19t28 -25t25.5 -29.5t19 -29.5l207 231l146 -238l312 1461 q12 60 -2 100t-53.5 63t-104 32t-152.5 9q-85 0 -153.5 -9t-119 -30t-82 -54.5t-41.5 -81.5l-12 -50h216l-26 -125q-7 0 -22 -3.5t-35.5 -13t-45.5 -26.5t-51 -43q-20 -20 -32 -40.5t-20 -40t-12 -35.5q-5 -18 -8 -30l-102 -483q-13 -59 -42.5 -109t-72.5 -86.5t-95 -57 t-109 -19.5q-55 2 -96.5 21t-67 52t-35 76.5t2.5 94.5q11 57 41 102.5t73 78.5t94 50t102 14q31 -1 51 -5q19 -3 26 -6l56 259q9 41 28 81t47 74t63.5 59.5t78.5 38.5h-204l34 162q19 88 75.5 151t137 102.5t179.5 57t202 17.5q115 0 209.5 -14t158.5 -50.5t91 -97.5t8 -152 l-342 -1603q-5 -27 -18.5 -54.5t-34.5 -49t-46.5 -34t-55.5 -11.5q-32 2 -52 22.5t-36 49.5l-95 186l-219 -256q-3 24 -15 53t-28.5 58t-36 54t-35.5 40q-25 -55 -64.5 -96.5t-85.5 -69t-95 -40t-95 -12.5q-56 0 -101.5 14t-74 42.5t-40 69t-0.5 91.5zM281 238 q-6 -31 1 -56.5t29 -43.5t62 -18t70 18t49 43.5t25 56.5t-1 56.5t-30 43t-63 17.5t-69 -17.5t-48 -43t-25 -56.5zM295 -386q-6 -30 13 -52t62 -24q33 0 61.5 12t51 33t39 49t24.5 56q-23 10 -47 15t-49 5q-21 0 -46.5 -5t-48.5 -17t-40.5 -29t-19.5 -43zM982 -806.5 q8 38.5 31.5 71.5t62 56t88.5 23t78.5 -23t38 -56t1.5 -71.5t-31.5 -72t-62 -56t-88.5 -22.5t-79 22.5t-38 56t-1 72z" />
<glyph unicode="&#xe0e;&#xe38;" horiz-adv-x="1663" d="M148 147q-8 45 1 93q13 55 43.5 99t71.5 75.5t89.5 49.5t98.5 18q34 0 56 -6q21 -4 28 -7l56 259q9 41 28 81t47 74t63.5 59.5t78.5 38.5h-204l34 162q19 88 75.5 151t137 102.5t179.5 57t202 17.5q115 0 209.5 -14t158.5 -50.5t91 -97.5t8 -152l-321 -1512 q-10 -44 -29 -87.5t-47.5 -78t-66.5 -56t-86 -21.5q-35 0 -71.5 15t-77.5 52q-57 49 -91.5 77.5t-53.5 46t-28 25t-14 13.5q0 -1 -11 -17t-30 -38t-45 -47t-57 -45q-128 -85 -243 -86q-52 -1 -100 13t-82 42t-51.5 70t-7.5 96.5t46.5 107.5t102.5 93q42 26 87 38t88.5 16 t82.5 2t70 -7t51.5 -10.5t26.5 -8.5q10 20 21 51.5t18 61.5h179q-2 -17 -7.5 -39.5t-13.5 -47.5t-17.5 -49t-19.5 -43q30 -20 68 -49.5t73 -55.5t61.5 -46.5t35.5 -24.5q18 -8 31 -2.5t21.5 17.5t14.5 29.5t9 32.5l306 1439q12 60 -2 100t-53.5 63t-104 32t-152.5 9 q-85 0 -153.5 -9t-119 -30t-82 -54.5t-41.5 -81.5l-12 -50h216l-26 -125q-7 0 -22 -3.5t-35.5 -13t-45.5 -26.5t-51 -43q-20 -20 -32 -40.5t-20 -40t-12 -35.5q-5 -18 -8 -30l-102 -483q-13 -60 -44 -110t-74 -86t-95.5 -56t-111.5 -20q-54 0 -94.5 20t-64.5 55.5t-32 80.5z M281 238q-6 -31 1 -56.5t29 -43.5t62 -18t70 18t49 43.5t25 56.5t-1 56.5t-30 43t-63 17.5t-69 -17.5t-48 -43t-25 -56.5zM368 -366q-3 -19 3.5 -34.5t20 -25.5t33.5 -15t41 -5q30 0 57.5 11.5t50 28.5t40.5 37t31.5 38t20 31t8.5 15q-35 12 -70 19t-71 7q-22 0 -49.5 -7 t-51 -20.5t-42 -33.5t-22.5 -46zM759 -914q9 57 37 103.5t68 79.5t89 51.5t102 18.5q60 0 104 -18.5t70.5 -52t34 -80.5t-3.5 -105l-82 -376h-171l38 180q-7 -1 -27.5 -6.5t-53.5 -4.5q-49 0 -89.5 14.5t-68.5 41.5t-41.5 65.5t-5.5 88.5zM901 -891.5q-6 -27.5 1 -52 t27.5 -40.5t55.5 -16q36 0 63 16t44.5 40.5t23 52t-1.5 51t-27 40t-56 16.5t-63 -16.5t-44 -40t-23 -51z" />
<glyph unicode="&#xe0f;&#xe38;" horiz-adv-x="1663" d="M129.5 -480.5q-10.5 40.5 0.5 91.5q13 60 48 104.5t82 73t101 43t104 14.5q28 0 52.5 -3t42.5 -6.5t30 -6.5q11 -3 13 -3q6 11 12.5 29t11.5 38l10 40t8 36h176q0 -1 -1.5 -11t-7 -33t-17 -61t-33.5 -92q9 -8 22.5 -19t28 -25t25.5 -29.5t19 -29.5l207 231l146 -238 l312 1461q12 60 -2 100t-53.5 63t-104 32t-152.5 9q-85 0 -153.5 -9t-119 -30t-82 -54.5t-41.5 -81.5l-12 -50h216l-26 -125q-7 0 -22 -3.5t-35.5 -13t-45.5 -26.5t-51 -43q-20 -20 -32 -40.5t-20 -40t-12 -35.5q-5 -18 -8 -30l-102 -483q-13 -59 -42.5 -109t-72.5 -86.5 t-95 -57t-109 -19.5q-55 2 -96.5 21t-67 52t-35 76.5t2.5 94.5q11 57 41 102.5t73 78.5t94 50t102 14q31 -1 51 -5q19 -3 26 -6l56 259q9 41 28 81t47 74t63.5 59.5t78.5 38.5h-204l34 162q19 88 75.5 151t137 102.5t179.5 57t202 17.5q115 0 209.5 -14t158.5 -50.5 t91 -97.5t8 -152l-342 -1603q-5 -27 -18.5 -54.5t-34.5 -49t-46.5 -34t-55.5 -11.5q-32 2 -52 22.5t-36 49.5l-95 186l-219 -256q-3 24 -15 53t-28.5 58t-36 54t-35.5 40q-24 -55 -62.5 -96t-86.5 -69t-100 -40.5t-102 -12.5q-53 0 -95.5 14t-71 42.5t-39 69zM281 238 q-6 -31 1 -56.5t29 -43.5t62 -18t70 18t49 43.5t25 56.5t-1 56.5t-30 43t-63 17.5t-69 -17.5t-48 -43t-25 -56.5zM295 -386q-6 -30 13 -52t62 -24q33 0 61.5 12t51 33t39 49t24.5 56q-23 10 -47 15t-49 5q-21 0 -46.5 -5t-48.5 -17t-40.5 -29t-19.5 -43zM759 -914 q9 57 37 103.5t68 79.5t89 51.5t102 18.5q60 0 104 -18.5t70.5 -52t34 -80.5t-3.5 -105l-82 -376h-171l38 180q-7 -1 -27.5 -6.5t-53.5 -4.5q-49 0 -89.5 14.5t-68.5 41.5t-41.5 65.5t-5.5 88.5zM901 -891.5q-6 -27.5 1 -52t27.5 -40.5t55.5 -16q36 0 63 16t44.5 40.5t23 52 t-1.5 51t-27 40t-56 16.5t-63 -16.5t-44 -40t-23 -51z" />
<glyph unicode="&#xe0e;&#xe39;" horiz-adv-x="1663" d="M148 147q-8 45 1 93q13 55 43.5 99t71.5 75.5t89.5 49.5t98.5 18q34 0 56 -6q21 -4 28 -7l56 259q9 41 28 81t47 74t63.5 59.5t78.5 38.5h-204l34 162q19 88 75.5 151t137 102.5t179.5 57t202 17.5q115 0 209.5 -14t158.5 -50.5t91 -97.5t8 -152l-321 -1512 q-10 -44 -29 -87.5t-47.5 -78t-66.5 -56t-86 -21.5q-35 0 -71.5 15t-77.5 52q-57 49 -91.5 77.5t-53.5 46t-28 25t-14 13.5q0 -1 -11 -17t-30 -38t-45 -47t-57 -45q-128 -85 -243 -86q-52 -1 -100 13t-82 42t-51.5 70t-7.5 96.5t46.5 107.5t102.5 93q42 26 87 38t88.5 16 t82.5 2t70 -7t51.5 -10.5t26.5 -8.5q10 20 21 51.5t18 61.5h179q-2 -17 -7.5 -39.5t-13.5 -47.5t-17.5 -49t-19.5 -43q30 -20 68 -49.5t73 -55.5t61.5 -46.5t35.5 -24.5q18 -8 31 -2.5t21.5 17.5t14.5 29.5t9 32.5l306 1439q12 60 -2 100t-53.5 63t-104 32t-152.5 9 q-85 0 -153.5 -9t-119 -30t-82 -54.5t-41.5 -81.5l-12 -50h216l-26 -125q-7 0 -22 -3.5t-35.5 -13t-45.5 -26.5t-51 -43q-20 -20 -32 -40.5t-20 -40t-12 -35.5q-5 -18 -8 -30l-102 -483q-13 -60 -44 -110t-74 -86t-95.5 -56t-111.5 -20q-54 0 -94.5 20t-64.5 55.5t-32 80.5z M281 238q-6 -31 1 -56.5t29 -43.5t62 -18t70 18t49 43.5t25 56.5t-1 56.5t-30 43t-63 17.5t-69 -17.5t-48 -43t-25 -56.5zM366 -914q10 55 38 100t68.5 76.5t90 49t101.5 17.5q58 0 101.5 -18.5t69.5 -52t34 -80.5t-4 -105l-33 -153h220l86 404h172l-117 -554h-564l23 106 q-7 -1 -26.5 -5.5t-49.5 -4.5q-51 0 -94 14.5t-72.5 42t-41.5 69t-2 94.5zM368 -366q-3 -19 3.5 -34.5t20 -25.5t33.5 -15t41 -5q30 0 57.5 11.5t50 28.5t40.5 37t31.5 38t20 31t8.5 15q-35 12 -70 19t-71 7q-22 0 -49.5 -7t-51 -20.5t-42 -33.5t-22.5 -46zM507.5 -902 q-5.5 -28 1 -52t26.5 -40t56 -16q35 0 62.5 16t44.5 40t23.5 52t-0.5 51.5t-27 40t-56 16.5t-63 -16.5t-44.5 -40t-23 -51.5z" />
<glyph unicode="&#xe0f;&#xe39;" horiz-adv-x="1663" d="M129.5 -480.5q-10.5 40.5 0.5 91.5q13 60 48 104.5t82 73t101 43t104 14.5q28 0 52.5 -3t42.5 -6.5t30 -6.5q11 -3 13 -3q6 11 12.5 29t11.5 38l10 40t8 36h176q0 -1 -1.5 -11t-7 -33t-17 -61t-33.5 -92q9 -8 22.5 -19t28 -25t25.5 -29.5t19 -29.5l207 231l146 -238 l312 1461q12 60 -2 100t-53.5 63t-104 32t-152.5 9q-85 0 -153.5 -9t-119 -30t-82 -54.5t-41.5 -81.5l-12 -50h216l-26 -125q-7 0 -22 -3.5t-35.5 -13t-45.5 -26.5t-51 -43q-20 -20 -32 -40.5t-20 -40t-12 -35.5q-5 -18 -8 -30l-102 -483q-13 -59 -42.5 -109t-72.5 -86.5 t-95 -57t-109 -19.5q-55 2 -96.5 21t-67 52t-35 76.5t2.5 94.5q11 57 41 102.5t73 78.5t94 50t102 14q31 -1 51 -5q19 -3 26 -6l56 259q9 41 28 81t47 74t63.5 59.5t78.5 38.5h-204l34 162q19 88 75.5 151t137 102.5t179.5 57t202 17.5q115 0 209.5 -14t158.5 -50.5 t91 -97.5t8 -152l-342 -1603q-5 -27 -18.5 -54.5t-34.5 -49t-46.5 -34t-55.5 -11.5q-32 2 -52 22.5t-36 49.5l-95 186l-219 -256q-3 24 -15 53t-28.5 58t-36 54t-35.5 40q-24 -55 -62.5 -96t-86.5 -69t-100 -40.5t-102 -12.5q-53 0 -95.5 14t-71 42.5t-39 69zM281 238 q-6 -31 1 -56.5t29 -43.5t62 -18t70 18t49 43.5t25 56.5t-1 56.5t-30 43t-63 17.5t-69 -17.5t-48 -43t-25 -56.5zM295 -386q-6 -30 13 -52t62 -24q33 0 61.5 12t51 33t39 49t24.5 56q-23 10 -47 15t-49 5q-21 0 -46.5 -5t-48.5 -17t-40.5 -29t-19.5 -43zM366 -914 q10 55 38 100t68.5 76.5t90 49t101.5 17.5q58 0 101.5 -18.5t69.5 -52t34 -80.5t-4 -105l-33 -153h220l86 404h172l-117 -554h-564l23 106q-7 -1 -26.5 -5.5t-49.5 -4.5q-51 0 -94 14.5t-72.5 42t-41.5 69t-2 94.5zM507.5 -902q-5.5 -28 1 -52t26.5 -40t56 -16q35 0 62.5 16 t44.5 40t23.5 52t-0.5 51.5t-27 40t-56 16.5t-63 -16.5t-44.5 -40t-23 -51.5z" />
<glyph unicode="&#xd;" horiz-adv-x="1035" />
<glyph unicode=" "  horiz-adv-x="878" />
<glyph unicode="&#x09;" horiz-adv-x="878" />
<glyph unicode="&#xa0;" horiz-adv-x="878" />
<glyph unicode="!" horiz-adv-x="650" d="M209.5 131.5q7.5 37.5 30.5 69.5t59.5 53.5t85.5 21.5q47 0 75 -21.5t36.5 -53.5t0.5 -69.5t-31 -69.5t-58.5 -53.5t-84.5 -21.5q-48 0 -75.5 21.5t-36.5 53.5t-1.5 69.5zM352 399l100 729l119 557h227l-119 -557l-214 -729h-113z" />
<glyph unicode="&#x22;" horiz-adv-x="790" d="M409 1084l129 601h150l-129 -601h-150zM728 1084l127 601h150l-127 -601h-150z" />
<glyph unicode="#" horiz-adv-x="1302" d="M170 490l53 151h243l115 333h-244l55 146h240l172 490h157l-175 -490h294l170 490h157l-170 -490h242l-53 -146h-242l-119 -333h242l-54 -151h-241l-170 -490h-154l170 490h-293l-170 -490h-158l175 490h-242zM619 641h293l115 333h-289z" />
<glyph unicode="$" horiz-adv-x="1562" d="M223 402.5q4 53.5 17 110.5h183q-21 -101 1 -174t72 -121.5t119 -75t140 -33.5l134 636l-173 46q-22 4 -56 14t-69.5 28.5t-70.5 46t-58.5 66t-33.5 89t4 118.5q20 91 70 179.5t132 159.5t194.5 114.5t254.5 43.5l22 110h106l-24 -113q114 -10 193 -40.5t129 -74 t75.5 -96t34 -106.5t4.5 -105t-11 -91h-183q17 82 1 145.5t-55 107.5t-96.5 69t-124.5 33l-127 -594l190 -48q70 -18 132 -48t104.5 -78.5t59 -118t-2.5 -163.5q-19 -89 -58 -160.5t-93.5 -125t-119 -91.5t-133.5 -61.5t-140 -35t-138 -11.5l-26 -123h-106l25 120 q-98 0 -165 15t-114 38t-76 50.5t-49 51.5q-41 46 -62.5 93.5t-28.5 98.5t-3 104.5zM625 1184q-12 -51 2 -90t39.5 -66t59 -44t65.5 -24l137 -36l120 569q-58 0 -125.5 -16.5t-127.5 -53t-106.5 -95t-63.5 -144.5zM859 109q42 3 90 12t96 25t93 41t82 57.5t63.5 75 t37.5 95.5q13 63 4.5 108t-44 78.5t-101 60t-163.5 52.5l-27 7z" />
<glyph unicode="%" horiz-adv-x="2046" d="M313 -7l1612 1746h197l-1616 -1746h-193zM442.5 1102q-2.5 45 2 92t14.5 87q9 42 23 88.5t36.5 91.5t53 87t71.5 73.5t91.5 50t114.5 18.5q63 0 107 -18.5t71 -50t40.5 -73.5t17 -87t-1.5 -91.5t-13 -88.5q-9 -41 -24 -87.5t-38 -91.5t-53.5 -86t-71.5 -72.5t-92.5 -50 t-114.5 -18.5q-64 0 -107 18.5t-71 50t-40.5 72.5t-15 86zM608 1174q-3 -50 6 -86t32 -55t60.5 -19t66 19t51.5 54.5t40.5 86t30.5 114.5q13 62 17.5 110.5t-4.5 83.5t-29.5 53t-57.5 18q-75 0 -122 -69.5t-76 -197.5q-12 -62 -15 -112zM1330 217q-3 45 2 91.5t14 86.5 q8 41 23 87.5t37.5 92.5t52.5 87.5t70.5 73.5t92 50.5t115.5 18.5q63 0 107 -18.5t71 -50.5t40.5 -73.5t17 -87.5t-1.5 -92.5t-13 -87.5q-9 -42 -24 -87.5t-38 -90.5t-53.5 -86.5t-71.5 -72.5t-92.5 -50t-114.5 -19q-64 0 -107.5 19t-71 50t-40 72.5t-15.5 86.5zM1496 287 q-3 -50 6.5 -85.5t31.5 -55t59 -19.5t66.5 19.5t52.5 54.5t40.5 86.5t32.5 115.5q13 62 16.5 110.5t-4.5 83t-30 52t-60 17.5q-74 0 -121 -68.5t-74 -198.5q-13 -62 -16 -112z" />
<glyph unicode="&#x26;" horiz-adv-x="1562" d="M179.5 330q2.5 45 9.5 76q17 84 48.5 153t87 129.5t141.5 119.5t215 124q-33 56 -57.5 101t-37.5 88t-15 86.5t10 99.5q15 73 56 141t103 120t143 84.5t177 32.5q98 0 163 -31.5t100 -81.5t44 -111.5t-4 -124.5q-19 -89 -66 -157.5t-106.5 -122.5t-123 -94.5 t-117.5 -72.5l240 -380q18 29 36 59t36 63t36 72t38 88h178q-25 -86 -81 -196t-147 -232l227 -363h-239l-121 204q-53 -48 -112.5 -91t-129 -76.5t-149.5 -53.5t-173 -20q-106 0 -178 24t-118.5 63t-71 86.5t-34.5 98t-7.5 95.5zM378.5 324.5q6.5 -41.5 25.5 -73.5t47.5 -55 t61 -37.5t64.5 -20.5t58 -6q59 1 119 16.5t116.5 42t108.5 63t95 79.5l-303 484q-77 -45 -141 -81.5t-113 -79.5t-84 -98q-33 -56 -50 -138q-11 -54 -4.5 -95.5zM759 1318q-8 -41 2 -85.5t29 -85t42 -75t42 -58.5q37 21 86.5 51t95 67.5t81.5 82.5t47 99q13 55 3.5 94 t-33 65t-58.5 38t-74 12q-65 0 -112.5 -22t-79 -53t-48.5 -66.5t-23 -63.5z" />
<glyph unicode="'" horiz-adv-x="519" d="M409 1084l129 601h150l-129 -601h-150z" />
<glyph unicode="(" horiz-adv-x="779" d="M284.5 347q1.5 141 35.5 305q33 156 89.5 297t136 275t181 266t224.5 267h120q-70 -92 -131.5 -175t-113.5 -166t-98 -169t-85.5 -184.5t-73 -213t-63.5 -251.5q-30 -145 -33.5 -274.5t11.5 -254.5t47 -250.5t72 -261.5h-113q-62 136 -110 262.5t-72.5 256.5t-23 271z " />
<glyph unicode=")" horiz-adv-x="779" d="M-3 -443q99 136 184 261.5t153.5 250.5t120.5 255q51 131 81 274q30 138 45 252t17.5 212.5t-6.5 184.5t-26.5 169t-43.5 166t-59 175h122q66 -135 111.5 -267t67.5 -266t18 -275.5t-37 -296.5q-34 -164 -92 -305t-139 -271t-182.5 -256.5t-221.5 -262.5h-113z" />
<glyph unicode="*" horiz-adv-x="910" d="M385 1384l75 129l226 -89l56 261h139l-54 -261l266 89l17 -129l-269 -81l111 -212l-130 -81l-107 220l-197 -220l-100 81l203 212z" />
<glyph unicode="+" horiz-adv-x="1458" d="M213 556l37 172h549l116 546h172l-116 -546h546l-36 -172h-546l-117 -545h-172l118 545h-551z" />
<glyph unicode="," horiz-adv-x="650" d="M124 -340l22 104q3 0 17 3t34 11.5t43 25t42 43.5q25 37 41 75.5t23 68.5q-34 -7 -62.5 -2t-48 21t-27.5 43t1 64q5 27 20.5 53.5t37.5 48t51 34.5t64 13q48 0 74.5 -20.5t38 -51.5t10 -68t-6.5 -69q-16 -74 -50.5 -138.5t-74.5 -115.5q-47 -60 -109 -98t-140 -45z" />
<glyph unicode="-" horiz-adv-x="1368" d="M295 556l35 172h1017l-36 -172h-1016z" />
<glyph unicode="." horiz-adv-x="650" d="M209.5 131.5q7.5 37.5 30.5 69.5t59.5 53.5t85.5 21.5q47 0 75 -21.5t36.5 -53.5t0.5 -69.5t-31 -69.5t-58.5 -53.5t-84.5 -21.5q-48 0 -75.5 21.5t-36.5 53.5t-1.5 69.5z" />
<glyph unicode="/" horiz-adv-x="1053" d="M-41 -7l1611 1746h197l-1615 -1746h-193z" />
<glyph unicode="0" horiz-adv-x="1338" d="M242.5 449.5q-3.5 93.5 8 189.5t29.5 182q17 84 46.5 180t72.5 189.5t102.5 180t136 152.5t172 104.5t214.5 38.5q117 0 196.5 -38.5t128 -104.5t70.5 -152.5t25 -180t-7.5 -189.5t-29.5 -180q-17 -85 -46.5 -181.5t-73 -190t-102 -180t-135 -152.5t-173 -104.5 t-213.5 -38.5q-118 0 -197 38.5t-128.5 104.5t-71 152.5t-25 180zM434.5 540q-5.5 -125 20 -213t85 -136t156.5 -48q98 0 179.5 48.5t146.5 137.5t113.5 214.5t81.5 280t38 279.5t-21.5 212.5t-87.5 134.5t-158 47t-178 -48t-144.5 -135.5t-111.5 -213t-81 -279.5 q-33 -156 -38.5 -281z" />
<glyph unicode="1" horiz-adv-x="1338" d="M575 1213l26 120q68 4 123 9.5t101 18t84 33t72 54t65.5 82.5t63.5 117h133l-351 -1647h-190l258 1213h-385z" />
<glyph unicode="2" horiz-adv-x="1338" d="M99 0q30 127 80.5 227t118 179t149 139.5t174.5 109.5l247 124q76 36 144.5 71t123 78.5t91 101t49.5 138.5q7 32 6 67.5t-11.5 70t-31.5 66t-55 55t-81.5 38t-112.5 14.5q-78 0 -138 -23t-106.5 -59.5t-80 -83t-56.5 -93.5t-36.5 -89.5t-19.5 -72.5h-190 q27 130 77 225.5t113 160.5t132.5 105t138 62t129.5 29t107 7q105 0 191 -34t142.5 -97t78 -154.5t-2.5 -204.5q-23 -110 -75.5 -188t-126.5 -138t-168 -108.5t-200 -100.5l-187 -94q-103 -52 -168.5 -105.5t-105.5 -102t-59.5 -88.5t-29.5 -63h908l-34 -169h-1124z" />
<glyph unicode="3" horiz-adv-x="1338" d="M197.5 382.5q1.5 69.5 11.5 140.5h194q-8 -40 -11.5 -83.5t3.5 -85.5t25.5 -80.5t53.5 -67.5t88.5 -46t129.5 -17q84 0 158 23t132.5 66t98.5 105q40 61 56 138q14 70 5 120.5t-34 86.5t-63 57.5t-79.5 33.5t-83.5 17q-44 5 -78 5q-23 0 -46 -2t-49 -2l33 154 q30 -3 54.5 -3.5t54.5 -0.5q57 0 119 15t117.5 47t97.5 86q42 52 58 129q8 38 3 86.5t-32 91.5t-83 72t-150 29q-73 0 -131 -19t-102 -50.5t-75.5 -71t-53 -81t-35 -80t-19.5 -67.5h-187q8 59 30 122t58.5 122t90.5 113t122.5 94t154 63.5t190.5 23.5q120 0 207 -33t141 -90 t71 -136.5t-3 -173.5q-17 -80 -50 -139.5t-73 -100.5t-82 -65t-80 -36l-1 -7q56 -20 100 -51.5t70 -77t33 -108.5t-10 -146q-14 -67 -42.5 -132t-71.5 -124t-101 -109t-131.5 -85.5t-163 -56.5t-195.5 -21q-91 0 -162 20q-68 20 -125 53q-63 37 -97.5 89.5t-48 114.5 t-12 131.5z" />
<glyph unicode="4" horiz-adv-x="1338" d="M160 399l43 202l977 1046h173l-229 -1076h240l-36 -172h-241l-85 -399h-197l84 399h-729zM362 571h565l167 787z" />
<glyph unicode="5" horiz-adv-x="1338" d="M180 425h195q-9 -72 9 -127t58.5 -92t101.5 -57q62 -19 140 -17q94 1 170.5 34t134.5 86.5t97 125t58 150.5q20 94 3 167.5t-61.5 123t-111.5 73t-145 20.5q-48 -1 -98 -14t-96.5 -35t-89 -55t-72.5 -76l-161 10l311 884h853l-36 -169h-709l-178 -487q60 41 146 69 t205 31q100 0 190.5 -34t154.5 -99.5t90.5 -163t-1.5 -224.5q-10 -46 -31 -107.5t-57.5 -125.5t-91.5 -126.5t-131.5 -111t-178.5 -78.5t-230 -30q-55 0 -110.5 8.5t-107 28.5t-96 53.5t-75 83.5t-44 119.5t-5.5 161.5z" />
<glyph unicode="6" horiz-adv-x="1338" d="M232.5 474.5q0.5 71.5 11.5 149.5t28 160q20 91 52 191t79 197.5t111 185.5t146 154.5t184 105.5q103 39 226 39q47 0 97.5 -9t98 -30t87.5 -54.5t67 -83t38 -114.5q12 -65 -2 -149h-178q3 54 -9 104t-43 88t-79.5 60t-119.5 22q-85 0 -156.5 -33.5t-130 -89t-105 -126.5 t-79.5 -142.5t-53 -139.5t-28 -118l3 -4q27 39 68.5 80.5t99.5 75t132 55t166 21.5q50 0 105.5 -11.5t108 -37.5t96.5 -66t72 -98t36 -135t-14 -177q-25 -125 -83 -229t-143 -180t-196 -119t-244 -43q-56 0 -115 11.5t-113.5 38.5t-99.5 73t-75 116q-26 59 -36.5 124.5 t-10 137zM430 387.5q8 -70.5 41.5 -124.5t96.5 -88.5t157 -34.5q80 0 151 29.5t127.5 81.5t95.5 125.5t58 161.5q8 40 10.5 83t-6 84t-28.5 78.5t-54 64.5t-84 44q-51 16 -120 16q-91 0 -165 -30.5t-129 -83t-91.5 -122t-51.5 -144.5q-16 -70 -8 -140.5z" />
<glyph unicode="7" horiz-adv-x="1338" d="M352 0q38 114 98.5 239.5t135.5 253.5t164 256.5t185 250t196 232.5t197 204h-918l40 191h1139l-37 -180q-52 -44 -125.5 -117t-162.5 -172.5t-184.5 -224t-189 -271t-180.5 -312.5t-154 -350h-204z" />
<glyph unicode="8" horiz-adv-x="1338" d="M190 318q-4 52 2.5 96.5t13.5 75.5q16 75 53.5 140.5t87 116.5t104.5 85.5t108 49.5q-87 45 -123.5 128t-13.5 203q8 43 28 93t54 100t81 95.5t110.5 81.5t145 57.5t181.5 21.5q92 0 160.5 -19t118 -50t79.5 -74t45.5 -90.5t16.5 -97.5t-9 -98q-19 -88 -54 -146.5 t-75 -97.5t-80.5 -63.5t-70.5 -43.5q45 -23 77.5 -51.5t52.5 -62t30 -70t12.5 -73t-1 -70.5t-10.5 -65q-21 -100 -78.5 -194t-144 -167t-198 -117.5t-241.5 -44.5q-37 0 -84 3.5t-96 16t-97 37.5q-49 25 -86 68q-52 58 -73.5 116t-25.5 110zM401 414.5q-2 -38.5 5 -75 t25.5 -69.5t52.5 -58t86 -40t125 -15q59 0 126 18t127 56.5t106 100.5q44 61 64 148q17 83 -0.5 140.5t-59 94t-103 53t-130.5 16.5q-87 0 -157 -26t-121.5 -67.5t-86 -94.5t-50.5 -108q-7 -35 -9 -73.5zM631 1230q-13 -62 0.5 -109t48 -79t84.5 -48t110 -16 q64 0 123.5 19.5t106.5 53.5t80 80.5t44 101.5q9 40 4 83.5t-33 80t-82.5 59.5t-144.5 23q-83 0 -143 -24.5t-102 -61.5t-65.5 -81t-30.5 -82z" />
<glyph unicode="9" horiz-adv-x="1338" d="M219.5 264.5q-10.5 65.5 3.5 148.5h176q-3 -55 9 -104.5t43 -87t80.5 -59.5t120.5 -22q84 0 155 33.5t129.5 89.5t105 126t79.5 142t53.5 140t28.5 118l-3 3q-27 -38 -69.5 -79t-99.5 -74.5t-130.5 -55t-166.5 -21.5q-52 0 -107 11.5t-106.5 36.5t-96 65.5t-73 98.5 t-36.5 135.5t14 175.5q26 125 83.5 229.5t143 181t196 119t243.5 42.5q56 0 115.5 -11.5t113.5 -38.5t100 -72.5t75 -115.5q24 -59 34.5 -125t10 -138t-10.5 -149t-27 -160q-20 -92 -52.5 -192t-79.5 -197.5t-110.5 -184.5t-146 -153.5t-184 -106t-224.5 -39.5 q-47 0 -98.5 9.5t-98.5 30t-87 54.5t-67.5 82.5t-38 114zM510.5 1009.5q-1.5 -42.5 6.5 -83.5t27 -78t53.5 -65t84.5 -43.5t119 -15.5q91 0 165.5 30.5t129.5 82.5t91.5 121t53.5 146q15 70 7.5 139.5t-41.5 124.5t-97 89t-158 34q-80 0 -150.5 -29t-127 -82t-96 -126 t-57.5 -161q-9 -41 -10.5 -83.5z" />
<glyph unicode=":" horiz-adv-x="650" d="M209.5 131.5q7.5 37.5 30.5 69.5t59.5 53.5t85.5 21.5q47 0 75 -21.5t36.5 -53.5t0.5 -69.5t-31 -69.5t-58.5 -53.5t-84.5 -21.5q-48 0 -75.5 21.5t-36.5 53.5t-1.5 69.5zM408 1069.5q8 37.5 31 69.5t59.5 53.5t84.5 21.5t75.5 -21.5t36.5 -53.5t1 -69.5t-31 -69.5 t-59.5 -53.5t-83.5 -21.5q-49 0 -76 21.5t-36.5 53.5t-1.5 69.5z" />
<glyph unicode=";" horiz-adv-x="650" d="M124 -340l22 104q3 0 17 3t34 11.5t43 25t42 43.5q25 37 41 75.5t23 68.5q-34 -7 -62.5 -2t-48 21t-27.5 43t1 64q5 27 20.5 53.5t37.5 48t51 34.5t64 13q48 0 74.5 -20.5t38 -51.5t10 -68t-6.5 -69q-16 -74 -50.5 -138.5t-74.5 -115.5q-47 -60 -109 -98t-140 -45z M408 1069.5q8 37.5 31 69.5t59.5 53.5t84.5 21.5t75.5 -21.5t36.5 -53.5t1 -69.5t-31 -69.5t-59.5 -53.5t-83.5 -21.5q-49 0 -76 21.5t-36.5 53.5t-1.5 69.5z" />
<glyph unicode="&#x3c;" horiz-adv-x="1368" d="M222 512l34 162l1246 486l-41 -186l-995 -381l834 -380l-39 -187z" />
<glyph unicode="=" horiz-adv-x="1401" d="M174 323l36 169h1186l-36 -169h-1186zM275 795l37 172h1185l-37 -172h-1185z" />
<glyph unicode="&#x3e;" horiz-adv-x="1387" d="M126 26l40 187l992 380l-831 381l39 186l1040 -486l-35 -162z" />
<glyph unicode="?" horiz-adv-x="1302" d="M378 1157q8 59 27.5 118t53 115.5t81.5 109.5t114 96q81 56 173 81.5t190 25.5t182.5 -30t140.5 -87t78.5 -143t-1.5 -197q-13 -59 -36.5 -105.5t-61.5 -90t-91 -89.5t-124 -104q-46 -38 -81.5 -69.5t-64 -60t-51 -59t-40.5 -68t-32 -82.5t-26 -105h-191q13 66 29.5 117 t35.5 93t44 78.5t57.5 71t72.5 70.5t90 79q68 59 116 100.5t80 78.5t51 75t30 87q6 25 5 56t-8 61.5t-24 60t-46.5 51.5t-73 36t-102.5 14q-77 0 -136.5 -21.5t-104.5 -56.5t-76.5 -78t-52 -86t-32 -81t-17.5 -62h-178zM511 122q8 38 31 70.5t59.5 53.5t84.5 21t75.5 -21 t36.5 -53.5t1 -70.5t-31 -70t-59.5 -53.5t-83.5 -21.5q-49 0 -76 21.5t-36.5 53.5t-1.5 70z" />
<glyph unicode="@" horiz-adv-x="2378" d="M505 606.5q-7 114.5 18 238.5q26 122 82 235t134.5 211t176.5 178.5t207.5 138t228.5 88.5t241 31q109 0 206 -24t177 -70.5t140 -111.5t96.5 -146.5t46 -176.5t-11.5 -203q-23 -106 -69.5 -197.5t-107.5 -166.5t-131.5 -133t-141 -98.5t-137 -61.5t-117.5 -21 q-64 0 -98 36.5t-21 111.5h-7q-31 -27 -67.5 -53.5t-76.5 -47.5t-81.5 -34t-84.5 -13q-77 0 -135 30.5t-93 81t-46 118.5t5 145q17 80 51.5 159t83 151t109.5 133.5t130 107t146.5 71.5t158.5 26q43 0 79.5 -10t66.5 -32t52 -57.5t35 -83.5l79 146h157q-40 -83 -82 -167 l-82 -164t-76 -151.5t-64.5 -129.5t-46.5 -97t-21 -56q-12 -66 35 -66q40 0 85 20t89.5 55.5t86.5 83.5t77 104.5t61.5 118t40.5 124.5q30 139 1 250.5t-103 189.5t-184 121t-241 43q-105 0 -203.5 -27.5t-188 -76t-166.5 -117t-139.5 -151.5t-106 -179t-66.5 -200 q-23 -103 -16.5 -197.5t36 -175t81.5 -146.5t123 -112.5t159.5 -71.5t191.5 -25q83 0 166.5 18.5t164.5 53t155.5 83t136.5 108.5h158q-77 -94 -173 -170t-202 -129.5t-218 -82t-224 -28.5q-126 0 -234.5 31.5t-195.5 88.5t-151.5 138t-101 179.5t-43.5 213zM1031.5 622.5 q6.5 -41.5 26 -71.5t52.5 -46.5t75 -16.5q49 0 98.5 21.5t96.5 57.5t88.5 84t75 99.5t57 105t33.5 99.5q9 43 2 81.5t-26.5 68.5t-50 48t-69.5 18q-53 0 -103.5 -20t-98 -55t-88 -80.5t-74 -96.5t-56.5 -104t-33 -101q-12 -50 -5.5 -91.5z" />
<glyph unicode="A" horiz-adv-x="1605" d="M51 0l1006 1685h204l291 -1685h-205l-80 490h-725l-283 -490h-208zM641 655h599l-127 809z" />
<glyph unicode="B" horiz-adv-x="1598" d="M190 0l358 1685h742q116 0 197.5 -35.5t129.5 -94t62 -135.5q6 -35 6 -71q0 -44 -9 -89q-9 -43 -29 -92.5t-56.5 -97.5t-91.5 -91.5t-132 -74.5q26 -7 56 -20t60 -34.5t55.5 -52.5t43 -73.5t20.5 -98.5v-14q0 -51 -12 -113q-21 -102 -77 -192t-142.5 -158t-201 -108 t-254.5 -40h-725zM416 169h559q89 0 161 25.5t126.5 70t89.5 106t51 131.5q8 37 8 69q-1 18 -3 34q-8 44 -28 76.5t-53.5 53.5t-75 33.5t-87.5 17.5t-93 5h-522zM585 960h482q83 0 151 15t120 48.5t87.5 87t53.5 130.5q7 35 7 66q0 22 -4 43q-8 50 -41.5 87t-95 58 t-157.5 21h-486z" />
<glyph unicode="C" horiz-adv-x="1726" d="M268 559v14q0 124 32 276q27 131 76.5 246t117 213t151.5 176t183 132t211 82.5t235 28.5q107 0 193 -21t152 -60t112 -91t74 -113q27 -60 37 -128q5 -39 6 -79q0 -29 -3 -60h-190q-2 79 -20.5 138.5t-50 103t-73.5 72t-89.5 46.5t-96 25t-92.5 7q-123 0 -239 -45.5 t-214 -134.5t-172.5 -222t-111.5 -308q-32 -150 -32 -279v-15q2 -135 50.5 -235.5t150 -157.5t266.5 -57q40 0 90 8.5t104.5 30.5t112.5 58.5t113.5 93t107.5 134.5q54 77 97 180h190q-44 -119 -100 -210t-119 -159.5t-129.5 -117t-132 -81.5t-126.5 -51.5t-113 -28t-93 -12 t-64 -2.5q-95 0 -184 21.5t-164 67t-131.5 116.5t-88 170t-33.5 228z" />
<glyph unicode="D" horiz-adv-x="1726" d="M209 0l357 1685h681q164 0 282 -61t187 -169q70 -108 86 -259q5 -45 4 -92q0 -112 -27 -240q-20 -95 -56 -195t-88.5 -196.5t-125.5 -182.5t-165.5 -150t-207.5 -102t-254 -38h-673zM433 169h517q111 0 210.5 45.5t181.5 133t143.5 214t96.5 287.5q27 129 27 234 q1 27 -1 51q-8 124 -56.5 208t-132 127.5t-198.5 43.5h-502z" />
<glyph unicode="E" horiz-adv-x="1598" d="M219 0l357 1685h1227l-37 -172h-1035l-120 -565h959l-37 -169h-958l-130 -610h1051l-36 -169h-1241z" />
<glyph unicode="F" horiz-adv-x="1467" d="M219 0l357 1685h1166l-37 -172h-974l-120 -565h860l-35 -169h-861l-166 -779h-190z" />
<glyph unicode="G" horiz-adv-x="1859" d="M280 526q-1 29 -1 57q0 63 8 121q12 85 26 153q22 103 64.5 206.5t106.5 200.5t147 181.5t184.5 147.5t221.5 98.5t256 35.5q137 0 248.5 -32.5t189.5 -101.5t119 -173q39 -96 39 -226v-19h-194q-2 81 -22 141t-53 104t-76.5 73t-93.5 46.5t-105 24t-108 6.5 q-120 -4 -236 -52t-214 -139t-171.5 -224.5t-110.5 -309.5q-20 -89 -29 -178q-4 -47 -4 -92q0 -40 4 -79q7 -81 36 -151t83 -121t138.5 -81t204.5 -30q34 0 78.5 3.5t95.5 15t106.5 34.5t112.5 61q69 46 120 103.5t87 122.5t60 135.5t39 143.5h-277h-275l36 169h739 l-191 -901h-136l-4 223q-56 -61 -128.5 -110.5t-154 -84t-169 -53.5t-176.5 -19q-107 0 -185 17.5t-134.5 45.5t-93.5 63q-36 32 -62 64q-74 91 -107 188.5t-39 191.5z" />
<glyph unicode="H" horiz-adv-x="1726" d="M197 0l358 1685h190l-152 -715h953l151 715h191l-358 -1685h-190l170 802h-952l-170 -802h-191z" />
<glyph unicode="I" horiz-adv-x="657" d="M230 0l358 1685h190l-358 -1685h-190z" />
<glyph unicode="J" horiz-adv-x="1206" d="M128 289q1 46 9 84l36 169h190l-31 -143q-10 -47 -10 -85q0 -24 4 -44q10 -53 39.5 -85t76.5 -46.5t107 -14.5q82 0 144.5 23t108 61.5t74.5 91.5t42 113l270 1272h191l-262 -1230q-20 -99 -56.5 -175t-83 -131t-101.5 -92t-113.5 -60t-119.5 -32t-118 -9 q-97 0 -166.5 20.5t-114.5 53.5t-71 77.5t-37 90.5q-9 39 -9 80q0 5 1 11z" />
<glyph unicode="K" horiz-adv-x="1598" d="M197 0l358 1685h190l-186 -880l1094 880h256l-867 -683l528 -1002h-239l-439 882l-379 -293l-125 -589h-191z" />
<glyph unicode="L" horiz-adv-x="1338" d="M197 0l358 1685h190l-322 -1516h890l-36 -169h-1080z" />
<glyph unicode="M" horiz-adv-x="1986" d="M190 0l358 1685h303l191 -1462l813 1462h303l-358 -1685h-190l246 1153q9 41 31.5 126t48.5 204h-11l-831 -1483h-197l-202 1483h-11q-26 -119 -37.5 -203.5t-20.5 -126.5l-246 -1153h-190z" />
<glyph unicode="N" horiz-adv-x="1726" d="M197 0l358 1685h260l569 -1476l313 1476h191l-358 -1685h-253l-575 1479l-314 -1479h-191z" />
<glyph unicode="O" horiz-adv-x="1859" d="M264 650q4 102 23 192t57.5 191t98.5 199.5t141.5 188t187.5 158t236 108.5t288 40q117 0 210 -22.5t163.5 -64t121.5 -97.5t84.5 -121.5t51.5 -139.5t23 -149q2 -33 2 -65q0 -42 -4 -84q-6 -74 -20 -142q-20 -90 -58 -191.5t-98 -199.5t-142.5 -188t-188 -158 t-236 -108.5t-286.5 -40.5q-157 0 -270.5 40.5t-189.5 108.5t-120 158q-43 90 -61 188q-14 78 -14 158q-1 20 0 41zM462 553q14 -133 74 -230t164.5 -151.5t253.5 -54.5t276 54.5t228.5 151.5t171.5 230q69 132 103 289q23 111 23 210q0 41 -4 79q-14 133 -73.5 229.5 t-164 151.5t-253.5 55q-148 0 -275.5 -55t-228.5 -151.5t-171.5 -229.5t-103.5 -289q-24 -110 -24 -209q0 -41 4 -80z" />
<glyph unicode="P" horiz-adv-x="1598" d="M219 0l357 1685h741q116 0 203 -36.5t141.5 -100.5t72.5 -151q9 -41 10 -85q0 -50 -12 -104q-13 -58 -39 -117t-64.5 -113t-90.5 -100.5t-117 -81.5t-143 -55t-170 -20h-546l-153 -721h-190zM598 889h527q78 0 144.5 17.5t119 55.5t89.5 98q35 61 55 148q10 45 10 84 q0 29 -6 54q-13 58 -50.5 95.5t-95 54.5t-127.5 17h-533z" />
<glyph unicode="Q" horiz-adv-x="1859" d="M264 650q5 102 23.5 192t57 191t98.5 199.5t141.5 188t187.5 158t236 108.5t288 40q117 0 210 -22.5t163.5 -64t121.5 -97.5t84.5 -121.5t51.5 -139.5t23 -149q2 -33 2 -65q0 -42 -4 -84q-6 -75 -20 -142q-16 -77 -48 -166.5t-80 -178t-113 -170.5t-148 -144l196 -180 l-142 -120l-206 187q-97 -53 -211.5 -83.5t-256.5 -30.5q-157 0 -270.5 40.5t-189.5 108.5t-120 158t-61 188q-14 78 -14 158v41zM462 553q14 -133 74 -230t164.5 -151.5t253.5 -54.5q80 0 157 17q76 18 150 53l-186 176l143 125l205 -195q117 97 195 236t115 313 q23 111 23 210q0 40 -4 79q-13 133 -73 229.5t-164.5 151.5t-253.5 55q-148 0 -275.5 -55t-228.5 -151.5t-171.5 -229.5t-103.5 -289q-24 -110 -24 -209q0 -41 4 -80z" />
<glyph unicode="R" horiz-adv-x="1726" d="M223 0l358 1685h779q69 0 134.5 -9.5t123 -30.5t102.5 -55t72.5 -84t35.5 -119q2 -20 2 -41q0 -53 -14 -116q-20 -92 -55 -158.5t-78.5 -113t-92 -78t-94.5 -52.5q34 -16 65 -34t51 -51.5t26 -87.5q2 -16 1 -36q0 -45 -9 -107l-50 -308q-7 -34 -9 -59t3 -43.5t17.5 -34.5 t37.5 -30l-7 -37h-242q-3 26 -1 61.5t6.5 77t11 85t12 82.5t11.5 69l9 45q7 35 12 71.5t1.5 72t-17.5 68t-41.5 56t-73.5 37.5t-115 14h-626l-156 -739h-190zM605 908h605q41 0 84 4.5t84 17t78.5 34t69 54.5t55 80t36.5 110q10 50 10 89q0 12 -1 24q-4 48 -20.5 81.5 t-44 55t-59 33.5t-63.5 17t-60 5h-645z" />
<glyph unicode="S" horiz-adv-x="1598" d="M228 426q5 56 18 116h190q-10 -49 -10 -91q0 -24 3 -45q9 -60 34.5 -105.5t67 -78.5t91 -54.5t104.5 -33t108 -14.5q14 -1 29 -1q30 0 65 4q53 6 108 21t110 39t101 60.5t79.5 85.5t47.5 111q9 38 9 70q0 22 -5 42q-11 46 -49.5 82.5t-106 63.5t-167.5 53l-313 80 q-23 6 -58 17t-73 30.5t-73.5 47.5t-60.5 67t-35 93q-4 22 -4 47q0 35 8 75q22 99 75.5 192.5t139 166t204.5 116.5t270 44q146 0 245 -27.5t161 -72.5t93.5 -102.5t43.5 -117.5q9 -46 8 -90v-27q-4 -57 -10 -100h-190q7 39 7 74q0 51 -15 94q-25 71 -76.5 116t-124 67 t-149.5 22q-41 0 -89.5 -6.5t-97.5 -20.5t-96 -38.5t-86.5 -60.5t-68.5 -84.5t-42 -111.5q-6 -27 -6 -51t6 -44q12 -39 39.5 -66.5t62.5 -45t71 -27.5l443 -118q73 -17 138 -49t109.5 -83t61.5 -123q8 -33 8 -71q0 -45 -11 -98q-18 -100 -62.5 -176.5t-105.5 -133 t-135 -94.5t-153.5 -61.5t-159 -33.5t-152.5 -10q-117 0 -195.5 15.5t-132.5 39t-88 52.5t-59 54q-42 49 -65 99t-31 102q-5 32 -5 66q0 20 2 42z" />
<glyph unicode="T" horiz-adv-x="1467" d="M372 1513l37 172h1366l-38 -172h-586l-320 -1513h-195l321 1513h-585z" />
<glyph unicode="U" horiz-adv-x="1726" d="M306 410q0 74 17 151l239 1124h190l-231 -1096q-16 -71 -17 -129q0 -17 2 -32q6 -70 28 -121.5t60.5 -87t85 -56.5t99 -30t104 -9t109.5 9t115.5 29.5t113 55t102.5 86t82.5 121.5t54.5 160l233 1100h192l-233 -1096q-28 -127 -93.5 -242t-168 -201.5t-240.5 -138 t-311 -51.5q-113 0 -200 22.5t-150 64t-103 97.5q-40 58 -60 124q-20 68 -20 146z" />
<glyph unicode="V" horiz-adv-x="1598" d="M423 1685h219l193 -1505l837 1505h218l-979 -1685h-223z" />
<glyph unicode="W" horiz-adv-x="2246" d="M412 1685h209l50 -1491l700 1491h231l57 -1491l683 1491h208l-811 -1685h-239l-64 1453l-690 -1453h-237z" />
<glyph unicode="X" horiz-adv-x="1598" d="M72 -3l799 864l-415 824h238l327 -667l611 667h240l-764 -824l436 -861h-241l-348 711l-648 -711z" />
<glyph unicode="Y" horiz-adv-x="1598" d="M409 1685h240l336 -800l675 800h242l-860 -979l-150 -706h-190l150 706z" />
<glyph unicode="Z" horiz-adv-x="1467" d="M73 0l36 176l1384 1340h-1023l36 169h1246l-37 -176l-1385 -1340h1099l-35 -169h-1321z" />
<glyph unicode="[" horiz-adv-x="650" d="M49 -458l457 2148h439l-36 -163h-251l-388 -1820h253l-35 -165h-439z" />
<glyph unicode="\" horiz-adv-x="650" d="M326 1727h154l202 -1771h-157z" />
<glyph unicode="]" horiz-adv-x="650" d="M-30 -458l33 165h253l386 1820h-252l36 163h438l-456 -2148h-438z" />
<glyph unicode="^" horiz-adv-x="1098" d="M99 618l708 992h168l288 -992h-179l-233 806l-569 -806h-183z" />
<glyph unicode="_" horiz-adv-x="1302" d="M-61 -293l34 166h1303l-35 -166h-1302z" />
<glyph unicode="`" horiz-adv-x="779" d="M403 1725h238l105 -329h-140z" />
<glyph unicode="a" horiz-adv-x="1355" d="M175 172q-7 31 -7 64q0 38 9 81q6 28 17.5 63.5t33 74t53.5 78t81.5 73t116 59.5t154.5 37l374 49q17 1 39 7t43 20t38 41.5t27 72.5q5 26 5 51q1 21 -3 41q-8 43 -40 74.5t-88 49.5q-53 17 -135 16h-9q-102 -4 -167.5 -33.5t-106.5 -69.5t-60 -86t-28 -83h-167 q24 106 75.5 183.5t128 127.5t174.5 73.5t212 23.5q26 0 68 -3.5t90 -16t95.5 -34.5t81.5 -60.5t48 -93.5q7 -28 7 -60q0 -34 -8 -74l-153 -716q-3 -14 -3 -25q0 -49 57 -50q13 0 31 5q19 5 39 8l-30 -140q-27 -9 -55 -16t-63 -7q-67 0 -99.5 17t-43 43.5t-8 60.5t7.5 71 q-39 -33 -91 -69.5t-118 -66.5t-144 -50t-166 -20q-85 0 -150 25t-106.5 71.5t-56.5 112.5zM354 254q6 -42 32 -74q27 -32 73 -48q43 -16 105 -15h7q83 0 163 26t146.5 69.5t112 99.5t57.5 116l48 227q-28 -19 -125.5 -38t-267.5 -42q-51 -7 -104 -18t-100.5 -34.5 t-85 -66.5t-56.5 -111q-8 -32 -8 -61q1 -15 3 -30z" />
<glyph unicode="b" horiz-adv-x="1355" d="M180 0l358 1685h183l-130 -615h7q43 48 93 84t103.5 59.5t108.5 35t109 11.5q121 0 206 -48t133 -131t59 -195q3 -32 3 -65q0 -82 -19 -173q-15 -75 -42.5 -154t-68 -155t-95.5 -144.5t-125.5 -120t-158 -81.5t-193.5 -30q-78 0 -133.5 20t-93.5 49t-60 62q-22 35 -32 60 h-7l-32 -154h-173zM468 426q5 -64 24 -113.5t48 -85t63.5 -58.5t70 -34t67.5 -11h16q77 0 147 34q76 38 138 106t107 160q45 91 68 194q9 40 14 92q3 32 3 65q0 20 -1 40q-3 54 -18 106.5t-47 92.5t-86 64q-47 21 -116 20h-18q-74 -3 -135 -28t-110 -65.5t-88 -93 t-66.5 -110t-45 -117t-25.5 -113.5q-11 -61 -11 -112q0 -17 1 -33z" />
<glyph unicode="c" horiz-adv-x="1224" d="M204 332q-4 36 -5 74q0 81 20 172q30 141 90.5 265.5t151 217t209 146t265.5 53.5q120 0 199.5 -41t123.5 -105q46 -64 58 -144q6 -41 6 -80t-6 -78h-179q1 16 1 32q0 47 -9 89q-12 55 -42 95t-79.5 62.5t-119.5 22.5q-66 0 -123 -21t-106.5 -56.5t-89.5 -84.5 t-71.5 -104.5t-53 -115t-34.5 -116.5q-12 -55 -18 -115q-4 -39 -4 -76q0 -20 2 -40q4 -56 20 -105.5t49 -87t85 -59.5t128 -22q56 0 114.5 21t110 61.5t93.5 101.5t65 138h179q-16 -49 -40 -102.5t-60 -105.5t-84 -99.5t-110 -83t-137 -57t-165 -21.5q-129 0 -221 46.5 t-145.5 128.5t-67.5 194z" />
<glyph unicode="d" horiz-adv-x="1355" d="M223 496q7 80 26 152q30 126 88.5 236.5t141.5 193.5t189 132.5t230 49.5h11q63 0 112 -10q53 -12 91.5 -36t65.5 -61q26 -35 46 -83h7l130 615h183l-357 -1685h-172l32 154h-6q-20 -25 -57 -59t-87 -63t-114.5 -49t-141.5 -20q-105 0 -179 30.5t-124.5 82t-77.5 120.5 q-28 68 -36 144q-5 41 -4 85q0 35 3 71zM394 423q6 -90 40 -156.5t96 -104.5t148 -38q31 0 72.5 10t85 33t88 58t84 85t72.5 114.5t53 146.5q14 53 21 113q5 42 5 83q0 17 -1 35q-3 58 -18.5 112t-47.5 95t-82 65t-125 24q-77 0 -139 -24t-111.5 -64t-86.5 -91.5 t-64.5 -105.5t-44 -104.5t-24.5 -90.5q-22 -87 -22 -164q0 -16 1 -31z" />
<glyph unicode="e" horiz-adv-x="1355" d="M230 330q-5 39 -6 80q0 78 19 165q30 143 93 267.5t156 217.5t214.5 146.5t268.5 53.5q132 0 223.5 -53t139.5 -148t52 -226q0 -10 1 -19q0 -123 -41 -269h-934q-11 -64 -11 -118q1 -35 5 -65q10 -80 49 -134.5t104.5 -82.5t157.5 -28q53 0 101.5 13.5t90.5 36t77 50.5 t61 57t42.5 57.5t20.5 53.5h187q-7 -20 -27.5 -61.5t-57 -90.5t-87.5 -99t-118 -87q-24 -16 -55.5 -30t-73 -26t-96.5 -20t-127 -8q-126 0 -216.5 45.5t-143.5 127.5t-69 194zM455 702h743q8 49 8 98q0 24 -2 48q-6 74 -37.5 133t-92 95.5t-160.5 36.5q-50 0 -100 -15 t-97.5 -42.5t-90.5 -65.5t-77 -83.5t-58.5 -98t-35.5 -106.5z" />
<glyph unicode="f" horiz-adv-x="704" d="M240 0l229 1080h-180l31 147h179l46 209q14 70 47.5 119t82.5 82t113 47.5t142 14.5q11 0 19 0.5t15.5 1.5t16.5 1.5t21 0.5l-30 -147q-20 3 -42 3.5t-42 0.5q-144 0 -176 -143l-41 -190h231l-31 -147h-230l-229 -1080h-172z" />
<glyph unicode="g" horiz-adv-x="1355" d="M126 -150h183q-7 -27 -7 -50q0 -19 4 -34q10 -35 31.5 -59t51 -39t60.5 -24t62 -11.5t52 -2.5q89 0 155.5 23.5t116 62.5t83 88t55.5 99.5t35 99t22 84.5l14 67h-3l-3 -11q-27 -31 -67.5 -63.5t-91 -58t-108 -42t-119.5 -16.5q-104 0 -178.5 28t-124.5 76.5t-76.5 113.5 t-36.5 141q-5 43 -5 88q0 35 3 72q8 83 25 166q26 123 83 233.5t140 194.5t188 134t228 50q93 0 154.5 -21t99.5 -51.5t58.5 -67t30.5 -69.5h5l37 176h173l-239 -1124q-7 -33 -18 -77.5t-28 -93.5t-42.5 -102t-63 -103t-87.5 -94.5t-117 -77.5t-152.5 -52t-190.5 -19 q-36 0 -82 4t-92.5 18t-90.5 39t-75.5 65.5t-46.5 99.5q-9 35 -9 78q0 29 4 62zM416 419q3 -92 33.5 -159.5t90 -107t148.5 -39.5q54 0 120.5 22t131.5 73.5t120 136.5t81 211q12 52 20.5 112.5t8.5 122t-12.5 119t-42.5 101.5t-81.5 71.5t-131.5 27.5t-143.5 -26 t-113 -67.5t-85 -94.5t-60.5 -108t-41 -107t-24 -92q-20 -90 -20 -171q0 -13 1 -25z" />
<glyph unicode="h" horiz-adv-x="1355" d="M180 0l358 1685h173l-133 -624h4q27 29 68.5 63t96.5 63.5t122.5 49.5t145.5 23q45 0 92.5 -7t91.5 -25t81 -49t59 -78t27 -113q1 -14 1 -30q0 -55 -14 -123l-178 -835h-171l177 835q9 45 9 84q0 15 -1 29q-5 50 -31.5 86.5t-74.5 56.5q-51 20 -122 22q-62 0 -133.5 -26 t-136.5 -76.5t-116.5 -128.5t-72.5 -183l-149 -699h-173z" />
<glyph unicode="i" horiz-adv-x="543" d="M184 0l261 1227h171l-260 -1227h-172zM492 1450l50 235h172l-50 -235h-172z" />
<glyph unicode="j" horiz-adv-x="547" d="M-112 -483l30 146h41q45 0 76 4t51.5 19t33.5 44.5t24 82.5l301 1414h171l-299 -1407q-5 -27 -11.5 -60t-19.5 -67.5t-35 -67.5t-58.5 -58.5t-91 -41t-131.5 -15.5q-19 0 -40.5 -1t-41.5 8zM492 1450l50 235h172l-50 -235h-172z" />
<glyph unicode="k" horiz-adv-x="1224" d="M184 0l358 1685h172l-225 -1054l714 596h230l-566 -458l336 -769h-206l-271 655l-280 -227l-90 -428h-172z" />
<glyph unicode="l" horiz-adv-x="543" d="M184 0l358 1685h172l-358 -1685h-172z" />
<glyph unicode="m" horiz-adv-x="2003" d="M180 0l260 1227h173l-38 -176h4q19 24 59 60t95.5 69t127 56.5t154.5 23.5q59 0 101 -11.5t71 -30t45 -41t25.5 -43.5t13.5 -41q3 -21 6 -32q41 46 88.5 82.5t100.5 62t115 40t134 14.5q32 0 72.5 -7t78 -25t72 -47.5t56 -75t26.5 -109.5q1 -15 1 -30q0 -53 -13 -117 l-180 -849h-172l169 791q8 41 12.5 81t0 76t-16.5 66t-36.5 51.5t-61.5 32.5q-29 8 -67 8q-11 0 -23 -1q-73 -4 -136.5 -37t-115 -84.5t-86.5 -113t-48 -124.5l-159 -746h-171l178 849q6 26 9 54t1 55t-11 53.5t-28 47.5t-48.5 34.5t-75.5 16.5q-35 3 -77.5 -6t-86 -30.5 t-87 -57t-81.5 -85.5t-68 -116t-47 -149l-142 -666h-173z" />
<glyph unicode="n" horiz-adv-x="1355" d="M180 0l260 1227h173l-38 -176h4q13 16 36 38t54.5 45t70 46t83 40.5t93 28.5t99.5 11q47 0 96 -7t92.5 -26t79 -49.5t57 -78t26.5 -113.5q1 -14 1 -29q0 -55 -14 -122l-178 -835h-171l169 791q13 60 13 109q0 213 -242 213q-30 0 -68.5 -7.5t-82.5 -24.5t-88 -47t-83 -75 t-70 -109t-50 -148l-149 -702h-173z" />
<glyph unicode="o" horiz-adv-x="1355" d="M218 456q2 78 19 159q16 77 48 155t78 150t107 133.5t133 107.5t158 72.5t184 26.5q99 0 174 -26.5t128.5 -72.5t86.5 -107.5t48 -133.5q13 -64 13 -132v-18q-2 -78 -19 -155q-18 -80 -48.5 -158.5t-76.5 -151t-105 -134t-131.5 -107t-158 -71.5t-185.5 -26 q-99 0 -173.5 26t-128 71.5t-87.5 107.5q-33 62 -49 134q-15 66 -15 137v13zM406 408q4 -55 20.5 -108t51 -93.5t89.5 -65t135 -24.5t146 24.5t117.5 65t90.5 93.5t68 108t46 109t27 98q8 43 14 97q3 29 3 60q0 25 -2 50q-5 56 -21.5 108t-51.5 93t-89.5 65.5t-135.5 24.5 q-80 0 -145 -24.5t-117.5 -65.5t-91 -93t-66.5 -108t-46 -109.5t-28 -97.5t-14 -98q-2 -27 -2 -54t2 -55z" />
<glyph unicode="p" horiz-adv-x="1355" d="M67 -483l363 1710h172l-36 -166h7q22 26 59 61t88.5 66.5t118 53t148.5 21.5q98 0 171 -24.5t121.5 -68t77.5 -103.5t39 -129q8 -48 8 -98q0 -24 -2 -48q-5 -77 -21 -154q-31 -156 -92 -279.5t-145 -210.5t-190 -133t-228 -48q-54 0 -104 11t-93.5 35t-78 60t-57.5 84h-7 l-136 -640h-183zM461 424q5 -58 21.5 -111.5t48.5 -95t81 -66t119 -24.5q77 0 139 23t110 60t84 86.5t62.5 104t42.5 110t28 104.5q16 92 16 170q0 18 -1 35q-4 92 -34.5 156.5t-89.5 96.5q-56 30 -140 30h-10q-31 0 -72 -11t-84.5 -34t-88 -58.5t-84.5 -85t-73 -114.5 t-53 -145q-14 -53 -21 -113q-3 -33 -3 -66q0 -26 2 -52z" />
<glyph unicode="q" horiz-adv-x="1355" d="M213 358q-1 21 -1 42q0 107 30 238q17 73 46 147t70 144.5t94 131t120 105.5t149.5 71t180.5 26q85 0 143.5 -21.5t96.5 -53t58 -65.5q20 -36 30 -62h7l34 166h172l-362 -1710h-183l136 640h-7q-43 -48 -93 -84t-104 -60t-109 -35t-108 -11q-123 2 -210 48t-135 133 t-55 210zM397 400q2 -54 17 -103.5t47 -86.5t84.5 -60t129.5 -23q70 0 129.5 24.5t109.5 66t89 95t68 112t48 118t28 112.5q10 60 10 111q0 18 -1 36q-5 65 -23.5 114t-48 84t-63 58t-70 34t-67.5 11q-87 0 -161 -34t-132.5 -97t-102 -153.5t-70.5 -203.5q-12 -49 -18 -105 q-4 -40 -4 -80q0 -15 1 -30z" />
<glyph unicode="r" horiz-adv-x="832" d="M206 0l260 1227h169l-44 -206h7q43 54 92 98t103 75.5t110 48.5q55 17 115 17q20 0 31.5 -2t18.5 -5l-31 -150h-77q-52 0 -100.5 -16.5t-93.5 -45.5t-84.5 -67.5t-70 -81.5t-51.5 -88.5t-31 -89.5l-151 -714h-172z" />
<glyph unicode="s" horiz-adv-x="1224" d="M174 312q2 46 9 83h172q-3 -26 -4 -54.5t6 -60t22.5 -61t47.5 -53t83 -38.5t125 -18q67 0 130.5 17t115 47t86.5 72.5t47 93.5q8 39 7.5 70.5t-22 56.5t-73 46.5t-145.5 38.5l-225 49q-67 15 -115.5 36.5t-78.5 54t-40 77.5q-4 19 -4 41q0 30 8 65q21 102 75 174 t128 119.5t163 69.5t180 22q83 0 144 -14.5t104.5 -37.5t70.5 -53.5t43.5 -64t23 -67t8 -62.5t-1.5 -51.5t-4 -34.5h-172q3 19 5 44.5t-3 52t-20 51.5t-46.5 45t-80 32.5t-119.5 12.5q-35 0 -82 -7.5t-93 -29.5t-83.5 -60.5t-54.5 -100.5q-11 -37 -8 -65.5t24.5 -50 t64.5 -38.5t113 -33l193 -40q99 -20 160.5 -48t94 -66.5t40.5 -88.5q4 -25 4.5 -54t-4.5 -61q-16 -94 -69 -170t-130 -128t-173.5 -80.5t-201.5 -28.5q-120 0 -201 21.5t-131 57t-75 81.5q-24 46 -32 94q-6 36 -6 71q-1 12 0 24z" />
<glyph unicode="t" horiz-adv-x="704" d="M284 143q4 47 15 102l176 835h-186l31 147h186l73 340h172l-73 -340h210l-31 -147h-211l-177 -838q-9 -36 2.5 -55.5t31.5 -28.5t44 -10.5t41 -1.5h70l-30 -146q-57 -9 -98 -11.5t-60 -2.5q-75 0 -116 20q-42 20 -58 55q-14 29 -13 66q0 8 1 16z" />
<glyph unicode="u" horiz-adv-x="1355" d="M250 214q-1 14 -1 29q0 46 11 102l188 882h173l-181 -847q-8 -41 -8 -75q0 -27 5 -51q12 -52 43.5 -84.5t76 -46t94.5 -13.5q65 0 122.5 18t105.5 48t86.5 70.5t67 86t48.5 93t29 90.5l151 711h172l-260 -1227h-161l38 180l-3 3q-93 -111 -209 -166q-117 -54 -263 -54 q-44 0 -89.5 8.5t-85.5 26.5t-72.5 46.5t-52.5 71t-25 98.5z" />
<glyph unicode="v" horiz-adv-x="1224" d="M305 1227h198l132 -1087l582 1087h197l-699 -1227h-223z" />
<glyph unicode="w" horiz-adv-x="1744" d="M320 1227h198l41 -1058l475 1058h204l23 -1058l494 1058h198l-616 -1227h-212l-32 1018l-465 -1018h-213z" />
<glyph unicode="x" horiz-adv-x="1224" d="M67 0l579 612l-319 615h205l247 -476l449 476h205l-581 -612l321 -615h-205l-247 472l-449 -472h-205z" />
<glyph unicode="y" horiz-adv-x="1224" d="M49 -483l33 157q8 -4 24.5 -7.5t36.5 -7.5t43 -5t44 -1q40 0 69.5 11t59.5 44t65.5 92.5t90.5 155.5l-218 1271h214l135 -1067l585 1067h212l-755 -1267q-50 -77 -87.5 -136t-66 -104.5t-51.5 -77t-44 -55t-45.5 -40t-56.5 -27.5q-35 -13 -84.5 -17.5t-112.5 -4.5 q-23 0 -45.5 5t-45.5 14z" />
<glyph unicode="z" horiz-adv-x="1224" d="M100 0l34 160l997 920h-748l32 147h948l-36 -169l-1000 -912h828l-30 -146h-1025z" />
<glyph unicode="{" horiz-adv-x="783" d="M216 549l29 139q40 0 79 22t73.5 62t61 94.5t40.5 118.5l86 405q16 71 47.5 127.5t72.5 94.5t88.5 58t93.5 20h157l-33 -153h-103q-31 0 -55.5 -15t-42.5 -40.5t-31 -60t-21 -74.5l-84 -399q-26 -87 -65.5 -147t-79.5 -98.5t-75.5 -57.5t-54.5 -23l-1 -7 q11 -4 27.5 -13.5t33.5 -26t34.5 -41.5t28 -60.5t15 -83t-5.5 -108.5l-83 -395q-9 -40 -11 -76t5 -62t25 -41t49 -15h102l-30 -151h-158q-45 0 -84 20t-64 59t-33.5 94.5t7.5 127.5l86 402q14 65 10.5 121.5t-20.5 96.5t-47 63t-69 23z" />
<glyph unicode="|" horiz-adv-x="607" d="M210 -44l376 1771h172l-376 -1771h-172z" />
<glyph unicode="}" horiz-adv-x="783" d="M1 -458l32 151h101q32 0 56 15t41.5 41t30.5 61.5t21 76.5l83 395q16 60 39.5 107t50.5 82t56 61t54.5 42.5t47 26.5t32.5 14l2 7q-12 1 -29 10.5t-35.5 26t-35.5 42t-29.5 61.5t-16 81.5t6.5 104.5l84 399q9 40 11 74.5t-4.5 60t-23.5 40.5t-48 15h-102l33 153h157 q45 0 82.5 -20t63.5 -58t34 -94.5t-7 -127.5l-85 -405q-13 -64 -11.5 -118.5t18.5 -94.5t47 -62t73 -22l-30 -139q-43 0 -83 -23t-73 -63t-58.5 -95.5t-40.5 -122.5l-86 -402q-15 -72 -47.5 -127.5t-74 -94.5t-88.5 -59t-91 -20h-158z" />
<glyph unicode="~" horiz-adv-x="1368" d="M260 552q27 37 61.5 73.5t75.5 65t90 46.5t108 18q64 0 125 -21.5t119 -52.5q83 -42 136 -62.5t85 -20.5q37 0 69 14t62 38t58 54t55 61l56 -132q-34 -42 -73.5 -78.5t-81.5 -64t-87.5 -43t-93.5 -15.5q-33 0 -61.5 5.5t-55 15.5t-53.5 24.5t-55 31.5q-24 16 -51 29.5 t-58 25t-66 18.5t-75 7q-38 0 -71 -14t-61.5 -38t-54 -54.5t-46.5 -62.5z" />
<glyph unicode="&#xa2;" horiz-adv-x="1317" d="M313 -23l203 408q-53 28 -90.5 75.5t-58.5 112.5t-22.5 148t20.5 183q37 180 120 309q41 65 97 114t119.5 82.5t129.5 50t126 16.5q20 0 47 -2.5t58 -6.5l198 396l103 -33l-193 -394q44 -23 75 -52.5t50 -67.5t30 -84.5t13 -100.5l-188 -26q-3 112 -63 173l-392 -780 q16 -9 31 -12t28 -3q51 0 100.5 19.5t93.5 55t81.5 88t61.5 115.5l183 -19q-40 -94 -98 -168.5t-128.5 -126.5t-152 -79.5t-169.5 -27.5q-22 0 -46 3t-54 9l-206 -406zM536 685q13 -93 55 -140l401 781q-15 2 -28.5 4.5t-25.5 2.5q-63 0 -123 -27.5t-111.5 -81t-90.5 -131.5 q-40 -78 -61 -181q-29 -134 -16 -227z" />
<glyph unicode="&#xa3;" horiz-adv-x="1422" d="M126 159q61 30 118.5 73t105.5 100t82 125.5t51 147.5q7 34 10 70t0 74h-220l33 158h169q-6 63 -9 105.5t-1.5 76.5t5 61.5t10.5 56.5q23 111 86 201.5t166 155.5q83 56 171.5 83.5t189.5 27.5q102 0 182.5 -29t132.5 -84t75.5 -135.5t15.5 -185.5l-195 -20q3 66 -10 119 t-45.5 89.5t-87 56.5t-133.5 21q-58 -1 -114.5 -22.5t-103 -58.5t-79.5 -88t-46 -110q-13 -64 -14.5 -143.5t11.5 -177.5h372l-33 -158h-323q8 -55 -3 -107q-10 -49 -30.5 -99.5t-55 -105.5t-84.5 -111.5t-119 -116.5q46 13 89 21q43 7 80 7q46 -2 96.5 -11.5t107.5 -22.5 q92 -26 151.5 -38.5t93.5 -12.5q44 0 103.5 15.5t132.5 49.5l28 -176q-55 -22 -98 -36.5t-76.5 -22.5t-62.5 -10.5t-59 -2.5q-20 0 -40.5 2.5t-43.5 9.5q-17 0 -53.5 9t-90.5 26l-138 48q-25 3 -51 4.5t-49 1.5q-41 0 -87.5 -8t-94 -21.5t-94 -32.5t-87.5 -39z" />
<glyph unicode="&#xa5;" horiz-adv-x="2009" d="M462 435l26 117h567l33 154l-57 125h-485l25 117h406l-335 737h243l308 -737h80l622 737h241l-646 -737h380l-24 -117h-460l-108 -125l-32 -154h540l-24 -117h-542l-92 -435h-190l92 435h-568z" />
<glyph unicode="&#xa9;" horiz-adv-x="2082" d="M352 609q-7 107 21 219q23 112 75 217t133 208q81 104 180.5 183.5t208 133.5t220 82t217.5 28q215 0 398 -110q91 -56 154 -137.5t97.5 -179.5t40 -206.5t-17.5 -218.5q-17 -112 -70.5 -219t-132 -203.5t-177.5 -179t-207.5 -139.5t-223 -87.5t-223.5 -25.5 q-111 -5 -212.5 25.5t-186.5 87.5t-149 139.5t-101 179t-44 203.5zM519 649q6 -87 36 -165t81.5 -143.5t119.5 -111.5t150 -70.5t175 -18.5q89 -4 182 19.5t181 69.5t168 111.5t143.5 143.5t107 165t59.5 179q23 91 16.5 180t-36.5 167t-82.5 143.5t-121 110.5t-151.5 69 t-174 18q-86 6 -177.5 -18t-179.5 -69t-167.5 -110.5t-143.5 -143.5t-108 -167t-59 -180q-25 -92 -19 -179zM771.5 621.5q-12.5 89.5 10.5 199.5q26 119 76.5 209.5t123.5 150.5t164 91t195 31q73 0 132 -19.5t100 -54t65.5 -82t28.5 -105.5l-140 -40q-10 40 -28.5 74 t-46.5 57.5t-63.5 36.5t-78.5 13q-66 0 -126 -24t-108.5 -70.5t-84.5 -113.5t-56 -154q-18 -89 -11 -155.5t34 -111.5t74.5 -67t108.5 -22q52 0 101 17t93 47t79 71t57 88l126 -43q-31 -70 -79 -127.5t-109.5 -97.5t-133.5 -61.5t-152 -21.5q-101 0 -175 34.5t-119 97.5 t-57.5 152.5z" />
<glyph unicode="&#xab;" horiz-adv-x="1317" d="M296 603l440 488h153l-384 -488l177 -490h-154zM769 603l441 488h153l-386 -488l178 -490h-154z" />
<glyph unicode="&#xad;" horiz-adv-x="1368" d="M295 556l35 172h1017l-36 -172h-1016z" />
<glyph unicode="&#xae;" horiz-adv-x="2006" d="M262.5 599q-7.5 116 19.5 243.5t84 242.5t137 213t180.5 178t212 135.5t231.5 85.5t243 30q120 0 226.5 -30t194.5 -85.5t153 -135.5t103.5 -178t46.5 -213t-19 -242.5t-84.5 -243.5t-136.5 -214.5t-178.5 -178t-211 -135t-231 -85.5t-241 -30t-229 30t-195.5 85.5 t-154.5 135t-105 178t-46 214.5zM442 638.5q4 -96.5 32.5 -178.5t80 -148t121.5 -112.5t157.5 -71.5t190.5 -25q99 0 196 25t186.5 71.5t169.5 112.5t144.5 148t110 178.5t68.5 203.5q34 159 6.5 294t-104 233t-196 153t-267.5 55q-102 0 -201 -25t-188.5 -71.5t-168.5 -112 t-143 -147t-109 -177.5t-68 -202q-22 -107 -18 -203.5zM728 330l217 1020h393q92 0 155.5 -16.5t101 -51.5t46.5 -89.5t-7 -131.5q-15 -70 -45 -120t-73 -83.5t-95 -52.5t-110 -26l193 -449h-171l-178 442h-175l-95 -442h-157zM1008 904h183q49 0 95.5 4t83.5 20t65 49 t41 93q10 48 -3 76.5t-41 45t-66.5 21.5t-81.5 5h-210z" />
<glyph unicode="&#xbb;" horiz-adv-x="1317" d="M186 87l386 488l-177 490h153l233 -490l-441 -488h-154zM659 87l385 488l-177 490h154l232 -490l-441 -488h-153z" />
<glyph unicode="&#xbc;" horiz-adv-x="2196" d="M336 -30l1642 1780h183l-1645 -1780h-180zM578 1431l20 92q54 16 94 32.5t71.5 41.5t58 64t53.5 99h117l-214 -1011h-162l145 682h-183zM1317 223l30 143l599 644h143l-138 -648h114l-30 -139h-113l-47 -223h-158l48 223h-448zM1476 362h317l93 440z" />
<glyph unicode="&#xbd;" horiz-adv-x="2187" d="M300 -30l1642 1780h183l-1645 -1780h-180zM585 1460l18 93q55 16 95 31.5t72 41.5t58.5 64.5t52.5 99.5h117l-214 -1011h-161l145 681h-183zM1258 -1q78 313 315 427l156 80q48 26 89.5 47.5t71 45.5t50.5 55q22 30 31 72q4 20 0.5 48t-21 51.5t-50 41t-87.5 17.5 q-70 0 -114 -25t-70.5 -61t-39.5 -74.5t-17 -67.5h-148q17 82 48.5 141.5t70.5 100t83 65.5t87 38t81 18t66 5q70 0 126 -21.5t91 -61t47 -96t-2 -126.5q-16 -68 -48.5 -115.5t-80.5 -84t-106.5 -67t-124.5 -66.5l-87 -47q-63 -34 -97.5 -63t-52.5 -51.5t-23.5 -40.5 t-12.5 -32h513l-33 -153h-711z" />
<glyph unicode="&#xbe;" horiz-adv-x="2283" d="M371 947q1 43 7 88h145q-10 -44 -6 -82t22.5 -67t53.5 -46q36 -16 91 -16q44 0 84.5 12.5t75 36.5t59 57.5t32.5 76.5q12 51 -4 85.5t-45 55t-67 29t-73 8.5q-14 0 -29.5 -1t-30.5 -1l29 135q19 -2 35 -3t31 -1q37 0 72.5 6.5t67 23.5t54.5 48.5t33 78.5q4 22 0 47.5 t-20.5 48t-49.5 36.5t-86 14q-60 0 -101.5 -21.5t-68 -52.5t-40.5 -66.5t-20 -63.5h-139q7 54 34.5 113.5t77 109t122 82t171.5 32.5q74 0 129 -20t87.5 -56.5t42.5 -85.5t-2 -109q-11 -50 -31 -86.5t-44.5 -62.5t-51.5 -41t-50 -22l-1 -4q35 -13 63 -31.5t44.5 -47.5 t21 -69t-7.5 -94q-13 -61 -46.5 -120t-88 -104.5t-130 -73.5t-174.5 -28q-56 0 -100 13t-81 31q-38 23 -59 55.5t-30 71t-8 81.5zM413 -30l1646 1780h180l-1646 -1780h-180zM1293 223l30 143l597 644h142l-137 -647h114l-30 -140h-113l-48 -223h-158l49 223h-446zM1476 363 h291l86 406z" />
<glyph unicode="&#xd7;" horiz-adv-x="1451" d="M270 255l472 387l-303 386l147 122l303 -386l468 386l96 -122l-468 -386l305 -386l-147 -122l-305 388l-472 -389z" />
<glyph unicode="&#xf7;" horiz-adv-x="1458" d="M255 556l35 172h1187l-36 -172h-1186zM611 144.5q-8 28.5 1 59.5q7 35 26.5 64t46.5 50.5t58.5 34.5t63.5 13t58 -13t42.5 -35t23 -51.5t-0.5 -62.5q-6 -28 -24 -56t-44.5 -51t-58 -36.5t-64.5 -13.5q-31 0 -57.5 13t-44.5 34.5t-26 50zM809 1134q8 33 27 62.5t46 50.5 t58.5 33.5t63.5 12.5q33 0 58.5 -12.5t42 -33.5t23 -50.5t-0.5 -62.5q-7 -31 -25 -60t-44.5 -51.5t-57 -35.5t-65.5 -13q-31 0 -57 13t-43.5 34t-25 50.5t-0.5 62.5z" />
<glyph unicode="&#xe01;" horiz-adv-x="1481" d="M255 0l154 728q7 36 22 74.5t49 79.5q26 30 53.5 50t48.5 30q13 9 24.5 12.5t19.5 6.5h-204l34 162q19 88 75.5 151t137 102.5t179.5 57t202 17.5q115 0 210.5 -14t158 -50.5t90.5 -97.5t8 -152l-246 -1157h-171l238 1124q13 60 -1 100t-54 63t-104.5 32t-151.5 9 q-85 0 -153.5 -9t-119 -30t-82 -54.5t-41.5 -81.5l-12 -50h216l-26 -125q-7 0 -22 -3.5t-35.5 -13t-45 -26.5t-50.5 -43q-20 -20 -32.5 -40.5t-20.5 -40t-12 -35.5q-5 -18 -8 -30l-157 -746h-171z" />
<glyph unicode="&#xe02;" horiz-adv-x="1319" d="M311.5 1059.5q-8.5 47.5 4.5 104.5q20 86 72 147.5t122.5 100t149 54t152.5 10.5q73 -5 129.5 -31t93.5 -70t51 -104.5t-2 -132.5q-16 -70 -41.5 -123t-65 -99.5t-93 -93.5t-123.5 -104q-39 -32 -69 -58.5t-52 -52.5t-37 -57t-24 -70l-44 -210q-16 -74 7.5 -104t98.5 -30 h216q38 0 62.5 10t39.5 28t23 43t15 58l253 1189h171l-264 -1241q-12 -49 -30.5 -89.5t-47.5 -70t-68.5 -46.5t-91.5 -17h-424q-59 0 -91 19.5t-46.5 51.5t-13.5 75.5t11 90.5l51 243q9 38 17.5 66.5t22.5 55.5t35.5 54.5t54.5 57.5q60 54 121 99.5t114.5 92t93 102.5 t54.5 130q12 52 0.5 90t-33.5 61.5t-50.5 32t-51.5 4.5q28 -29 38 -70.5t5 -84.5q-10 -54 -39 -102t-69.5 -83t-91.5 -56.5t-104 -22.5q-58 -2 -102.5 16.5t-72.5 53.5t-36.5 82.5zM444 1149.5q-6 -31.5 1.5 -58.5t31 -45t65.5 -18q41 0 72 18t50.5 45t26.5 58.5t-1 58 t-31.5 44.5t-65.5 18q-41 0 -72.5 -18t-51 -44.5t-25.5 -58z" />
<glyph unicode="&#xe03;" horiz-adv-x="1367" d="M325.5 1008q-9.5 44 0.5 102q11 68 45 132.5t86 116t118 82t141 30.5q60 0 97.5 -14t58 -31t29 -31.5t13.5 -14.5q1 0 9 7t19.5 18t27 23t33.5 22t38 15t40 2q32 -3 53 -23.5t32 -55.5t10 -83t-12 -105q-16 -77 -43.5 -138t-69 -116t-102 -109.5t-140.5 -118.5 q-37 -30 -67 -56t-53 -53t-38.5 -58.5t-24.5 -70.5l-47 -220q-8 -37 -6 -61.5t15.5 -38.5t38.5 -19t62 -5h215q34 0 58.5 10.5t40 29t25.5 44t16 55.5l253 1189h173l-265 -1241q-11 -49 -30.5 -89.5t-48.5 -70.5t-69 -46.5t-89 -16.5h-425q-55 0 -87.5 20t-46.5 53.5 t-15 76.5t9 87l52 243q8 38 16.5 68t22.5 57t35.5 53.5t55.5 55.5q69 58 125 101.5t102.5 84t83 84t68.5 104.5q16 33 26.5 67.5t13.5 62.5t-0.5 45.5t-16.5 17.5q-12 0 -30.5 -15.5t-37 -34t-32 -36t-13.5 -20.5q1 3 -3 17.5t-13.5 32.5t-23 37t-30.5 34q-25 20 -49 28.5 t-44 10t-33 0t-14 -1.5q0 1 10.5 -2.5t26 -12t32 -24.5t29 -38.5t17.5 -54t-4 -74.5q-14 -66 -42 -113t-64.5 -79.5t-79.5 -48t-86 -15.5q-45 0 -82.5 15.5t-61.5 46.5t-33.5 75zM451 1105q-5 -30 1 -54t24.5 -41.5t49.5 -17.5q33 0 59 17.5t41.5 41.5t22 54t1.5 55 t-23.5 41.5t-51.5 16.5q-34 0 -60 -16.5t-42.5 -41.5t-21.5 -55z" />
<glyph unicode="&#xe04;" horiz-adv-x="1535" d="M210 0l246 1157q13 59 43 104.5t75 80.5t101.5 60t122.5 40t136.5 22t143.5 7q116 0 214.5 -14t167.5 -50t100.5 -96.5t11.5 -153.5l-245 -1157h-172l238 1124q13 64 -4.5 104t-62.5 62.5t-115 30t-159 7.5q-200 0 -304 -54t-125 -150l-104 -491l-34 -110l131 219 q12 17 30 46.5t43 63t57 67t72 61.5t86 45t100 17q48 0 89 -12.5t69 -39t41.5 -66.5t6.5 -93q-10 -75 -41 -130.5t-74 -91.5t-93.5 -53.5t-99.5 -17.5q-121 0 -180 80q-3 -5 -15 -20t-35 -48.5t-54.5 -88.5t-71.5 -135q-40 -81 -81.5 -164t-66.5 -162h-188zM838.5 790.5 q-6.5 -28.5 1 -52.5t28 -40.5t57.5 -16.5t65 16.5t45 40.5t23 52.5t-0.5 53.5t-27 41t-58.5 16q-37 0 -65 -16t-45 -41t-23.5 -53.5z" />
<glyph unicode="&#xe05;" horiz-adv-x="1535" d="M210 0l240 1135q3 18 11.5 43.5t26.5 57.5t48 68q30 34 76 72q47 37 95 56t86.5 27t64.5 9.5t27 2.5l157 -153l235 153q70 -1 128.5 -29t101.5 -69q32 -35 48.5 -67t20 -62t0 -58.5t-8.5 -54.5l-240 -1131h-172l238 1124q3 11 4.5 27t0.5 33t-5 35t-13 34q-13 20 -30 32 t-32 18.5t-26 8.5t-12 2l-278 -179l-193 172q-1 0 -11 -0.5t-26 -5t-37 -15t-47 -30.5q-19 -16 -31 -34.5t-19 -37.5t-11.5 -35t-7.5 -29l-107 -505l-27 -92l131 219q12 17 28.5 46t40 61t53.5 65t67 60.5t83 46.5t100 21q56 3 99.5 -9.5t73 -40.5t42.5 -69t7 -92 q-12 -75 -42.5 -130.5t-73 -91.5t-93 -53.5t-99.5 -17.5q-121 0 -180 80q-3 -5 -15 -20t-35 -48.5t-54.5 -88.5t-71.5 -135q-40 -81 -81.5 -164t-66.5 -162h-188zM838.5 790.5q-6.5 -28.5 1 -52.5t28 -40.5t57.5 -16.5t65 16.5t45 40.5t23 52.5t-0.5 53.5t-27 41t-58.5 16 q-37 0 -65 -16t-45 -41t-23.5 -53.5z" />
<glyph unicode="&#xe06;" horiz-adv-x="1693" d="M326.5 1042.5q-3.5 55.5 18.5 125.5q17 59 53.5 114t84.5 97t106.5 67t119.5 25q42 3 73.5 -2.5t53.5 -15.5t36.5 -23t23 -23.5t13.5 -18.5t7.5 -8t18 13.5t38 30t52.5 30t65 13.5q48 0 82.5 -27t50 -73.5t11.5 -107.5t-34 -128q-16 -40 -39 -73.5t-49.5 -65t-53.5 -60 t-50.5 -55t-40.5 -52.5t-22 -53l-14 -61q0 -2 21.5 -5.5t55 -14t76.5 -30.5q43 -17 87 -49q70 -53 112.5 -101t65 -83.5t30 -55.5t8.5 -17l236 1109h172l-311 -1464h-171q0 23 -5 69.5t-24.5 106.5t-56.5 129q-37 70 -100 135q-44 45 -85 68t-72.5 32t-51 10.5t-20.5 1.5 l-70 -325q-10 -48 -30 -90.5t-52 -74.5t-76 -52.5t-101 -23.5q-67 -5 -118 14t-81 60.5t-37 106.5t12 155q15 77 42.5 134t60 99.5t70 69.5t71.5 46q40 18 81.5 29.5t88.5 13.5l19 88q8 37 29.5 68t52.5 63t69 70t76 88q27 37 41.5 70.5t19 59.5t-2 43t-16.5 22 q-16 2 -34 -5t-36.5 -19t-35 -27t-29.5 -29.5t-20.5 -24.5t-9.5 -13q2 3 -3 19t-16 35t-25 39t-31 35q-25 20 -49 28.5t-43.5 10t-32.5 0t-14 -1.5q0 1 10 -2t24 -10t30 -20t29 -34t18.5 -52t1.5 -72q-9 -68 -33 -118.5t-60.5 -84t-81.5 -51t-94 -18.5q-54 -2 -95 18t-64 59 t-26.5 94.5zM457 1051q5 -24 23 -41.5t50.5 -17.5t57.5 17.5t41.5 41.5t23 54t1 55t-24 41.5t-51.5 16.5q-32 0 -57 -16.5t-41.5 -41.5t-22 -55t-0.5 -54zM490.5 251q-1.5 -35 7 -63t26.5 -44.5t49 -16.5q22 0 36 9.5t23.5 23t14.5 30.5t9 33l69 326q-49 6 -86 -13.5 t-65.5 -53.5t-46.5 -75.5t-27 -81.5q-8 -39 -9.5 -74z" />
<glyph unicode="&#xe07;" horiz-adv-x="1141" d="M289 871l150 107l190 -776q7 -30 28 -52.5t59 -22.5q33 0 55.5 20t33.5 73l165 768q-8 -1 -27 -7t-51 -7q-54 -2 -98.5 14t-74.5 47.5t-42 75.5t-1 99q12 56 42.5 103t72 81.5t92.5 53.5t104 19q58 0 101 -19t69.5 -53.5t34.5 -82.5t-4 -104l-210 -985 q-26 -120 -101.5 -176.5t-190.5 -57.5q-48 -2 -85.5 9.5t-63.5 32t-44 51.5q-18 32 -27 72zM815.5 1219q-6.5 -31 1 -56.5t30 -42.5t62.5 -17q41 0 70 17t47.5 42.5t25 56.5t-1.5 56.5t-30 43t-62 17.5t-69.5 -17.5t-48 -43t-25 -56.5z" />
<glyph unicode="&#xe08;" horiz-adv-x="1338" d="M335 1075l14 68q19 88 71.5 151t130 102.5t173 57t201.5 17.5q116 0 207.5 -16t151 -53.5t84.5 -97.5t6 -147l-203 -955q-13 -59 -42 -100t-70 -65t-89.5 -34t-100.5 -12q-113 -1 -168.5 52.5t-51.5 153.5l22 344q-38 -18 -73 -25.5t-69 -7.5q-51 0 -90.5 18.5 t-65.5 50.5t-35 75.5t2 93.5q12 56 42 101t71.5 77.5t92 49t103.5 16.5q62 -2 103.5 -21t66.5 -51.5t33.5 -78t4.5 -100.5l-35 -509q-7 -106 73 -106q27 2 45 8.5t31 18.5t20 31.5t13 44.5l191 897q13 59 1.5 98t-47.5 62t-97.5 33t-149.5 11q-171 3 -265 -41t-114 -142 l-15 -70h-173zM474.5 751q-5.5 -30 1.5 -56t29.5 -44t62.5 -18t69 18t48 44t25 56t-1 55.5t-29 43.5t-62 18t-70 -18t-49 -43.5t-24.5 -55.5z" />
<glyph unicode="&#xe09;" horiz-adv-x="1531" d="M252.5 583.5q-10.5 44.5 0.5 97.5q13 57 43 104t72 80.5t92.5 51.5t101.5 18q59 0 101.5 -20t69 -55t34.5 -83t-3 -103l-85 -397q23 23 43 40.5t40 32.5t42.5 29t52.5 31q37 22 65.5 37t55 28t55.5 25.5t70 30.5q67 30 105.5 61t60 59t28.5 51.5t10 36.5l82 385 q14 66 -7 106t-68 62t-118.5 29t-161.5 7q-87 0 -160 -9t-126.5 -30t-87.5 -54.5t-44 -81.5l-18 -83h-172l16 73q20 90 75 152.5t137 102t187.5 56.5t222.5 17q116 0 216.5 -13.5t171.5 -48.5t104 -96.5t13 -155.5l-96 -446q-6 -27 -18 -57.5t-32 -56.5t-46 -47.5t-59 -33.5 q98 -31 136 -101q39 -70 16 -173q-13 -59 -42 -108.5t-70 -84.5t-91 -53q-51 -19 -106 -19q-54 2 -95 22t-66.5 54t-35 79t0.5 97q6 26 16.5 53t28.5 51q-20 -7 -49.5 -21.5t-64.5 -35.5t-71.5 -50t-70.5 -62q-45 -41 -77 -82t-54 -82h-175l95 455q-7 -2 -27.5 -9t-56.5 -7 q-54 0 -96.5 18t-71 50t-39 76.5zM385.5 641.5q2.5 -20.5 13.5 -37t31 -26.5t50 -10q31 0 54.5 10t42 26.5t30 37t16.5 43.5q5 21 2 42t-14.5 37.5t-30.5 27t-49 10.5q-31 0 -55 -10.5t-42 -27t-30 -37.5t-16 -42q-5 -23 -2.5 -43.5zM1108.5 180.5q5.5 -28.5 26 -48 t58 -19.5t66.5 19.5t48 48t25 61.5t0.5 61.5t-27 47.5t-58.5 19t-65.5 -19t-46.5 -47.5t-25 -61.5t-1.5 -61.5z" />
<glyph unicode="&#xe0a;" horiz-adv-x="1378" d="M312.5 1057q-9.5 46 2.5 98q17 83 64 144t108.5 100.5t131.5 58.5t136 19q86 0 154.5 -24t113 -69.5t60.5 -108.5q18 -64 1 -142q-14 -68 -40.5 -119.5t-66 -98t-93 -93.5t-123.5 -104q-39 -32 -69 -58.5t-52 -52.5t-37 -57t-24 -70l-44 -210q-16 -74 7.5 -104t98.5 -30 h276q37 0 60.5 11.5t38.5 30t24 43.5q10 25 15 54l146 692q4 20 7 48.5t-3.5 55.5t-25.5 48t-58 24l13 124q49 4 93 27t80 59.5t61 83.5t36 100l23 110h169l-27 -128q-26 -116 -97 -192.5t-185 -113.5q30 -3 49.5 -19t30 -36.5t15 -46.5t3.5 -52.5t-4.5 -50t-6.5 -41.5 l-157 -744q-12 -49 -31 -90t-49 -70.5t-69.5 -46t-89.5 -16.5h-483q-59 0 -91 19.5t-46.5 51.5t-13.5 75.5t11 90.5l51 243q9 38 17.5 66.5t22.5 55.5t35.5 54.5t54.5 57.5q60 54 121 99.5t114.5 92t93 102.5t54.5 130q12 52 1 90t-32 60.5t-50 31t-54 6.5 q31 -32 39.5 -76.5t0.5 -91.5q-12 -54 -42 -100t-71.5 -79.5t-91.5 -52.5t-101 -19q-56 0 -99.5 19t-70 52t-36 79zM441.5 1104.5q3.5 -20.5 15.5 -37.5t33 -28t52 -11q30 0 55.5 11t44.5 28t31.5 38.5t17 44.5t1.5 44.5t-14.5 38.5t-33 27t-51.5 10q-31 0 -56 -10 t-44.5 -28t-32 -39.5t-17.5 -44.5t-1.5 -43.5z" />
<glyph unicode="&#xe0b;" horiz-adv-x="1454" d="M298.5 1042.5q-3.5 55.5 17.5 125.5q17 59 56.5 114t91 97t112 67t122.5 25q56 0 94.5 -15.5t62.5 -36t36.5 -40t16.5 -26.5q4 4 25 23.5t49.5 39.5t62 35.5t65.5 15.5q28 0 46.5 -15.5t28.5 -41.5t13 -61.5t-1 -75.5t-13 -81t-21 -79q-16 -46 -32.5 -82t-36 -66.5 t-43.5 -58t-55.5 -56t-71 -60.5t-87.5 -72q-38 -29 -68 -54.5t-52 -53.5t-37.5 -59.5t-24.5 -70.5l-44 -210q-16 -74 7.5 -104t97.5 -30h276q38 0 61.5 11.5t38.5 30t23.5 43.5t15.5 54l146 692q4 20 10 49t1.5 57t-25.5 48q-19 20 -65 22l19 124q47 6 90 29.5t78 60t60 83 t35 97.5l23 110h169l-28 -128q-25 -116 -96 -192.5t-185 -113.5q30 -3 49 -19t30 -36.5t15 -46.5t3.5 -52.5t-4 -50t-6.5 -41.5l-157 -744q-12 -49 -31 -90t-48.5 -70.5t-69.5 -46t-89 -16.5h-484q-59 0 -91 19.5t-46.5 51.5t-14 75.5t10.5 90.5l53 243q9 38 17 68t22 57 t35.5 53.5t54.5 55.5q69 58 126 101.5t103 84t83 84t68 104.5q18 33 28 67.5t12.5 62.5t-1 45.5t-16.5 17.5t-33.5 -17t-41.5 -40t-38.5 -45t-23.5 -31q-9 33 -30 69.5t-54 65t-72.5 43.5t-82.5 7q2 0 12 -3t24 -10t30 -20t28 -33.5t18.5 -51.5t0.5 -72q-8 -68 -32.5 -118.5 t-61 -84t-81.5 -51t-94 -18.5q-54 -2 -95 18t-63.5 59t-26 94.5zM428 1051q5 -24 23 -41.5t49 -17.5q33 0 59 17.5t42.5 41.5t23 54t0 55t-24.5 41.5t-51 16.5q-31 0 -56 -16.5t-41.5 -41.5t-22.5 -55t-1 -54z" />
<glyph unicode="&#xe0c;" horiz-adv-x="1989" d="M304.5 155q-7.5 49 4.5 105l100 468q7 36 22 74.5t49 79.5q26 30 53.5 50t48.5 30q13 9 24.5 12.5t19.5 6.5h-204l34 162q19 88 71 151t128 102.5t169.5 57t196.5 17.5q116 0 204 -17t144.5 -55.5t78 -100t2.5 -148.5l-100 -465q-6 -27 -6.5 -49.5t6.5 -40t22 -34 t41 -33.5q17 -13 35.5 -25.5t38.5 -26t43.5 -30t51.5 -36.5q22 -15 39.5 -32.5t29 -31t17.5 -21.5q7 -10 7 -8l244 1147h172l-311 -1464h-173q7 46 -2 84.5t-21 75.5q-12 33 -32 60t-40.5 48t-39.5 36.5t-36 25.5q5 -25 5 -50t-5 -50q-12 -56 -43.5 -101.5t-74 -79 t-94 -51.5t-103.5 -17q-56 2 -96 24t-63.5 59.5t-29 85t4.5 99.5q11 51 35.5 95t59.5 78t79 59t94 40q-18 14 -26 34t-8.5 44t2 49.5t8.5 46.5l90 429q12 54 4 93.5t-40 64t-91 35.5q-57 11 -146 11q-84 0 -148.5 -9t-109.5 -30t-72 -54.5t-37 -81.5l-12 -50h216l-26 -125 q-7 0 -22 -3.5t-35.5 -13t-45 -26.5t-50.5 -43q-20 -20 -32.5 -40.5t-20.5 -40t-12 -35.5q-5 -18 -8 -30l-60 -281q8 1 32 7t58 6q53 0 94.5 -17.5t69 -49.5t37.5 -77t-1.5 -99.5t-41.5 -99.5t-71.5 -78t-91 -51.5t-99.5 -18.5q-59 0 -102.5 21.5t-69 59.5t-33 87z M445.5 234q-6.5 -31 1.5 -56.5t29.5 -43t61.5 -17.5t70 17.5t48.5 43t25 56.5t-1.5 56.5t-30 43.5t-62 18t-69.5 -18t-48 -43.5t-25 -56.5zM1074.5 184q6.5 -28 27.5 -47.5t58 -19.5t65.5 19.5t46.5 47.5t25 61.5t1.5 61.5t-26.5 47t-58 19t-66.5 -19t-48 -47t-25 -61.5 t0 -61.5z" />
<glyph unicode="&#xe0d;" horiz-adv-x="2019" d="M304.5 155q-7.5 49 4.5 105l100 468q7 36 22 74.5t49 79.5q26 30 53.5 50t48.5 30q13 9 24.5 12.5t19.5 6.5h-204l34 162q19 88 74 151t135 102.5t177.5 57t199.5 17.5q113 0 203.5 -16t148 -54t81.5 -98t6 -146l-185 -872q-8 -36 -9 -63.5t7.5 -46.5t27.5 -29t52 -10 h182q37 0 61.5 12t40 33.5t24 48t15.5 55.5l251 1179h173l-252 -1182q-11 -52 -29 -102.5t-49 -90.5t-77.5 -64.5t-113.5 -24.5h-322q-65 0 -101 25t-51.5 66t-14 91.5t11.5 102.5l178 839q12 56 2.5 95t-43 63.5t-93.5 35t-147 10.5q-85 0 -152 -9t-116.5 -30t-80 -54.5 t-40.5 -81.5l-12 -50h216l-26 -125q-7 0 -22 -3.5t-35.5 -13t-45 -26.5t-50.5 -43q-20 -20 -32.5 -40.5t-20.5 -40t-12 -35.5q-5 -18 -8 -30l-60 -281q8 1 32 7t58 6q53 0 94.5 -17.5t69 -49.5t37.5 -77t-1.5 -99.5t-41.5 -99.5t-71.5 -78t-91 -51.5t-99.5 -18.5 q-59 0 -102.5 21.5t-69 59.5t-33 87zM445.5 234q-6.5 -31 1.5 -56.5t29.5 -43t61.5 -17.5t70 17.5t48.5 43t25 56.5t-1.5 56.5t-30 43.5t-62 18t-69.5 -18t-48 -43.5t-25 -56.5zM909 -347q12 54 39 95.5t63.5 70.5t81.5 45t91 16q49 0 85.5 -16.5t58.5 -45t29 -68t-4 -87.5 q-9 -41 -24 -66.5t-29 -41t-25.5 -23t-13.5 -7.5q16 -3 32.5 -5.5t36.5 0.5q66 7 113.5 33.5t81.5 65.5t54 85.5t31 93.5l12 62h157l-16 -76q-18 -89 -62.5 -162.5t-111 -125.5t-154 -81.5t-189.5 -29.5q-71 0 -138 13t-117 43t-74.5 81.5t-7.5 130.5zM1038 -334.5 q-6 -25.5 0.5 -47t24.5 -36t51 -14.5t58 14.5t40.5 36t20.5 47t-0.5 47t-24 36t-50.5 14.5q-33 0 -58 -14.5t-40.5 -36t-21.5 -47z" />
<glyph unicode="&#xe0e;" horiz-adv-x="1663" d="M148 147q-8 45 1 93q13 55 43.5 99t71.5 75.5t89.5 49.5t98.5 18q34 0 56 -6q21 -4 28 -7l56 259q9 41 28 81t47 74t63.5 59.5t78.5 38.5h-204l34 162q19 88 75.5 151t137 102.5t179.5 57t202 17.5q115 0 209.5 -14t158.5 -50.5t91 -97.5t8 -152l-321 -1512 q-10 -44 -29 -87.5t-47.5 -78t-66.5 -56t-86 -21.5q-35 0 -71.5 15t-77.5 52q-57 49 -91.5 77.5t-53.5 46t-28 25t-14 13.5q0 -1 -11 -17t-30 -38t-45 -47t-57 -45q-128 -85 -243 -86q-52 -1 -100 13t-82 42t-51.5 70t-7.5 96.5t46.5 107.5t102.5 93q42 26 87 38t88.5 16 t82.5 2t70 -7t51.5 -10.5t26.5 -8.5q10 20 21 51.5t18 61.5h179q-2 -17 -7.5 -39.5t-13.5 -47.5t-17.5 -49t-19.5 -43q30 -20 68 -49.5t73 -55.5t61.5 -46.5t35.5 -24.5q18 -8 31 -2.5t21.5 17.5t14.5 29.5t9 32.5l306 1439q12 60 -2 100t-53.5 63t-104 32t-152.5 9 q-85 0 -153.5 -9t-119 -30t-82 -54.5t-41.5 -81.5l-12 -50h216l-26 -125q-7 0 -22 -3.5t-35.5 -13t-45.5 -26.5t-51 -43q-20 -20 -32 -40.5t-20 -40t-12 -35.5q-5 -18 -8 -30l-102 -483q-13 -60 -44 -110t-74 -86t-95.5 -56t-111.5 -20q-54 0 -94.5 20t-64.5 55.5t-32 80.5z M281 238q-6 -31 1 -56.5t29 -43.5t62 -18t70 18t49 43.5t25 56.5t-1 56.5t-30 43t-63 17.5t-69 -17.5t-48 -43t-25 -56.5zM368 -366q-3 -19 3.5 -34.5t20 -25.5t33.5 -15t41 -5q30 0 57.5 11.5t50 28.5t40.5 37t31.5 38t20 31t8.5 15q-35 12 -70 19t-71 7q-22 0 -49.5 -7 t-51 -20.5t-42 -33.5t-22.5 -46z" />
<glyph unicode="&#xe0f;" horiz-adv-x="1663" d="M129.5 -480.5q-10.5 40.5 0.5 91.5q13 60 48 104.5t82 73t101 43t104 14.5q28 0 52.5 -3t42.5 -6.5t30 -6.5q11 -3 13 -3q6 11 12.5 29t11.5 38l10 40t8 36h176q0 -1 -1.5 -11t-7 -33t-17 -61t-33.5 -92q9 -8 22.5 -19t28 -25t25.5 -29.5t19 -29.5l207 231l146 -238 l312 1461q12 60 -2 100t-53.5 63t-104 32t-152.5 9q-85 0 -153.5 -9t-119 -30t-82 -54.5t-41.5 -81.5l-12 -50h216l-26 -125q-7 0 -22 -3.5t-35.5 -13t-45.5 -26.5t-51 -43q-20 -20 -32 -40.5t-20 -40t-12 -35.5q-5 -18 -8 -30l-102 -483q-13 -59 -42.5 -109t-72.5 -86.5 t-95 -57t-109 -19.5q-55 2 -96.5 21t-67 52t-35 76.5t2.5 94.5q11 57 41 102.5t73 78.5t94 50t102 14q31 -1 51 -5q19 -3 26 -6l56 259q9 41 28 81t47 74t63.5 59.5t78.5 38.5h-204l34 162q19 88 75.5 151t137 102.5t179.5 57t202 17.5q115 0 209.5 -14t158.5 -50.5 t91 -97.5t8 -152l-342 -1603q-5 -27 -18.5 -54.5t-34.5 -49t-46.5 -34t-55.5 -11.5q-32 2 -52 22.5t-36 49.5l-95 186l-219 -256q-3 24 -15 53t-28.5 58t-36 54t-35.5 40q-24 -55 -62.5 -96t-86.5 -69t-100 -40.5t-102 -12.5q-53 0 -95.5 14t-71 42.5t-39 69zM281 238 q-6 -31 1 -56.5t29 -43.5t62 -18t70 18t49 43.5t25 56.5t-1 56.5t-30 43t-63 17.5t-69 -17.5t-48 -43t-25 -56.5zM295 -386q-6 -30 13 -52t62 -24q33 0 61.5 12t51 33t39 49t24.5 56q-23 10 -47 15t-49 5q-21 0 -46.5 -5t-48.5 -17t-40.5 -29t-19.5 -43z" />
<glyph unicode="&#xe10;" horiz-adv-x="1355" d="M-116 -403q12 48 37 88t62 69.5t81.5 45.5t89.5 16q38 -2 66 -11q26 -9 40 -25q12 27 21 60t15 66h142q-12 -53 -29 -105q-17 -50 -37 -104l37 -85l133 179q6 -48 19 -93q10 -38 27.5 -79t49.5 -69q48 -46 106 -40q60 5 111 62q-44 -1 -82 11t-62.5 36.5t-34.5 59 t-2 78.5t32.5 82t58 65t73.5 43.5t81 16.5q56 0 92 -19t55 -50.5t23 -71.5t-5 -83q-13 -65 -47.5 -128.5t-82 -113.5t-108 -81.5t-127.5 -31.5q-44 0 -80 8t-64.5 25t-50.5 45.5t-39 71.5l-103 -138h-37l-59 157q-24 -44 -53 -73.5t-59 -46.5t-62 -24.5t-62 -7.5 q-37 0 -70.5 13.5t-57.5 38.5t-36 61t-2 82zM11.5 -422.5q1.5 -16.5 9.5 -29.5t21 -21q12 -9 32 -9q28 0 51.5 13t41 33t29 44t17.5 47q-1 6 -8.5 14t-19 15t-26.5 12t-32 5q-20 0 -37.5 -7t-33 -19t-26 -28.5t-16.5 -35.5q-4 -17 -2.5 -33.5zM382 1088q-2 55 25.5 112 t76 107t116.5 88.5t145 57.5q63 14 115 17.5t97 -1.5t84.5 -15t77.5 -20.5t77.5 -20t83.5 -10.5q31 -3 76 12.5t88 51.5l47 -139q-50 -38 -107 -51.5t-111 -13.5q-66 0 -117.5 10t-101.5 21.5t-103.5 21.5t-125.5 10q-46 0 -87.5 -10t-74 -29t-55.5 -45t-30 -59 q-3 -10 14 -11.5t49.5 0.5t80 4t108.5 0.5t133 -10.5t154 -31q71 -20 117.5 -45.5t71 -59t28.5 -78t-7 -103.5l-139 -647q-13 -56 -41.5 -96t-67.5 -65t-86.5 -37.5t-97.5 -12.5q-58 0 -96 17.5t-59.5 46t-29.5 68.5q-9 40 -6 86l12 246q-40 -19 -74 -25.5t-67 -6.5 q-52 0 -91 18.5t-65 51.5t-36 76.5t2 92.5q11 53 39 97.5t67.5 77t88.5 50.5t104 18q123 0 175 -67t42 -183l-29 -413q-1 -26 0.5 -45.5t8.5 -32t20.5 -18.5t36.5 -6q17 0 31.5 3.5t23.5 13.5t16.5 27.5t12.5 42.5l126 590q12 54 -0.5 92.5t-51.5 64.5t-108.5 41.5 t-172.5 24.5q-63 5 -118.5 4.5t-103.5 -2t-86.5 -3t-66 2t-42.5 14.5t-16 32zM518.5 666.5q-6.5 -31.5 1.5 -57.5t30 -43t62 -17t69.5 17t48 43t25 57.5t-1.5 57t-30 43t-62 17.5t-69.5 -17.5t-48 -43t-25 -57zM795 -237q-9 -38 12.5 -63.5t56.5 -25.5q20 0 37 8t31.5 20 t24.5 27.5t14 31.5q4 20 0 36.5t-14 28t-24.5 17t-30.5 5.5q-21 0 -39 -7t-32 -19t-23.5 -28t-12.5 -31z" />
<glyph unicode="&#xe11;" horiz-adv-x="1733" d="M325 1019q-8 48 5 108q13 66 49 128t86 110t112 77t129 29q63 0 102 -14t60 -31t31 -31.5t15 -14.5q3 0 18 13.5t37.5 30t52 30t63.5 13.5q43 0 64.5 -32t25 -82t-10 -112.5t-39.5 -120.5q-22 -50 -47.5 -88t-50.5 -69.5t-48.5 -59.5t-44 -56.5t-37 -62t-25.5 -78.5 l-53 -246q-1 2 11 24t33.5 60.5t52.5 91.5t70 114.5t85 130.5q47 69 99 140q68 94 133.5 175t127.5 141t120.5 94.5t113.5 35.5q48 2 76.5 -16t42.5 -47.5t14.5 -67.5t-8.5 -76l-266 -1260h-171l260 1227q3 11 2 22t-3.5 19.5t-10 14t-19.5 5.5q-19 0 -48.5 -23.5t-66 -64 t-79 -96.5t-87.5 -120.5t-92.5 -133.5t-90.5 -139q-88 -138 -155.5 -253.5t-116 -205.5t-79.5 -154t-45 -98h-171l154 728q11 51 31 85t48 66.5t62.5 69t71.5 93.5q30 45 48.5 88t27 77t7.5 54t-14 20q-12 0 -30.5 -15.5t-37 -34t-32 -36t-13.5 -20.5q1 3 -3 17.5 t-13.5 32.5t-23 37t-30.5 34q-25 20 -49 28.5t-43.5 10.5t-32.5 0t-15 -2q38 -9 63 -29.5t38 -50.5t14.5 -66.5t-5.5 -72.5q-13 -60 -39.5 -106t-62.5 -76t-79.5 -45.5t-90.5 -15.5q-46 0 -84 17t-61.5 50t-31.5 81zM453.5 1051q5.5 -24 23.5 -41.5t49 -17.5q33 0 59 17.5 t41.5 41.5t22 54t1.5 55t-23.5 41.5t-51.5 16.5q-32 0 -57.5 -16.5t-41.5 -41.5t-22 -55t-0.5 -54z" />
<glyph unicode="&#xe12;" horiz-adv-x="2110" d="M210 0l240 1135q3 18 11.5 43.5t26.5 57.5t48 68q30 34 76 72q47 37 95 56t86.5 27t64.5 9.5t27 2.5l157 -153l235 153q70 -1 128.5 -29t101.5 -69q32 -35 48.5 -67t20 -62t0 -58.5t-8.5 -54.5l-113 -528q-5 -27 6 -44.5t35 -32.5t56.5 -29.5t67.5 -31.5 q51 -27 84.5 -54.5t54.5 -48t30 -33.5q8 -14 8 -12l245 1147h171l-312 -1464h-171q1 11 2 22.5t1 24.5q-2 49 -18.5 94.5t-43.5 83.5t-64 66t-82 42q5 -20 5 -43.5t-7 -49.5q-13 -54 -44 -100.5t-73 -80t-93 -53t-104 -19.5q-58 0 -102 22t-70 60t-35 87.5t1 102.5 q12 48 34 94t55.5 84t78 64.5t98.5 36.5l125 586q3 11 4.5 27t0.5 33t-5 35t-13 34q-13 20 -30 32t-32 18.5t-26 8.5t-12 2l-278 -179l-193 172q-1 0 -11 -0.5t-26 -5t-37 -15t-47 -30.5q-19 -16 -31 -34.5t-19 -37.5t-11.5 -35t-7.5 -29l-199 -937q30 21 54.5 40.5 t50.5 40.5t55 45t68.5 57t90 75t120.5 101q-11 0 -31.5 3t-43.5 11.5t-46.5 23.5t-39.5 40t-22 59q-7 33 3 81.5t35 92.5t62.5 77.5t87.5 52.5t111 19q49 0 92 -14t71.5 -43.5t40.5 -71.5q12 -44 1 -98q-15 -66 -50 -121.5t-88.5 -110.5t-121.5 -112.5t-146.5 -123 t-135.5 -112t-96.5 -79t-64 -52.5t-40 -32t-25 -19t-14.5 -13h-188zM819.5 769.5q-5.5 -28.5 1.5 -53.5t27.5 -41t56.5 -16q37 0 65 16t45 41t23.5 53.5t-0.5 53t-27.5 40t-58.5 15.5q-37 0 -65 -15.5t-45 -40t-22.5 -53zM1155.5 201.5q5.5 -28.5 27 -47t58.5 -18.5t66 18.5 t46.5 47t25 62t1.5 62.5t-26.5 47.5t-58 18.5t-66.5 -18.5t-47.5 -47.5t-25 -62.5t-1 -62z" />
<glyph unicode="&#xe13;" horiz-adv-x="2040" d="M304.5 155q-7.5 49 4.5 105l100 468q7 36 22 74.5t49 79.5q32 37 70 62.5t76 36.5h-204l34 162q19 88 74 151t133.5 102.5t175 57t199.5 17.5q116 0 206 -16t149.5 -53.5t83 -97.5t4.5 -147l-178 -840q0 -1 12 9.5t33.5 28.5t51.5 40.5t67 44.5q36 20 66 37.5t57 32.5 t51 28.5t46 24.5q36 20 59 41.5t37.5 44t22 49t13.5 57.5l152 709h171l-151 -713q-9 -36 -19.5 -70.5t-29.5 -63.5t-45.5 -52.5t-63.5 -36.5q97 -32 134.5 -102t15.5 -174q-12 -58 -41 -106.5t-69.5 -83.5t-90.5 -55t-103 -18q-56 1 -99 21.5t-69.5 56.5t-35 84t5.5 101 q3 13 8 24t11 24q-37 -20 -81 -52q-45 -34 -92 -88q-20 -21 -33.5 -41t-23.5 -39.5t-18.5 -39.5t-15.5 -40h-174l239 1124q12 56 2 95t-44.5 63.5t-94.5 35t-147 10.5q-85 0 -152 -9t-115.5 -30t-78.5 -54.5t-40 -81.5l-12 -50h216l-26 -125q-7 0 -22 -3.5t-35.5 -13 t-45 -26.5t-50.5 -43q-20 -20 -32.5 -40.5t-20.5 -40t-12 -35.5q-5 -18 -8 -30l-60 -281q8 1 32 7t58 6q53 0 94.5 -17.5t69 -49.5t37.5 -77t-1.5 -99.5t-41.5 -99.5t-71.5 -78t-91 -51.5t-99.5 -18.5q-59 0 -102.5 21.5t-69 59.5t-33 87zM445.5 234q-6.5 -31 1.5 -56.5 t29.5 -43t61.5 -17.5t70 17.5t48.5 43t25 56.5t-1.5 56.5t-30 43.5t-62 18t-69.5 -18t-48 -43.5t-25 -56.5zM1621.5 205q2.5 -22 12 -40.5t28 -29.5t46 -11t51 11t41.5 29.5t30 40.5t16 47q6 24 4 47.5t-12 41.5t-29.5 28.5t-46.5 10.5t-50 -10.5t-41 -28.5t-29.5 -41.5 t-17.5 -47.5q-5 -25 -2.5 -47z" />
<glyph unicode="&#xe14;" horiz-adv-x="1535" d="M210 0l246 1157q13 59 43 104.5t75 80.5t101.5 60t122.5 40t136.5 22t143.5 7q116 0 214.5 -14t167.5 -50t100.5 -96.5t11.5 -153.5l-245 -1157h-172l238 1124q13 64 -4.5 104t-62.5 62.5t-115 30t-159 7.5q-200 0 -304 -54t-125 -150l-197 -930q95 76 164 135 t118.5 101.5t81.5 72.5t50.5 49t26.5 29t11 12q-11 0 -31 3t-44.5 11.5t-47.5 24.5t-39.5 41t-22 60.5t4.5 83.5q11 57 42 102t71.5 75.5t89.5 46.5t97 16q56 0 98 -16.5t68 -46.5t35 -72q11 -43 -1 -94q-13 -60 -53 -125t-96.5 -131.5t-125.5 -132.5t-140 -127.5 t-139 -116.5t-122 -101l-119 -94h-193zM836 778.5q2 -19.5 12.5 -34.5t30 -24t45.5 -9q27 0 49 9t39.5 24t28.5 34.5t16 39.5q4 21 2 41t-12 36t-29.5 25.5t-46.5 9.5t-50 -10.5t-40 -26t-28 -35.5t-15 -40t-2 -39.5z" />
<glyph unicode="&#xe15;" horiz-adv-x="1535" d="M210 0l240 1135q3 18 11.5 43.5t26.5 57.5t48 68q30 34 76 72q47 37 95 56t86.5 27t64.5 9.5t27 2.5l157 -153l235 153q70 -1 128.5 -29t101.5 -69q32 -35 48.5 -67t20 -62t0 -58.5t-8.5 -54.5l-240 -1131h-172l238 1124q3 11 4.5 27t0.5 33t-5 35t-13 34q-13 20 -30 32 t-32 18.5t-26 8.5t-12 2l-278 -179l-193 172q-1 0 -11 -0.5t-26 -5t-37 -15t-47 -30.5q-19 -16 -31 -34.5t-19 -37.5t-11.5 -35t-7.5 -29l-199 -937l70 54q36 26 72.5 57t86.5 72l210 176q-11 0 -31.5 3t-43.5 12t-46.5 25t-39.5 41t-21.5 61.5t4.5 84.5q11 55 39.5 98.5 t68 73.5t89 46.5t100.5 16.5q50 0 92.5 -16.5t70 -46.5t38.5 -72t1 -94q-15 -66 -50 -121.5t-88.5 -110.5t-121.5 -112.5t-146 -123.5l-276 -227q-30 -26 -55 -44q-23 -19 -45 -36h-188zM818 729q3 -20 13 -35.5t28.5 -25t45.5 -9.5t50 9.5t40 24.5t28 35q11 21 15 41 t2 39.5t-12.5 35t-29 25t-46.5 9.5q-27 0 -50 -9.5t-40 -25t-27.5 -35t-15.5 -39.5q-4 -20 -1 -40z" />
<glyph unicode="&#xe16;" horiz-adv-x="1480" d="M301 200.5q2 34.5 8 59.5l100 468q7 36 22 74.5t49 79.5q32 37 70 62.5t76 36.5h-204l34 162q19 88 75.5 151t137 102.5t179.5 57t202 17.5q115 0 210.5 -14t158 -50.5t90.5 -97.5t8 -152l-246 -1157h-171l238 1124q13 60 -1 100t-54 63t-104.5 32t-151.5 9 q-85 0 -153.5 -9t-119 -30t-82 -54.5t-41.5 -81.5l-12 -50h216l-26 -125q-7 0 -22 -3.5t-35.5 -13t-45 -26.5t-50.5 -43q-20 -20 -32.5 -40.5t-20.5 -40t-12 -35.5q-5 -18 -8 -30l-60 -281q6 1 23 5.5t42 6.5t56 -1q31 -4 65 -16q40 -15 67.5 -48t37.5 -75t1 -92 q-8 -51 -37 -99q-34 -59 -80.5 -94t-96 -51.5t-98 -14t-85.5 16.5q-50 23 -75.5 56.5t-34.5 70t-7 71zM445.5 234q-6.5 -31 1.5 -56.5t29.5 -43t61.5 -17.5t70 17.5t48.5 43t25 56.5t-1.5 56.5t-30 43.5t-62 18t-69.5 -18t-48 -43.5t-25 -56.5z" />
<glyph unicode="&#xe17;" horiz-adv-x="1653" d="M366 1210q12 56 42 103t72 81.5t92.5 53.5t102.5 19q59 0 102.5 -19t69 -53.5t33.5 -82.5t-3 -104l-102 -480l-39 -125q16 36 37.5 74.5t44.5 80.5q39 69 96 159t131 188q52 70 105 136t107 116t110 80t114 30q76 -1 122.5 -28.5t69.5 -71.5t25 -100.5t-11 -116.5 l-244 -1150h-172l243 1145q6 29 7.5 58.5t-6.5 53.5t-26 38.5t-49 14.5q-26 0 -71 -34.5t-105 -103t-134 -170.5q-73 -104 -158 -241q-77 -126 -132.5 -232t-98 -198t-70 -174.5t-48.5 -156.5h-175l210 988q-6 -1 -26 -7t-51 -7q-55 -2 -98.5 14t-73.5 47.5t-42 75.5t-1 99z M505 1219q-7 -31 0.5 -56.5t30.5 -42.5t62 -17q40 0 70 17t48 42.5t24 56.5t-1 56.5t-30 43t-63 17.5t-69 -17.5t-47 -43t-25 -56.5z" />
<glyph unicode="&#xe18;" horiz-adv-x="1425" d="M293.5 190q1.5 53 12.5 107l112 531h171l-111 -528q-9 -41 -10.5 -72t8 -51.5t34.5 -30.5t69 -10h369q43 0 71 13.5t45 36.5t27 53t17 61l99 465q6 32 8 57.5t-4.5 47.5t-21 41.5t-39.5 36.5q-30 19 -69.5 32.5t-84 21.5t-93 11.5t-94.5 3.5q-64 -2 -126 -11t-112 -28 h-183l24 110q21 103 78.5 176t134.5 119.5t166.5 68t175.5 21.5q54 0 100.5 -6t92 -13.5t92 -17.5t96.5 -19q35 -6 70.5 8t81.5 54l60 -139q-24 -23 -60 -39q-30 -14 -73 -23.5t-101 -3.5q-55 6 -99 16t-89 19t-96.5 16.5t-117.5 7.5q-72 0 -128.5 -17.5t-98 -43.5 t-66.5 -60t-32 -67l-4 -25q57 8 113 15.5t114 9.5q49 2 102.5 1t108.5 -8t109 -20q53 -11 104 -34q60 -27 92 -60.5t45 -74t10 -86.5q-3 -48 -14 -102l-101 -464q-12 -60 -33.5 -114t-55.5 -95t-82.5 -64.5t-114.5 -23.5h-522q-68 0 -106 26.5t-55 68.5t-15.5 95z" />
<glyph unicode="&#xe19;" horiz-adv-x="1594" d="M360 1115.5q-10 44.5 2 97.5q11 55 42 103t74 81.5t94 51.5t106 18q57 0 98.5 -20t67 -55t33.5 -83t-3 -101l-205 -962q52 49 114 90.5t127 75.5t130 63.5t124 55.5q67 30 106.5 61t61 59t28.5 51.5t10 36.5l154 725h172l-160 -753q-6 -27 -19 -57.5t-32 -56.5t-45 -47.5 t-59 -33.5q98 -31 135.5 -101t15.5 -173q-13 -59 -42.5 -108.5t-70 -84.5t-91 -53.5t-104.5 -18.5q-54 2 -95 22t-67.5 54t-35.5 79t2 97q6 26 16.5 53t26.5 51q-37 -14 -80 -35t-86.5 -46t-86.5 -54t-80 -62t-67 -67.5t-50 -68.5h-176l210 988q-7 -1 -28 -7.5t-54 -8.5 q-57 -1 -101 17t-73 50t-39 76.5zM496.5 1219q-6.5 -31 1.5 -56.5t31 -42.5t62 -17q40 0 69 17t47.5 42.5t26 56.5t-0.5 56.5t-30 43t-62 17.5t-70 -17.5t-49 -43t-25.5 -56.5zM1170.5 180.5q6.5 -28.5 27 -48t58 -19.5t66 19.5t46.5 48t25 61.5t0 61.5t-28 47.5t-58 19 t-65 -19t-46 -47.5t-25 -61.5t-0.5 -61.5z" />
<glyph unicode="&#xe1a;" horiz-adv-x="1615" d="M328 1116q-11 45 2 98q12 56 42 103t71.5 80.5t92 51.5t103.5 18q59 0 102 -19t68.5 -53.5t34 -82.5t-2.5 -104l-190 -891q-3 -17 -6.5 -31t-6 -27.5t-2.5 -28t3 -33.5q6 -35 36.5 -48t70.5 -13h392q37 0 64 11q25 12 45 36q16 17 25 33t14 31.5t8.5 32.5t8.5 37 l243 1147h171l-244 -1149q-7 -35 -15 -65t-18.5 -57t-26.5 -53.5t-39 -52.5q-40 -41 -86.5 -64t-103.5 -23h-546q-26 0 -49.5 4.5t-44.5 13.5t-36.5 26t-27 43t-15 55.5t-3 58.5t5 58.5t10.5 55.5l143 673q-6 -1 -32 -7t-57 -7q-54 -2 -95.5 15.5t-69.5 49.5t-39 77z M467.5 1219q-7.5 -31 0.5 -56.5t31 -42.5q22 -17 62 -17t70 17t48.5 42.5t25 56.5t-1.5 56.5t-30 43t-62 17.5t-69.5 -17.5t-48 -43t-26 -56.5z" />
<glyph unicode="&#xe1b;" horiz-adv-x="1615" d="M328 1116q-11 45 2 98q12 56 42 103t71.5 80.5t92 51.5t103.5 18q59 0 102 -19t68.5 -53.5t34 -82.5t-2.5 -104l-190 -891q-3 -17 -6.5 -31t-6 -27.5t-2.5 -28t3 -33.5q6 -35 36.5 -48t70.5 -13h392q37 0 64 11q25 12 45 36q16 17 25 33t14 31.5t8.5 32.5t8.5 37 l384 1814h172l-386 -1816q-7 -35 -15 -65t-18.5 -57t-26.5 -53.5t-39 -52.5q-40 -41 -86.5 -64t-103.5 -23h-546q-26 0 -49.5 4.5t-44.5 13.5t-36.5 26t-27 43t-15 55.5t-3 58.5t5 58.5t10.5 55.5l143 673q-6 -1 -32 -7t-57 -7q-54 -2 -95.5 15.5t-69.5 49.5t-39 77z M467.5 1219q-7.5 -31 0.5 -56.5t31 -42.5q22 -17 62 -17t70 17t48.5 42.5t25 56.5t-1.5 56.5t-30 43t-62 17.5t-69.5 -17.5t-48 -43t-26 -56.5z" />
<glyph unicode="&#xe1c;" horiz-adv-x="1478" d="M237 0l256 1208q12 56 41 104t70.5 82.5t93 53.5t110.5 19q56 0 99 -18.5t68.5 -52t33.5 -80t-4 -103.5q-11 -55 -40.5 -99t-70 -76.5t-90.5 -49.5t-103 -14q-32 1 -55 7t-28 7l-163 -772l369 425h131l188 -425l264 1248h173l-310 -1464h-206l-212 472l-410 -472h-205z M634.5 1219q-6.5 -31 0.5 -56.5t30 -42.5t63 -17t69.5 17t48 42.5t25 56.5t-1.5 56.5t-30 43t-63 17.5q-40 0 -69 -17.5t-47.5 -43t-25 -56.5z" />
<glyph unicode="&#xe1d;" horiz-adv-x="1478" d="M237 0l256 1208q12 56 41 104t70.5 82.5t93 53.5t110.5 19q56 0 99 -18.5t68.5 -52t33.5 -80t-4 -103.5q-11 -55 -40.5 -99t-70 -76.5t-90.5 -49.5t-103 -14q-32 1 -55 7t-28 7l-163 -772l369 425h131l188 -425l406 1915h173l-452 -2131h-206l-212 472l-410 -472h-205z M634.5 1219q-6.5 -31 0.5 -56.5t30 -42.5t63 -17t69.5 17t48 42.5t25 56.5t-1.5 56.5t-30 43t-63 17.5q-40 0 -69 -17.5t-47.5 -43t-25 -56.5z" />
<glyph unicode="&#xe1e;" horiz-adv-x="1726" d="M353 1115q-10 45 2 98q11 55 39.5 102.5t68.5 81t91 52.5q49 18 107 18t102 -19t70 -53.5t35 -81.5t-3 -103l-143 -672l-37 -146l520 1072h139l87 -1072l28 146l197 926h172l-311 -1464h-209l-95 1153l-564 -1153h-211l208 988q-5 -1 -31 -7t-57 -7q-55 -2 -97 14.5 t-70 49t-38 77.5zM492.5 1219q-6.5 -31 1.5 -56.5t30 -42.5t62 -17t69.5 17t48 42.5t25 56.5t-0.5 56.5t-30 43t-63 17.5t-69.5 -17.5t-48 -43t-25 -56.5z" />
<glyph unicode="&#xe1f;" horiz-adv-x="1726" d="M353 1115q-10 45 2 98q11 55 39.5 102.5t68.5 81t91 52.5q49 18 107 18t102 -19t70 -53.5t35 -82.5t-3 -104l-137 -640l-43 -176l520 1072h139l87 -1072l33 176l334 1563h171l-452 -2131h-209l-98 1157l-561 -1157h-211l208 988q-11 -3 -34 -8t-54 -6q-55 -2 -97 14.5 t-70 49t-38 77.5zM492.5 1219q-6.5 -31 1.5 -56.5t30 -42.5t62 -17t69.5 17t48 42.5t25 56.5t-0.5 56.5t-30 43t-63 17.5t-69.5 -17.5t-48 -43t-25 -56.5z" />
<glyph unicode="&#xe20;" horiz-adv-x="1663" d="M146 150q-7 49 5.5 98t40.5 92t69 76t88 49q40 13 71.5 15.5t55.5 0t39.5 -7t20.5 -4.5l56 259q7 36 23 74.5t49 79.5q30 36 67.5 62t77.5 37h-204l34 162q19 88 75.5 151t137 102.5t179.5 57t202 17.5q115 0 209.5 -14t158.5 -50.5t91 -97.5t8 -152l-246 -1157h-171 l239 1124q12 60 -2 100t-53.5 63t-104 32t-152.5 9q-85 0 -153.5 -9t-119 -30t-82 -54.5t-41.5 -81.5l-12 -50h216l-26 -125q-7 0 -22 -3.5t-35.5 -13t-45.5 -26.5t-51 -43q-20 -20 -32 -40.5t-20 -40t-12 -35.5q-5 -18 -8 -30l-102 -483q-6 -26 -18.5 -60t-37.5 -70 t-64 -69.5t-99 -56.5q-45 -16 -93.5 -16.5t-90.5 16t-73.5 51t-41.5 92.5zM281 238q-6 -31 1 -56.5t29 -43.5t62 -18t70 18t49 43.5t25 56.5t-1 56.5t-30 43t-63 17.5t-69 -17.5t-48 -43t-25 -56.5z" />
<glyph unicode="&#xe21;" horiz-adv-x="1594" d="M230 167q-7 65 15 155q20 80 56 152t89 127t122 90t154 41l55 256q-52 -16 -100 -14q-50 1 -91 19.5t-66.5 51.5t-35.5 76t1 95q11 54 41 99.5t72.5 79.5t92.5 53t100 19q59 0 102.5 -19t70 -53.5t34.5 -82.5t-4 -104l-101 -480q0 -2 20 -4.5t52.5 -12t75.5 -28t87 -50.5 q71 -52 113 -103t65 -91t30 -63.5t8 -20.5l236 1109h172l-310 -1464h-173q0 14 -1.5 43t-7.5 66t-18 80.5t-32 90t-50 91.5t-73 87q-44 42 -85 65t-72.5 34t-50.5 12.5t-21 1.5l-73 -344q-10 -48 -30.5 -90.5t-52 -74.5t-75 -52.5t-101.5 -23.5q-67 -5 -119 14t-83 60.5 t-38 106.5zM390 250.5q0 -34.5 9 -62.5t27.5 -44.5t48.5 -16.5q23 0 37 9.5t22.5 23t14.5 30.5t9 33l73 345q-52 3 -92 -21t-68 -61t-45.5 -81.5t-26.5 -84.5q-9 -35 -9 -69.5zM562.5 1219q-6.5 -31 1 -56.5t30 -42.5t62.5 -17t69.5 17t48 42.5t25 56.5t-1.5 56.5t-30 43 t-62 17.5t-69.5 -17.5t-48 -43t-25 -56.5z" />
<glyph unicode="&#xe22;" horiz-adv-x="1448" d="M295 202.5q2 56.5 14 112.5l36 168q8 42 27.5 89t62.5 94q23 26 47 42t43.5 24.5t32.5 11t15 2.5q-61 10 -99.5 41t-56.5 74.5t-18.5 98t13.5 112.5q20 86 60.5 159t99.5 125.5t135.5 81.5t166.5 29q60 0 103.5 -18t70 -51.5t34.5 -79.5q8 -45 -5 -105t-43 -106 t-70 -75.5t-88.5 -43t-100.5 -10.5q-57 3 -92 26t-54.5 48.5t-26.5 50t-4 28.5q0 -1 -8.5 -22t-15 -52.5t-9 -68t10.5 -70.5q20 -47 75 -70.5t124 -23.5h239l-29 -132h-237q-42 0 -79.5 -15.5t-67.5 -42t-51.5 -61.5t-28.5 -75l-39 -181q-9 -41 -11.5 -74.5t6.5 -57 t33.5 -36.5t68.5 -13h392q43 0 71.5 16.5t46.5 42t28 58.5t16 64l244 1147h173l-246 -1149q-13 -60 -35 -116.5t-57 -100.5t-83 -71t-114 -27h-545q-70 0 -107.5 28t-53.5 73t-14 101.5zM712.5 1223q-6.5 -30 1.5 -56t30 -44t63 -18q40 0 69 18t47.5 44t25 56t-0.5 55.5 t-29 43.5t-62 18t-70.5 -18t-49 -43.5t-25 -55.5z" />
<glyph unicode="&#xe23;" horiz-adv-x="1249" d="M332 1025q-6 3 1 40.5t30 89.5q35 78 84 136.5t109 98t130 60t145 21.5q54 2 99 -6.5t89.5 -19.5t93 -19.5t111.5 -8.5q34 0 61.5 8t46 19.5t28.5 19t11 7.5l33 -157q-48 -27 -83 -37q-34 -10 -65 -10q-66 0 -122.5 10.5t-109 24.5t-102.5 24.5t-101 9.5 q-40 0 -81.5 -11.5t-81 -36t-71 -58t-48.5 -77.5q36 0 76 -2.5t80 -5.5q73 -8 156.5 -21.5t165.5 -43.5q67 -23 110 -50.5t64.5 -63t23.5 -85t-12 -116.5l-106 -502q-13 -57 -43 -106.5t-73 -86.5t-95 -58t-108 -21q-54 0 -95 20t-67.5 54t-35.5 79.5t2 95.5q13 55 43 100 t70.5 76.5t89.5 48.5t99 17q34 0 55 -6q21 -4 29 -7l59 277q13 62 5.5 104t-38 71t-87 48t-141.5 33q-94 16 -172 20.5t-134.5 3.5t-89.5 -3t-38 2zM712.5 238q-6.5 -31 1.5 -56.5t30 -43.5t63 -18q40 0 69 18t47.5 43.5t25 56.5t-0.5 56.5t-30 43t-61 17.5 q-40 0 -70.5 -17.5t-49 -43t-25 -56.5z" />
<glyph unicode="&#xe24;" horiz-adv-x="1480" d="M301 200.5q2 34.5 8 59.5l100 468q7 36 22 74.5t49 79.5q32 37 70 62.5t76 36.5h-204l34 162q19 88 75.5 151t137 102.5t179.5 57t202 17.5q115 0 210.5 -14t158 -50.5t90.5 -97.5t8 -152l-373 -1758h-173l367 1725q13 60 -1 100t-54 63t-104.5 32t-151.5 9 q-85 0 -153.5 -9t-119 -30t-82 -54.5t-41.5 -81.5l-12 -50h216l-26 -125q-7 0 -22 -3.5t-35.5 -13t-45 -26.5t-50.5 -43q-20 -20 -32.5 -40.5t-20.5 -40t-12 -35.5q-5 -18 -8 -30l-60 -281q6 1 23 5.5t42 6.5t56 -1q31 -4 65 -16q40 -15 67.5 -48t37.5 -75t1 -92 q-8 -51 -37 -99q-34 -59 -80.5 -94t-96 -51.5t-98 -14t-85.5 16.5q-50 23 -75.5 56.5t-34.5 70t-7 71zM445.5 234q-6.5 -31 1.5 -56.5t29.5 -43t61.5 -17.5t70 17.5t48.5 43t25 56.5t-1.5 56.5t-30 43.5t-62 18t-69.5 -18t-48 -43.5t-25 -56.5z" />
<glyph unicode="&#xe25;" horiz-adv-x="1451" d="M273 141q-10 48 3 105l84 399q19 87 69.5 160.5t119.5 127.5t149.5 84t160.5 30q50 0 91.5 -11t75.5 -31t61 -45t47 -52q56 -80 90 -183l84 399q13 60 -1 100t-53.5 64.5t-103.5 34.5q-63 10 -152 10q-84 0 -153 -10t-119.5 -31.5t-82 -56t-41.5 -82.5l-17 -78h-173 l14 68q19 88 76 151t138 102.5t179.5 57t201.5 17.5q116 0 210.5 -14t158 -50.5t90.5 -97.5t9 -152l-246 -1157h-173l37 176q11 51 16 108.5t1 123t-20.5 140t-51.5 158.5q-15 42 -38 78.5t-51 63.5t-61.5 43t-72.5 16q-54 0 -102.5 -20t-88 -54.5t-66 -79t-34.5 -91.5 l-43 -197q7 1 33.5 7t60.5 6q49 0 90.5 -16.5t68.5 -49t37 -77.5t-1 -100q-12 -52 -42 -97.5t-71.5 -78.5t-90.5 -52.5t-98 -19.5q-57 0 -101 19.5t-71 53t-37 81.5zM415.5 234q-6.5 -31 1.5 -56.5t30 -43t62 -17.5t70 17.5t48 43t25 56.5t-0.5 56.5t-30.5 43.5t-62 18 q-40 0 -70 -18t-48.5 -43.5t-25 -56.5z" />
<glyph unicode="&#xe26;" horiz-adv-x="1653" d="M134 150q-7 49 6.5 98t41 92t68 76t87.5 49q41 13 73 15.5t55.5 0t38.5 -7t21 -4.5l56 259q7 36 22.5 74.5t50.5 79.5q28 35 66.5 61.5t78.5 37.5h-206l35 162q18 88 74.5 151t137.5 102.5t179.5 57t201.5 17.5q116 0 211 -14t158 -50.5t91 -97.5t8 -152l-373 -1758h-172 l366 1725q13 60 -1.5 100t-53.5 63t-104 32t-153 9q-84 0 -152 -9t-119.5 -30t-83 -54.5t-41.5 -81.5l-10 -50h216l-27 -125q-7 0 -22 -3.5t-36 -13t-45 -26.5t-50 -43q-20 -20 -32 -40.5t-21 -40t-12 -35.5q-4 -18 -7 -30l-102 -483q-6 -26 -18.5 -60t-37.5 -70t-65 -69.5 t-98 -56.5q-45 -16 -93.5 -16.5t-90.5 16t-74.5 51t-42.5 92.5zM269.5 238q-6.5 -31 1.5 -56.5t30 -43.5t62 -18t69.5 18t48 43.5t25 56.5t-0.5 56.5t-30 43t-62 17.5q-40 0 -70 -17.5t-48.5 -43t-25 -56.5z" />
<glyph unicode="&#xe27;" horiz-adv-x="1242" d="M325 1091l10 52q18 88 65.5 151t117.5 102.5t159 57t194 17.5q116 0 200 -20.5t135 -60.5t70.5 -98.5t1.5 -134.5l-193 -907q-13 -58 -42 -105.5t-70.5 -81.5t-93 -53t-108.5 -19q-53 0 -94 19.5t-66.5 52.5t-36.5 77t-1 93q12 56 40.5 101.5t69.5 78.5t89.5 51t99.5 18 q35 0 58 -6q24 -4 31 -7l139 655q11 54 5.5 93t-35.5 64.5t-86 38.5q-54 13 -143 13q-83 0 -143 -11.5t-101 -36t-63.5 -60t-34.5 -82.5l-10 -52h-164zM705.5 238q-6.5 -31 1 -56.5t30 -43.5t62.5 -18t69.5 18t48 43.5t25 56.5t-1.5 56.5t-30 43t-61 17.5q-40 0 -70 -17.5 t-48.5 -43t-25 -56.5z" />
<glyph unicode="&#xe28;" horiz-adv-x="1535" d="M210 0l246 1157q13 59 43 104.5t75 80.5t101.5 60t122.5 40t136.5 22t143.5 7q56 0 103 -1t90 -7t83 -16t83 -27q32 17 57.5 43t45.5 56t34.5 62t19.5 62h183q-11 -46 -30.5 -91.5t-48 -88t-65.5 -78t-80 -59.5q20 -40 24.5 -81t-5.5 -88l-245 -1157h-172l238 1124 q13 64 -4.5 104t-62.5 62.5t-115 30t-159 7.5q-200 0 -304 -54t-125 -150l-104 -491l-34 -110l131 219q12 17 28.5 46t40 61t53.5 65t67 60.5t83 46.5t100 21q62 3 107.5 -12.5t73.5 -49t36.5 -81t-2.5 -104.5q-16 -69 -47 -117.5t-72.5 -79t-88.5 -45.5t-93 -15 q-121 0 -180 80q-3 -5 -15 -20t-35 -48.5t-54.5 -88.5t-71.5 -135q-40 -81 -81.5 -164t-66.5 -162h-188zM838.5 790.5q-6.5 -28.5 1 -52.5t28 -40.5t57.5 -16.5t65 16.5t45 40.5t23 52.5t-0.5 53.5t-27 41t-58.5 16q-37 0 -65 -16t-45 -41t-23.5 -53.5z" />
<glyph unicode="&#xe29;" horiz-adv-x="1723" d="M328 1116q-11 45 2 98q12 56 42 103t71.5 80.5t92 51.5t103.5 18q59 0 102 -19t68.5 -53.5t33.5 -82.5t-4 -104l-190 -891q-3 -17 -5.5 -31t-5.5 -27.5t-2.5 -28t3.5 -33.5q6 -35 36 -48q29 -13 71 -13h392q36 0 63 11q26 12 46 36q16 17 25 33t13.5 31.5t8 32.5t7.5 37 l32 152q-32 -3 -62 -5t-63 1q-27 1 -59 3t-65.5 6.5t-67.5 14t-65 23.5q-46 19 -71 52.5t-33 72t1 80.5t30 79.5t54 66.5t73 45q55 20 105.5 21.5t90.5 -15t64.5 -51.5t24.5 -84q1 -23 -2.5 -43t-8.5 -36t-11.5 -29l-11.5 -23q-12 -13 -20.5 -22.5t-18.5 -17.5q1 0 8.5 -1.5 t17.5 -3t22 -2t23 -0.5h32q13 0 21 2q9 0 14 1t8 4l183 856h171l-175 -831q22 9 36.5 17t27.5 18t27 25.5t36 41.5q34 44 46 84t17 73h161q-8 -74 -44 -146t-100 -131q-46 -44 -89 -68q-41 -24 -76 -38q-20 -9 -38.5 -12.5t-35.5 -6.5l-37 -175q-7 -35 -15 -65t-18.5 -57 t-26.5 -53.5t-40 -52.5q-40 -41 -86 -64t-103 -23h-546q-26 0 -50.5 4.5t-44.5 13.5t-36.5 26t-26.5 43q-11 26 -14.5 55.5t-3 58.5t5 58.5t10.5 55.5l143 673q-6 -1 -32 -7t-57 -7q-54 -2 -95.5 15.5t-69.5 49.5t-39 77zM467.5 1219q-7.5 -31 0.5 -56.5t31 -42.5 q22 -17 62 -17t70 17t48.5 42.5t25 56.5t-1.5 56.5t-30 43t-62 17.5t-69.5 -17.5t-48 -43t-26 -56.5zM975 721.5q-5 -23.5 0.5 -44.5t22.5 -33.5t47 -12.5t53 12.5t38 33.5t20 44.5t-0.5 43.5t-23 33.5t-47.5 13.5t-52.5 -13.5t-37.5 -33.5t-20 -43.5z" />
<glyph unicode="&#xe2a;" horiz-adv-x="1451" d="M273 141q-10 48 3 105l84 399q16 73 54 137.5t92.5 117t123.5 88.5t148 52q87 15 154.5 -1.5t117.5 -51.5t83.5 -80t53.5 -85.5t28 -69t8 -31.5l87 407q11 56 -4 94.5t-55 63.5t-105 36t-152 11q-85 0 -152.5 -11t-117.5 -33.5t-82.5 -59t-42.5 -86.5l-14 -68h-173l14 68 q19 87 74.5 150t135.5 102t179 57.5t206 18.5q51 0 91.5 -2t72.5 -5.5t56.5 -8.5t44.5 -9l64 -26q8 3 16 8.5t18 14.5q13 11 31 27.5t35 42.5q29 41 42.5 75t19.5 59h183q-8 -33 -30 -87t-69 -117q-20 -27 -40 -49.5t-40 -35.5q-10 -8 -22.5 -14.5t-23.5 -15.5l9 -21 q5 -11 7.5 -21t6.5 -30q3 -26 1.5 -50.5t-5.5 -48.5l-246 -1157h-173l37 176q11 51 17 108.5t1.5 124t-21 140.5t-52.5 157q-18 49 -45 90t-62.5 68t-77.5 37.5t-92 -0.5q-40 -10 -78.5 -31t-70 -51t-55 -69t-33.5 -88l-43 -197q7 1 33.5 7t60.5 6q49 0 90.5 -16.5t68.5 -49 t37 -77.5t-1 -100q-12 -52 -42 -97.5t-71.5 -78.5t-90.5 -52.5t-98 -19.5q-57 0 -101 19.5t-71 53t-37 81.5zM415.5 234q-6.5 -31 1.5 -56.5t30 -43t62 -17.5t70 17.5t48 43t25 56.5t-0.5 56.5t-30.5 43.5t-62 18q-40 0 -70 -18t-48.5 -43.5t-25 -56.5z" />
<glyph unicode="&#xe2b;" horiz-adv-x="1663" d="M347.5 1116q-10.5 45 1.5 98q11 56 41 103t71.5 80.5t92.5 51.5t104 18q58 0 101 -19t69.5 -53.5t33.5 -82.5t-4 -104l-120 -563q-2 -4 17 20t52.5 66.5t83.5 93t111 102.5q59 45 100.5 73t68.5 42.5t41.5 19.5t18.5 8q-7 5 -19 15t-21.5 28t-12.5 47q-3 28 6 68 q11 55 41.5 100.5t71.5 78.5t91.5 51t101.5 18q57 0 100.5 -18t71 -51t36 -78t-2.5 -98q-8 -31 -20.5 -62.5t-32.5 -59.5t-49 -50t-64 -34q34 -15 55.5 -44.5t30.5 -66.5t8.5 -76.5t-7.5 -76.5l-162 -761h-171l160 758q8 44 8 82t-11 66t-33.5 43.5t-58.5 15.5 q-34 0 -87.5 -25.5t-114.5 -69t-123 -103t-114 -126.5q-54 -70 -99.5 -139.5t-83 -135.5t-62.5 -127.5t-36 -114.5l-26 -124h-172l211 988q-6 -1 -32 -7t-57 -7q-54 -2 -96.5 15.5t-70 49.5t-38 77zM486.5 1219q-6.5 -31 1 -56.5t30.5 -42.5t63 -17t69 17t47.5 42.5t25 56.5 t-1 56.5t-30 43t-62.5 17.5t-69 -17.5t-48 -43t-25.5 -56.5zM1320 1182.5q3 -21.5 14.5 -38t31.5 -25.5t48 -9q30 0 54.5 9t42.5 25.5t30 38t16 43.5q5 22 2.5 43t-14 37.5t-31.5 26.5t-50 10t-53.5 -10t-42 -26.5t-30 -38t-17.5 -42.5q-4 -22 -1 -43.5z" />
<glyph unicode="&#xe2c;" horiz-adv-x="1723" d="M350 1116q-10 45 2 98q11 56 42 103t72.5 80.5t92 51.5t102.5 18q58 0 101 -19t69.5 -53.5t34.5 -82.5q6 -48 -5 -104l-166 -780l-24 -121l429 678h138l165 -673l24 113l157 739q-15 -7 -33.5 -14t-41.5 -13t-54 -9.5t-74 -3.5q-55 0 -111 9.5t-100.5 30.5t-70 58.5 t-18.5 91.5q6 52 35 93.5t75.5 70.5t107.5 46.5t131 17.5q99 0 162.5 -17.5t100 -38t50.5 -39t13 -23.5q56 59 86.5 125.5t46.5 135.5h179q-3 -18 -10 -44.5t-20 -58.5t-32.5 -70t-44.5 -81q-35 -52 -81.5 -96.5t-97.5 -71.5l-269 -1263h-200l-183 779l-499 -779h-198 l211 988q-6 -1 -32 -7t-57 -7q-55 -2 -97 15.5t-70 49.5t-38 77zM490.5 1219q-7.5 -31 0.5 -56.5t31 -42.5t61 -17q40 0 70.5 17t48 42.5t24 56.5t-0.5 56.5t-30 43t-63 17.5t-69.5 -17.5t-47 -43t-25 -56.5zM1265.5 1341q-5.5 -20 4.5 -37t37 -30t74 -14q60 -3 116 11.5 t100 54.5q2 2 -5.5 17t-27.5 31t-57.5 29.5t-99.5 13.5q-38 0 -68.5 -11.5t-49 -28t-24 -36.5z" />
<glyph unicode="&#xe2d;" horiz-adv-x="1444" d="M269.5 202.5q2.5 56.5 13.5 112.5l90 424q13 60 43 110t73 86t96 56.5t110 22.5q54 1 96.5 -18t69.5 -53t36 -79q8 -43 -2 -95q-13 -63 -44.5 -110t-75 -77t-95.5 -45t-107 -14q-34 2 -51 7t-19 5l-47 -218q-8 -41 -11 -74.5t6 -57t33.5 -36.5t68.5 -13h392q49 0 81 14 t53 38.5t31.5 58t19.5 70.5l171 807q13 60 -1 100t-53.5 64.5t-104 34.5t-152.5 10q-85 0 -153 -10t-119.5 -31.5t-83 -56t-41.5 -82.5l-10 -50h-171l7 40q19 88 76 151t138 102.5t178.5 57t202.5 17.5q116 0 210 -14t158 -50.5t91 -97.5t8 -152l-180 -842 q-13 -60 -35.5 -116.5t-57 -100.5t-83.5 -71q-47 -27 -113 -27h-567q-69 0 -107.5 28t-54.5 73t-13.5 101.5zM525.5 768.5q-6.5 -30.5 1.5 -56.5t30 -43q21 -17 61 -17t70 17t48.5 43t25 56.5t-1.5 56.5t-29.5 43t-61.5 17t-70 -17t-48.5 -43t-25 -56.5z" />
<glyph unicode="&#xe2e;" horiz-adv-x="1444" d="M269.5 202.5q2.5 56.5 13.5 112.5l72 330q13 60 43 111t72.5 87t96.5 56t111 20q54 -1 96.5 -21t67.5 -53.5t34 -78.5t-2 -95q-13 -60 -44 -106t-72.5 -76t-91.5 -45t-103 -15q-38 0 -58 6q-19 5 -22 5l-27 -123q-8 -41 -11 -74.5t6 -57t33.5 -36.5t68.5 -13h392 q49 0 81 14t53 38.5t31.5 58t19.5 70.5l171 807q0 1 -22.5 -14t-74 -34t-135.5 -35t-202 -16q-49 0 -102 2.5t-103.5 9.5t-95 20.5t-75.5 36.5t-45 56.5t-4 79.5q8 41 34.5 74.5t66 61t89 47.5t105 33.5t114 19t116.5 5.5q126 0 203 -10t121.5 -24t63.5 -27.5t28 -22.5 q17 27 30.5 58t23.5 60t16.5 56.5t10.5 48.5h172q-9 -41 -24 -88.5t-40 -104.5q-16 -37 -30.5 -62t-26 -41t-19 -25t-13.5 -15q6 -13 6.5 -33t-1.5 -40.5t-6.5 -40l-7.5 -32.5l-173 -813q-13 -60 -35.5 -116.5t-57 -100.5t-83.5 -71q-47 -27 -113 -27h-567q-69 0 -107.5 28 t-54.5 73t-13.5 101.5zM505.5 674q-6.5 -30 1.5 -56t30 -44t62 -18t69.5 18t48 44t25 56t-1.5 56t-29.5 43.5t-61.5 17.5t-70 -17.5t-48.5 -43.5t-25 -56zM635 1241q-6 -27 18.5 -42t66 -23t91.5 -10t96 -2q98 0 165.5 14.5t108 31.5t59 32.5t24.5 20.5q-1 3 -11 14t-44 24 t-99 24t-175 11q-58 0 -111 -6t-94 -18t-66 -30t-29 -41z" />
<glyph unicode="&#xe2f;" horiz-adv-x="1477" d="M442.5 1107.5q-12.5 49.5 2.5 113.5q13 60 43 107.5t72 79t92 47.5t103 16q56 0 99 -17.5t68.5 -49t34 -76t-2.5 -98.5q-10 -45 -25 -74t-31.5 -48.5t-29.5 -28.5t-19 -14q3 0 29 -0.5t64.5 7.5t88 27t102.5 61q37 30 67 63.5t53 68t38.5 65t26 55l16.5 38.5l7 14 q2 0 15.5 1t33 -0.5t40 -7.5t34.5 -18q20 -18 26.5 -45t5 -60t-8.5 -70t-16 -74l-185 -875q-8 -35 -17 -70t-27 -68t-44.5 -63.5t-66.5 -54.5q-20 -13 -44.5 -24.5t-48.5 -21t-46 -15t-41 -5.5l-74 131q44 3 82.5 16.5t70 36.5t53 56t31.5 79l172 805q-45 -40 -90.5 -71.5 t-93 -53.5t-98 -38t-106.5 -24q-59 -11 -119.5 -11t-115.5 11t-101 34t-76.5 58.5t-43 85zM585.5 1230q-6.5 -30 0.5 -55t28.5 -41.5t59.5 -16.5q37 0 66 16.5t46.5 41.5t24 55t-1 55t-29 41.5t-58.5 16.5t-65.5 -16.5t-46.5 -41.5t-24.5 -55z" />
<glyph unicode="&#xe30;" horiz-adv-x="1195" d="M186 229q-6 37 0.5 75.5t24.5 76t45 70t61.5 57t74.5 37.5q56 20 111.5 18t98 -26.5t65.5 -70.5q25 -46 17 -114q-6 -46 -20.5 -76t-30 -48.5t-27 -27t-11.5 -10.5q3 0 21.5 -0.5t50 4.5t72 20t89.5 46q41 26 70 65.5t46.5 81t25.5 78t8 53.5h192q-16 -72 -41 -138.5 t-63.5 -123t-94.5 -100.5t-130 -70q-56 -20 -119 -33.5t-126 -21t-123 -5t-110.5 15t-90.5 37.5q-37 24 -60 61q-20 32 -26 69zM319.5 329.5q-6.5 -30.5 0.5 -56.5t30 -43t62 -17q40 0 70 17t48.5 43t24.5 56.5t-1.5 56.5t-29.5 43t-62 17t-69.5 -17t-48 -43t-25 -56.5z M360 1100.5q2 59.5 28.5 115t73.5 100.5t107 64q56 20 111.5 18t98 -26.5t66.5 -70t16 -116.5q-6 -45 -20 -74.5t-30 -49t-28 -27t-12 -9.5q3 0 22 -0.5t50 3.5t73 20t91 47q40 25 68.5 64t47 80.5t26.5 79t8 54.5h190q-16 -72 -41 -138.5t-63.5 -123t-94 -100.5t-131.5 -70 q-56 -20 -119 -34.5t-125 -21t-121.5 -4t-111 15t-91 37t-61.5 61.5q-30 46 -28 105.5zM495.5 1164q-6.5 -31 1.5 -57t30 -43t62 -17t69.5 17t48.5 43t25 57t-1 57t-29.5 43t-62.5 17t-69 -17t-48.5 -43t-26 -57z" />
<glyph unicode="&#xe31;" d="M-638 1909.5q-10 43.5 3 101.5q12 51 37.5 92t62 69.5t80 44t92.5 15.5q46 0 82 -16.5t60.5 -45t33 -68t-1.5 -84.5q-8 -42 -31 -79t-53 -69q1 0 17.5 -2.5t47.5 -5t71.5 0t90 12.5t105 29t114.5 54q46 25 78 56.5t53.5 64t35 63t20.5 59.5l176 3q-7 -20 -20 -51.5 t-35 -71t-55.5 -82.5t-82 -84.5t-116 -78.5t-154.5 -63q-63 -20 -146.5 -33t-171.5 -13q-50 0 -101.5 4.5t-99 16.5t-87.5 33.5t-67.5 53t-37.5 75zM-508 2020.5q-5 -25.5 2 -47.5t26.5 -36.5t51.5 -14.5q33 0 58 14.5t39.5 36.5t19.5 47.5t-1.5 48t-25 36.5t-50.5 14 q-34 0 -59.5 -14t-40.5 -36.5t-20 -48z" />
<glyph unicode="&#xe32;" horiz-adv-x="1242" d="M325 1091l10 52q18 88 65.5 151t117.5 102.5t159 57t194 17.5q116 0 200 -20.5t135 -60.5t70.5 -98.5t1.5 -134.5l-246 -1157h-171l239 1124q11 54 5.5 93t-35.5 64.5t-86 38.5q-54 13 -143 13q-83 0 -143 -11.5t-101 -36t-63.5 -60t-34.5 -82.5l-10 -52h-164z" />
<glyph unicode="&#xe33;" horiz-adv-x="1242" d="M-160.5 1894.5q-6.5 48.5 4 100t37.5 100.5t69.5 86.5t98 60.5t124.5 23t114 -23t71.5 -60.5t33 -86.5t-4.5 -100.5t-38 -100t-69.5 -86.5t-97.5 -60.5t-123 -22.5q-69 0 -115 22.5t-72 60.5t-32.5 86.5zM-10 1993.5q-7 -32.5 1 -60.5t31.5 -46.5t66.5 -18.5 q41 0 72 18.5t51 46.5t27 60.5t-1 60.5t-31.5 46.5t-65 18.5t-73.5 -18.5t-51.5 -46.5t-26.5 -60.5zM325 1091l10 52q18 88 65.5 151t117.5 102.5t159 57t194 17.5q116 0 200 -20.5t135 -60.5t70.5 -98.5t1.5 -134.5l-246 -1157h-171l239 1124q11 54 5.5 93t-35.5 64.5 t-86 38.5q-54 13 -143 13q-83 0 -143 -11.5t-101 -36t-63.5 -60t-34.5 -82.5l-10 -52h-164z" />
<glyph unicode="&#xe34;" d="M-917 1739l30 137q18 83 68.5 147.5t127 108t175 66.5t213.5 23q146 0 246.5 -29.5t158.5 -81.5t76.5 -122t1.5 -152l-21 -97h-1076zM-711 1875h722l3 15q5 20 -7.5 54t-50.5 65.5t-108 53.5q-68 22 -180 22q-66 0 -128.5 -10t-113.5 -32t-86 -58q-35 -34 -45 -86z" />
<glyph unicode="&#xe35;" d="M-917 1739l30 137q18 83 68.5 147.5t127 108t175 66.5t213.5 23q130 0 222 -23q92 -24 151 -64l49 227h173l-133 -622h-1076zM-711 1875h722l3 15q5 20 -7.5 54t-50.5 65.5t-108 53.5q-68 22 -180 22q-66 0 -128.5 -10t-113.5 -32t-86 -58q-35 -34 -45 -86z" />
<glyph unicode="&#xe36;" d="M-917 1739l30 137q18 83 68.5 147.5t127 108t175 66.5t213.5 23q41 0 78.5 -3t71.5 -7q6 26 18 51t27.5 46t33 39t34.5 31q44 30 93.5 44.5t96 13.5t86 -16t64.5 -42q27 -31 38.5 -69t9 -77.5t-17.5 -77.5t-41 -69q-17 -23 -32 -38t-29 -25.5t-26.5 -16.5t-24.5 -12 q20 -73 3 -157l-21 -97h-1076zM-711 1875h722l3 15q5 20 -7.5 54t-50.5 65.5t-108 53.5q-68 22 -180 22q-66 0 -128.5 -10t-113.5 -32t-86 -58q-35 -34 -45 -86zM-17 2193q-6 -28 1 -51.5t28 -40t58 -16.5q36 0 63 16.5t44 40t23 51.5t-1 52t-28 40t-58 16q-36 0 -63 -16 t-44 -40t-23 -52z" />
<glyph unicode="&#xe37;" d="M-917 1739l30 137q18 83 68.5 147.5t127 108t175 66.5t213.5 23q60 0 111 -6l32 146h153l-37 -173q68 -23 114 -54l49 227h173l-133 -622h-1076zM-711 1875h722l3 15q5 20 -7.5 54t-50.5 65.5t-108 53.5q-68 22 -180 22q-66 0 -128.5 -10t-113.5 -32t-86 -58 q-35 -34 -45 -86z" />
<glyph unicode="&#xe38;" d="M-788 -362q12 53 40.5 96t67.5 73t87 46.5t98 17.5q60 0 104.5 -18.5t70 -52t33 -80.5t-4.5 -105l-81 -387h-172l42 194q-8 -1 -29 -7.5t-53 -6.5q-54 0 -96.5 16.5t-69.5 47t-37 73t0 93.5zM-648.5 -360q-6.5 -28 0 -52t27 -40.5t56.5 -16.5t63 16.5t44.5 40.5t23 52 t-1 51.5t-26.5 40t-56 16.5q-35 0 -63 -16.5t-44.5 -40t-23 -51.5z" />
<glyph unicode="&#xe39;" d="M-1190 -413q10 54 38 99t68 76.5t89.5 49.5t102.5 18q58 0 101 -18.5t69.5 -52.5t33.5 -81t-4 -104l-40 -196h219l95 446h172l-127 -596h-564l32 149q-7 -2 -26 -6t-50 -4q-51 0 -94 14t-71.5 42t-41.5 69q-10 42 -2 95zM-1049.5 -401q-5.5 -28 1 -52.5t26.5 -40 t55 -15.5q36 0 64 15.5t44.5 40t23 52.5t0 51.5t-27.5 40t-56 16.5q-36 0 -63.5 -16.5t-44.5 -40t-22.5 -51.5z" />
<glyph unicode="&#xe3a;" d="M-547 -324q8 35 30 66t58 51t81.5 20t72 -20t36 -51t1.5 -66t-30 -65.5t-56.5 -50.5t-80 -20t-73 20t-37.5 50.5t-2 65.5z" />
<glyph unicode="&#xe3e;" />
<glyph unicode="&#xe3f;" horiz-adv-x="1929" d="M363 0l358 1685h515l74 343h160l-73 -343h66q104 0 185 -29t132.5 -84t69.5 -133.5t-2 -178.5q-9 -43 -29 -92.5t-56 -97.5t-91 -91.5t-133 -74.5q25 -7 55 -20t61 -34.5t56.5 -52.5t43 -73.5t21 -98.5t-12.5 -127q-21 -102 -77 -192t-142.5 -158t-201.5 -108t-254 -40 h-48l-73 -345h-162l73 345q0 -1 -23 -1h-59.5t-83 0.5t-94.5 0.5h-255zM588 169h326l133 622h-326zM756 960h165h162l117 556h-326zM1074 169h73q89 0 161.5 25.5t126.5 70t89 106t50 131.5q13 59 6 103t-27.5 76.5t-54.5 53.5t-74.5 33.5t-87 17.5t-92.5 5h-17h-20 l-66 -311q-13 -58 -25 -115.5t-21.5 -101.5t-15 -70.5t-5.5 -23.5zM1243 960q164 -12 269 57.5t138 223.5q13 59 5 109t-42 87t-95.5 58t-156.5 21z" />
<glyph unicode="&#xe40;" horiz-adv-x="752" d="M282 200q1 35 7 60l257 1204h172l-212 -999q6 1 22.5 5.5t41.5 6.5t56 -1q30 -4 66 -16q40 -15 66.5 -48t36.5 -75t2 -92q-9 -51 -38 -99q-34 -59 -80.5 -94t-96.5 -51.5t-97 -14t-85 16.5q-50 23 -75.5 56.5t-35 70t-7.5 70.5zM426 234q-6 -31 1.5 -56.5t29.5 -43 t62 -17.5t69.5 17.5t48.5 43t25.5 56.5t-1 56.5t-30 43.5t-62.5 18t-69.5 -18t-48.5 -43.5t-25 -56.5z" />
<glyph unicode="&#xe41;" horiz-adv-x="1385" d="M282 200q1 35 7 60l257 1204h172l-212 -999q6 1 22.5 5.5t41.5 6.5t56 -1q30 -4 66 -16q40 -15 66.5 -48t36.5 -75t2 -92q-9 -51 -38 -99q-34 -59 -80.5 -94t-96.5 -51.5t-97 -14t-85 16.5q-50 23 -75.5 56.5t-35 70t-7.5 70.5zM426 234q-6 -31 1.5 -56.5t29.5 -43 t62 -17.5t69.5 17.5t48.5 43t25.5 56.5t-1 56.5t-30 43.5t-62.5 18t-69.5 -18t-48.5 -43.5t-25 -56.5zM911.5 200.5q2.5 34.5 7.5 59.5l256 1204h172l-212 -999q6 1 23 5.5t41.5 6.5t56.5 -1q31 -4 65 -16q40 -15 66.5 -48t36.5 -75t2 -92q-7 -51 -36 -99q-34 -59 -81.5 -94 t-96.5 -51.5t-97 -14t-85 16.5q-50 23 -76 56.5t-35.5 70t-7 71zM1056 234q-6 -31 1.5 -56.5t30 -43t62.5 -17.5t69 17.5t48 43t25 56.5t-1 56.5t-30 43.5t-61 18q-40 0 -70 -18t-49 -43.5t-25 -56.5z" />
<glyph unicode="&#xe42;" horiz-adv-x="930" d="M454 200.5q2 34.5 8 59.5l336 1579q9 37 11 65t-4 48.5t-20 35.5q-16 14 -39 24q-40 13 -77 21.5t-71 11.5q-40 6 -82 0q-1 1 4.5 23.5t18.5 56.5t36 75.5t57 81t80.5 72.5t109.5 50q66 17 117 20t93.5 -3.5t81.5 -18.5t79 -26t83.5 -26t97.5 -16q42 -5 72 6t50 26t30 28 t11 13l23 -153q-20 -20 -53 -38q-26 -12 -58 -21.5t-68 -8.5q-65 5 -116.5 23t-100.5 36.5t-101 31t-119 10.5q-46 -3 -79.5 -14t-57 -24.5t-38.5 -29t-24 -30t-12.5 -24t-3.5 -11.5q3 1 26.5 -2t55 -11.5t65 -22.5t58.5 -36q17 -17 30 -33t19.5 -37t5.5 -52.5t-11 -83.5 l-300 -1411q6 1 23 5.5t41 6.5t56 -1q31 -4 66 -16q40 -15 66.5 -48t36.5 -75t2 -92q-8 -51 -37 -99q-34 -59 -81 -94t-96.5 -51.5t-97.5 -14t-85 16.5q-50 23 -76 56.5t-35 70t-7 71zM598.5 234q-6.5 -31 1.5 -56.5t30 -43t62 -17.5t69.5 17.5t48 43t25 56.5t-0.5 56.5 t-30 43.5t-62 18q-40 0 -70 -18t-48.5 -43.5t-25 -56.5z" />
<glyph unicode="&#xe43;" horiz-adv-x="1052" d="M455.5 1899q-0.5 66 19.5 143t59 142t96.5 114t129.5 76t161 30q99 1 168 -26t109 -75.5t54.5 -114.5t3.5 -143q-9 -50 -26 -94.5t-40 -86t-48 -80t-47.5 -75.5t-40 -73.5t-26.5 -73.5l-231 -1093q5 1 21.5 5t41.5 6.5t56 0t65 -15.5q41 -16 67.5 -49t36.5 -76t1.5 -92 t-36.5 -98q-35 -58 -81.5 -94t-95.5 -51.5t-98 -14.5t-86 17q-50 23 -75 56.5t-34 69.5t-7 71t8 59l274 1294q12 55 32.5 95.5t45 75t51 68t48.5 73.5t37.5 91.5t21.5 124.5q3 56 -18 95t-58 61.5t-87 26.5t-104 -11q-42 -10 -72 -29t-51.5 -41t-35 -45t-20.5 -41.5 t-11 -31.5l-3 -13l37 33q23 12 48 22.5t65 10.5q86 0 124.5 -57t16.5 -160q-11 -55 -36 -97t-60 -71.5t-76 -45t-85 -12.5q-70 1 -116 29t-69.5 76.5t-24 114.5zM626.5 1850.5q4.5 -21.5 20 -36.5t47.5 -15q28 0 50 15t36 36.5t19 47t0.5 48t-19 36.5t-39.5 14 q-27 0 -51 -14t-39 -36.5t-22 -48t-2.5 -47zM717.5 238q-6.5 -31 1 -56.5t29 -43.5t61.5 -18t70 18t49 43.5t25.5 56.5t-1.5 56.5t-30.5 43t-62.5 17.5t-69 -17.5t-47.5 -43t-25 -56.5z" />
<glyph unicode="&#xe44;" horiz-adv-x="1029" d="M479 2235l67 183q33 2 60 -4q23 -6 44 -19t28 -38q11 -32 9.5 -73.5t-7 -84.5t-13.5 -85t-11.5 -75.5t-0.5 -55t19 -22.5q15 -5 29.5 11.5t28.5 46t31.5 70t37.5 85t45 87.5q23 43 58 80q23 27 60.5 43t79 18.5t82.5 -9t71 -38t43.5 -69t0.5 -102.5q-13 -59 -33 -107 t-44 -93.5t-50 -93t-49 -101.5q-13 -33 -21.5 -58.5t-15 -50.5t-12 -53t-14.5 -65l-231 -1093q5 1 21.5 5t41.5 6.5t56 0t67 -15.5q40 -16 66.5 -49t36.5 -76t1 -92t-37 -98q-34 -58 -80.5 -94t-96 -51.5t-97.5 -14.5t-85 17q-50 23 -76 56.5t-35 69.5t-7 71t8 59l274 1294 q9 37 17 73.5t20 75.5t29 80.5t43 89.5q17 37 40.5 78.5t44.5 84t36.5 81t19.5 68.5t-9 48t-49 18q-20 0 -35.5 -19t-31.5 -48t-31.5 -66t-37.5 -76q-20 -44 -40.5 -88.5t-47 -80.5t-64 -58t-91.5 -22q-56 0 -81.5 21.5t-33.5 66t-1.5 110t19.5 152.5q6 42 -3.5 61.5 t-22.5 25.5t-26 4t-14 -2zM691.5 238q-6.5 -31 0.5 -56.5t29.5 -43.5t62.5 -18t70 18t48.5 43.5t24 56.5t-1.5 56.5t-29 43t-62 17.5t-69.5 -17.5t-48 -43t-25 -56.5z" />
<glyph unicode="&#xe45;" horiz-adv-x="1229" d="M309 1091l11 52q19 88 65.5 151t116.5 102.5t160 57t195 17.5q115 0 199.5 -20.5t135.5 -60.5t70 -98.5t2 -134.5l-373 -1758h-172l366 1725q12 54 6 93t-36 64.5t-85 38.5t-143 13q-83 0 -143.5 -11.5t-101 -36t-63.5 -60t-34 -82.5l-10 -52h-166z" />
<glyph unicode="&#xe46;" horiz-adv-x="1653" d="M688 1058q-4 46 6 94t35 95t60.5 87t80 70t97.5 46q65 16 116 13.5t89 -15t63.5 -32.5t41.5 -39.5t23 -34t7 -16.5q34 37 72 70q17 11 37.5 23t42.5 22t46.5 16.5t50.5 6.5q53 -1 88 -21t53.5 -53t22.5 -76q5 -43 -7 -91l-252 -1179q-7 -34 -15.5 -64.5t-23.5 -59.5 t-38 -59t-57 -63q-17 -20 -43 -35t-53 -27.5t-52.5 -22t-47 -16t-34.5 -9.5t-14 -3l-63 135q2 0 22 3t47.5 10t58 20.5t57.5 36.5q28 23 43 43.5t24 40.5t13.5 42.5t10.5 49.5l244 1150q17 87 -41 87q-22 0 -47.5 -17.5t-52 -44.5t-51.5 -57t-43.5 -57t-29.5 -44.5t-9 -17.5 q1 3 -1 18t-7 35t-15 46t-26 52q-23 38 -48 56.5t-45.5 25t-34.5 6t-15 -0.5q3 0 18 -12.5t26.5 -38t12.5 -67.5q2 -41 -23 -101q-17 -46 -47.5 -80t-68 -56.5t-79 -33t-79 -7t-69 20t-50.5 46.5q-23 38 -27 84zM809.5 1131q-5.5 -24 1 -45.5t25 -36t49.5 -14.5 q32 0 57 14.5t40.5 36t20 45.5t-1.5 45.5t-24.5 36t-49.5 14.5q-32 0 -57 -14.5t-40 -36t-20.5 -45.5z" />
<glyph unicode="&#xe47;" d="M-834 1732l48 220q18 89 49 161.5t85 127.5q56 56 118 88t130.5 47t142.5 18.5t152 3.5q88 0 151.5 10t110 26t75.5 33.5t46.5 33.5t24.5 26t8 10l88 -109q-2 0 -15.5 -15.5t-40.5 -37t-69.5 -44.5t-99.5 -40q-48 -13 -96 -18t-96 -5.5t-96 1.5t-94 2q-78 0 -144 -11.5 t-116.5 -43t-86.5 -88t-56 -146.5q-6 -27 -10 -50.5t-7 -49.5l234 179q2 -6 12.5 -22.5t25.5 -38t34.5 -44.5t41 -41.5t43.5 -30t45 -9.5q-16 48 -4 103q8 44 35.5 82.5t63 66t78.5 43t86 15.5q49 0 84.5 -18t57.5 -48t29.5 -70t-2.5 -86q-12 -54 -45 -104.5t-88 -82.5 q-55 -31 -113.5 -44t-112 -11t-100.5 14q-45 11 -76 27q-24 11 -48 27.5t-44 34.5t-34 33t-17 22l-186 -147h-202zM-86 1973.5q-6 -27.5 0.5 -50.5t26 -38t53.5 -15q35 0 60 15t41.5 38t22 50.5t-1.5 50t-25.5 37.5t-53.5 15q-34 0 -60 -15t-41.5 -37.5t-21.5 -50z" />
<glyph unicode="&#xe48;" d="M150 2438l89 413h173l-89 -413h-173z" />
<glyph unicode="&#xe49;" d="M-80 2431l17 84q3 0 13.5 1t23.5 2.5t27.5 5.5t25.5 9q22 8 41 23t35 35q-44 -7 -81.5 3.5t-62.5 34.5t-35 59t-1 78q8 44 32 80.5t56 63t70.5 41.5t77.5 15q48 1 83 -14.5t56.5 -43t29 -65t-2.5 -80.5t-32.5 -83t-45 -71.5t-43 -52.5t-27.5 -23q5 0 32 0.5t65 5t83 14.5 q45 12 85 32q48 26 84 60.5t61.5 73.5t41.5 80.5t23 81.5h120q0 -1 -8 -29.5t-25 -71.5t-46 -94t-75 -98q-56 -58 -130.5 -92t-153.5 -49.5t-160 -19t-151 -3.5q-30 0 -54.5 2t-48.5 5zM32 2776.5q-5 -23.5 1.5 -43t23.5 -33t46 -13.5q30 0 53.5 13.5t38 33t19.5 43t-1 43.5 t-23.5 33t-47.5 13t-53 -13t-37.5 -33t-19.5 -43.5z" />
<glyph unicode="&#xe4a;" d="M-213.5 2572q-0.5 48 13.5 104q13 48 35 92.5t53.5 77.5t72.5 53q40 18 90 21q42 1 78.5 -14.5t56.5 -42.5q0 1 9 10.5t27 20t42.5 19t58.5 8.5q45 -1 69 -21t35 -50.5t9.5 -67t-7.5 -69.5q-9 -37 -19 -66.5t-19 -51t-15.5 -34.5t-7.5 -17q31 11 54.5 32.5t42 50.5 t31 62.5t21.5 67t15.5 64t12.5 56.5q3 20 8 41.5t12.5 42.5t17.5 38.5t26 30.5h115q-28 -20 -43 -44t-22 -53q-15 -54 -25.5 -102t-22.5 -94t-30 -89t-49 -85q-24 -32 -51.5 -54t-55 -38t-56.5 -25t-56 -15q-31 -7 -62 -9q-31 0 -62 6q15 13 34.5 46t38 73t33 79.5 t20.5 63.5q4 20 7 43.5t-1 43.5t-14.5 33.5t-33.5 13.5q-17 0 -44 -15t-65 -49q-22 27 -54.5 48t-69.5 21q-20 0 -38 -9.5t-32 -23t-25.5 -31.5t-17.5 -37q43 13 68 14t31 1q40 0 67 -14.5t42 -37.5t18.5 -53t-1.5 -58q-9 -36 -28.5 -66t-47 -52t-62 -34.5t-71.5 -13.5 q-55 -2 -89 18t-50.5 56t-17 84zM-103 2581q-4 -20 1 -38t20 -30t42 -12q26 0 46 12t32.5 30t17 38t-0.5 38t-20 30t-41 12q-27 0 -47 -12t-33 -30t-17 -38z" />
<glyph unicode="&#xe4b;" d="M-61 2625l27 132h248l42 193h172l-42 -193h249l-27 -132h-249l-42 -194h-171l41 194h-248z" />
<glyph unicode="&#xe4c;" d="M-63.5 2504.5q6.5 53.5 34.5 105.5q29 54 67 87t82 52t93.5 28t103 15.5t108 12.5t108.5 21q45 13 74 33.5t46.5 41t24.5 36t7 17.5l86 -131q-9 -13 -19 -24.5t-21 -20.5q-23 -20 -51 -36t-71 -26q-28 -8 -64 -13.5t-67.5 -10t-54.5 -7t-25 -2.5q5 -9 11.5 -17.5 t10.5 -22.5q10 -22 14.5 -55.5t-5.5 -79.5q-9 -43 -37.5 -83t-70 -70t-94.5 -47t-111 -13q-67 3 -108.5 34.5t-59.5 76.5t-11.5 98.5zM78 2472q6 -25 27.5 -42.5t57.5 -17.5q37 0 65.5 17.5t47.5 42.5t24.5 54t-1 54t-26.5 42.5t-57 17.5t-66.5 -17.5t-47.5 -42.5t-24 -54 t0 -54z" />
<glyph unicode="&#xe4d;" d="M-160.5 1894.5q-6.5 48.5 4 100t37.5 100.5t69.5 86.5t98 60.5t124.5 23t114 -23t71.5 -60.5t33 -86.5t-4.5 -100.5t-38 -100t-69.5 -86.5t-97.5 -60.5t-123 -22.5q-69 0 -115 22.5t-72 60.5t-32.5 86.5zM-10 1993.5q-7 -32.5 1 -60.5t31.5 -46.5t66.5 -18.5 q41 0 72 18.5t51 46.5t27 60.5t-1 60.5t-31.5 46.5t-65 18.5t-73.5 -18.5t-51.5 -46.5t-26.5 -60.5z" />
<glyph unicode="&#xe4e;" d="M-390 1853q0 49 18.5 89.5t49 73t69.5 57.5t80 43.5t81.5 31.5t71.5 20q-64 8 -96.5 37t-32.5 76q0 54 35 101.5t96.5 83.5t146 57t184.5 21q42 0 99.5 -5.5t140.5 -30.5l-21 -100q-6 3 -26.5 9.5t-47 11.5t-55 9t-51.5 4q-33 0 -81 -2.5t-93 -16t-76.5 -44t-32.5 -84.5 q1 -16 6 -33.5t21 -32t45 -24t79 -9.5l-16 -72l-88 -5q-60 -4 -118 -19t-105 -42t-76 -66t-29 -89q2 -45 32.5 -71.5t75.5 -26.5q30 0 60.5 13.5t52 33.5t28 46.5t-10.5 52.5l94 37q20 -27 23 -61t-4 -64q-10 -34 -36 -63.5t-64.5 -51t-86.5 -33.5t-101 -12 q-73 0 -119.5 13.5t-73.5 35t-37.5 49t-10.5 52.5z" />
<glyph unicode="&#xe4f;" horiz-adv-x="1889" d="M387.5 515.5q-7.5 105.5 16.5 216t75.5 216.5t130 199.5t181.5 163.5t228.5 111.5t273.5 41.5q146 0 254.5 -41.5t181.5 -111.5t111.5 -163.5t45.5 -199.5t-16.5 -216.5t-75 -216t-130 -199t-181.5 -163.5t-229.5 -111.5t-272.5 -41.5t-254.5 41.5t-182.5 111.5 t-111.5 163.5t-45 199zM524.5 556q6.5 -86 37 -162.5t90.5 -133.5t148.5 -90.5t209.5 -33.5q120 0 223 33.5t187 90.5t148.5 133.5t106 162.5t61 177t13.5 176.5t-38 161.5t-91.5 133t-148 90.5t-207.5 33.5t-221.5 -33.5t-187 -90.5t-149 -133t-106.5 -161.5t-62 -176.5 t-13.5 -177zM686 633q0 71 21.5 137.5t59 125t89 107t110.5 83.5t125 54.5t133 19.5q77 0 142 -25t111 -71t71 -109t24 -138q-2 -71 -22 -137.5t-57 -125t-87 -107.5t-109.5 -85t-125.5 -56.5t-133 -20.5q-78 0 -142.5 26t-111 72.5t-71.5 110.5t-27 139zM824 659 q1 -48 19 -91t50 -74t76.5 -48.5t98.5 -17.5q77 0 145 32.5t118 85t79 116.5t29 129q-2 48 -20 90.5t-50 74.5t-76.5 50.5t-97.5 18.5q-45 0 -91.5 -13.5t-88 -38.5t-77.5 -58.5t-61.5 -74.5t-40 -87.5t-12.5 -93.5z" />
<glyph unicode="&#xe50;" horiz-adv-x="1530" d="M263 329.5q-14 102.5 10 219.5q24 116 82 217.5t150.5 178t219 121t286.5 44.5q159 0 266 -44.5t167 -121t76 -178.5t-8 -217q-26 -117 -84.5 -219.5t-151 -179t-219 -120.5t-285.5 -44q-160 0 -267 44t-167.5 120.5t-74.5 179zM422 384.5q10 -77.5 54.5 -134.5 t123.5 -90t202 -33q120 0 214 33t162 90t110.5 133.5t61.5 165.5q19 87 8 163t-54 132.5t-123 89.5t-200 33q-123 0 -216.5 -33t-161.5 -89.5t-111 -133t-62 -162.5q-18 -87 -8 -164.5z" />
<glyph unicode="&#xe51;" horiz-adv-x="1522" d="M230 285q-7 62 0 130t26 137q30 107 88 202t146 166.5t207 114.5q121 43 273 49q148 4 255.5 -31.5t171.5 -107t85.5 -175.5t0.5 -235q-17 -97 -46.5 -178.5t-66.5 -147t-77 -117.5t-80 -92q-92 -94 -206 -150l-105 91q49 23 94 53t87 72q34 34 69.5 80t66.5 104.5 t55 131.5t37 160q13 94 2.5 170t-53.5 130.5t-121 82t-198 23.5q-106 -4 -191 -35t-150 -84.5t-109.5 -126.5t-68.5 -160q-19 -70 -21.5 -140t13.5 -128t54 -100t101 -57t108 -10t76 17.5t47.5 27t21.5 17.5q-4 0 -24 -6t-48.5 -4.5t-64.5 16t-73 52.5q-23 22 -34.5 55 t-10 70.5t14.5 78.5t37.5 77.5t60.5 66.5t85 47q47 17 93 20t86 -8.5t70.5 -36t48.5 -61t20 -83.5q4 -48 -13 -106q-19 -68 -59 -136t-102 -120t-148 -82t-193 -23q-83 3 -144 27t-101.5 63.5t-63 93t-29.5 115.5zM710.5 401q-5.5 -29 1.5 -53.5t28.5 -41.5t58.5 -17 q38 0 67 17t47 41.5t23.5 53.5t-1.5 53.5t-29 41t-59 16.5q-38 0 -66.5 -16.5t-46.5 -41t-23.5 -53.5z" />
<glyph unicode="&#xe52;" horiz-adv-x="1580" d="M288 185.5q-1 31.5 4 64t11 57.5l195 916q5 27 11.5 52.5t9 48.5t-3.5 44t-23 38q-27 30 -56.5 42.5t-57.5 15.5q-33 6 -63 0l137 146q1 0 18.5 -3t41 -10t50 -18.5t49.5 -29.5q31 -26 50.5 -52.5t28 -56t7 -63.5t-10.5 -77l-207 -974q-1 -10 -5 -24.5t-6 -30.5t-0.5 -35 t5.5 -34q13 -33 46 -49.5t77 -16.5h524q41 0 73 10q31 10 68 41q19 16 29.5 33t17 35t10 37.5t9.5 40.5l102 479q5 26 6.5 51t-5 43.5t-23.5 30t-50 11.5q-41 0 -70.5 -20.5t-49 -46.5t-28.5 -51.5t-9 -34.5h-128q6 23 6 50t-9 50t-30.5 36.5t-63.5 9.5q-31 -4 -55.5 -25 t-42.5 -49t-29 -60t-17.5 -59t-10 -44.5t-2.5 -18.5q4 1 14 7.5t29.5 13t51 11.5t78.5 4q46 -5 80 -25.5t53.5 -53.5t23 -76t-10.5 -91q-12 -49 -37 -87.5t-61.5 -65.5t-82 -43t-99.5 -16q-66 0 -109.5 18.5t-69.5 50t-36.5 74t-10 90t10 99t22.5 100.5q17 66 47.5 134 t74 123t100.5 89q58 34 126 34q40 0 68 -7.5t46.5 -21.5t28.5 -29t15 -28.5t5 -23.5v-13q6 18 19.5 33t31.5 29q27 21 75.5 41t122.5 20q65 0 105 -22t59 -59t20.5 -86t-9.5 -103l-100 -468q-8 -31 -15.5 -61.5t-20.5 -59.5t-31 -56.5t-43 -53.5q-56 -53 -119 -79.5 t-132 -26.5h-596q-34 0 -63.5 3t-54.5 10t-47 20.5t-45 36.5q-25 23 -34 53.5t-10 62zM795.5 494.5q-6.5 -28.5 1 -53.5t29 -40.5t58.5 -15.5t64 15.5t44.5 40.5t23.5 53.5t-1 53t-27.5 40t-57.5 15.5q-38 0 -65 -15.5t-45 -40t-24.5 -53z" />
<glyph unicode="&#xe53;" horiz-adv-x="1511" d="M242.5 293q-0.5 63 9.5 131.5t24 136.5q27 108 69.5 202t100 164t132 109t167.5 39q49 0 82.5 -7.5t58.5 -22t41 -32.5q17 -18 28 -35q9 -23 13 -47t2 -53q20 56 58 99q17 18 40 36t52.5 32.5t67.5 22t83 7.5q70 2 120 -23t79 -71t35.5 -110t-9.5 -139l-156 -732h-172 l156 732q9 37 9 74.5t-8.5 67.5t-30 49t-58.5 22q-51 3 -89.5 -20t-67.5 -61.5t-49 -87t-30 -95.5l-29 -139h-154l28 132q10 45 12 94.5t-10 89.5t-42 63.5t-86 19.5q-48 -1 -86 -25.5t-68 -63t-51.5 -89.5t-37.5 -104q-16 -56 -26 -107.5t-15 -90.5t-7 -62.5t-2 -25.5 q2 6 10.5 19.5t28.5 30t55 31.5t89.5 20.5t98.5 -10t72.5 -46t40 -74.5t0.5 -95q-10 -55 -36 -101t-66.5 -82t-95 -56.5t-121.5 -20.5q-74 0 -124.5 24t-80.5 65t-42 96.5t-12.5 118.5zM452 177.5q7 -25.5 28.5 -43t60.5 -17.5q38 0 67.5 17.5t48 43t25.5 55t0 55 t-28.5 42.5t-60.5 17q-38 0 -67.5 -17t-48 -42.5t-25.5 -55t0 -55z" />
<glyph unicode="&#xe54;" horiz-adv-x="1605" d="M188 397q5 81 28.5 164.5t62 160t93 140t117.5 105.5q77 51 152 76t150.5 33.5t152 6t157 -7t167.5 -5.5q85 -2 179 10q60 7 108.5 32t86.5 60.5t66.5 78t50.5 85.5q24 50 42.5 105t30.5 119l139 -93q-2 -1 -10 -32.5t-26.5 -81t-49 -108t-78 -115t-111 -103 t-146.5 -72.5q-76 -21 -151 -28.5t-153 -6.5t-160 6.5t-174 11.5q-104 6 -187 -20.5t-146.5 -76t-108 -119.5t-72.5 -154q-23 -73 -25.5 -144.5t17 -131t62.5 -101.5t111 -55q23 -4 51 -3t58 7t58 14t50 15.5t35.5 12.5t15.5 5q-2 0 -19 6t-41.5 19.5t-51.5 34t-50 50 t-38.5 66.5t-15.5 83q0 54 18 111.5t53 106t89 83t127 41.5q59 7 102.5 -5t72 -37t43 -61t15 -76t-10.5 -82q-11 -44 -34 -81q-23 -38 -55.5 -62.5t-63 -39t-53.5 -20.5l-23 -7q3 -4 8.5 -12t16.5 -18t29 -21t48 -21q37 -12 69 -15.5t63.5 -8.5t65 -12t73.5 -26 q20 -10 34.5 -22t24 -23.5t14.5 -21.5t6 -13l-111 -110q-8 3 -23 21.5t-44 38t-78 33t-123 8.5q-54 -4 -113.5 -23.5t-121.5 -40t-126 -35.5t-125.5 -11.5t-119 33.5t-107.5 100q-41 55 -56.5 127t-10.5 153zM773.5 487q7.5 -25 28 -42t58 -17t66 17t46.5 42t24 54.5t0 54.5 t-27 42t-58 17t-65.5 -17t-46.5 -42t-25.5 -54.5t0 -54.5z" />
<glyph unicode="&#xe55;" horiz-adv-x="1687" d="M201 390q2 78 23.5 159.5t59.5 158t92 143t124 111.5q59 40 121.5 62.5t112.5 33t82 12.5t33 2q-7 9 -12.5 18.5t-11.5 22.5q-6 22 -6.5 55t16.5 80q20 49 49.5 83.5t66 56.5t78.5 32.5t88 10.5t85 -12t66.5 -35.5t41 -61.5t7.5 -89q-11 -52 -25 -82t-29 -48l-20 -20 q-7 -8 -16 -13q1 0 22 -2.5t54 -3t75.5 2.5t87.5 13q61 11 109.5 37t86.5 61.5t66 77t49 84.5q26 50 44.5 104.5t28.5 115.5l139 -93q-1 -1 -9 -32.5t-26.5 -81t-50 -108t-78 -115t-109.5 -103t-147 -72.5q-76 -21 -151 -28.5t-153 -6.5t-161 6.5t-173 11.5 q-104 6 -187 -20.5t-147 -76t-108 -119.5t-73 -154q-23 -73 -25 -144.5t17.5 -131t62 -101.5t110.5 -55q22 -4 51 -3t58 7t57 14t50 15.5t36 12.5t15 5q-1 0 -17.5 6t-41 19.5t-51.5 34t-50.5 50t-39.5 66.5t-16 83q0 54 18.5 111.5t54.5 106t89.5 83t126.5 41.5 q59 7 102.5 -5t72 -37t43 -61t15.5 -76t-11 -82q-12 -44 -33 -81q-23 -38 -56 -62.5t-63.5 -39t-53.5 -21t-25 -6.5l9 -12t16.5 -18t29 -21t47.5 -21q37 -12 70 -15.5t64.5 -8.5t65 -12t73.5 -26q20 -10 34.5 -22t23.5 -23.5t14 -21.5t5 -13l-110 -110q-6 3 -13.5 12 t-20.5 22t-32.5 26t-47 23.5t-66.5 15.5t-89 2q-40 -2 -83 -14.5t-88.5 -27.5t-92.5 -30.5t-95 -26.5t-94.5 -12.5t-91.5 11t-86.5 42.5t-80.5 81q-40 53 -57 124t-15 149zM792 487q7 -25 28 -42t58 -17t65.5 17t46.5 42t24.5 54.5t0 54.5t-27 42t-58 17t-66 -17t-46.5 -42 t-25 -54.5t0 -54.5zM957.5 1158.5q3.5 -25.5 22 -43t54.5 -20.5q34 -2 63.5 11.5t48 37t28 50.5t5 52t-23 43t-52.5 21q-35 3 -64 -10.5t-48.5 -37.5t-28 -51t-5 -52.5z" />
<glyph unicode="&#xe56;" horiz-adv-x="1591" d="M307 1464l151 125q2 0 21.5 -13.5t44 -43t49.5 -75.5t39 -110q11 -49 15 -100.5t3 -100t-4.5 -90.5t-8 -74t-8 -52.5t-3.5 -21.5q0 1 16.5 19t49.5 41.5t84 49.5t121 43q53 13 113.5 20t122.5 5.5t124.5 -11.5t117.5 -30t101 -51q46 -33 76 -76q37 -54 52.5 -120 t14 -136.5t-20 -143.5t-52 -142t-80.5 -129.5t-106 -106.5q-67 -54 -156.5 -89t-187 -49.5t-194.5 -8.5t-179 33t-143.5 74t-86.5 116q-11 30 -13 70t6.5 83t29 86t54 78.5t81.5 60t113 32.5q51 7 89.5 -1.5t67 -29t46 -50t24 -64.5t2 -73t-20.5 -75q-20 -51 -50 -83.5 t-58.5 -50t-48.5 -24t-21 -6.5q2 0 36 -11.5t90.5 -18.5t133 -1.5t163.5 38.5q81 30 138.5 87t93 127t50.5 146t11 145q-6 71 -34 123.5t-75.5 86t-115 47.5t-150.5 10q-78 -4 -139.5 -22t-108 -41.5t-79.5 -49.5t-54 -48.5t-31 -37.5l-10 -14h-180q2 1 7 21t10 54.5 t10 80.5t7.5 98t0.5 108.5t-10.5 111t-23 94.5t-30 68.5t-32 46.5t-31 28.5t-23.5 14t-11 3.5zM528.5 330q6.5 -25 28 -42.5t56.5 -17.5q38 0 67 17.5t47 42.5t24.5 54t0 54t-27 42.5t-58 17.5t-66.5 -17.5t-47 -42.5t-24.5 -54t0 -54z" />
<glyph unicode="&#xe57;" horiz-adv-x="1748" d="M242.5 293q-0.5 63 9.5 131.5t24 136.5q27 108 69.5 202t100 164t132 109t167.5 39q37 0 64.5 -7.5t46.5 -21.5t31 -30t20 -35q10 -20 13.5 -43.5t3.5 -52.5q1 2 6 16t18 35.5t33.5 46t52 45t74 34t97.5 13.5q71 0 116.5 -27t70.5 -75.5t30 -114.5t-3 -140 q-10 -82 -26.5 -150t-35.5 -123.5t-40 -100t-43 -78.5q-48 -80 -106 -126q2 3 17 7.5t41.5 15t59 32t70 58.5t74 95t69.5 142q27 73 45.5 137.5t33 125.5t26.5 118t25.5 117t32 123.5t45.5 136.5q25 66 53.5 115.5t58 84.5t57 58t49 37t35 21.5t15.5 9.5l83 -110 q-2 -1 -12.5 -6t-28.5 -16.5t-41.5 -32t-48 -56t-48 -86t-43.5 -122.5q-27 -95 -49 -184t-42 -173t-43 -161.5t-53 -149.5t-70 -138t-95 -126q-61 -67 -125.5 -108.5t-124.5 -64.5t-113.5 -31t-93.5 -8t-65 3t-28 3t9 15t33.5 43.5t51 71.5t60 100.5t61.5 127.5 q29 71 55 156q13 47 23.5 96t16.5 95.5t6 87.5t-8.5 71.5t-26 50.5t-45.5 23q-30 3 -56 -10t-49 -35t-41.5 -50.5t-32.5 -58.5t-24 -59.5t-15 -50.5l-20 -96h-153l20 96q3 13 8 38t8 54t2.5 58.5t-10.5 53.5t-31 40t-57 16q-48 0 -87.5 -24.5t-69.5 -63.5t-51.5 -90 t-34.5 -104q-16 -56 -26 -107.5t-15 -90.5t-7 -62.5t-2 -25.5q2 6 10.5 19.5t28.5 30t55 31.5t89.5 20.5t98.5 -10t72.5 -46t40 -74.5t0.5 -95q-10 -55 -36 -101t-66.5 -82t-95 -56.5t-121.5 -20.5q-74 0 -124.5 24t-80.5 65t-42 96.5t-12.5 118.5zM452 177.5 q7 -25.5 28.5 -43t60.5 -17.5q38 0 67.5 17.5t48 43t25.5 55t0 55t-28.5 42.5t-60.5 17q-38 0 -67.5 -17t-48 -42.5t-25.5 -55t0 -55z" />
<glyph unicode="&#xe58;" horiz-adv-x="1638" d="M231 321q-5 74 8 152.5t39.5 153.5t65.5 143t86 119q55 59 114 95.5t125 58t136 28.5t143 8t148 -4q75 -3 152 -5q85 -6 152 12.5t120 52t93 78.5q40 43 69 91q65 112 94 256l142 -96q0 -1 -5 -22t-18 -55t-33 -79t-50 -92.5t-71 -94.5t-94 -86.5t-118 -68.5 q-66 -28 -146 -39q-79 -9 -155.5 -6t-148.5 8t-141 8.5t-132.5 -6.5t-122 -36t-111.5 -78q-43 -45 -76 -108.5t-53 -134.5t-27 -141t1.5 -128.5t33 -97t67.5 -47.5q1 0 -0.5 21t1 53t9.5 71.5t23.5 77t45 69t72.5 46.5q52 17 92.5 9t73 -31.5t58 -59.5t50.5 -74.5 t49.5 -76.5t53 -66.5t63 -42.5t79.5 -6q45 6 70.5 27.5t39 45t17 43t5.5 23.5q-3 0 -21.5 -5t-48 -8t-67.5 0q-38 4 -78 21q-44 22 -66 62t-23.5 88t16.5 98.5t53 94.5t87 74t118 37q84 5 138.5 -20t81 -73.5t29.5 -115.5q5 -67 -12 -143q-10 -46 -27 -94t-42 -93t-58 -85 t-73.5 -70t-90 -47t-106.5 -17q-62 0 -109 26.5t-84.5 66.5t-65 86.5t-52 85.5t-46.5 63.5t-45 23.5q-26 -5 -41.5 -24t-23 -45.5t-8 -55t0.5 -51.5q3 -30 10.5 -53t14.5 -43q7 -12 10.5 -22t10.5 -18q-26 -17 -71.5 -28.5t-98.5 -10t-106 19t-93 59.5q-48 46 -72.5 110 t-29.5 138zM1159 508.5q-6 -29.5 1 -54.5t28.5 -42t58.5 -17t65.5 17t46.5 42t24.5 54.5t-0.5 54.5t-28.5 42t-58.5 17q-38 0 -66.5 -17t-46.5 -42t-24 -54.5z" />
<glyph unicode="&#xe59;" horiz-adv-x="1756" d="M255.5 321q-6.5 111 31.5 257q30 110 82.5 203t125.5 160t163.5 105t196.5 38q75 0 129 -18.5t92 -45t61.5 -58.5t35.5 -61t17 -50.5t5 -26.5q2 3 7.5 23t16.5 46t28 57t40.5 58t54.5 47t69 25q38 3 63 -6t42 -24t29 -32.5t23 -32.5t23 -26t31 -11q28 0 54.5 28.5t50 73 t45 96.5t38.5 100q36 107 55.5 193.5t22.5 137.5l140 -113q-3 -24 -9 -51t-14 -55q-7 -25 -14.5 -53t-17.5 -58t-22 -64q-15 -33 -32 -70q-37 -78 -78.5 -141.5t-84.5 -109t-86.5 -71.5t-83.5 -26q-24 0 -40.5 13t-30 32t-25 40.5t-23 39t-25 25t-32.5 0.5 q-29 -11 -49.5 -42t-34 -73t-20.5 -90q-8 -49 -10 -92q1 -135 26 -233t87 -165q30 -33 57 -47t48.5 -17.5t35.5 -1t20 2.5l-124 -157q-2 1 -12 1t-27 4t-38 10t-43 20t-43.5 36t-36.5 56q-38 65 -56.5 123.5t-29 118t-20.5 121t-30 132.5q-13 44 -28 87t-33 80.5t-41 66.5 t-52 50t-67 30t-85 5q-60 -6 -109 -34.5t-88 -73t-68.5 -101t-50 -116.5t-32 -120t-15 -112t0.5 -93.5t16 -63.5q22 -38 47.5 -61t50.5 -34.5t48.5 -13.5t46.5 2q25 6 52.5 19.5t54.5 33.5q-4 0 -19 0.5t-36.5 4.5t-46 11.5t-46 21.5t-38.5 34.5t-26 51.5q-10 38 -7 77 t18.5 77t40.5 73t61 61t81 41t98 15q70 0 113 -29.5t62 -76t18 -105t-20 -115.5q-23 -66 -61 -124t-91.5 -101.5t-120.5 -69.5t-150 -27q-96 -4 -169 32t-115 110.5t-48.5 185.5zM683 408q-5 -28 2 -52t28 -40t58 -16q36 0 62 16t43.5 40t22.5 52t-2.5 52.5t-27.5 40 t-57 15.5q-36 0 -63 -15.5t-44 -40t-22 -52.5z" />
<glyph unicode="&#xe5a;" horiz-adv-x="1741" d="M284.5 786q-11.5 55 2.5 122q16 74 52 130t80 91.5t92 53t88 17.5q30 0 51 -2.5t38 -4.5l36 -8l-35 -160l-34 7q-32 6 -66 0q-18 -4 -40.5 -14t-41 -28.5t-30 -45.5t-9.5 -66q0 -26 5.5 -44.5t18.5 -30.5t34.5 -18t52.5 -6q49 0 112 51t128.5 141t129 216t112.5 277h436 l-312 -1464h-218l273 1307h-122l-23 -61q-15 -30 -27.5 -66.5t-32.5 -81.5q-51 -116 -113.5 -206t-129 -152t-138 -95t-141.5 -33q-58 0 -106 21t-79.5 59.5t-43 93.5zM1358 0l314 1471h218l-313 -1471h-219z" />
<glyph unicode="&#xe5b;" horiz-adv-x="2551" d="M289 502q-2 120 24 223t70.5 189t106 152.5t131.5 111.5t145.5 68.5t151.5 23.5q72 0 127 -19.5t92.5 -55t57 -87t18.5 -116.5q1 -73 -14 -140t-43 -123.5t-66 -102t-83.5 -78.5t-94 -50.5t-95.5 -17.5q-38 0 -69.5 12.5t-52.5 34.5t-34 51.5t-13 62.5q1 51 23.5 97 t57.5 80t80.5 54t94.5 20q53 0 90.5 -18.5t60.5 -56.5l9 44q7 30 10 58t1 59q-1 39 -11 66t-31.5 45t-56 26.5t-82.5 8.5q-53 0 -106 -18.5t-101.5 -53.5t-91 -86.5t-74 -117.5t-48.5 -146.5t-17 -173.5q-1 -78 20.5 -133t61.5 -90t95.5 -51.5t122.5 -16.5q131 0 238 50 t187 147.5t130 240.5t66 327q202 -37 202 -394q21 43 37 81.5t26.5 76.5t16.5 77q6 41 6 84q1 20 2.5 34t-2.5 34q75 -23 126.5 -103.5t86.5 -220.5q15 40 25 67t16.5 55.5t9.5 63.5t3 91q156 -44 183 -315q20 21 33.5 50t22 62.5t12.5 71.5q5 38 2 75q6 -1 26.5 -21 t53 -48.5t72.5 -60t82.5 -56.5t85.5 -37.5t82 -2.5h18q-48 -18 -91 -29t-80 -11q-125 0 -197 95q-61 -178 -151 -205q-7 0 -17 21.5t-20 53.5t-20.5 70t-18.5 71.5t-13.5 59t-5.5 29.5q-73 -346 -173 -346q-6 0 -13 22t-14.5 56.5t-14.5 74.5t-13.5 76.5t-13.5 63.5t-13 34 q-97 -366 -223 -367q-3 0 -9.5 17.5t-13.5 45.5t-14 60.5t-13.5 61.5t-11 50t-4.5 25q-27 -130 -90.5 -241.5t-156 -192.5t-212.5 -127.5t-263 -46.5q-99 0 -179 28.5t-136.5 81.5t-87.5 130q-33 76 -33 175zM752 652q-3 -70 93 -70q32 0 56 10.5t40.5 30t25 44.5t10.5 54 q-3 70 -88 70q-31 0 -56.5 -8t-44.5 -24.5t-28 -43t-8 -63.5z" />
<glyph unicode="&#xe64;" />
<glyph unicode="&#x2000;" horiz-adv-x="1516" />
<glyph unicode="&#x2001;" horiz-adv-x="3033" />
<glyph unicode="&#x2002;" horiz-adv-x="1516" />
<glyph unicode="&#x2003;" horiz-adv-x="3033" />
<glyph unicode="&#x2004;" horiz-adv-x="1011" />
<glyph unicode="&#x2005;" horiz-adv-x="758" />
<glyph unicode="&#x2006;" horiz-adv-x="505" />
<glyph unicode="&#x2007;" horiz-adv-x="505" />
<glyph unicode="&#x2008;" horiz-adv-x="379" />
<glyph unicode="&#x2009;" horiz-adv-x="606" />
<glyph unicode="&#x200a;" horiz-adv-x="168" />
<glyph unicode="&#x200b;" />
<glyph unicode="&#x2010;" horiz-adv-x="1368" d="M295 556l35 172h1017l-36 -172h-1016z" />
<glyph unicode="&#x2011;" horiz-adv-x="1368" d="M295 556l35 172h1017l-36 -172h-1016z" />
<glyph unicode="&#x2012;" horiz-adv-x="1368" d="M295 556l35 172h1017l-36 -172h-1016z" />
<glyph unicode="&#x2013;" horiz-adv-x="1302" d="M120 563l36 169h1303l-36 -169h-1303z" />
<glyph unicode="&#x2014;" horiz-adv-x="2342" d="M120 563l36 169h2342l-36 -169h-2342z" />
<glyph unicode="&#x2018;" horiz-adv-x="662" d="M424.5 1394q5.5 56 28.5 115.5t60 114.5q39 56 85 101q54 50 115 80q61 28 126 43l-20 -91q-22 -8 -60 -30q-37 -22 -80 -65q-18 -18 -32 -37t-21.5 -36t-12 -29.5t-4.5 -13.5q46 8 83 -1t67 -41q16 -15 22.5 -40t4.5 -52.5t-12 -56.5t-26.5 -55t-40 -45t-52.5 -28 q-49 -17 -87.5 -18t-66.5 10.5t-45.5 31t-23.5 42.5q-13 45 -7.5 101z" />
<glyph unicode="&#x2019;" horiz-adv-x="614" d="M416 1190l20 91q24 9 61.5 30.5t80.5 64.5q18 15 31 36t21.5 38t12 29t3.5 14q-45 -9 -82 1q-36 8 -66 39q-16 16 -22.5 41t-4.5 53.5t11.5 57t26.5 54.5t41 45q23 21 52 29q49 17 87.5 17t66.5 -11t45 -31.5t24 -41.5q13 -46 6.5 -101.5t-29.5 -115t-59.5 -116 t-83.5 -99.5q-56 -48 -116 -79t-127 -45z" />
<glyph unicode="&#x201c;" horiz-adv-x="1284" d="M474.5 1320.5q5.5 56.5 28.5 116t60.5 115t82.5 98.5q55 50 115.5 81t127.5 45l-20 -91q-22 -9 -60 -30.5t-81 -65.5q-19 -16 -31.5 -36t-20.5 -37t-11.5 -30t-3.5 -15q45 9 82.5 -0.5t65.5 -39.5q23 -25 26 -66t-11.5 -84t-44.5 -78.5t-73 -49.5q-48 -18 -87.5 -18 t-67.5 11t-45 31q-18 18 -24 41q-13 46 -7.5 102.5zM1012.5 1320.5q5.5 56.5 28.5 116t60 115t84 98.5q55 50 115.5 81t128.5 45l-20 -91q-25 -9 -62 -30.5t-80 -65.5q-19 -16 -32.5 -36t-21.5 -37t-11.5 -30t-3.5 -15q46 9 83 -0.5t66 -39.5q23 -25 26 -66t-11.5 -84 t-44.5 -78.5t-73 -49.5q-49 -18 -88 -18t-67 11t-45 31q-17 18 -24 41q-13 46 -7.5 102.5z" />
<glyph unicode="&#x201d;" horiz-adv-x="1284" d="M531 1190l18 91q24 9 61.5 30.5t80.5 64.5q18 15 31 36t21.5 38t13 29t4.5 14q-46 -9 -83 1q-37 8 -67 39q-16 16 -22.5 41t-4.5 53.5t12 57t27.5 54.5t40.5 45q22 21 51 29q49 17 87.5 17t67 -11t45.5 -31.5t23 -41.5q13 -46 6.5 -101.5t-29.5 -115t-59.5 -116 t-81.5 -99.5q-56 -48 -116 -79t-127 -45zM1068 1190l20 91q25 9 62 30.5t80 64.5q18 15 31 36t21 38t12 29t4 14q-45 -9 -82 1q-38 8 -66 39q-23 26 -26.5 67.5t11.5 84t45 78.5t73 50q48 17 87 17t67.5 -11t45.5 -31.5t23 -41.5q13 -46 6.5 -101.5t-29 -115t-59.5 -116 t-83 -99.5q-54 -48 -115 -79t-128 -45z" />
<glyph unicode="&#x2022;" horiz-adv-x="1309" d="M401 548q-11 75 5.5 152.5t59 152.5t106.5 133.5t149.5 94.5t189.5 36q103 0 173.5 -36t109.5 -94.5t49 -133.5t-6.5 -152.5t-59 -152.5t-106 -133.5t-149 -94t-188.5 -35.5t-174 35.5t-109.5 94t-49.5 133.5z" />
<glyph unicode="&#x202f;" horiz-adv-x="606" />
<glyph unicode="&#x205f;" horiz-adv-x="758" />
<glyph unicode="&#x20ac;" horiz-adv-x="1352" d="M183 609q14 35 26.5 62.5t26.5 62.5h114l23 110l13 57h-140q13 34 25 60.5t26 59.5h126q53 144 142.5 258t202.5 192t244 118.5t266 40.5q98 0 173.5 -18.5t135.5 -59.5q-18 -46 -37.5 -88.5t-37.5 -87.5q-55 48 -122 73t-149 25q-100 0 -195.5 -32.5t-177.5 -93 t-146 -143t-103 -184.5h738q-13 -33 -23.5 -61t-23.5 -59h-732l-13 -57l-23 -110h696q-14 -35 -24.5 -62.5t-23.5 -62.5h-649q-6 -106 20.5 -191t78.5 -143.5t128.5 -90.5t172.5 -32q193 0 326 93l-40 -191q-70 -28 -146 -43q-74 -15 -154 -15q-152 0 -263 43.5t-183 123 t-105.5 193t-30.5 253.5h-162z" />
<glyph unicode="&#x2122;" horiz-adv-x="2471" d="M616 1593l26 124h716l-27 -124h-279l-163 -765h-147l162 765h-288zM1317 828l190 889h260l36 -632h29q74 156 150.5 315.5t151.5 316.5h260l-190 -889h-143l166 778h-22l-373 -778h-142l-43 778h-23l-164 -778h-143z" />
<glyph unicode="&#x25cc;" horiz-adv-x="2452" d="M819 1051l183 80q-7 -23 -14 -44.5t-13 -44.5q-4 -18 -5.5 -36.5t-2.5 -38.5zM899 601l99 171q17 -36 39.5 -63.5t49.5 -53.5zM1117 1497l151 -58q-40 -23 -74 -50.5t-66 -60.5zM1270 571q18 -3 39.5 -5.5t40.5 -2.5q20 0 36.5 2.5t33.5 5.5l-106 -153zM1463 1513 l119 163l47 -160q-17 3 -37 3h-39q-23 0 -45 -1.5t-45 -4.5zM1642 648q35 23 67.5 48t60.5 55l12 -150zM1806 1439l193 58l-100 -171q-17 32 -39 59.5t-54 53.5zM1909 974q6 16 12.5 33t10.5 35q4 20 6.5 41.5t3.5 40.5l136 -82z" />
<glyph unicode="&#x25fc;" horiz-adv-x="1224" d="M0 0v1224h1224v-1224h-1224z" />
<glyph unicode="&#xf700;" horiz-adv-x="1355" d="M382 1088q-2 55 25.5 112t76 107t116.5 88.5t145 57.5q63 14 115 17.5t97 -1.5t84.5 -15t77.5 -20.5t77.5 -20t83.5 -10.5q31 -3 76 12.5t88 51.5l47 -139q-50 -38 -107 -51.5t-111 -13.5q-66 0 -117.5 10t-101.5 21.5t-103.5 21.5t-125.5 10q-46 0 -87.5 -10t-74 -29 t-55.5 -45t-30 -59q-3 -10 14 -11.5t49.5 0.5t80 4t108.5 0.5t133 -10.5t154 -31q71 -20 117.5 -45.5t71 -59t28.5 -78t-7 -103.5l-139 -647q-13 -56 -41.5 -96t-67.5 -65t-86.5 -37.5t-97.5 -12.5q-58 0 -96 17.5t-59.5 46t-29.5 68.5q-9 40 -6 86l12 246 q-40 -19 -74 -25.5t-67 -6.5q-52 0 -91 18.5t-65 51.5t-36 76.5t2 92.5q11 53 39 97.5t67.5 77t88.5 50.5t104 18q123 0 175 -67t42 -183l-29 -413q-1 -26 0.5 -45.5t8.5 -32t20.5 -18.5t36.5 -6q17 0 31.5 3.5t23.5 13.5t16.5 27.5t12.5 42.5l126 590q12 54 -0.5 92.5 t-51.5 64.5t-108.5 41.5t-172.5 24.5q-63 5 -118.5 4.5t-103.5 -2t-86.5 -3t-66 2t-42.5 14.5t-16 32zM518.5 666.5q-6.5 -31.5 1.5 -57.5t30 -43t62 -17t69.5 17t48 43t25 57.5t-1.5 57t-30 43t-62 17.5t-69.5 -17.5t-48 -43t-25 -57z" />
<glyph unicode="&#xf701;" d="M-1164 1739l29 139q17 83 65 146.5t120 107.5t164 67t198 23q129 0 220.5 -30t146 -82t73 -122t1.5 -152l-22 -97h-995zM-964 1875h652l3 17q4 20 -5 53t-42 64.5t-96 54t-166 22.5q-61 0 -118.5 -10.5t-103 -32t-76.5 -57t-42 -87.5z" />
<glyph unicode="&#xf702;" d="M-1164 1739l29 137q17 83 65 147.5t117 108t158 66.5t187 23q75 -2 130 -9t93.5 -16.5t63 -21.5t38.5 -21t20 -15t7 -4l47 227h173l-133 -622h-995zM-964 1875h652l3 15q4 20 -5 54t-42 65.5t-97 53.5q-62 22 -165 22q-61 1 -118.5 -9t-103 -32t-76.5 -58 q-31 -35 -42 -87z" />
<glyph unicode="&#xf703;" d="M-1177 1730l32 148q14 70 53.5 130t100 105t140 73t175.5 32q54 1 88.5 -1t54.5 -5.5t27.5 -5.5t10.5 -2q6 27 22 47q13 20 33 43.5t55 47.5q45 30 94 44.5t95.5 14t86 -15t65.5 -43.5q27 -31 38.5 -69t8.5 -77.5t-18 -77t-39 -69.5q-20 -26 -37.5 -42t-31.5 -25.5 t-27.5 -15t-26.5 -11.5q-2 -3 -1 -32.5t1 -70.5q-3 -53 -10 -86t-9 -36h-981zM-977 1866h634q-4 17 -10.5 30.5t-14.5 26t-17.5 23t-19.5 23.5q-18 22 -41.5 43t-56 38.5t-73 27.5t-95.5 8q-126 -2 -202.5 -48.5t-96.5 -138.5zM-362 2157q-6 -28 1.5 -51.5t28 -40 t57.5 -16.5q36 0 63.5 16.5t44.5 40t22 51.5t-2 52.5t-27 40t-58 15.5q-35 0 -63 -15.5t-44.5 -40t-22.5 -52.5z" />
<glyph unicode="&#xf704;" d="M-1164 1740l29 139q17 83 65 146.5t120 107t164 66.5t198 23q36 0 69 -3l33 155h154l-38 -180q34 -10 62 -24t52 -31l50 235h173l-136 -634h-995zM-962 1876h650l5 17q2 13 -0.5 33t-14 41.5t-34 43t-57.5 38t-85.5 27t-119.5 10.5q-61 0 -118.5 -10t-103 -32 t-76.5 -57.5t-42 -86.5z" />
<glyph unicode="&#xf705;" d="M-480 1750l108 515h173l-110 -515h-171z" />
<glyph unicode="&#xf706;" d="M-930 1750l18 83q8 0 35.5 4.5t52.5 15.5q40 17 58 37t28 43q-46 -5 -82.5 4t-60 32t-35 57.5t-2.5 74.5q9 44 31 82t55 65t72 42t82 15q49 0 83 -15t54 -42t26 -64.5t-1 -81.5q-9 -44 -29 -87t-41.5 -76.5t-40 -55t-27.5 -23.5h27.5t59.5 4t78 13t83 26q46 20 85 54.5 t68.5 76t49 86.5t27.5 88h153q-1 -3 -9 -32.5t-26.5 -73.5t-50 -97t-78.5 -102q-38 -38 -86.5 -65.5t-104 -46.5t-115.5 -30t-119 -16t-114 -5t-99 3q-30 0 -55 2t-50 5zM-806 2118q-5 -24 1 -43.5t23 -33t47 -13.5t53 13.5t37 33t19 43.5t-0.5 43.5t-22.5 33t-47 13.5 t-53 -13.5t-37.5 -33t-19.5 -43.5z" />
<glyph unicode="&#xf707;" d="M-1007.5 1919q0.5 57 19.5 124q14 55 42 105.5t67.5 89.5t88.5 61t105 20q36 -1 62.5 -11t44 -23t25.5 -23.5t11 -12.5q0 3 11.5 14.5t32 25t50.5 23.5t66 10q55 0 83.5 -23.5t40.5 -60.5t10 -80.5t-11 -82.5q-8 -43 -19 -76.5t-21.5 -58t-18.5 -39.5t-11 -22 q39 17 66.5 43.5t47 58.5t33 68t23.5 70q10 32 16.5 67t16.5 82q12 49 27 83t27 55t20 30t8 11h134q-16 -17 -27.5 -32t-20 -29t-15.5 -27.5t-11 -29.5q-22 -55 -34 -106.5t-23 -100.5q-8 -28 -15 -57t-17.5 -56t-25.5 -55q-15 -26 -35 -55q-38 -49 -80 -80t-85.5 -49 t-85 -25.5t-74.5 -8t-55 1.5q-22 4 -28 4q30 40 53 74t40 70t30.5 74t23.5 83q6 25 10.5 53.5t2 53.5t-15 41.5t-40.5 16.5q-24 0 -46 -11.5t-40 -25t-28.5 -25.5t-10.5 -14q-26 32 -61 54t-78 22q-26 0 -49 -9.5t-42 -26t-32.5 -37.5t-19.5 -46q33 16 61.5 21t48.5 5 q44 0 76.5 -16.5t51.5 -43t24 -60.5t-2 -73q-8 -42 -32.5 -77.5t-57.5 -62t-72 -42t-80 -14.5q-62 1 -103 25.5t-59.5 67.5t-18 100zM-881 1922q-6 -24 0.5 -45t24.5 -34.5t51 -13.5q31 0 55 13.5t38 34.5t20 45t-0.5 45t-24 34.5t-49 13.5t-55.5 -13.5t-39 -34.5t-21 -45z " />
<glyph unicode="&#xf708;" d="M-874 2032l29 132h307l60 281h172l-60 -281h305l-28 -132h-304l-60 -282h-173l60 282h-308z" />
<glyph unicode="&#xf709;" d="M-709 1995q7 41 26 80t47 71t64 57t76 39q44 16 93.5 23t101.5 13.5t105.5 13.5t109.5 22q49 13 81 35.5t51 45.5q21 25 31 53l89 -137q-17 -27 -40 -49q-22 -20 -53.5 -38t-73.5 -28q-35 -8 -73.5 -14t-72 -10t-56 -6t-24.5 -2q18 -16 28 -38t13 -47.5t0 -51.5 q-3 -28 -11 -51q-17 -54 -46.5 -95t-69 -69.5t-86.5 -43.5t-101 -15q-56 0 -99 18.5t-71 51.5t-38 76.5t-1 95.5zM-569 1953.5q3 -21.5 13.5 -38t30.5 -27.5q22 -10 50 -10q30 0 54.5 10t43 26t30.5 37t18 44t3 44.5t-14.5 38.5t-30.5 27t-49 10t-55 -10t-44 -26.5 t-30.5 -38t-16.5 -42.5q-6 -23 -3 -44.5z" />
<glyph unicode="&#xf70a;" d="M-9 1750l108 515h171l-108 -515h-171z" />
<glyph unicode="&#xf70b;" d="M-506 1750l17 83q9 0 36 4.5t53 15.5q40 17 57.5 37t27.5 43q-45 -5 -81.5 4t-61 32t-35 57.5t-3.5 74.5q8 44 31 82t55 65t72.5 42t82.5 15q49 0 83.5 -15t54.5 -42t25.5 -64.5t-3 -81.5t-28 -87t-40.5 -76.5t-40.5 -55t-26.5 -23.5h27t59 4t76.5 13t83.5 26 q45 20 84.5 54.5t69 76t48.5 86.5t28 88h153q-1 -3 -8.5 -32.5t-26.5 -73.5t-50.5 -97t-78.5 -102q-38 -38 -86.5 -65.5t-104 -46.5t-116 -30t-119 -16t-113 -5t-98.5 3q-30 0 -55.5 2t-48.5 5zM-383 2118q-5 -24 1 -43.5t23 -33t47 -13.5t53 13.5t37.5 33t19.5 43.5 t-1 43.5t-23 33t-47 13.5t-53 -13.5t-37.5 -33t-19.5 -43.5z" />
<glyph unicode="&#xf70c;" d="M-674.5 1925q0.5 57 18.5 123q14 54 42.5 105.5t67 90t88 61t105.5 20.5q36 -1 62 -11t43.5 -23.5t25.5 -23.5t10 -12q0 3 12.5 14.5t33 25t50 23.5t66.5 10q54 0 82 -24.5t40 -61t10 -80t-9 -83.5q-9 -43 -20.5 -75.5t-22 -57t-18.5 -40.5t-11 -21q39 17 67 43.5t47 58 t33.5 67t24.5 71.5q9 31 15 66.5t16 82.5q12 48 27 82t27 55t20.5 30.5t8.5 10.5h136q-15 -17 -27.5 -32t-21 -29t-15.5 -27t-13 -29q-23 -56 -34.5 -107.5t-22.5 -99.5q-7 -29 -14.5 -57.5t-18 -56.5t-25.5 -55t-35 -56q-36 -48 -79 -79t-86.5 -49t-84 -25t-73.5 -7.5 t-55 1.5t-28 2q30 40 53 75t40.5 71t30.5 74q13 36 25 82q5 24 8.5 52.5t1 53.5t-15 42.5t-39.5 17.5q-24 0 -46 -11.5t-40 -26t-29 -26t-11 -12.5q-24 31 -59.5 53.5t-78.5 22.5q-26 0 -49 -10t-42 -26.5t-32 -38t-19 -45.5q32 15 60.5 20t49.5 5q44 0 75.5 -15.5t51 -42 t24.5 -61.5t-4 -72q-8 -42 -31.5 -77.5t-56.5 -63t-72.5 -42.5t-79.5 -13q-63 1 -103 25.5t-58.5 67.5t-18 100zM-550 1927.5q-5 -24.5 1.5 -45t25 -35t50 -14.5t55 14.5t38.5 35t20 45t-0.5 45t-23.5 34.5t-49.5 14t-55.5 -14t-40 -34.5t-21 -45z" />
<glyph unicode="&#xf70d;" d="M-256 2032l27 132h306l60 281h172l-60 -281h304l-27 -132h-304l-60 -282h-171l59 282h-306z" />
<glyph unicode="&#xf70e;" d="M-356 1995q7 41 25.5 80t46.5 71t64 57t76 39q44 16 93.5 23t101 13.5t105.5 13.5t110 22q50 13 81 35.5t51 45.5q21 25 32 53l88 -137q-18 -27 -40 -49q-22 -20 -53.5 -37t-74.5 -29q-34 -7 -72.5 -12.5t-72 -10t-56.5 -7t-26 -2.5q20 -16 30 -37.5t13 -46.5t-1 -52 q-2 -29 -11 -52q-34 -107 -114 -165t-189 -58q-55 0 -97.5 18.5t-70.5 51.5t-38.5 76.5t-0.5 95.5zM-217 1953.5q3 -21.5 13.5 -38t30.5 -27t50 -10.5t54.5 10t43 26t30.5 37t18 44t3 44.5t-14.5 38.5t-31 27t-49.5 10t-55 -10t-42.5 -26.5t-30 -38t-17.5 -42.5 q-6 -23 -3 -44.5z" />
<glyph unicode="&#xf70f;" horiz-adv-x="2019" d="M304.5 155q-7.5 49 4.5 105l100 468q7 36 22 74.5t49 79.5q33 37 69.5 62.5t76.5 36.5h-204l34 162q19 88 74 151t135 102.5t177.5 57t199.5 17.5q113 0 203.5 -16t148 -54t81.5 -98t6 -146l-185 -872q-8 -36 -9 -63.5t7.5 -46.5t27.5 -29t52 -10h182q37 0 61.5 12 t40 33.5t24 48t15.5 55.5l251 1179h173l-252 -1182q-11 -52 -29 -102.5t-49 -90.5t-77.5 -64.5t-113.5 -24.5h-322q-65 0 -101 25t-51.5 66t-14 91.5t11.5 102.5l178 839q12 56 2.5 95t-43 63.5t-93.5 35t-147 10.5q-85 0 -152 -9t-116.5 -30t-80 -54.5t-40.5 -81.5l-12 -50 h216l-26 -125q-7 0 -22 -3.5t-35.5 -13t-45 -26.5t-50.5 -43q-20 -20 -32.5 -40.5t-20.5 -40t-12 -35.5q-5 -18 -8 -30l-60 -281q8 1 32 7t58 6q53 0 94.5 -17.5t69 -49.5t37.5 -77t-1.5 -99.5t-41.5 -99.5t-71.5 -78t-91 -51.5t-99.5 -18.5q-59 0 -102.5 21.5t-69 59.5 t-33 87zM445.5 234q-6.5 -31 1.5 -56.5t29.5 -43t61.5 -17.5t70 17.5t48.5 43t25 56.5t-1.5 56.5t-30 43.5t-62 18t-69.5 -18t-48 -43.5t-25 -56.5z" />
<glyph unicode="&#xf710;" d="M-709 1979.5q-10 43.5 1 101.5q12 51 37.5 92t62.5 70t81 44t92 15q46 0 82.5 -15.5t60 -44t33 -68.5t-0.5 -85q-9 -41 -32 -79q-23 -37 -53 -68q2 0 18.5 -3.5t47 -5t71.5 0.5t90 11.5t105 29.5t115 54q45 27 77.5 58t54 62.5t35 63t20.5 58.5l174 4q-7 -20 -19 -52 t-34 -70t-56 -81t-82.5 -84.5t-115.5 -78.5t-155 -66q-62 -20 -146 -32t-171 -13q-50 0 -101.5 5t-99.5 17t-88 32.5t-67 52t-37 75zM-580 2091.5q-5 -26.5 1.5 -48t26 -36.5t50.5 -15q33 0 58.5 15t40.5 36.5t20 48t-1 48t-25.5 36.5t-50.5 15q-35 0 -60 -15t-40 -36.5 t-20 -48z" />
<glyph unicode="&#xf711;" d="M-681 1927.5q-7 48.5 4 100t38 100t70 86.5t98.5 61.5t124.5 23.5t114 -23.5t70.5 -61.5t32 -86.5t-4 -100t-38 -100t-69.5 -86.5t-97 -61t-124 -23t-114.5 23t-71.5 61t-33 86.5zM-532 2026q-7 -33 1.5 -60.5t33 -46.5t66 -19t73 19t50.5 46.5t26 60.5t-0.5 61 t-30.5 46.5t-64.5 18.5t-74.5 -18.5t-53 -46.5t-27 -61z" />
<glyph unicode="&#xf712;" d="M-1131 1746l47 220q19 89 50.5 161t83.5 128q56 56 118.5 88t131 47t142 18.5t152.5 3.5q87 -1 150.5 9t110 25.5t76 34.5t46.5 34t24.5 25.5t8.5 10.5l87 -109q-1 0 -14.5 -15t-41 -36t-69 -45t-98.5 -41q-48 -13 -96 -18t-97 -5.5t-96 1.5t-94 2q-79 0 -144 -11.5 t-116.5 -43t-87 -88t-55.5 -146.5q-6 -27 -10.5 -50.5t-7.5 -49.5l235 179q3 -6 12 -22.5t25 -38t35.5 -44t40.5 -41.5t44 -30t46 -10q-16 50 -6 103q10 44 36.5 83t62.5 66t79 42.5t85 15.5q49 0 85.5 -17.5t58.5 -47.5t29.5 -70.5t-2.5 -85.5q-12 -55 -45.5 -105 t-89.5 -83q-56 -31 -113.5 -43t-111.5 -11t-100.5 12.5t-76.5 27.5q-24 12 -47.5 28t-43.5 34t-34.5 33t-17.5 22l-184 -147h-203zM-382 1988q-6 -27 0.5 -50t25.5 -38t53 -15t60 15t42.5 38t22 50t-1.5 50t-26 38t-53 15t-60 -15t-41.5 -38t-21.5 -50z" />
<glyph unicode="&#xf713;" d="M-203 2434l87 415h172l-87 -415h-172z" />
<glyph unicode="&#xf714;" d="M-459 2438l17 85q3 0 14.5 0.5t24.5 2.5t27 5t27 9q20 8 39.5 24t34.5 36q-45 -7 -82.5 3t-61.5 33.5t-34 58.5t-3 78q8 44 32.5 80.5t56.5 63t71 41.5t77 15q49 1 84.5 -14.5t57 -42.5t28 -64.5t-4.5 -80.5q-10 -43 -31.5 -83.5t-45 -72t-43 -52t-25.5 -23.5q5 0 31 0.5 t64 5t82.5 15t84.5 30.5q49 26 84.5 61t61.5 74.5t41.5 81t22.5 81.5h120q0 -2 -7 -30.5t-24 -71.5t-47 -94q-29 -50 -75 -98q-37 -40 -82.5 -67t-96.5 -45t-104.5 -28.5t-107 -15.5t-105.5 -7q-53 -1 -99 -1q-30 0 -55 2t-49 5zM-344.5 2783.5q-4.5 -23.5 1.5 -43.5t23 -33 t47 -13t53 13t37 33t19 43.5t-0.5 43.5t-22.5 33t-48 13q-30 0 -53.5 -13t-37.5 -33t-18.5 -43.5z" />
<glyph unicode="&#xf715;" d="M-513 2575q0 48 14 103q13 49 35 93.5t55.5 77t75 52.5t91.5 22q40 1 74 -15.5t55 -41.5q9 8 21 18t27.5 18.5t37 15t50.5 6.5q44 0 68.5 -20.5t35 -51.5t10 -67.5t-7.5 -68.5q-9 -38 -19 -67t-19 -50.5t-15.5 -34.5l-8.5 -17q32 11 55.5 32.5t42 50t31.5 62.5t21.5 66.5 t15 64t12.5 57.5q4 20 9 41.5t12 42t18 38.5t26 31h113q-27 -20 -41 -44q-14 -26 -23 -55q-16 -54 -26 -101t-22 -93t-30 -89t-49 -86q-25 -31 -51.5 -53t-55 -38t-57 -25t-55.5 -15q-32 -7 -62 -9q-31 -1 -63 5q16 12 36 46t38.5 74t33 79t20.5 64q4 20 7 43.5t-0.5 43.5 t-14.5 33.5t-34 13.5q-17 0 -44 -15t-64 -49q-23 27 -54.5 47t-70.5 20q-20 0 -37 -8.5t-32 -22t-26.5 -32.5t-17.5 -37q43 13 67.5 14.5t31.5 1.5q40 0 67 -14.5t42 -37.5t18.5 -53t-1.5 -58q-9 -36 -28 -66t-46.5 -52.5t-62.5 -34.5t-74 -13q-54 -2 -87.5 18t-50.5 56 t-17 84zM-402 2545.5q4 -17.5 20 -29.5t41.5 -12t46.5 12t34 29.5t16.5 38t-1 38.5t-19.5 30t-42 12t-47 -12t-32.5 -30t-16.5 -38.5t0 -38z" />
<glyph unicode="&#xf716;" d="M-412 2625l27 132h251l41 197h170l-41 -197h249l-28 -132h-248l-42 -197h-171l41 197h-249z" />
<glyph unicode="&#xf717;" d="M-409.5 2504.5q6.5 53.5 34.5 105.5q29 54 67 87t81.5 52t93.5 28t103 15.5t107.5 12.5t109.5 21q45 13 73.5 33.5t45.5 41t24 36t7 17.5l86 -131q-8 -13 -18 -24.5t-20 -20.5q-23 -20 -52 -36q-30 -16 -73 -26q-28 -8 -63 -13.5t-66.5 -10t-54.5 -7t-26 -2.5 q11 -9 18.5 -17.5t13.5 -22.5q10 -22 11 -55.5t-10 -79.5q-16 -54 -45 -95.5t-68.5 -68.5t-90.5 -40t-109 -9q-69 3 -110.5 34.5t-58.5 76.5t-10.5 98.5zM-268.5 2526q-6.5 -29 1 -54t27.5 -42.5t57 -17.5t65.5 17.5t46.5 42.5t24.5 54t-0.5 54t-27 42.5t-57.5 17.5 t-66 -17.5t-46.5 -42.5t-24.5 -54z" />
<glyph unicode="&#xf718;" d="M-891 -869q9 57 36.5 103.5t68.5 79t90.5 51.5t100.5 19q60 0 104.5 -19t70 -52.5t33 -80.5t-4.5 -103l-78 -377h-172l39 181q-8 -1 -29.5 -7.5t-52.5 -5.5q-49 0 -90.5 14.5t-69 41.5t-41 66.5t-5.5 88.5zM-748.5 -847q-6.5 -28 0 -52.5t27 -40t56.5 -15.5t63 15.5 t44 40t23 52.5t-0.5 52t-26.5 40t-56 16t-63.5 -16t-44 -40t-23 -52z" />
<glyph unicode="&#xf719;" d="M-1327 -897q10 55 38.5 100t68.5 77t89.5 50t102.5 18q58 0 101 -18.5t69.5 -52t34.5 -81t-4 -104.5l-32 -153h218l86 402h172l-117 -554h-564l23 108q-7 -2 -25.5 -7t-50.5 -5q-51 0 -94 14.5t-72.5 43t-41 69t-2.5 93.5zM-1184 -884.5q-6 -27.5 0.5 -51.5t26.5 -40 t56 -16t63 16t44 40t23 51.5t-0.5 52t-27.5 41t-56 16.5q-36 0 -63 -16.5t-43.5 -41t-22.5 -52z" />
<glyph unicode="&#xf71a;" d="M-683.5 -779.5q8.5 38.5 32 71.5t62 55t89.5 22q50 0 79 -22t38.5 -55t1 -71.5t-32.5 -72t-62.5 -56t-88.5 -22.5t-79.5 22.5t-38.5 56t-0.5 72z" />
<glyph unicode="&#xf71d;" horiz-adv-x="1703" d="M342.5 1117q-9.5 43 0.5 92t37 98q36 59 82 94t93.5 50.5t95.5 15.5t88 -10q52 -18 78.5 -52t36.5 -70.5t8 -70.5q-1 -34 -7 -56l-157 -736l-44 -175l427 633h139l180 -633l30 175l126 593q-17 -7 -34.5 -13.5t-41 -12t-54 -9t-73.5 -5.5q-56 0 -112 8.5t-100 31.5 t-70 59t-17 92q6 51 35 91.5t75 70t106.5 46.5t132.5 19q99 0 162.5 -17t100 -38t50 -40.5t13.5 -21.5l28 30q12 13 24 35.5t29 58.5q16 30 24 56.5t11 56.5h180q-2 -11 -8 -37t-18.5 -58t-29 -68t-37.5 -67q-32 -47 -62.5 -78t-56.5 -51q-15 -11 -30.5 -21t-29.5 -19 l-247 -1164h-202l-190 742l-491 -742h-197l209 988q-6 -1 -21 -6t-38 -8t-55 0t-72 18q-44 16 -70.5 49t-36 76zM478.5 1219q-6.5 -31 1.5 -56.5t30 -42.5t62 -17t69.5 17t48 42.5t25 56.5t-1 56.5t-30 43t-62.5 17.5t-69.5 -17.5t-48 -43t-25 -56.5zM1237 1243.5 q-6 -19.5 4 -37.5t36.5 -30.5t75.5 -15.5q64 -3 103.5 8.5t65.5 24.5q15 8 26 16.5t21 17.5q1 3 -5.5 18t-27 31.5t-58.5 29t-99 12.5q-39 0 -68.5 -10.5t-48.5 -27.5t-25 -36.5z" />
<glyph d="M-659 1853q0 49 19 89.5t49 73t69 57.5t80.5 43.5t81.5 31.5t73 20q-65 8 -97 37t-34 76q0 54 36 101.5t97.5 83.5t146 57t182.5 21q42 0 100.5 -5.5t140.5 -30.5l-22 -100q-6 3 -26 9.5t-47 11.5t-55.5 9t-50 4t-51.5 -1t-61 -5t-61.5 -12.5t-55 -25t-39.5 -41.5 t-15 -62q2 -16 7 -33.5t20.5 -32t45 -24t79.5 -9.5l-16 -72l-89 -5q-60 -4 -118.5 -19t-105 -42t-75 -66t-28.5 -89q1 -45 32 -71.5t74 -26.5q30 0 61.5 13.5t53 33.5t27.5 46.5t-11 52.5l96 37q20 -27 23 -61t-6 -64q-10 -34 -35.5 -63.5t-64 -51t-86.5 -33.5t-101 -12 q-73 0 -120 13.5t-74.5 35t-38 49t-10.5 52.5z" />
<glyph horiz-adv-x="1216" d="M-696.5 1894.5q-7.5 48.5 3.5 100t39 100.5t70 86.5t98 60.5t123 23q68 0 114 -23t71.5 -60.5t33 -86.5t-3.5 -100.5t-38 -100t-69 -86.5t-98 -60.5t-125 -22.5q-68 0 -114 22.5t-71.5 60.5t-33 86.5zM-548 1993.5q-7 -32.5 1.5 -60.5t33 -46.5t67.5 -18.5q41 0 72 18.5 t51 46.5t27 60.5t-1.5 60.5t-31.5 46.5t-64.5 18.5t-73.5 -18.5t-53 -46.5t-28 -60.5zM299 1091l10 52q18 88 65.5 151t117 102.5t159.5 57t194 17.5q232 0 336.5 -80.5t72.5 -233.5l-246 -1157h-173l239 1124q11 54 5.5 93t-35.5 64.5t-86 38.5t-144 13q-83 0 -142.5 -11.5 t-100 -36t-63.5 -60t-35 -82.5l-10 -52h-164z" />
<glyph horiz-adv-x="1216" d="M-696.5 1894.5q-7.5 48.5 3.5 100t39 100.5t70 86.5t98 60.5t123 23q68 0 114 -23t71.5 -60.5t33 -86.5t-3.5 -100.5t-38 -100t-69 -86.5t-98 -60.5t-125 -22.5q-68 0 -114 22.5t-71.5 60.5t-33 86.5zM-548 1993.5q-7 -32.5 1.5 -60.5t33 -46.5t67.5 -18.5q41 0 72 18.5 t51 46.5t27 60.5t-1.5 60.5t-31.5 46.5t-64.5 18.5t-73.5 -18.5t-53 -46.5t-28 -60.5zM299 1091l10 52q18 88 65.5 151t117 102.5t159.5 57t194 17.5q232 0 336.5 -80.5t72.5 -233.5l-246 -1157h-173l239 1124q11 54 5.5 93t-35.5 64.5t-86 38.5t-144 13q-83 0 -142.5 -11.5 t-100 -36t-63.5 -60t-35 -82.5l-10 -52h-164z" />
<glyph d="M143 2402l87 414h173l-87 -414h-173z" />
<glyph d="M-203 2402l19 85q2 0 13 0.5t24 2t27 6t26 8.5q21 9 40.5 24t34.5 35q-45 -8 -81.5 3t-61.5 34.5t-36 58.5t-2 78q8 44 32 80.5t56.5 63t71.5 41.5t76 15q48 2 84 -14t57.5 -43t28 -65t-3.5 -81t-31.5 -83t-45 -71.5t-44 -52t-25.5 -23.5q4 0 30.5 0.5t64.5 5t83 15.5 q45 12 85 32q49 26 85 60t61 73.5t41 81t23 81.5h120q0 -2 -7 -30.5t-25 -71.5t-47 -93.5t-75 -97.5q-56 -59 -129.5 -92.5t-153.5 -49.5t-161 -19.5t-150 -3.5q-30 0 -55 2.5t-49 4.5zM-89 2747.5q-5 -23.5 0.5 -42.5t23.5 -33t48 -14t53 14t37 33t19 42.5t-1.5 43.5 t-23.5 33t-47 13t-53 -13t-37 -33t-19 -43.5z" />
<glyph d="M-328 2545q-1 48 13 103q13 49 36 93.5t56 77t75 52.5t92 22q40 1 74 -15q33 -18 55 -44q9 9 20 19t27.5 19t38 15.5t50.5 6.5q44 0 68.5 -20.5t35 -51.5t9.5 -67q0 -35 -7 -69q-9 -38 -19 -67t-19.5 -50.5t-15.5 -35t-8 -16.5q32 11 55.5 32.5t42 50t30.5 61.5 t21.5 66.5t15.5 65.5q7 30 12 56q5 20 10 42t12 42.5t17.5 38.5t26.5 31h113q-27 -20 -41.5 -44.5t-22.5 -54.5q-16 -54 -26 -102t-22 -93.5t-30 -88.5t-49 -86q-25 -32 -51.5 -54t-55 -37t-57 -25t-55.5 -14q-32 -7 -62.5 -8.5t-62.5 4.5q16 12 35.5 46t38 73t33.5 78.5 t21 65.5q4 20 7 43.5t-1.5 43.5t-14.5 33.5t-33 13.5q-17 0 -45 -15t-65 -49q-23 27 -54.5 47t-68.5 20q-20 0 -38 -8.5t-33 -23t-25.5 -32.5t-16.5 -36q43 13 67.5 14.5t31.5 1.5q40 0 66.5 -14.5t41.5 -38t18.5 -53t-2.5 -59.5q-7 -36 -26.5 -65t-47 -51.5t-62 -35 t-73.5 -12.5q-54 -2 -88.5 18t-50.5 56t-17 84zM-216 2515q4 -18 20 -30.5t41.5 -12.5t46.5 12.5t34 30.5t16.5 38.5t-1 38.5t-20 30t-41.5 12q-27 0 -47 -12t-32.5 -30t-16.5 -38.5t0 -38.5z" />
<glyph d="M-70 2590l29 130h248l42 194h171l-41 -194h249l-29 -130h-249l-41 -195h-172l42 195h-249z" />
<glyph d="M-212 2400l89 413h170l-87 -413h-172z" />
<glyph d="M-553 2420l18 84q3 0 13.5 0.5t23.5 3t27.5 6t25.5 9.5q22 8 41 23t35 35q-44 -7 -81.5 3t-62.5 34.5t-35 59.5t-1 76q8 45 31 81t56 63.5t71.5 41.5t77.5 16q48 1 83.5 -14.5t57.5 -43t28.5 -65t-3.5 -80.5t-32.5 -83t-45 -72.5t-42.5 -52.5t-28 -22h32t65 5t83 15.5 t85 30.5q47 26 83 61t61.5 73.5t41.5 79.5q16 43 23 83h120q0 -1 -7 -29.5t-25 -71.5t-47.5 -94t-73.5 -99q-56 -59 -130.5 -92t-153.5 -49t-160 -19t-151 -3q-30 0 -55 2q-25 1 -49 4zM-438 2766.5q-5 -23.5 0.5 -43.5t22.5 -33.5t47 -13.5q31 0 54.5 13.5t37.5 33.5 t19 43.5t-0.5 43t-23.5 33t-48 13.5t-53 -13.5t-37 -33t-19 -43z" />
<glyph d="M-605.5 2559q-0.5 48 13.5 104q13 48 36 92.5t55.5 77.5t74 53t91.5 21q40 2 75 -15q34 -18 56 -43q8 8 19.5 18t28 19.5t38 16t49.5 6.5q45 0 69 -21t35 -51.5t10 -67.5q-1 -35 -8 -69q-8 -37 -18 -66.5t-19.5 -51t-16 -35t-7.5 -16.5q45 16 76.5 56t51 88.5t30 99.5 t19.5 88q3 20 8 42t13 43t18 39q8 17 25 30h115q-27 -20 -42 -44t-23 -54q-15 -55 -25 -103t-22.5 -93.5t-30 -88.5t-49.5 -86q-24 -31 -50.5 -53.5t-55 -37.5t-57 -25t-54.5 -14q-32 -7 -62.5 -8.5t-62.5 4.5q16 13 35.5 46.5t37 73t32.5 78.5t21 65q4 20 7 43.5t-0.5 43.5 t-14 33.5t-33.5 13.5q-17 0 -44.5 -15t-64.5 -49q-23 27 -55 47t-69 20q-20 0 -38 -8.5t-32.5 -23t-26 -32t-16.5 -36.5q43 13 68 14.5t30 1.5q40 0 67.5 -14.5t42.5 -38t18 -52.5q2 -30 -3 -60q-9 -35 -27.5 -64.5t-46.5 -51.5t-63 -35t-72 -13q-54 -1 -88 19t-51 55.5 t-17.5 83.5zM-494 2529q5 -18 20 -30t42 -12q26 0 46 12t33 30t17 38.5t-1 38.5t-20 30t-41 12q-27 0 -47 -12t-32 -30t-17 -38.5t0 -38.5z" />
<glyph d="M-436 2598l28 132h249l43 197h170l-41 -197h249l-29 -132h-249l-41 -197h-172l42 197h-249z" />
</font>
</defs>
</svg>
